<svg xmlns="http://www.w3.org/2000/svg" xmlns:xlink="http://www.w3.org/1999/xlink" width="108" height="108" viewBox="0 0 108 108">
  <defs>
    <filter id="Trazado_982550" x="0" y="0" width="108" height="108" filterUnits="userSpaceOnUse">
      <feOffset dy="3" input="SourceAlpha"/>
      <feGaussianBlur stdDeviation="3" result="blur"/>
      <feFlood flood-opacity="0.161"/>
      <feComposite operator="in" in2="blur"/>
      <feComposite in="SourceGraphic"/>
    </filter>
  </defs>
  <g id="Grupo_1151594" data-name="Grupo 1151594" transform="translate(-201 -3320)">
    <g id="Grupo_1150927" data-name="Grupo 1150927" transform="translate(0 1715)">
      <g transform="matrix(1, 0, 0, 1, 201, 1605)" filter="url(#Trazado_982550)">
        <g id="Trazado_982550-2" data-name="Trazado 982550" transform="translate(9 6)" fill="#f3f3f3">
          <path d="M 45 88.5 C 39.12687683105469 88.5 33.43022537231445 87.35007476806641 28.06830024719238 85.08217620849609 C 22.88852500915527 82.89131164550781 18.23629951477051 79.75458526611328 14.2408504486084 75.75914764404297 C 10.24541282653809 71.76370239257812 7.108687400817871 67.11147308349609 4.917825222015381 61.93170166015625 C 2.649924993515015 56.56977462768555 1.5 50.87312316894531 1.5 45 C 1.5 39.12687683105469 2.649924993515015 33.43022537231445 4.917825222015381 28.06830024719238 C 7.108687400817871 22.88852500915527 10.24541282653809 18.23629951477051 14.2408504486084 14.2408504486084 C 18.23629951477051 10.24541282653809 22.88852500915527 7.108687400817871 28.06830024719238 4.917825222015381 C 33.43022537231445 2.649924993515015 39.12687683105469 1.5 45 1.5 C 50.87312316894531 1.5 56.56977462768555 2.649924993515015 61.93170166015625 4.917825222015381 C 67.11147308349609 7.108687400817871 71.76370239257812 10.24541282653809 75.75914764404297 14.2408504486084 C 79.75458526611328 18.23629951477051 82.89131164550781 22.88852500915527 85.08217620849609 28.06830024719238 C 87.35007476806641 33.43022537231445 88.5 39.12687683105469 88.5 45 C 88.5 50.87312316894531 87.35007476806641 56.56977462768555 85.08217620849609 61.93170166015625 C 82.89131164550781 67.11147308349609 79.75458526611328 71.76370239257812 75.75914764404297 75.75914764404297 C 71.76370239257812 79.75458526611328 67.11147308349609 82.89131164550781 61.93170166015625 85.08217620849609 C 56.56977462768555 87.35007476806641 50.87312316894531 88.5 45 88.5 Z" stroke="none"/>
          <path d="M 45 3 C 39.32871246337891 3 33.82865524291992 4.110054016113281 28.65262985229492 6.299339294433594 C 23.65165710449219 8.414573669433594 19.15968322753906 11.44334411621094 15.301513671875 15.301513671875 C 11.44334411621094 19.15968322753906 8.414573669433594 23.65165710449219 6.299339294433594 28.65262985229492 C 4.110054016113281 33.82865524291992 3 39.32871246337891 3 45 C 3 50.67128753662109 4.110054016113281 56.17134475708008 6.299339294433594 61.34737396240234 C 8.414573669433594 66.34834289550781 11.44334411621094 70.84031677246094 15.301513671875 74.698486328125 C 19.15968322753906 78.55665588378906 23.65165710449219 81.58542633056641 28.65262985229492 83.70066070556641 C 33.82865524291992 85.88994598388672 39.32871246337891 87 45 87 C 50.67128753662109 87 56.17134475708008 85.88994598388672 61.34737396240234 83.70066070556641 C 66.34834289550781 81.58542633056641 70.84031677246094 78.55665588378906 74.698486328125 74.698486328125 C 78.55665588378906 70.84031677246094 81.58542633056641 66.34834289550781 83.70066070556641 61.34737396240234 C 85.88994598388672 56.17134475708008 87 50.67128753662109 87 45 C 87 39.32871246337891 85.88994598388672 33.82865524291992 83.70066070556641 28.65262985229492 C 81.58542633056641 23.65165710449219 78.55665588378906 19.15968322753906 74.698486328125 15.301513671875 C 70.84031677246094 11.44334411621094 66.34834289550781 8.414573669433594 61.34737396240234 6.299339294433594 C 56.17134475708008 4.110054016113281 50.67128753662109 3 45 3 M 45 0 C 69.85281372070312 0 90 20.14718627929688 90 45 C 90 69.85281372070312 69.85281372070312 90 45 90 C 20.14718627929688 90 0 69.85281372070312 0 45 C 0 20.14718627929688 20.14718627929688 0 45 0 Z" stroke="none" fill="#82e0e0"/>
        </g>
      </g>
    </g>
    <g id="informacion" transform="translate(199.152 3339.645)">
      <path id="Trazado_986498" data-name="Trazado 986498" d="M279.763,304.746l-6.478-6.478a17.518,17.518,0,0,1-2.928,2.928l6.478,6.478Z" transform="translate(-212.75 -261.736)" fill="#8abbd5"/>
      <path id="Trazado_986499" data-name="Trazado 986499" d="M278.27,317.565l-6.392-6.392a17.524,17.524,0,0,1-1.521,1.348L276.835,319Z" transform="translate(-212.75 -273.061)" fill="#6cabca"/>
      <g id="Grupo_1151572" data-name="Grupo 1151572" transform="translate(63.635 42.56)">
        <g id="Grupo_1151571" data-name="Grupo 1151571" transform="translate(0 0)">
          <path id="Trazado_986500" data-name="Trazado 986500" d="M324.892,347.876a1.329,1.329,0,0,0-1.88,0l-3.05,3.05a1.329,1.329,0,0,0,0,1.88l2.2,2.2,4.929-4.929Z" transform="translate(-319.574 -347.486)" fill="#d8ecfe"/>
        </g>
        <path id="Trazado_986501" data-name="Trazado 986501" d="M323.077,352.5a1.329,1.329,0,0,1,0-1.88l2.28-2.28-.465-.465a1.329,1.329,0,0,0-1.88,0l-3.05,3.05a1.329,1.329,0,0,0,0,1.88l2.2,2.2,1.709-1.709Z" transform="translate(-319.574 -347.486)" fill="#c4e2ff"/>
      </g>
      <g id="Grupo_1151573" data-name="Grupo 1151573" transform="translate(66.223 45.148)">
        <path id="Trazado_986502" data-name="Trazado 986502" d="M356.765,382.567l-2.11,2.11a1.994,1.994,0,0,1-2.82,0l-11.129-11.129,4.929-4.929,11.129,11.129A1.994,1.994,0,0,1,356.765,382.567Z" transform="translate(-340.706 -368.618)" fill="#2ed1e2"/>
      </g>
      <g id="Grupo_1151574" data-name="Grupo 1151574" transform="translate(66.223 45.148)">
        <path id="Trazado_986503" data-name="Trazado 986503" d="M345.909,372.681l1.895-1.895-2.169-2.169-4.929,4.929,11.129,11.129a1.994,1.994,0,0,0,2.82,0l.759-.759-9.5-9.5A1.225,1.225,0,0,1,345.909,372.681Z" transform="translate(-340.706 -368.618)" fill="#03bed7"/>
      </g>
      <path id="Trazado_986504" data-name="Trazado 986504" d="M75.093,85.491H67.03a.613.613,0,0,0-.433.179l-4.4,4.4a.612.612,0,0,1-1.045-.433V86.1a.612.612,0,0,0-.612-.612h-4.7a.612.612,0,0,1-.612-.612V69.718A17.424,17.424,0,0,0,41.289,92.662h9.556a.367.367,0,0,1,.26.108l3.268,3.268a.367.367,0,0,1,.108.26v7.758A17.421,17.421,0,0,0,75.154,86.95C75.154,86.458,75.132,85.972,75.093,85.491Z" transform="translate(-10.896 -61.179)" fill="#00f2a6"/>
      <path id="Trazado_986505" data-name="Trazado 986505" d="M99.657,114.451H95.6a.613.613,0,0,0-.433.179l-4.4,4.4a.612.612,0,0,1-1.045-.433v-3.53a.612.612,0,0,0-.612-.612h-4.7a.612.612,0,0,1-.612-.612V102.72a13.431,13.431,0,0,0-9.641,18.9h5.255a.367.367,0,0,1,.26.108L82.943,125a.367.367,0,0,1,.108.26v3.677A13.433,13.433,0,0,0,99.736,115.91a13.59,13.59,0,0,0-.079-1.458Z" transform="translate(-39.466 -90.139)" fill="#d8ecfe"/>
      <g id="Grupo_1151575" data-name="Grupo 1151575" transform="translate(33.42 12.581)">
        <path id="Trazado_986506" data-name="Trazado 986506" d="M79.318,121.622A13.43,13.43,0,0,1,83.8,104.893V102.72a13.431,13.431,0,0,0-9.641,18.9Z" transform="translate(-72.887 -102.72)" fill="#b3dafe"/>
      </g>
      <g id="Grupo_1151580" data-name="Grupo 1151580" transform="translate(44.335 0.919)">
        <g id="Grupo_1151576" data-name="Grupo 1151576" transform="translate(0)">
          <path id="Trazado_986507" data-name="Trazado 986507" d="M184.78,7.5H162.611a.612.612,0,0,0-.612.612V30.281a.612.612,0,0,0,.612.612h4.7a.612.612,0,0,1,.612.612v3.53a.612.612,0,0,0,1.045.433l4.4-4.4a.612.612,0,0,1,.433-.179H184.78a.612.612,0,0,0,.612-.612V8.112A.612.612,0,0,0,184.78,7.5Z" transform="translate(-161.999 -7.5)" fill="#2ed1e2"/>
        </g>
        <g id="Grupo_1151578" data-name="Grupo 1151578" transform="translate(0)">
          <g id="Grupo_1151577" data-name="Grupo 1151577">
            <path id="Trazado_986508" data-name="Trazado 986508" d="M166.163,30.281V8.112a.612.612,0,0,1,.612-.612h-4.164a.612.612,0,0,0-.612.612V30.281a.612.612,0,0,0,.612.612h4.164A.612.612,0,0,1,166.163,30.281Z" transform="translate(-161.999 -7.5)" fill="#03bed7"/>
          </g>
        </g>
        <g id="Grupo_1151579" data-name="Grupo 1151579" transform="translate(9.986 3.858)">
          <path id="Trazado_986509" data-name="Trazado 986509" d="M247,98.135h-3.461V89.082h3.192a.269.269,0,0,1,.269.269Z" transform="translate(-243.535 -82.948)" fill="#fff"/>
          <path id="Trazado_986510" data-name="Trazado 986510" d="M246.727,42.461H243.8a.269.269,0,0,1-.269-.269V39.269A.269.269,0,0,1,243.8,39h2.923a.269.269,0,0,1,.269.269v2.923A.269.269,0,0,1,246.727,42.461Z" transform="translate(-243.535 -39)" fill="#fff"/>
        </g>
      </g>
      <g id="Grupo_1151581" data-name="Grupo 1151581" transform="translate(68.191 27.911)">
        <path id="Trazado_986511" data-name="Trazado 986511" d="M365.448,236.919h-8.3a.367.367,0,0,1-.367-.367v-8.3a.367.367,0,0,1,.367-.367h8.3a.367.367,0,0,1,.367.367v8.3A.367.367,0,0,1,365.448,236.919Z" transform="translate(-356.777 -227.881)" fill="#00f2a6"/>
      </g>
      <g id="Grupo_1151582" data-name="Grupo 1151582" transform="translate(68.191 27.911)">
        <path id="Trazado_986512" data-name="Trazado 986512" d="M359.866,236.552v-8.3a.367.367,0,0,1,.367-.367h-3.089a.367.367,0,0,0-.367.367v8.3a.367.367,0,0,0,.367.367h3.089A.367.367,0,0,1,359.866,236.552Z" transform="translate(-356.777 -227.881)" fill="#05e39c"/>
      </g>
      <g id="Grupo_1151583" data-name="Grupo 1151583" transform="translate(48.519 47.45)">
        <path id="Trazado_986513" data-name="Trazado 986513" d="M202.042,393.657h-5.512a.367.367,0,0,1-.367-.367v-5.512a.367.367,0,0,1,.367-.367h5.512a.367.367,0,0,1,.367.367v5.512A.367.367,0,0,1,202.042,393.657Z" transform="translate(-196.162 -387.41)" fill="#fe646f"/>
      </g>
      <g id="Grupo_1151584" data-name="Grupo 1151584" transform="translate(48.519 47.45)">
        <path id="Trazado_986514" data-name="Trazado 986514" d="M198.837,393.29v-5.512a.367.367,0,0,1,.367-.367h-2.675a.367.367,0,0,0-.367.367v5.512a.367.367,0,0,0,.367.367H199.2A.367.367,0,0,1,198.837,393.29Z" transform="translate(-196.162 -387.41)" fill="#fd4755"/>
      </g>
      <g id="Grupo_1151585" data-name="Grupo 1151585" transform="translate(31.842 2.94)">
        <path id="Trazado_986515" data-name="Trazado 986515" d="M64.959,29.326H60.367A.367.367,0,0,1,60,28.959V24.367A.367.367,0,0,1,60.367,24h4.592a.367.367,0,0,1,.367.367v4.592A.368.368,0,0,1,64.959,29.326Z" transform="translate(-60 -24)" fill="#ffe177"/>
      </g>
      <g id="Grupo_1151586" data-name="Grupo 1151586" transform="translate(31.842 2.94)">
        <path id="Trazado_986516" data-name="Trazado 986516" d="M62.426,28.959V24.367A.367.367,0,0,1,62.793,24H60.367a.367.367,0,0,0-.367.367v4.592a.367.367,0,0,0,.367.367h2.426A.367.367,0,0,1,62.426,28.959Z" transform="translate(-60 -24)" fill="#ffc344"/>
      </g>
      <g id="Grupo_1151589" data-name="Grupo 1151589" transform="translate(28.831 31.483)">
        <g id="Grupo_1151587" data-name="Grupo 1151587" transform="translate(0)">
          <path id="Trazado_986517" data-name="Trazado 986517" d="M46.53,257.047H35.779a.367.367,0,0,0-.367.367v17.708a.367.367,0,0,0,.367.367H49.8a.367.367,0,0,0,.367-.367V260.683a.367.367,0,0,0-.108-.26l-3.268-3.268A.367.367,0,0,0,46.53,257.047Z" transform="translate(-35.412 -257.047)" fill="#ffe177"/>
        </g>
        <g id="Grupo_1151588" data-name="Grupo 1151588">
          <path id="Trazado_986518" data-name="Trazado 986518" d="M39.526,275.122V257.414a.367.367,0,0,1,.367-.367H35.779a.367.367,0,0,0-.367.367v17.708a.367.367,0,0,0,.367.367h4.114A.367.367,0,0,1,39.526,275.122Z" transform="translate(-35.412 -257.047)" fill="#ffc344"/>
        </g>
      </g>
      <g id="Grupo_1151592" data-name="Grupo 1151592" transform="translate(71.647 8.77)">
        <g id="Grupo_1151590" data-name="Grupo 1151590">
          <path id="Trazado_986519" data-name="Trazado 986519" d="M392.933,71.607H385.36a.367.367,0,0,0-.367.367V84.482a.367.367,0,0,0,.367.367h9.859a.367.367,0,0,0,.367-.367V74.261a.367.367,0,0,0-.108-.26l-2.286-2.286A.367.367,0,0,0,392.933,71.607Z" transform="translate(-384.993 -71.607)" fill="#d8ecfe"/>
        </g>
        <g id="Grupo_1151591" data-name="Grupo 1151591" transform="translate(0 0)">
          <path id="Trazado_986520" data-name="Trazado 986520" d="M388.485,84.482V71.974a.367.367,0,0,1,.367-.367H385.36a.367.367,0,0,0-.367.367V84.482a.367.367,0,0,0,.367.367h3.492A.367.367,0,0,1,388.485,84.482Z" transform="translate(-384.993 -71.607)" fill="#c4e2ff"/>
        </g>
      </g>
      <g id="Grupo_1151593" data-name="Grupo 1151593" transform="translate(27.912 0)">
        <path id="Trazado_986521" data-name="Trazado 986521" d="M82.931,55.628,78.58,51.277a.919.919,0,0,0-1.3,1.3l4.351,4.351a1.075,1.075,0,0,1,0,1.521l-2.11,2.11a1.075,1.075,0,0,1-1.521,0l-10.48-10.48,3.63-3.63,3.1,3.1a.919.919,0,0,0,1.3-1.3L69.6,42.3a2.25,2.25,0,0,0-2.476-.474L61.742,36.44a18.231,18.231,0,0,0,3.434-10.67c0-.181,0-.36-.009-.54h1.949A1.533,1.533,0,0,0,68.647,23.7V15.065a.919.919,0,0,0-1.837,0v8.329H56.133a1.521,1.521,0,0,0-1.083.448l-3.873,3.873V24.925a1.533,1.533,0,0,0-1.531-1.531H45.253V1.837H66.81v8.941a.919.919,0,0,0,1.837,0V1.531A1.533,1.533,0,0,0,67.116,0H44.947a1.533,1.533,0,0,0-1.531,1.531V7.763a18.331,18.331,0,0,0-14.264,22.8,1.287,1.287,0,0,0-1.241,1.284V49.558A1.287,1.287,0,0,0,29.2,50.844h6.441a.919.919,0,1,0,0-1.837h-5.89V32.4H39.72l2.946,2.946v13.66h-2.74a.919.919,0,0,0,0,1.837h3.291A1.287,1.287,0,0,0,44.5,49.558V43.952a18.3,18.3,0,0,0,13.012-3.284L62.9,46.052a2.248,2.248,0,0,0,.476,2.477L76.7,61.857a2.912,2.912,0,0,0,4.119,0l2.11-2.11a2.913,2.913,0,0,0,0-4.119ZM43.416,9.636v2.205A14.342,14.342,0,0,0,33.327,30.564H31.063A16.5,16.5,0,0,1,43.416,9.636Zm-2.558,21.3a1.278,1.278,0,0,0-.909-.377H35.3a12.5,12.5,0,0,1,8.121-16.82V23.7a1.533,1.533,0,0,0,1.531,1.531h4.393v3.224a1.53,1.53,0,0,0,2.613,1.083l4.306-4.306h3.078c.008.179.013.359.013.54A12.5,12.5,0,0,1,44.5,38.055V35.119a1.277,1.277,0,0,0-.377-.909ZM44.5,42.1V39.921A14.342,14.342,0,0,0,61.189,25.771c0-.181,0-.36-.011-.54h2.151c.006.179.01.359.01.54A16.492,16.492,0,0,1,44.5,42.1ZM58.96,39.515a18.492,18.492,0,0,0,1.629-1.629l5.124,5.124-1.629,1.629Zm5.713,7.714a.411.411,0,0,1,0-.581l3.05-3.05a.411.411,0,0,1,.581,0l1.549,1.549-3.63,3.63Z" transform="translate(-27.912 0)"/>
        <path id="Trazado_986522" data-name="Trazado 986522" d="M240.145,36.8a1.189,1.189,0,0,0,1.187-1.187V32.687a1.189,1.189,0,0,0-1.187-1.187h-2.923a1.189,1.189,0,0,0-1.187,1.187v2.923a1.189,1.189,0,0,0,1.187,1.187Zm-2.273-3.461H239.5v1.624h-1.624Z" transform="translate(-210.543 -27.642)"/>
        <path id="Trazado_986523" data-name="Trazado 986523" d="M226.9,90.635a.919.919,0,0,0,0,1.837h5.853a.919.919,0,0,0,0-1.837h-.277V82.768a1.189,1.189,0,0,0-1.187-1.187h-4.428a.919.919,0,1,0,0,1.837h.317v7.216Zm2.114-7.216h1.624v7.216h-1.624Z" transform="translate(-201.688 -71.589)"/>
        <path id="Trazado_986524" data-name="Trazado 986524" d="M350.563,220.381a1.287,1.287,0,0,0-1.286,1.286v8.3a1.287,1.287,0,0,0,1.286,1.286h8.3a1.287,1.287,0,0,0,1.286-1.286v-8.3a1.287,1.287,0,0,0-1.286-1.286Zm7.752,9.039h-7.2v-7.2h7.2Z" transform="translate(-309.916 -193.389)"/>
        <path id="Trazado_986525" data-name="Trazado 986525" d="M195.46,379.911h-5.512a1.287,1.287,0,0,0-1.286,1.286v5.512A1.287,1.287,0,0,0,189.948,388h5.512a1.287,1.287,0,0,0,1.286-1.286V381.2A1.287,1.287,0,0,0,195.46,379.911Zm-.551,6.247H190.5v-4.41h4.41Z" transform="translate(-168.973 -333.38)"/>
        <path id="Trazado_986526" data-name="Trazado 986526" d="M53.786,23.663h4.591a1.287,1.287,0,0,0,1.286-1.286V17.786A1.287,1.287,0,0,0,58.377,16.5H53.786A1.287,1.287,0,0,0,52.5,17.786v4.591A1.287,1.287,0,0,0,53.786,23.663Zm.551-5.326h3.489v3.489H54.337Z" transform="translate(-49.488 -14.479)"/>
        <path id="Trazado_986527" data-name="Trazado 986527" d="M64.969,360.4h5.9a.919.919,0,0,0,0-1.837h-5.9a.919.919,0,0,0,0,1.837Z" transform="translate(-59.624 -314.647)"/>
        <path id="Trazado_986528" data-name="Trazado 986528" d="M64.969,326.672h5.9a.919.919,0,1,0,0-1.837h-5.9a.919.919,0,1,0,0,1.837Z" transform="translate(-59.624 -285.049)"/>
        <path id="Trazado_986529" data-name="Trazado 986529" d="M64.969,292.942h3.344a.919.919,0,0,0,0-1.837H64.969a.919.919,0,0,0,0,1.837Z" transform="translate(-59.624 -255.451)"/>
        <path id="Trazado_986530" data-name="Trazado 986530" d="M378.778,79.185h9.859a1.287,1.287,0,0,0,1.286-1.286V67.678a1.277,1.277,0,0,0-.377-.909l-2.286-2.286a1.278,1.278,0,0,0-.909-.377h-7.573a1.287,1.287,0,0,0-1.286,1.286V77.9A1.288,1.288,0,0,0,378.778,79.185Zm.551-13.242h6.793l1.963,1.963v9.442h-8.756Z" transform="translate(-334.676 -56.254)"/>
        <path id="Trazado_986531" data-name="Trazado 986531" d="M408.6,142.383h-4.237a.919.919,0,0,0,0,1.837H408.6a.919.919,0,0,0,0-1.837Z" transform="translate(-357.447 -124.944)"/>
        <path id="Trazado_986532" data-name="Trazado 986532" d="M408.6,118.165h-4.237a.919.919,0,0,0,0,1.837H408.6a.919.919,0,0,0,0-1.837Z" transform="translate(-357.447 -103.692)"/>
        <path id="Trazado_986533" data-name="Trazado 986533" d="M404.36,95.784h2.4a.919.919,0,0,0,0-1.837h-2.4a.919.919,0,1,0,0,1.837Z" transform="translate(-357.446 -82.44)"/>
      </g>
    </g>
  </g>
</svg>
