<svg xmlns="http://www.w3.org/2000/svg" xmlns:xlink="http://www.w3.org/1999/xlink" width="108" height="108" viewBox="0 0 108 108">
  <defs>
    <filter id="Trazado_982551" x="0" y="0" width="108" height="108" filterUnits="userSpaceOnUse">
      <feOffset dy="3" input="SourceAlpha"/>
      <feGaussianBlur stdDeviation="3" result="blur"/>
      <feFlood flood-opacity="0.161"/>
      <feComposite operator="in" in2="blur"/>
      <feComposite in="SourceGraphic"/>
    </filter>
  </defs>
  <g id="Grupo_1151595" data-name="Grupo 1151595" transform="translate(-621 -3320)">
    <g id="Grupo_1150928" data-name="Grupo 1150928" transform="translate(-210 1715)">
      <g transform="matrix(1, 0, 0, 1, 831, 1605)" filter="url(#Trazado_982551)">
        <g id="Trazado_982551-2" data-name="Trazado 982551" transform="translate(9 6)" fill="#f3f3f3">
          <path d="M 45 88.5 C 39.12687683105469 88.5 33.43022537231445 87.35007476806641 28.06830024719238 85.08217620849609 C 22.88852500915527 82.89131164550781 18.23629951477051 79.75458526611328 14.2408504486084 75.75914764404297 C 10.24541282653809 71.76370239257812 7.108687400817871 67.11147308349609 4.917825222015381 61.93170166015625 C 2.649924993515015 56.56977462768555 1.5 50.87312316894531 1.5 45 C 1.5 39.12687683105469 2.649924993515015 33.43022537231445 4.917825222015381 28.06830024719238 C 7.108687400817871 22.88852500915527 10.24541282653809 18.23629951477051 14.2408504486084 14.2408504486084 C 18.23629951477051 10.24541282653809 22.88852500915527 7.108687400817871 28.06830024719238 4.917825222015381 C 33.43022537231445 2.649924993515015 39.12687683105469 1.5 45 1.5 C 50.87312316894531 1.5 56.56977462768555 2.649924993515015 61.93170166015625 4.917825222015381 C 67.11147308349609 7.108687400817871 71.76370239257812 10.24541282653809 75.75914764404297 14.2408504486084 C 79.75458526611328 18.23629951477051 82.89131164550781 22.88852500915527 85.08217620849609 28.06830024719238 C 87.35007476806641 33.43022537231445 88.5 39.12687683105469 88.5 45 C 88.5 50.87312316894531 87.35007476806641 56.56977462768555 85.08217620849609 61.93170166015625 C 82.89131164550781 67.11147308349609 79.75458526611328 71.76370239257812 75.75914764404297 75.75914764404297 C 71.76370239257812 79.75458526611328 67.11147308349609 82.89131164550781 61.93170166015625 85.08217620849609 C 56.56977462768555 87.35007476806641 50.87312316894531 88.5 45 88.5 Z" stroke="none"/>
          <path d="M 45 3 C 39.32871246337891 3 33.82865524291992 4.110054016113281 28.65262985229492 6.299339294433594 C 23.65165710449219 8.414573669433594 19.15968322753906 11.44334411621094 15.301513671875 15.301513671875 C 11.44334411621094 19.15968322753906 8.414573669433594 23.65165710449219 6.299339294433594 28.65262985229492 C 4.110054016113281 33.82865524291992 3 39.32871246337891 3 45 C 3 50.67128753662109 4.110054016113281 56.17134475708008 6.299339294433594 61.34737396240234 C 8.414573669433594 66.34834289550781 11.44334411621094 70.84031677246094 15.301513671875 74.698486328125 C 19.15968322753906 78.55665588378906 23.65165710449219 81.58542633056641 28.65262985229492 83.70066070556641 C 33.82865524291992 85.88994598388672 39.32871246337891 87 45 87 C 50.67128753662109 87 56.17134475708008 85.88994598388672 61.34737396240234 83.70066070556641 C 66.34834289550781 81.58542633056641 70.84031677246094 78.55665588378906 74.698486328125 74.698486328125 C 78.55665588378906 70.84031677246094 81.58542633056641 66.34834289550781 83.70066070556641 61.34737396240234 C 85.88994598388672 56.17134475708008 87 50.67128753662109 87 45 C 87 39.32871246337891 85.88994598388672 33.82865524291992 83.70066070556641 28.65262985229492 C 81.58542633056641 23.65165710449219 78.55665588378906 19.15968322753906 74.698486328125 15.301513671875 C 70.84031677246094 11.44334411621094 66.34834289550781 8.414573669433594 61.34737396240234 6.299339294433594 C 56.17134475708008 4.110054016113281 50.67128753662109 3 45 3 M 45 0 C 69.85281372070312 0 90 20.14718627929688 90 45 C 90 69.85281372070312 69.85281372070312 90 45 90 C 20.14718627929688 90 0 69.85281372070312 0 45 C 0 20.14718627929688 20.14718627929688 0 45 0 Z" stroke="none" fill="#fd7940"/>
        </g>
      </g>
    </g>
    <g id="analisis_2_" data-name="analisis (2)" transform="translate(645.971 3341.97)">
      <path id="Trazado_986534" data-name="Trazado 986534" d="M45.937,33.073l-1.275-.414a.543.543,0,0,1-.368-.59,14.055,14.055,0,0,0,0-3.586.543.543,0,0,1,.368-.59l1.275-.414a.543.543,0,0,0,.348-.684L45.28,23.7a.543.543,0,0,0-.684-.348l-1.278.415a.543.543,0,0,1-.643-.261,14.171,14.171,0,0,0-2.108-2.9.543.543,0,0,1-.051-.693l.789-1.085a.543.543,0,0,0-.12-.758l-2.633-1.914a.543.543,0,0,0-.758.119l-.789,1.085a.543.543,0,0,1-.675.166,13.986,13.986,0,0,0-3.406-1.109.543.543,0,0,1-.452-.531v-1.34A.543.543,0,0,0,31.931,14H28.676a.543.543,0,0,0-.543.543v1.34a.543.543,0,0,1-.452.531,13.986,13.986,0,0,0-3.406,1.113.543.543,0,0,1-.675-.166l-.789-1.085a.543.543,0,0,0-.758-.119l-2.633,1.913a.543.543,0,0,0-.12.758l.789,1.085a.543.543,0,0,1-.051.693,14.171,14.171,0,0,0-2.108,2.9.543.543,0,0,1-.643.261l-1.278-.415a.543.543,0,0,0-.684.348l-1.005,3.093a.543.543,0,0,0,.348.684l1.275.414a.543.543,0,0,1,.368.59,14.056,14.056,0,0,0,0,3.586.543.543,0,0,1-.368.59l-1.275.414a.543.543,0,0,0-.348.684l1.005,3.1a.543.543,0,0,0,.684.348l1.278-.414a.543.543,0,0,1,.643.26,14.171,14.171,0,0,0,2.108,2.9.543.543,0,0,1,.051.693L19.3,41.727a.543.543,0,0,0,.12.758L22.054,44.4a.543.543,0,0,0,.758-.119l.789-1.085a.543.543,0,0,1,.675-.166,13.986,13.986,0,0,0,3.406,1.11.543.543,0,0,1,.452.531v1.34a.543.543,0,0,0,.543.543h3.255a.543.543,0,0,0,.543-.543v-1.34a.543.543,0,0,1,.452-.531,13.986,13.986,0,0,0,3.406-1.113.543.543,0,0,1,.675.166l.789,1.085a.543.543,0,0,0,.758.119l2.633-1.913a.543.543,0,0,0,.12-.758l-.789-1.085a.543.543,0,0,1,.051-.693,14.171,14.171,0,0,0,2.108-2.9.543.543,0,0,1,.643-.26L44.6,37.2a.543.543,0,0,0,.684-.348l1.005-3.1a.543.543,0,0,0-.348-.681ZM30.3,40.221a9.946,9.946,0,1,1,9.946-9.946A9.946,9.946,0,0,1,30.3,40.221Z" transform="translate(-1.274 -1.246)" fill="#5a6c80"/>
      <path id="Trazado_986535" data-name="Trazado 986535" d="M52,2h9.042v9.042H52Z" transform="translate(-4.886 -0.096)" fill="#24b396"/>
      <path id="Trazado_986536" data-name="Trazado 986536" d="M2,11.042h9.042L6.521,2Z" transform="translate(-0.096 -0.096)" fill="#e65c5e"/>
      <path id="Trazado_986537" data-name="Trazado 986537" d="M10.057,52H4.836l-2.61,4.521,2.61,4.521h5.221l2.61-4.521Z" transform="translate(-0.118 -4.886)" fill="#f2d549"/>
      <circle id="Elipse_11717" data-name="Elipse 11717" cx="4.5" cy="4.5" r="4.5" transform="translate(47 47.06)" fill="#3186f2"/>
      <path id="Trazado_986538" data-name="Trazado 986538" d="M46.962,27.523a1.43,1.43,0,0,0,.09-1.1l-1.005-3.1a1.447,1.447,0,0,0-1.824-.928l-.995.322a15.053,15.053,0,0,0-1.9-2.615l.614-.844a1.447,1.447,0,0,0-.321-2.019L38.99,15.325a1.447,1.447,0,0,0-2.022.32l-.613.842a14.873,14.873,0,0,0-3.074-1v-1.04A1.447,1.447,0,0,0,31.835,13H28.58a1.447,1.447,0,0,0-1.447,1.447v1.04a14.873,14.873,0,0,0-3.074,1l-.612-.841a1.445,1.445,0,0,0-2.022-.321l-2.632,1.912a1.447,1.447,0,0,0-.321,2.022l.613.843a15.053,15.053,0,0,0-1.9,2.615l-.995-.322a1.447,1.447,0,0,0-1.823.929l-1,3.1a1.447,1.447,0,0,0,.928,1.823l.995.323a14.927,14.927,0,0,0,0,3.232l-.989.322a1.447,1.447,0,0,0-.93,1.823l1.005,3.1a1.447,1.447,0,0,0,1.818.928l.995-.322a15.053,15.053,0,0,0,1.9,2.615l-.614.844a1.447,1.447,0,0,0,.321,2.019l2.632,1.914a1.46,1.46,0,0,0,1.078.259,1.441,1.441,0,0,0,.944-.58l.613-.842a14.873,14.873,0,0,0,3.074,1v1.04a1.447,1.447,0,0,0,1.446,1.447h3.255a1.447,1.447,0,0,0,1.447-1.447v-1.04a14.873,14.873,0,0,0,3.074-1l.612.841a1.447,1.447,0,0,0,2.022.321l2.632-1.912a1.447,1.447,0,0,0,.321-2.022l-.613-.843a15.052,15.052,0,0,0,1.9-2.615l.995.322a1.447,1.447,0,0,0,1.823-.929l1.005-3.1a1.447,1.447,0,0,0-.93-1.823l-.995-.323a14.927,14.927,0,0,0,0-3.232l.989-.322a1.433,1.433,0,0,0,.845-.719Zm-2.676-.587A1.453,1.453,0,0,0,43.3,28.5a13.127,13.127,0,0,1,0,3.355,1.454,1.454,0,0,0,.986,1.567l.931.3-.782,2.408-.937-.3a1.447,1.447,0,0,0-1.718.687,13.3,13.3,0,0,1-1.974,2.718,1.447,1.447,0,0,0-.123,1.843l.577.793-2.043,1.488-.577-.794a1.447,1.447,0,0,0-1.793-.452,13.121,13.121,0,0,1-3.19,1.04,1.447,1.447,0,0,0-1.185,1.42v.978H28.942v-.978a1.447,1.447,0,0,0-1.184-1.419,13.1,13.1,0,0,1-3.19-1.04,1.452,1.452,0,0,0-1.795.452l-.576.793-2.048-1.488.576-.792a1.447,1.447,0,0,0-.123-1.845,13.281,13.281,0,0,1-1.972-2.713,1.447,1.447,0,0,0-1.718-.688l-.934.3L15.2,33.726l.933-.3a1.453,1.453,0,0,0,.984-1.566,13.127,13.127,0,0,1,0-3.355,1.454,1.454,0,0,0-.986-1.567l-.931-.3.782-2.408.933.3a1.447,1.447,0,0,0,1.718-.687,13.3,13.3,0,0,1,1.974-2.718,1.447,1.447,0,0,0,.123-1.843l-.577-.793L22.2,17l.577.794a1.447,1.447,0,0,0,1.793.452,13.122,13.122,0,0,1,3.19-1.04,1.447,1.447,0,0,0,1.183-1.42v-.978h2.532v.978a1.447,1.447,0,0,0,1.184,1.419,13.1,13.1,0,0,1,3.19,1.04,1.447,1.447,0,0,0,1.795-.452L38.219,17l2.048,1.488-.576.792a1.447,1.447,0,0,0,.123,1.845,13.28,13.28,0,0,1,1.972,2.713,1.447,1.447,0,0,0,1.718.688l.934-.3.782,2.408Z" transform="translate(-1.178 -1.15)"/>
      <path id="Trazado_986539" data-name="Trazado 986539" d="M30.85,20A10.85,10.85,0,1,0,41.7,30.85,10.85,10.85,0,0,0,30.85,20Zm0,19.892a9.042,9.042,0,1,1,9.042-9.042A9.042,9.042,0,0,1,30.85,39.892Z" transform="translate(-1.82 -1.82)"/>
      <path id="Trazado_986540" data-name="Trazado 986540" d="M27,29h1.808v7.233H27Z" transform="translate(-2.491 -2.683)"/>
      <path id="Trazado_986541" data-name="Trazado 986541" d="M31,31h1.808v5.425H31Z" transform="translate(-2.874 -2.874)"/>
      <path id="Trazado_986542" data-name="Trazado 986542" d="M35,27h1.808v9.042H35Z" transform="translate(-3.258 -2.491)"/>
      <path id="Trazado_986543" data-name="Trazado 986543" d="M60.946,1H51.9a.9.9,0,0,0-.9.9v9.042a.9.9,0,0,0,.9.9h9.042a.9.9,0,0,0,.9-.9V1.9A.9.9,0,0,0,60.946,1Zm-.9,9.042H52.808V2.808h7.233Z" transform="translate(-4.791)"/>
      <path id="Trazado_986544" data-name="Trazado 986544" d="M11.715,11.425a.9.9,0,0,0,.04-.879L7.234,1.5a.942.942,0,0,0-1.618,0L1.095,10.546A.9.9,0,0,0,1.9,11.855h9.042a.9.9,0,0,0,.769-.429ZM3.367,10.046,6.425,3.93l3.058,6.116Z" transform="translate(0 -0.004)"/>
      <path id="Trazado_986545" data-name="Trazado 986545" d="M3.958,61.4a.9.9,0,0,0,.783.452H9.961a.9.9,0,0,0,.783-.452l2.61-4.521a.9.9,0,0,0,0-.9l-2.61-4.521A.9.9,0,0,0,9.961,51H4.741a.9.9,0,0,0-.783.452l-2.61,4.521a.9.9,0,0,0,0,.9Zm1.3-8.59H9.44l2.088,3.617L9.44,60.042H5.262L3.175,56.425Z" transform="translate(-0.022 -4.791)"/>
      <path id="Trazado_986546" data-name="Trazado 986546" d="M56.425,51a5.425,5.425,0,1,0,5.425,5.425A5.425,5.425,0,0,0,56.425,51Zm0,9.042a3.617,3.617,0,1,1,3.617-3.617A3.617,3.617,0,0,1,56.425,60.042Z" transform="translate(-4.791 -4.791)"/>
      <path id="Trazado_986547" data-name="Trazado 986547" d="M18,56H45.126v1.808H18Z" transform="translate(-1.629 -5.27)"/>
      <path id="Trazado_986548" data-name="Trazado 986548" d="M56,16h1.808V44.934H56Z" transform="translate(-5.27 -1.437)"/>
      <path id="Trazado_986549" data-name="Trazado 986549" d="M15,6H44.838V7.808H15Z" transform="translate(-1.341 -0.479)"/>
      <path id="Trazado_986550" data-name="Trazado 986550" d="M6,16H7.808V44.934H6Z" transform="translate(-0.479 -1.437)"/>
    </g>
  </g>
</svg>
