<svg xmlns="http://www.w3.org/2000/svg" xmlns:xlink="http://www.w3.org/1999/xlink" width="108" height="108" viewBox="0 0 108 108">
  <defs>
    <filter id="Trazado_982548" x="0" y="0" width="108" height="108" filterUnits="userSpaceOnUse">
      <feOffset dy="3" input="SourceAlpha"/>
      <feGaussianBlur stdDeviation="3" result="blur"/>
      <feFlood flood-opacity="0.161"/>
      <feComposite operator="in" in2="blur"/>
      <feComposite in="SourceGraphic"/>
    </filter>
  </defs>
  <g id="Grupo_1151606" data-name="Grupo 1151606" transform="translate(-201 -3991)">
    <g id="Grupo_1150931" data-name="Grupo 1150931" transform="translate(0 -858)">
      <g transform="matrix(1, 0, 0, 1, 201, 4849)" filter="url(#Trazado_982548)">
        <g id="Trazado_982548-2" data-name="Trazado 982548" transform="translate(9 6)" fill="#fef8e7">
          <path d="M 45 88.5 C 39.12687683105469 88.5 33.43022537231445 87.35007476806641 28.06830024719238 85.08217620849609 C 22.88852500915527 82.89131164550781 18.23629951477051 79.75458526611328 14.2408504486084 75.75914764404297 C 10.24541282653809 71.76370239257812 7.108687400817871 67.11147308349609 4.917825222015381 61.93170166015625 C 2.649924993515015 56.56977462768555 1.5 50.87312316894531 1.5 45 C 1.5 39.12687683105469 2.649924993515015 33.43022537231445 4.917825222015381 28.06830024719238 C 7.108687400817871 22.88852500915527 10.24541282653809 18.23629951477051 14.2408504486084 14.2408504486084 C 18.23629951477051 10.24541282653809 22.88852500915527 7.108687400817871 28.06830024719238 4.917825222015381 C 33.43022537231445 2.649924993515015 39.12687683105469 1.5 45 1.5 C 50.87312316894531 1.5 56.56977462768555 2.649924993515015 61.93170166015625 4.917825222015381 C 67.11147308349609 7.108687400817871 71.76370239257812 10.24541282653809 75.75914764404297 14.2408504486084 C 79.75458526611328 18.23629951477051 82.89131164550781 22.88852500915527 85.08217620849609 28.06830024719238 C 87.35007476806641 33.43022537231445 88.5 39.12687683105469 88.5 45 C 88.5 50.87312316894531 87.35007476806641 56.56977462768555 85.08217620849609 61.93170166015625 C 82.89131164550781 67.11147308349609 79.75458526611328 71.76370239257812 75.75914764404297 75.75914764404297 C 71.76370239257812 79.75458526611328 67.11147308349609 82.89131164550781 61.93170166015625 85.08217620849609 C 56.56977462768555 87.35007476806641 50.87312316894531 88.5 45 88.5 Z" stroke="none"/>
          <path d="M 45 3 C 39.32871246337891 3 33.82865524291992 4.110054016113281 28.65262985229492 6.299339294433594 C 23.65165710449219 8.414573669433594 19.15968322753906 11.44334411621094 15.301513671875 15.301513671875 C 11.44334411621094 19.15968322753906 8.414573669433594 23.65165710449219 6.299339294433594 28.65262985229492 C 4.110054016113281 33.82865524291992 3 39.32871246337891 3 45 C 3 50.67128753662109 4.110054016113281 56.17134475708008 6.299339294433594 61.34737396240234 C 8.414573669433594 66.34834289550781 11.44334411621094 70.84031677246094 15.301513671875 74.698486328125 C 19.15968322753906 78.55665588378906 23.65165710449219 81.58542633056641 28.65262985229492 83.70066070556641 C 33.82865524291992 85.88994598388672 39.32871246337891 87 45 87 C 50.67128753662109 87 56.17134475708008 85.88994598388672 61.34737396240234 83.70066070556641 C 66.34834289550781 81.58542633056641 70.84031677246094 78.55665588378906 74.698486328125 74.698486328125 C 78.55665588378906 70.84031677246094 81.58542633056641 66.34834289550781 83.70066070556641 61.34737396240234 C 85.88994598388672 56.17134475708008 87 50.67128753662109 87 45 C 87 39.32871246337891 85.88994598388672 33.82865524291992 83.70066070556641 28.65262985229492 C 81.58542633056641 23.65165710449219 78.55665588378906 19.15968322753906 74.698486328125 15.301513671875 C 70.84031677246094 11.44334411621094 66.34834289550781 8.414573669433594 61.34737396240234 6.299339294433594 C 56.17134475708008 4.110054016113281 50.67128753662109 3 45 3 M 45 0 C 69.85281372070312 0 90 20.14718627929688 90 45 C 90 69.85281372070312 69.85281372070312 90 45 90 C 20.14718627929688 90 0 69.85281372070312 0 45 C 0 20.14718627929688 20.14718627929688 0 45 0 Z" stroke="none" fill="#fdc621"/>
        </g>
      </g>
    </g>
    <g id="mejor-precio" transform="translate(219.174 3998.328)">
      <path id="Trazado_986565" data-name="Trazado 986565" d="M240.967,99.416l-7.5,13a2.24,2.24,0,0,0-.232,1.76l8.474,31.627a2.323,2.323,0,0,0,2.84,1.64l20.688-5.543a2.323,2.323,0,0,0,1.64-2.84L258.4,107.428a2.24,2.24,0,0,0-1.08-1.408l-13-7.5a2.462,2.462,0,0,0-3.356.9Z" transform="translate(-200.209 -76.466)" fill="#fdc72e" fill-rule="evenodd"/>
      <path id="Trazado_986566" data-name="Trazado 986566" d="M240.967,102.628l-7.5,13a2.24,2.24,0,0,0-.232,1.76l8.474,31.627a2.323,2.323,0,0,0,2.84,1.64l19-5.091h0a2.324,2.324,0,0,0,1.64-2.84l-8.474-31.627a2.24,2.24,0,0,0-1.081-1.408l-13-7.5a.948.948,0,0,0-1.669.447Z" transform="translate(-200.209 -79.678)" fill="#ffeb87" fill-rule="evenodd"/>
      <path id="Trazado_986567" data-name="Trazado 986567" d="M215,99.341l-10.611,10.611a2.24,2.24,0,0,0-.679,1.64V146.3a2.323,2.323,0,0,0,2.319,2.319h21.418a2.323,2.323,0,0,0,2.319-2.319V111.592a2.24,2.24,0,0,0-.679-1.64L218.475,99.341A2.462,2.462,0,0,0,215,99.341Z" transform="translate(-174.491 -76.846)" fill="#f23353" fill-rule="evenodd"/>
      <path id="Trazado_986568" data-name="Trazado 986568" d="M215,100.421,204.39,111.032a2.24,2.24,0,0,0-.679,1.64v34.709a2.323,2.323,0,0,0,2.319,2.319h19.686a2.323,2.323,0,0,0,2.319-2.319V112.672a2.24,2.24,0,0,0-.679-1.64l-10.611-10.611a.958.958,0,0,0-1.744,0Z" transform="translate(-174.492 -77.926)" fill="#ff5471" fill-rule="evenodd"/>
      <circle id="Elipse_11719" data-name="Elipse 11719" cx="3.209" cy="3.209" r="3.209" transform="translate(38.068 32.835) rotate(-67.486)" fill="#f23353"/>
      <path id="Trazado_986569" data-name="Trazado 986569" d="M291.479,147.253a3.209,3.209,0,1,1-2.747,3.175A3.209,3.209,0,0,1,291.479,147.253Z" transform="translate(-248.771 -119.332)" fill="#fff" fill-rule="evenodd"/>
      <circle id="Elipse_11720" data-name="Elipse 11720" cx="8.486" cy="8.486" r="8.486" transform="translate(31.188 54.809) rotate(-22.514)" fill="#fdc72e"/>
      <path id="Trazado_986570" data-name="Trazado 986570" d="M247.505,346.439a8.486,8.486,0,1,1,7.76-8.455A8.487,8.487,0,0,1,247.505,346.439Z" transform="translate(-205.973 -278.577)" fill="#ffeb87" fill-rule="evenodd"/>
      <path id="Trazado_986571" data-name="Trazado 986571" d="M57.307,144.417h5.264v17.139l-2.388.224c-3.226.253-7.3.881-10.447.307-2.338-.426-2.938-1.125-6.282-1.125l-1.319,0V145.9c8.908-.581,10.656-4.458,9.994-12.316a.914.914,0,0,1,.808-.985c5.976-.672,4.739,8.954,4.37,11.821Z" transform="translate(-33.33 -106.498)" fill="#ffcec0" fill-rule="evenodd"/>
      <path id="Trazado_986572" data-name="Trazado 986572" d="M42.135,147.495V145.9c8.908-.581,10.656-4.458,9.994-12.316a.914.914,0,0,1,.808-.985,4.405,4.405,0,0,1,1.431.055.915.915,0,0,0-.582.93c.432,5.127.931,13.673-11.651,13.909Z" transform="translate(-33.33 -106.502)" fill="#fdb0a0" fill-rule="evenodd"/>
      <path id="Trazado_986573" data-name="Trazado 986573" d="M131.439,226.387c-.062,1.792-.48,5.161-4.925,5.2a7.242,7.242,0,0,1-4.191,3.53c-1.379.369-1.867-1.308-.723-1.685a5.666,5.666,0,0,0,3.278-2.763,9.745,9.745,0,0,0,1.309-4.286Z" transform="translate(-102.197 -188.467)" fill="#fdb0a0" fill-rule="evenodd"/>
      <path id="Trazado_986574" data-name="Trazado 986574" d="M14.161,246h1.816a1.238,1.238,0,0,0,1.234-1.234V229.752a1.238,1.238,0,0,0-1.234-1.234H12.345a1.238,1.238,0,0,0-1.234,1.234v15.014A1.238,1.238,0,0,0,12.345,246Z" transform="translate(-6.226 -190.329)" fill="#f23353" fill-rule="evenodd"/>
      <path id="Trazado_986575" data-name="Trazado 986575" d="M12.345,228.519H13.4a1.235,1.235,0,0,1,1.234,1.234v15.014A1.235,1.235,0,0,1,13.4,246H12.345a1.235,1.235,0,0,1-1.234-1.234V229.753a1.235,1.235,0,0,1,1.234-1.234Z" transform="translate(-6.226 -190.33)" fill="#ff5471"/>
      <rect id="Rect치ngulo_408060" data-name="Rect치ngulo 408060" width="8.853" height="4.445" rx="2.222" transform="translate(24.36 37.92)" fill="#fdb0a0"/>
      <rect id="Rect치ngulo_408061" data-name="Rect치ngulo 408061" width="10.321" height="4.445" rx="2.222" transform="translate(23.498 42.365)" fill="#fdb0a0"/>
      <path id="Trazado_986576" data-name="Trazado 986576" d="M162.052,296.746h5.061a2.222,2.222,0,0,1,0,4.445h-5.061a2.222,2.222,0,0,1,0-4.445Z" transform="translate(-136.155 -249.937)" fill="#fdb0a0"/>
      <g id="Grupo_1151605" data-name="Grupo 1151605" transform="translate(3.985 10.664)">
        <path id="Trazado_986577" data-name="Trazado 986577" d="M171.059,331.927h3.13a2.014,2.014,0,1,1,0,4.028h-3.13a2.014,2.014,0,1,1,0-4.028Z" transform="translate(-148.19 -291.337)" fill="#fdb0a0" fill-rule="evenodd"/>
        <path id="Trazado_986578" data-name="Trazado 986578" d="M167.475,226.388h4.408a2.229,2.229,0,0,1,2.222,2.222h-8.853a2.229,2.229,0,0,1,2.222-2.222Z" transform="translate(-144.878 -199.132)" fill="#ffcec0" fill-rule="evenodd"/>
        <path id="Trazado_986579" data-name="Trazado 986579" d="M160.648,261.568h5.876a2.229,2.229,0,0,1,2.222,2.222H158.426A2.229,2.229,0,0,1,160.648,261.568Z" transform="translate(-138.913 -229.867)" fill="#ffcec0" fill-rule="evenodd"/>
        <path id="Trazado_986580" data-name="Trazado 986580" d="M162.052,296.747h5.061a2.229,2.229,0,0,1,2.222,2.222H159.83a2.229,2.229,0,0,1,2.222-2.222Z" transform="translate(-140.14 -260.602)" fill="#ffcec0" fill-rule="evenodd"/>
        <path id="Trazado_986581" data-name="Trazado 986581" d="M171.06,331.927h3.13a2.02,2.02,0,0,1,2.014,2.014h-7.158a2.02,2.02,0,0,1,2.014-2.014Z" transform="translate(-148.191 -291.337)" fill="#ffcec0" fill-rule="evenodd"/>
        <path id="Trazado_986582" data-name="Trazado 986582" d="M48.868,41.427a.884.884,0,0,1-.883.884H36.536a.884.884,0,0,1,0-1.769H47.985A.884.884,0,0,1,48.868,41.427ZM36.536,46.9a.884.884,0,0,1,0-1.769H47.985a.884.884,0,0,1,0,1.769Zm7.515,14.569a.868.868,0,0,0-.493-.74A5.652,5.652,0,0,0,42,60.2c-.231-.055-.475-.114-.719-.182a3.5,3.5,0,0,1-2.168-1.409,2.316,2.316,0,0,1,.335-2.9,3.538,3.538,0,0,1,1.918-.936V54a.886.886,0,0,1,1.772,0v.773a3.289,3.289,0,0,1,2.4,1.54.883.883,0,1,1-1.553.839,1.76,1.76,0,0,0-1.3-.661,2.494,2.494,0,0,0-1.955.436.576.576,0,0,0-.116.743,1.832,1.832,0,0,0,1.145.643c.213.06.426.11.652.164a7.078,7.078,0,0,1,2.04.719,2.6,2.6,0,0,1,1.364,2.327,2.523,2.523,0,0,1-1.455,2.164,4.187,4.187,0,0,1-1.218.369v.747a.886.886,0,0,1-1.772,0v-.781a3.6,3.6,0,0,1-2.564-1.622.885.885,0,0,1,1.553-.849c.408.742,2.2,1.052,3.209.552a.773.773,0,0,0,.481-.642ZM42.26,51.8a7.6,7.6,0,1,0,7.6,7.6A7.606,7.606,0,0,0,42.26,51.8Zm-9.372,7.6a9.372,9.372,0,1,0,9.372-9.37A9.38,9.38,0,0,0,32.888,59.406Zm-16.327-4.67a16.751,16.751,0,0,1-1.882-.473,13.287,13.287,0,0,0-2.82-.592V39.915c3.289-.623,5.414-1.922,6.65-4.052,1.157-2,1.516-4.733,1.169-8.868a.033.033,0,0,1,.03-.033,2.661,2.661,0,0,1,2.339.695c2.089,2.125,1.315,8.163,1.06,10.147v.011a.193.193,0,0,0-.006.058v.14c.445,4.032-.572,6.07-3.508,7.035a.885.885,0,0,0,.28,1.725.864.864,0,0,0,.274-.044,7.7,7.7,0,0,0,2.564-1.376,3.119,3.119,0,0,0,.938,1.55,3.11,3.11,0,0,0,.743,4.856,2.888,2.888,0,0,0-.432,1.524,2.939,2.939,0,0,0,.341,1.365,30.317,30.317,0,0,1-7.74.09Zm-6.467-.283a.359.359,0,0,1-.353.351H6.1a.36.36,0,0,1-.353-.351V39.422a.358.358,0,0,1,.353-.351H9.74a.358.358,0,0,1,.353.351ZM31.006,38.8a1.341,1.341,0,0,1,0,2.681H26.591a1.341,1.341,0,0,1,0-2.681ZM30,54.414h-3.13a1.132,1.132,0,1,1,0-2.264H30a1.132,1.132,0,1,1,0,2.264ZM25.9,47.7h5.067a1.34,1.34,0,0,1,0,2.681H25.9a1.34,1.34,0,0,1,0-2.681Zm5.706-4.449H25.726a1.34,1.34,0,0,0,0,2.68h5.883a1.34,1.34,0,0,0,0-2.68ZM30,56.183H26.9c-.652.052-1.334.119-2.064.19-1.736.169-3.623.353-5.426.353a17.767,17.767,0,0,1-3.161-.249,17.737,17.737,0,0,1-2.071-.518,11.53,11.53,0,0,0-2.552-.532A2.125,2.125,0,0,1,9.74,56.573H6.1a2.122,2.122,0,0,1-2.119-2.12V39.422A2.122,2.122,0,0,1,6.1,37.3H9.74a2.113,2.113,0,0,1,1.723.888c2.783-.518,4.549-1.548,5.518-3.214s1.254-4.081.938-7.833A1.786,1.786,0,0,1,19.508,25.2a4.375,4.375,0,0,1,3.8,1.212c2.381,2.42,2.01,7.737,1.675,10.617h6.023a3.108,3.108,0,0,1,2.43,5.044,3.1,3.1,0,0,1-.018,5.044,3.109,3.109,0,0,1-.95,4.646,2.865,2.865,0,0,1,.426,1.516,2.9,2.9,0,0,1-2.9,2.9ZM36.134,28.36a10.741,10.741,0,0,0,6.394,3.609.949.949,0,0,0,.146.011.884.884,0,0,0,.14-1.756A8.956,8.956,0,1,1,53.24,21.388a.883.883,0,1,0,1.766,0A10.724,10.724,0,1,0,36.134,28.36Zm10.219,2.692a4.1,4.1,0,0,1-7.935,1.43.887.887,0,0,1,1.662-.618,2.324,2.324,0,1,0,1.011-2.826A.884.884,0,1,1,40.2,27.51a4.095,4.095,0,0,1,6.151,3.543Zm-18.02,4.432a.883.883,0,1,0,1.766,0v-.78a1.358,1.358,0,0,1,.42-1.016l4.525-4.519a.886.886,0,1,0-1.254-1.251L29.27,32.439a3.139,3.139,0,0,0-.938,2.267Zm36.5,29.083a1.439,1.439,0,0,0,1.011-1.761L57.363,31.146a1.347,1.347,0,0,0-.67-.872l-8.55-4.938,7.1,7.1a3.145,3.145,0,0,1,.944,2.267v32.18l8.648-2.317Zm2.722-2.218L59.074,30.689a3.155,3.155,0,0,0-1.492-1.947L44.568,21.231a3.34,3.34,0,0,0-2.272-.39H42.26a3.334,3.334,0,0,0-2.369.978l-2.625,2.628A.884.884,0,1,0,38.515,25.7l2.631-2.628a1.58,1.58,0,0,1,2.229,0L54,33.69a1.358,1.358,0,0,1,.42,1.016V69.452a1.44,1.44,0,0,1-1.437,1.438H31.536A1.44,1.44,0,0,1,30.1,69.452V58.457a.883.883,0,1,0-1.766,0V69.452a3.209,3.209,0,0,0,3.2,3.207H52.978a3.214,3.214,0,0,0,3.209-3.207v-.735l9.1-2.44a3.211,3.211,0,0,0,2.265-3.927Z" transform="translate(-3.985 -10.664)" fill-rule="evenodd"/>
      </g>
    </g>
  </g>
</svg>
