<svg xmlns="http://www.w3.org/2000/svg" width="316.309" height="279.103" viewBox="0 0 316.309 279.103">
  <g id="Grupo_1151569" data-name="Grupo 1151569" transform="translate(-5803.41 -1480.616)">
    <g id="Grupo_1151354" data-name="Grupo 1151354" transform="translate(5808.417 1495.225)" opacity="0.61">
      <g id="Grupo_1151353" data-name="Grupo 1151353" transform="translate(21.042 6.651)">
        <path id="Trazado_986096" data-name="Trazado 986096" d="M412.027,630.061c23.075-9.766,48.136-57.021,118.279-42.577s52.272,96.233,74.172,116.308c57.459,52.67,29.376,119.636-28.757,134.831-77.143,20.163-96.118-42.892-138.763-41.737s-70.2-50.5-72.169-68.87S352.98,655.053,412.027,630.061Z" transform="translate(-362.962 -584.761)" fill="#b0cff2"/>
      </g>
    </g>
    <g id="Grupo_1151568" data-name="Grupo 1151568">
      <path id="Trazado_986318" data-name="Trazado 986318" d="M4188.14,1378.5c2.695-1.661,3.459-1.445,4.695,1.38,7.124-7.024,15.78-9.831,25.622-9.314,7.809.41,13.149,4.981,14.793,12.6.142.654.266,1.313.444,1.957.673,2.428,1.323,2.9,3.841,2.811.67-.023,1.34-.061,2.01-.068,3.943-.04,6.222,1.87,6.089,5.762-.122,3.542,1.277,5.515,4.575,6.494a11.68,11.68,0,0,1,4.021,2.221c1.613,1.318,3,2.955,3.113,4.988.145,2.5,1.282,3.739,3.37,4.977,5.572,3.3,7.324,7.743,6.061,14.16a3.2,3.2,0,0,0,.4,2.3c1.3,2.337,2.614,4.67,3.865,7.035a8.167,8.167,0,0,1,1.154,5.006c-.475,3.3-3.864,5.29-7.719,4.578-.522-.1-1.032-.26-1.553-.395-.776,4.616-2.773,5.223-7.479,2.2l.832,3.78c.071,1.538-.34,2.736-2.1,2.981a5.313,5.313,0,0,1-.42-2.543,16.814,16.814,0,0,0-3.865-9.038c-3.141-4.145-6.393-8.286-8.229-13.256a6.3,6.3,0,0,0-3.038-3.556c-3.216-1.753-4.023-3.865-2.99-7.35a14.266,14.266,0,0,1,.648-1.687c.387-.879.189-1.467-.837-1.519a4.8,4.8,0,0,1-4.232-3.242,5.553,5.553,0,0,0-4.7-3.564c-1.857-.217-2.9-1.552-3.879-2.933-1.472-2.077-2.672-4.331-4.2-6.375a11.948,11.948,0,0,0-9.492-4.847c-3.028-.16-6,.461-9.022.447a8.8,8.8,0,0,1-6.159-2.5,34.625,34.625,0,0,1-4.967-5.782,1.976,1.976,0,0,1-.37-.829A9.572,9.572,0,0,0,4188.14,1378.5Z" transform="translate(1776.742 170.788)" fill="#5c4941"/>
      <path id="Trazado_986319" data-name="Trazado 986319" d="M4315.473,3274.74c4.221,7.619,7.984,15.433,9.487,24.1a28.636,28.636,0,0,1,.1,10.363c-.907,4.714-4.449,7.542-9.811,7.8a41.319,41.319,0,0,1-6.573-.566c-.726-.08-1.43-.371-2.143.021-.724.594-1.2-.28-1.817-.3-3.943-.765-7.687-2.222-11.534-3.311a2.559,2.559,0,0,1-.924-.572,4.291,4.291,0,0,0-1.184-.532,3.008,3.008,0,0,1-.5-.227,80.839,80.839,0,0,1-10.478-6.858c-.648-.532.026.33-.225.207a.594.594,0,0,1-.662.575c-.546-.431-.394-1.153-.706-1.68a2.612,2.612,0,0,0-.551-.537c-1.892-1.121-3.5-2.629-5.342-3.819-.313-.184-.63-.36-.956-.521-1.242-.595-2.3-1.5-3.528-2.113-2.3-1.382-4.7-2.54-7.12-3.693a3.179,3.179,0,0,0-3.822.376,132.6,132.6,0,0,1-13.623,9.56c-1.026.5-2.021,1.059-3.069,1.508-2.083.895-2.919.385-3.194-1.9-.032-.262,0-.543-.416-.756-1.047.26-2.36,2.043-3.319-.241.217-1.568,2.046-1.986,2.443-3.428.5-.874,1.5-1.264,2.294-2.243-2.609.072-3.969,1.9-5.7,3.015-1.634.892-2.684.767-3.336-.537-.864-1.729.4-2.512,1.611-3.273a3.826,3.826,0,0,0,2.312-1.349c.2-.179.03.106.147-.116.153-.289-.148-.069-.229-.124-1.672.375-3.044,1.4-4.587,2.034-.842.348-1.65.967-2.652.485-.761-1.133-1.423-2.279-.522-3.649a23.616,23.616,0,0,1,4.225-2.469c.618-.343,1.343-.559,1.688-1.248-.78-.417-1.818.111-2.468-.7.565-1.29,1.8-1.662,2.951-2.141,2.512-1.049,5.168-1.734,7.612-2.954.207-.192-.287-.425-.115-.219.055.066.063.117.017.141-2.609,1.336-5.23,2.615-8.306,1.773-.752-.824-1.569-1.618-1.424-2.884,1.076-.359,2.3-.283,3.183-1.234.4-.436.995-.141,1.5-.007a4.571,4.571,0,0,0,3.274-.18c.875-.375,1.394-1.524,2.592-1.2,1.121.535,2.235.046,3.355,0,4.347-.19,8.7-.109,13.046-.065,1.921.019,3.541,1.485,5.507,1.748a12.4,12.4,0,0,0,2.975.193,5.77,5.77,0,0,1,2.168.9,1.9,1.9,0,0,0,1.5,1.175c3.009.666,5.938,1.639,8.942,2.326a2.642,2.642,0,0,0,2.929-.648c1.33,1.548,3.171,1.607,5,1.713,1.719.554,3.472.219,5.212.2.815.969,1.946.829,3.033.852,8.133.74,16.255,1.533,24.181,3.6a8.627,8.627,0,0,0-2.772-.8c-1.041-.227-2.082-.475-3.139-.636-3.482-.532-6.979-.966-10.475-1.39-.348-1.341.78-1.088,1.374-1.118a18.265,18.265,0,0,0,4.885-.968,10.054,10.054,0,0,0,7.1-9.208C4314.941,3276.2,4314.776,3275.355,4315.473,3274.74Z" transform="translate(1742.496 -1602.558)" fill="#f8af8d"/>
      <path id="Trazado_986321" data-name="Trazado 986321" d="M2092.762,4201.39a1.706,1.706,0,0,0,2,1.554c1.1.319,1.558-1.707,2.827-.775.068.337.141.661.606.62,9.172-.8,18.328.362,27.5.3,4.389-.028,8.841-.066,13.236.3,5.419.453,10.9.3,16.4,1.415-1.312.929-3.14,1.222-6.3,1.372-8.34.4-16.664,1.04-25.018,1.276-6.611.187-13.221.552-19.835.784-5.69.2-11.4.056-17.06.447-4.292.3-8.573.031-12.843.319-9.845.665-19.7.131-29.547.412-29.241.834-58.487.168-87.729.365-14.561.1-29.128.227-43.685-.063-11.327-.226-22.658-.083-33.975-.438-4.952-.155-9.912-.023-14.852-.333-5.8-.365-11.617-.495-17.416-.845a31.323,31.323,0,0,1-8.047-1.143,25.693,25.693,0,0,1,6.885-1.111c4.778-.483,9.589-.687,14.391-.872,8.488-.327,16.98-.556,25.471-.823.473-.015.949,0,1.256-.458.936-.131,1.442.6,2.07,1.058a13.883,13.883,0,0,0,19.036-1.888,3.293,3.293,0,0,1,1.79-1.216,44.549,44.549,0,0,1,11.956.789,47.57,47.57,0,0,0,10.442.181c7.105-.555,14.212-.062,21.307-.364,6.431-.272,12.859-.416,19.292-.361a4.972,4.972,0,0,1,2.927.483c.284,1.394-.872,1.008-1.476,1.085-1.617.208-3.284-.191-4.878.382a20.857,20.857,0,0,1-4.173.615c-.524.041-1.163.1-1.159.834,0,.677.569.83,1.118.93a9.973,9.973,0,0,0,2.007.1c5.9-.127,11.808.333,17.694-.371a13.733,13.733,0,0,1,1.811-.027c22.541.29,45.074-.53,67.614-.492,5.349.009,10.72-.321,16.083-.294,1.648.009,2.733-.452,2.971-2.2.6-1.053,1.658-.993,2.642-1.009,2.991-.048,5.985-.075,8.975,0A44.784,44.784,0,0,0,2092.762,4201.39Z" transform="translate(3964.388 -2465.512)" fill="#e3e4e1"/>
      <path id="Trazado_986322" data-name="Trazado 986322" d="M2493.5,3060.991l.508-2.762c-.41-.654-.126-1.3.048-1.933.757-2.774,1.386-5.58,2.114-8.361a4.116,4.116,0,0,0-.047-3.12c-.236-.455-.556-1.115.021-1.445.659-.376,1,.367,1.464.923.016.077.221-.38.024-.2-.086.08-.157.035-.148-.131a15.2,15.2,0,0,1,2.173-7.959c3.909-15.34,7.854-30.671,11.691-46.029a7.847,7.847,0,0,1,3.7-5.427.88.88,0,0,1,.793-.311c3.054.246,4.823,2.368,6.486,4.559a27.227,27.227,0,0,1,2.553,4.294,11.129,11.129,0,0,0,4.019,4.867,1.077,1.077,0,0,1,.5.82c-.386,5.943-1.368,11.812-2.113,17.71-1.356,10.738-2.707,21.477-4.179,32.2-.534,3.639-.866,7.3-1.407,10.944-.172,1.158.558,1.838,1.457,2.421a40.157,40.157,0,0,1,3.768,2.3c.311.253.662.574.515,1a.779.779,0,0,1-.858.4c-2.035-.269-4.16-.128-6.013-1.264-.707-1.1-1.318-.336-1.967.09a22.837,22.837,0,0,1-14.376,4.164c-3.958-.281-7.381-1.757-9.746-5.157A7.115,7.115,0,0,1,2493.5,3060.991Z" transform="translate(3354.897 -1332.025)" fill="#82e0e0"/>
      <path id="Trazado_986323" data-name="Trazado 986323" d="M5199.2,1016.115a2.128,2.128,0,0,1-.8-2.781q7.52-19.469,14.976-38.964c.882-2.3,1.883-2.685,4.211-1.839q16.878,6.136,33.768,12.238c5.221,1.89,10.453,3.747,15.665,5.66,3.405,1.25,3.511,1.539,2.364,5.135-2.119-1.264-2.5-1.181-3.431,1.265-2.623,6.883-5.248,13.766-7.729,20.7-1.625,4.54-3.388,9.027-4.988,13.576-.993,2.824-1.94,3.184-4.709,2.184-15.055-5.434-30-11.169-45.091-16.5C5202.1,1016.321,5200.848,1014.778,5199.2,1016.115Z" transform="translate(836.131 541.786)" fill="#a6cff7"/>
      <path id="Trazado_986324" data-name="Trazado 986324" d="M2244.975,1650.173c-1.087-.983-2.546-1.1-3.83-1.617-19.986-8.035-32.83-22.283-37.663-43.419a46.662,46.662,0,0,1-.6-17.354c.9-2.015,2.726-3.268,4.077-4.91a82.149,82.149,0,0,1,6.758-6.847c.521-.5,1.273-1.568,1.886.013-.79,3.6-2.087,7.061-2.624,10.729-2.026,13.83,1.261,26.253,10.077,37.061a48.476,48.476,0,0,0,33.469,18.024,41.937,41.937,0,0,0,12.631-.387,4.05,4.05,0,0,1,2.377-.026,2.02,2.02,0,0,1,1.027,1.625,9.11,9.11,0,0,0,3.958,6.241.722.722,0,0,1,.4.83c-1.926,1.378-4.234,1.529-6.441,1.895a41.871,41.871,0,0,1-8.158.76,53.328,53.328,0,0,1-14.565-1.509A6.25,6.25,0,0,1,2244.975,1650.173Z" transform="translate(3626.041 -19.847)" fill="#477a7a"/>
      <path id="Trazado_986325" data-name="Trazado 986325" d="M3142.958,1085.8a62.167,62.167,0,0,1-4.432,27.051,27.865,27.865,0,0,1-2.851,5.93,5.728,5.728,0,0,1-6.026-1.041,5.549,5.549,0,0,0-1.544-1.194c-.647-.331-1.387-.563-1.54-1.426.414-2.065,1.61-3.81,2.363-5.739,6.979-17.872,4.861-34.585-7.14-49.548-7.8-9.729-18.328-15.293-30.768-17.024a21.343,21.343,0,0,1-2.759-.553c-1.079-.5-1.317-1.1-.191-1.818,2.743-1.749,5.451-3.552,8.182-5.318a4.257,4.257,0,0,1,3.615-.474,53.842,53.842,0,0,1,24.749,13.515C3135.445,1058.365,3141.355,1071.058,3142.958,1085.8Z" transform="translate(2801.885 483.74)" fill="#82e0e0"/>
      <path id="Trazado_986326" data-name="Trazado 986326" d="M5559.184,3704.548c-1.06.1-1.7.9-2.492,1.459-.167.118-.412.464-.558.042-.067-.193.14-.481.222-.726,2.12-5.631,4.228-11.267,6.366-16.892a22.691,22.691,0,0,1,4.544-7.52c.3-.319.584-.879,1.118-.658s.359.789.292,1.245c-.362,2.444-.466,4.922-1.063,7.338-.342,1.384.46,2.372,1.46,3.21.228.042.279.17.18.371-1.285.8-2.07,2.213-3.417,2.953-.7-.593-.227-1.2-.15-1.719a6.115,6.115,0,0,1,.251-1.614,13.567,13.567,0,0,0-.435,3.842c1.294-1,2.3-2.412,3.688-3.405.493-.439.959-.906,1.464-1.336.432-.368-.287-.17-.25-.384,1.7-2.264,2.177-5,2.855-7.636a24.091,24.091,0,0,1,7.39-12.419,9.036,9.036,0,0,1,1.078-.9c.538-.342,1.137-1.047,1.759-.539.534.436-.092,1.123-.232,1.662-.505,1.942-1.165,3.844-1.684,5.783a5.731,5.731,0,0,0-.17,2.179c.263,1.971,1.277,2.355,2.835,1.08a36.12,36.12,0,0,0,6.4-6.919,15.5,15.5,0,0,1,5.514-4.9c.468-.238,1.028-.59,1.474-.094.391.436-.086.872-.292,1.261-.281.531-.66,1.011-.939,1.544-.259.493-.888,1.009-.23,1.59a1.588,1.588,0,0,0,1.853.376c.949-.495,1.9-1,2.8-1.575a30.957,30.957,0,0,1,7.246-3.878c2.535-.79,5.171-.1,5.7,1.5.413,1.244-1.12,3.276-3.423,4.214-2.227.907-4.537,1.613-6.808,2.412a12.279,12.279,0,0,0-1.5.577c-.872.442-2.048.754-1.6,2.125.443,1.354,1.531,1,2.522.772.457-.1.911-.214,1.368-.317.429-.1.931-.479,1.237.123.249.489-.116.9-.4,1.263-.453.58-1.008,1.089-1.407,1.7a5.375,5.375,0,0,1-6.229,2.487,27.968,27.968,0,0,0-5.414-.254c-.9-.026-1.635.281-1.788,1.238-.157.981.53,1.465,1.35,1.722,1.276.4,2.569.75,3.857,1.11.391.109.869.18.993.585.17.557-.355.824-.716,1.092a19.6,19.6,0,0,1-9.278,3.541,32.781,32.781,0,0,1-10.776-.51,5.04,5.04,0,0,0-.988-.176c-.9.007-2.047-.292-2.314.976-.252,1.2.6,1.763,1.61,2.206a18.491,18.491,0,0,0,4.464,1.118c.7.116,1.7-.024,1.813.869.1.83-.845,1.128-1.494,1.42-3.832,1.727-7.99,2.143-12.052,2.953C5564.165,3702.633,5561.514,3703.1,5559.184,3704.548Z" transform="translate(502.793 -1967.891)" fill="#fdc364"/>
      <path id="Trazado_986327" data-name="Trazado 986327" d="M2015.358,3663.681l-2.22,8.933-.764-1.7-.39.321c.013.17-.04.4.049.5a3.77,3.77,0,0,1,.464,3.743c-.965,3.463-1.864,6.945-2.789,10.419-3.237,1.059-6.472,2.152-9.949,1.95a15.854,15.854,0,0,1-9.253-3.4c-1.56-1.254-1.482-1.606.35-2.283,1.251-.462,2.552-.792,3.787-1.289,1.042-.419,2.421-.93,2.083-2.289-.353-1.42-1.781-1.691-3.135-1.537-1.057.12-2.1.367-3.151.548-2.785.477-5.307.432-7.595-1.813-2.663-2.612-5.8-4.728-8.052-7.786-2.165-2.947-1.758-5.032,1.593-6.477,5.507-2.374,11.222-3.9,17.305-3.053,3.129.436,5.157,2.675,7.176,4.8,1.932,2.035,3.563,4.348,5.648,6.248.441.4.813.938,1.469.988s1.367.216,1.9-.34.14-1.14-.082-1.675a41.993,41.993,0,0,0-4.062-7.824c-.322-.469-.966-1.013-.523-1.564.422-.524,1.111-.1,1.68.09C2009.964,3660.239,2012.546,3662.177,2015.358,3663.681Z" transform="translate(3839.197 -1959.699)" fill="#b0cff2"/>
      <path id="Trazado_986328" data-name="Trazado 986328" d="M2283,1009.745a5.463,5.463,0,0,0-3.565,1.012c-2.725,1.757-5.425,3.557-8.187,5.253-.812.5-.168.64.053.935-.934.966-2.149.622-3.23.581-11.308-.426-21.138,3.477-30,10.19a46.915,46.915,0,0,0-13.945,17.629c-.356.745-.409,1.757-1.5,1.946-.905-.557-1.11.4-1.474.772-3.685,3.717-7.325,7.479-10.977,11.228a58.485,58.485,0,0,1,21.281-38.624c11.825-9.868,25.683-13.741,40.947-12.831a13.316,13.316,0,0,1,4.528.717c.147,1.145-.853,1.407-1.513,1.863-2.813,1.943-5.934,3.4-8.779,5.572a3.023,3.023,0,0,0,2.584-.553c2.247-1.464,4.573-2.806,6.789-4.318a15.626,15.626,0,0,1,4.1-2.084A8.339,8.339,0,0,1,2283,1009.745Z" transform="translate(3618.75 508.643)" fill="#d8f5f5"/>
      <path id="Trazado_986329" data-name="Trazado 986329" d="M4064.72,494.95a7.765,7.765,0,0,0-2.958.413c-1.911.835-2.4,1.79-1.846,3.806.814,2.968.569,4.038-1.217,5.32a8,8,0,0,1-7.84.33,5.2,5.2,0,0,1-1.9-5.542,13.539,13.539,0,0,1,6.511-8.777c7-4.384,16.37-3.327,21.762,2.461,3.662,3.931,4.075,8.895.806,13.16-3.692,4.817-8.74,8.028-13.906,11.039a2.458,2.458,0,0,1-3.138-.419c-1.026-.979-.355-1.969.133-2.922a36.179,36.179,0,0,1,5.077-7.448,16.418,16.418,0,0,0,3.093-4.427C4071,497.856,4069.1,494.948,4064.72,494.95Z" transform="translate(1906.494 992.814)" fill="#82e0e0"/>
      <path id="Trazado_986330" data-name="Trazado 986330" d="M5020.055,3967.255a5.881,5.881,0,0,1-3.924,1.222c-4.223-.069-8.447-.053-12.67-.035a3.591,3.591,0,0,0-2.336.322,36.208,36.208,0,0,1-15.418-.343,2.991,2.991,0,0,1-1.338-1.047,13.923,13.923,0,0,1-1.987-7.041.832.832,0,0,1,.317-.569,1.684,1.684,0,0,1,1.3-.132,7.627,7.627,0,0,0,4.35,1.611c4.2.252,8.368.986,12.585.251a1.518,1.518,0,0,1,.2-.015,2.287,2.287,0,0,1,2.174.929c.515-1.354,1.724-.637,2.612-.873a11.217,11.217,0,0,1,2.8-.165,39.221,39.221,0,0,0-4.285.2,1.986,1.986,0,0,1-2.191-1.364c-.688-2.658-1.365-5.318-1.939-8,.017-2.21.316-2.5,2.387-2.058,2.707.572,5.376,1.323,8.121,1.708a3.234,3.234,0,0,0,2.811-.178c.434-.241.9-.579,1.436-.172,1.413,3.663,2.877,7.308,4.212,11C5019.821,3964.013,5020.828,3965.506,5020.055,3967.255Z" transform="translate(1037.095 -2231.377)" fill="#fdc621"/>
      <path id="Trazado_986331" data-name="Trazado 986331" d="M5155.1,2716.8c1.115,1.681,2.987,1.57,4.644,1.923,1.424.3,2.885.449,2.594,2.509-.078.548.343.848.8,1.03,2.18.871,2.2,2.624,1.855,4.521a22.829,22.829,0,0,1-2.265,6.625c-.343.649-.624,1.33-.933,2-.367.953-.767,1.86-2.082,1.5a31.811,31.811,0,0,0-7.188-11.686,1.633,1.633,0,0,1-.511-1.645c1.615-1.175,3.413-.664,5.153-.508a20.441,20.441,0,0,1,3.458.909c-4.689-1.344-6.266-1.427-9.322-.5a5.849,5.849,0,0,1-.54.234c-2,.383-4.113-1.344-3.925-3.257.039-.394.051-.415-.272-.786-2.238-2.57-4.487-5.206-4.856-8.831,2.1-.672,4.087.225,6.314.335-2.229-.246-4.243-.831-6.35-.488-.8.039-1.157-.551-1.508-1.114-1.475-2.364-2.817-4.8-4.167-7.24-.8-1.442-.442-2.175,1.185-2.647a18.811,18.811,0,0,1,3.509-.677c1.519.007,3.062-.179,4.488.557a15.263,15.263,0,0,1,2.358,3.9c1.854,3.537,3.452,7.208,5.542,10.621A15.227,15.227,0,0,0,5155.1,2716.8Z" transform="translate(894.418 -1066.377)" fill="#f69f3b"/>
      <path id="Trazado_986332" data-name="Trazado 986332" d="M3936.372,1482.977a5.969,5.969,0,0,1,.449,6.97,2.816,2.816,0,0,1-.746,1.392c-4.021,5.205-5.226,11.292-5.526,17.661-.066.932.179,1.935-.592,2.71-.434.146-.631-.141-.7-.472-.158-.787-.417-.887-1.206-.537-2.86,1.267-4.61.806-6.7-1.644a28.982,28.982,0,0,1-3.052-4.621c-1.691-5.552.916-12.451,5.86-15.342a7.046,7.046,0,0,0,2.658-2.9c1.84-3.37,3.754-4.148,7.418-3.017A4.186,4.186,0,0,0,3936.372,1482.977Z" transform="translate(2028.511 66.307)" fill="#524135"/>
      <path id="Trazado_986333" data-name="Trazado 986333" d="M5697.239,2255.1a12.353,12.353,0,0,1,11.927,8.192,7.361,7.361,0,0,1-2.611,8.588c-3.916,2.72-8.507,3.809-13.037,4.989a1.655,1.655,0,0,1-1.983-1c-.409-.831.147-1.368.67-1.918a32.865,32.865,0,0,1,6.543-4.96,7.861,7.861,0,0,0,2.976-2.914c.823-1.563,1.042-3.042-.457-4.354-1.59-1.392-4.228-1.732-5.591-.749a1.791,1.791,0,0,0-.66,1.788,3.014,3.014,0,0,1-2.373,3.46,5.539,5.539,0,0,1-5.422-1.811,3.458,3.458,0,0,1,.058-4.3A11.359,11.359,0,0,1,5697.239,2255.1Z" transform="translate(381.379 -653.005)" fill="#fdc621"/>
      <path id="Trazado_986334" data-name="Trazado 986334" d="M2086.251,2607.423a10.82,10.82,0,0,1,5.758,1.5c4.123,2.279,5.414,6.507,3.146,10.62a35.928,35.928,0,0,1-7.242,8.812,1.974,1.974,0,0,1-2.535.55c-1.182-.7-.533-1.672-.309-2.5a26.316,26.316,0,0,1,2.064-5.222,31.4,31.4,0,0,0,1.482-3.292,3.87,3.87,0,0,0-.889-4.618c-1.433-1.2-3.162-.849-4.728-.076-1.829.9-2.173,1.853-1.259,3.758a2.83,2.83,0,0,1-.389,3.512,5.072,5.072,0,0,1-5.2,1.346c-1.437-.389-1.968-1.686-2.053-3.141-.323-5.519,4.879-10.872,10.946-11.242C2085.445,2607.4,2085.849,2607.423,2086.251,2607.423Z" transform="translate(3745.483 -981.102)" fill="#fdc621"/>
      <path id="Trazado_986335" data-name="Trazado 986335" d="M5213.02,1311.6c.226-1.366.678-1.831,2.118-.977,3.242,1.924,6.944,2.767,10.446,4.075,12.469,4.658,24.979,9.208,37.473,13.8,2.114.777,2.478.637,3.349-1.707q5.8-15.621,11.549-31.26c.581-1.568,1.2-3.123,1.845-4.666.306-.732.6-1.551,1.667-1.439a1.736,1.736,0,0,1,1.734,1.624q-6.752,17.606-13.5,35.212c-.144.375-.308.742-.449,1.117-1.788,4.731-1.816,4.654-6.637,2.855-15.364-5.733-30.763-11.376-46.143-17.065A10.261,10.261,0,0,1,5213.02,1311.6Z" transform="translate(822.31 246.3)" fill="#3b89e1"/>
      <path id="Trazado_986336" data-name="Trazado 986336" d="M3490.964,693.267c1.279-1.682,2.405-3.238,3.61-4.73,1.488-1.842,3.486-2.2,5.1-1.008a3.65,3.65,0,0,1,.729,5.322c-2.671,3.591-5.393,7.148-8.207,10.627-1.91,2.362-4.251,1.965-5.45-.832-1.184-2.764-2.291-5.561-3.425-8.346-.986-2.421-.684-3.9.987-4.9,1.844-1.1,3.7-.664,5.245,1.342A20.907,20.907,0,0,1,3490.964,693.267Z" transform="translate(2433.636 807.46)" fill="#fdc621"/>
      <path id="Trazado_986337" data-name="Trazado 986337" d="M2492.25,4100.84a12.144,12.144,0,0,0,9.982,7.21,21.066,21.066,0,0,0,11.447-2.132,16.583,16.583,0,0,0,4.256-2.587c.328-.294.608-.883,1.129-.641.593.276.245.958.374,1.446a4.381,4.381,0,0,1-1.7,4.329,14.174,14.174,0,0,1-12.448,6.046,14.755,14.755,0,0,1-10.023-4.455C2493.16,4107.345,2491.779,4104.4,2492.25,4100.84Z" transform="translate(3356.147 -2371.874)" fill="#477a7a"/>
      <path id="Trazado_986338" data-name="Trazado 986338" d="M5205.754,3230.36l1.86-1.586,1.757,3.16c.259,4.576-1.088,8.427-5.154,10.931a14.384,14.384,0,0,1-6.619,1.978,4.73,4.73,0,0,0-2.344.284c-1.545.8-3.1-.048-4.653-.005a16.9,16.9,0,0,0-3.374.069c-.856-.282-2.287.673-2.436-1.132,1.836-1.267,4.048-1.643,6.05-2.528a39.755,39.755,0,0,0,13.411-9.941C5204.693,3231.1,5205,3230.455,5205.754,3230.36Z" transform="translate(848.598 -1559.751)" fill="#f67a4e"/>
      <path id="Trazado_986339" data-name="Trazado 986339" d="M2807.75,2737.291l-.806-.017c-.084-2.58,1.016-4.931,1.437-7.416.632-3.733,1.806-7.363,2.182-11.148,3.372.631,6.228,3.787,6.111,7.108-.108,3.057.211,5.832,2.477,8.17a4.508,4.508,0,0,1,1.108,3.566c-.3,1.48-1.394,1.382-2.488,1.222C2814.428,2738.291,2811.074,2737.891,2807.75,2737.291Z" transform="translate(3063.003 -1084.749)" fill="#d8f5f5"/>
      <path id="Trazado_986340" data-name="Trazado 986340" d="M2834.431,2687.976a6.045,6.045,0,0,0-1.7-3.749,6.546,6.546,0,0,1-2.052-5.983c.66-3.644-.907-5.99-3.931-7.681-.574-.321-1.093-.74-1.637-1.114-.952-1.14-2.115-2.132-2.549-3.636,3.568.4,7,1.526,10.613,1.8,2.267.169,4.531.115,6.79.29a1.205,1.205,0,0,1-.416,1.267c-1.911,1.58-1.982,3.811-2.215,6-.416,3.909-.9,7.811-1.366,11.715a5.624,5.624,0,0,1-.572,2.113C2834.148,2689.544,2834.758,2688.311,2834.431,2687.976Z" transform="translate(3048.45 -1035.486)" fill="#264242"/>
      <path id="Trazado_986341" data-name="Trazado 986341" d="M4889,1114.364a8.206,8.206,0,0,1,4.536,2.082,4.92,4.92,0,0,1,.964,6.838,23.529,23.529,0,0,1-6.73,6.241c-.528.344-1.08.562-1.645.051-.583-.528-.311-1.077-.054-1.638a31.242,31.242,0,0,1,2.945-4.779,5.223,5.223,0,0,0,1.16-2.306c.114-.957.1-1.966-.838-2.509a3.641,3.641,0,0,0-3.648.014c-1.082.57-.516,1.45-.33,2.29.32,1.44-.83,2.668-2.587,2.874a2.579,2.579,0,0,1-3.044-2.2,4.9,4.9,0,0,1,1.125-3.545C4882.47,1115.657,4885.235,1114.336,4889,1114.364Z" transform="translate(1132.71 409.32)" fill="#82e0e0"/>
      <path id="Trazado_986342" data-name="Trazado 986342" d="M5857.251,2836.468a4.821,4.821,0,0,1-1.2,3.164,29.483,29.483,0,0,1-5.666,5.4c-.567.425-1.227.945-1.966.228-.717-.7-.27-1.377.1-2,.678-1.154,1.41-2.276,2.137-3.4a6.372,6.372,0,0,0,1.314-2.893c.084-1.031.1-2.106-.947-2.666a3.39,3.39,0,0,0-3.1.115c-1.155.531-.958,1.557-.724,2.438a1.881,1.881,0,0,1-1.021,2.339,3.38,3.38,0,0,1-3.617.185,2.382,2.382,0,0,1-1.047-2.458c.31-3.057,3.6-5.922,7.375-6.432,3.209-.434,6.915,1.511,7.991,4.237A10.649,10.649,0,0,1,5857.251,2836.468Z" transform="translate(237.04 -1188.784)" fill="#82e0e0"/>
      <path id="Trazado_986343" data-name="Trazado 986343" d="M5230.361,3832.2c-1.274.375-2.276,1.839-3.862.966a64.823,64.823,0,0,0-8.812-2.1,3.358,3.358,0,0,1-3.077-3.5c-.161-1.845-1.478-3.5-.891-5.467.313-.078.692-.312.928-.211,3.563,1.533,7.359,2.318,11.039,3.47a9.192,9.192,0,0,1,4.711,6.608A.2.2,0,0,1,5230.361,3832.2Z" transform="translate(821.797 -2112.077)" fill="#f59e37"/>
      <path id="Trazado_986344" data-name="Trazado 986344" d="M5089.3,2552.98a18.946,18.946,0,0,0-4.813-.447c.173-.944,1.013-.367,1.544-.6a14.833,14.833,0,0,0-4.885,1.073,2.034,2.034,0,0,1-2.7-.936,33.966,33.966,0,0,1-2.691-4.7c-.349-.77-.535-1.538.237-2.195,1.506-.416,3.034-.749,4.56-1.087,1.226-.585,1.48-1.856,2.047-2.906,1.646,1.535,2.468,3.616,3.627,5.474q1.323,2.12,2.636,4.245C5088.65,2551.668,5089.783,2552.153,5089.3,2552.98Z" transform="translate(950.425 -919.42)" fill="#f19c36"/>
      <path id="Trazado_986345" data-name="Trazado 986345" d="M4238.826,952.15c-3.614.01-5.7-2.527-4.98-6.059a3.4,3.4,0,0,1,.25-.756c.893-1.9,5.121-3.136,7.749-2.265,2.1.7,3.4,3.376,2.8,5.791C4244.118,950.954,4242.019,952.141,4238.826,952.15Z" transform="translate(1734.311 569.105)" fill="#82e0e0"/>
      <path id="Trazado_986346" data-name="Trazado 986346" d="M3923.011,1793.06a1.059,1.059,0,0,1,.04-.2c.072-.177.14-.393.344-.092,1.322,1.945,2.279,4.121,4.208,5.665a4.017,4.017,0,0,0,5.417.155,1.277,1.277,0,0,1,1.171-.319c.047.7.1,1.415.145,2.134a1.46,1.46,0,0,1,.469,1.063c.007,2.837.31,5.662.307,8.5a5.745,5.745,0,0,1-.781,1.505,9.193,9.193,0,0,0-.712,2.426c-.146.558,0,1.422-1.03,1.318a70.743,70.743,0,0,1-1.668-7.118,14.45,14.45,0,0,0-.951-3.362,22.107,22.107,0,0,1-6.626-8.85C3923.1,1794.962,3922.577,1794.067,3923.011,1793.06Z" transform="translate(2023.803 -222.318)" fill="#3d332e"/>
      <path id="Trazado_986347" data-name="Trazado 986347" d="M5739.779,2604.306c-2.655-.062-4.353-1.526-4.315-3.722a3.321,3.321,0,0,1,3.771-3.462c2.7.133,4.362,1.592,4.313,3.789C5743.5,2603.125,5742.125,2604.361,5739.779,2604.306Z" transform="translate(335.778 -971.511)" fill="#fdc621"/>
      <path id="Trazado_986348" data-name="Trazado 986348" d="M2258.92,2936.794a3.208,3.208,0,0,1-3.522-3.408c.023-1.914,1.942-3.41,4.409-3.437a3.156,3.156,0,0,1,3.277,3.472C2263.073,2935.369,2261.347,2936.767,2258.92,2936.794Z" transform="translate(3576.633 -1281.466)" fill="#fdc621"/>
      <path id="Trazado_986349" data-name="Trazado 986349" d="M3028.75,1020.3c-4.439,3.917-11.836,7.7-14.682,7.39,2.358-2.263,5.226-3.522,7.8-5.209,1.27-.832,2.715-1.426,3.7-2.661A10.935,10.935,0,0,1,3028.75,1020.3Z" transform="translate(2870.111 497.38)" fill="#477a7a"/>
      <path id="Trazado_986350" data-name="Trazado 986350" d="M4976.89,1352.1c1.5-.085,2.495.523,2.652,2.078.139,1.37-1.128,2.449-2.793,2.477-1.61.028-2.605-.788-2.621-2.362C4974.111,1352.555,4975.468,1352.2,4976.89,1352.1Z" transform="translate(1044.781 187.928)" fill="#82e0e0"/>
      <path id="Trazado_986351" data-name="Trazado 986351" d="M5945.017,3063.908c1.809-.077,2.677.485,2.734,2.014.07,1.848-1.248,2.221-2.615,2.287a2.264,2.264,0,0,1-2.562-2.229C5942.542,3064.257,5944.053,3064.048,5945.017,3063.908Z" transform="translate(142.903 -1406.212)" fill="#82e0e0"/>
      <path id="Trazado_986352" data-name="Trazado 986352" d="M5268.667,2684.679c-.1-.7-.974-1.243-.442-2.081,3.6,6.209,6.477,12.814,10.236,18.939-2.166-1.535-3.18-3.914-4.363-6.131C5272.212,2691.871,5270.469,2688.259,5268.667,2684.679Z" transform="translate(771.058 -1051.118)" fill="#513e30"/>
      <path id="Trazado_986353" data-name="Trazado 986353" d="M5394.546,3878.946c-.06-.03-.16-.048-.173-.092a13.783,13.783,0,0,0-4.538-6.516c.666-.164,1.015.458,1.546.623C5393.181,3874.561,5394.731,3876.294,5394.546,3878.946Z" transform="translate(657.648 -2159.053)" fill="#544a34"/>
      <path id="Trazado_986354" data-name="Trazado 986354" d="M5744.62,4004.633a.519.519,0,0,0-.066-.248,3.544,3.544,0,0,1,1.33-1.292l1.386-.661a5.911,5.911,0,0,1-2.413,2.458Q5744.528,4004.954,5744.62,4004.633Z" transform="translate(327.312 -2280.229)" fill="#8a6632"/>
      <path id="Trazado_986355" data-name="Trazado 986355" d="M4249.061,1662.247c-1.2,1.267-2.754,1.362-4.353,1.3-.477.12-.8.571-1.313.609a11.829,11.829,0,0,1-4.66-2.045c-.157,3.829-1.242,5.114-5.571,6.594a9,9,0,0,1-7.492-2.687c-3.078-1.367-4.184-3.83-4.164-7.081a29.76,29.76,0,0,0-3.789-15.371,2.739,2.739,0,0,1-.071-3.328,2.65,2.65,0,0,0,.065-2.324,7.242,7.242,0,0,1-.618-2.506c.291-.653.922-.942,1.45-1.34a17.422,17.422,0,0,0,6.39-9.691,7.089,7.089,0,0,0,.024-3.769,3.631,3.631,0,0,0-2.91-2.733,4.865,4.865,0,0,0-4.155.97c-.643.5-.427,1.164-.261,1.839.487,1.987-.063,3.127-1.694,3.655a3.12,3.12,0,0,1-4.061-1.941,4.771,4.771,0,0,1,.142-4.089c.718-1.4.153-2.176-.856-3.065a13.16,13.16,0,0,0-4.672-2.209c-.55-.321-.89-1-1.648-.968-3.519-.8-7.083-1.422-10.547-2.419-5.654-1.627-9.845-4.766-10.6-11.126-.025-.219-.3-.182-.5-.161a1.1,1.1,0,0,1-.61-.934,3.661,3.661,0,0,1,1.289-3.18,51.94,51.94,0,0,1,3.835,4.581c3.049,3.634,6.871,3.8,11.11,3.264,4.563-.575,9.1-.578,12.918,2.681,1.864,1.59,3.008,3.718,4.342,5.7.483.72.911,1.478,1.354,2.224,1.171,1.969,2.665,3.46,5.122,3.642a4.094,4.094,0,0,1,3.466,2.678c1.041,2.185,2.175,4.176,5.167,3.854,1.137-.122,1.086.83.717,1.542a14.474,14.474,0,0,0-1.284,3.568,4.471,4.471,0,0,0,2.478,5.165,6.525,6.525,0,0,1,3.924,4.207c1,3.463,3.527,6.1,5.255,9.169,1.854,3.293,5.078,5.626,6.146,9.493A17.028,17.028,0,0,1,4249.061,1662.247Z" transform="translate(1781.911 -37.581)" fill="#3d312c"/>
      <path id="Trazado_986356" data-name="Trazado 986356" d="M5205.748,1981.7a19.359,19.359,0,0,0-6.883-10.235c-1.472-1.165-1.669-2.783-1.74-4.51C5203.714,1968.8,5207.619,1975.794,5205.748,1981.7Z" transform="translate(837.112 -384.665)" fill="#f8faf9"/>
      <path id="Trazado_986357" data-name="Trazado 986357" d="M4103.236,1588.61l-.894,3.166c-.4.917.476,1.845-.016,2.762-1.888,3.877-4.237,7.545-5.345,11.782a.941.941,0,0,1-.988.817c.229-6.25,1.378-12.227,5.238-17.377a15.579,15.579,0,0,1,1.545-1.565Z" transform="translate(1862.554 -31.941)" fill="#ef7751"/>
      <path id="Trazado_986359" data-name="Trazado 986359" d="M3719.3,2667.194c-2.823.6-5.677.365-8.524.322-4.785-.869-8.365-3.8-11.832-6.921a1.719,1.719,0,0,1-.7-1.372c2.271-3.124,4.552-6.241,6.9-9.309.236-.128-.133-.062.117-.161,1.036-.412,1.036-.412.379-1.6.563.652-.121,1.114-.43,1.657-2.359,3.094-4.707,6.195-6.924,9.393-1.052.4-1.527-.515-2.209-.962-.568-.373-.165-1.093-.549-1.534a19.052,19.052,0,0,1-4.087-4.641c-1.359-2.073-.943-2.9,1.423-3.5,1.422-.359,2.891-.128,4.318-.373-.025-1.208-1.922-1.549-1.3-2.5.5-.768,1.872-.219,2.854-.292a6.392,6.392,0,0,0,4.263-1.7c6.3-5.824,11.825-12.375,17.858-18.442a91.777,91.777,0,0,1,8.325-7.523c.432-.339.9-.591.907-1.217,2.218-2.566,4.471-5.086,7.991-5.895,4.081,2.949,8.745,2.547,13.377,2.326a21.1,21.1,0,0,0,8.907.651c1.439.023,2.111,1.176,2.991,2.03s1.709,1.818,2.679,2.607c1.35.823,2.438,2,3.787,2.828-1.416-.856-2.51-2.142-3.953-2.965q-1.359-1.273-2.634-2.628c-.368-.392-1.014-.834-.125-1.375,2.7-.6,5.328-.037,7.931.569,3.4.791,3.391.838,3.8,4.384.03.259.142.516.1.655-.1-.973-.241-2.067-.436-3.153s.329-1.474,1.323-1.459a9.455,9.455,0,0,0,5.515-1.457,15.942,15.942,0,0,1,4.186-1.871c1.937,1.1,2.566,3.2,3.411,4.974,1.5,3.15,3.5,6.005,5.007,9.137,1.773,3.682,3.886,7.21,6,10.669,2.742,4.485,5.161,9.165,8.088,13.536a4.839,4.839,0,0,1,.435.763c-1.261-2.126-2.676-4.533-4.047-6.963-1.124-1.992-1.181-1.96,1.038-2.888l-.022.023c.717-.43,1.01-.01,1.207.6,1.917,2.541,4.118,4.863,5.693,7.669a16.766,16.766,0,0,1,1.993,5.413,36.269,36.269,0,0,1-20.962,13.7,7.483,7.483,0,0,1-5.236.048c-.837-.927-1.641-1.885-2.421-2.859-1.009-1.259-.843-1.632.866-2.271,3.881.51,7.033-1.377,9.186-2.5a20.623,20.623,0,0,1-6,2.377c-.741.167-1.544.466-2.24-.193a20.389,20.389,0,0,0-1.746-10.374c.183-1.273,1.389-1.322,2.214-1.752,3.306-1.724,2.716-1.278,1.1-4.115-.412-.72-.924-1.386-1.267-2.151a25.4,25.4,0,0,0,2.109,3.555c.542.891.517,1.5-.467,1.9-1.264.515-2.312,1.574-3.8,1.52-.768-1.2-1.369-2.511-2.252-3.645-.68-1.594-1.831-2.988-2.056-4.778-.134-2.721-1.947-4.784-2.833-7.209a16.215,16.215,0,0,1-1.254-4.835,2.624,2.624,0,0,1,.9-2.51c2.448-2.381,4.844-4.817,7.256-7.235-2.368,2.345-4.713,4.712-7.078,7.061-.884.878-1.574,1.129-1.708-.406-.352.64,1.064,1.706-.379,2.276-.731-.217-1.105,2.315-2.075.27-.055.056.011.1.014.154a1.885,1.885,0,0,0,.51,1.122c.474-.5.813-1.151,1.46-1.478.44-.072.755.048.833.537-.062.528-.452.992-.368,1.539a9.241,9.241,0,0,1-2.346,7.76c-.444.516-.441,1.031.295,1.462.881.516,1.445,1.235.535,2.24a1.132,1.132,0,0,1-.824-.161c-.35-.188-.688-.4-1.039-.587-2.739-1.463-2.739-1.464-1.311-4.107-1.306,2.35-1.483,2.442-3.225,1.387,1.427,1.17,3.193,1.488,3.779,3.18a3.69,3.69,0,0,1,.674,2.446,2.376,2.376,0,0,0,.09,1.864,23.2,23.2,0,0,1,.768,2.841,15.965,15.965,0,0,0,.566,2.306,3.6,3.6,0,0,1-1.385,4.525,12.387,12.387,0,0,0-3.4,3.277,6.463,6.463,0,0,1-2.184,1.969c-2.622.924-4.878-.3-7.14-1.292a4.756,4.756,0,0,0-2.221-.47c-3.327.108-6.66.04-9.991.055a16.828,16.828,0,0,0-3.763.288c-.749.172-1.929.678-2.288-.753a.516.516,0,0,1,.015-.752c1.382-.51.988-2.142,1.873-2.967-.829.439-.379,2.585-2.226,1.666-.018.1.085.1.132.143a.848.848,0,0,1,.356,1.024c-.625.933-1.549,1.611-2.173,2.546a6.219,6.219,0,0,1-1.3.39c-1.813.137-3.77-.823-5.37.89-.458.49-.891-.354-1.384-.436-1.188.048-1.372-1.066-1.973-1.7-2.128-3.753-3.005-7.886-3.652-12.087a2.168,2.168,0,0,1,.173-1.359c.594-.627.8-.062.931.361a28.139,28.139,0,0,0,3.284,6.78,3.123,3.123,0,0,1,.508-1.429c1.9-.343,3.8-1.261,5.279-.3-1.751-.929-3.821-.166-5.891.636-1.77-.83-1.834-2.739-2.6-4.189-.488-.925-.649-2.016-1.211-2.932-.241-1.578-.577-3.177.91-4.394a8.282,8.282,0,0,1,1.547-1.837,9.3,9.3,0,0,0-1.563,1.793c-1.188.141-1.034-.811-1.05-1.435a41.13,41.13,0,0,1,.039-5.608,9.864,9.864,0,0,0-.353-3.683,7.772,7.772,0,0,1,.34,1.847c.1.586.251,1.318-.354,1.649-.722.4-1.075-.39-1.4-.81a13.13,13.13,0,0,1-2.436-4.1c-.466-.763-.645-1.663-1.146-2.413.447.723.651,1.556,1.07,2.293a14.411,14.411,0,0,0,2.439,4.2c.308.432.694.8.469,1.39a24.09,24.09,0,0,0-1.071,2.813c-.278.728-.439,1.606-1.5,1.644a4.992,4.992,0,0,1-1.817-3.449,15.308,15.308,0,0,0-.867-3.69c-.735-.809-1.363-.4-1.965.183a7.8,7.8,0,0,0-1.4,1.588,15.208,15.208,0,0,0-1.8,2.5,21.736,21.736,0,0,1,1.837-2.562c.985-.772,1.323-2.683,3.228-1.834a13.031,13.031,0,0,1,.945,3.854,5.275,5.275,0,0,0,2.111,3.709,1.9,1.9,0,0,1,.176,2.073c-1.542,4.3-1.724,8.869-2.711,13.279-.465,2.076-.875,4.164-1.51,6.2-.949.954-1.421-.2-2.093-.475a39.453,39.453,0,0,1-5.714-4.632,37.735,37.735,0,0,0,5.47,4.46c1.156.749,1.881,2.108,3.374,2.38A17.188,17.188,0,0,1,3719.3,2667.194Z" transform="translate(2240.02 -984.08)" fill="#fdc621"/>
      <path id="Trazado_986360" data-name="Trazado 986360" d="M4886.357,2926.126q-.345-1.319-.691-2.639c-.227-1.036.536-1.819.7-2.756a1.966,1.966,0,0,1,1.306-1.514c.566-.759.383-1.537-.469-1.634-2.036-.231-1.315-1.425-.672-2.119a8.033,8.033,0,0,0,2.356-7.209c-.126-.721-.074-1.49.8-1.841,1.376.935,1.044,2.536,1.247,3.8a24.528,24.528,0,0,0,1.094,4.261c.02-1.042-1.43-2.031-.286-3.273.926,1.957,1.879,3.9,2.754,5.881.174.394.67.953-.053,1.378.071,1.942,1.178,3.4,2.287,4.847.769,1.121,1.816,2.1,1.789,3.619-.108,1-1.127.841-1.608,1.3.638-.076,1.118-.954,1.938-.526,1.058,2.567,2.4,5.037,2.129,7.986a15.075,15.075,0,0,1-.465,2.931c-.094,1-.662.522-1.128.362-1.054.335-1.527.772-.508,1.769a5.751,5.751,0,0,1,2.078,3.146c-.722-.024-1.443-.068-2.165-.069-1.469,0-2.717-.308-3.012-2.036-1.173-2.4-3.216-3.321-5.763-3.388-1.681-1.931-1.669-4.429-2.159-6.735-.216-1.02,1.089-1.188,1.638-1.8a17.3,17.3,0,0,1,3.6-1.7c-1.139.567-2.45.759-3.461,1.6-1.811,1.236-1.779,1.227-2.377-.848C4886.977,2927.989,4887.052,2926.932,4886.357,2926.126Z" transform="translate(1127.201 -1259.551)" fill="#f59d36"/>
      <path id="Trazado_986361" data-name="Trazado 986361" d="M4873.563,3627.22l5.745,4.051c.234,3.035-.684,5.947-.979,8.927a101.267,101.267,0,0,0-.375,17.419c.056.761.2,1.6-.374,2.072-.683.56-1.364-.1-1.992-.46-3.722-2.12-5.728-5.006-5.5-9.6a117.785,117.785,0,0,1,2.6-20.631A3.225,3.225,0,0,1,4873.563,3627.22Z" transform="translate(1141.684 -1930.809)" fill="#f6f9f8"/>
      <path id="Trazado_986362" data-name="Trazado 986362" d="M4518.325,3528.581c-2.434,1.412-4.249,3.6-6.539,5.2-3.062,2.147-6.157,4.069-10.114,3.723-2.143-.187-4.169-1.085-6.46-.539-1.112.265-1.609-1.165-1.872-2.243a155.132,155.132,0,0,0,14.188-10.062,2.041,2.041,0,0,1,2.487-.411A51.964,51.964,0,0,1,4518.325,3528.581Z" transform="translate(1492.521 -1834.681)" fill="#ced4d1"/>
      <path id="Trazado_986363" data-name="Trazado 986363" d="M5020.609,3808.93l1.268.382c.647,2.063,1.1,4.178,1.686,6.254.29,2.617.045,2.807-2.49,1.955-1.072-.36-2.12-.784-3.152-1.238-2.361-1.039-2.354-1.056-3.7,1.219a4.236,4.236,0,0,1-2.005,1.9c-.936.282-1.808,1.049-2.872.385-1.334-3.089-1.1-6.384-1.219-9.625a1.137,1.137,0,0,1,1.315-1.212C5013.166,3809.357,5016.886,3809,5020.609,3808.93Z" transform="translate(1013.124 -2100.029)" fill="#f59d35"/>
      <path id="Trazado_986364" data-name="Trazado 986364" d="M4867.072,3622.132a104.519,104.519,0,0,0-2.793,22.475c.009,5.384,1.535,7.648,6.877,9.925a51.647,51.647,0,0,1-.436-12.463c.329-5.335.621-10.694,2.1-15.886l.369.4c.185,3.336-.736,6.575-.865,9.888-.2,5.041-1.083,10.063-.327,15.128a3.706,3.706,0,0,1-.337,2.717.939.939,0,0,0-.072.322.716.716,0,0,1-.265,1.019c-2.648-.461-4.405-2.3-6.283-4.106a15.746,15.746,0,0,0,3.445,8.092c.386.436.89.861.629,1.574a1.119,1.119,0,0,1-.578.145c-1.67-.566-2.452-2.017-3.167-3.415-1.172-2.292-2.264-4.648-1.856-7.358a74.665,74.665,0,0,1,2.356-27.516c.118-.448.3-.881.445-1.32Z" transform="translate(1148.176 -1925.721)" fill="#364159"/>
      <path id="Trazado_986365" data-name="Trazado 986365" d="M5002.537,3700.281l.61-1.517c3.414,2.971,7.43,4.9,11.025,7.467a28.933,28.933,0,0,1-12.1-.177C5001.128,3704.041,5001.605,3702.143,5002.537,3700.281Z" transform="translate(1019.236 -1997.436)" fill="#f59e3d"/>
      <path id="Trazado_986366" data-name="Trazado 986366" d="M4839.726,3366.494c4.322-.11,4.487-.005,5.633,3.572.067,1.118-.137,1.572-1.541,1.333-3.923-.666-7.658-2.017-11.519-2.891-.956-.216-1.109-.59-.248-1.181,2.078-1.318,4.4-1.01,6.671-.99C4839.059,3366.38,4839.386,3366.472,4839.726,3366.494Z" transform="translate(1177.617 -1687.817)" fill="#f6f4f2"/>
      <path id="Trazado_986367" data-name="Trazado 986367" d="M4819.179,3285.093l-7.031.561a2.452,2.452,0,0,1-2.034-.755c1.452-1.979,2.839-4.018,4.994-5.34,2.476-1.475,2.539-1.489,3.182,1.529C4818.574,3282.426,4819.381,3283.65,4819.179,3285.093Z" transform="translate(1197.521 -1606.143)" fill="#f3a140"/>
      <path id="Trazado_986368" data-name="Trazado 986368" d="M4983.258,3693.983c-.149,1.854-.711,3.667-.558,5.552.031,3.928.558,7.85.159,11.783a5.343,5.343,0,0,0-.281,2.051c0,1.573-.04,3.146.039,4.718-.019.546.252,1.1-.036,1.642l-1.265.005a91.953,91.953,0,0,1,1.529-27.734C4983.487,3692.556,4983.033,3693.34,4983.258,3693.983Z" transform="translate(1038.515 -1991.137)" fill="#f3efe2"/>
      <path id="Trazado_986369" data-name="Trazado 986369" d="M4222.694,3395.368c-3.426.268-3.752.091-4.412-2.4,1.931-.987,4.061-1.019,6.142-1.281l.316.044a21.5,21.5,0,0,0,8.916-1.746C4230.308,3392.428,4226.094,3393.07,4222.694,3395.368Z" transform="translate(1748.672 -1709.886)" fill="#ed7f48"/>
      <path id="Trazado_986370" data-name="Trazado 986370" d="M5001.5,3813.735c.152-4.043-.2-8.1.426-12.131,4.043.765,8.127.305,12.193.4a2.062,2.062,0,0,1,.324.105c-3.4,1.29-6.938.762-10.411.6-1.249-.057-1.779-.029-1.622,1.284.359,3,.258,6.057,1.192,8.979C5003.229,3814.129,5002.446,3814.156,5001.5,3813.735Z" transform="translate(1019.291 -2093.207)" fill="#bf7730"/>
      <path id="Trazado_986371" data-name="Trazado 986371" d="M5220.22,3461.77c1.93-.789,3.9-.269,5.856-.177.724.034,1.448.076,2.171.114,5.73.627,11.51.988,16.946,3.194A226.635,226.635,0,0,0,5220.22,3461.77Z" transform="translate(815.605 -1776.331)" fill="#6a4842"/>
      <path id="Trazado_986372" data-name="Trazado 986372" d="M4336.524,3578.711c-.106-.9.119-1.989-1.271-2.113,1.642-1.335,3.162-2.891,5.412-3.168.417-.051,1.018-.284,1.208.337.131.432-.306.707-.609.948-.783.622-1.589,1.214-2.386,1.819A4.491,4.491,0,0,1,4336.524,3578.711Z" transform="translate(1639.741 -1880.638)" fill="#f8d8bb"/>
      <path id="Trazado_986373" data-name="Trazado 986373" d="M4184.114,3532.269c-.555.228-1.1.5-1.668.672a1.891,1.891,0,0,1-2.323-1.085c-.556-.966.123-1.51.787-1.977.763-.535,1.583-.987,2.378-1.475.229.04.464.07.5.368C4182.791,3530.04,4184.155,3531.09,4184.114,3532.269Z" transform="translate(1784.4 -1838.785)" fill="#e97551"/>
      <path id="Trazado_986374" data-name="Trazado 986374" d="M4229.461,3477.49l-.5-.368c2.355-1.387,4.6-2.991,7.265-3.785C4234.462,3475.524,4231.683,3476.054,4229.461,3477.49Z" transform="translate(1738.73 -1787.504)" fill="#74585b"/>
      <path id="Trazado_986375" data-name="Trazado 986375" d="M5209.741,3820.993a27.333,27.333,0,0,1-1.512-6.5l.517.743q.71,2.646,1.418,5.291C5210.044,3820.7,5210.021,3820.961,5209.741,3820.993Z" transform="translate(826.771 -2105.205)" fill="#986331"/>
      <path id="Trazado_986376" data-name="Trazado 986376" d="M4266.525,3349.239l1.362,1.641c.127,1.055,1.316,1.624,1.262,2.761l-.061.036a5.287,5.287,0,0,1-3.119-4.556A.5.5,0,0,1,4266.525,3349.239Z" transform="translate(1704.262 -1671.79)" fill="#ed7f48"/>
      <path id="Trazado_986377" data-name="Trazado 986377" d="M4317.58,3538.036l2.083-2.086.957-.636C4319.77,3536.414,4319.475,3538.139,4317.58,3538.036Z" transform="translate(1656.199 -1845.221)" fill="#a37569"/>
      <path id="Trazado_986378" data-name="Trazado 986378" d="M4348.679,3621.916l2.354-2.177c-.117,1.565-1.6,2-2.452,2.948C4347.941,3622.345,4348.6,3622.167,4348.679,3621.916Z" transform="translate(1627.586 -1923.842)" fill="#9f705e"/>
      <path id="Trazado_986379" data-name="Trazado 986379" d="M4413.159,3327.8q-.01.372-.018.744l-2.023,1.661a4.166,4.166,0,0,1,2.027-2.417Z" transform="translate(1569.091 -1651.96)" fill="#9b8447"/>
      <path id="Trazado_986380" data-name="Trazado 986380" d="M3301.434,2221.153l.733,1.186a3.379,3.379,0,0,1,.662,2.05,14.515,14.515,0,0,0,1.607,4.717,4.514,4.514,0,0,0,4.474,2.772,2.436,2.436,0,0,1,2.231.585c-.113.07-.233.211-.338.2-3.766-.394-4.828,2.319-5.838,5.078a51.744,51.744,0,0,0-3.1,21.088,7.1,7.1,0,0,1-2.776,6.411c-3.034,2.559-6.211,4.555-10.373,4.686-4.138.13-6.623-2.124-8.447-5.4-2.214-3.976-3.057-8.389-3.8-12.817a93.133,93.133,0,0,1-.756-19.039c.3-7.681,1.2-15.319,2.2-22.94.718-5.429,1.444-10.858,2.136-16.291a2.64,2.64,0,0,0-.518-2.448c-3.529-3.58-5.911-7.918-8.1-12.379a2.709,2.709,0,0,0-.543-.575,30.154,30.154,0,0,1-3.365-9.028,3.815,3.815,0,0,1,1.736-3.817,2.453,2.453,0,0,0,1.2-2.551,2.8,2.8,0,0,1,.554-2.1,8.207,8.207,0,0,0,1.554-5.115c.024-3.023.546-6.008.51-9.032-.027-2.254.686-3.211,2.277-3.443,1.761-.257,2.992.641,3.7,2.675a14.665,14.665,0,0,1,.416,4.787c.018,1.744.051,3.49-.007,5.232-.052,1.57.637,2.184,2.17,2.106a19.7,19.7,0,0,1,4.211.253,21.492,21.492,0,0,1,6.093,2.934,3.842,3.842,0,0,1,1.814,3.75c-.53,3.064-.652,3.152-3.246,1.4a21.719,21.719,0,0,0-6.662-3.085,20.248,20.248,0,0,1,7.412,3.686c.938.738,1.834,1.489,1.6,2.99-.344,2.168-1.873,3.276-3.955,2.574-1.328-.448-2.553-1.159-3.813-1.622a25.506,25.506,0,0,1,4.557,2.225c2.019,1.507,2.23,3.54.6,4.876a2.275,2.275,0,0,1-2.411.41c-1.761-.6-3.3-1.673-5.073-2.229,1.83.628,3.423,1.8,5.3,2.31.53.145,1.138.863,1.615.233.755-1,2.218-1.733,1.588-3.394a10.211,10.211,0,0,0-.52-1.088c-.407-.782-.4-1.458.541-1.779a2.277,2.277,0,0,0,1.555-2.527c-.067-1.841.831-3.487.959-5.282a5.74,5.74,0,0,0-.357-3.87,18.889,18.889,0,0,1-1.783-9.247c.458-1.667.786-3.432,2.882-3.885a2.106,2.106,0,0,0,1.485.912,1.408,1.408,0,0,1,.833,1.048c.256,3.056,1.71,5.8,2.2,8.8a3.71,3.71,0,0,0,.5,2.324c2.351,5.05,1.53,9.836-.827,14.667-2.776,5.691-6.387,10.842-9.888,16.07a2.83,2.83,0,0,0-.588,2.229,264.8,264.8,0,0,0,8.323,33.851,2.424,2.424,0,0,0,.788,1.37Z" transform="translate(2634.11 -548.529)" fill="#f8af8e"/>
      <path id="Trazado_986381" data-name="Trazado 986381" d="M4105.121,2333.781c-2.914,1.45-5.073,3.911-7.7,5.745-1.677-1.18-2.171-2.96-2.479-5.077-.434.762-.739,1.384-1.121,1.954-1.973,2.949-5.592,2.771-7.312-.337-1.177-2.127-.894-4.4-.71-6.667-1.163-1.012-.548-2.262-.3-3.343.737-3.187,1.776-6.3,2.817-9.4.392-1.168.193-2.566,1.291-3.472.858.07,1.18.818,1.659,1.347,5.755,6.336,13.787,7.253,20.857,2.38.582-.4,1.056-1.093,1.93-.845.685,1.292-.265,2.008-1.052,2.666a14.134,14.134,0,0,1-4.757,2.437c-2.693.885-2.691.865-2.237,3.762a17.116,17.116,0,0,0,.375,1.953,14.962,14.962,0,0,1-.082,4.955C4106.141,2332.607,4106.018,2333.443,4105.121,2333.781Z" transform="translate(1872.686 -707.099)" fill="#3c312c"/>
      <path id="Trazado_986382" data-name="Trazado 986382" d="M4010.824,2079.935c-1.194,5.1-3.431,9.907-4.107,15.141a3.961,3.961,0,0,0,.114.968c-.479.213-.947.461-1.44.634a3.608,3.608,0,0,1-5.068-3.764c.09-2.029,1.234-3.64,2.131-5.349.176-.459-.135-.7-.426-.959-1.833-1.7-2.1-2.876-1.057-5.333,1.294-3.061,2.756-6.054,3.1-9.436.107-1.061.172-2.117.208-3.18.024-.716-.075-1.488.6-2.018.668-1.262.25-2.821,1.1-4.032a6.1,6.1,0,0,1,1.282,2.5c.668,4.691,1.226,9.409,3.529,13.681A1.107,1.107,0,0,1,4010.824,2079.935Z" transform="translate(1951.654 -473.743)" fill="#524033"/>
      <path id="Trazado_986383" data-name="Trazado 986383" d="M3685.577,2231.193a17.6,17.6,0,0,1-2.43-7.338,5.811,5.811,0,0,0-.6-2.505c1.668.942,2.814,2.862,5.111,2.641a15.679,15.679,0,0,1,2.32.109A27.294,27.294,0,0,1,3685.577,2231.193Z" transform="translate(2247.579 -621.575)" fill="#264242"/>
      <path id="Trazado_986384" data-name="Trazado 986384" d="M3958.721,1999.48a.766.766,0,0,1-.338.807c-5.283-1.532-6.719-5.046-4.143-10.151a5.913,5.913,0,0,1,.567-1.055c4.425-5.537,4.663-11.835,3.392-18.419a16.529,16.529,0,0,1-.154-1.775c.99.715,1.163,1.839,1.453,2.9a4.355,4.355,0,0,0,.136,2.935c1.107,4.292.062,8.173-2.014,11.9-.714,1.281-1.554,2.492-2.2,3.813C3953.214,1994.948,3954.151,1997.5,3958.721,1999.48Z" transform="translate(1995.725 -386.466)" fill="#585959"/>
      <path id="Trazado_986385" data-name="Trazado 986385" d="M3815.532,4041.25c.65,2.923,1.27,5.852,3.058,8.366a7.217,7.217,0,0,0,1.954,2.219c.581.209,1.209.434,1.1,1.205-.107.749-.8.8-1.381.928a4.009,4.009,0,0,1-1,.081c-5.967-.207-11.908.662-17.875.417-2.822-.116-5.6.556-8.425.413-9.906-.5-19.823-.413-29.737-.426-3.949,0-7.905-.383-11.842.243-3.984.344-7.976.14-11.964.13a2.175,2.175,0,0,1-1.65-.581c1.118-.854,2.411-.245,3.608-.432.943-.147,1.979.362,2.835-.4,1.24-.844,2.791.01,4.241-.786a31.616,31.616,0,0,1-4.207-4.741c-.815-1.33-.681-2.162.826-2.777a8.074,8.074,0,0,1,3.842-.636,40.2,40.2,0,0,0,10.79-.4,32.993,32.993,0,0,1,17.538,1.063,12.7,12.7,0,0,0,8.78.178,5.935,5.935,0,0,0,3.694-2.8,4.035,4.035,0,0,1,5.339-.031c-.386.323-.227.639.132.732,3.594.927,7.072,2.32,10.91,2.192a8.995,8.995,0,0,0,5.232-1.618A24.368,24.368,0,0,1,3815.532,4041.25Z" transform="translate(2196.155 -2316.38)" fill="#ebedec"/>
      <path id="Trazado_986386" data-name="Trazado 986386" d="M3674.694,4196.906c2,0,4.011.045,6.014-.018,11.245-.351,22.483.622,33.738.046,6.067-.31,12.164-.055,18.254-.209.354-1.228-.593-1.331-.765-1.845l.514-.028a38.809,38.809,0,0,1,5.332,1.127,45.009,45.009,0,0,0,13.725.533,3.323,3.323,0,0,1,1.949.3c.236,2.485-.04,2.846-2.25,2.871q-52.256.585-104.512,1.166c-.469.005-.938,0-1.407.009-1.366.034-2.692-.093-2.665-1.893.027-1.778,1.467-1.357,2.539-1.432,1.333-.093,2.667-.164,4-.244l13.7-.085c3.157-.32,6.322-.045,9.482-.145A6.948,6.948,0,0,0,3674.694,4196.906Z" transform="translate(2284.763 -2459.424)" fill="#3c3837"/>
      <path id="Trazado_986387" data-name="Trazado 986387" d="M2867.881,3924.58c-.339,2.171,1.219,3.558,2.183,5.167,2.891,4.826,5.47,9.771,6.368,15.417a67.479,67.479,0,0,0-12.15-.842l1.7-4.329,6.412,1.119.119-.295c-1.655-.975-3.3-1.961-4.968-2.919-.74-.426-1.343-.906-1.213-1.874Q2867.1,3930.3,2867.881,3924.58Z" transform="translate(3009.602 -2207.729)" fill="#b0cff2"/>
      <path id="Trazado_986388" data-name="Trazado 986388" d="M2587.989,3241.292c.621-3,1.182-6.01,1.874-8.992,3.589-15.456,7.127-30.923,11.1-46.288.621-2.4,2.2-3.689,4.008-3.21,2.289.607,3.215,2.3,2.605,4.778-2.932,11.906-4.916,24-7.022,36.064-1.125,6.445-2.193,12.877-2.02,19.46a4.23,4.23,0,0,1-3.205,4.135,5.339,5.339,0,0,1-5.864-2.016C2588.735,3244.05,2587.887,3242.847,2587.989,3241.292Z" transform="translate(3266.911 -1516.848)" fill="#d8f5f5"/>
      <path id="Trazado_986389" data-name="Trazado 986389" d="M2831.5,2988.985c2.52,4.1.731,8.34.38,12.532-1.728.122-2.293-1.39-3.026-2.4-1.234-1.709-2.128-3.66-3.221-5.475-1.631-2.708-3.6-5.037-6.893-5.782,3.535-.351,6.97.454,10.422.967.99.147,1.721.31,1.705-1.021Z" transform="translate(3052.017 -1335.314)" fill="#477a7a"/>
      <path id="Trazado_986390" data-name="Trazado 986390" d="M5362.323,1126.077c-.8-.3-1.66-.674-2.547-.955q-16.141-5.119-32.289-10.216c-1.717-.544-3.426-1.114-5.138-1.676-.846-.278-1.36-.589-.958-1.726,3.318-9.383,6.308-18.88,9.989-28.138.566-1.424,1.192-1.453,2.362-1.037q19.84,7.049,39.7,14.042c1.631.572,1.131,1.521.732,2.51-2.127,5.27-4.283,10.528-6.416,15.795-1.355,3.344-2.675,6.7-4.044,10.041C5363.47,1125.309,5363.258,1126.024,5362.323,1126.077Z" transform="translate(721.516 439.369)" fill="#f7f8f7"/>
      <path id="Trazado_986391" data-name="Trazado 986391" d="M2422.806,1225.854c-2.124-.019-4.248-.013-6.371-.069-1.031-.028-.824-.876-.827-1.506-.015-2.951-.022-5.9,0-8.853a7.1,7.1,0,0,0-.848-3.474c-.66-1.225-1.819-1.275-2.985-1.043-1.139.226-1.365,1.112-1.373,2.142a122.688,122.688,0,0,1-.774,12.415,3.4,3.4,0,0,1-.789,2.018c-.909,1-1.469,2.01-.907,3.443a1.262,1.262,0,0,1-.86,1.761c-1.9.663-2.39,2.181-2.34,4a5.266,5.266,0,0,1-4.365,1.209,83.809,83.809,0,0,1-12.607.847c-22.783-.643-43.2-18.645-46.682-41.185-1.364-8.83-.067-17.326,2.949-25.638a54.387,54.387,0,0,1,8.9-14.177,50.23,50.23,0,0,1,23.123-14.506c5.461-1.684,11.039-1.792,16.66-1.663,14.645,1.565,27.015,7.637,35.65,19.686,11.535,16.094,12.589,33.387,4.146,51.271-.371.786-.8,1.545-1.2,2.316a6.421,6.421,0,0,0-2.408,3.624A15.63,15.63,0,0,1,2422.806,1225.854Z" transform="translate(3497.347 384.016)" fill="#f7f9f8"/>
      <path id="Trazado_986392" data-name="Trazado 986392" d="M3210.96,2527l4.365-1.209q1.458,4.4,2.918,8.808l-2.017.455c-3.031-.918-4.032-3.449-4.805-6.125A6.374,6.374,0,0,0,3210.96,2527Z" transform="translate(2686.754 -905.093)" fill="#264242"/>
      <path id="Trazado_986393" data-name="Trazado 986393" d="M5902.389,3744.332c-.1.43-.192.86-.343,1.539a92.222,92.222,0,0,1,16.715-4.947c-3.459,1.083-6.935,2.117-10.373,3.263a90.509,90.509,0,0,0-10.39,4.169,92.657,92.657,0,0,0-9.8,5.291l-.264-.413c1.35-.836,2.659-1.75,4.059-2.492,2.182-1.156,4.41-2.228,6.647-3.274C5900.186,3746.746,5901.649,3745.986,5902.389,3744.332Z" transform="translate(193.786 -2036.697)" fill="#865f2a"/>
      <path id="Trazado_986394" data-name="Trazado 986394" d="M5827.107,3888.14c.337,1.03-.2,1.546-.454,2.124-.773,1.759-.52,2.175,1.458,2.367q3.39.328,6.776.708a11.491,11.491,0,0,1,1.453.436c-4.493.34-8.454-1.6-12.646.028C5825.279,3892.167,5825.912,3890.116,5827.107,3888.14Z" transform="translate(253.61 -2173.794)" fill="#795b30"/>
      <path id="Trazado_986395" data-name="Trazado 986395" d="M5683.438,4009.354l-4.836,4.634c1.32-1.933.319-4.5,1.953-6.762l-.786,4.793,3.433-2.921A1.386,1.386,0,0,0,5683.438,4009.354Z" transform="translate(388.73 -2284.695)" fill="#816333"/>
      <path id="Trazado_986396" data-name="Trazado 986396" d="M6037.713,3874.31a13.282,13.282,0,0,1-8.321,0Z" transform="translate(62.053 -2160.915)" fill="#bb904f"/>
      <path id="Trazado_986397" data-name="Trazado 986397" d="M5640.86,4111.193c3-1.6,6.408-1.538,9.687-2.055C5647.443,4110.314,5644.067,4110.322,5640.86,4111.193Z" transform="translate(423.878 -2379.602)" fill="#896e48"/>
      <path id="Trazado_986398" data-name="Trazado 986398" d="M2052.183,3735.066l6.233-1.941c-3.88-1.978-7.994-1.906-11.327-3.985,5.672.809,11.073,2.631,16.908,4.529l-3.878-7.41a22.294,22.294,0,0,1,4.067,6.269,5.637,5.637,0,0,0,2.848,2.655c2.967,1.4,5.886,2.894,8.82,4.361.475.237,1.1.458,1.152,1.024.064.727-.735.684-1.171.858a49.847,49.847,0,0,1-9.229,3.142c2.647-1.872,5.953-2.309,9.027-4.186-3.689-1.81-7.185-3.527-10.682-5.239-.239-.117-.507-.179-.742-.3a8,8,0,0,0-7.453-.39A7.825,7.825,0,0,1,2052.183,3735.066Z" transform="translate(3770.623 -2023.04)" fill="#5681d3"/>
      <path id="Trazado_986399" data-name="Trazado 986399" d="M4891.525,4046.628a6.427,6.427,0,0,1-5.332-1.127c-2.859-2.953-4.174-6.577-4.669-11.023,1.917,2.57,4.4,3.856,6.7,5.388.833,1.166.714,2.656,1.327,3.9.375.759.561,1.634,1.345,2.135Z" transform="translate(1131.02 -2310.073)" fill="#f1efea"/>
      <path id="Trazado_986400" data-name="Trazado 986400" d="M4997.485,3953.76a4.94,4.94,0,0,0,2.1-.764c1.038-.135,1.8-1.034,2.89-1.032a1.336,1.336,0,0,1-.682,1.162c-1.882.98-1.961,2.491-1.7,4.4.687,5.059.756,5.223,5.875,5.3,2.467.039,4.935,0,7.4.013a2.884,2.884,0,0,0,2.506-.962.484.484,0,0,1,.6-.066c.113,1.026.749,1.264,1.685,1.237,1.725-.049,3.452-.014,5.476-.014-2.258,1.076-4.927-.3-6.624,1.826-.117-.819-.846-1.1-1.829-.971-4.538.6-9.026.074-13.554-.286a5.229,5.229,0,0,1-3.843-1.781l-.505-1.177c.42-.6.992.15,1.562-.232-.467-1.723.356-3.85-1.617-5.178C4997.215,3954.726,4997.055,3954.192,4997.485,3953.76Z" transform="translate(1023.306 -2233.231)" fill="#8b6e44"/>
      <path id="Trazado_986401" data-name="Trazado 986401" d="M5097.459,3890.415l.423-.471c.037,2.079,1.026,3.167,3.149,3.5,2.731.432,5.419,1.144,8.134,1.693.785.159.51.326.077.58a48.123,48.123,0,0,1-8.515-1.829c-1.88-.569-2.192.042-1.93,1.652a.522.522,0,0,1-.55.016,4.348,4.348,0,0,0-3.66-2.94,2.474,2.474,0,0,1-.752-.261c-2.075-1.113-4.138-1.688-6.175.076.056-1.421,1.385-2.06,1.96-3.167.161-.309.409-.32.762.017,1.5,1.43,3.57,1.708,5.379,2.521C5097.249,3892.475,5097.873,3892.076,5097.459,3890.415Z" transform="translate(939.053 -2174.627)" fill="#816336"/>
      <path id="Trazado_986402" data-name="Trazado 986402" d="M5241.482,3983.64q.193,0,.387.006.968,3.832,1.934,7.664l-.421.005c-.2-.017-.452-.025-.52-.223C5242.03,3988.678,5240.821,3986.331,5241.482,3983.64Z" transform="translate(795.982 -2262.73)" fill="#927945"/>
      <path id="Trazado_986403" data-name="Trazado 986403" d="M4981.681,4107.064c-1.13.051-1.212-.938-1.443-1.616-.493-1.443-.828-2.941-1.229-4.417.4-.156.389-.555.516-.873C4980.033,4102.526,4980.392,4104.94,4981.681,4107.064Z" transform="translate(1040.236 -2371.239)" fill="#796c57"/>
      <path id="Trazado_986404" data-name="Trazado 986404" d="M5084.674,2632.8c-1.555.636-1.707,1.418-.742,2.9a82.5,82.5,0,0,1,4.7,8.541,16.866,16.866,0,0,1-3.406-4.837c-1.549-3.047-3.364-5.931-5.068-8.868-1.6-2.758-3.156-5.547-4.693-8.337-.478-.868-1.495-1.237-1.633-2.52-.133-1.226-1.165-2.359-1.82-3.523a19.394,19.394,0,0,0-1.944-3.261c-.7-.811-.313-2.813-2.319-2.314-.033.008-.167-.164-.148-.209,1.226-3.033-1.943-4.348-2.593-6.643-.567-.366-.966-.789-.507-1.5.419-.185.8-.51,1.312-.36-.578.389-.5.848-.2,1.382.528.932,1,1.9,1.527,2.828,1.971,3.452,1.981,3.465,5.743,2.45a9.814,9.814,0,0,1,3.151-.168l-1.933.655c-5,.823-5.009.83-2.589,5.082,1.122,1.972,2.3,3.91,3.457,5.864.33.172.206.533.33.791,1.206,2.086,2.43,4.162,3.612,6.261.85,1.511,2.2,2.688,2.682,4.463C5082.016,2633.032,5083.183,2633.427,5084.674,2632.8Z" transform="translate(960.807 -975.897)" fill="#5f4d29"/>
      <path id="Trazado_986405" data-name="Trazado 986405" d="M5361.578,3042.11a1.77,1.77,0,0,0-1.207-.6c.394-1.369,1.534-.455,2.256-.616,3.14-.7,6,.4,8.727,1.917-2.566-.772-5.119-1.618-7.85-1.335C5362.833,3041.543,5361.978,3041.177,5361.578,3042.11Z" transform="translate(685.087 -1384.583)" fill="#93642e"/>
      <path id="Trazado_986406" data-name="Trazado 986406" d="M5219.88,2864.846l-.33-.791a21.111,21.111,0,0,1,6.7.527C5223.979,2865.427,5221.881,2863.673,5219.88,2864.846Z" transform="translate(816.229 -1219.995)" fill="#956e3c"/>
      <path id="Trazado_986407" data-name="Trazado 986407" d="M4094.227,1726.238a30.314,30.314,0,0,1-3.887-14.881c1.109-.134,1.828.713,2.729,1.1,2.02.861,3.3.161,3.434-2.006a2,2,0,0,1,.894-1.87,3.48,3.48,0,0,0,1.948-3.823,2.661,2.661,0,0,0-2.648-2.5c-1.3.02-2.11.968-2.267,2.575-.091.929.4,1.85.013,2.781-.861,1.123-2.137,1.138-3.364,1.217-.427.028-.953-.074-.863-.755a83.516,83.516,0,0,1-.328-9.938c.478-.917.214-1.938.41-2.9,1-1.32,1.067-2.993,1.684-4.466a63.252,63.252,0,0,1,4.2-7.973c.627.317.7.974.836,1.529,1.552,6.277,6.169,8.7,12.011,9.5,1.52.208,3.035.451,4.558.641a2.252,2.252,0,0,1,1.819,2.579c-.279,1.039-1.509,1.272-1.97,2.356,2.389-.344,4.726-.644,6.43,1.515,1.146,2.71,3.013,5.058,3.918,7.885a20.753,20.753,0,0,1-3.257,19.735c-.482.648-1.109,1.506-2.13.612-3.424,2.76-7.216,4.535-11.73,4.311A15.2,15.2,0,0,1,4094.227,1726.238Z" transform="translate(1868.25 -120.047)" fill="#f9b18f"/>
      <path id="Trazado_986408" data-name="Trazado 986408" d="M3968.946,2038.834c-3.562-.207-5.426-2.53-4.877-6.007a11.3,11.3,0,0,1,1.86-4.595c3.074-4.536,4.667-9.372,3.534-14.911-.133-.652-.578-1.55.261-2.175.4,2.53,1.239,4.983,1.307,7.569a28.419,28.419,0,0,1-3.3,14.6C3966.511,2035.553,3967.008,2037.332,3968.946,2038.834Z" transform="translate(1985.5 -425.82)" fill="#f7f7f7"/>
      <path id="Trazado_986409" data-name="Trazado 986409" d="M4082.972,2040.235a4.147,4.147,0,0,0,4.077-.755,5.316,5.316,0,0,1,3.181,1.776c-.644.255-.57.705-.44,1.272a2.279,2.279,0,0,1-1.183,2.693,2.852,2.852,0,0,1-3-.125c-.832-.533-1.672-1.053-2.508-1.58-.5-.744-1.169-1.423-.957-2.447Z" transform="translate(1875.494 -452.206)" fill="#f67e5a"/>
      <path id="Trazado_986410" data-name="Trazado 986410" d="M4377.077,1852.326c-.366-.854-.289-2.009-1.542-2.255.874-1.018,2.071-.5,3.124-.659a8.688,8.688,0,0,1,1.229.036c.653.4,1.5.352,2.1.877,2.691.046,4.555,1.706,6.5,3.262.717.575.346.92.022,1.474a5.415,5.415,0,0,0-.5,5,2.71,2.71,0,0,0,3.477,1.541,2.214,2.214,0,0,0,1.169-3.444c-.742-1.2-.2-1.762.606-2.288a5.729,5.729,0,0,1,5.93-.423,4.131,4.131,0,0,1,2.131,4.442,16.421,16.421,0,0,1-8.427,13.145c-.152.22-.315.523-.569.528-2.329.044-2.85,1.647-3.225,3.519-.247,1.233-.649,2.442-.968,3.666a8.1,8.1,0,0,0,1.765,8,2.548,2.548,0,0,1,.746,1.386,9.083,9.083,0,0,1-10.063,6.939,22.153,22.153,0,0,1-8.407-2.429c-.306-1.358-.561-2.731-.934-4.07-.263-.941.13-1.108.949-1.248a15.547,15.547,0,0,0,6.3-2.458c.876-.6,2.079-1.106,1.854-2.562.922.337,1.371-.35,1.779-.916a20.828,20.828,0,0,0,4.024-15.037,22.232,22.232,0,0,0-3.977-10.075c-.408-.609-1.1-1.257-.579-2.165.843-1.094-.12-1.475-.766-2.028C4379.722,1853.157,4378.068,1853.449,4377.077,1852.326Z" transform="translate(1606.311 -275.198)" fill="#f47b4f"/>
      <path id="Trazado_986411" data-name="Trazado 986411" d="M4607.9,2209.793c-3.377-3.093-3.9-6.814-2.437-10.985a8.891,8.891,0,0,0,.631-2.314c.161-2.744,1.388-4.211,4.285-3.9a13,13,0,0,1,1.325,3.761c.095.421.225.861-.145,1.1-1.7,1.095-.73,2.2-.086,3.339a30.428,30.428,0,0,1,3.683,15.584c-.033,3.028,1,5.289,4.039,6.31-2.66,2.659-5.9,1.812-7.992-2.087a6.165,6.165,0,0,1-.365-1.749C4610.747,2215.539,4610.559,2212.27,4607.9,2209.793Z" transform="translate(1388.823 -594.76)" fill="#503f33"/>
      <path id="Trazado_986412" data-name="Trazado 986412" d="M4584.714,2596.743c2.141,3.225,3.262,3.528,7.57,2.045,1.82,2.414,4.424,2.8,7.186,2.778.689-.156.925.17.864.812-.893-.21-1.344-.037-1.216,1.055.161,1.365.707,2.71.309,4.245-.976-1.423-.492-3.078-1.029-4.5-.215-.567-.228-1.137-1.061-1.175-3.436-.155-6.811-1.079-10.281-.821-.739.309-1.194-.572-1.888-.45a14.373,14.373,0,0,1-9.367-.71c2.406-1.6,5.25-2.234,7.791-3.538A1.089,1.089,0,0,1,4584.714,2596.743Z" transform="translate(1415.729 -970.858)" fill="#f39940"/>
      <path id="Trazado_986413" data-name="Trazado 986413" d="M4211.07,1647.186l-.483.438c-1.1-.765-2.34-.36-3.518-.417a30.622,30.622,0,0,1-10.547-2.015c-4.442-1.863-7.527-7.5-6.289-11.7.139-.425.012-.952.666-1.4.237,1.9.265,3.739,1.158,5.391a13.9,13.9,0,0,0,9.566,6.971c3.432.823,6.875,1.6,10.313,2.4C4211.885,1647.569,4211.526,1647.5,4211.07,1647.186Z" transform="translate(1775.049 -72.819)" fill="#eb7c55"/>
      <path id="Trazado_986414" data-name="Trazado 986414" d="M4921.011,2567.638a1.48,1.48,0,0,0-.864-.812c.6-.26,1.223-.495,1.813-.786,2.75-1.355,3.553-3.222,2.69-6.931,1.715,1.869,3.779,2.373,5.605,3.334l.507,1.5c-2.141,1.093-4.294,2.162-6.418,3.288A6.592,6.592,0,0,1,4921.011,2567.638Z" transform="translate(1095.052 -936.117)" fill="#f2993a"/>
      <path id="Trazado_986415" data-name="Trazado 986415" d="M4182.409,1641.136c-.522,8.592,5.783,12.267,12.11,12.888,2.128.209,4.268.291,6.4.425.719.045,1.521-.111,1.838.825l-3.79.069c-2.181-.3-4.382-.488-6.539-.908-6.2-1.208-9.91-4.893-10.875-11.209.22-.963-.167-2.024.467-2.921Z" transform="translate(1782.874 -80.469)" fill="#5d3930"/>
      <path id="Trazado_986416" data-name="Trazado 986416" d="M4497.1,1846.985a.8.8,0,0,0,.866-.338c.816-.085,1.208.336,1.311,1.1C4498.46,1847.755,4497.558,1848,4497.1,1846.985Z" transform="translate(1489.019 -272.618)" fill="#5d3930"/>
      <path id="Trazado_986417" data-name="Trazado 986417" d="M4110.644,3002.4a30.673,30.673,0,0,0,3.177,4.433,16.951,16.951,0,0,1-6.4,1.2c-2.547-.7-5.088.313-7.634.026-.575-1.24.053-2.184.765-3.107,1.356-.227,2.172.841,3.139,1.177-.944-.692-2.228-1.1-3.359-1.771-.5-.3-1.433-.35-.966-1.358.718-3.785,1.53-7.555,2.123-11.36a45.49,45.49,0,0,1,2.1-8.922,1.239,1.239,0,0,0-.2-1.119.309.309,0,0,1,.054-.538c1.12-.812,1.042-2.177,1.474-3.3.22-.568.241-1.161,1.043-1.127,1.755.453,1.633,1.8,1.579,3.182-.181,4.577-.631,9.15.217,13.724a24.739,24.739,0,0,0,2.152,6.829A3.514,3.514,0,0,1,4110.644,3002.4Z" transform="translate(1859.532 -1324.947)" fill="#f49f38"/>
      <path id="Trazado_986418" data-name="Trazado 986418" d="M3780.968,3308.546c-6.594-.306-8.734-2.721-8.973-10.124.81.206,1.129,1.241,2.07,1.226v0c2.871,3.6,6.786,5.727,10.827,7.675.532.257,1.08.481,1.62.721Z" transform="translate(2164.282 -1624.612)" fill="#f47c4f"/>
      <path id="Trazado_986419" data-name="Trazado 986419" d="M4471.5,4017.046a16,16,0,0,0-5.339.031c-1.219-.014-2.119-.485-2.007-1.835.1-1.25,1.156-1.312,2.119-1.306q6.013.034,12.026.1c.946.01,1.818.289,1.884,1.37.075,1.229-.947,1.568-1.879,1.6C4476.042,4017.1,4473.771,4017.045,4471.5,4017.046Z" transform="translate(1519.706 -2290.943)" fill="#414042"/>
      <path id="Trazado_986420" data-name="Trazado 986420" d="M3985.473,3462.967c.469,0,.939-.03,1.4.008.562.045.794.5.9.956.13.57-.255.9-.767.965-3.161.43-6.323.864-9.492,1.226a2.5,2.5,0,0,1-1.948-.911c-.316-.311-.866-.584-.683-1.119.2-.584.809-.265,1.233-.367C3979.2,3462.985,3982.4,3463.724,3985.473,3462.967Z" transform="translate(1975.374 -1777.836)" fill="#d4d9d8"/>
      <path id="Trazado_986421" data-name="Trazado 986421" d="M4625.814,3785.09a22.232,22.232,0,0,1-2.777.157,1.394,1.394,0,0,1-1.488-1.322c-.061-.947.531-1.315,1.344-1.387,2.116-.186,4.234-.365,6.354-.485a1.313,1.313,0,0,1,1.444,1.335c.082.9-.468,1.338-1.3,1.428-1.188.128-2.38.22-3.571.328C4625.817,3785.126,4625.815,3785.108,4625.814,3785.09Z" transform="translate(1373.128 -2074.997)" fill="#3c3c3e"/>
      <path id="Trazado_986422" data-name="Trazado 986422" d="M4338.621,3798.9c-1.065-.124-2.926.8-3.038-1.274-.107-2.011,1.806-1.469,3.02-1.624.791-.1,1.6-.02,2.405-.052a1.362,1.362,0,0,1,1.6,1.385c.044.922-.7,1.233-1.456,1.352C4340.366,3798.807,4339.56,3798.823,4338.621,3798.9Z" transform="translate(1639.438 -2087.937)" fill="#393c40"/>
      <path id="Trazado_986423" data-name="Trazado 986423" d="M4222.848,4021.062c-1.055-.188-3.067.513-3.055-1.588s2.011-1.07,3.167-1.324a4.524,4.524,0,0,1,1,.007c1.059.013,1.94.411,1.95,1.558.012,1.3-1.064,1.331-2.035,1.347C4223.61,4021.065,4223.342,4021.062,4222.848,4021.062Z" transform="translate(1747.265 -2294.831)" fill="#3c3d41"/>
      <path id="Trazado_986424" data-name="Trazado 986424" d="M4360.337,4007.895c-1.875-.027-2.277-1.022-2.311-2.265a1.832,1.832,0,0,1,1.972-2.053,1.894,1.894,0,0,1,1.938,2.127C4361.89,4006.8,4361.638,4008.076,4360.337,4007.895Z" transform="translate(1618.534 -2281.296)" fill="#484b4e"/>
      <path id="Trazado_986425" data-name="Trazado 986425" d="M4511.812,3793.847a1.794,1.794,0,0,1-1.774-2.062c.04-1.428.927-1.741,2.148-1.682a1.74,1.74,0,0,1,1.832,1.913C4514,3793.265,4513.23,3793.926,4511.812,3793.847Z" transform="translate(1476.972 -2082.49)" fill="#82e0e0"/>
      <path id="Trazado_986426" data-name="Trazado 986426" d="M4398.8,2454.183c-2.2.363-3.951,1.833-6.061,2.435a14.1,14.1,0,0,1-2.853.85c-4.846.672-9.651,1.113-13.722-2.488,1.08-2.33.832-4.784.67-7.23.7-.683,1.233.013,1.778.262a17.1,17.1,0,0,0,8.119,1.61,8.827,8.827,0,0,0,8.345-6.291c2.436,1.561,3.754,3.606,3.367,6.674A19.352,19.352,0,0,0,4398.8,2454.183Z" transform="translate(1601.64 -828.298)" fill="#f8b18f"/>
      <path id="Trazado_986427" data-name="Trazado 986427" d="M4160.27,2924.874c-4.1-6.871-4.237-14.4-3.5-22.019a3.957,3.957,0,0,0-1.188-3.743c-1.083-1.839-2.678-3.4-3.053-5.623l.127-.1c1.284,1.65,1.941,3.765,3.834,5.2.353-1.568-.111-2.966-.139-4.376,1.282,2.425,1.135,5.066,1.208,7.665.032,1.133-.061,2.268-.076,3.4-.011.8.461.342.777.279l-.034-.03a8.482,8.482,0,0,0-.761,4.833,1.44,1.44,0,0,1-.384.9,33.184,33.184,0,0,0,3.8,13.6Z" transform="translate(1809.906 -1247.42)" fill="#59462f"/>
      <path id="Trazado_986428" data-name="Trazado 986428" d="M4934.082,2764.289c-.362,1.476.667,2.761.513,4.229-.312-1.88-2.274-3.12-1.684-5.453a4.982,4.982,0,0,0-.883-3.567c-.161-.4-.466-.36-.791-.262a.327.327,0,0,1-.018-.527c1.256-1.1-.294-2.584.543-3.733.064.058.186.117.219.208.244.676-.309,1.746.412,2.028.851.333,1.273-.756,1.809-1.28,2.013-1.967,3.955-4.008,5.96-5.983a3.13,3.13,0,0,1,2.066-1.294c-2.594,2.6-4.887,5.08-7.373,7.344-1.646,1.5-2.5,2.987-1.616,5.225A28.458,28.458,0,0,0,4934.082,2764.289Z" transform="translate(1084.857 -1112.634)" fill="#97763e"/>
      <path id="Trazado_986429" data-name="Trazado 986429" d="M4582.948,3063.932l-4.161-10.723c.383.162.532.176.57.249,1.277,2.406,2.475,2.541,5.557.365a3.536,3.536,0,0,1,2.589-.753c-1.644.852-.083,1.4-.135,2.388-.974-.814-1.819-1.517-3.094-.662-.967.648-2.26.79-3.3,1.35-.627.336-.023,1,.13,1.432.731,2.071,1.716,4.059,1.922,6.29Z" transform="translate(1412.947 -1396.114)" fill="#947842"/>
      <path id="Trazado_986430" data-name="Trazado 986430" d="M4886.836,3199.3c-.592-2.086-1.182-4.172-1.783-6.255-.032-.11-.16-.192-.246-.288-.762.175-1.086,1.233-2.042,1.01,3.03-1.91,1.165-4.485.929-6.839.042-.124.051-.281.134-.364.176-.176.305-.1.361.133a18.221,18.221,0,0,1,.647,2.855c.116,1.742.894,1.661,2.045.917.224-.069.285.012.206.223-1.567.861-1.556,2.138-1.062,3.64.512,1.556.664,3.225,1.454,4.7C4887.375,3199.383,4887.158,3199.468,4886.836,3199.3Z" transform="translate(1129.864 -1520.354)" fill="#8c5a29"/>
      <path id="Trazado_986431" data-name="Trazado 986431" d="M4538.742,2759.161c-2.813,1.294-2.21,3.609-1.352,6.314a2.378,2.378,0,0,1-1.122-1.856c-.1-1.381-.295-2.642-2.428-1.388,3.793-2.183.283-4.9,1.081-7.609l1.526,5.429,2.288-1.406A.3.3,0,0,1,4538.742,2759.161Z" transform="translate(1454.803 -1118.191)" fill="#9c834f"/>
      <path id="Trazado_986432" data-name="Trazado 986432" d="M5043.127,3093.094c-.842.035-1.427.9-2.572.718l2.242-1.5a1.05,1.05,0,0,0,.2-.027c4.546-1.519,4.539-1.515,2.3-5.54a7.469,7.469,0,0,1-.986-2.742c1.171,1.9,2.332,3.812,3.518,5.7.4.642.169.868-.458,1.163C5045.925,3091.549,5044.538,3092.345,5043.127,3093.094Z" transform="translate(982.92 -1424.933)" fill="#a37b42"/>
      <path id="Trazado_986433" data-name="Trazado 986433" d="M4809.9,3012.837c-.388-1.814-2.535-1.763-3.343-3.154a14.1,14.1,0,0,0-1.425-1.66c1.482.527,1.985,2.167,3.106,1.73.986-.385,1.221-1.77,1.95-2.9a3.136,3.136,0,0,1,.054.816c-.3.975-1.607,1.867-1.119,2.725.439.771,1.771,1.048,2.726,1.5a.763.763,0,0,1,.506.542C4811.638,3013.224,4810.642,3012.243,4809.9,3012.837Z" transform="translate(1202.163 -1353.088)" fill="#6f5c31"/>
      <path id="Trazado_986434" data-name="Trazado 986434" d="M5085.77,3321.012c.406-.029.85.063,1.128-.362,3.882-.135,7.077-2.075,10.284-4.015-1.251,2.47-3.814,2.771-5.959,3.607C5089.535,3320.9,5087.725,3321.773,5085.77,3321.012Z" transform="translate(940.813 -1641.573)" fill="#7e693e"/>
      <path id="Trazado_986435" data-name="Trazado 986435" d="M4291.64,2800.83l9.064,8.141A31.936,31.936,0,0,1,4291.64,2800.83Z" transform="translate(1680.356 -1161.223)" fill="#705a2e"/>
      <path id="Trazado_986436" data-name="Trazado 986436" d="M3807.563,3179.918c-2.268,3.091-4.215,6.426-6.959,9.155v0c-.03-.255-.184-.635-.071-.748,2.6-2.609,4.191-6.018,6.8-8.621C3807.527,3179.643,3807.606,3179.715,3807.563,3179.918Z" transform="translate(2137.745 -1514.033)" fill="#937b43"/>
      <path id="Trazado_986437" data-name="Trazado 986437" d="M4218.483,3141.27a.744.744,0,0,1,.383-.9c.788,1.85,1.562,3.707,2.373,5.547.249.563.34,1.329,1.233,1.307q.256-.292.481.024c-1.1.967.418,1.746.283,2.947C4220.944,3147.369,4219.854,3144.243,4218.483,3141.27Z" transform="translate(1748.504 -1477.422)" fill="#755c35"/>
      <path id="Trazado_986438" data-name="Trazado 986438" d="M4724.661,3102.027c.69-.318,1.443-.576.4-1.431a2.493,2.493,0,0,1-1.1-1.325c1.3-.139,1.486,2.108,2.895,1.409a19.706,19.706,0,0,0,2.774-2.021,3.013,3.013,0,0,1-1.63,1.941c-.936.6-1.1,1.146-.3,2.117a2.114,2.114,0,0,0-2.637-.348C4724.649,3102.593,4724.618,3102.354,4724.661,3102.027Z" transform="translate(1277.751 -1438.58)" fill="#705c37"/>
      <path id="Trazado_986439" data-name="Trazado 986439" d="M3944.15,3043.393c.237-1.521,2.243-1.989,1.947-3.692,1.376-.174,1.7-1.553,2.7-2.439.275,1.432-2.079,2.315-.244,3.882C3945.688,3039.879,3945.871,3043.076,3944.15,3043.393Z" transform="translate(2003.961 -1381.403)" fill="#866d3e"/>
      <path id="Trazado_986440" data-name="Trazado 986440" d="M5056.426,2969.284l.947,1.907,2.421-4.459.391.157c-.383.806-.772,1.61-1.149,2.419-.447.96-.9,1.919-1.317,2.891-.113.262.06.745-.514.531-.235-.087-.416-.148-.465-.515-.129-.957-.385-1.9-.591-2.844Z" transform="translate(968.397 -1315.721)" fill="#90723e"/>
      <path id="Trazado_986441" data-name="Trazado 986441" d="M4071.985,3350.526c.374,1.194,1.586,1.277,2.447,1.81.821.509,1.714.9,3.053,1.587-1.968-.071-3-1.171-4.315-1.446-.921-.912-1.587-.431-2.331.65,1.285-1.782-.215-2.267-.968-3.048-.084-.22-.02-.308.216-.244C4070.8,3349.844,4071.163,3350.816,4071.985,3350.526Z" transform="translate(1886.914 -1672.472)" fill="#91622e"/>
      <path id="Trazado_986442" data-name="Trazado 986442" d="M4874.49,3083.341c0-.518.1-.957.767-.7a3.053,3.053,0,0,0,1.688.308l.358.312c-.3.556-.882.973-.817,1.7-.372.3-.47,1.068-1.225.727A3.793,3.793,0,0,0,4874.49,3083.341Z" transform="translate(1137.57 -1423.593)" fill="#f6ce7d"/>
      <path id="Trazado_986443" data-name="Trazado 986443" d="M4419.291,3270.285c0-1.083-1.462-1.127-1.573-2.453,3,2.844,2.7-.692,3.856-1.792.267,1.6-1.938,2.824-.328,4.527l-1.942-.271Z" transform="translate(1562.945 -1594.456)" fill="#857343"/>
      <path id="Trazado_986444" data-name="Trazado 986444" d="M4767.425,3176.363c-.361-.752-1.128-.825-1.246-1.666,1.218.468,2.29,1.833,3.9-.031-1.263,2.18-3.691,3.081-6.44,2.638Z" transform="translate(1240.805 -1509.363)" fill="#83663f"/>
      <path id="Trazado_986445" data-name="Trazado 986445" d="M3986.271,3277.2a18.341,18.341,0,0,1-6.205-5.644c1.982,1.994,4.344,3.525,6.421,5.4A.841.841,0,0,0,3986.271,3277.2Z" transform="translate(1970.513 -1599.595)" fill="#806637"/>
      <path id="Trazado_986446" data-name="Trazado 986446" d="M4277.281,3224.531l-.481-.024c3.652-1.838,6.169-1.489,7.485,1.183C4282.25,3223.235,4279.716,3224.221,4277.281,3224.531Z" transform="translate(1694.177 -1554.708)" fill="#846c43"/>
      <path id="Trazado_986447" data-name="Trazado 986447" d="M4119.938,2941.341c-.018.178-.036.357-.054.537a6.292,6.292,0,0,1-2.174-4.338c-.14-1.112-.473-2.2-.719-3.3-.083-.217-.02-.3.212-.237.929.927.909,2.186,1.075,3.342A7.277,7.277,0,0,0,4119.938,2941.341Z" transform="translate(1843.033 -1285.225)" fill="#9e8247"/>
      <path id="Trazado_986448" data-name="Trazado 986448" d="M4384.5,2806.226a3.174,3.174,0,0,1,.146-.665c.238-.455.833-.922.407-1.416-.518-.6-1.113.031-1.628.229-.788.3-1.532.72-2.727,1.3a5.3,5.3,0,0,1,2.674-1.83c.668-.322,1.588-1.074,2.122-.186C4386.016,2804.527,4385.657,2805.541,4384.5,2806.226Z" transform="translate(1597.423 -1163.464)" fill="#9a753a"/>
      <path id="Trazado_986449" data-name="Trazado 986449" d="M4712.08,2656.582c.813-.617,1.243.368,1.888.451.716,1.5,2.32,2.167,3.268,3.451a.3.3,0,0,1-.056.525Z" transform="translate(1288.816 -1026.702)" fill="#8d6b2e"/>
      <path id="Trazado_986450" data-name="Trazado 986450" d="M4996.673,3074.323c-2.025-1.391-2.166-3.878-3.726-5.737,1.085-.132.982.707,1.439.89Q4995.528,3071.9,4996.673,3074.323Z" transform="translate(1027.256 -1410.562)" fill="#a05f27"/>
      <path id="Trazado_986451" data-name="Trazado 986451" d="M3896.934,3139.712c.962-1.012-.044-1.966-.223-2.97,1.746.868,1.852,2.516,2.272,4.037-.846.208-.615-1.9-1.814-.849A2.229,2.229,0,0,0,3896.934,3139.712Z" transform="translate(2048.139 -1474.045)" fill="#907742"/>
      <path id="Trazado_986452" data-name="Trazado 986452" d="M4033.1,3119.2a16.663,16.663,0,0,1,4.434,4.113A18.452,18.452,0,0,1,4033.1,3119.2Z" transform="translate(1921.125 -1457.709)" fill="#966d3a"/>
      <path id="Trazado_986453" data-name="Trazado 986453" d="M4786.27,2716.618c.019-.175.038-.349.056-.524l5.138,3.891A14.811,14.811,0,0,1,4786.27,2716.618Z" transform="translate(1219.726 -1082.312)" fill="#826835"/>
      <path id="Trazado_986454" data-name="Trazado 986454" d="M4900.021,2881.482c.006.175.012.349.018.525a3.631,3.631,0,0,0-1.121,2.681,10.409,10.409,0,0,1-1.325-4.2c.841.482.73,1.253.938,1.857C4899.267,2882.429,4899.456,2881.632,4900.021,2881.482Z" transform="translate(1116.054 -1235.406)" fill="#a3854a"/>
      <path id="Trazado_986455" data-name="Trazado 986455" d="M4639.4,3210.33c1.137,1.591,1.269,3.543,1.868,5.33a12.885,12.885,0,0,1-1.943-5.267Z" transform="translate(1356.569 -1542.575)" fill="#947842"/>
      <path id="Trazado_986456" data-name="Trazado 986456" d="M4308.179,3007.816c-1.7-.308-3.157-1.688-5.062-.74C4305.094,3005.582,4306.662,3006.659,4308.179,3007.816Z" transform="translate(1669.669 -1352.612)" fill="#887240"/>
      <path id="Trazado_986457" data-name="Trazado 986457" d="M5331.68,3174.932a17.643,17.643,0,0,0,2.634-4.825,6.865,6.865,0,0,1-2.072,4.826A.348.348,0,0,1,5331.68,3174.932Z" transform="translate(711.806 -1505.117)" fill="#9c824f"/>
      <path id="Trazado_986458" data-name="Trazado 986458" d="M4675.595,3147.66l.408.342a7.225,7.225,0,0,1-4.728,1.11Z" transform="translate(1326.817 -1484.213)" fill="#7e6a3c"/>
      <path id="Trazado_986459" data-name="Trazado 986459" d="M4758.569,2979.44l.964,2.373c-1.346-1.58-2,.54-3.257.583C4757.091,2981.4,4758.064,2980.812,4758.569,2979.44Z" transform="translate(1247.658 -1327.556)" fill="#736236"/>
      <path id="Trazado_986460" data-name="Trazado 986460" d="M5166.437,3218.18l2.067,3.944-.463.253-2.1-3.975Z" transform="translate(866.15 -1549.885)" fill="#936c42"/>
      <path id="Trazado_986461" data-name="Trazado 986461" d="M4035.229,2963.114a10.014,10.014,0,0,1-2.818,3.357,12.475,12.475,0,0,1,2.6-3.548C4035.187,2962.87,4035.259,2962.934,4035.229,2963.114Z" transform="translate(1921.767 -1312.157)" fill="#7f7039"/>
      <path id="Trazado_986462" data-name="Trazado 986462" d="M4765.85,2831.6l3.014,2.823A4.519,4.519,0,0,1,4765.85,2831.6Z" transform="translate(1238.742 -1189.878)" fill="#806632"/>
      <path id="Trazado_986463" data-name="Trazado 986463" d="M5293.624,3240.3h.561a7.282,7.282,0,0,1-3.37,3.012Z" transform="translate(749.863 -1570.485)" fill="#76643c"/>
      <path id="Trazado_986464" data-name="Trazado 986464" d="M4457.4,3080.06l3.123,2.183A3.874,3.874,0,0,1,4457.4,3080.06Z" transform="translate(1525.99 -1421.26)" fill="#81663a"/>
      <path id="Trazado_986465" data-name="Trazado 986465" d="M4669.889,2760.562c-1.2-.949-2.215.084-3.3.224C4667.613,2759.865,4668.663,2759.2,4669.889,2760.562Z" transform="translate(1331.18 -1123.002)" fill="#8a7134"/>
      <path id="Trazado_986466" data-name="Trazado 986466" d="M4073.5,2931.107c-1.677-.4-1.984,1.347-3.029,1.938a1.2,1.2,0,0,1-.215-.19c.879-1.135,1.4-2.9,3.456-1.984A.516.516,0,0,0,4073.5,2931.107Z" transform="translate(1886.519 -1282.089)" fill="#89743d"/>
      <path id="Trazado_986467" data-name="Trazado 986467" d="M4235.446,3033.427c.3-1.48,1.5-2.065,2.615-2.735a10.276,10.276,0,0,1-2.649,2.706Z" transform="translate(1732.719 -1375.285)" fill="#81713e"/>
      <path id="Trazado_986468" data-name="Trazado 986468" d="M4241.941,2744.777a3.333,3.333,0,0,1-2.238-2.448Z" transform="translate(1728.723 -1106.743)" fill="#795221"/>
      <path id="Trazado_986469" data-name="Trazado 986469" d="M4879.984,3118.153l1.225-.727-1.189,2.568C4879.153,3119.4,4879.736,3118.771,4879.984,3118.153Z" transform="translate(1132.848 -1456.057)" fill="#86602a"/>
      <path id="Trazado_986470" data-name="Trazado 986470" d="M4396.08,3041.96a7.416,7.416,0,0,1,3.074,2.122A5.638,5.638,0,0,1,4396.08,3041.96Z" transform="translate(1583.095 -1385.778)" fill="#6d582e"/>
      <path id="Trazado_986471" data-name="Trazado 986471" d="M4137.11,2854.432a4.853,4.853,0,0,1-1.138-2.983,5.374,5.374,0,0,1,1.265,2.883Z" transform="translate(1825.325 -1208.363)" fill="#725734"/>
      <path id="Trazado_986472" data-name="Trazado 986472" d="M4605.058,2790.354c0-.172,0-.345-.006-.517l2.426-1.72A4.649,4.649,0,0,1,4605.058,2790.354Z" transform="translate(1388.488 -1149.385)" fill="#837138"/>
      <path id="Trazado_986473" data-name="Trazado 986473" d="M4489.077,2876.27l-2.365,1.238A2.3,2.3,0,0,1,4489.077,2876.27Z" transform="translate(1498.693 -1231.474)" fill="#967839"/>
      <path id="Trazado_986474" data-name="Trazado 986474" d="M5044.234,3292.489v6.082c-1.21-2.008-1.021-4.067-.495-6.138Z" transform="translate(980.335 -1619.034)" fill="#9a682c"/>
      <path id="Trazado_986475" data-name="Trazado 986475" d="M4942.65,3222.506a7.243,7.243,0,0,1,4.363-1.638l-4.158,1.861A.523.523,0,0,0,4942.65,3222.506Z" transform="translate(1074.095 -1552.388)" fill="#764e1d"/>
      <path id="Trazado_986476" data-name="Trazado 986476" d="M5043.407,3913.334a46.9,46.9,0,0,0,1.9,7.675c.181,1.031-.055,1.6-1.3,1.592-4.263-.042-8.533.259-12.779-.426-1.266-.2-2.144-.589-1.973-2.092a3.326,3.326,0,0,0-.148-.984c-.634-3.141-1.4-6.325,2.615-7.94l.935-.931a18.514,18.514,0,0,0,1.357-1.465,1.316,1.316,0,0,1,1.891-.388,21.8,21.8,0,0,0,4.66,1.767A3.067,3.067,0,0,1,5043.407,3913.334Z" transform="translate(994.057 -2192.424)" fill="#fec766"/>
      <path id="Trazado_986477" data-name="Trazado 986477" d="M4997.78,3991.561c.49-.369,1.143-1.155,1.383.072.409,2.1.616,4.23.914,6.4-1.109.05-1.382-1.078-2.242-1.059Q4997.808,3994.267,4997.78,3991.561Z" transform="translate(1022.755 -2269.557)" fill="#fec765"/>
      <path id="Trazado_986478" data-name="Trazado 986478" d="M3537.4,2268.2a70.91,70.91,0,0,0,6.083-7.383c.081,3.458.382,6.856,2.154,9.964.715,1.254.312,2.571-.177,3.83a.386.386,0,0,1-.6-.008c-.071-2.053-1.325-3.246-2.965-4.226C3540.456,2269.517,3538.722,2269.286,3537.4,2268.2Z" transform="translate(2382.752 -658.33)" fill="#264242"/>
      <path id="Trazado_986479" data-name="Trazado 986479" d="M3484.095,2435.55l.6.008a21.753,21.753,0,0,0-.916,4.706c-.064,1.317-.265,2.538-1.838,2.964-1,.27-.461.8-.173,1.339.8,1.5.976,2.97-.684,4.04-1.121.723-.268,1.323.181,2.187l-9.117-4.542c2.059.171,3.776,1.2,5.567,2.02,1.385.631,2.6.691,3.517-.677.956-1.434-.084-2.427-.981-3.294-1.716-1.659-4.066-2.236-6.322-3.405a4.478,4.478,0,0,1,2.621.536c.883.308,1.748.667,2.629.979,1.4.494,2.9.766,3.706-.784.8-1.532.03-2.8-1.294-3.8a22.556,22.556,0,0,0-8.13-4.187c3.8.149,6.9,2.021,9.911,4.112C3484.088,2437.171,3483.91,2436.3,3484.095,2435.55Z" transform="translate(2443.516 -819.277)" fill="#5f4d46"/>
      <path id="Trazado_986480" data-name="Trazado 986480" d="M3704.03,3413.86c2.146,5.155,4.09,10.375,4.6,16C3707.138,3424.516,3705.465,3419.226,3704.03,3413.86Z" transform="translate(2227.575 -1732.115)" fill="#60483b"/>
      <path id="Trazado_986481" data-name="Trazado 986481" d="M3948.886,4222.958a106.348,106.348,0,0,1-11.834.3c1.714-.763,3.517-.261,5.275-.333C3944.509,4222.836,3946.7,4222.938,3948.886,4222.958Z" transform="translate(2010.572 -2485.477)" fill="#e3e4e1"/>
      <path id="Trazado_986482" data-name="Trazado 986482" d="M5410.591,1172.339a24.216,24.216,0,0,1-3.05-4.484q-3.663-5.888-7.186-11.861c-.623-1.062-1.133-1.323-2.343-.8-3.477,1.492-3.83,1.367-5.658-1.972-.638-1.165-1.247-1.051-2.244-.629-5.059,2.143-10.137,4.239-15.218,6.328-.583.24-1.148.729-1.967.407.115-1,.986-1,1.571-1.248,5-2.091,10-4.2,15.053-6.175,1.389-.543,1.533-1.019.779-2.248-3.119-5.083-6.154-10.216-9.222-15.33-.207-.345-.441-.673-.64-1.022s-.535-.785-.151-1.078c.555-.424.837.18,1.053.542,1.647,2.762,3.268,5.541,4.893,8.316,2.4,4.106,4.843,8.191,7.185,12.331.9,1.59,1.955,1.944,3.638,1.251,7.06-2.9,14.15-5.733,21.229-8.589a1.037,1.037,0,0,1,.186-.074c.635-.119,1.451-1.1,1.835-.219.349.8-.862.8-1.4,1.036-2.277.98-4.591,1.874-6.894,2.793-3.484,1.39-6.952,2.824-10.467,4.133-1.1.411-1.093.746-.519,1.663q4.42,7.073,8.7,14.231A3.274,3.274,0,0,1,5410.591,1172.339Z" transform="translate(673.396 392.824)" fill="#3b89e1"/>
      <path id="Trazado_986483" data-name="Trazado 986483" d="M2699.031,1313.4a29.433,29.433,0,0,1,20.36,7.735c8.689,7.993,9.017,18.568.878,27.136a56.892,56.892,0,0,1-10.609,8.257,119.844,119.844,0,0,1-14.042,8.219c-1.717.807-3.5,1.368-5.424.619-2.447-.953-3.09-3.342-1.711-5.543a70.116,70.116,0,0,1,13.148-15.123c3.178-2.823,6.024-5.929,6.855-10.369.789-4.214-.938-7.245-5.036-8.548a14.523,14.523,0,0,0-10.217.458c-2.544,1.052-3.841,3.145-2.9,5.639,3.025,7.979-4.116,11.487-10.291,10.7-8.506-1.085-11.467-6.463-7.572-14.172,4.386-8.68,11.962-13.082,21.35-14.658.924-.155,1.857-.273,2.792-.339C2697.418,1313.357,2698.226,1313.4,2699.031,1313.4Z" transform="translate(3189.799 223.979)" fill="#82e0e0"/>
      <path id="Trazado_986484" data-name="Trazado 986484" d="M2939.754,2143.45a21.857,21.857,0,0,1-2.209-.01,8.306,8.306,0,0,1-6.262-12.467,7.05,7.05,0,0,1,4.934-3.143,20.081,20.081,0,0,1,5.192-.423c4.9.183,7.872,3.068,7.923,7.731.054,4.977-2.631,7.938-7.567,8.319-.666.052-1.34.007-2.01.007Z" transform="translate(2948.276 -534.072)" fill="#82e0e0"/>
      <path id="Trazado_986485" data-name="Trazado 986485" d="M4410.167,1966.852a3.607,3.607,0,0,1-3.923-3.429,4,4,0,1,1,7.994-.057C4414.243,1965.415,4412.587,1966.832,4410.167,1966.852Z" transform="translate(1573.632 -377.545)" fill="#3f3730"/>
      <path id="Trazado_986486" data-name="Trazado 986486" d="M4150.913,1963.738c-1.4.021-2.222-1-3.181-1.777a5.273,5.273,0,0,1-.375-3.14,2.8,2.8,0,0,1,2.035-2.486,3.033,3.033,0,0,1,3.216,1.138C4154.321,1959.564,4153.564,1962.381,4150.913,1963.738Z" transform="translate(1814.812 -374.688)" fill="#5d4941"/>
      <path id="Trazado_986487" data-name="Trazado 986487" d="M4475.646,2065.883c.079-1.705,2.168-3.2,4.27-3.057,1.7.117,2.711,1.147,2.592,2.651-.127,1.6-2.164,3.041-4.181,2.964C4476.618,2068.377,4475.578,2067.384,4475.646,2065.883Z" transform="translate(1509.001 -473.939)" fill="#f88056"/>
      <path id="Trazado_986488" data-name="Trazado 986488" d="M4230.813,1983.918a2.068,2.068,0,0,1-.017-2.281,44.993,44.993,0,0,0,5.023-11.733,16.735,16.735,0,0,1-2.558,9.736,13.434,13.434,0,0,1-.937,1.54c-1.257,1.585-.381,1.949,1.11,2.239.752.146,2.03-.631,2.2.943C4234.043,1985.714,4232.427,1985.565,4230.813,1983.918Z" transform="translate(1737.33 -387.412)" fill="#524138"/>
      <path id="Trazado_986489" data-name="Trazado 986489" d="M4420.522,1891.89a8.864,8.864,0,0,1,5.215,2.281,1.317,1.317,0,0,1,.482,1.432c-.287.684-.786.109-1.193.076a5.671,5.671,0,0,0-6.017-.907c-.334.143-.788.5-1.082.05-.3-.461.008-.946.36-1.245C4419,1892.975,4419.774,1892.448,4420.522,1891.89Z" transform="translate(1562.865 -314.761)" fill="#5d4a44"/>
      <path id="Trazado_986490" data-name="Trazado 986490" d="M4235.58,2173.79c1.563.633,3.124,1.3,4.823.443.567.2,1.538.02.836,1.214-.794,1.352-1.8,3.267-3.171,2.912C4236.246,2177.886,4235.711,2175.722,4235.58,2173.79Z" transform="translate(1732.563 -577.284)" fill="#f57f50"/>
      <path id="Trazado_986491" data-name="Trazado 986491" d="M4234.03,2233.707c2.937-.346,4.679-2.521,6.7-4.3a10.025,10.025,0,0,1-7.116,5.844,4.291,4.291,0,0,1-5.262-.729c-.592-.29-1.167-.621-1.78-.858-.562-.218-.558-.461-.167-.827A76.185,76.185,0,0,0,4234.03,2233.707Z" transform="translate(1741.369 -629.077)" fill="#714e40"/>
      <path id="Trazado_986492" data-name="Trazado 986492" d="M4140.6,1885.834c-2.972-2.1-5.354-1.674-7.644.6a4.455,4.455,0,0,1,4.141-4.3C4138.415,1881.972,4139.728,1883.154,4140.6,1885.834Z" transform="translate(1828.134 -305.657)" fill="#58453a"/>
      <path id="Trazado_986493" data-name="Trazado 986493" d="M4237.767,2268.822a10.086,10.086,0,0,1-7.629-.871C4232.814,2267.068,4235.478,2266.31,4237.767,2268.822Z" transform="translate(1737.631 -664.193)" fill="#e77953"/>
      <path id="Trazado_986494" data-name="Trazado 986494" d="M4258.46,2303.82a14.5,14.5,0,0,0,5.263.729c-.268,1.446-1.355,1.631-2.539,1.617A2.611,2.611,0,0,1,4258.46,2303.82Z" transform="translate(1711.256 -698.376)" fill="#ea7553"/>
      <path id="Trazado_986495" data-name="Trazado 986495" d="M4670.3,2000.258c-.1-.381-.076-.912-.322-1.118-1.833-1.535-.784-2.6.523-3.648a12.314,12.314,0,0,1,3.713-2.3c.365-.121.81-.324,1.009.2.135.356-.159.651-.431.821-.79.493-1.64.892-2.409,1.413-.947.642-1.96,1.252-.852,2.672a1.206,1.206,0,0,1-.6,1.961A.388.388,0,0,1,4670.3,2000.258Z" transform="translate(1328.94 -408.963)" fill="#5e3e32"/>
      <path id="Trazado_986496" data-name="Trazado 986496" d="M4653.192,2097.934l.634,0c-.511,1.287.186,2.8-.74,4.006a5.56,5.56,0,0,0-2.386-1.066c-.17-.944-.169-1.73,1.127-1.832C4652.454,2098.991,4652.814,2098.4,4653.192,2097.934Z" transform="translate(1346.05 -506.638)" fill="#deb79f"/>
      <path id="Trazado_986497" data-name="Trazado 986497" d="M4651.76,2136.188c1.169-.48,2.21-.675,2.386,1.066C4652.683,2138.394,4651.973,2137.849,4651.76,2136.188Z" transform="translate(1344.99 -541.956)" fill="#524439"/>
    </g>
  </g>
</svg>
