<svg xmlns="http://www.w3.org/2000/svg" xmlns:xlink="http://www.w3.org/1999/xlink" width="1150" height="341.55" viewBox="0 0 1150 341.55">
  <defs>
    <filter id="Trazado_985580" x="299.301" y="113.247" width="313.76" height="227.184" filterUnits="userSpaceOnUse">
      <feOffset dy="3" input="SourceAlpha"/>
      <feGaussianBlur stdDeviation="3" result="blur"/>
      <feFlood flood-opacity="0.161"/>
      <feComposite operator="in" in2="blur"/>
      <feComposite in="SourceGraphic"/>
    </filter>
    <filter id="Trazado_985584" x="469.001" y="196.37" width="270.115" height="144.058" filterUnits="userSpaceOnUse">
      <feOffset dy="3" input="SourceAlpha"/>
      <feGaussianBlur stdDeviation="3" result="blur-2"/>
      <feFlood flood-opacity="0.161"/>
      <feComposite operator="in" in2="blur-2"/>
      <feComposite in="SourceGraphic"/>
    </filter>
    <radialGradient id="radial-gradient" cx="0.5" cy="0.5" r="0.5" gradientUnits="objectBoundingBox">
      <stop offset="0.36" stop-color="#acc2d4"/>
      <stop offset="0.443" stop-color="#bbcddc"/>
      <stop offset="0.683" stop-color="#e0e8ef"/>
      <stop offset="0.878" stop-color="#f7f9fb"/>
      <stop offset="1" stop-color="#fff"/>
    </radialGradient>
    <radialGradient id="radial-gradient-3" cx="0.5" cy="0.5" r="0.5" gradientTransform="translate(0)" xlink:href="#radial-gradient"/>
    <filter id="Rectángulo_405997" x="0" y="189.59" width="266" height="68" filterUnits="userSpaceOnUse">
      <feOffset dy="3" input="SourceAlpha"/>
      <feGaussianBlur stdDeviation="3" result="blur-3"/>
      <feFlood flood-opacity="0.161"/>
      <feComposite operator="in" in2="blur-3"/>
      <feComposite in="SourceGraphic"/>
    </filter>
    <filter id="Rectángulo_407908" x="218" y="1.59" width="210" height="68" filterUnits="userSpaceOnUse">
      <feOffset dy="3" input="SourceAlpha"/>
      <feGaussianBlur stdDeviation="3" result="blur-4"/>
      <feFlood flood-opacity="0.161"/>
      <feComposite operator="in" in2="blur-4"/>
      <feComposite in="SourceGraphic"/>
    </filter>
    <filter id="Rectángulo_407909" x="940" y="187.59" width="210" height="68" filterUnits="userSpaceOnUse">
      <feOffset dy="3" input="SourceAlpha"/>
      <feGaussianBlur stdDeviation="3" result="blur-5"/>
      <feFlood flood-opacity="0.161"/>
      <feComposite operator="in" in2="blur-5"/>
      <feComposite in="SourceGraphic"/>
    </filter>
    <filter id="Rectángulo_407910" x="779" y="24.59" width="257" height="68" filterUnits="userSpaceOnUse">
      <feOffset dy="3" input="SourceAlpha"/>
      <feGaussianBlur stdDeviation="3" result="blur-6"/>
      <feFlood flood-opacity="0.161"/>
      <feComposite operator="in" in2="blur-6"/>
      <feComposite in="SourceGraphic"/>
    </filter>
  </defs>
  <g id="Grupo_1151699" data-name="Grupo 1151699" transform="translate(-225 -4310)">
    <g id="Grupo_1150968" data-name="Grupo 1150968" transform="translate(28 28.59)">
      <g id="Grupo_1150967" data-name="Grupo 1150967">
        <g id="Grupo_1150961" data-name="Grupo 1150961" transform="translate(-5525.986 -170)">
          <g id="Grupo_1150952" data-name="Grupo 1150952" transform="translate(6025.853 4478.646)">
            <g id="Grupo_1150948" data-name="Grupo 1150948" transform="translate(84.326 0)">
              <path id="Trazado_985576" data-name="Trazado 985576" d="M371.835,118.786a294.833,294.833,0,0,0-209.184,86.576L371.835,414.546Z" transform="translate(-154.969 -113.352)" fill="#fd7940"/>
              <path id="Trazado_985577" data-name="Trazado 985577" d="M381.469,430.636l-222.3-222.3,3.841-3.841a299.246,299.246,0,0,1,213.025-88.169h5.434V430.636Zm-206.9-222.267L370.6,404.4V127.24A288.261,288.261,0,0,0,174.574,208.369Z" transform="translate(-159.169 -116.323)" fill="#fff"/>
            </g>
            <g id="Grupo_1150949" data-name="Grupo 1150949" transform="translate(295.758)">
              <path id="Trazado_985578" data-name="Trazado 985578" d="M466.646,205.362a294.829,294.829,0,0,0-209.184-86.576v295.76Z" transform="translate(-252.028 -113.352)" fill="#fdc621"/>
              <path id="Trazado_985579" data-name="Trazado 985579" d="M255,430.636V116.323h5.434a299.242,299.242,0,0,1,213.025,88.169l3.841,3.841Zm10.868-303.4V404.4L461.9,208.367A288.278,288.278,0,0,0,265.867,127.24Z" transform="translate(-254.999 -116.323)" fill="#fff"/>
            </g>
            <g id="Grupo_1150950" data-name="Grupo 1150950" transform="translate(0 84.324)">
              <g transform="matrix(1, 0, 0, 1, -302.87, -111.56)" filter="url(#Trazado_985580)">
                <path id="Trazado_985580-2" data-name="Trazado 985580" d="M209.988,158.026A294.829,294.829,0,0,0,123.412,367.21h295.76Z" transform="translate(184.89 -38.78)" fill="#3b89e1"/>
              </g>
              <path id="Trazado_985581" data-name="Trazado 985581" d="M435.262,376.845H120.949v-5.434a299.262,299.262,0,0,1,88.167-213.025l3.843-3.843Zm-303.4-10.866H409.022L212.995,169.949A288.261,288.261,0,0,0,131.866,365.979Z" transform="translate(-120.949 -154.542)" fill="#fff"/>
            </g>
            <g id="Grupo_1150951" data-name="Grupo 1150951" transform="translate(288.073 84.324)">
              <path id="Trazado_985582" data-name="Trazado 985582" d="M553.222,367.209a294.833,294.833,0,0,0-86.576-209.184L257.462,367.209Z" transform="translate(-244.343 -150.34)" fill="#82e0e0"/>
              <path id="Trazado_985583" data-name="Trazado 985583" d="M565.829,376.845H251.516l222.3-222.3,3.843,3.843a299.262,299.262,0,0,1,88.167,213.025ZM277.756,365.979H554.912a288.263,288.263,0,0,0-81.127-196.03Z" transform="translate(-251.516 -154.542)" fill="#fff"/>
            </g>
          </g>
          <g transform="matrix(1, 0, 0, 1, 5722.99, 4451.41)" filter="url(#Trazado_985584)">
            <path id="Trazado_985584-2" data-name="Trazado 985584" d="M415.543,232.6a126.058,126.058,0,0,0-215.216,89.158H452.442A125.657,125.657,0,0,0,415.543,232.6Z" transform="translate(277.67 6.67)" fill="#fff"/>
          </g>
          <g id="Grupo_1150955" data-name="Grupo 1150955" transform="translate(5988.795 4611.933)">
            <circle id="Elipse_11656" data-name="Elipse 11656" cx="67.008" cy="67.008" r="67.008" fill="url(#radial-gradient)"/>
            <circle id="Elipse_11657" data-name="Elipse 11657" cx="52.045" cy="52.045" r="52.045" transform="translate(14.963 8.36)" fill="#fff"/>
            <circle id="Elipse_11658" data-name="Elipse 11658" cx="44.029" cy="44.029" r="44.029" transform="translate(22.979 16.375)" fill="#3b89e1"/>
            <g id="Grupo_1150954" data-name="Grupo 1150954" transform="translate(50.873 36.982)">
              <path id="Trazado_985585" data-name="Trazado 985585" d="M144.05,214.19H132.692a1.315,1.315,0,0,1-1.311-1.311h0a1.315,1.315,0,0,1,1.311-1.311H144.05a1.315,1.315,0,0,1,1.311,1.311h0A1.314,1.314,0,0,1,144.05,214.19Z" transform="translate(-122.181 -171.694)" fill="#fff"/>
              <path id="Trazado_985586" data-name="Trazado 985586" d="M140.829,216.16h-7.1a1.315,1.315,0,0,1-1.311-1.311h0a1.315,1.315,0,0,1,1.311-1.311h7.1a1.315,1.315,0,0,1,1.311,1.311h0A1.315,1.315,0,0,1,140.829,216.16Z" transform="translate(-120.926 -169.318)" fill="#fff"/>
              <g id="Grupo_1150953" data-name="Grupo 1150953">
                <path id="Trazado_985587" data-name="Trazado 985587" d="M149.382,231.352H137.314a.987.987,0,0,1-.988-.988,12.049,12.049,0,0,0-3.883-8.841,16.137,16.137,0,1,1,21.8,0,12.1,12.1,0,0,0-3.877,8.836A.986.986,0,0,1,149.382,231.352Zm-11.118-1.977h10.165a14.115,14.115,0,0,1,4.481-9.3,14.162,14.162,0,1,0-19.133-.007A14.036,14.036,0,0,1,138.265,229.375Z" transform="translate(-127.211 -193.496)" fill="#fff"/>
              </g>
              <path id="Trazado_985588" data-name="Trazado 985588" d="M136.106,198.8a8.4,8.4,0,0,0-3.261,11.387,1.142,1.142,0,0,1-.446,1.547,1.111,1.111,0,0,1-.541.13,1.13,1.13,0,0,1-.988-.578,10.64,10.64,0,0,1,4.137-14.46,1.13,1.13,0,1,1,1.1,1.975Z" transform="translate(-124.41 -189.664)" fill="#fff"/>
            </g>
          </g>
          <g id="Grupo_1150957" data-name="Grupo 1150957" transform="translate(6529.16 4611.933)">
            <circle id="Elipse_11659" data-name="Elipse 11659" cx="67.008" cy="67.008" r="67.008" fill="url(#radial-gradient)"/>
            <circle id="Elipse_11660" data-name="Elipse 11660" cx="52.045" cy="52.045" r="52.045" transform="translate(14.963 8.36)" fill="#fff"/>
            <circle id="Elipse_11661" data-name="Elipse 11661" cx="44.029" cy="44.029" r="44.029" transform="translate(22.979 16.375)" fill="#82e0e0"/>
            <g id="Grupo_1150956" data-name="Grupo 1150956" transform="translate(46.662 39.381)">
              <path id="Trazado_985589" data-name="Trazado 985589" d="M410.784,232.8l-11.6-11.594a16.2,16.2,0,0,0,3.733-10.273,16.351,16.351,0,1,0-16.353,16.351,16.175,16.175,0,0,0,8.073-2.217l11.936,11.938Zm-34.617-21.867a10.405,10.405,0,1,1,10.4,10.405A10.416,10.416,0,0,1,376.166,210.934Z" transform="translate(-370.218 -194.583)" fill="#fff"/>
            </g>
          </g>
          <g id="Grupo_1150958" data-name="Grupo 1150958" transform="translate(6145.555 4453.271)">
            <circle id="Elipse_11662" data-name="Elipse 11662" cx="67.008" cy="67.008" r="67.008" fill="url(#radial-gradient-3)"/>
            <circle id="Elipse_11663" data-name="Elipse 11663" cx="52.045" cy="52.045" r="52.045" transform="translate(14.963 8.358)" fill="#fff"/>
            <circle id="Elipse_11664" data-name="Elipse 11664" cx="44.029" cy="44.029" r="44.029" transform="translate(16.505 96.811) rotate(-80.782)" fill="#fd7940"/>
            <path id="Trazado_985590" data-name="Trazado 985590" d="M202.974,155.514l7.755-7.753,3.263,3.261,15.06-15.056,2.509,2.509c.033-.205,1.911-11.707,1.792-10.974l-10.972,1.794,2.829,2.826-11.217,11.215-3.263-3.261-8.276,8.276V123.575H197.7v36.7h36.7v-4.757h-31.42Z" transform="translate(-148.069 -82.2)" fill="#fff"/>
          </g>
          <g id="Grupo_1150960" data-name="Grupo 1150960" transform="translate(6365.834 4451.41)">
            <circle id="Elipse_11665" data-name="Elipse 11665" cx="67.008" cy="67.008" r="67.008" transform="translate(0 1.861)" fill="url(#radial-gradient-3)"/>
            <circle id="Elipse_11666" data-name="Elipse 11666" cx="52.045" cy="52.045" r="52.045" transform="translate(14.963 10.219)" fill="#fff"/>
            <circle id="Elipse_11667" data-name="Elipse 11667" cx="44.029" cy="44.029" r="44.029" transform="translate(4.735 62.266) rotate(-45)" fill="#fdc621"/>
            <g id="Grupo_1150959" data-name="Grupo 1150959" transform="translate(45.658 40.157)">
              <path id="Trazado_985591" data-name="Trazado 985591" d="M333.816,144.09c0-.53-.029-1.055-.079-1.573l5.013-2.584a22.024,22.024,0,0,0-1.677-5.123l-5.571.856a16.442,16.442,0,0,0-1.844-2.531l2.535-5.033a22.012,22.012,0,0,0-4.351-3.186l-4.007,3.969a16.351,16.351,0,0,0-2.987-.966l-.909-5.558a19.921,19.921,0,0,0-5.39,0l-.909,5.558a16.237,16.237,0,0,0-2.987.966l-4.007-3.969a21.818,21.818,0,0,0-4.351,3.186l2.535,5.033a16.538,16.538,0,0,0-1.844,2.531l-5.571-.856a21.822,21.822,0,0,0-1.677,5.123l5.011,2.584c-.046.518-.077,1.041-.077,1.573s.029,1.055.077,1.571l-5.011,2.584a21.823,21.823,0,0,0,1.677,5.123l5.571-.854a16.666,16.666,0,0,0,1.844,2.533l-2.535,5.033a21.894,21.894,0,0,0,4.351,3.184l4.007-3.969a16.352,16.352,0,0,0,2.987.966l.909,5.558a19.925,19.925,0,0,0,5.39,0l.909-5.558a16.241,16.241,0,0,0,2.987-.966l4.007,3.969a22.151,22.151,0,0,0,4.351-3.184l-2.535-5.033a16.826,16.826,0,0,0,1.844-2.533l5.571.854a21.925,21.925,0,0,0,1.677-5.123l-5.013-2.584C333.787,145.142,333.816,144.62,333.816,144.09Zm-16.572,10.383a10.383,10.383,0,1,1,10.381-10.383A10.385,10.385,0,0,1,317.244,154.473Z" transform="translate(-295.737 -122.179)" fill="#fff"/>
            </g>
          </g>
        </g>
        <path id="Trazado_986656" data-name="Trazado 986656" d="M-72.534,0V-15.51H-69.7V0Zm6.028,0V-8.338q0-.682-.044-1.386t-.132-1.386h2.662l.22,2.2h-.264A3.935,3.935,0,0,1-62.5-10.7a4.533,4.533,0,0,1,2.4-.627,3.765,3.765,0,0,1,2.948,1.1,5.022,5.022,0,0,1,.99,3.432V0h-2.75V-6.666a2.88,2.88,0,0,0-.517-1.925,1.965,1.965,0,0,0-1.551-.583,2.651,2.651,0,0,0-2.024.792,2.95,2.95,0,0,0-.748,2.112V0Zm18.018.22A4.006,4.006,0,0,1-51.48-.814a4.27,4.27,0,0,1-1.012-3.1V-9.042h-2.134V-11.11h2.134v-2.838l2.75-.7v3.542h2.97v2.068h-2.97v4.95a2.312,2.312,0,0,0,.44,1.606,1.591,1.591,0,0,0,1.21.462,3.343,3.343,0,0,0,.715-.066,4.1,4.1,0,0,0,.583-.176V-.088a3.875,3.875,0,0,1-.825.231A5.164,5.164,0,0,1-48.488.22Zm8.844,0a6.015,6.015,0,0,1-4.378-1.54,5.618,5.618,0,0,1-1.584-4.224,6.437,6.437,0,0,1,.682-3.036,5.017,5.017,0,0,1,1.9-2.024,5.469,5.469,0,0,1,2.849-.726,4.928,4.928,0,0,1,2.684.682,4.323,4.323,0,0,1,1.639,1.914,6.9,6.9,0,0,1,.561,2.882v.726h-8.1V-6.578h6.138l-.374.308a3.7,3.7,0,0,0-.649-2.354,2.264,2.264,0,0,0-1.881-.814,2.484,2.484,0,0,0-2.1.968,4.381,4.381,0,0,0-.737,2.706v.286a3.663,3.663,0,0,0,.891,2.7,3.407,3.407,0,0,0,2.519.891,6.011,6.011,0,0,0,1.771-.253,4.994,4.994,0,0,0,1.573-.825l.814,1.848a5.8,5.8,0,0,1-1.892.99A7.606,7.606,0,0,1-39.644.22ZM-32.956,0V-8.338q0-.682-.044-1.386t-.132-1.386h2.662l.22,2.2h-.264A3.935,3.935,0,0,1-28.952-10.7a4.533,4.533,0,0,1,2.4-.627,3.765,3.765,0,0,1,2.948,1.1,5.022,5.022,0,0,1,.99,3.432V0h-2.75V-6.666a2.88,2.88,0,0,0-.517-1.925,1.965,1.965,0,0,0-1.551-.583,2.651,2.651,0,0,0-2.024.792,2.95,2.95,0,0,0-.748,2.112V0ZM-15.73.22a9.586,9.586,0,0,1-2.629-.341,6.041,6.041,0,0,1-2.013-.957l.77-1.848a6.709,6.709,0,0,0,1.848.88,6.991,6.991,0,0,0,2.046.308,2.9,2.9,0,0,0,1.639-.374,1.171,1.171,0,0,0,.539-1.012,1.01,1.01,0,0,0-.341-.8,2.406,2.406,0,0,0-1.089-.451l-2.2-.418a4.193,4.193,0,0,1-2.145-1.056,2.67,2.67,0,0,1-.737-1.958,3.079,3.079,0,0,1,.561-1.826,3.708,3.708,0,0,1,1.606-1.243,6.154,6.154,0,0,1,2.453-.451A7.963,7.963,0,0,1-13.1-11a4.865,4.865,0,0,1,1.837.99l-.792,1.782a5.2,5.2,0,0,0-1.562-.858,5.178,5.178,0,0,0-1.716-.308,2.748,2.748,0,0,0-1.672.407,1.263,1.263,0,0,0-.528,1.045,1.089,1.089,0,0,0,.319.8,2.026,2.026,0,0,0,1,.473l2.2.418a4.423,4.423,0,0,1,2.233,1A2.546,2.546,0,0,1-11.022-3.3a3.064,3.064,0,0,1-.594,1.892A3.709,3.709,0,0,1-13.266-.2,6.67,6.67,0,0,1-15.73.22ZM-8.668,0V-11.11h2.75V0Zm-.154-13.2v-2.684h3.058V-13.2ZM1.386.22A4.741,4.741,0,0,1-1.177-.473,4.6,4.6,0,0,1-2.9-2.464a7.179,7.179,0,0,1-.616-3.1A7.106,7.106,0,0,1-2.9-8.657a4.614,4.614,0,0,1,1.727-1.98,4.741,4.741,0,0,1,2.563-.693,4.51,4.51,0,0,1,2.453.671A3.212,3.212,0,0,1,5.258-8.844H4.972v-7.348h2.75V0H5.016V-2.354H5.28A3.3,3.3,0,0,1,3.861-.473,4.442,4.442,0,0,1,1.386.22Zm.77-2.112A2.632,2.632,0,0,0,4.246-2.8a4.122,4.122,0,0,0,.792-2.761,4.077,4.077,0,0,0-.792-2.75,2.646,2.646,0,0,0-2.09-.9,2.679,2.679,0,0,0-2.1.9,4.038,4.038,0,0,0-.8,2.75A4.083,4.083,0,0,0,.055-2.8,2.664,2.664,0,0,0,2.156-1.892ZM15,.22a4.686,4.686,0,0,1-2.552-.693,4.628,4.628,0,0,1-1.716-1.991,7.179,7.179,0,0,1-.616-3.1,7.106,7.106,0,0,1,.616-3.091,4.639,4.639,0,0,1,1.716-1.98A4.686,4.686,0,0,1,15-11.33a4.442,4.442,0,0,1,2.475.693A3.3,3.3,0,0,1,18.9-8.778h-.242L18.9-11.11h2.64q-.066.682-.121,1.386t-.055,1.386V0H18.634l-.022-2.288h.264a3.247,3.247,0,0,1-1.43,1.826A4.471,4.471,0,0,1,15,.22Zm.77-2.112a2.632,2.632,0,0,0,2.09-.913,4.122,4.122,0,0,0,.792-2.761,4.077,4.077,0,0,0-.792-2.75,2.646,2.646,0,0,0-2.09-.9,2.646,2.646,0,0,0-2.09.9,4.077,4.077,0,0,0-.792,2.75A4.163,4.163,0,0,0,13.673-2.8,2.623,2.623,0,0,0,15.774-1.892ZM28.666.22A4.741,4.741,0,0,1,26.1-.473a4.6,4.6,0,0,1-1.727-1.991,7.179,7.179,0,0,1-.616-3.1,7.106,7.106,0,0,1,.616-3.091,4.614,4.614,0,0,1,1.727-1.98,4.741,4.741,0,0,1,2.563-.693,4.51,4.51,0,0,1,2.453.671,3.212,3.212,0,0,1,1.419,1.815h-.286v-7.348H35V0H32.3V-2.354h.264A3.3,3.3,0,0,1,31.141-.473,4.442,4.442,0,0,1,28.666.22Zm.77-2.112a2.632,2.632,0,0,0,2.09-.913,4.122,4.122,0,0,0,.792-2.761,4.077,4.077,0,0,0-.792-2.75,2.646,2.646,0,0,0-2.09-.9,2.679,2.679,0,0,0-2.1.9,4.038,4.038,0,0,0-.8,2.75,4.083,4.083,0,0,0,.8,2.761A2.664,2.664,0,0,0,29.436-1.892ZM48.334.22a4.741,4.741,0,0,1-2.563-.693,4.6,4.6,0,0,1-1.727-1.991,7.179,7.179,0,0,1-.616-3.1,7.106,7.106,0,0,1,.616-3.091,4.614,4.614,0,0,1,1.727-1.98,4.741,4.741,0,0,1,2.563-.693,4.51,4.51,0,0,1,2.453.671,3.212,3.212,0,0,1,1.419,1.815H51.92v-7.348h2.75V0H51.964V-2.354h.264A3.3,3.3,0,0,1,50.809-.473,4.442,4.442,0,0,1,48.334.22Zm.77-2.112a2.632,2.632,0,0,0,2.09-.913,4.122,4.122,0,0,0,.792-2.761,4.077,4.077,0,0,0-.792-2.75,2.646,2.646,0,0,0-2.09-.9,2.679,2.679,0,0,0-2.1.9,4.038,4.038,0,0,0-.8,2.75A4.083,4.083,0,0,0,47-2.8,2.664,2.664,0,0,0,49.1-1.892ZM63.03.22a6.015,6.015,0,0,1-4.378-1.54,5.618,5.618,0,0,1-1.584-4.224A6.437,6.437,0,0,1,57.75-8.58a5.017,5.017,0,0,1,1.9-2.024A5.469,5.469,0,0,1,62.5-11.33a4.928,4.928,0,0,1,2.684.682,4.323,4.323,0,0,1,1.639,1.914,6.9,6.9,0,0,1,.561,2.882v.726h-8.1V-6.578h6.138l-.374.308A3.7,3.7,0,0,0,64.4-8.624a2.264,2.264,0,0,0-1.881-.814,2.484,2.484,0,0,0-2.1.968,4.381,4.381,0,0,0-.737,2.706v.286a3.663,3.663,0,0,0,.891,2.7,3.407,3.407,0,0,0,2.519.891,6.011,6.011,0,0,0,1.771-.253A4.994,4.994,0,0,0,66.44-2.97l.814,1.848a5.8,5.8,0,0,1-1.892.99A7.606,7.606,0,0,1,63.03.22Zm-123.1,26.4a6.16,6.16,0,0,1-3-.7A4.877,4.877,0,0,1-65.065,23.9a6.483,6.483,0,0,1-.7-3.113,6.211,6.211,0,0,1,.715-3.08,4.875,4.875,0,0,1,1.991-1.958,6.256,6.256,0,0,1,2.992-.682,6.872,6.872,0,0,1,2.145.341,4.349,4.349,0,0,1,1.705.979l-.836,1.914a4.005,4.005,0,0,0-1.331-.825,4.107,4.107,0,0,0-1.441-.275,2.923,2.923,0,0,0-2.3.924,3.906,3.906,0,0,0-.825,2.684,3.993,3.993,0,0,0,.825,2.706,2.889,2.889,0,0,0,2.3.946A4.2,4.2,0,0,0-58.41,24.2a4.092,4.092,0,0,0,1.353-.814l.836,1.892a4.667,4.667,0,0,1-1.727.99A6.61,6.61,0,0,1-60.071,26.62Zm10.78,0a5.971,5.971,0,0,1-2.97-.7,4.879,4.879,0,0,1-1.947-2,6.452,6.452,0,0,1-.693-3.08,6.386,6.386,0,0,1,.693-3.069,4.9,4.9,0,0,1,1.947-1.991,5.971,5.971,0,0,1,2.97-.7,6.034,6.034,0,0,1,2.981.7,4.877,4.877,0,0,1,1.958,1.991,6.386,6.386,0,0,1,.693,3.069,6.452,6.452,0,0,1-.693,3.08,4.86,4.86,0,0,1-1.958,2A6.034,6.034,0,0,1-49.291,26.62Zm0-2.112a2.567,2.567,0,0,0,2.068-.913,4.2,4.2,0,0,0,.77-2.761,4.158,4.158,0,0,0-.77-2.75,2.58,2.58,0,0,0-2.068-.9,2.58,2.58,0,0,0-2.068.9,4.158,4.158,0,0,0-.77,2.75,4.2,4.2,0,0,0,.77,2.761A2.567,2.567,0,0,0-49.291,24.508Zm8.008,1.892V18.062q0-.682-.044-1.386t-.132-1.386H-38.8l.22,2.2h-.264a3.78,3.78,0,0,1,1.419-1.782,4.009,4.009,0,0,1,2.277-.638,3.646,3.646,0,0,1,2.189.627,3.362,3.362,0,0,1,1.221,1.947h-.352a3.875,3.875,0,0,1,1.518-1.881,4.311,4.311,0,0,1,2.42-.693,3.443,3.443,0,0,1,2.794,1.1,5.273,5.273,0,0,1,.924,3.432v6.8h-2.75V19.712a3.2,3.2,0,0,0-.44-1.9,1.65,1.65,0,0,0-1.408-.583,2.21,2.21,0,0,0-1.8.8,3.31,3.31,0,0,0-.66,2.167v6.2h-2.75V19.712a3.205,3.205,0,0,0-.44-1.9,1.65,1.65,0,0,0-1.408-.583,2.179,2.179,0,0,0-1.793.8,3.348,3.348,0,0,0-.649,2.167v6.2Zm19.778,4.752V18.062q0-.682-.044-1.386t-.132-1.386h2.662l.242,2.332h-.242a3.2,3.2,0,0,1,1.4-1.859,4.442,4.442,0,0,1,2.475-.693,4.726,4.726,0,0,1,2.574.693,4.639,4.639,0,0,1,1.716,1.98,7.106,7.106,0,0,1,.616,3.091,7.179,7.179,0,0,1-.616,3.1,4.628,4.628,0,0,1-1.716,1.991,4.726,4.726,0,0,1-2.574.693,4.4,4.4,0,0,1-2.442-.682A3.271,3.271,0,0,1-19,24.112h.242v7.04Zm5.588-6.644a2.656,2.656,0,0,0,2.112-.913,4.122,4.122,0,0,0,.792-2.761,4.077,4.077,0,0,0-.792-2.75,2.671,2.671,0,0,0-2.112-.9,2.646,2.646,0,0,0-2.09.9,4.077,4.077,0,0,0-.792,2.75,4.122,4.122,0,0,0,.792,2.761A2.632,2.632,0,0,0-15.917,24.508ZM-2.5,26.62a6.015,6.015,0,0,1-4.378-1.54,5.618,5.618,0,0,1-1.584-4.224,6.437,6.437,0,0,1,.682-3.036,5.017,5.017,0,0,1,1.9-2.024,5.469,5.469,0,0,1,2.849-.726,4.928,4.928,0,0,1,2.684.682A4.323,4.323,0,0,1,1.3,17.666a6.9,6.9,0,0,1,.561,2.882v.726h-8.1V19.822H-.1l-.374.308a3.7,3.7,0,0,0-.649-2.354A2.264,2.264,0,0,0-3,16.962a2.484,2.484,0,0,0-2.1.968,4.381,4.381,0,0,0-.737,2.706v.286a3.663,3.663,0,0,0,.891,2.7,3.407,3.407,0,0,0,2.519.891A6.011,6.011,0,0,0-.66,24.255,4.994,4.994,0,0,0,.913,23.43l.814,1.848a5.8,5.8,0,0,1-1.892.99A7.606,7.606,0,0,1-2.5,26.62Zm11.4,0a4.006,4.006,0,0,1-2.992-1.034,4.27,4.27,0,0,1-1.012-3.1V17.358H2.761V15.29H4.895V12.452l2.75-.7V15.29h2.97v2.068H7.645v4.95a2.312,2.312,0,0,0,.44,1.606,1.591,1.591,0,0,0,1.21.462,3.343,3.343,0,0,0,.715-.066,4.1,4.1,0,0,0,.583-.176v2.178a3.875,3.875,0,0,1-.825.231A5.164,5.164,0,0,1,8.9,26.62Zm8.844,0a6.015,6.015,0,0,1-4.378-1.54,5.618,5.618,0,0,1-1.584-4.224,6.437,6.437,0,0,1,.682-3.036,5.017,5.017,0,0,1,1.9-2.024,5.469,5.469,0,0,1,2.849-.726,4.928,4.928,0,0,1,2.684.682,4.323,4.323,0,0,1,1.639,1.914,6.9,6.9,0,0,1,.561,2.882v.726H14V19.822h6.138l-.374.308a3.7,3.7,0,0,0-.649-2.354,2.264,2.264,0,0,0-1.881-.814,2.484,2.484,0,0,0-2.1.968,4.381,4.381,0,0,0-.737,2.706v.286a3.663,3.663,0,0,0,.891,2.7,3.407,3.407,0,0,0,2.519.891,6.011,6.011,0,0,0,1.771-.253,4.994,4.994,0,0,0,1.573-.825l.814,1.848a5.8,5.8,0,0,1-1.892.99A7.606,7.606,0,0,1,17.743,26.62Zm6.688-.22V18.062q0-.682-.044-1.386t-.132-1.386h2.662l.22,2.2h-.264A3.935,3.935,0,0,1,28.435,15.7a4.533,4.533,0,0,1,2.4-.627,3.765,3.765,0,0,1,2.948,1.1,5.022,5.022,0,0,1,.99,3.432v6.8h-2.75V19.734a2.88,2.88,0,0,0-.517-1.925,1.965,1.965,0,0,0-1.551-.583,2.651,2.651,0,0,0-2.024.792,2.95,2.95,0,0,0-.748,2.112V26.4Zm18.37.22a6.16,6.16,0,0,1-3-.7A4.877,4.877,0,0,1,37.807,23.9a6.483,6.483,0,0,1-.7-3.113,6.211,6.211,0,0,1,.715-3.08,4.875,4.875,0,0,1,1.991-1.958A6.256,6.256,0,0,1,42.8,15.07a6.872,6.872,0,0,1,2.145.341,4.349,4.349,0,0,1,1.705.979L45.815,18.3a4.005,4.005,0,0,0-1.331-.825,4.107,4.107,0,0,0-1.441-.275,2.923,2.923,0,0,0-2.3.924,3.906,3.906,0,0,0-.825,2.684,3.993,3.993,0,0,0,.825,2.706,2.889,2.889,0,0,0,2.3.946,4.2,4.2,0,0,0,1.419-.264,4.092,4.092,0,0,0,1.353-.814l.836,1.892a4.667,4.667,0,0,1-1.727.99A6.61,6.61,0,0,1,42.8,26.62Zm5.984-.22V15.29h2.75V26.4Zm-.154-13.2V10.516h3.058V13.2ZM58.817,26.62a4.686,4.686,0,0,1-2.552-.693,4.628,4.628,0,0,1-1.716-1.991,7.179,7.179,0,0,1-.616-3.1,7.106,7.106,0,0,1,.616-3.091,4.515,4.515,0,0,1,4.268-2.673,4.442,4.442,0,0,1,2.475.693,3.3,3.3,0,0,1,1.419,1.859h-.242l.242-2.332h2.64q-.066.682-.121,1.386t-.055,1.386V26.4H62.447l-.022-2.288h.264a3.247,3.247,0,0,1-1.43,1.826A4.471,4.471,0,0,1,58.817,26.62Zm.77-2.112a2.632,2.632,0,0,0,2.09-.913,4.122,4.122,0,0,0,.792-2.761,4.077,4.077,0,0,0-.792-2.75,2.872,2.872,0,0,0-4.18,0,4.077,4.077,0,0,0-.792,2.75,4.163,4.163,0,0,0,.781,2.761A2.623,2.623,0,0,0,59.587,24.508Z" transform="translate(800 4553.935)" fill="#212429" stroke="rgba(0,0,0,0)" stroke-width="1"/>
      </g>
      <g transform="matrix(1, 0, 0, 1, 197, 4281.41)" filter="url(#Rectángulo_405997)">
        <rect id="Rectángulo_405997-2" data-name="Rectángulo 405997" width="248" height="50" rx="15" transform="translate(9 195.59)" fill="#fff"/>
      </g>
      <path id="Contenido" d="M1.584,18V5.31H6.75a4.474,4.474,0,0,1,3.078.963,3.4,3.4,0,0,1,1.08,2.673A3.409,3.409,0,0,1,9.828,11.6a4.42,4.42,0,0,1-3.078.981H3.078V18Zm1.494-6.66H6.606a3.074,3.074,0,0,0,2.1-.63,2.234,2.234,0,0,0,.711-1.764A2.256,2.256,0,0,0,8.7,7.164a3.074,3.074,0,0,0-2.1-.63H3.078Zm13.376,6.822a4.371,4.371,0,0,1-2.259-.567,3.776,3.776,0,0,1-1.485-1.62,5.554,5.554,0,0,1-.522-2.493,5.541,5.541,0,0,1,.522-2.5,3.787,3.787,0,0,1,1.485-1.611A4.371,4.371,0,0,1,16.454,8.8a4.407,4.407,0,0,1,2.277.567,3.844,3.844,0,0,1,1.494,1.611,5.461,5.461,0,0,1,.531,2.5,5.475,5.475,0,0,1-.531,2.493,3.833,3.833,0,0,1-1.494,1.62A4.407,4.407,0,0,1,16.454,18.162Zm0-1.188a2.551,2.551,0,0,0,2.052-.891,3.922,3.922,0,0,0,.756-2.6,3.92,3.92,0,0,0-.765-2.619,2.557,2.557,0,0,0-2.043-.891,2.531,2.531,0,0,0-2.034.891,3.953,3.953,0,0,0-.756,2.619,3.922,3.922,0,0,0,.756,2.6A2.531,2.531,0,0,0,16.454,16.974Zm9.992,1.188a3.834,3.834,0,0,1-2.088-.567,3.747,3.747,0,0,1-1.4-1.611,5.8,5.8,0,0,1-.495-2.5,5.844,5.844,0,0,1,.495-2.52,3.688,3.688,0,0,1,1.4-1.6A3.88,3.88,0,0,1,26.446,8.8a3.643,3.643,0,0,1,2.115.612,2.962,2.962,0,0,1,1.2,1.656h-.216V4.752H31V18H29.56V15.84h.2a2.911,2.911,0,0,1-1.188,1.7A3.647,3.647,0,0,1,26.446,18.162Zm.306-1.188a2.584,2.584,0,0,0,2.052-.891,3.859,3.859,0,0,0,.774-2.6,3.889,3.889,0,0,0-.774-2.619,2.584,2.584,0,0,0-2.052-.891,2.557,2.557,0,0,0-2.043.891,3.92,3.92,0,0,0-.765,2.619,3.89,3.89,0,0,0,.765,2.6A2.557,2.557,0,0,0,26.752,16.974Zm11.09,1.188a4.505,4.505,0,0,1-3.348-1.233A4.654,4.654,0,0,1,33.269,13.5a5.356,5.356,0,0,1,.54-2.475,3.992,3.992,0,0,1,1.512-1.638A4.243,4.243,0,0,1,37.553,8.8a3.907,3.907,0,0,1,2.088.522,3.374,3.374,0,0,1,1.3,1.485,5.335,5.335,0,0,1,.45,2.277v.54h-7v-.918h6.048l-.306.234a3.512,3.512,0,0,0-.648-2.25,2.319,2.319,0,0,0-1.926-.81,2.546,2.546,0,0,0-2.106.945,3.963,3.963,0,0,0-.756,2.547v.162a3.569,3.569,0,0,0,.837,2.565,3.1,3.1,0,0,0,2.349.873,4.672,4.672,0,0,0,1.521-.243,4.135,4.135,0,0,0,1.359-.8l.5,1.026a4.005,4.005,0,0,1-1.5.891A5.813,5.813,0,0,1,37.841,18.162ZM43.585,18V11.142q0-.54-.027-1.1t-.081-1.08h1.4l.18,2.2-.252.018a3,3,0,0,1,.63-1.332A2.881,2.881,0,0,1,46.5,9.063,3.225,3.225,0,0,1,47.779,8.8q.27,0,.477.018a1.351,1.351,0,0,1,.387.09l-.018,1.3a2.536,2.536,0,0,0-.495-.117,4.347,4.347,0,0,0-.513-.027,2.481,2.481,0,0,0-1.377.378,2.448,2.448,0,0,0-.882.972,2.78,2.78,0,0,0-.3,1.26V18Zm14.692.162a3.834,3.834,0,0,1-2.088-.567,3.747,3.747,0,0,1-1.4-1.611,5.8,5.8,0,0,1-.5-2.5,5.844,5.844,0,0,1,.5-2.52,3.688,3.688,0,0,1,1.4-1.6A3.88,3.88,0,0,1,58.277,8.8a3.643,3.643,0,0,1,2.115.612,2.962,2.962,0,0,1,1.2,1.656h-.216V4.752h1.458V18h-1.44V15.84h.2a2.911,2.911,0,0,1-1.188,1.7A3.647,3.647,0,0,1,58.277,18.162Zm.306-1.188a2.584,2.584,0,0,0,2.052-.891,3.859,3.859,0,0,0,.774-2.6,3.889,3.889,0,0,0-.774-2.619,2.584,2.584,0,0,0-2.052-.891,2.557,2.557,0,0,0-2.043.891,3.92,3.92,0,0,0-.765,2.619,3.89,3.89,0,0,0,.765,2.6A2.557,2.557,0,0,0,58.583,16.974Zm11.09,1.188a4.505,4.505,0,0,1-3.348-1.233A4.654,4.654,0,0,1,65.1,13.5a5.356,5.356,0,0,1,.54-2.475,3.992,3.992,0,0,1,1.512-1.638A4.243,4.243,0,0,1,69.385,8.8a3.907,3.907,0,0,1,2.088.522,3.374,3.374,0,0,1,1.3,1.485,5.334,5.334,0,0,1,.45,2.277v.54h-7v-.918h6.048l-.306.234a3.512,3.512,0,0,0-.648-2.25,2.319,2.319,0,0,0-1.926-.81,2.546,2.546,0,0,0-2.106.945,3.963,3.963,0,0,0-.756,2.547v.162A3.569,3.569,0,0,0,67.36,16.1a3.1,3.1,0,0,0,2.349.873,4.672,4.672,0,0,0,1.521-.243,4.135,4.135,0,0,0,1.359-.8l.5,1.026a4.005,4.005,0,0,1-1.5.891A5.813,5.813,0,0,1,69.673,18.162ZM80.152,18V4.752H81.61V18Zm7.994.162a4.371,4.371,0,0,1-2.259-.567,3.776,3.776,0,0,1-1.485-1.62,5.554,5.554,0,0,1-.522-2.493,5.541,5.541,0,0,1,.522-2.5,3.787,3.787,0,0,1,1.485-1.611,4.819,4.819,0,0,1,4.536,0,3.844,3.844,0,0,1,1.494,1.611,5.461,5.461,0,0,1,.531,2.5,5.475,5.475,0,0,1-.531,2.493,3.833,3.833,0,0,1-1.494,1.62A4.407,4.407,0,0,1,88.146,18.162Zm0-1.188a2.551,2.551,0,0,0,2.052-.891,3.922,3.922,0,0,0,.756-2.6,3.92,3.92,0,0,0-.765-2.619,2.557,2.557,0,0,0-2.043-.891,2.531,2.531,0,0,0-2.034.891,3.953,3.953,0,0,0-.756,2.619,3.922,3.922,0,0,0,.756,2.6A2.531,2.531,0,0,0,88.146,16.974Zm9.578,1.188a6.631,6.631,0,0,1-2.016-.3,4.246,4.246,0,0,1-1.548-.837l.5-1.026a4.637,4.637,0,0,0,1.449.774,5.284,5.284,0,0,0,1.629.252,2.826,2.826,0,0,0,1.629-.387,1.239,1.239,0,0,0,.549-1.071,1.07,1.07,0,0,0-.351-.837,2.581,2.581,0,0,0-1.143-.495L96.752,13.9a3.3,3.3,0,0,1-1.728-.855,2.138,2.138,0,0,1-.576-1.539,2.4,2.4,0,0,1,.414-1.395,2.784,2.784,0,0,1,1.206-.954A4.543,4.543,0,0,1,97.922,8.8a5.428,5.428,0,0,1,1.827.3,3.677,3.677,0,0,1,1.395.855l-.522,1.008a3.566,3.566,0,0,0-1.233-.783,4.028,4.028,0,0,0-1.431-.261,2.524,2.524,0,0,0-1.593.423,1.348,1.348,0,0,0-.531,1.107,1.157,1.157,0,0,0,.333.855,2.113,2.113,0,0,0,1.035.5l1.674.342a3.841,3.841,0,0,1,1.827.837,1.988,1.988,0,0,1,.6,1.521,2.3,2.3,0,0,1-.45,1.413,2.849,2.849,0,0,1-1.251.927A5,5,0,0,1,97.724,18.162Zm14.422,0a4.486,4.486,0,0,1-2.313-.576,3.845,3.845,0,0,1-1.512-1.638,5.575,5.575,0,0,1-.531-2.52,5.372,5.372,0,0,1,.54-2.511,3.708,3.708,0,0,1,1.521-1.575,4.685,4.685,0,0,1,2.295-.54,4.772,4.772,0,0,1,1.683.306,3.621,3.621,0,0,1,1.359.864l-.522,1.044a3.585,3.585,0,0,0-1.179-.774,3.4,3.4,0,0,0-1.251-.252,2.744,2.744,0,0,0-2.178.882,3.792,3.792,0,0,0-.774,2.574,3.908,3.908,0,0,0,.774,2.592,2.692,2.692,0,0,0,2.178.918,3.579,3.579,0,0,0,1.233-.234,3.41,3.41,0,0,0,1.2-.774l.522,1.026a3.665,3.665,0,0,1-1.386.882A4.749,4.749,0,0,1,112.145,18.162Zm8.642,0a4.371,4.371,0,0,1-2.259-.567,3.776,3.776,0,0,1-1.485-1.62,5.554,5.554,0,0,1-.522-2.493,5.541,5.541,0,0,1,.522-2.5,3.787,3.787,0,0,1,1.485-1.611,4.819,4.819,0,0,1,4.536,0,3.844,3.844,0,0,1,1.494,1.611,5.461,5.461,0,0,1,.531,2.5,5.475,5.475,0,0,1-.531,2.493,3.833,3.833,0,0,1-1.494,1.62A4.407,4.407,0,0,1,120.787,18.162Zm0-1.188a2.551,2.551,0,0,0,2.052-.891,3.922,3.922,0,0,0,.756-2.6,3.92,3.92,0,0,0-.765-2.619,2.557,2.557,0,0,0-2.043-.891,2.531,2.531,0,0,0-2.034.891A3.953,3.953,0,0,0,118,13.482a3.922,3.922,0,0,0,.756,2.6A2.531,2.531,0,0,0,120.787,16.974ZM127.359,18V11.052q0-.5-.045-1.035t-.1-1.053h1.4l.18,1.98h-.216A3.034,3.034,0,0,1,131.625,8.8a2.968,2.968,0,0,1,1.845.54,2.76,2.76,0,0,1,.963,1.674h-.27a3.1,3.1,0,0,1,1.206-1.62,3.471,3.471,0,0,1,2.016-.594,2.846,2.846,0,0,1,2.25.855,3.993,3.993,0,0,1,.756,2.691V18h-1.458V12.438a3.071,3.071,0,0,0-.45-1.863,1.7,1.7,0,0,0-1.44-.585,2.214,2.214,0,0,0-1.791.783,3.157,3.157,0,0,0-.657,2.1V18h-1.458V12.438a3.071,3.071,0,0,0-.45-1.863,1.7,1.7,0,0,0-1.44-.585,2.188,2.188,0,0,0-1.782.783,3.186,3.186,0,0,0-.648,2.1V18Zm15.806,3.888V11.052q0-.5-.045-1.035t-.1-1.053h1.4l.2,2.142h-.216a2.933,2.933,0,0,1,1.17-1.683,3.564,3.564,0,0,1,2.106-.621,3.9,3.9,0,0,1,2.115.558,3.766,3.766,0,0,1,1.4,1.6,5.754,5.754,0,0,1,.5,2.52,5.8,5.8,0,0,1-.495,2.5,3.747,3.747,0,0,1-1.4,1.611,3.9,3.9,0,0,1-2.124.567,3.571,3.571,0,0,1-2.088-.612,2.894,2.894,0,0,1-1.17-1.674h.2v6.012Zm4.23-4.914a2.577,2.577,0,0,0,2.061-.891,3.89,3.89,0,0,0,.765-2.6,3.92,3.92,0,0,0-.765-2.619,2.808,2.808,0,0,0-4.1,0,3.92,3.92,0,0,0-.765,2.619,3.89,3.89,0,0,0,.765,2.6A2.557,2.557,0,0,0,147.395,16.974ZM153.931,18V11.142q0-.54-.027-1.1t-.081-1.08h1.4l.18,2.2-.252.018a3,3,0,0,1,.63-1.332,2.881,2.881,0,0,1,1.062-.783,3.225,3.225,0,0,1,1.278-.261q.27,0,.477.018a1.352,1.352,0,0,1,.387.09l-.018,1.3a2.536,2.536,0,0,0-.495-.117,4.347,4.347,0,0,0-.513-.027,2.481,2.481,0,0,0-1.377.378,2.448,2.448,0,0,0-.882.972,2.78,2.78,0,0,0-.3,1.26V18Zm9.92.162a3.867,3.867,0,0,1-2.106-.567,3.747,3.747,0,0,1-1.4-1.611,5.8,5.8,0,0,1-.495-2.5,5.844,5.844,0,0,1,.495-2.52,3.689,3.689,0,0,1,1.4-1.6A3.914,3.914,0,0,1,163.85,8.8a3.605,3.605,0,0,1,2.115.621,2.92,2.92,0,0,1,1.179,1.683h-.216l.2-2.142h1.4q-.054.522-.1,1.053t-.045,1.035V18h-1.458V15.876h.2a2.869,2.869,0,0,1-1.188,1.674A3.624,3.624,0,0,1,163.85,18.162Zm.288-1.188a2.551,2.551,0,0,0,2.052-.891,3.922,3.922,0,0,0,.756-2.6,3.953,3.953,0,0,0-.756-2.619,2.8,2.8,0,0,0-4.1,0,3.92,3.92,0,0,0-.765,2.619,3.89,3.89,0,0,0,.765,2.6A2.557,2.557,0,0,0,164.138,16.974Zm10.5,1.188a3.834,3.834,0,0,1-2.088-.567,3.747,3.747,0,0,1-1.4-1.611,5.8,5.8,0,0,1-.495-2.5,5.844,5.844,0,0,1,.495-2.52,3.689,3.689,0,0,1,1.4-1.6,3.88,3.88,0,0,1,2.088-.558,3.643,3.643,0,0,1,2.115.612,2.962,2.962,0,0,1,1.2,1.656h-.216V4.752h1.458V18h-1.44V15.84h.2a2.911,2.911,0,0,1-1.188,1.7A3.647,3.647,0,0,1,174.634,18.162Zm.306-1.188a2.584,2.584,0,0,0,2.052-.891,3.859,3.859,0,0,0,.774-2.6,3.889,3.889,0,0,0-.774-2.619,2.584,2.584,0,0,0-2.052-.891,2.557,2.557,0,0,0-2.043.891,3.92,3.92,0,0,0-.765,2.619,3.89,3.89,0,0,0,.765,2.6A2.557,2.557,0,0,0,174.94,16.974Zm10.784,1.188a4.371,4.371,0,0,1-2.259-.567,3.776,3.776,0,0,1-1.485-1.62,5.554,5.554,0,0,1-.522-2.493,5.541,5.541,0,0,1,.522-2.5,3.787,3.787,0,0,1,1.485-1.611,4.819,4.819,0,0,1,4.536,0,3.844,3.844,0,0,1,1.494,1.611,5.461,5.461,0,0,1,.531,2.5,5.475,5.475,0,0,1-.531,2.493A3.833,3.833,0,0,1,188,17.595,4.407,4.407,0,0,1,185.724,18.162Zm0-1.188a2.551,2.551,0,0,0,2.052-.891,3.922,3.922,0,0,0,.756-2.6,3.92,3.92,0,0,0-.765-2.619,2.557,2.557,0,0,0-2.043-.891,2.531,2.531,0,0,0-2.034.891,3.953,3.953,0,0,0-.756,2.619,3.922,3.922,0,0,0,.756,2.6A2.531,2.531,0,0,0,185.724,16.974ZM192.26,18V11.142q0-.54-.027-1.1t-.081-1.08h1.4l.18,2.2-.252.018a3,3,0,0,1,.63-1.332,2.881,2.881,0,0,1,1.062-.783,3.225,3.225,0,0,1,1.278-.261q.27,0,.477.018a1.352,1.352,0,0,1,.387.09l-.018,1.3a2.536,2.536,0,0,0-.495-.117,4.347,4.347,0,0,0-.513-.027,2.481,2.481,0,0,0-1.377.378,2.448,2.448,0,0,0-.882.972,2.78,2.78,0,0,0-.3,1.26V18Zm10.478.162a4.505,4.505,0,0,1-3.348-1.233,4.655,4.655,0,0,1-1.224-3.429,5.356,5.356,0,0,1,.54-2.475,3.992,3.992,0,0,1,1.512-1.638A4.243,4.243,0,0,1,202.45,8.8a3.906,3.906,0,0,1,2.088.522,3.374,3.374,0,0,1,1.3,1.485,5.334,5.334,0,0,1,.45,2.277v.54h-7v-.918h6.048l-.306.234a3.512,3.512,0,0,0-.648-2.25,2.319,2.319,0,0,0-1.926-.81,2.546,2.546,0,0,0-2.106.945,3.963,3.963,0,0,0-.756,2.547v.162a3.569,3.569,0,0,0,.837,2.565,3.1,3.1,0,0,0,2.349.873,4.672,4.672,0,0,0,1.521-.243,4.135,4.135,0,0,0,1.359-.8l.5,1.026a4.006,4.006,0,0,1-1.5.891A5.813,5.813,0,0,1,202.738,18.162Zm8.786,0a6.631,6.631,0,0,1-2.016-.3,4.246,4.246,0,0,1-1.548-.837l.5-1.026a4.637,4.637,0,0,0,1.449.774,5.284,5.284,0,0,0,1.629.252,2.826,2.826,0,0,0,1.629-.387,1.239,1.239,0,0,0,.549-1.071,1.07,1.07,0,0,0-.351-.837,2.581,2.581,0,0,0-1.143-.495l-1.674-.342a3.3,3.3,0,0,1-1.728-.855,2.137,2.137,0,0,1-.576-1.539,2.4,2.4,0,0,1,.414-1.395,2.784,2.784,0,0,1,1.206-.954,4.543,4.543,0,0,1,1.854-.351,5.428,5.428,0,0,1,1.827.3,3.677,3.677,0,0,1,1.395.855l-.522,1.008a3.566,3.566,0,0,0-1.233-.783,4.028,4.028,0,0,0-1.431-.261,2.524,2.524,0,0,0-1.593.423,1.348,1.348,0,0,0-.531,1.107,1.157,1.157,0,0,0,.333.855,2.113,2.113,0,0,0,1.035.5l1.674.342a3.841,3.841,0,0,1,1.827.837,1.988,1.988,0,0,1,.6,1.521,2.3,2.3,0,0,1-.45,1.413,2.849,2.849,0,0,1-1.251.927A5,5,0,0,1,211.523,18.162Z" transform="translate(223 4490)" fill="#212429"/>
      <g id="Grupo_1150964" data-name="Grupo 1150964">
        <g transform="matrix(1, 0, 0, 1, 197, 4281.41)" filter="url(#Rectángulo_407908)">
          <rect id="Rectángulo_407908-2" data-name="Rectángulo 407908" width="192" height="50" rx="15" transform="translate(227 7.59)" fill="#fff"/>
        </g>
        <path id="Contenido-2" data-name="Contenido" d="M1.584,18V5.31h1.17l8.136,10.8h-.414V5.31h1.386V18H10.71L2.574,7.2h.4V18Zm16.472.162a3.144,3.144,0,0,1-2.421-.882,3.855,3.855,0,0,1-.819-2.7V8.964h1.458v5.58a2.757,2.757,0,0,0,.5,1.827,1.957,1.957,0,0,0,1.566.585,2.482,2.482,0,0,0,1.908-.774,2.918,2.918,0,0,0,.72-2.07V8.964H22.43V18H21.008V15.966h.234a3.243,3.243,0,0,1-1.215,1.62A3.391,3.391,0,0,1,18.056,18.162Zm11.216,0a4.505,4.505,0,0,1-3.348-1.233A4.654,4.654,0,0,1,24.7,13.5a5.356,5.356,0,0,1,.54-2.475,3.992,3.992,0,0,1,1.512-1.638A4.243,4.243,0,0,1,28.984,8.8a3.907,3.907,0,0,1,2.088.522,3.374,3.374,0,0,1,1.3,1.485,5.335,5.335,0,0,1,.45,2.277v.54h-7v-.918h6.048l-.306.234a3.512,3.512,0,0,0-.648-2.25,2.319,2.319,0,0,0-1.926-.81,2.546,2.546,0,0,0-2.106.945,3.963,3.963,0,0,0-.756,2.547v.162a3.569,3.569,0,0,0,.837,2.565,3.1,3.1,0,0,0,2.349.873,4.672,4.672,0,0,0,1.521-.243,4.135,4.135,0,0,0,1.359-.8l.5,1.026a4.005,4.005,0,0,1-1.5.891A5.813,5.813,0,0,1,29.272,18.162ZM37.607,18l-3.87-9.036h1.584l3.24,7.956h-.486l3.276-7.956h1.512L38.993,18Zm10.478.162a4.371,4.371,0,0,1-2.259-.567,3.776,3.776,0,0,1-1.485-1.62,5.554,5.554,0,0,1-.522-2.493,5.541,5.541,0,0,1,.522-2.5,3.787,3.787,0,0,1,1.485-1.611,4.819,4.819,0,0,1,4.536,0,3.844,3.844,0,0,1,1.494,1.611,5.461,5.461,0,0,1,.531,2.5,5.475,5.475,0,0,1-.531,2.493,3.833,3.833,0,0,1-1.494,1.62A4.407,4.407,0,0,1,48.085,18.162Zm0-1.188a2.551,2.551,0,0,0,2.052-.891,3.922,3.922,0,0,0,.756-2.6,3.92,3.92,0,0,0-.765-2.619,2.557,2.557,0,0,0-2.043-.891,2.531,2.531,0,0,0-2.034.891,3.953,3.953,0,0,0-.756,2.619,3.922,3.922,0,0,0,.756,2.6A2.531,2.531,0,0,0,48.085,16.974Zm9.578,1.188a6.631,6.631,0,0,1-2.016-.3,4.246,4.246,0,0,1-1.548-.837L54.6,16a4.637,4.637,0,0,0,1.449.774,5.284,5.284,0,0,0,1.629.252,2.826,2.826,0,0,0,1.629-.387,1.239,1.239,0,0,0,.549-1.071,1.07,1.07,0,0,0-.351-.837,2.581,2.581,0,0,0-1.143-.495L56.691,13.9a3.3,3.3,0,0,1-1.728-.855,2.137,2.137,0,0,1-.576-1.539,2.4,2.4,0,0,1,.414-1.395,2.784,2.784,0,0,1,1.206-.954A4.543,4.543,0,0,1,57.861,8.8a5.428,5.428,0,0,1,1.827.3,3.677,3.677,0,0,1,1.4.855l-.522,1.008a3.566,3.566,0,0,0-1.233-.783A4.028,4.028,0,0,0,57.9,9.918a2.524,2.524,0,0,0-1.593.423,1.348,1.348,0,0,0-.531,1.107,1.157,1.157,0,0,0,.333.855,2.113,2.113,0,0,0,1.035.5l1.674.342a3.841,3.841,0,0,1,1.827.837,1.988,1.988,0,0,1,.6,1.521,2.3,2.3,0,0,1-.45,1.413,2.849,2.849,0,0,1-1.251.927A5,5,0,0,1,57.663,18.162Zm10.624,3.726V11.052q0-.5-.045-1.035t-.1-1.053h1.4l.2,2.142h-.216A2.933,2.933,0,0,1,70.7,9.423,3.564,3.564,0,0,1,72.8,8.8a3.9,3.9,0,0,1,2.115.558,3.766,3.766,0,0,1,1.395,1.6,5.754,5.754,0,0,1,.5,2.52,5.8,5.8,0,0,1-.5,2.5,3.747,3.747,0,0,1-1.395,1.611,3.9,3.9,0,0,1-2.124.567,3.571,3.571,0,0,1-2.088-.612,2.894,2.894,0,0,1-1.17-1.674h.2v6.012Zm4.23-4.914a2.577,2.577,0,0,0,2.061-.891,3.89,3.89,0,0,0,.765-2.6,3.92,3.92,0,0,0-.765-2.619,2.808,2.808,0,0,0-4.1,0,3.92,3.92,0,0,0-.765,2.619,3.89,3.89,0,0,0,.765,2.6A2.557,2.557,0,0,0,72.517,16.974ZM79.052,18V11.142q0-.54-.027-1.1t-.081-1.08h1.4l.18,2.2-.252.018a3,3,0,0,1,.63-1.332,2.881,2.881,0,0,1,1.062-.783A3.225,3.225,0,0,1,83.246,8.8q.27,0,.477.018a1.351,1.351,0,0,1,.387.09l-.018,1.3a2.537,2.537,0,0,0-.5-.117,4.347,4.347,0,0,0-.513-.027,2.481,2.481,0,0,0-1.377.378,2.448,2.448,0,0,0-.882.972,2.78,2.78,0,0,0-.3,1.26V18Zm10.172.162a4.371,4.371,0,0,1-2.259-.567,3.776,3.776,0,0,1-1.485-1.62,5.554,5.554,0,0,1-.522-2.493,5.541,5.541,0,0,1,.522-2.5,3.787,3.787,0,0,1,1.485-1.611,4.819,4.819,0,0,1,4.536,0A3.844,3.844,0,0,1,93,10.98a5.461,5.461,0,0,1,.531,2.5A5.475,5.475,0,0,1,93,15.975a3.833,3.833,0,0,1-1.494,1.62A4.407,4.407,0,0,1,89.224,18.162Zm0-1.188a2.551,2.551,0,0,0,2.052-.891,3.922,3.922,0,0,0,.756-2.6,3.92,3.92,0,0,0-.765-2.619,2.557,2.557,0,0,0-2.043-.891,2.531,2.531,0,0,0-2.034.891,3.953,3.953,0,0,0-.756,2.619,3.922,3.922,0,0,0,.756,2.6A2.531,2.531,0,0,0,89.224,16.974Zm9.992,1.188a3.834,3.834,0,0,1-2.088-.567,3.747,3.747,0,0,1-1.395-1.611,5.8,5.8,0,0,1-.5-2.5,5.844,5.844,0,0,1,.5-2.52,3.688,3.688,0,0,1,1.395-1.6A3.88,3.88,0,0,1,99.216,8.8a3.643,3.643,0,0,1,2.115.612,2.962,2.962,0,0,1,1.2,1.656h-.216V4.752h1.458V18h-1.44V15.84h.2a2.911,2.911,0,0,1-1.188,1.7A3.647,3.647,0,0,1,99.216,18.162Zm.306-1.188a2.584,2.584,0,0,0,2.052-.891,3.859,3.859,0,0,0,.774-2.6,3.889,3.889,0,0,0-.774-2.619,2.584,2.584,0,0,0-2.052-.891,2.557,2.557,0,0,0-2.043.891,3.92,3.92,0,0,0-.765,2.619,3.89,3.89,0,0,0,.765,2.6A2.557,2.557,0,0,0,99.522,16.974Zm10.262,1.188a3.144,3.144,0,0,1-2.421-.882,3.856,3.856,0,0,1-.819-2.7V8.964H108v5.58a2.757,2.757,0,0,0,.5,1.827,1.957,1.957,0,0,0,1.566.585,2.482,2.482,0,0,0,1.908-.774,2.918,2.918,0,0,0,.72-2.07V8.964h1.458V18h-1.422V15.966h.234a3.243,3.243,0,0,1-1.215,1.62A3.391,3.391,0,0,1,109.784,18.162Zm11,0a4.486,4.486,0,0,1-2.313-.576,3.845,3.845,0,0,1-1.512-1.638,5.575,5.575,0,0,1-.531-2.52,5.372,5.372,0,0,1,.54-2.511,3.708,3.708,0,0,1,1.521-1.575,4.685,4.685,0,0,1,2.295-.54,4.772,4.772,0,0,1,1.683.306,3.621,3.621,0,0,1,1.359.864l-.522,1.044a3.585,3.585,0,0,0-1.179-.774,3.4,3.4,0,0,0-1.251-.252,2.744,2.744,0,0,0-2.178.882,3.792,3.792,0,0,0-.774,2.574,3.908,3.908,0,0,0,.774,2.592,2.692,2.692,0,0,0,2.178.918,3.579,3.579,0,0,0,1.233-.234,3.41,3.41,0,0,0,1.2-.774l.522,1.026a3.665,3.665,0,0,1-1.386.882A4.749,4.749,0,0,1,120.784,18.162Zm8.318,0a2.623,2.623,0,0,1-2.034-.765,3.323,3.323,0,0,1-.7-2.313V10.1H124.6V8.964h1.764V6.5l1.458-.414v2.88h2.592V10.1h-2.592v4.824a2.486,2.486,0,0,0,.369,1.539,1.335,1.335,0,0,0,1.107.459,2.7,2.7,0,0,0,.612-.063,3.093,3.093,0,0,0,.486-.153v1.224a2.791,2.791,0,0,1-.6.171A3.917,3.917,0,0,1,129.1,18.162Zm6.716,0a4.371,4.371,0,0,1-2.259-.567,3.776,3.776,0,0,1-1.485-1.62,5.554,5.554,0,0,1-.522-2.493,5.541,5.541,0,0,1,.522-2.5,3.787,3.787,0,0,1,1.485-1.611,4.819,4.819,0,0,1,4.536,0,3.844,3.844,0,0,1,1.494,1.611,5.461,5.461,0,0,1,.531,2.5,5.475,5.475,0,0,1-.531,2.493,3.833,3.833,0,0,1-1.494,1.62A4.407,4.407,0,0,1,135.817,18.162Zm0-1.188a2.551,2.551,0,0,0,2.052-.891,3.922,3.922,0,0,0,.756-2.6,3.92,3.92,0,0,0-.765-2.619,2.557,2.557,0,0,0-2.043-.891,2.531,2.531,0,0,0-2.034.891,3.953,3.953,0,0,0-.756,2.619,3.922,3.922,0,0,0,.756,2.6A2.531,2.531,0,0,0,135.817,16.974Zm9.578,1.188a6.631,6.631,0,0,1-2.016-.3,4.246,4.246,0,0,1-1.548-.837l.5-1.026a4.637,4.637,0,0,0,1.449.774,5.284,5.284,0,0,0,1.629.252,2.826,2.826,0,0,0,1.629-.387,1.239,1.239,0,0,0,.549-1.071,1.07,1.07,0,0,0-.351-.837,2.581,2.581,0,0,0-1.143-.495l-1.674-.342a3.3,3.3,0,0,1-1.728-.855,2.137,2.137,0,0,1-.576-1.539,2.4,2.4,0,0,1,.414-1.395,2.784,2.784,0,0,1,1.206-.954,4.543,4.543,0,0,1,1.854-.351,5.428,5.428,0,0,1,1.827.3,3.677,3.677,0,0,1,1.4.855l-.522,1.008a3.566,3.566,0,0,0-1.233-.783,4.028,4.028,0,0,0-1.431-.261,2.524,2.524,0,0,0-1.593.423,1.348,1.348,0,0,0-.531,1.107,1.157,1.157,0,0,0,.333.855,2.113,2.113,0,0,0,1.035.5l1.674.342a3.841,3.841,0,0,1,1.827.837,1.988,1.988,0,0,1,.6,1.521,2.3,2.3,0,0,1-.45,1.413,2.849,2.849,0,0,1-1.251.927A5,5,0,0,1,145.395,18.162Z" transform="translate(442 4302)" fill="#212429"/>
      </g>
      <g transform="matrix(1, 0, 0, 1, 197, 4281.41)" filter="url(#Rectángulo_407909)">
        <rect id="Rectángulo_407909-2" data-name="Rectángulo 407909" width="192" height="50" rx="15" transform="translate(949 193.59)" fill="#fff"/>
      </g>
      <path id="Contenido-3" data-name="Contenido" d="M1.584,18V5.31H6.75a4.474,4.474,0,0,1,3.078.963,3.4,3.4,0,0,1,1.08,2.673A3.409,3.409,0,0,1,9.828,11.6a4.42,4.42,0,0,1-3.078.981H3.078V18Zm1.494-6.66H6.606a3.074,3.074,0,0,0,2.1-.63,2.234,2.234,0,0,0,.711-1.764A2.256,2.256,0,0,0,8.7,7.164a3.074,3.074,0,0,0-2.1-.63H3.078ZM12.926,18V11.142q0-.54-.027-1.1t-.081-1.08h1.4l.18,2.2-.252.018a3,3,0,0,1,.63-1.332,2.881,2.881,0,0,1,1.062-.783A3.225,3.225,0,0,1,17.12,8.8q.27,0,.477.018a1.351,1.351,0,0,1,.387.09l-.018,1.3a2.537,2.537,0,0,0-.5-.117,4.347,4.347,0,0,0-.513-.027,2.481,2.481,0,0,0-1.377.378,2.448,2.448,0,0,0-.882.972,2.78,2.78,0,0,0-.3,1.26V18Zm10.172.162a4.371,4.371,0,0,1-2.259-.567,3.776,3.776,0,0,1-1.485-1.62,5.554,5.554,0,0,1-.522-2.493,5.541,5.541,0,0,1,.522-2.5,3.787,3.787,0,0,1,1.485-1.611,4.819,4.819,0,0,1,4.536,0,3.844,3.844,0,0,1,1.494,1.611,5.461,5.461,0,0,1,.531,2.5,5.475,5.475,0,0,1-.531,2.493,3.833,3.833,0,0,1-1.494,1.62A4.407,4.407,0,0,1,23.1,18.162Zm0-1.188a2.551,2.551,0,0,0,2.052-.891,3.922,3.922,0,0,0,.756-2.6,3.92,3.92,0,0,0-.765-2.619A2.557,2.557,0,0,0,23.1,9.972a2.531,2.531,0,0,0-2.034.891,3.953,3.953,0,0,0-.756,2.619,3.922,3.922,0,0,0,.756,2.6A2.531,2.531,0,0,0,23.1,16.974Zm9.992,1.188A3.834,3.834,0,0,1,31,17.595a3.747,3.747,0,0,1-1.4-1.611,5.8,5.8,0,0,1-.495-2.5,5.844,5.844,0,0,1,.495-2.52A3.688,3.688,0,0,1,31,9.36,3.88,3.88,0,0,1,33.089,8.8a3.643,3.643,0,0,1,2.115.612,2.962,2.962,0,0,1,1.2,1.656h-.216V4.752h1.458V18H36.2V15.84h.2a2.911,2.911,0,0,1-1.188,1.7A3.647,3.647,0,0,1,33.089,18.162Zm.306-1.188a2.584,2.584,0,0,0,2.052-.891,3.859,3.859,0,0,0,.774-2.6,3.889,3.889,0,0,0-.774-2.619A2.584,2.584,0,0,0,33.4,9.972a2.557,2.557,0,0,0-2.043.891,3.92,3.92,0,0,0-.765,2.619,3.89,3.89,0,0,0,.765,2.6A2.557,2.557,0,0,0,33.4,16.974Zm10.262,1.188a3.144,3.144,0,0,1-2.421-.882,3.855,3.855,0,0,1-.819-2.7V8.964h1.458v5.58a2.757,2.757,0,0,0,.5,1.827,1.957,1.957,0,0,0,1.566.585,2.482,2.482,0,0,0,1.908-.774,2.918,2.918,0,0,0,.72-2.07V8.964h1.458V18H46.609V15.966h.234a3.243,3.243,0,0,1-1.215,1.62A3.391,3.391,0,0,1,43.657,18.162Zm11,0a4.486,4.486,0,0,1-2.313-.576,3.845,3.845,0,0,1-1.512-1.638,5.575,5.575,0,0,1-.531-2.52,5.372,5.372,0,0,1,.54-2.511,3.708,3.708,0,0,1,1.521-1.575,4.685,4.685,0,0,1,2.3-.54,4.772,4.772,0,0,1,1.683.306,3.62,3.62,0,0,1,1.359.864l-.522,1.044A3.585,3.585,0,0,0,56,10.242a3.4,3.4,0,0,0-1.251-.252,2.744,2.744,0,0,0-2.178.882,3.792,3.792,0,0,0-.774,2.574,3.908,3.908,0,0,0,.774,2.592,2.692,2.692,0,0,0,2.178.918,3.579,3.579,0,0,0,1.233-.234,3.41,3.41,0,0,0,1.2-.774l.522,1.026a3.665,3.665,0,0,1-1.386.882A4.749,4.749,0,0,1,54.657,18.162Zm8.318,0a2.623,2.623,0,0,1-2.034-.765,3.323,3.323,0,0,1-.7-2.313V10.1H58.475V8.964h1.764V6.5L61.7,6.084v2.88h2.592V10.1H61.7v4.824a2.486,2.486,0,0,0,.369,1.539,1.335,1.335,0,0,0,1.107.459,2.7,2.7,0,0,0,.612-.063,3.092,3.092,0,0,0,.486-.153v1.224a2.791,2.791,0,0,1-.6.171A3.917,3.917,0,0,1,62.975,18.162Zm6.716,0a4.371,4.371,0,0,1-2.259-.567,3.776,3.776,0,0,1-1.485-1.62,5.554,5.554,0,0,1-.522-2.493,5.541,5.541,0,0,1,.522-2.5,3.787,3.787,0,0,1,1.485-1.611,4.819,4.819,0,0,1,4.536,0,3.844,3.844,0,0,1,1.494,1.611,5.461,5.461,0,0,1,.531,2.5,5.475,5.475,0,0,1-.531,2.493,3.833,3.833,0,0,1-1.494,1.62A4.407,4.407,0,0,1,69.691,18.162Zm0-1.188a2.551,2.551,0,0,0,2.052-.891,3.922,3.922,0,0,0,.756-2.6,3.92,3.92,0,0,0-.765-2.619,2.557,2.557,0,0,0-2.043-.891,2.531,2.531,0,0,0-2.034.891,3.953,3.953,0,0,0-.756,2.619,3.922,3.922,0,0,0,.756,2.6A2.531,2.531,0,0,0,69.691,16.974Zm9.578,1.188a6.631,6.631,0,0,1-2.016-.3,4.246,4.246,0,0,1-1.548-.837l.5-1.026a4.637,4.637,0,0,0,1.449.774,5.284,5.284,0,0,0,1.629.252,2.826,2.826,0,0,0,1.629-.387,1.239,1.239,0,0,0,.549-1.071,1.07,1.07,0,0,0-.351-.837,2.581,2.581,0,0,0-1.143-.495L78.3,13.9a3.3,3.3,0,0,1-1.728-.855,2.138,2.138,0,0,1-.576-1.539,2.4,2.4,0,0,1,.414-1.395,2.784,2.784,0,0,1,1.206-.954A4.543,4.543,0,0,1,79.466,8.8a5.428,5.428,0,0,1,1.827.3,3.677,3.677,0,0,1,1.395.855l-.522,1.008a3.566,3.566,0,0,0-1.233-.783A4.028,4.028,0,0,0,79.5,9.918a2.524,2.524,0,0,0-1.593.423,1.348,1.348,0,0,0-.531,1.107,1.157,1.157,0,0,0,.333.855,2.113,2.113,0,0,0,1.035.5l1.674.342a3.841,3.841,0,0,1,1.827.837,1.988,1.988,0,0,1,.6,1.521,2.3,2.3,0,0,1-.45,1.413,2.849,2.849,0,0,1-1.251.927A5,5,0,0,1,79.268,18.162Zm13.63,0a6.631,6.631,0,0,1-2.016-.3,4.246,4.246,0,0,1-1.548-.837l.5-1.026a4.637,4.637,0,0,0,1.449.774,5.284,5.284,0,0,0,1.629.252,2.826,2.826,0,0,0,1.629-.387,1.239,1.239,0,0,0,.549-1.071,1.07,1.07,0,0,0-.351-.837,2.581,2.581,0,0,0-1.143-.495L91.926,13.9a3.3,3.3,0,0,1-1.728-.855,2.138,2.138,0,0,1-.576-1.539,2.4,2.4,0,0,1,.414-1.395,2.784,2.784,0,0,1,1.206-.954A4.543,4.543,0,0,1,93.1,8.8a5.428,5.428,0,0,1,1.827.3,3.677,3.677,0,0,1,1.395.855L95.8,10.962a3.566,3.566,0,0,0-1.233-.783,4.028,4.028,0,0,0-1.431-.261,2.524,2.524,0,0,0-1.593.423,1.348,1.348,0,0,0-.531,1.107,1.157,1.157,0,0,0,.333.855,2.113,2.113,0,0,0,1.035.5l1.674.342a3.841,3.841,0,0,1,1.827.837,1.988,1.988,0,0,1,.6,1.521,2.3,2.3,0,0,1-.45,1.413,2.849,2.849,0,0,1-1.251.927A5,5,0,0,1,92.9,18.162Zm9.11,0a3.144,3.144,0,0,1-2.421-.882,3.856,3.856,0,0,1-.819-2.7V8.964h1.458v5.58a2.757,2.757,0,0,0,.5,1.827,1.957,1.957,0,0,0,1.566.585,2.482,2.482,0,0,0,1.908-.774,2.918,2.918,0,0,0,.72-2.07V8.964h1.458V18H104.96V15.966h.234a3.243,3.243,0,0,1-1.215,1.62A3.391,3.391,0,0,1,102.008,18.162Zm10.208,0a6.631,6.631,0,0,1-2.016-.3,4.246,4.246,0,0,1-1.548-.837l.5-1.026a4.637,4.637,0,0,0,1.449.774,5.284,5.284,0,0,0,1.629.252,2.826,2.826,0,0,0,1.629-.387,1.239,1.239,0,0,0,.549-1.071,1.07,1.07,0,0,0-.351-.837,2.581,2.581,0,0,0-1.143-.495l-1.674-.342a3.3,3.3,0,0,1-1.728-.855,2.138,2.138,0,0,1-.576-1.539,2.4,2.4,0,0,1,.414-1.395,2.784,2.784,0,0,1,1.206-.954,4.543,4.543,0,0,1,1.854-.351,5.428,5.428,0,0,1,1.827.3,3.677,3.677,0,0,1,1.395.855l-.522,1.008a3.566,3.566,0,0,0-1.233-.783,4.028,4.028,0,0,0-1.431-.261,2.524,2.524,0,0,0-1.593.423,1.348,1.348,0,0,0-.531,1.107,1.157,1.157,0,0,0,.333.855,2.113,2.113,0,0,0,1.035.5l1.674.342a3.841,3.841,0,0,1,1.827.837,1.988,1.988,0,0,1,.6,1.521,2.3,2.3,0,0,1-.45,1.413,2.849,2.849,0,0,1-1.251.927A5,5,0,0,1,112.216,18.162Zm9.038,0a2.623,2.623,0,0,1-2.034-.765,3.323,3.323,0,0,1-.7-2.313V10.1h-1.764V8.964h1.764V6.5l1.458-.414v2.88h2.592V10.1h-2.592v4.824a2.486,2.486,0,0,0,.369,1.539,1.335,1.335,0,0,0,1.107.459,2.7,2.7,0,0,0,.612-.063,3.092,3.092,0,0,0,.486-.153v1.224a2.791,2.791,0,0,1-.6.171A3.917,3.917,0,0,1,121.253,18.162Zm3.1-.162V8.964h1.458V18Zm-.18-11.088V5.274h1.8V6.912Zm7.67,11.25a2.623,2.623,0,0,1-2.034-.765,3.323,3.323,0,0,1-.7-2.313V10.1h-1.764V8.964H129.1V6.5l1.458-.414v2.88h2.592V10.1h-2.592v4.824a2.487,2.487,0,0,0,.369,1.539,1.335,1.335,0,0,0,1.107.459,2.7,2.7,0,0,0,.612-.063,3.093,3.093,0,0,0,.486-.153v1.224a2.791,2.791,0,0,1-.6.171A3.917,3.917,0,0,1,131.841,18.162Zm6.284,0a3.144,3.144,0,0,1-2.421-.882,3.855,3.855,0,0,1-.819-2.7V8.964h1.458v5.58a2.757,2.757,0,0,0,.5,1.827,1.957,1.957,0,0,0,1.566.585,2.482,2.482,0,0,0,1.908-.774,2.918,2.918,0,0,0,.72-2.07V8.964H142.5V18h-1.422V15.966h.234a3.243,3.243,0,0,1-1.215,1.62A3.391,3.391,0,0,1,138.125,18.162Zm10.406,0A2.623,2.623,0,0,1,146.5,17.4a3.323,3.323,0,0,1-.7-2.313V10.1h-1.764V8.964h1.764V6.5l1.458-.414v2.88h2.592V10.1h-2.592v4.824a2.487,2.487,0,0,0,.369,1.539,1.335,1.335,0,0,0,1.107.459,2.7,2.7,0,0,0,.612-.063,3.093,3.093,0,0,0,.486-.153v1.224a2.791,2.791,0,0,1-.6.171A3.917,3.917,0,0,1,148.531,18.162Zm6.716,0a4.371,4.371,0,0,1-2.259-.567,3.776,3.776,0,0,1-1.485-1.62,5.554,5.554,0,0,1-.522-2.493,5.541,5.541,0,0,1,.522-2.5,3.787,3.787,0,0,1,1.485-1.611,4.819,4.819,0,0,1,4.536,0,3.844,3.844,0,0,1,1.494,1.611,5.461,5.461,0,0,1,.531,2.5,5.475,5.475,0,0,1-.531,2.493,3.833,3.833,0,0,1-1.494,1.62A4.407,4.407,0,0,1,155.246,18.162Zm0-1.188a2.551,2.551,0,0,0,2.052-.891,3.922,3.922,0,0,0,.756-2.6,3.92,3.92,0,0,0-.765-2.619,2.557,2.557,0,0,0-2.043-.891,2.531,2.531,0,0,0-2.034.891,3.953,3.953,0,0,0-.756,2.619,3.922,3.922,0,0,0,.756,2.6A2.531,2.531,0,0,0,155.246,16.974Zm9.578,1.188a6.631,6.631,0,0,1-2.016-.3,4.246,4.246,0,0,1-1.548-.837l.5-1.026a4.637,4.637,0,0,0,1.449.774,5.284,5.284,0,0,0,1.629.252,2.826,2.826,0,0,0,1.629-.387,1.239,1.239,0,0,0,.549-1.071,1.07,1.07,0,0,0-.351-.837,2.581,2.581,0,0,0-1.143-.495l-1.674-.342a3.3,3.3,0,0,1-1.728-.855,2.137,2.137,0,0,1-.576-1.539,2.4,2.4,0,0,1,.414-1.395,2.784,2.784,0,0,1,1.206-.954,4.543,4.543,0,0,1,1.854-.351,5.428,5.428,0,0,1,1.827.3,3.677,3.677,0,0,1,1.4.855l-.522,1.008a3.566,3.566,0,0,0-1.233-.783,4.028,4.028,0,0,0-1.431-.261,2.524,2.524,0,0,0-1.593.423,1.348,1.348,0,0,0-.531,1.107,1.157,1.157,0,0,0,.333.855,2.113,2.113,0,0,0,1.035.5l1.674.342a3.841,3.841,0,0,1,1.827.837,1.988,1.988,0,0,1,.6,1.521,2.3,2.3,0,0,1-.45,1.413,2.849,2.849,0,0,1-1.251.927A5,5,0,0,1,164.824,18.162Z" transform="translate(1161 4488)" fill="#212429"/>
      <g id="Grupo_1150965" data-name="Grupo 1150965">
        <g transform="matrix(1, 0, 0, 1, 197, 4281.41)" filter="url(#Rectángulo_407910)">
          <rect id="Rectángulo_407910-2" data-name="Rectángulo 407910" width="239" height="50" rx="15" transform="translate(788 30.59)" fill="#fff"/>
        </g>
        <path id="Contenido-4" data-name="Contenido" d="M1.584,18V5.31H6.75a4.474,4.474,0,0,1,3.078.963,3.4,3.4,0,0,1,1.08,2.673A3.409,3.409,0,0,1,9.828,11.6a4.42,4.42,0,0,1-3.078.981H3.078V18Zm1.494-6.66H6.606a3.074,3.074,0,0,0,2.1-.63,2.234,2.234,0,0,0,.711-1.764A2.256,2.256,0,0,0,8.7,7.164a3.074,3.074,0,0,0-2.1-.63H3.078Zm13.376,6.822a4.371,4.371,0,0,1-2.259-.567,3.776,3.776,0,0,1-1.485-1.62,5.554,5.554,0,0,1-.522-2.493,5.541,5.541,0,0,1,.522-2.5,3.787,3.787,0,0,1,1.485-1.611A4.371,4.371,0,0,1,16.454,8.8a4.407,4.407,0,0,1,2.277.567,3.844,3.844,0,0,1,1.494,1.611,5.461,5.461,0,0,1,.531,2.5,5.475,5.475,0,0,1-.531,2.493,3.833,3.833,0,0,1-1.494,1.62A4.407,4.407,0,0,1,16.454,18.162Zm0-1.188a2.551,2.551,0,0,0,2.052-.891,3.922,3.922,0,0,0,.756-2.6,3.92,3.92,0,0,0-.765-2.619,2.557,2.557,0,0,0-2.043-.891,2.531,2.531,0,0,0-2.034.891,3.953,3.953,0,0,0-.756,2.619,3.922,3.922,0,0,0,.756,2.6A2.531,2.531,0,0,0,16.454,16.974Zm9.992,1.188a3.834,3.834,0,0,1-2.088-.567,3.747,3.747,0,0,1-1.4-1.611,5.8,5.8,0,0,1-.495-2.5,5.844,5.844,0,0,1,.495-2.52,3.688,3.688,0,0,1,1.4-1.6A3.88,3.88,0,0,1,26.446,8.8a3.643,3.643,0,0,1,2.115.612,2.962,2.962,0,0,1,1.2,1.656h-.216V4.752H31V18H29.56V15.84h.2a2.911,2.911,0,0,1-1.188,1.7A3.647,3.647,0,0,1,26.446,18.162Zm.306-1.188a2.584,2.584,0,0,0,2.052-.891,3.859,3.859,0,0,0,.774-2.6,3.889,3.889,0,0,0-.774-2.619,2.584,2.584,0,0,0-2.052-.891,2.557,2.557,0,0,0-2.043.891,3.92,3.92,0,0,0-.765,2.619,3.89,3.89,0,0,0,.765,2.6A2.557,2.557,0,0,0,26.752,16.974Zm11.09,1.188a4.505,4.505,0,0,1-3.348-1.233A4.654,4.654,0,0,1,33.269,13.5a5.356,5.356,0,0,1,.54-2.475,3.992,3.992,0,0,1,1.512-1.638A4.243,4.243,0,0,1,37.553,8.8a3.907,3.907,0,0,1,2.088.522,3.374,3.374,0,0,1,1.3,1.485,5.335,5.335,0,0,1,.45,2.277v.54h-7v-.918h6.048l-.306.234a3.512,3.512,0,0,0-.648-2.25,2.319,2.319,0,0,0-1.926-.81,2.546,2.546,0,0,0-2.106.945,3.963,3.963,0,0,0-.756,2.547v.162a3.569,3.569,0,0,0,.837,2.565,3.1,3.1,0,0,0,2.349.873,4.672,4.672,0,0,0,1.521-.243,4.135,4.135,0,0,0,1.359-.8l.5,1.026a4.005,4.005,0,0,1-1.5.891A5.813,5.813,0,0,1,37.841,18.162ZM43.585,18V11.142q0-.54-.027-1.1t-.081-1.08h1.4l.18,2.2-.252.018a3,3,0,0,1,.63-1.332A2.881,2.881,0,0,1,46.5,9.063,3.225,3.225,0,0,1,47.779,8.8q.27,0,.477.018a1.351,1.351,0,0,1,.387.09l-.018,1.3a2.536,2.536,0,0,0-.495-.117,4.347,4.347,0,0,0-.513-.027,2.481,2.481,0,0,0-1.377.378,2.448,2.448,0,0,0-.882.972,2.78,2.78,0,0,0-.3,1.26V18Zm14.692.162a3.834,3.834,0,0,1-2.088-.567,3.747,3.747,0,0,1-1.4-1.611,5.8,5.8,0,0,1-.5-2.5,5.844,5.844,0,0,1,.5-2.52,3.688,3.688,0,0,1,1.4-1.6A3.88,3.88,0,0,1,58.277,8.8a3.643,3.643,0,0,1,2.115.612,2.962,2.962,0,0,1,1.2,1.656h-.216V4.752h1.458V18h-1.44V15.84h.2a2.911,2.911,0,0,1-1.188,1.7A3.647,3.647,0,0,1,58.277,18.162Zm.306-1.188a2.584,2.584,0,0,0,2.052-.891,3.859,3.859,0,0,0,.774-2.6,3.889,3.889,0,0,0-.774-2.619,2.584,2.584,0,0,0-2.052-.891,2.557,2.557,0,0,0-2.043.891,3.92,3.92,0,0,0-.765,2.619,3.89,3.89,0,0,0,.765,2.6A2.557,2.557,0,0,0,58.583,16.974Zm11.09,1.188a4.505,4.505,0,0,1-3.348-1.233A4.654,4.654,0,0,1,65.1,13.5a5.356,5.356,0,0,1,.54-2.475,3.992,3.992,0,0,1,1.512-1.638A4.243,4.243,0,0,1,69.385,8.8a3.907,3.907,0,0,1,2.088.522,3.374,3.374,0,0,1,1.3,1.485,5.334,5.334,0,0,1,.45,2.277v.54h-7v-.918h6.048l-.306.234a3.512,3.512,0,0,0-.648-2.25,2.319,2.319,0,0,0-1.926-.81,2.546,2.546,0,0,0-2.106.945,3.963,3.963,0,0,0-.756,2.547v.162A3.569,3.569,0,0,0,67.36,16.1a3.1,3.1,0,0,0,2.349.873,4.672,4.672,0,0,0,1.521-.243,4.135,4.135,0,0,0,1.359-.8l.5,1.026a4.005,4.005,0,0,1-1.5.891A5.813,5.813,0,0,1,69.673,18.162ZM80.152,18V4.752H81.61V18Zm7.994.162a4.371,4.371,0,0,1-2.259-.567,3.776,3.776,0,0,1-1.485-1.62,5.554,5.554,0,0,1-.522-2.493,5.541,5.541,0,0,1,.522-2.5,3.787,3.787,0,0,1,1.485-1.611,4.819,4.819,0,0,1,4.536,0,3.844,3.844,0,0,1,1.494,1.611,5.461,5.461,0,0,1,.531,2.5,5.475,5.475,0,0,1-.531,2.493,3.833,3.833,0,0,1-1.494,1.62A4.407,4.407,0,0,1,88.146,18.162Zm0-1.188a2.551,2.551,0,0,0,2.052-.891,3.922,3.922,0,0,0,.756-2.6,3.92,3.92,0,0,0-.765-2.619,2.557,2.557,0,0,0-2.043-.891,2.531,2.531,0,0,0-2.034.891,3.953,3.953,0,0,0-.756,2.619,3.922,3.922,0,0,0,.756,2.6A2.531,2.531,0,0,0,88.146,16.974Zm9.578,1.188a6.631,6.631,0,0,1-2.016-.3,4.246,4.246,0,0,1-1.548-.837l.5-1.026a4.637,4.637,0,0,0,1.449.774,5.284,5.284,0,0,0,1.629.252,2.826,2.826,0,0,0,1.629-.387,1.239,1.239,0,0,0,.549-1.071,1.07,1.07,0,0,0-.351-.837,2.581,2.581,0,0,0-1.143-.495L96.752,13.9a3.3,3.3,0,0,1-1.728-.855,2.138,2.138,0,0,1-.576-1.539,2.4,2.4,0,0,1,.414-1.395,2.784,2.784,0,0,1,1.206-.954A4.543,4.543,0,0,1,97.922,8.8a5.428,5.428,0,0,1,1.827.3,3.677,3.677,0,0,1,1.395.855l-.522,1.008a3.566,3.566,0,0,0-1.233-.783,4.028,4.028,0,0,0-1.431-.261,2.524,2.524,0,0,0-1.593.423,1.348,1.348,0,0,0-.531,1.107,1.157,1.157,0,0,0,.333.855,2.113,2.113,0,0,0,1.035.5l1.674.342a3.841,3.841,0,0,1,1.827.837,1.988,1.988,0,0,1,.6,1.521,2.3,2.3,0,0,1-.45,1.413,2.849,2.849,0,0,1-1.251.927A5,5,0,0,1,97.724,18.162Zm10.624,3.726V11.052q0-.5-.045-1.035t-.1-1.053h1.4l.2,2.142h-.216a2.933,2.933,0,0,1,1.17-1.683,3.564,3.564,0,0,1,2.106-.621,3.9,3.9,0,0,1,2.115.558,3.766,3.766,0,0,1,1.395,1.6,5.754,5.754,0,0,1,.5,2.52,5.8,5.8,0,0,1-.5,2.5,3.747,3.747,0,0,1-1.395,1.611,3.9,3.9,0,0,1-2.124.567,3.571,3.571,0,0,1-2.088-.612,2.894,2.894,0,0,1-1.17-1.674h.2v6.012Zm4.23-4.914a2.577,2.577,0,0,0,2.061-.891,3.89,3.89,0,0,0,.765-2.6,3.92,3.92,0,0,0-.765-2.619,2.808,2.808,0,0,0-4.1,0,3.92,3.92,0,0,0-.765,2.619,3.89,3.89,0,0,0,.765,2.6A2.557,2.557,0,0,0,112.577,16.974ZM119.113,18V11.142q0-.54-.027-1.1t-.081-1.08h1.4l.18,2.2-.252.018a3,3,0,0,1,.63-1.332,2.881,2.881,0,0,1,1.062-.783,3.225,3.225,0,0,1,1.278-.261q.27,0,.477.018a1.351,1.351,0,0,1,.387.09l-.018,1.3a2.537,2.537,0,0,0-.5-.117,4.347,4.347,0,0,0-.513-.027,2.481,2.481,0,0,0-1.377.378,2.448,2.448,0,0,0-.882.972,2.78,2.78,0,0,0-.3,1.26V18Zm10.172.162a4.371,4.371,0,0,1-2.259-.567,3.776,3.776,0,0,1-1.485-1.62,5.554,5.554,0,0,1-.522-2.493,5.541,5.541,0,0,1,.522-2.5,3.787,3.787,0,0,1,1.485-1.611,4.819,4.819,0,0,1,4.536,0,3.844,3.844,0,0,1,1.494,1.611,5.461,5.461,0,0,1,.531,2.5,5.475,5.475,0,0,1-.531,2.493,3.833,3.833,0,0,1-1.494,1.62A4.407,4.407,0,0,1,129.285,18.162Zm0-1.188a2.551,2.551,0,0,0,2.052-.891,3.922,3.922,0,0,0,.756-2.6,3.92,3.92,0,0,0-.765-2.619,2.557,2.557,0,0,0-2.043-.891,2.531,2.531,0,0,0-2.034.891,3.953,3.953,0,0,0-.756,2.619,3.922,3.922,0,0,0,.756,2.6A2.531,2.531,0,0,0,129.285,16.974ZM138.395,18l-3.87-9.036h1.584l3.24,7.956h-.486l3.276-7.956h1.512L139.781,18Zm10.784.162a4.505,4.505,0,0,1-3.348-1.233,4.655,4.655,0,0,1-1.224-3.429,5.356,5.356,0,0,1,.54-2.475,3.992,3.992,0,0,1,1.512-1.638,4.243,4.243,0,0,1,2.232-.585,3.907,3.907,0,0,1,2.088.522,3.374,3.374,0,0,1,1.3,1.485,5.334,5.334,0,0,1,.45,2.277v.54h-7v-.918h6.048l-.306.234a3.512,3.512,0,0,0-.648-2.25,2.319,2.319,0,0,0-1.926-.81,2.546,2.546,0,0,0-2.106.945,3.963,3.963,0,0,0-.756,2.547v.162a3.569,3.569,0,0,0,.837,2.565,3.1,3.1,0,0,0,2.349.873,4.672,4.672,0,0,0,1.521-.243,4.135,4.135,0,0,0,1.359-.8l.5,1.026a4.006,4.006,0,0,1-1.5.891A5.813,5.813,0,0,1,149.179,18.162Zm9.794,0a4.505,4.505,0,0,1-3.348-1.233A4.655,4.655,0,0,1,154.4,13.5a5.356,5.356,0,0,1,.54-2.475,3.992,3.992,0,0,1,1.512-1.638,4.243,4.243,0,0,1,2.232-.585,3.906,3.906,0,0,1,2.088.522,3.374,3.374,0,0,1,1.3,1.485,5.334,5.334,0,0,1,.45,2.277v.54h-7v-.918h6.048l-.306.234a3.512,3.512,0,0,0-.648-2.25,2.319,2.319,0,0,0-1.926-.81,2.546,2.546,0,0,0-2.106.945,3.963,3.963,0,0,0-.756,2.547v.162a3.569,3.569,0,0,0,.837,2.565,3.1,3.1,0,0,0,2.349.873,4.672,4.672,0,0,0,1.521-.243,4.135,4.135,0,0,0,1.359-.8l.5,1.026a4.006,4.006,0,0,1-1.5.891A5.813,5.813,0,0,1,158.972,18.162Zm9.2,0a3.834,3.834,0,0,1-2.088-.567,3.747,3.747,0,0,1-1.4-1.611,5.8,5.8,0,0,1-.495-2.5,5.844,5.844,0,0,1,.495-2.52,3.689,3.689,0,0,1,1.4-1.6,3.88,3.88,0,0,1,2.088-.558,3.643,3.643,0,0,1,2.115.612,2.962,2.962,0,0,1,1.2,1.656h-.216V4.752h1.458V18h-1.44V15.84h.2a2.911,2.911,0,0,1-1.188,1.7A3.647,3.647,0,0,1,168.172,18.162Zm.306-1.188a2.584,2.584,0,0,0,2.052-.891,3.859,3.859,0,0,0,.774-2.6,3.889,3.889,0,0,0-.774-2.619,2.584,2.584,0,0,0-2.052-.891,2.557,2.557,0,0,0-2.043.891,3.92,3.92,0,0,0-.765,2.619,3.89,3.89,0,0,0,.765,2.6A2.557,2.557,0,0,0,168.478,16.974Zm10.784,1.188A4.371,4.371,0,0,1,177,17.595a3.776,3.776,0,0,1-1.485-1.62A5.554,5.554,0,0,1,175,13.482a5.541,5.541,0,0,1,.522-2.5A3.787,3.787,0,0,1,177,9.369a4.819,4.819,0,0,1,4.536,0,3.844,3.844,0,0,1,1.494,1.611,5.461,5.461,0,0,1,.531,2.5,5.475,5.475,0,0,1-.531,2.493,3.833,3.833,0,0,1-1.494,1.62A4.407,4.407,0,0,1,179.262,18.162Zm0-1.188a2.551,2.551,0,0,0,2.052-.891,3.922,3.922,0,0,0,.756-2.6,3.92,3.92,0,0,0-.765-2.619,2.557,2.557,0,0,0-2.043-.891,2.531,2.531,0,0,0-2.034.891,3.953,3.953,0,0,0-.756,2.619,3.922,3.922,0,0,0,.756,2.6A2.531,2.531,0,0,0,179.262,16.974ZM185.8,18V11.142q0-.54-.027-1.1t-.081-1.08h1.4l.18,2.2-.252.018a3,3,0,0,1,.63-1.332,2.881,2.881,0,0,1,1.062-.783,3.225,3.225,0,0,1,1.278-.261q.27,0,.477.018a1.351,1.351,0,0,1,.387.09l-.018,1.3a2.536,2.536,0,0,0-.495-.117,4.347,4.347,0,0,0-.513-.027,2.481,2.481,0,0,0-1.377.378,2.448,2.448,0,0,0-.882.972,2.78,2.78,0,0,0-.3,1.26V18Zm10.478.162a4.505,4.505,0,0,1-3.348-1.233A4.655,4.655,0,0,1,191.7,13.5a5.356,5.356,0,0,1,.54-2.475,3.992,3.992,0,0,1,1.512-1.638,4.243,4.243,0,0,1,2.232-.585,3.906,3.906,0,0,1,2.088.522,3.374,3.374,0,0,1,1.3,1.485,5.334,5.334,0,0,1,.45,2.277v.54h-7v-.918h6.048l-.306.234a3.512,3.512,0,0,0-.648-2.25,2.319,2.319,0,0,0-1.926-.81,2.546,2.546,0,0,0-2.106.945,3.963,3.963,0,0,0-.756,2.547v.162a3.569,3.569,0,0,0,.837,2.565,3.1,3.1,0,0,0,2.349.873,4.672,4.672,0,0,0,1.521-.243,4.135,4.135,0,0,0,1.359-.8l.5,1.026a4.006,4.006,0,0,1-1.5.891A5.813,5.813,0,0,1,196.276,18.162Zm8.786,0a6.631,6.631,0,0,1-2.016-.3,4.246,4.246,0,0,1-1.548-.837L202,16a4.637,4.637,0,0,0,1.449.774,5.284,5.284,0,0,0,1.629.252,2.826,2.826,0,0,0,1.629-.387,1.239,1.239,0,0,0,.549-1.071,1.07,1.07,0,0,0-.351-.837,2.581,2.581,0,0,0-1.143-.495l-1.674-.342a3.3,3.3,0,0,1-1.728-.855,2.137,2.137,0,0,1-.576-1.539,2.4,2.4,0,0,1,.414-1.395,2.784,2.784,0,0,1,1.206-.954,4.543,4.543,0,0,1,1.854-.351,5.428,5.428,0,0,1,1.827.3,3.677,3.677,0,0,1,1.4.855l-.522,1.008a3.566,3.566,0,0,0-1.233-.783,4.028,4.028,0,0,0-1.431-.261,2.524,2.524,0,0,0-1.593.423,1.348,1.348,0,0,0-.531,1.107,1.157,1.157,0,0,0,.333.855,2.113,2.113,0,0,0,1.035.5l1.674.342a3.841,3.841,0,0,1,1.827.837,1.988,1.988,0,0,1,.6,1.521,2.3,2.3,0,0,1-.45,1.413,2.849,2.849,0,0,1-1.251.927A5,5,0,0,1,205.061,18.162Z" transform="translate(999 4325)" fill="#212429"/>
      </g>
    </g>
  </g>
</svg>
