<svg xmlns="http://www.w3.org/2000/svg" xmlns:xlink="http://www.w3.org/1999/xlink" width="409.415" height="675.899" viewBox="0 0 409.415 675.899">
  <defs>
    <clipPath id="clip-path">
      <path id="Trazado_986121" data-name="Trazado 986121" d="M751.212,881.172s-30.35,40.515-40.056,93.044-30.185,280.179-30.185,280.179,52.441,12.3,87.27,6.022l11.106-262.564,39.62,263.011s62.533.678,92.794-14.167c0,0-71.641-322.224-101.413-362.193C810.35,884.505,782.044,877.176,751.212,881.172Z" transform="translate(-680.972 -879.98)" fill="#3b89e1"/>
    </clipPath>
    <clipPath id="clip-path-2">
      <path id="Trazado_986130" data-name="Trazado 986130" d="M751.212,881.172s-30.35,40.515-40.056,93.044-30.185,280.179-30.185,280.179,52.441,12.3,87.27,6.022l11.106-262.564,39.62,263.011s62.533.678,92.794-14.167c0,0-71.641-322.224-101.413-362.193C810.35,884.505,782.044,877.176,751.212,881.172Z" transform="translate(-680.972 -879.98)"/>
    </clipPath>
  </defs>
  <g id="Grupo_1151517" data-name="Grupo 1151517" transform="translate(-1021.478 -3912.929)">
    <g id="Grupo_1151354" data-name="Grupo 1151354" transform="translate(1030.199 4070.85)" opacity="0.61">
      <g id="Grupo_1151353" data-name="Grupo 1151353" transform="translate(0 0)">
        <path id="Trazado_986096" data-name="Trazado 986096" d="M434.975,651.825c33.867-14.459,70.649-84.416,173.6-63.032S685.291,731.26,717.433,760.979c84.332,77.975,43.115,177.114-42.206,199.609-113.222,29.851-141.071-63.5-203.661-61.789S368.533,824.039,365.644,796.841,348.311,688.824,434.975,651.825Z" transform="translate(-362.962 -584.761)" fill="#fee3d8"/>
      </g>
    </g>
    <g id="Grupo_1151356" data-name="Grupo 1151356" transform="translate(1074.243 3912.929)">
      <g id="Grupo_1151355" data-name="Grupo 1151355" transform="translate(0 0)">
        <path id="Trazado_986097" data-name="Trazado 986097" d="M694.664,223.4c-15.084-29.556-54.782-43.4-86.017-36.358-21.187,4.773-41.593,18.553-49.162,39.426-6.556,18.078-5.312,39.071,6.488,54.73,9.234,12.254,24.242,19.714,38.194,25.292,15.047,6.016,32.139,10.389,48.44,9.916,4.04-.117,7.067.093,16.3-.329,0,0-13.981-4.5-22.471-15.427,4.354-.722,8.634-1.634,12.78-2.746C693.373,288.742,711.448,256.29,694.664,223.4Z" transform="translate(-555.537 -185.242)" fill="#82e0e0"/>
      </g>
    </g>
    <g id="Grupo_1151359" data-name="Grupo 1151359" transform="translate(1052.935 4147.61)">
      <g id="Grupo_1151358" data-name="Grupo 1151358" transform="translate(0 0)">
        <g id="Grupo_1151357" data-name="Grupo 1151357">
          <path id="Trazado_986098" data-name="Trazado 986098" d="M560.79,924.961l10.873,2.482,3.976-17.42-10.894-2.486a30.157,30.157,0,0,0-2.021-8.837l8.692-6.931-11.14-13.97-8.712,6.948a30.2,30.2,0,0,0-8.193-3.929v-11.1H525.5v11.143a30.193,30.193,0,0,0-8.16,3.972l-8.7-6.935-11.14,13.97,8.744,6.973a30.16,30.16,0,0,0-1.975,8.822l-10.884,2.484,3.976,17.42,10.937-2.5a30.455,30.455,0,0,0,5.642,7.032l-4.854,10.078,16.1,7.752,4.869-10.111a30.456,30.456,0,0,0,9.019-.014l4.849,10.069,16.1-7.752-4.862-10.1A30.315,30.315,0,0,0,560.79,924.961Zm-42.627-15.133a16.352,16.352,0,1,1,16.352,16.352A16.352,16.352,0,0,1,518.162,909.828Z" transform="translate(-493.389 -869.718)" fill="#b0cff2"/>
        </g>
      </g>
    </g>
    <g id="Grupo_1151362" data-name="Grupo 1151362" transform="translate(1283.001 4013.219)">
      <g id="Grupo_1151361" data-name="Grupo 1151361" transform="translate(0 0)">
        <g id="Grupo_1151360" data-name="Grupo 1151360">
          <path id="Trazado_986099" data-name="Trazado 986099" d="M1226.435,528.59l10.007,2.284,3.659-16.031-10.026-2.288a27.74,27.74,0,0,0-1.86-8.133l8-6.379-10.252-12.856-8.018,6.394a27.789,27.789,0,0,0-7.54-3.615V477.751H1193.96v10.255a27.8,27.8,0,0,0-7.51,3.655l-8-6.383-10.252,12.856,8.047,6.417a27.761,27.761,0,0,0-1.818,8.119l-10.017,2.286,3.659,16.031,10.065-2.3a28.026,28.026,0,0,0,5.193,6.472l-4.467,9.275,14.815,7.135,4.481-9.3a28.039,28.039,0,0,0,8.3-.012l4.462,9.266,14.815-7.135-4.475-9.292A28.085,28.085,0,0,0,1226.435,528.59Zm-39.23-13.928a15.049,15.049,0,1,1,15.049,15.049A15.049,15.049,0,0,1,1187.2,514.662Z" transform="translate(-1164.406 -477.751)" fill="#fd7940"/>
        </g>
      </g>
    </g>
    <g id="Grupo_1151365" data-name="Grupo 1151365" transform="translate(1125.078 3937.296)">
      <g id="Grupo_1151364" data-name="Grupo 1151364" transform="translate(0 0)">
        <g id="Grupo_1151363" data-name="Grupo 1151363">
          <path id="Trazado_986100" data-name="Trazado 986100" d="M717.753,306.662V305.19c0-6.978,2.478-11.284,9.758-18.627,4.192-4.242,5.946-7.367,5.959-11.038.012-4.735-2.514-8.107-7.723-8.107-5.264,0-8.216,3.436-8.751,10.614H703.8c.408-11.265,6.134-21.811,22.43-21.719,16.522.093,21.379,10.052,21.379,19.2,0,6.169-1.808,11.136-9.186,18.538-4.264,4.276-5.921,7.186-5.921,11.493v1.119Zm0,22.652v-17.1h14.753v17.1Z" transform="translate(-703.803 -256.312)" fill="#efeeea"/>
        </g>
      </g>
    </g>
    <g id="Grupo_1151368" data-name="Grupo 1151368" transform="translate(1075.594 4342.221)">
      <g id="Grupo_1151367" data-name="Grupo 1151367" transform="translate(0 0)">
        <g id="Grupo_1151366" data-name="Grupo 1151366">
          <path id="Trazado_986101" data-name="Trazado 986101" d="M568.627,1466.107l-.066-.829c-.312-3.929.891-6.463,4.661-10.922,2.171-2.575,3.019-4.413,2.862-6.48-.2-2.666-1.777-4.451-4.71-4.219-2.963.235-4.472,2.3-4.452,6.366l-7.426.589c-.273-6.36,2.479-12.552,11.657-13.228,9.3-.686,12.484,4.7,12.893,9.854.275,3.473-.52,6.35-4.343,10.846-2.209,2.6-3.012,4.31-2.82,6.734l.05.63Zm1.011,12.751-.764-9.627,8.3-.658.764,9.627Z" transform="translate(-559.477 -1437.325)" fill="#e5782d"/>
        </g>
      </g>
    </g>
    <g id="Grupo_1151371" data-name="Grupo 1151371" transform="translate(1306.54 4240.729)">
      <g id="Grupo_1151370" data-name="Grupo 1151370" transform="translate(0 0)">
        <g id="Grupo_1151369" data-name="Grupo 1151369">
          <path id="Trazado_986102" data-name="Trazado 986102" d="M1248.289,1147.564l.725.406c3.438,1.927,4.875,4.336,6.481,9.95.932,3.237,1.987,4.963,3.792,5.983,2.329,1.313,4.687,1,6.126-1.566,1.454-2.593.576-5-2.812-7.241l3.642-6.5c5.436,3.312,9.051,9.044,4.505,17.047-4.608,8.113-10.855,7.756-15.361,5.23-3.039-1.7-4.986-3.966-6.6-9.644-.929-3.281-1.9-4.9-4.026-6.09l-.551-.309Zm-11.157-6.254,8.425,4.722-4.074,7.267-8.424-4.722Z" transform="translate(-1233.059 -1141.31)" fill="#e5782d"/>
        </g>
      </g>
    </g>
    <g id="Grupo_1151374" data-name="Grupo 1151374" transform="translate(1117.459 4098.446)">
      <g id="Grupo_1151373" data-name="Grupo 1151373" transform="translate(0 0)">
        <g id="Grupo_1151372" data-name="Grupo 1151372">
          <path id="Trazado_986103" data-name="Trazado 986103" d="M708.665,741.465l-.54.632c-2.559,3-5.2,3.938-11.021,4.422-3.356.285-5.255.984-6.607,2.556-1.741,2.029-1.893,4.4.345,6.314,2.261,1.93,4.788,1.537,7.65-1.35l5.666,4.837c-4.306,4.688-10.632,7.118-17.6,1.1-7.062-6.1-5.5-12.156-2.142-16.085,2.262-2.65,4.86-4.12,10.743-4.594,3.4-.273,5.178-.915,6.757-2.765l.41-.481Zm8.306-9.729-6.271,7.345-6.336-5.409,6.271-7.345Z" transform="translate(-681.581 -726.327)" fill="#e5782d"/>
        </g>
      </g>
    </g>
    <g id="Grupo_1151377" data-name="Grupo 1151377" transform="translate(1353.593 4299.216)">
      <g id="Grupo_1151376" data-name="Grupo 1151376" transform="translate(0 0)">
        <g id="Grupo_1151375" data-name="Grupo 1151375">
          <path id="Trazado_986104" data-name="Trazado 986104" d="M1389.651,1364.54l-.257-1.48c-1.22-7.02.518-11.785,6.558-20.446,3.475-5,4.693-8.451,4.064-12.146-.816-4.766-3.948-7.716-9.188-6.8-5.3.921-7.664,4.894-6.946,12.208l-13.271,2.307c-1.559-11.4,2.355-23.015,18.765-25.772,16.637-2.8,23.265,6.373,24.865,15.574,1.079,6.206.129,11.519-6,20.256-3.542,5.048-4.7,8.265-3.947,12.6l.2,1.125Zm3.964,22.787-2.991-17.2,14.841-2.58,2.992,17.2Z" transform="translate(-1370.295 -1311.895)" fill="#b0cff2"/>
        </g>
      </g>
    </g>
    <g id="Grupo_1151379" data-name="Grupo 1151379" transform="translate(1319.518 4129.714)">
      <g id="Grupo_1151378" data-name="Grupo 1151378" transform="translate(0 0)">
        <path id="Trazado_986105" data-name="Trazado 986105" d="M1356.427,826.276a.727.727,0,0,1-.376-.1l-11.738-7.069-11.739,7.069a.73.73,0,0,1-.753,0l-11.737-7.069-11.736,7.069a.729.729,0,0,1-.753,0l-11.732-7.069-11.735,7.069a.73.73,0,0,1-.753,0l-12.11-7.3a.73.73,0,1,1,.753-1.25l11.734,7.069,11.735-7.069a.729.729,0,0,1,.753,0l11.732,7.069,11.736-7.069a.729.729,0,0,1,.753,0l11.737,7.069,11.739-7.069a.729.729,0,0,1,.753,0l12.115,7.3a.73.73,0,0,1-.377,1.354Z" transform="translate(-1270.91 -817.521)" fill="#1c241b"/>
      </g>
    </g>
    <g id="Grupo_1151381" data-name="Grupo 1151381" transform="translate(1021.478 4312.985)">
      <g id="Grupo_1151380" data-name="Grupo 1151380" transform="translate(0 0)">
        <path id="Trazado_986106" data-name="Trazado 986106" d="M487.156,1360.81a.722.722,0,0,1-.376-.1l-11.739-7.069-11.739,7.069a.729.729,0,0,1-.753,0l-11.737-7.069-11.736,7.069a.729.729,0,0,1-.753,0l-11.732-7.069-11.736,7.069a.729.729,0,0,1-.753,0l-12.111-7.3a.729.729,0,1,1,.753-1.249l11.734,7.068,11.736-7.068a.728.728,0,0,1,.753,0l11.732,7.068,11.736-7.068a.728.728,0,0,1,.753,0l11.737,7.068,11.739-7.068a.728.728,0,0,1,.753,0l12.115,7.3a.73.73,0,0,1-.377,1.354Z" transform="translate(-401.64 -1352.055)" fill="#1c241b"/>
      </g>
    </g>
    <g id="Grupo_1151383" data-name="Grupo 1151383" transform="translate(1309.945 4162.613)">
      <g id="Grupo_1151382" data-name="Grupo 1151382" transform="translate(0 0)">
        <path id="Trazado_986107" data-name="Trazado 986107" d="M1248.507,924.51a5.516,5.516,0,1,1,5.516-5.517A5.523,5.523,0,0,1,1248.507,924.51Zm0-9.573a4.057,4.057,0,1,0,4.057,4.057A4.062,4.062,0,0,0,1248.507,914.937Z" transform="translate(-1242.99 -913.477)" fill="#1c241b"/>
      </g>
    </g>
    <g id="Grupo_1151516" data-name="Grupo 1151516" transform="translate(1075.552 3985.576)">
      <g id="Grupo_1151388" data-name="Grupo 1151388" transform="translate(0 592.284)">
        <ellipse id="Elipse_11710" data-name="Elipse 11710" cx="158.727" cy="5.484" rx="158.727" ry="5.484" fill="#262325"/>
      </g>
      <g id="Grupo_1151389" data-name="Grupo 1151389" transform="translate(71.431 488.156)">
        <rect id="Rectángulo_408057" data-name="Rectángulo 408057" width="32.48" height="88.235" fill="#e09579"/>
      </g>
      <g id="Grupo_1151390" data-name="Grupo 1151390" transform="translate(197.524 490.892)">
        <rect id="Rectángulo_408058" data-name="Rectángulo 408058" width="32.48" height="88.235" transform="translate(0 5.564) rotate(-9.864)" fill="#e09579"/>
      </g>
      <g id="Grupo_1151404" data-name="Grupo 1151404" transform="translate(27.462 548.768)">
        <g id="Grupo_1151395" data-name="Grupo 1151395" transform="translate(0.534)">
          <g id="Grupo_1151392" data-name="Grupo 1151392">
            <g id="Grupo_1151391" data-name="Grupo 1151391">
              <path id="Trazado_986110" data-name="Trazado 986110" d="M641.523,2036.148a39.53,39.53,0,0,1,15.512-14.453v16.582h2.627v-17.863a55.905,55.905,0,0,1,18.9-4.571,97.462,97.462,0,0,1,0-12.339c.764-15.194,14.731,4.111,14.731,4.111H717.1l-.343,33.574H643.106C641.056,2041.189,640.463,2037.9,641.523,2036.148Z" transform="translate(-641.006 -1997.674)" fill="#262325"/>
            </g>
          </g>
          <g id="Grupo_1151394" data-name="Grupo 1151394" transform="translate(16.028 22.741)">
            <g id="Grupo_1151393" data-name="Grupo 1151393">
              <path id="Trazado_986111" data-name="Trazado 986111" d="M687.755,2081.864v-16.582q1.255-.666,2.627-1.281v17.863h-2.627Z" transform="translate(-687.755 -2064.001)" fill="#efd1ca"/>
            </g>
          </g>
        </g>
        <g id="Grupo_1151397" data-name="Grupo 1151397" transform="translate(61.725 18.332)">
          <g id="Grupo_1151396" data-name="Grupo 1151396">
            <circle id="Elipse_11711" data-name="Elipse 11711" cx="5.825" cy="5.825" r="5.825" fill="#efd1ca"/>
          </g>
        </g>
        <g id="Grupo_1151399" data-name="Grupo 1151399" transform="translate(22.101 17.676)">
          <g id="Grupo_1151398" data-name="Grupo 1151398">
            <path id="Trazado_986112" data-name="Trazado 986112" d="M704.566,2059.024a.654.654,0,0,0,.458-.186l8.507-8.26,11.505,1.5a.657.657,0,0,0,.169-1.3l-11.819-1.544a.652.652,0,0,0-.542.181l-8.735,8.482a.657.657,0,0,0,.458,1.128Z" transform="translate(-703.909 -2049.227)" fill="#efd1ca"/>
          </g>
        </g>
        <g id="Grupo_1151401" data-name="Grupo 1151401" transform="translate(20.85 14.595)">
          <g id="Grupo_1151400" data-name="Grupo 1151400">
            <path id="Trazado_986113" data-name="Trazado 986113" d="M713.473,2050.459a.654.654,0,0,0,.6-.394l3.883-8.906a.656.656,0,1,0-1.2-.525l-3.674,8.425-12.04-2.3a.657.657,0,1,0-.246,1.29l12.556,2.4A.671.671,0,0,0,713.473,2050.459Z" transform="translate(-700.26 -2040.243)" fill="#efd1ca"/>
          </g>
        </g>
        <g id="Grupo_1151403" data-name="Grupo 1151403" transform="translate(0 34.952)">
          <g id="Grupo_1151402" data-name="Grupo 1151402">
            <path id="Trazado_986114" data-name="Trazado 986114" d="M639.874,2110.922h76.979a.425.425,0,0,0,.425-.425v-10.456a.425.425,0,0,0-.425-.425H639.874a.425.425,0,0,0-.425.425V2110.5A.426.426,0,0,0,639.874,2110.922Z" transform="translate(-639.449 -2099.616)" fill="#ffe5dc"/>
          </g>
        </g>
      </g>
      <g id="Grupo_1151418" data-name="Grupo 1151418" transform="translate(206.049 548.768)">
        <g id="Grupo_1151409" data-name="Grupo 1151409" transform="translate(1.201)">
          <g id="Grupo_1151406" data-name="Grupo 1151406">
            <g id="Grupo_1151405" data-name="Grupo 1151405">
              <path id="Trazado_986115" data-name="Trazado 986115" d="M1239.4,2036.148a39.531,39.531,0,0,0-15.512-14.453v16.582h-2.626v-17.863a55.905,55.905,0,0,0-18.9-4.571,97.491,97.491,0,0,0,0-12.339c-.764-15.194-14.732,4.111-14.732,4.111h-23.81l.343,33.574h73.653C1239.869,2041.189,1240.462,2037.9,1239.4,2036.148Z" transform="translate(-1163.823 -1997.674)" fill="#262325"/>
            </g>
          </g>
          <g id="Grupo_1151408" data-name="Grupo 1151408" transform="translate(57.438 22.741)">
            <g id="Grupo_1151407" data-name="Grupo 1151407">
              <path id="Trazado_986116" data-name="Trazado 986116" d="M1333.976,2081.864v-16.582q-1.255-.666-2.627-1.281v17.863h2.627Z" transform="translate(-1331.349 -2064.001)" fill="#efd1ca"/>
            </g>
          </g>
        </g>
        <g id="Grupo_1151411" data-name="Grupo 1151411" transform="translate(4.454 18.332)">
          <g id="Grupo_1151410" data-name="Grupo 1151410">
            <circle id="Elipse_11712" data-name="Elipse 11712" cx="5.825" cy="5.825" r="5.825" fill="#efd1ca"/>
          </g>
        </g>
        <g id="Grupo_1151413" data-name="Grupo 1151413" transform="translate(33.859 17.676)">
          <g id="Grupo_1151412" data-name="Grupo 1151412">
            <path id="Trazado_986117" data-name="Trazado 986117" d="M1280.285,2059.024a.654.654,0,0,1-.458-.186l-8.507-8.26-11.505,1.5a.657.657,0,0,1-.169-1.3l11.82-1.544a.653.653,0,0,1,.542.181l8.735,8.482a.657.657,0,0,1-.458,1.128Z" transform="translate(-1259.074 -2049.227)" fill="#efd1ca"/>
          </g>
        </g>
        <g id="Grupo_1151415" data-name="Grupo 1151415" transform="translate(39.226 14.595)">
          <g id="Grupo_1151414" data-name="Grupo 1151414">
            <path id="Trazado_986118" data-name="Trazado 986118" d="M1279.269,2050.459a.655.655,0,0,1-.6-.394l-3.883-8.906a.656.656,0,1,1,1.2-.525l3.674,8.425,12.04-2.3a.657.657,0,1,1,.247,1.29l-12.556,2.4A.66.66,0,0,1,1279.269,2050.459Z" transform="translate(-1274.729 -2040.243)" fill="#efd1ca"/>
          </g>
        </g>
        <g id="Grupo_1151417" data-name="Grupo 1151417" transform="translate(0 34.952)">
          <g id="Grupo_1151416" data-name="Grupo 1151416">
            <path id="Trazado_986119" data-name="Trazado 986119" d="M1237.725,2110.922h-76.98a.425.425,0,0,1-.425-.425v-10.456a.425.425,0,0,1,.425-.425h76.98a.425.425,0,0,1,.425.425V2110.5A.424.424,0,0,1,1237.725,2110.922Z" transform="translate(-1160.321 -2099.616)" fill="#ffe5dc"/>
          </g>
        </g>
      </g>
      <g id="Grupo_1151433" data-name="Grupo 1151433" transform="translate(41.698 165.553)">
        <g id="Grupo_1151419" data-name="Grupo 1151419" clip-path="url(#clip-path)">
          <path id="Trazado_986120" data-name="Trazado 986120" d="M751.446,881.063s-30.583,40.556-40.289,93.084-30.185,280.179-30.185,280.179,52.441,12.3,87.27,6.022l11.106-262.564,39.62,263.011s62.533.677,92.794-14.167c0,0-71.641-322.224-101.413-362.193C810.35,884.437,782.278,877.067,751.446,881.063Z" transform="translate(-680.972 -879.911)" fill="#3b89e1"/>
        </g>
        <g id="Grupo_1151428" data-name="Grupo 1151428" clip-path="url(#clip-path-2)">
          <g id="Grupo_1151420" data-name="Grupo 1151420" transform="translate(-4.19 -19.394)">
            <path id="Trazado_986122" data-name="Trazado 986122" d="M669.116,1245.428l-.042,0a.364.364,0,0,1-.321-.4c.208-1.829,20.9-183.926,25.98-274.506a308.411,308.411,0,0,1,25.828-107.872c11.181-24.985,21.88-38.95,21.987-39.088a.365.365,0,0,1,.577.446c-.106.138-10.763,14.051-21.909,38.965a307.685,307.685,0,0,0-25.755,107.591c-5.08,90.6-25.775,272.719-25.983,274.548A.363.363,0,0,1,669.116,1245.428Z" transform="translate(-668.751 -823.414)" fill="#754c24"/>
          </g>
          <g id="Grupo_1151421" data-name="Grupo 1151421" transform="translate(22.462 -18.937)">
            <path id="Trazado_986123" data-name="Trazado 986123" d="M746.85,1247.065h-.019a.365.365,0,0,1-.346-.383c.1-1.89,9.635-190.062,13.113-280.613,1.82-47.371,12.812-83.225,21.714-104.96,9.65-23.563,19-36.092,19.095-36.216a.365.365,0,0,1,.583.439c-.093.123-9.4,12.6-19.015,36.084-8.874,21.676-19.833,57.433-21.648,104.682-3.479,90.555-13.018,278.731-13.113,280.622A.365.365,0,0,1,746.85,1247.065Z" transform="translate(-746.485 -824.747)" fill="#754c24"/>
          </g>
          <g id="Grupo_1151422" data-name="Grupo 1151422" transform="translate(62.028 -15.377)">
            <path id="Trazado_986124" data-name="Trazado 986124" d="M862.251,1256.828h-.02a.365.365,0,0,1-.345-.383c.09-1.708,9.041-172.087,12.078-280.882,2.529-90.57,23.436-139.725,23.647-140.211a.365.365,0,1,1,.669.291c-.21.485-21.062,49.527-23.586,139.94-3.037,108.8-11.989,279.192-12.079,280.9A.364.364,0,0,1,862.251,1256.828Z" transform="translate(-861.886 -835.132)" fill="#754c24"/>
          </g>
          <g id="Grupo_1151423" data-name="Grupo 1151423" transform="translate(82.82 132.696)">
            <path id="Trazado_986125" data-name="Trazado 986125" d="M922.891,1539.211h-.023a.364.364,0,0,1-.341-.387c.111-1.8,11.168-180.989,11.443-271.457a.365.365,0,0,1,.365-.364h0a.365.365,0,0,1,.364.366c-.275,90.488-11.333,269.7-11.445,271.5A.364.364,0,0,1,922.891,1539.211Z" transform="translate(-922.526 -1267.003)" fill="#754c24"/>
          </g>
          <g id="Grupo_1151424" data-name="Grupo 1151424" transform="translate(99.123 -13.051)">
            <path id="Trazado_986126" data-name="Trazado 986126" d="M1021,1262.468a.364.364,0,0,1-.362-.328c-.161-1.584-16.3-159.666-36.337-271.559-17.044-95.166-14.035-147.8-14-148.324a.356.356,0,0,1,.387-.341.364.364,0,0,1,.341.387c-.032.52-3.034,53.082,13.993,148.15,20.045,111.921,36.184,270.03,36.344,271.613a.364.364,0,0,1-.326.4A.222.222,0,0,1,1021,1262.468Z" transform="translate(-970.078 -841.914)" fill="#754c24"/>
          </g>
          <g id="Grupo_1151425" data-name="Grupo 1151425" transform="translate(100.631 -4.847)">
            <path id="Trazado_986127" data-name="Trazado 986127" d="M1048.474,1284.25a.365.365,0,0,1-.361-.32c-.221-1.778-22.311-178.907-40.324-272.026-17.189-88.869-33.139-145.04-33.3-145.6a.365.365,0,1,1,.7-.2c.159.557,16.117,56.757,33.313,145.659,18.017,93.143,40.11,270.3,40.331,272.075a.364.364,0,0,1-.317.407A.263.263,0,0,1,1048.474,1284.25Z" transform="translate(-974.476 -865.842)" fill="#754c24"/>
          </g>
          <g id="Grupo_1151426" data-name="Grupo 1151426" transform="translate(148.352 64.318)">
            <path id="Trazado_986128" data-name="Trazado 986128" d="M1182.473,1406.633a.365.365,0,0,1-.359-.3c-.323-1.777-32.569-178.693-51.614-267.284-1.492-6.947-2.813-13.3-3.977-18.9-4.075-19.6-7.018-33.763-12.846-52.109a.365.365,0,1,1,.7-.221c5.839,18.382,8.786,32.56,12.865,52.182,1.164,5.6,2.483,11.947,3.976,18.89,19.047,88.6,51.295,265.529,51.619,267.307a.366.366,0,0,1-.293.425A.259.259,0,0,1,1182.473,1406.633Z" transform="translate(-1113.66 -1067.57)" fill="#754c24"/>
          </g>
          <g id="Grupo_1151427" data-name="Grupo 1151427" transform="translate(122.975 -17.212)">
            <path id="Trazado_986129" data-name="Trazado 986129" d="M1147.458,1241.742a.365.365,0,0,1-.359-.3c-.3-1.661-30.782-167.261-53.722-266.623-20.4-88.352-53.353-143.939-53.683-144.49a.365.365,0,0,1,.626-.375c.331.552,33.345,56.238,53.769,144.7,22.943,99.378,53.423,264.993,53.729,266.654a.366.366,0,0,1-.293.426A.275.275,0,0,1,1147.458,1241.742Z" transform="translate(-1039.643 -829.779)" fill="#754c24"/>
          </g>
        </g>
        <g id="Grupo_1151429" data-name="Grupo 1151429" clip-path="url(#clip-path-2)">
          <path id="Trazado_986131" data-name="Trazado 986131" d="M743.555,1909.713c-30.958,0-62.768-6.644-63.179-6.731a.73.73,0,0,1,.3-1.428c.526.112,52.973,11.062,88.487,4.735a.73.73,0,1,1,.256,1.437A149.926,149.926,0,0,1,743.555,1909.713Z" transform="translate(-680.2 -1551.285)" fill="#1c241b"/>
        </g>
        <g id="Grupo_1151430" data-name="Grupo 1151430" clip-path="url(#clip-path-2)">
          <path id="Trazado_986133" data-name="Trazado 986133" d="M1091.835,1879.441a144.951,144.951,0,0,1-22.74-1.574.73.73,0,1,1,.258-1.437c.464.084,46.886,8.088,90.906-13.048a.729.729,0,1,1,.631,1.315C1135.68,1876.8,1109.695,1879.441,1091.835,1879.441Z" transform="translate(-935.627 -1526.162)" fill="#1c241b"/>
        </g>
        <g id="Grupo_1151431" data-name="Grupo 1151431" clip-path="url(#clip-path-2)">
          <path id="Trazado_986135" data-name="Trazado 986135" d="M807.555,1364.812h-.009a.365.365,0,0,1-.356-.374c2.321-92.558,16.832-329.847,16.979-332.233a.369.369,0,0,1,.386-.342.364.364,0,0,1,.341.386c-.146,2.385-14.656,239.662-16.977,332.207A.364.364,0,0,1,807.555,1364.812Z" transform="translate(-763.914 -979.787)" fill="#754c24"/>
        </g>
        <g id="Grupo_1151432" data-name="Grupo 1151432" clip-path="url(#clip-path-2)">
          <path id="Trazado_986137" data-name="Trazado 986137" d="M1134.265,1374.438a.365.365,0,0,1-.363-.33c-7.513-80.364-54.186-313.523-54.656-315.869a.365.365,0,0,1,.715-.143c.471,2.346,47.151,235.543,54.668,315.944a.366.366,0,0,1-.329.4Z" transform="translate(-942.688 -996.834)" fill="#754c24"/>
        </g>
      </g>
      <g id="Grupo_1151434" data-name="Grupo 1151434" transform="translate(107.422 167.736)">
        <rect id="Rectángulo_408059" data-name="Rectángulo 408059" width="62.974" height="14.818" fill="#1c241b"/>
      </g>
      <g id="Grupo_1151435" data-name="Grupo 1151435" transform="translate(133.826 194.69)">
        <path id="Trazado_986139" data-name="Trazado 986139" d="M952.068,1027.465a.728.728,0,0,1-.595-.306c-5.442-7.629,3.154-59.389,3.523-61.588a.73.73,0,1,1,1.439.241c-2.483,14.819-8,54.573-3.774,60.5a.73.73,0,0,1-.594,1.153Z" transform="translate(-949.673 -964.961)" fill="#1c241b"/>
      </g>
      <g id="Grupo_1151436" data-name="Grupo 1151436" transform="translate(84.609 190.539)">
        <path id="Trazado_986140" data-name="Trazado 986140" d="M806.855,989.934a.729.729,0,0,1-.16-1.441c.273-.062,27.29-6.478,30.266-34.984a.73.73,0,0,1,1.451.152c-3.087,29.567-31.115,36.192-31.4,36.256A.825.825,0,0,1,806.855,989.934Z" transform="translate(-806.126 -952.855)" fill="#1c241b"/>
      </g>
      <g id="Grupo_1151437" data-name="Grupo 1151437" transform="translate(165.093 194.184)">
        <path id="Trazado_986141" data-name="Trazado 986141" d="M1063.659,1000.485a14.262,14.262,0,0,1-7.658-2.2c-12.423-7.721-15.024-32.93-15.129-34a.729.729,0,0,1,1.452-.142c.025.255,2.637,25.564,14.449,32.9,3.77,2.342,8.147,2.6,13.01.765a.73.73,0,1,1,.516,1.365A18.792,18.792,0,0,1,1063.659,1000.485Z" transform="translate(-1040.868 -963.485)" fill="#1c241b"/>
      </g>
      <g id="Grupo_1151438" data-name="Grupo 1151438" transform="translate(170.514 189.068)">
        <path id="Trazado_986142" data-name="Trazado 986142" d="M1056.68,963.962s17.38,9.976,24.9,3.671-2.522-19.07-2.522-19.07Z" transform="translate(-1056.68 -948.563)" fill="#e09579"/>
      </g>
      <g id="Grupo_1151439" data-name="Grupo 1151439" transform="translate(131.528 50.703)">
        <path id="Trazado_986143" data-name="Trazado 986143" d="M977.9,562.849l2.111-17.843-20.51,1.847-1.968,12.492A2.239,2.239,0,0,1,955,561.21c-6.988-1.015-11.975-1.645-11.975-1.645S941.241,615.9,958,611.049s36.263-42.215,36.263-42.215a124.886,124.886,0,0,0-14.572-3.529A2.24,2.24,0,0,1,977.9,562.849Z" transform="translate(-942.97 -545.006)" fill="#e09579"/>
      </g>
      <g id="Grupo_1151473" data-name="Grupo 1151473" transform="translate(142.265 0)">
        <g id="Grupo_1151452" data-name="Grupo 1151452">
          <g id="Grupo_1151440" data-name="Grupo 1151440" transform="translate(29.912)">
            <path id="Trazado_986144" data-name="Trazado 986144" d="M1079.422,406.524c0,5.191-7.092,7.569-12.283,7.569s-5.607-2.377-5.607-7.569,3.3-9.4,8.49-9.4A9.4,9.4,0,0,1,1079.422,406.524Z" transform="translate(-1061.532 -397.124)" fill="#42210b"/>
          </g>
          <g id="Grupo_1151443" data-name="Grupo 1151443" transform="translate(0 10.648)">
            <g id="Grupo_1151441" data-name="Grupo 1151441" transform="translate(1.06)">
              <path id="Trazado_986145" data-name="Trazado 986145" d="M1023.379,480.528s6.9-41.23-9.919-49.389c-14.582-7.073-37.05-1.367-36.046,16.04,0,0,16.663,2.775,25.457-1.5,3.364-1.635.959,15.846-.52,25.964-.591,4.041-.787,6.918-.787,6.918Z" transform="translate(-977.381 -428.18)" fill="#42210b"/>
            </g>
            <g id="Grupo_1151442" data-name="Grupo 1151442" transform="translate(0 17.111)">
              <path id="Trazado_986146" data-name="Trazado 986146" d="M997.018,507.74c4.439-2.715,6.734-8.7,7.979-14.484,0,0,3.706.09,4.111-3.485s-2.587-3.673-3.334-1.985c-.618,1.4-.3-5.222-2.549-8.5a2.789,2.789,0,0,0-3.1-1.084,57.434,57.434,0,0,1-24.739,1.768s-5.7,27.894,8.943,29.552C984.325,509.527,991.467,511.135,997.018,507.74Z" transform="translate(-974.289 -478.087)" fill="#e09579"/>
            </g>
          </g>
          <g id="Grupo_1151444" data-name="Grupo 1151444" transform="translate(1.38 23.695)">
            <path id="Trazado_986147" data-name="Trazado 986147" d="M985.677,471.937a61.962,61.962,0,0,1-7.2-.392.194.194,0,1,1,.051-.384c.189.025,18.88,2.4,27.278-4.88a.194.194,0,0,1,.254.293C1000.91,471.045,991.979,471.937,985.677,471.937Z" transform="translate(-978.313 -466.234)" fill="#bc7964"/>
          </g>
          <g id="Grupo_1151445" data-name="Grupo 1151445" transform="translate(1.38 19.149)">
            <path id="Trazado_986148" data-name="Trazado 986148" d="M978.507,461.394a.194.194,0,0,1-.015-.387c.2-.016,20.483-1.66,27.925-7.986a.194.194,0,0,1,.251.295c-7.538,6.407-27.941,8.061-28.146,8.077Z" transform="translate(-978.313 -452.975)" fill="#bc7964"/>
          </g>
          <g id="Grupo_1151446" data-name="Grupo 1151446" transform="translate(1.759 16.386)">
            <path id="Trazado_986149" data-name="Trazado 986149" d="M979.612,454.583a.194.194,0,0,1-.118-.347c.141-.109,14.253-10.861,29.161-9.132a.194.194,0,0,1-.044.385c-14.754-1.718-28.741,8.946-28.881,9.054A.192.192,0,0,1,979.612,454.583Z" transform="translate(-979.418 -444.915)" fill="#bc7964"/>
          </g>
          <g id="Grupo_1151447" data-name="Grupo 1151447" transform="translate(2.668 11.886)">
            <path id="Trazado_986150" data-name="Trazado 986150" d="M982.264,443.456a.194.194,0,0,1-.175-.277c.085-.18,8.777-17.869,30.483-8.81a.194.194,0,0,1-.15.358c-11.165-4.661-18.719-2.073-23.088.918a21.981,21.981,0,0,0-6.9,7.7A.193.193,0,0,1,982.264,443.456Z" transform="translate(-982.07 -431.79)" fill="#bc7964"/>
          </g>
          <g id="Grupo_1151448" data-name="Grupo 1151448" transform="translate(29.718 24.529)">
            <path id="Trazado_986151" data-name="Trazado 986151" d="M1061.159,503.91a.193.193,0,0,1-.157-.306c2.894-4.066,6.612-18.847,6.027-23.963-.592-5.179-5.581-10.6-5.632-10.65a.194.194,0,0,1,.284-.264c.052.055,5.127,5.564,5.733,10.87.592,5.173-3.169,20.12-6.1,24.232A.192.192,0,0,1,1061.159,503.91Z" transform="translate(-1060.966 -468.665)" fill="#bc7964"/>
          </g>
          <g id="Grupo_1151449" data-name="Grupo 1151449" transform="translate(32.902 19.149)">
            <path id="Trazado_986152" data-name="Trazado 986152" d="M1075.445,494.2a.188.188,0,0,1-.06-.01.193.193,0,0,1-.124-.244c5.143-15.779,3.527-25.985,1.266-31.769-2.447-6.258-6.154-8.827-6.191-8.852a.193.193,0,0,1,.216-.321c.038.026,3.829,2.646,6.323,9,2.293,5.845,3.938,16.153-1.246,32.059A.193.193,0,0,1,1075.445,494.2Z" transform="translate(-1070.25 -452.975)" fill="#bc7964"/>
          </g>
          <g id="Grupo_1151450" data-name="Grupo 1151450" transform="translate(35.326 15.133)">
            <path id="Trazado_986153" data-name="Trazado 986153" d="M1086.911,486.506l-.028,0a.194.194,0,0,1-.163-.22c5.367-36.347-9.148-44.58-9.3-44.659a.194.194,0,1,1,.182-.342c.154.082,3.805,2.086,6.828,8.667,2.777,6.043,5.493,17.261,2.668,36.39A.193.193,0,0,1,1086.911,486.506Z" transform="translate(-1077.322 -441.261)" fill="#bc7964"/>
          </g>
          <g id="Grupo_1151451" data-name="Grupo 1151451" transform="translate(31.177 37.417)">
            <path id="Trazado_986154" data-name="Trazado 986154" d="M1066.269,510.935a1.423,1.423,0,0,1-.923-.391.365.365,0,0,1,.477-.552c.395.341.628.211.821.02a3.679,3.679,0,0,0,.707-2.956c-.05-.06-.093-.082-.147-.072-.316,0-.876.475-1.155.8a.365.365,0,0,1-.551-.478c.153-.175.948-1.047,1.707-1.047h.008a.9.9,0,0,1,.7.331c.591.7.141,3.062-.753,3.946A1.263,1.263,0,0,1,1066.269,510.935Z" transform="translate(-1065.219 -506.254)" fill="#754c24"/>
          </g>
        </g>
        <g id="Grupo_1151453" data-name="Grupo 1151453" transform="translate(32.101 1.764)">
          <path id="Trazado_986155" data-name="Trazado 986155" d="M1074.149,414.281h-.065a5.636,5.636,0,0,1-5.813-4.073c-.93-3.244.129-5.111,1.181-6.105a8.12,8.12,0,0,1,7.378-1.521,4.923,4.923,0,0,1,3.242,5.068,3.365,3.365,0,0,1-2.91,3.192,3.32,3.32,0,0,1-2.871-.659,3.371,3.371,0,0,1-.881-2.524.164.164,0,0,1,.327.027,3.1,3.1,0,0,0,.782,2.259,3.3,3.3,0,0,0,5.226-2.326,4.59,4.59,0,0,0-3.022-4.725,7.881,7.881,0,0,0-7.043,1.45c-1.433,1.355-1.8,3.3-1.09,5.775a5.329,5.329,0,0,0,5.5,3.834h.065c3.044,0,6.117-1.581,6.515-2.892a.164.164,0,1,1,.315.1C1080.5,412.744,1077.132,414.281,1074.149,414.281Z" transform="translate(-1067.914 -402.268)" fill="#bc7964"/>
        </g>
        <g id="Grupo_1151460" data-name="Grupo 1151460" transform="translate(29.086 8.941)">
          <g id="Grupo_1151455" data-name="Grupo 1151455" transform="translate(0 1.706)">
            <g id="Grupo_1151454" data-name="Grupo 1151454">
              <path id="Trazado_986156" data-name="Trazado 986156" d="M1071.571,433.751a33.275,33.275,0,0,0-12.184-5.572l-.264.9a28.606,28.606,0,0,1,11.734,5.183Z" transform="translate(-1059.122 -428.179)"/>
            </g>
          </g>
          <g id="Grupo_1151457" data-name="Grupo 1151457" transform="translate(0.247 0.869)">
            <g id="Grupo_1151456" data-name="Grupo 1151456">
              <path id="Trazado_986157" data-name="Trazado 986157" d="M1072.751,431.667a38.225,38.225,0,0,0-12.644-5.931l-.264.9a32.558,32.558,0,0,1,12.2,5.513Z" transform="translate(-1059.843 -425.736)" fill="#fff"/>
            </g>
          </g>
          <g id="Grupo_1151459" data-name="Grupo 1151459" transform="translate(0.5)">
            <g id="Grupo_1151458" data-name="Grupo 1151458">
              <path id="Trazado_986158" data-name="Trazado 986158" d="M1074.254,429.587c-4.862-4.357-12.178-6.1-13.409-6.385l-.264.9a37.124,37.124,0,0,1,12.652,5.9Z" transform="translate(-1060.581 -423.202)"/>
            </g>
          </g>
        </g>
        <g id="Grupo_1151461" data-name="Grupo 1151461" transform="translate(16.361 32.724)">
          <path id="Trazado_986159" data-name="Trazado 986159" d="M1032.175,496.9a.482.482,0,0,1-.406-.221c-.121-.189-3.049-4.6-9.135-2.669a.481.481,0,0,1-.291-.916,8.83,8.83,0,0,1,10.236,3.067.48.48,0,0,1-.146.663A.488.488,0,0,1,1032.175,496.9Z" transform="translate(-1022.008 -492.567)" fill="#42210b"/>
        </g>
        <g id="Grupo_1151462" data-name="Grupo 1151462" transform="translate(0.741 29.349)">
          <path id="Trazado_986160" data-name="Trazado 986160" d="M986.616,487.056a.481.481,0,0,1-.4-.221c-.121-.189-3.046-4.6-9.135-2.669a.48.48,0,0,1-.29-.916,8.825,8.825,0,0,1,10.235,3.068.481.481,0,0,1-.4.739Z" transform="translate(-976.45 -482.725)" fill="#42210b"/>
        </g>
        <g id="Grupo_1151465" data-name="Grupo 1151465" transform="translate(17.477 35.529)">
          <g id="Grupo_1151463" data-name="Grupo 1151463" transform="translate(1.719)">
            <path id="Trazado_986161" data-name="Trazado 986161" d="M1030.963,502.3a2.409,2.409,0,0,0-.238-1.55,5.432,5.432,0,0,1,1.059.058c1.643.249,2.868,1.159,2.736,2.031s-1.571,1.379-3.215,1.129a5.392,5.392,0,0,1-1.028-.258A2.421,2.421,0,0,0,1030.963,502.3Z" transform="translate(-1030.276 -500.749)" fill="#fff"/>
          </g>
          <g id="Grupo_1151464" data-name="Grupo 1151464" transform="translate(0 0.005)">
            <path id="Trazado_986162" data-name="Trazado 986162" d="M1025.271,501.951c.1-.678.994-1.134,2.156-1.187a2.63,2.63,0,0,1-.449,2.961C1025.885,503.329,1025.168,502.629,1025.271,501.951Z" transform="translate(-1025.262 -500.764)" fill="#42210b"/>
          </g>
        </g>
        <g id="Grupo_1151468" data-name="Grupo 1151468" transform="translate(2.191 32.25)">
          <g id="Grupo_1151466" data-name="Grupo 1151466" transform="translate(1.735)">
            <path id="Trazado_986163" data-name="Trazado 986163" d="M986.432,492.745a2.4,2.4,0,0,0-.241-1.555,5.454,5.454,0,0,1,1.039.059c1.643.249,2.868,1.159,2.735,2.031s-1.571,1.379-3.215,1.129a5.423,5.423,0,0,1-1.01-.252A2.4,2.4,0,0,0,986.432,492.745Z" transform="translate(-985.741 -491.185)" fill="#fff"/>
          </g>
          <g id="Grupo_1151467" data-name="Grupo 1151467" transform="translate(0 0.004)">
            <path id="Trazado_986164" data-name="Trazado 986164" d="M980.69,492.386c.1-.682,1-1.139,2.175-1.188a2.626,2.626,0,0,1-.45,2.969C981.311,493.772,980.586,493.068,980.69,492.386Z" transform="translate(-980.68 -491.198)" fill="#42210b"/>
          </g>
        </g>
        <g id="Grupo_1151469" data-name="Grupo 1151469" transform="translate(19.915 41.336)">
          <ellipse id="Elipse_11713" data-name="Elipse 11713" cx="2.245" cy="1.364" rx="2.245" ry="1.364" fill="#f4a587"/>
        </g>
        <g id="Grupo_1151470" data-name="Grupo 1151470" transform="translate(0.493 37.234)">
          <path id="Trazado_986165" data-name="Trazado 986165" d="M975.82,506.292c-.339.672.283,1.67,1.389,2.229s2.279.467,2.618-.2-.283-1.67-1.389-2.229S976.16,505.62,975.82,506.292Z" transform="translate(-975.728 -505.721)" fill="#f4a587"/>
        </g>
        <g id="Grupo_1151471" data-name="Grupo 1151471" transform="translate(8.552 34.108)">
          <path id="Trazado_986166" data-name="Trazado 986166" d="M1002.182,507.105a.364.364,0,0,1-.139-.028l-1.981-.819a1.274,1.274,0,0,1-.738-1.662l3.2-7.768a.365.365,0,1,1,.675.278l-3.2,7.768a.547.547,0,0,0,.342.71l1.981.819a.365.365,0,0,1-.14.7Z" transform="translate(-999.23 -496.603)" fill="#754c24"/>
        </g>
        <g id="Grupo_1151472" data-name="Grupo 1151472" transform="translate(8.555 46.85)">
          <path id="Trazado_986167" data-name="Trazado 986167" d="M1001.413,535.3a2.537,2.537,0,0,1-2.1-.942.365.365,0,0,1,.576-.447c.889,1.148,2.748.444,2.768.437a.365.365,0,0,1,.264.681A4.6,4.6,0,0,1,1001.413,535.3Z" transform="translate(-999.239 -533.769)" fill="#754c24"/>
        </g>
      </g>
      <g id="Grupo_1151474" data-name="Grupo 1151474" transform="translate(76.422 64.555)">
        <path id="Trazado_986168" data-name="Trazado 986168" d="M888.649,595.384a101.375,101.375,0,0,1-21.516,26.65l-6.156,1.14c.085,1.356.042,2.915.131,4.242a68.962,68.962,0,0,1-9.068,5.9c-11.332-14.845-14.631-47.2-14.631-47.2s-25.618-7.229-36.708,24.554c-10.728,30.746-25.879,76.889-14.283,95.16s54.132,30.791,78.826,20.249L866.81,704.4s-20.55-12.175-34.444-15.281l35.372,1.2c6.1,32.469,14.459,39.527,28.108,39.61,20.182.122,24.567-43.325,21.331-90.714C914.034,593.2,888.649,595.384,888.649,595.384Z" transform="translate(-782.248 -585.408)" fill="#eaf2fb"/>
      </g>
      <g id="Grupo_1151475" data-name="Grupo 1151475" transform="translate(176.771 101.291)">
        <path id="Trazado_986169" data-name="Trazado 986169" d="M1093.118,752.05a.364.364,0,0,1-.36-.31,217.63,217.63,0,0,0-17.79-58.659.365.365,0,1,1,.651-.329,218.507,218.507,0,0,1,17.86,58.878.364.364,0,0,1-.305.415A.37.37,0,0,1,1093.118,752.05Z" transform="translate(-1074.929 -692.552)" fill="#754c24"/>
      </g>
      <g id="Grupo_1151476" data-name="Grupo 1151476" transform="translate(111.808 104.106)">
        <path id="Trazado_986170" data-name="Trazado 986170" d="M934.634,780.568a.361.361,0,0,1-.173-.044c-.4-.213-39.617-21.274-48.477-16.838a.365.365,0,0,1-.518-.412c.114-.473,11.368-47.482,8.561-62.081a.365.365,0,0,1,.717-.138c2.683,13.953-6.955,55.583-8.4,61.7,10.269-3.379,46.878,16.27,48.467,17.127a.365.365,0,0,1,.148.494A.37.37,0,0,1,934.634,780.568Z" transform="translate(-885.456 -700.761)" fill="#754c24"/>
      </g>
      <g id="Grupo_1151485" data-name="Grupo 1151485" transform="translate(99.628 64.142)">
        <g id="Grupo_1151477" data-name="Grupo 1151477" transform="translate(0 102.238)">
          <path id="Trazado_986171" data-name="Trazado 986171" d="M850.3,889.023a.365.365,0,0,1-.256-.624c.231-.228,5.73-5.6,12.179-6a.365.365,0,1,1,.046.728c-6.173.385-11.657,5.741-11.712,5.8A.361.361,0,0,1,850.3,889.023Z" transform="translate(-849.932 -882.393)" fill="#754c24"/>
        </g>
        <g id="Grupo_1151478" data-name="Grupo 1151478" transform="translate(0.761 104.142)">
          <path id="Trazado_986172" data-name="Trazado 986172" d="M852.516,897.62a.365.365,0,0,1-.332-.516,19.679,19.679,0,0,1,8.742-9.125.365.365,0,0,1,.309.661,19.3,19.3,0,0,0-8.387,8.765A.364.364,0,0,1,852.516,897.62Z" transform="translate(-852.151 -887.945)" fill="#754c24"/>
        </g>
        <g id="Grupo_1151479" data-name="Grupo 1151479" transform="translate(18.897)">
          <path id="Trazado_986173" data-name="Trazado 986173" d="M921.3,604.3a.365.365,0,0,1-.276-.127L905.137,585.73a.365.365,0,0,1,.129-.572c4.507-1.988,12.577-.266,12.919-.192a.365.365,0,0,1-.155.714c-.078-.017-7.625-1.626-12.007-.038L921.581,603.7a.364.364,0,0,1-.277.6Z" transform="translate(-905.049 -584.203)" fill="#754c24"/>
        </g>
        <g id="Grupo_1151480" data-name="Grupo 1151480" transform="translate(73.511 10.065)">
          <path id="Trazado_986174" data-name="Trazado 986174" d="M1064.7,628.123a.365.365,0,0,1-.141-.7l21.808-9.076a27.827,27.827,0,0,0-12.616-4.058.364.364,0,0,1-.327-.4.371.371,0,0,1,.4-.327c8.951.894,13.337,4.438,13.519,4.589a.365.365,0,0,1-.092.618l-22.41,9.327A.366.366,0,0,1,1064.7,628.123Z" transform="translate(-1064.336 -613.56)" fill="#754c24"/>
        </g>
        <g id="Grupo_1151481" data-name="Grupo 1151481" transform="translate(45.462 55.368)">
          <path id="Trazado_986175" data-name="Trazado 986175" d="M985.1,746.975a1.285,1.285,0,1,1-1.285-1.285A1.285,1.285,0,0,1,985.1,746.975Z" transform="translate(-982.529 -745.69)" fill="#998675"/>
        </g>
        <g id="Grupo_1151482" data-name="Grupo 1151482" transform="translate(42.766 74.035)">
          <path id="Trazado_986176" data-name="Trazado 986176" d="M977.235,801.42a1.285,1.285,0,1,1-1.285-1.285A1.285,1.285,0,0,1,977.235,801.42Z" transform="translate(-974.666 -800.135)" fill="#998675"/>
        </g>
        <g id="Grupo_1151483" data-name="Grupo 1151483" transform="translate(41.658 94.657)">
          <path id="Trazado_986177" data-name="Trazado 986177" d="M974,861.568a1.285,1.285,0,1,1-1.285-1.285A1.285,1.285,0,0,1,974,861.568Z" transform="translate(-971.432 -860.283)" fill="#998675"/>
        </g>
        <g id="Grupo_1151484" data-name="Grupo 1151484" transform="translate(36.143 36.086)">
          <circle id="Elipse_11714" data-name="Elipse 11714" cx="1.427" cy="1.427" r="1.427" fill="#998675"/>
        </g>
      </g>
      <g id="Grupo_1151486" data-name="Grupo 1151486" transform="translate(159.419 183.549)">
        <path id="Trazado_986178" data-name="Trazado 986178" d="M1025.887,932.466h19.056l-2.091,19.413h-3.189l3.072,1.506-.322,3.67-18.093-2.912Z" transform="translate(-1024.32 -932.466)" fill="#eaf2fb"/>
      </g>
      <g id="Grupo_1151487" data-name="Grupo 1151487" transform="translate(160.62 183.184)">
        <path id="Trazado_986179" data-name="Trazado 986179" d="M1045.153,951.544l-.04,0a.364.364,0,0,1-.323-.4l2.049-19.008h-18.653a.365.365,0,1,1,0-.73h19.059a.367.367,0,0,1,.272.121.363.363,0,0,1,.091.283l-2.093,19.413A.363.363,0,0,1,1045.153,951.544Z" transform="translate(-1027.821 -931.402)" fill="#c7b299"/>
      </g>
      <g id="Grupo_1151488" data-name="Grupo 1151488" transform="translate(159.109 184.995)">
        <path id="Trazado_986180" data-name="Trazado 986180" d="M1023.78,956.521a.338.338,0,0,1-.065-.006.365.365,0,0,1-.295-.423c2.59-14.532,1.4-18.9,1.389-18.941a.365.365,0,0,1,.7-.207c.053.177,1.262,4.5-1.371,19.277A.366.366,0,0,1,1023.78,956.521Z" transform="translate(-1023.414 -936.685)" fill="#754c24"/>
      </g>
      <g id="Grupo_1151489" data-name="Grupo 1151489" transform="translate(164.278 176.411)">
        <path id="Trazado_986181" data-name="Trazado 986181" d="M1038.49,916.757s4.263,19.834,12.822,24.54l13.317-7.284-.571-22.362Z" transform="translate(-1038.49 -911.65)" fill="#eaf2fb"/>
      </g>
      <g id="Grupo_1151490" data-name="Grupo 1151490" transform="translate(155.127 109.453)">
        <path id="Trazado_986182" data-name="Trazado 986182" d="M1034.173,813.329a.361.361,0,0,1-.213-.069c-12.148-8.756-18.359-35.816-22.157-96.514a.365.365,0,0,1,.341-.387.371.371,0,0,1,.387.341c3.782,60.45,9.91,87.357,21.855,95.968a.365.365,0,0,1-.213.661Z" transform="translate(-1011.802 -716.358)" fill="#754c24"/>
      </g>
      <g id="Grupo_1151491" data-name="Grupo 1151491" transform="translate(169.632 43.739)">
        <path id="Trazado_986183" data-name="Trazado 986183" d="M1057.493,531.462a3.384,3.384,0,1,1,3.384-3.384A3.388,3.388,0,0,1,1057.493,531.462Zm0-6.04a2.655,2.655,0,1,0,2.655,2.655A2.658,2.658,0,0,0,1057.493,525.422Z" transform="translate(-1054.108 -524.693)" fill="#d98b19"/>
      </g>
      <g id="Grupo_1151492" data-name="Grupo 1151492" transform="translate(172.208 41.957)">
        <path id="Trazado_986184" data-name="Trazado 986184" d="M1063.983,520.678a1.181,1.181,0,1,1-1.181-1.181A1.181,1.181,0,0,1,1063.983,520.678Z" transform="translate(-1061.621 -519.497)" fill="#efeeea"/>
      </g>
      <g id="Grupo_1151493" data-name="Grupo 1151493" transform="translate(144.005 66.51)">
        <path id="Trazado_986185" data-name="Trazado 986185" d="M991.883,598.934a13.363,13.363,0,0,1-2.952-.327,16.046,16.046,0,0,1-9.519-6.949.365.365,0,1,1,.628-.371c.031.053,3.182,5.287,9.059,6.609,4.048.912,8.441-.209,13.055-3.33a.365.365,0,1,1,.409.6C998.86,597.675,995.28,598.934,991.883,598.934Z" transform="translate(-979.362 -591.108)" fill="#d98b19"/>
      </g>
      <g id="Grupo_1151494" data-name="Grupo 1151494" transform="translate(144.073 68.108)">
        <path id="Trazado_986186" data-name="Trazado 986186" d="M980.628,596.3a.533.533,0,1,1-.533-.533A.533.533,0,0,1,980.628,596.3Z" transform="translate(-979.562 -595.768)" fill="#d98b19"/>
      </g>
      <g id="Grupo_1151495" data-name="Grupo 1151495" transform="translate(147.858 71.68)">
        <path id="Trazado_986187" data-name="Trazado 986187" d="M991.667,606.722a.533.533,0,1,1-.533-.533A.533.533,0,0,1,991.667,606.722Z" transform="translate(-990.601 -606.189)" fill="#d98b19"/>
      </g>
      <g id="Grupo_1151496" data-name="Grupo 1151496" transform="translate(154.551 74.039)">
        <path id="Trazado_986188" data-name="Trazado 986188" d="M1011.187,613.6a.533.533,0,1,1-.533-.533A.533.533,0,0,1,1011.187,613.6Z" transform="translate(-1010.121 -613.068)" fill="#d98b19"/>
      </g>
      <g id="Grupo_1151497" data-name="Grupo 1151497" transform="translate(160.496 73.506)">
        <path id="Trazado_986189" data-name="Trazado 986189" d="M1028.527,612.047a.533.533,0,1,1-.533-.533A.533.533,0,0,1,1028.527,612.047Z" transform="translate(-1027.461 -611.514)" fill="#d98b19"/>
      </g>
      <g id="Grupo_1151498" data-name="Grupo 1151498" transform="translate(165.554 71.26)">
        <path id="Trazado_986190" data-name="Trazado 986190" d="M1043.2,605.781a.533.533,0,1,1-.165-.735A.533.533,0,0,1,1043.2,605.781Z" transform="translate(-1042.213 -604.963)" fill="#d98b19"/>
      </g>
      <g id="Grupo_1151500" data-name="Grupo 1151500" transform="translate(143.286 66.633)">
        <g id="Grupo_1151499" data-name="Grupo 1151499">
          <path id="Trazado_986191" data-name="Trazado 986191" d="M985.157,621.1a2.832,2.832,0,0,1-2.471-1.938c-4.7-9.646-5.412-27.237-5.419-27.413a.273.273,0,0,1,.263-.284.262.262,0,0,1,.283.263c.007.175.716,17.652,5.364,27.194.545,1.117,1.221,1.645,2.026,1.63,5.647-.143,16.187-24.724,16.293-24.973a.274.274,0,1,1,.5.214c-.438,1.027-10.787,25.154-16.783,25.305Z" transform="translate(-977.266 -591.468)" fill="#efeeea"/>
        </g>
      </g>
      <g id="Grupo_1151501" data-name="Grupo 1151501" transform="translate(146.684 94.905)">
        <path id="Trazado_986192" data-name="Trazado 986192" d="M993.606,677.142a3.726,3.726,0,0,1-3.458,3.545c-1.776,0-2.972-1.769-2.972-3.545a3.215,3.215,0,1,1,6.43,0Z" transform="translate(-987.176 -673.927)" fill="#efeeea"/>
      </g>
      <g id="Grupo_1151502" data-name="Grupo 1151502" transform="translate(128.45 284.403)">
        <path id="Trazado_986193" data-name="Trazado 986193" d="M945.412,1226.62s-20.06,47.025-7,165.532Z" transform="translate(-933.994 -1226.62)" fill="#262325"/>
      </g>
      <g id="Grupo_1151503" data-name="Grupo 1151503" transform="translate(146.138 57.159)">
        <path id="Trazado_986194" data-name="Trazado 986194" d="M986.726,563.834l-1.143,7.258s17.006,6.512,18.232,3.691-.476-10.2-.476-10.2-5.483,2.9-9.926,1.79A24.469,24.469,0,0,1,986.726,563.834Z" transform="translate(-985.583 -563.834)" fill="#bf6f5c"/>
      </g>
      <g id="Grupo_1151508" data-name="Grupo 1151508" transform="translate(140.47 48.837)">
        <g id="Grupo_1151504" data-name="Grupo 1151504">
          <path id="Trazado_986195" data-name="Trazado 986195" d="M969.06,551.87c-.193,2.4,3.137,2.735,7.7,3.026.377.024.721.1,1.049.151.416.06.8.117,1.174.173a3,3,0,0,0-1.666.269,2,2,0,0,0-1.3,1.717l-.03.37a2,2,0,0,0,1.512,2.1,5.99,5.99,0,0,0,2.1.2l.083.007c-.16.025-2.574-.135-2.775,2.237h0a2.293,2.293,0,0,0,2.1,2.47l2.176.175a2.042,2.042,0,0,0-2.2,1.872l-.045.553a2.042,2.042,0,0,0,1.865,2.2,3.329,3.329,0,0,0,.78.31l5.287,15.776,11.4-.671-.359-20.213-.183-15.358s1.515-9.433-1.429-9.666c-4.332-.342-4.9,13.907-4.9,13.907s-6.86-3.412-9.364-3.235S969.266,549.31,969.06,551.87Z" transform="translate(-969.052 -539.562)" fill="#e09579"/>
        </g>
        <g id="Grupo_1151505" data-name="Grupo 1151505" transform="translate(9.646 15.593)">
          <path id="Trazado_986196" data-name="Trazado 986196" d="M1004.868,586.543h-.006c-.06-.017-6.007-1.7-7.652-1.433a.024.024,0,0,1-.023-.017.021.021,0,0,1,.017-.023,2.805,2.805,0,0,1,.429-.028c2.064,0,7.185,1.446,7.241,1.462a.019.019,0,0,1,.013.025A.018.018,0,0,1,1004.868,586.543Z" transform="translate(-997.186 -585.041)" fill="#754c24"/>
        </g>
        <g id="Grupo_1151506" data-name="Grupo 1151506" transform="translate(10.407 20.318)">
          <path id="Trazado_986197" data-name="Trazado 986197" d="M1005.948,600.278h0l-6.524-1.414a.02.02,0,0,1-.015-.024.019.019,0,0,1,.024-.015l6.524,1.414a.021.021,0,0,1,.016.024C1005.968,600.271,1005.958,600.278,1005.948,600.278Z" transform="translate(-999.404 -598.823)" fill="#754c24"/>
        </g>
        <g id="Grupo_1151507" data-name="Grupo 1151507" transform="translate(11.891 25.178)">
          <path id="Trazado_986198" data-name="Trazado 986198" d="M1007.994,614.179h-.005l-4.241-1.141a.02.02,0,0,1-.014-.025.019.019,0,0,1,.025-.014l4.24,1.141a.02.02,0,0,1,.014.025A.018.018,0,0,1,1007.994,614.179Z" transform="translate(-1003.733 -612.998)" fill="#754c24"/>
        </g>
      </g>
      <g id="Grupo_1151513" data-name="Grupo 1151513" transform="translate(140.106 48.472)">
        <g id="Grupo_1151509" data-name="Grupo 1151509">
          <path id="Trazado_986199" data-name="Trazado 986199" d="M986.179,585.142a.364.364,0,0,1-.346-.249L980.607,569.3a3.919,3.919,0,0,1-.6-.252,2.412,2.412,0,0,1-2.121-2.584l.045-.553a2.391,2.391,0,0,1,.814-1.617l-.456-.037a2.723,2.723,0,0,1-1.383-4.863c-.076-.02-.149-.043-.219-.066a2.348,2.348,0,0,1-1.755-2.479l.03-.37a2.38,2.38,0,0,1,1.252-1.9c-.056-.006-.113-.011-.171-.015-3.716-.237-6.432-.5-7.536-1.778a2.151,2.151,0,0,1-.5-1.641h0c.171-2.122,4.848-2.156,10.485-1.99,1.211.036,2.257.067,2.834.026,2.2-.164,7.408,2.241,9.053,3.03.134-2.271.8-10.682,3.468-13.048a2.374,2.374,0,0,1,1.8-.654,1.677,1.677,0,0,1,1.215.681c1.688,2.147.592,9.11.545,9.405l.188,15.3.359,20.211a.365.365,0,0,1-.344.371l-11.4.671Zm-5.856-20.717a1.679,1.679,0,0,0-1.669,1.543l-.044.553a1.68,1.68,0,0,0,1.532,1.806.358.358,0,0,1,.144.043,3.015,3.015,0,0,0,.686.274.365.365,0,0,1,.265.24l5.2,15.512,10.773-.634-.353-19.863-.183-15.36c.313-1.987.845-7.327-.393-8.9a.962.962,0,0,0-.7-.4,1.655,1.655,0,0,0-1.258.472c-2.8,2.481-3.247,12.981-3.251,13.086a.365.365,0,0,1-.527.312c-.068-.034-6.784-3.353-9.176-3.2-.614.045-1.677.012-2.907-.025-3.116-.091-9.606-.284-9.736,1.319h0a1.429,1.429,0,0,0,.329,1.105c.916,1.059,3.608,1.31,7.03,1.527a7.1,7.1,0,0,1,.765.1c.107.019.211.037.313.052.417.06.8.117,1.177.174a.365.365,0,0,1,.307.4.369.369,0,0,1-.395.32,2.621,2.621,0,0,0-1.457.226,1.677,1.677,0,0,0-1.111,1.427l-.03.37a1.631,1.631,0,0,0,1.236,1.721,5.747,5.747,0,0,0,2,.186l.125.007a.365.365,0,0,1,.029.724,1.2,1.2,0,0,1-.136.009c-1.444.038-2.229.677-2.332,1.9a1.93,1.93,0,0,0,1.768,2.076l2.176.175a.365.365,0,1,1-.058.728h0C980.412,564.427,980.367,564.425,980.323,564.425Z" transform="translate(-967.99 -538.498)" fill="#754c24"/>
        </g>
        <g id="Grupo_1151510" data-name="Grupo 1151510" transform="translate(9.053 15.606)">
          <path id="Trazado_986200" data-name="Trazado 986200" d="M1003.032,586.331a.361.361,0,0,1-.09-.011c-2.274-.581-6.9-1.647-8.158-1.569a.358.358,0,0,1-.39-.338.364.364,0,0,1,.338-.389c1.683-.128,8.116,1.52,8.39,1.59a.365.365,0,0,1-.09.718Z" transform="translate(-994.393 -584.016)" fill="#754c24"/>
        </g>
        <g id="Grupo_1151511" data-name="Grupo 1151511" transform="translate(10.55 20.315)">
          <path id="Trazado_986201" data-name="Trazado 986201" d="M1006.028,599.749a.344.344,0,0,1-.067-.006l-6.9-1.271a.365.365,0,1,1,.132-.717l6.9,1.271a.365.365,0,0,1-.066.723Z" transform="translate(-998.759 -597.748)" fill="#754c24"/>
        </g>
        <g id="Grupo_1151512" data-name="Grupo 1151512" transform="translate(12.134 25.203)">
          <path id="Trazado_986202" data-name="Trazado 986202" d="M1007.763,613.872a.355.355,0,0,1-.1-.014l-4.017-1.135a.364.364,0,0,1,.2-.7l4.017,1.135a.365.365,0,0,1-.1.716Z" transform="translate(-1003.381 -612.006)" fill="#754c24"/>
        </g>
      </g>
      <g id="Grupo_1151514" data-name="Grupo 1151514" transform="translate(149.657 79.584)">
        <path id="Trazado_986203" data-name="Trazado 986203" d="M1001.344,651.98l-5.5-18.25,19.191-3.592,1.646,5.467-.168-5.79,2.753-.572,3.281,17.987Z" transform="translate(-995.847 -629.242)" fill="#efeeea"/>
      </g>
      <g id="Grupo_1151515" data-name="Grupo 1151515" transform="translate(156.287 97.92)">
        <path id="Trazado_986204" data-name="Trazado 986204" d="M1015.551,687.15a.365.365,0,0,1-.088-.719c.118-.029,11.877-2.954,18.3-3.709a.365.365,0,0,1,.085.724c-6.374.75-18.088,3.663-18.205,3.693A.376.376,0,0,1,1015.551,687.15Z" transform="translate(-1015.186 -682.719)" fill="#754c24"/>
      </g>
    </g>
  </g>
</svg>
