<svg xmlns="http://www.w3.org/2000/svg" xmlns:xlink="http://www.w3.org/1999/xlink" width="108" height="108" viewBox="0 0 108 108">
  <defs>
    <filter id="Trazado_982550" x="0" y="0" width="108" height="108" filterUnits="userSpaceOnUse">
      <feOffset dy="3" input="SourceAlpha"/>
      <feGaussianBlur stdDeviation="3" result="blur"/>
      <feFlood flood-opacity="0.161"/>
      <feComposite operator="in" in2="blur"/>
      <feComposite in="SourceGraphic"/>
    </filter>
  </defs>
  <g id="Grupo_1151521" data-name="Grupo 1151521" transform="translate(-201 -4785)">
    <g id="Grupo_1150789" data-name="Grupo 1150789" transform="translate(0 3180)">
      <g transform="matrix(1, 0, 0, 1, 201, 1605)" filter="url(#Trazado_982550)">
        <g id="Trazado_982550-2" data-name="Trazado 982550" transform="translate(9 6)" fill="#f3f3f3">
          <path d="M 45 88.5 C 39.12687683105469 88.5 33.43022537231445 87.35007476806641 28.06830024719238 85.08217620849609 C 22.88852500915527 82.89131164550781 18.23629951477051 79.75458526611328 14.2408504486084 75.75914764404297 C 10.24541282653809 71.76370239257812 7.108687400817871 67.11147308349609 4.917825222015381 61.93170166015625 C 2.649924993515015 56.56977462768555 1.5 50.87312316894531 1.5 45 C 1.5 39.12687683105469 2.649924993515015 33.43022537231445 4.917825222015381 28.06830024719238 C 7.108687400817871 22.88852500915527 10.24541282653809 18.23629951477051 14.2408504486084 14.2408504486084 C 18.23629951477051 10.24541282653809 22.88852500915527 7.108687400817871 28.06830024719238 4.917825222015381 C 33.43022537231445 2.649924993515015 39.12687683105469 1.5 45 1.5 C 50.87312316894531 1.5 56.56977462768555 2.649924993515015 61.93170166015625 4.917825222015381 C 67.11147308349609 7.108687400817871 71.76370239257812 10.24541282653809 75.75914764404297 14.2408504486084 C 79.75458526611328 18.23629951477051 82.89131164550781 22.88852500915527 85.08217620849609 28.06830024719238 C 87.35007476806641 33.43022537231445 88.5 39.12687683105469 88.5 45 C 88.5 50.87312316894531 87.35007476806641 56.56977462768555 85.08217620849609 61.93170166015625 C 82.89131164550781 67.11147308349609 79.75458526611328 71.76370239257812 75.75914764404297 75.75914764404297 C 71.76370239257812 79.75458526611328 67.11147308349609 82.89131164550781 61.93170166015625 85.08217620849609 C 56.56977462768555 87.35007476806641 50.87312316894531 88.5 45 88.5 Z" stroke="none"/>
          <path d="M 45 3 C 39.32871246337891 3 33.82865524291992 4.110054016113281 28.65262985229492 6.299339294433594 C 23.65165710449219 8.414573669433594 19.15968322753906 11.44334411621094 15.301513671875 15.301513671875 C 11.44334411621094 19.15968322753906 8.414573669433594 23.65165710449219 6.299339294433594 28.65262985229492 C 4.110054016113281 33.82865524291992 3 39.32871246337891 3 45 C 3 50.67128753662109 4.110054016113281 56.17134475708008 6.299339294433594 61.34737396240234 C 8.414573669433594 66.34834289550781 11.44334411621094 70.84031677246094 15.301513671875 74.698486328125 C 19.15968322753906 78.55665588378906 23.65165710449219 81.58542633056641 28.65262985229492 83.70066070556641 C 33.82865524291992 85.88994598388672 39.32871246337891 87 45 87 C 50.67128753662109 87 56.17134475708008 85.88994598388672 61.34737396240234 83.70066070556641 C 66.34834289550781 81.58542633056641 70.84031677246094 78.55665588378906 74.698486328125 74.698486328125 C 78.55665588378906 70.84031677246094 81.58542633056641 66.34834289550781 83.70066070556641 61.34737396240234 C 85.88994598388672 56.17134475708008 87 50.67128753662109 87 45 C 87 39.32871246337891 85.88994598388672 33.82865524291992 83.70066070556641 28.65262985229492 C 81.58542633056641 23.65165710449219 78.55665588378906 19.15968322753906 74.698486328125 15.301513671875 C 70.84031677246094 11.44334411621094 66.34834289550781 8.414573669433594 61.34737396240234 6.299339294433594 C 56.17134475708008 4.110054016113281 50.67128753662109 3 45 3 M 45 0 C 69.85281372070312 0 90 20.14718627929688 90 45 C 90 69.85281372070312 69.85281372070312 90 45 90 C 20.14718627929688 90 0 69.85281372070312 0 45 C 0 20.14718627929688 20.14718627929688 0 45 0 Z" stroke="none" fill="#82e0e0"/>
        </g>
      </g>
    </g>
    <g id="gestion-de-proyectos" transform="translate(228.07 4808.907)">
      <g id="Grupo_1151518" data-name="Grupo 1151518" transform="translate(0.86 0.847)">
        <path id="Trazado_986205" data-name="Trazado 986205" d="M8,8H45.017v52.49H8Z" transform="translate(-8 -7.999)" fill="#eceff1" fill-rule="evenodd"/>
        <path id="Trazado_986206" data-name="Trazado 986206" d="M182.894,8H201.4v52.49H182.894Z" transform="translate(-164.386 -7.999)" fill="#c4cccf" fill-rule="evenodd"/>
      </g>
      <g id="Grupo_1151519" data-name="Grupo 1151519" transform="translate(6.053 6.04)">
        <path id="Trazado_986207" data-name="Trazado 986207" d="M57.07,369.039H66.9v9.089H57.07Z" transform="translate(-57.07 -336.024)" fill="#d5e7ff" fill-rule="evenodd"/>
        <path id="Trazado_986208" data-name="Trazado 986208" d="M103.52,369.039h4.916v9.089H103.52Z" transform="translate(-98.604 -336.024)" fill="#acceff" fill-rule="evenodd"/>
        <path id="Trazado_986209" data-name="Trazado 986209" d="M57.07,213.055H66.9v9.089H57.07Z" transform="translate(-57.07 -196.548)" fill="#f6dccd" fill-rule="evenodd"/>
        <path id="Trazado_986210" data-name="Trazado 986210" d="M103.52,213.055h4.916v9.089H103.52Z" transform="translate(-98.604 -196.548)" fill="#f1cbbc" fill-rule="evenodd"/>
        <path id="Trazado_986211" data-name="Trazado 986211" d="M57.07,57.07H66.9v9.089H57.07Z" transform="translate(-57.07 -57.07)" fill="#f9e997" fill-rule="evenodd"/>
        <path id="Trazado_986212" data-name="Trazado 986212" d="M103.52,57.07h4.916v9.089H103.52Z" transform="translate(-98.604 -57.07)" fill="#f5d844" fill-rule="evenodd"/>
      </g>
      <g id="Grupo_1151520" data-name="Grupo 1151520" transform="translate(22.404 24.511)">
        <path id="Trazado_986213" data-name="Trazado 986213" d="M240.155,254.195a2.281,2.281,0,0,1,2.369,2.165v22.105a2.281,2.281,0,0,1-2.369,2.165H213.949a2.281,2.281,0,0,1-2.37-2.165V256.36a2.281,2.281,0,0,1,2.37-2.165Z" transform="translate(-211.579 -251.804)" fill="#d5e7ff" fill-rule="evenodd"/>
        <path id="Trazado_986214" data-name="Trazado 986214" d="M370.893,254.195a2.281,2.281,0,0,1,2.369,2.165v22.105a2.281,2.281,0,0,1-2.369,2.165h-13.1V254.195Z" transform="translate(-342.317 -251.804)" fill="#acceff" fill-rule="evenodd"/>
        <path id="Trazado_986215" data-name="Trazado 986215" d="M211.579,260.3h30.946v-3.943a2.281,2.281,0,0,0-2.369-2.165H213.949a2.281,2.281,0,0,0-2.37,2.165Z" transform="translate(-211.579 -251.804)" fill="#76e2f8" fill-rule="evenodd"/>
        <path id="Trazado_986216" data-name="Trazado 986216" d="M357.79,260.3h15.473v-3.943a2.281,2.281,0,0,0-2.369-2.165h-13.1Z" transform="translate(-342.317 -251.804)" fill="#3aaaff" fill-rule="evenodd"/>
        <path id="Trazado_986217" data-name="Trazado 986217" d="M254.2,231.606h1.151a1.039,1.039,0,0,1,1.036,1.036v3.339a1.039,1.039,0,0,1-1.036,1.036H254.2a1.039,1.039,0,0,1-1.036-1.036v-3.339A1.039,1.039,0,0,1,254.2,231.606Z" transform="translate(-248.761 -231.606)" fill="#697c86" fill-rule="evenodd"/>
        <path id="Trazado_986218" data-name="Trazado 986218" d="M268.392,231.606h.576A1.039,1.039,0,0,1,270,232.642v3.339a1.039,1.039,0,0,1-1.036,1.036h-.576Z" transform="translate(-262.38 -231.606)" fill="#3b4a51" fill-rule="evenodd"/>
        <path id="Trazado_986219" data-name="Trazado 986219" d="M343.6,231.606h1.151a1.039,1.039,0,0,1,1.036,1.036v3.339a1.039,1.039,0,0,1-1.036,1.036H343.6a1.039,1.039,0,0,1-1.036-1.036v-3.339A1.039,1.039,0,0,1,343.6,231.606Z" transform="translate(-328.699 -231.606)" fill="#697c86" fill-rule="evenodd"/>
        <path id="Trazado_986220" data-name="Trazado 986220" d="M355.666,231.606h.576a1.039,1.039,0,0,1,1.036,1.036v3.339a1.039,1.039,0,0,1-1.036,1.036h-.576Z" transform="translate(-340.418 -231.606)" fill="#3b4a51" fill-rule="evenodd"/>
        <path id="Trazado_986221" data-name="Trazado 986221" d="M428.527,231.606h1.152a1.039,1.039,0,0,1,1.036,1.036v3.339a1.039,1.039,0,0,1-1.036,1.036h-1.152a1.039,1.039,0,0,1-1.036-1.036v-3.339A1.039,1.039,0,0,1,428.527,231.606Z" transform="translate(-404.642 -231.606)" fill="#697c86" fill-rule="evenodd"/>
        <path id="Trazado_986222" data-name="Trazado 986222" d="M442.721,231.606h.576a1.039,1.039,0,0,1,1.036,1.036v3.339a1.039,1.039,0,0,1-1.036,1.036h-.576Z" transform="translate(-418.26 -231.606)" fill="#3b4a51" fill-rule="evenodd"/>
        <path id="Trazado_986223" data-name="Trazado 986223" d="M260.866,352.419h4.342v4.342h-4.342Z" transform="translate(-255.65 -339.634)" fill="#f9e997" fill-rule="evenodd"/>
        <path id="Trazado_986224" data-name="Trazado 986224" d="M281.384,352.419h2.171v4.342h-2.171Z" transform="translate(-273.997 -339.634)" fill="#f5d844" fill-rule="evenodd"/>
        <path id="Trazado_986225" data-name="Trazado 986225" d="M336.565,352.419h4.342v4.342h-4.342Z" transform="translate(-323.338 -339.634)" fill="#f9e997" fill-rule="evenodd"/>
        <path id="Trazado_986226" data-name="Trazado 986226" d="M357.082,352.419h2.171v4.342h-2.171Z" transform="translate(-341.684 -339.634)" fill="#f5d844" fill-rule="evenodd"/>
        <path id="Trazado_986227" data-name="Trazado 986227" d="M413.68,352.419h4.342v4.342H413.68Z" transform="translate(-392.292 -339.634)" fill="#f9e997" fill-rule="evenodd"/>
        <path id="Trazado_986228" data-name="Trazado 986228" d="M434.2,352.419h2.171v4.342H434.2Z" transform="translate(-410.637 -339.634)" fill="#f5d844" fill-rule="evenodd"/>
        <path id="Trazado_986229" data-name="Trazado 986229" d="M260.866,422.459h4.342V426.8h-4.342Z" transform="translate(-255.65 -402.262)" fill="#f9e997" fill-rule="evenodd"/>
        <path id="Trazado_986230" data-name="Trazado 986230" d="M281.384,422.459h2.171V426.8h-2.171Z" transform="translate(-273.997 -402.262)" fill="#f5d844" fill-rule="evenodd"/>
        <path id="Trazado_986231" data-name="Trazado 986231" d="M336.565,422.459h4.342V426.8h-4.342Z" transform="translate(-323.338 -402.262)" fill="#f9e997" fill-rule="evenodd"/>
        <path id="Trazado_986232" data-name="Trazado 986232" d="M357.082,422.459h2.171V426.8h-2.171Z" transform="translate(-341.684 -402.262)" fill="#f5d844" fill-rule="evenodd"/>
        <path id="Trazado_986233" data-name="Trazado 986233" d="M413.68,422.459h4.342V426.8H413.68Z" transform="translate(-392.292 -402.262)" fill="#f9e997" fill-rule="evenodd"/>
        <path id="Trazado_986234" data-name="Trazado 986234" d="M434.2,422.459h2.171V426.8H434.2Z" transform="translate(-410.637 -402.262)" fill="#f5d844" fill-rule="evenodd"/>
      </g>
      <path id="Trazado_986235" data-name="Trazado 986235" d="M50.979,26.058H49.324v-.51a1.885,1.885,0,0,0-1.884-1.881H46.291a1.885,1.885,0,0,0-1.884,1.881v.51H40.1v-.51a1.884,1.884,0,0,0-1.674-1.868V.847A.846.846,0,0,0,37.579,0H.861A.846.846,0,0,0,.015.847V53.338a.846.846,0,0,0,.846.846H50.979A3.122,3.122,0,0,0,54.2,51.172V29.066a3.121,3.121,0,0,0-3.216-3.009Zm-4.881-.51a.193.193,0,0,1,.192-.189h1.149a.193.193,0,0,1,.192.189v3.339a.193.193,0,0,1-.192.189H46.291a.193.193,0,0,1-.192-.189Zm-1.692,2.2v1.137a1.884,1.884,0,0,0,1.884,1.881h1.149a1.885,1.885,0,0,0,1.884-1.881V27.75h1.656A1.433,1.433,0,0,1,52.5,29.066v3.1H23.249v-3.1a1.433,1.433,0,0,1,1.524-1.317h1.185v1.137a1.885,1.885,0,0,0,1.884,1.881h1.149a1.885,1.885,0,0,0,1.884-1.881V27.75h4.308v1.137a1.885,1.885,0,0,0,1.884,1.881h1.149A1.885,1.885,0,0,0,40.1,28.886V27.75ZM27.65,28.886V25.548a.193.193,0,0,1,.192-.189h1.149a.193.193,0,0,1,.192.189v3.339a.193.193,0,0,1-.192.189H27.842A.193.193,0,0,1,27.65,28.886Zm10.565-3.528a.193.193,0,0,1,.192.189v3.339a.193.193,0,0,1-.192.189H37.066a.193.193,0,0,1-.192-.189V25.548a.193.193,0,0,1,.192-.189ZM1.707,1.693H36.733V23.7a1.883,1.883,0,0,0-1.551,1.85v.51H30.875v-.51a1.884,1.884,0,0,0-1.884-1.881H27.842a1.885,1.885,0,0,0-1.884,1.881v.51H24.773a3.121,3.121,0,0,0-3.216,3.009V51.172a2.839,2.839,0,0,0,.326,1.32H1.707Zm49.272,50.8H24.773a1.452,1.452,0,0,1-1.524-1.32V33.857H52.5V51.172a1.435,1.435,0,0,1-1.524,1.32ZM31.963,36.452a.846.846,0,0,1,.846.846v4.341a.846.846,0,0,1-.846.846H27.619a.846.846,0,0,1-.846-.846V37.3a.846.846,0,0,1,.846-.846Zm-.846,4.341H28.465V38.144h2.652Zm8.856-4.341a.846.846,0,0,1,.846.846v4.341a.846.846,0,0,1-.846.846H35.632a.846.846,0,0,1-.846-.846V37.3a.846.846,0,0,1,.846-.846Zm-.846,4.341H36.478V38.144h2.649Zm-7.164,3.072a.846.846,0,0,1,.846.846v4.341a.846.846,0,0,1-.846.846H27.619a.846.846,0,0,1-.846-.846V44.711a.846.846,0,0,1,.846-.846Zm-.846,4.341H28.465V45.557h2.652Zm8.856-4.341a.846.846,0,0,1,.846.846v4.341a.846.846,0,0,1-.846.846H35.632a.846.846,0,0,1-.846-.846V44.711a.846.846,0,0,1,.846-.846Zm-.846,4.341H36.478V45.557h2.649Zm9.009-11.753a.846.846,0,0,1,.846.846v4.341a.846.846,0,0,1-.846.846H43.792a.846.846,0,0,1-.846-.846V37.3a.846.846,0,0,1,.846-.846Zm-.846,4.341H44.638V38.144h2.652Zm.846,3.072a.846.846,0,0,1,.846.846v4.341a.846.846,0,0,1-.846.846H43.792a.846.846,0,0,1-.846-.846V44.711a.846.846,0,0,1,.846-.846Zm-.846,4.341H44.638V45.557h2.652ZM5.208,15.132V6.04a.846.846,0,0,1,.846-.846h9.831a.846.846,0,0,1,0,1.692H6.9v7.4h8.139V11.712L13.465,13.14a.846.846,0,0,1-1.166-.028L10.37,11.186a.846.846,0,0,1,1.2-1.2l1.359,1.357,4.083-3.706a.846.846,0,1,1,1.137,1.253L16.73,10.176v4.956a.846.846,0,0,1-.846.846H6.054a.846.846,0,0,1-.846-.846Zm0,16.505v-9.09a.846.846,0,0,1,.846-.846h9.831a.846.846,0,0,1,0,1.692H6.9v7.4h8.139V28.22l-1.573,1.428A.846.846,0,0,1,12.3,29.62l-1.929-1.929a.846.846,0,1,1,1.2-1.2l1.359,1.359,4.083-3.706A.846.846,0,1,1,18.145,25.4L16.73,26.684v4.953a.846.846,0,0,1-.846.846H6.054a.846.846,0,0,1-.846-.846Zm13,9.076a.846.846,0,0,1-.058,1.195L16.73,43.191v4.954a.846.846,0,0,1-.846.846H6.054a.846.846,0,0,1-.846-.846v-9.09a.846.846,0,0,1,.846-.846h9.831a.846.846,0,1,1,0,1.692H6.9v7.4h8.139V44.726l-1.574,1.427a.846.846,0,0,1-1.166-.028L10.37,44.2a.846.846,0,1,1,1.2-1.2l1.359,1.357,4.083-3.7a.846.846,0,0,1,1.195.058ZM21.557,6.04a.846.846,0,0,1,.846-.846h11a.846.846,0,1,1,0,1.692h-11A.846.846,0,0,1,21.557,6.04Zm0,4.545a.846.846,0,0,1,.846-.846h11a.846.846,0,1,1,0,1.692h-11A.846.846,0,0,1,21.557,10.584Z" transform="translate(0 0)" fill-rule="evenodd"/>
    </g>
  </g>
</svg>
