<svg xmlns="http://www.w3.org/2000/svg" xmlns:xlink="http://www.w3.org/1999/xlink" width="108" height="108" viewBox="0 0 108 108">
  <defs>
    <filter id="Trazado_982553" x="0" y="0" width="108" height="108" filterUnits="userSpaceOnUse">
      <feOffset dy="3" input="SourceAlpha"/>
      <feGaussianBlur stdDeviation="3" result="blur"/>
      <feFlood flood-opacity="0.161"/>
      <feComposite operator="in" in2="blur"/>
      <feComposite in="SourceGraphic"/>
    </filter>
  </defs>
  <g id="Grupo_1151556" data-name="Grupo 1151556" transform="translate(-201 -4970)">
    <g id="Grupo_1150791" data-name="Grupo 1150791" transform="translate(0 3180)">
      <g transform="matrix(1, 0, 0, 1, 201, 1790)" filter="url(#Trazado_982553)">
        <g id="Trazado_982553-2" data-name="Trazado 982553" transform="translate(9 6)" fill="#f3f3f3">
          <path d="M 45 88.5 C 39.12687683105469 88.5 33.43022537231445 87.35007476806641 28.06830024719238 85.08217620849609 C 22.88852500915527 82.89131164550781 18.23629951477051 79.75458526611328 14.2408504486084 75.75914764404297 C 10.24541282653809 71.76370239257812 7.108687400817871 67.11147308349609 4.917825222015381 61.93170166015625 C 2.649924993515015 56.56977462768555 1.5 50.87312316894531 1.5 45 C 1.5 39.12687683105469 2.649924993515015 33.43022537231445 4.917825222015381 28.06830024719238 C 7.108687400817871 22.88852500915527 10.24541282653809 18.23629951477051 14.2408504486084 14.2408504486084 C 18.23629951477051 10.24541282653809 22.88852500915527 7.108687400817871 28.06830024719238 4.917825222015381 C 33.43022537231445 2.649924993515015 39.12687683105469 1.5 45 1.5 C 50.87312316894531 1.5 56.56977462768555 2.649924993515015 61.93170166015625 4.917825222015381 C 67.11147308349609 7.108687400817871 71.76370239257812 10.24541282653809 75.75914764404297 14.2408504486084 C 79.75458526611328 18.23629951477051 82.89131164550781 22.88852500915527 85.08217620849609 28.06830024719238 C 87.35007476806641 33.43022537231445 88.5 39.12687683105469 88.5 45 C 88.5 50.87312316894531 87.35007476806641 56.56977462768555 85.08217620849609 61.93170166015625 C 82.89131164550781 67.11147308349609 79.75458526611328 71.76370239257812 75.75914764404297 75.75914764404297 C 71.76370239257812 79.75458526611328 67.11147308349609 82.89131164550781 61.93170166015625 85.08217620849609 C 56.56977462768555 87.35007476806641 50.87312316894531 88.5 45 88.5 Z" stroke="none"/>
          <path d="M 45 3 C 39.32871246337891 3 33.82865524291992 4.110054016113281 28.65262985229492 6.299339294433594 C 23.65165710449219 8.414573669433594 19.15968322753906 11.44334411621094 15.301513671875 15.301513671875 C 11.44334411621094 19.15968322753906 8.414573669433594 23.65165710449219 6.299339294433594 28.65262985229492 C 4.110054016113281 33.82865524291992 3 39.32871246337891 3 45 C 3 50.67128753662109 4.110054016113281 56.17134475708008 6.299339294433594 61.34737396240234 C 8.414573669433594 66.34834289550781 11.44334411621094 70.84031677246094 15.301513671875 74.698486328125 C 19.15968322753906 78.55665588378906 23.65165710449219 81.58542633056641 28.65262985229492 83.70066070556641 C 33.82865524291992 85.88994598388672 39.32871246337891 87 45 87 C 50.67128753662109 87 56.17134475708008 85.88994598388672 61.34737396240234 83.70066070556641 C 66.34834289550781 81.58542633056641 70.84031677246094 78.55665588378906 74.698486328125 74.698486328125 C 78.55665588378906 70.84031677246094 81.58542633056641 66.34834289550781 83.70066070556641 61.34737396240234 C 85.88994598388672 56.17134475708008 87 50.67128753662109 87 45 C 87 39.32871246337891 85.88994598388672 33.82865524291992 83.70066070556641 28.65262985229492 C 81.58542633056641 23.65165710449219 78.55665588378906 19.15968322753906 74.698486328125 15.301513671875 C 70.84031677246094 11.44334411621094 66.34834289550781 8.414573669433594 61.34737396240234 6.299339294433594 C 56.17134475708008 4.110054016113281 50.67128753662109 3 45 3 M 45 0 C 69.85281372070312 0 90 20.14718627929688 90 45 C 90 69.85281372070312 69.85281372070312 90 45 90 C 20.14718627929688 90 0 69.85281372070312 0 45 C 0 20.14718627929688 20.14718627929688 0 45 0 Z" stroke="none" fill="#fd7940"/>
        </g>
      </g>
    </g>
    <g id="indicador-clave-de-rendimiento" transform="translate(224.729 4990.729)">
      <g id="Grupo_1151542" data-name="Grupo 1151542" transform="translate(1.936 1.936)">
        <g id="Grupo_1151527" data-name="Grupo 1151527" transform="translate(0 34.734)">
          <path id="Trazado_986251" data-name="Trazado 986251" d="M55.015,47.312H16.625V44.57a4.565,4.565,0,0,0-4.972-4.552,4.733,4.733,0,0,0-4.168,4.79v.676a5.484,5.484,0,0,0,0,10.969v.676a4.733,4.733,0,0,0,4.168,4.79,4.565,4.565,0,0,0,4.972-4.552V54.625H41.3V59.2H44.96V56.453h3.656V59.2h3.656v-4.57h2.742a3.656,3.656,0,0,0,0-7.312ZM7.484,52.8a1.828,1.828,0,1,1,1.828-1.828A1.833,1.833,0,0,1,7.484,52.8Z" transform="translate(-2 -40)" fill="#ffab03"/>
        </g>
        <g id="Grupo_1151528" data-name="Grupo 1151528" transform="translate(23.765 29.25)">
          <path id="Trazado_986252" data-name="Trazado 986252" d="M28,34h5.484v9.14H28Z" transform="translate(-28 -34)" fill="#ef4a51"/>
        </g>
        <g id="Grupo_1151529" data-name="Grupo 1151529" transform="translate(32.906 21.023)">
          <path id="Trazado_986253" data-name="Trazado 986253" d="M38,25h5.484V42.367H38Z" transform="translate(-38 -25)" fill="#ef4a51"/>
        </g>
        <g id="Grupo_1151530" data-name="Grupo 1151530" transform="translate(42.046 25.593)">
          <path id="Trazado_986254" data-name="Trazado 986254" d="M48,30h5.484V42.8H48Z" transform="translate(-48 -30)" fill="#ef4a51"/>
        </g>
        <g id="Grupo_1151531" data-name="Grupo 1151531" transform="translate(51.187 18.281)">
          <path id="Trazado_986255" data-name="Trazado 986255" d="M58,22h5.484V42.109H58Z" transform="translate(-58 -22)" fill="#ef4a51"/>
        </g>
        <g id="Grupo_1151532" data-name="Grupo 1151532" transform="translate(51.187 18.281)">
          <path id="Trazado_986256" data-name="Trazado 986256" d="M58,22h5.484V42.109H58Z" transform="translate(-58 -22)" fill="#ef4a51"/>
        </g>
        <g id="Grupo_1151533" data-name="Grupo 1151533" transform="translate(0 3.656)">
          <path id="Trazado_986257" data-name="Trazado 986257" d="M13.883,6a11.88,11.88,0,0,0-8.4,20.283l8.4-8.4Z" transform="translate(-2 -6)" fill="#7cb5e8"/>
        </g>
        <g id="Grupo_1151534" data-name="Grupo 1151534" transform="translate(15.539)">
          <path id="Trazado_986258" data-name="Trazado 986258" d="M19,2V13.883H30.883A11.882,11.882,0,0,0,19,2Z" transform="translate(-19 -2)" fill="#8aba55"/>
        </g>
        <g id="Grupo_1151535" data-name="Grupo 1151535" transform="translate(3.483 15.539)">
          <path id="Trazado_986259" data-name="Trazado 986259" d="M5.81,27.4A11.88,11.88,0,0,0,26.093,19H14.21Z" transform="translate(-5.81 -19)" fill="#4e6575"/>
        </g>
        <g id="Grupo_1151536" data-name="Grupo 1151536" transform="translate(53.929 18.281)" opacity="0.3">
          <path id="Trazado_986260" data-name="Trazado 986260" d="M61,35.711a3.656,3.656,0,0,0,2.742,3.528V22H61Z" transform="translate(-61 -22)" fill="#e2e2e2"/>
        </g>
        <g id="Grupo_1151537" data-name="Grupo 1151537" transform="translate(44.788 25.593)" opacity="0.3">
          <path id="Trazado_986261" data-name="Trazado 986261" d="M51,36.4a3.656,3.656,0,0,0,2.742,3.528V30H51Z" transform="translate(-51 -30)" fill="#e2e2e2"/>
        </g>
        <g id="Grupo_1151538" data-name="Grupo 1151538" transform="translate(35.648 21.023)" opacity="0.3">
          <path id="Trazado_986262" data-name="Trazado 986262" d="M41,35.969A3.656,3.656,0,0,0,43.742,39.5V25H41Z" transform="translate(-41 -25)" fill="#e2e2e2"/>
        </g>
        <g id="Grupo_1151539" data-name="Grupo 1151539" transform="translate(26.507 29.25)" opacity="0.3">
          <path id="Trazado_986263" data-name="Trazado 986263" d="M31,36.742a3.656,3.656,0,0,0,2.742,3.528V34H31Z" transform="translate(-31 -34)" fill="#e2e2e2"/>
        </g>
        <g id="Grupo_1151540" data-name="Grupo 1151540" transform="translate(16.526 0.055)" opacity="0.3">
          <path id="Trazado_986264" data-name="Trazado 986264" d="M20.1,2.06c0,.11-.018.219-.018.338a10.5,10.5,0,0,0,10.5,10.5c.11,0,.229-.009.338-.018A11.851,11.851,0,0,0,20.1,2.06Z" transform="translate(-20.08 -2.06)" fill="#e2e2e2"/>
        </g>
        <g id="Grupo_1151541" data-name="Grupo 1151541" transform="translate(9.954 34.742)" opacity="0.3">
          <path id="Trazado_986265" data-name="Trazado 986265" d="M55.951,47.313H17.561V44.571A4.564,4.564,0,0,0,12.89,40.01v7.632A3.655,3.655,0,0,0,16.546,51.3H59.57c.009-.11.037-.219.037-.329A3.655,3.655,0,0,0,55.951,47.313Z" transform="translate(-12.89 -40.009)" fill="#fff"/>
        </g>
      </g>
      <g id="Grupo_1151555" data-name="Grupo 1151555" transform="translate(1.25 1.25)">
        <g id="Grupo_1151543" data-name="Grupo 1151543" transform="translate(3.656 43.874)">
          <path id="Trazado_986266" data-name="Trazado 986266" d="M7.764,54.277a2.514,2.514,0,1,1,2.514-2.514A2.512,2.512,0,0,1,7.764,54.277Zm0-3.656a1.143,1.143,0,1,0,1.143,1.143A1.131,1.131,0,0,0,7.764,50.621Z" transform="translate(-5.25 -49.25)"/>
        </g>
        <g id="Grupo_1151544" data-name="Grupo 1151544" transform="translate(0.009 34.729)">
          <path id="Trazado_986267" data-name="Trazado 986267" d="M12.009,62.558c-.155,0-.32-.009-.475-.018a5.425,5.425,0,0,1-4.79-5.475v-.027a6.172,6.172,0,0,1,0-12.267v-.027a5.425,5.425,0,0,1,4.79-5.475,5.162,5.162,0,0,1,4.013,1.353A5.261,5.261,0,0,1,17.256,44.5v2.057H46.725a.686.686,0,1,1,0,1.371H16.561a.691.691,0,0,1-.686-.686V44.5a3.9,3.9,0,0,0-1.261-2.87,3.811,3.811,0,0,0-2.962-1,4.048,4.048,0,0,0-3.547,4.1v.686a.691.691,0,0,1-.686.686,4.8,4.8,0,0,0,0,9.6.691.691,0,0,1,.686.686v.676a4.04,4.04,0,0,0,3.547,4.1,3.845,3.845,0,0,0,2.962-1,3.889,3.889,0,0,0,1.261-2.87V54.56a.691.691,0,0,1,.686-.686H41.24a.691.691,0,0,1,.686.686v3.885h2.285V56.388A.691.691,0,0,1,44.9,55.7h3.656a.691.691,0,0,1,.686.686v2.057h2.285V54.56a.691.691,0,0,1,.686-.686h2.742a2.971,2.971,0,0,0,0-5.941H49.622a.686.686,0,1,1,0-1.371h5.329a4.342,4.342,0,0,1,0,8.683H52.895V59.13a.691.691,0,0,1-.686.686H48.553a.691.691,0,0,1-.686-.686V57.074H45.582V59.13a.691.691,0,0,1-.686.686H41.24a.691.691,0,0,1-.686-.686V55.245H17.247V57.3a5.246,5.246,0,0,1-1.709,3.876,5.151,5.151,0,0,1-3.528,1.38Zm-4.589-9.14A2.514,2.514,0,1,1,9.934,50.9,2.512,2.512,0,0,1,7.421,53.417Zm0-3.656A1.143,1.143,0,1,0,8.563,50.9,1.131,1.131,0,0,0,7.421,49.761Z" transform="translate(-1.26 -39.245)"/>
        </g>
        <g id="Grupo_1151545" data-name="Grupo 1151545" transform="translate(3.656 43.874)">
          <path id="Trazado_986268" data-name="Trazado 986268" d="M7.764,54.277a2.514,2.514,0,1,1,2.514-2.514A2.512,2.512,0,0,1,7.764,54.277Zm0-3.656a1.143,1.143,0,1,0,1.143,1.143A1.131,1.131,0,0,0,7.764,50.621Z" transform="translate(-5.25 -49.25)"/>
        </g>
        <g id="Grupo_1151546" data-name="Grupo 1151546" transform="translate(23.765 29.25)">
          <path id="Trazado_986269" data-name="Trazado 986269" d="M33.42,43.762H29.764a.686.686,0,1,1,0-1.371h2.971V34.621H28.621v8.455a.686.686,0,0,1-1.371,0v-9.14a.691.691,0,0,1,.686-.686H33.42a.691.691,0,0,1,.686.686v9.14A.685.685,0,0,1,33.42,43.762Z" transform="translate(-27.25 -33.25)"/>
        </g>
        <g id="Grupo_1151547" data-name="Grupo 1151547" transform="translate(32.906 21.023)">
          <path id="Trazado_986270" data-name="Trazado 986270" d="M43.42,42.988H37.936a.691.691,0,0,1-.686-.686V24.936a.691.691,0,0,1,.686-.686H43.42a.691.691,0,0,1,.686.686V42.3A.685.685,0,0,1,43.42,42.988Zm-4.8-1.371h4.113v-16H38.621Z" transform="translate(-37.25 -24.25)"/>
        </g>
        <g id="Grupo_1151548" data-name="Grupo 1151548" transform="translate(42.046 25.593)">
          <path id="Trazado_986271" data-name="Trazado 986271" d="M53.42,43.418H47.936a.691.691,0,0,1-.686-.686v-12.8a.691.691,0,0,1,.686-.686H53.42a.691.691,0,0,1,.686.686v12.8A.685.685,0,0,1,53.42,43.418Zm-4.8-1.371h4.113V30.621H48.621Z" transform="translate(-47.25 -29.25)"/>
        </g>
        <g id="Grupo_1151549" data-name="Grupo 1151549" transform="translate(51.187 18.281)">
          <path id="Trazado_986272" data-name="Trazado 986272" d="M63.42,42.73H57.936a.691.691,0,0,1-.686-.686V21.936a.691.691,0,0,1,.686-.686H63.42a.691.691,0,0,1,.686.686v4.159a.686.686,0,1,1-1.371,0V22.621H58.621V41.359h4.113V29.248a.686.686,0,0,1,1.371,0v12.8A.685.685,0,0,1,63.42,42.73Z" transform="translate(-57.25 -21.25)"/>
        </g>
        <g id="Grupo_1151550" data-name="Grupo 1151550" transform="translate(0 3.656)">
          <path id="Trazado_986273" data-name="Trazado 986273" d="M5.418,26.9a.678.678,0,0,1-.484-.2A12.565,12.565,0,0,1,13.818,5.25a.691.691,0,0,1,.686.686V17.818a.685.685,0,0,1-.2.484L5.9,26.7a.678.678,0,0,1-.484.2ZM13.133,6.639a11.205,11.205,0,0,0-7.705,18.6l7.705-7.705Z" transform="translate(-1.25 -5.25)"/>
        </g>
        <g id="Grupo_1151551" data-name="Grupo 1151551" transform="translate(15.539)">
          <path id="Trazado_986274" data-name="Trazado 986274" d="M30.818,14.5H18.936a.691.691,0,0,1-.686-.686V1.936a.691.691,0,0,1,.686-.686A12.584,12.584,0,0,1,31.5,13.818.685.685,0,0,1,30.818,14.5Zm-11.2-1.371H30.114A11.218,11.218,0,0,0,19.621,2.639Z" transform="translate(-18.25 -1.25)"/>
        </g>
        <g id="Grupo_1151552" data-name="Grupo 1151552" transform="translate(3.485 15.548)">
          <path id="Trazado_986275" data-name="Trazado 986275" d="M14.146,31.5a.686.686,0,0,1,0-1.371A11.214,11.214,0,0,0,25.325,19.622h-10.9L6.724,27.327a11.225,11.225,0,0,0,4.835,2.514.685.685,0,0,1-.311,1.335A12.487,12.487,0,0,1,5.261,27.83a.69.69,0,0,1,0-.969l8.4-8.4a.685.685,0,0,1,.484-.2H26.028a.691.691,0,0,1,.686.686A12.583,12.583,0,0,1,14.146,31.5Z" transform="translate(-5.063 -18.26)"/>
        </g>
        <g id="Grupo_1151553" data-name="Grupo 1151553" transform="translate(28.338 8.274)">
          <path id="Trazado_986276" data-name="Trazado 986276" d="M49.389,22.594a.678.678,0,0,1-.484-.2l-8.656-8.656L33.42,20.565a.685.685,0,1,1-.969-.969l7.312-7.312a.69.69,0,0,1,.969,0l8.656,8.656L59.827,10.5a.685.685,0,1,1,.969.969L49.873,22.393a.663.663,0,0,1-.484.2Z" transform="translate(-32.252 -10.303)"/>
        </g>
        <g id="Grupo_1151554" data-name="Grupo 1151554" transform="translate(52.101 8.226)">
          <path id="Trazado_986277" data-name="Trazado 986277" d="M62.592,15.277a.691.691,0,0,1-.686-.686V11.621H58.936a.686.686,0,0,1,0-1.371h3.656a.691.691,0,0,1,.686.686v3.656A.685.685,0,0,1,62.592,15.277Z" transform="translate(-58.25 -10.25)"/>
        </g>
      </g>
    </g>
  </g>
</svg>
