<svg xmlns="http://www.w3.org/2000/svg" xmlns:xlink="http://www.w3.org/1999/xlink" width="1240" height="832" viewBox="0 0 1240 832">
  <defs>
    <filter id="_1" x="303.923" y="261.328" width="56" height="104" filterUnits="userSpaceOnUse">
      <feOffset dy="3" input="SourceAlpha"/>
      <feGaussianBlur stdDeviation="3" result="blur"/>
      <feFlood flood-opacity="0.161"/>
      <feComposite operator="in" in2="blur"/>
      <feComposite in="SourceGraphic"/>
    </filter>
    <filter id="_2" x="672.114" y="137.416" width="56" height="104" filterUnits="userSpaceOnUse">
      <feOffset dy="3" input="SourceAlpha"/>
      <feGaussianBlur stdDeviation="3" result="blur-2"/>
      <feFlood flood-opacity="0.161"/>
      <feComposite operator="in" in2="blur-2"/>
      <feComposite in="SourceGraphic"/>
    </filter>
    <filter id="_3" x="513.856" y="589.808" width="56" height="104" filterUnits="userSpaceOnUse">
      <feOffset dy="3" input="SourceAlpha"/>
      <feGaussianBlur stdDeviation="3" result="blur-3"/>
      <feFlood flood-opacity="0.161"/>
      <feComposite operator="in" in2="blur-3"/>
      <feComposite in="SourceGraphic"/>
    </filter>
    <filter id="_4" x="879.553" y="468.284" width="56" height="104" filterUnits="userSpaceOnUse">
      <feOffset dy="3" input="SourceAlpha"/>
      <feGaussianBlur stdDeviation="3" result="blur-4"/>
      <feFlood flood-opacity="0.161"/>
      <feComposite operator="in" in2="blur-4"/>
      <feComposite in="SourceGraphic"/>
    </filter>
  </defs>
  <g id="Grupo_1151698" data-name="Grupo 1151698" transform="translate(-180 -796)">
    <rect id="Rectángulo_407895" data-name="Rectángulo 407895" width="1240" height="832" transform="translate(180 796)" fill="#eaf2fb"/>
    <g id="Grupo_1151696" data-name="Grupo 1151696">
      <g id="Grupo_1150962" data-name="Grupo 1150962">
        <g id="OBJECTS" transform="translate(180 770.35)">
          <rect id="Rectángulo_406052" data-name="Rectángulo 406052" width="404.264" height="65.827" transform="translate(835.736 289.476)" fill="#2c3e50"/>
          <g id="Grupo_1149916" data-name="Grupo 1149916" transform="translate(823.881 320.107)">
            <g id="Grupo_1149915" data-name="Grupo 1149915" transform="translate(0 0.099)">
              <path id="Trazado_983525" data-name="Trazado 983525" d="M632.094,221.91a1.755,1.755,0,0,0-.3-.05H597.023a2.183,2.183,0,1,0,0,4.365H631.8a1.753,1.753,0,0,1,.3-.05Z" transform="translate(-215.975 -221.86)" fill="#e2d8c7"/>
              <path id="Trazado_983526" data-name="Trazado 983526" d="M705.525,226.235h-34.4a2.183,2.183,0,1,1,0-4.365h34.4a2.183,2.183,0,0,1,0,4.365Zm-68.8,0h-34.4a2.183,2.183,0,1,1,0-4.365h34.4a2.183,2.183,0,0,1,0,4.365Zm-68.779,0h-34.4a2.183,2.183,0,1,1,0-4.365h34.4a2.183,2.183,0,0,1,0,4.365Zm-68.779,0h-34.4a2.183,2.183,0,1,1,0-4.365h34.4a2.183,2.183,0,1,1,0,4.365Z" transform="translate(-411.759 -221.845)" fill="#e2d8c7"/>
              <path id="Trazado_983527" data-name="Trazado 983527" d="M460.717,226.235H444.273a2.183,2.183,0,1,1,0-4.365h16.444a2.183,2.183,0,0,1,0,4.365Z" transform="translate(-442.09 -221.845)" fill="#e2d8c7"/>
            </g>
            <path id="Trazado_983528" data-name="Trazado 983528" d="M605.293,226.508H575.331A2.334,2.334,0,0,1,573,224.152h0a2.329,2.329,0,0,1,2.331-2.332h29.962a2.329,2.329,0,0,1,2.332,2.332h0A2.35,2.35,0,0,1,605.293,226.508Z" transform="translate(-248.304 -221.82)" fill="#e2d8c7"/>
          </g>
          <path id="Trazado_983529" data-name="Trazado 983529" d="M498.682,307.19H109.92v65.827H652.783a72.5,72.5,0,0,1,0,145h0a72.547,72.547,0,0,1-72.449-72.5v-72.5h-65.8v72.5c0,76.269,62.032,138.3,138.252,138.3s138.252-62.057,138.252-138.3S729,307.215,652.783,307.215H498.707Z" transform="translate(-109.92 224.66)" fill="#2c3e50"/>
          <path id="Trazado_983530" data-name="Trazado 983530" d="M464.594,356.406V311.661c0-76.269-62.032-138.3-138.252-138.3S188.09,235.417,188.09,311.661s62.032,138.3,138.252,138.3h72.45V384.136H326.342a72.5,72.5,0,1,1,72.449-72.5V505.249h65.8V356.356Z" transform="translate(5.795 26.552)" fill="#2c3e50"/>
          <path id="Trazado_983531" data-name="Trazado 983531" d="M599.115,258.394H299.57v65.827H664.918v-.1h72.45a72.5,72.5,0,1,1-72.45,72.5V324.246h-65.8v72.375c0,76.269,62.032,138.3,138.252,138.3s138.252-62.057,138.252-138.3-62.032-138.3-138.252-138.3H599.115v.1Z" transform="translate(170.819 152.318)" fill="#2c3e50"/>
          <path id="Trazado_983532" data-name="Trazado 983532" d="M473.632,124.495c-76.244,0-138.252,62.057-138.252,138.3s62.032,138.3,138.252,138.3h72.474V335.27H473.632a72.5,72.5,0,1,1,72.474-72.5V456.383h65.8V262.771c0-76.269-62.032-138.3-138.252-138.3Z" transform="translate(223.828 -45.82)" fill="#2c3e50"/>
          <path id="Trazado_983533" data-name="Trazado 983533" d="M392.846,534.746a109.281,109.281,0,0,1-13.369-.819,2.2,2.2,0,1,1,.546-4.365,105.324,105.324,0,0,0,32.07-.992,2.2,2.2,0,0,1,.818,4.316,108.451,108.451,0,0,1-20.066,1.86Zm-44.571-9.872a2.349,2.349,0,0,1-.918-.2,107.787,107.787,0,0,1-27.73-18.7,2.194,2.194,0,0,1,2.976-3.224,103.062,103.062,0,0,0,26.589,17.957,2.226,2.226,0,0,1,1.066,2.927,2.2,2.2,0,0,1-1.984,1.265Zm95.07-3a2.231,2.231,0,0,1-1.935-1.141,2.194,2.194,0,0,1,.868-2.976,104.168,104.168,0,0,0,25.423-19.57,2.193,2.193,0,0,1,3.175,3.026,107.558,107.558,0,0,1-26.49,20.413,2.251,2.251,0,0,1-1.042.273ZM300.876,480.8a2.168,2.168,0,0,1-1.91-1.116,106.283,106.283,0,0,1-11.583-31.376,2.189,2.189,0,1,1,4.291-.868,102.017,102.017,0,0,0,11.112,30.086,2.165,2.165,0,0,1-.843,2.977,2.073,2.073,0,0,1-1.067.273Zm187.014-5.878a2.105,2.105,0,0,1-.942-.223,2.171,2.171,0,0,1-1.017-2.927,102.7,102.7,0,0,0,9.177-30.731,2.189,2.189,0,0,1,4.341.57,106.5,106.5,0,0,1-9.574,32.045,2.176,2.176,0,0,1-1.984,1.24ZM287.483,417.279A2.186,2.186,0,0,1,285.3,415.1V382.183a2.183,2.183,0,1,1,4.365,0V415.1A2.186,2.186,0,0,1,287.483,417.279Zm209.089-6.523a2.2,2.2,0,0,1-2.158-1.811,101.83,101.83,0,0,0-10.492-30.309,2.2,2.2,0,1,1,3.869-2.084,106.874,106.874,0,0,1,10.938,31.624,2.193,2.193,0,0,1-1.786,2.555c-.124,0-.248.025-.4.025Zm-30.433-57.121a2.219,2.219,0,0,1-1.538-.62,102.8,102.8,0,0,0-26.217-18.478,2.185,2.185,0,1,1,1.935-3.919,107.772,107.772,0,0,1,27.333,19.272,2.194,2.194,0,0,1,.05,3.1,2.156,2.156,0,0,1-1.587.67Zm-58.064-28.6h-.322a103.147,103.147,0,0,0-14.907-1.066H375.211a2.183,2.183,0,1,1,0-4.365h17.635a107.935,107.935,0,0,1,15.527,1.116,2.194,2.194,0,0,1-.3,4.365Zm-65.753-1.091H309.433a2.183,2.183,0,0,1,0-4.365h32.889a2.183,2.183,0,0,1,0,4.365Z" transform="translate(149.695 243.001)" fill="#e2d8c7"/>
          <path id="Trazado_983534" data-name="Trazado 983534" d="M412.581,473.475a2.186,2.186,0,0,1-2.183-2.183V438.379a2.183,2.183,0,0,1,4.365,0v32.913A2.186,2.186,0,0,1,412.581,473.475Zm0-65.827a2.186,2.186,0,0,1-2.183-2.183V372.552a2.183,2.183,0,1,1,4.365,0v32.914A2.186,2.186,0,0,1,412.581,407.648Zm-23.265-6.722H356.427a2.183,2.183,0,1,1,0-4.365h32.889a2.183,2.183,0,1,1,0,4.365Zm-65.8,0h-16.3a109.173,109.173,0,0,1-16.866-1.315,2.2,2.2,0,0,1,.67-4.341,103.519,103.519,0,0,0,16.172,1.265h16.3a2.183,2.183,0,1,1,0,4.365Zm-63.992-11.409a2.1,2.1,0,0,1-.992-.248,107.526,107.526,0,0,1-27.085-19.619,2.192,2.192,0,0,1,3.1-3.1,102.585,102.585,0,0,0,25.993,18.8,2.187,2.187,0,0,1-.992,4.142ZM213.612,343.9a2.191,2.191,0,0,1-1.959-1.19,107.053,107.053,0,0,1-10.541-31.748,2.2,2.2,0,0,1,4.341-.719,102.057,102.057,0,0,0,10.12,30.433,2.206,2.206,0,0,1-.943,2.952,2.124,2.124,0,0,1-1.017.248Zm198.969-2.083a2.186,2.186,0,0,1-2.183-2.183V306.725a2.183,2.183,0,1,1,4.365,0v32.914A2.186,2.186,0,0,1,412.581,341.821ZM203,280.037h-.322a2.2,2.2,0,0,1-1.86-2.48,106.744,106.744,0,0,1,9.971-31.921,2.191,2.191,0,1,1,3.919,1.959,102.181,102.181,0,0,0-9.574,30.632,2.187,2.187,0,0,1-2.158,1.885Zm207.8-3.919a2.2,2.2,0,0,1-2.158-1.786A101.9,101.9,0,0,0,397.9,244.1a2.192,2.192,0,1,1,3.845-2.108,107.26,107.26,0,0,1,11.186,31.525,2.265,2.265,0,0,1-2.158,2.6Zm-179.1-54.1a2.219,2.219,0,0,1-1.538-.62,2.193,2.193,0,0,1-.05-3.1,107.774,107.774,0,0,1,26.738-20.066,2.2,2.2,0,1,1,2.059,3.894A102.93,102.93,0,0,0,233.256,221.4a2.142,2.142,0,0,1-1.563.67Zm148.223-2.8a2.2,2.2,0,0,1-1.513-.6,103.89,103.89,0,0,0-26.366-18.28,2.191,2.191,0,0,1,1.91-3.944,107.723,107.723,0,0,1,27.482,19.049,2.183,2.183,0,0,1-1.513,3.77Zm-91.027-27.507a2.186,2.186,0,0,1-.372-4.34,109.5,109.5,0,0,1,33.434-.62,2.2,2.2,0,0,1-.6,4.365,105.325,105.325,0,0,0-32.07.6c-.124,0-.248.025-.372.025Z" transform="translate(24.596 44.907)" fill="#e2d8c7"/>
          <g id="Grupo_1149917" data-name="Grupo 1149917" transform="translate(0 562.556)">
            <path id="Trazado_983535" data-name="Trazado 983535" d="M193.7,323.945a2.183,2.183,0,0,0,0-4.365H160.813a2.183,2.183,0,0,0,0,4.365Z" transform="translate(-37.815 -319.555)" fill="#e2d8c7"/>
            <path id="Trazado_983536" data-name="Trazado 983536" d="M170.981,323.945a2.183,2.183,0,0,0,0-4.365H138.093a2.183,2.183,0,0,0,0,4.365Z" transform="translate(-71.447 -319.555)" fill="#e2d8c7"/>
            <path id="Trazado_983537" data-name="Trazado 983537" d="M151.267,319.57H109.92v4.39h41.347a2.183,2.183,0,1,0,0-4.365Z" transform="translate(-109.92 -319.57)" fill="#e2d8c7"/>
            <path id="Trazado_983538" data-name="Trazado 983538" d="M220.231,323.945a2.183,2.183,0,0,0,0-4.365H187.343a2.183,2.183,0,0,0,0,4.365Z" transform="translate(1.458 -319.555)" fill="#e2d8c7"/>
            <path id="Trazado_983539" data-name="Trazado 983539" d="M246.761,323.945a2.183,2.183,0,0,0,0-4.365H213.873a2.183,2.183,0,0,0,0,4.365Z" transform="translate(40.73 -319.555)" fill="#e2d8c7"/>
            <path id="Trazado_983540" data-name="Trazado 983540" d="M266.923,323.945h32.889a2.183,2.183,0,0,0,0-4.365H266.923a2.183,2.183,0,0,0,0,4.365Z" transform="translate(119.26 -319.555)" fill="#e2d8c7"/>
            <path id="Trazado_983541" data-name="Trazado 983541" d="M273.281,319.57H240.393a2.183,2.183,0,0,0,0,4.365h32.889a2.183,2.183,0,0,0,0-4.365Z" transform="translate(79.987 -319.57)" fill="#e2d8c7"/>
          </g>
          <path id="Trazado_983542" data-name="Trazado 983542" d="M639.064,275.115H606.175a2.183,2.183,0,1,1,0-4.365h32.889a2.183,2.183,0,0,1,0,4.365Zm-65.8,0H540.373a2.183,2.183,0,1,1,0-4.365h32.889a2.183,2.183,0,0,1,0,4.365Zm-65.778,0H474.6a2.183,2.183,0,0,1,0-4.365h32.889a2.183,2.183,0,1,1,0,4.365Zm-65.8,0H408.793a2.183,2.183,0,0,1,0-4.365h32.889a2.183,2.183,0,1,1,0,4.365Zm-65.8,0H342.991a2.183,2.183,0,1,1,0-4.365h32.889a2.183,2.183,0,0,1,0,4.365Zm-65.8,0H296.783a2.183,2.183,0,0,1,0-4.365h13.294a2.183,2.183,0,1,1,0,4.365Z" transform="translate(163.462 170.718)" fill="#e2d8c7"/>
          <path id="Trazado_983543" data-name="Trazado 983543" d="M540.146,485.891a107.885,107.885,0,0,1-24.654-2.852,2.19,2.19,0,1,1,.992-4.266,104.9,104.9,0,0,0,32,2.406,2.19,2.19,0,0,1,.347,4.365C545.95,485.767,543.048,485.891,540.146,485.891Zm40.355-8.011a2.205,2.205,0,0,1-.843-4.241,103.545,103.545,0,0,0,27.358-16.767,2.2,2.2,0,1,1,2.852,3.348,107.29,107.29,0,0,1-28.5,17.461,2.058,2.058,0,0,1-.843.174Zm-94.847-7.168a2.154,2.154,0,0,1-1.141-.322,107.574,107.574,0,0,1-25.572-21.554,2.2,2.2,0,0,1,3.324-2.877,103.749,103.749,0,0,0,24.53,20.686,2.209,2.209,0,0,1,.744,3.026,2.247,2.247,0,0,1-1.885,1.067Zm144.13-34.8a2.193,2.193,0,0,1-1.885-3.348,102.188,102.188,0,0,0,12.426-29.59,2.2,2.2,0,0,1,4.266,1.042,107.846,107.846,0,0,1-12.947,30.855,2.212,2.212,0,0,1-1.86,1.042ZM443.216,421.824a2.172,2.172,0,0,1-2.009-1.339,107.559,107.559,0,0,1-8.16-32.442,2.192,2.192,0,1,1,4.365-.4,102.76,102.76,0,0,0,7.813,31.1,2.2,2.2,0,0,1-1.166,2.877,2.09,2.09,0,0,1-.868.174Zm202.045-48.787A2.193,2.193,0,0,1,643.078,371a102.544,102.544,0,0,0-7.193-31.277,2.192,2.192,0,0,1,4.068-1.637,107.138,107.138,0,0,1,7.491,32.591,2.176,2.176,0,0,1-2.034,2.332h-.149ZM434.783,357.163a2.186,2.186,0,0,1-2.183-2.183V322.067a2.183,2.183,0,0,1,4.365,0V354.98A2.186,2.186,0,0,1,434.783,357.163ZM621.1,312.989a2.225,2.225,0,0,1-1.687-.794,103.772,103.772,0,0,0-24.109-21.157,2.191,2.191,0,0,1,2.356-3.7,107.2,107.2,0,0,1,25.125,22.075,2.208,2.208,0,0,1-1.687,3.621Zm-54.691-34.625a1.386,1.386,0,0,1-.546-.074,103.919,103.919,0,0,0-25.7-3.224H533.8a2.183,2.183,0,1,1,0-4.365h6.374a107.878,107.878,0,0,1,26.787,3.373,2.207,2.207,0,0,1,1.587,2.679,2.176,2.176,0,0,1-2.133,1.637Zm-65.529-3.274H467.994a2.183,2.183,0,0,1,0-4.365h32.889a2.183,2.183,0,1,1,0,4.365Z" transform="translate(367.743 170.644)" fill="#e2d8c7"/>
          <path id="Trazado_983544" data-name="Trazado 983544" d="M559.823,425.31a2.186,2.186,0,0,1-2.183-2.183V390.214a2.183,2.183,0,1,1,4.365,0v32.914A2.186,2.186,0,0,1,559.823,425.31Zm0-65.827a2.186,2.186,0,0,1-2.183-2.183V324.387a2.183,2.183,0,1,1,4.365,0V357.3A2.186,2.186,0,0,1,559.823,359.483Zm-23.96-7.416H502.974a2.183,2.183,0,1,1,0-4.365h32.889a2.183,2.183,0,0,1,0,4.365Zm-65.8,0h-15.6a106.4,106.4,0,0,1-17.561-1.439,2.2,2.2,0,0,1,.719-4.341,103.382,103.382,0,0,0,16.866,1.364h15.6a2.183,2.183,0,1,1,0,4.365ZM406.143,340.36a1.965,1.965,0,0,1-.992-.248,107.71,107.71,0,0,1-26.961-19.793,2.216,2.216,0,0,1,0-3.1,2.193,2.193,0,0,1,3.1,0,103.218,103.218,0,0,0,25.869,18.974,2.207,2.207,0,0,1,.943,2.952,2.239,2.239,0,0,1-1.959,1.191Zm-45.613-45.935a2.239,2.239,0,0,1-1.959-1.191,105.888,105.888,0,0,1-10.318-31.822,2.2,2.2,0,1,1,4.341-.67,102.528,102.528,0,0,0,9.9,30.508,2.187,2.187,0,0,1-.967,2.952,2.1,2.1,0,0,1-.992.248Zm199.292-.744a2.186,2.186,0,0,1-2.183-2.183V258.584a2.183,2.183,0,1,1,4.365,0V291.5A2.186,2.186,0,0,1,559.823,293.681ZM350.336,230.508a2.357,2.357,0,0,1-.347-.025,2.208,2.208,0,0,1-1.835-2.505,106.872,106.872,0,0,1,10.194-31.872,2.2,2.2,0,0,1,3.919,1.984,102.819,102.819,0,0,0-9.772,30.557A2.184,2.184,0,0,1,350.336,230.508Zm207.849-2.555a2.2,2.2,0,0,1-2.158-1.811,102.824,102.824,0,0,0-10.516-30.309,2.2,2.2,0,1,1,3.869-2.083,106.828,106.828,0,0,1,10.988,31.6,2.195,2.195,0,0,1-1.761,2.555c-.124,0-.273.025-.4.025ZM379.43,172.667a2.17,2.17,0,0,1-1.538-3.72,107.263,107.263,0,0,1,26.887-19.892,2.186,2.186,0,0,1,2.034,3.869,103.924,103.924,0,0,0-25.795,19.1,2.117,2.117,0,0,1-1.563.645Zm148.247-1.811a2.119,2.119,0,0,1-1.513-.62,102.831,102.831,0,0,0-26.242-18.453,2.185,2.185,0,1,1,1.935-3.919,106.759,106.759,0,0,1,27.358,19.247,2.193,2.193,0,0,1,.05,3.1,2.156,2.156,0,0,1-1.587.67ZM436.825,142.73a2.2,2.2,0,0,1-.372-4.365,108.733,108.733,0,0,1,33.434-.4,2.192,2.192,0,0,1-.62,4.341,104.54,104.54,0,0,0-32.07.4c-.124,0-.248.025-.372.025Z" transform="translate(242.703 -27.47)" fill="#e2d8c7"/>
          <path id="Trazado_983545" data-name="Trazado 983545" d="M652.445,839.391c-71.11,0-128.951-57.865-128.951-129V628.566H109.93v-3.3H526.794v85.1c0,69.3,56.377,125.7,125.652,125.7S778.1,779.69,778.1,710.366s-56.377-125.7-125.652-125.7H567.371V504.129h324.77v85c0,69.3,56.377,125.7,125.652,125.7s125.652-56.377,125.652-125.7-56.377-125.7-125.652-125.7H932.719V382.892H1349.31v3.3H936.018v73.962h81.775c71.085,0,128.926,57.865,128.926,128.975s-57.841,129-128.926,129-128.951-57.865-128.951-129v-81.7h-318.2V581.39h81.775c71.085,0,128.926,57.865,128.926,129s-57.841,129-128.926,129Zm0-43.877a85.186,85.186,0,0,1-85.074-85.1v-85.1h85.074a85.1,85.1,0,0,1,0,170.2ZM570.67,628.59v81.825a81.775,81.775,0,1,0,81.775-81.825Zm447.123,45.687a85.186,85.186,0,0,1-85.074-85.1v-85.1h85.074a85.1,85.1,0,0,1,0,170.2ZM936.018,507.353v81.825a81.775,81.775,0,1,0,81.775-81.825Zm-409.224,77.36H109.93v-3.3H523.495V507.453H441.719c-71.085,0-128.926-57.865-128.926-128.975s57.841-129,128.926-129,128.951,57.865,128.951,129V460.3h318.2V386.241H807.092c-71.085,0-128.926-57.865-128.926-129s57.841-129,128.926-129,128.951,57.865,128.951,129v81.825h413.292v3.3H932.744v-85.1c0-69.3-56.377-125.7-125.652-125.7S681.44,187.941,681.44,257.265s56.377,125.7,125.652,125.7h85.074V463.6H567.4V378.5c0-69.3-56.377-125.7-125.652-125.7S316.092,309.178,316.092,378.5s56.377,125.7,125.652,125.7h85.074v80.535Zm0-121.138H441.719a85.1,85.1,0,1,1,85.074-85.1ZM441.719,296.652a81.825,81.825,0,0,0,0,163.65h81.775V378.477a81.894,81.894,0,0,0-81.775-81.825Zm450.422,45.687H807.067a85.1,85.1,0,1,1,85.074-85.1ZM807.067,175.415a81.825,81.825,0,0,0,0,163.65h81.775V257.24A81.894,81.894,0,0,0,807.067,175.415Z" transform="translate(-109.905 -40.239)" fill="#c1b19d"/>
          <rect id="Rectángulo_406053" data-name="Rectángulo 406053" width="3.299" height="43.876" transform="translate(822.814 300.463)" fill="#c1b19d"/>
          <rect id="Rectángulo_406054" data-name="Rectángulo 406054" width="3.299" height="43.876" transform="translate(778.962 300.463)" fill="#c1b19d"/>
          <rect id="Rectángulo_406055" data-name="Rectángulo 406055" width="3.299" height="52.83" transform="translate(457.466 417.211)" fill="#c1b19d"/>
          <rect id="Rectángulo_406056" data-name="Rectángulo 406056" width="3.299" height="52.83" transform="translate(413.615 417.211)" fill="#c1b19d"/>
          <rect id="Rectángulo_406057" data-name="Rectángulo 406057" width="52.806" height="3.299" transform="translate(776.135 420.038)" fill="#c1b19d"/>
          <rect id="Rectángulo_406058" data-name="Rectángulo 406058" width="52.806" height="3.299" transform="translate(776.135 463.915)" fill="#c1b19d"/>
          <rect id="Rectángulo_406059" data-name="Rectángulo 406059" width="52.806" height="3.299" transform="translate(410.787 541.176)" fill="#c1b19d"/>
          <rect id="Rectángulo_406060" data-name="Rectángulo 406060" width="52.806" height="3.299" transform="translate(410.787 585.053)" fill="#c1b19d"/>
          <rect id="Rectángulo_406061" data-name="Rectángulo 406061" width="9.624" height="65.827" transform="translate(826.113 289.476)" fill="#5e575f" opacity="0.5"/>
          <rect id="Rectángulo_406062" data-name="Rectángulo 406062" width="9.624" height="65.827" transform="translate(460.765 410.663)" fill="#5e575f" opacity="0.5"/>
          <rect id="Rectángulo_406063" data-name="Rectángulo 406063" width="9.028" height="65.827" transform="translate(404.586 410.663)" fill="#5e575f" opacity="0.5"/>
          <rect id="Rectángulo_406064" data-name="Rectángulo 406064" width="9.624" height="65.802" transform="translate(835.711 467.114) rotate(90)" fill="#5e575f" opacity="0.5"/>
          <rect id="Rectángulo_406065" data-name="Rectángulo 406065" width="9.624" height="65.802" transform="translate(835.687 410.613) rotate(90)" fill="#5e575f" opacity="0.5"/>
          <rect id="Rectángulo_406066" data-name="Rectángulo 406066" width="9.326" height="65.802" transform="translate(470.364 588.351) rotate(90)" fill="#5e575f" opacity="0.5"/>
          <rect id="Rectángulo_406067" data-name="Rectángulo 406067" width="9.276" height="65.802" transform="translate(470.388 531.9) rotate(90)" fill="#5e575f" opacity="0.5"/>
          <rect id="Rectángulo_406068" data-name="Rectángulo 406068" width="9.624" height="65.827" transform="translate(769.339 289.476)" fill="#5e575f" opacity="0.5"/>
          <ellipse id="Elipse_11604" data-name="Elipse 11604" cx="60.197" cy="60.222" rx="60.197" ry="60.222" transform="translate(847.567 488.718)" fill="#fdc621"/>
          <ellipse id="Elipse_11605" data-name="Elipse 11605" cx="60.197" cy="60.222" rx="60.197" ry="60.222" transform="translate(481.872 609.93)" fill="#82e0e0"/>
          <ellipse id="Elipse_11606" data-name="Elipse 11606" cx="60.197" cy="60.222" rx="60.197" ry="60.222" transform="translate(637.263 156.879)" fill="#fd7940"/>
          <ellipse id="Elipse_11607" data-name="Elipse 11607" cx="60.197" cy="60.222" rx="60.197" ry="60.222" transform="translate(272.188 277.297)" fill="#3b89e1"/>
          <g transform="matrix(1, 0, 0, 1, 0, 25.65)" filter="url(#_1)">
            <text id="_1-2" data-name="1" transform="translate(312.92 337.33)" fill="#fff" font-size="65" font-family="SegoeUI-Bold, Segoe UI" font-weight="700"><tspan x="0" y="0">1</tspan></text>
          </g>
          <g transform="matrix(1, 0, 0, 1, 0, 25.65)" filter="url(#_2)">
            <text id="_2-2" data-name="2" transform="translate(681.11 213.42)" fill="#fff" font-size="65" font-family="SegoeUI-Bold, Segoe UI" font-weight="700"><tspan x="0" y="0">2</tspan></text>
          </g>
          <g transform="matrix(1, 0, 0, 1, 0, 25.65)" filter="url(#_3)">
            <text id="_3-2" data-name="3" transform="translate(522.86 665.81)" fill="#fff" font-size="65" font-family="SegoeUI-Bold, Segoe UI" font-weight="700"><tspan x="0" y="0">3</tspan></text>
          </g>
          <g transform="matrix(1, 0, 0, 1, 0, 25.65)" filter="url(#_4)">
            <text id="_4-2" data-name="4" transform="translate(888.55 544.28)" fill="#fff" font-size="65" font-family="SegoeUI-Bold, Segoe UI" font-weight="700"><tspan x="0" y="0">4</tspan></text>
          </g>
        </g>
        <text id="Marco_lógico_Se_centra_en_la_identificación_de_problemas_objetivos_y_la_relación_de_causa-efecto." data-name="Marco lógico
Se centra en la identificación de problemas, objetivos y la relación de causa-efecto." transform="translate(324 886)" fill="#3b89e1" font-size="18" font-family="SegoeUI-Bold, Segoe UI" letter-spacing="0em" font-weight="700"><tspan x="0" y="19">Marco lógico</tspan><tspan fill="#212429" font-size="16" font-family="SegoeUI, Segoe UI" font-weight="400"><tspan x="0" y="43">Se centra en la identificación de </tspan><tspan x="0" y="67">problemas, objetivos y la relación de </tspan><tspan x="0" y="91">causa-efecto.</tspan></tspan></text>
        <text id="PRINCE2_Projects_IN_Controlled_Environments_Se_enfoca_en_la_asignación_de_roles_y_responsabilidades_claras_lo_que_garantiza_que_cada_miembro_del_equipo_comprenda_su_papel_en_el_proyecto." data-name="PRINCE2 (Projects IN Controlled Environments)
Se enfoca en la asignación de roles y responsabilidades claras, lo que garantiza que cada miembro del equipo comprenda su papel en el proyecto." transform="translate(237 1402)" fill="#28c7c7" font-size="18" font-family="SegoeUI-Bold, Segoe UI" letter-spacing="0em" font-weight="700"><tspan x="0" y="19">PRINCE2 (Projects IN Controlled </tspan><tspan x="0" y="43">Environments)</tspan><tspan y="43" font-size="16" font-family="SegoeUI, Segoe UI" font-weight="400"></tspan><tspan fill="#212429" font-size="16" font-family="SegoeUI, Segoe UI" font-weight="400"><tspan x="0" y="67">Se enfoca en la asignación de roles y </tspan><tspan x="0" y="91">responsabilidades claras, lo que garantiza que </tspan><tspan x="0" y="115">cada miembro del equipo comprenda su </tspan><tspan x="0" y="139">papel en el proyecto.</tspan></tspan></text>
        <text id="Ágil_Agile_Permite_dividir_el_proyecto_en_ciclos_o_iteraciones_lo_que_facilita_la_adaptación_a_cambios_y_la_mejora_continua." data-name="Ágil (Agile)
Permite dividir el proyecto en ciclos o iteraciones, lo que facilita la adaptación a cambios y la mejora continua." transform="translate(1032 1474)" fill="#e7af06" font-size="18" font-family="SegoeUI-Bold, Segoe UI" letter-spacing="0em" font-weight="700"><tspan x="0" y="19">Ágil (Agile)</tspan><tspan fill="#212429" font-size="16" font-family="SegoeUI, Segoe UI" font-weight="400"><tspan x="0" y="43">Permite dividir el proyecto en ciclos o </tspan><tspan x="0" y="67">iteraciones, lo que facilita la adaptación a </tspan><tspan x="0" y="91">cambios y la mejora continua.</tspan></tspan></text>
        <text id="PMI_Project_Management_Institute_Su_enfoque_se_basa_en_cinco_fases:_inicio_planificación_ejecución_monitoreo_y_cierre." data-name="PMI (Project Management Institute)
Su enfoque se basa en cinco fases: inicio, planificación, ejecución, monitoreo y cierre." transform="translate(1043 910)" fill="#fd7940" font-size="18" font-family="SegoeUI-Bold, Segoe UI" letter-spacing="0em" font-weight="700"><tspan x="0" y="19">PMI (Project Management Institute)</tspan><tspan fill="#212429" font-size="16" font-family="SegoeUI, Segoe UI" font-weight="400"><tspan x="0" y="43">Su enfoque se basa en cinco fases: inicio, </tspan><tspan x="0" y="67">planificación, ejecución, monitoreo y cierre.</tspan></tspan></text>
      </g>
    </g>
  </g>
</svg>
