<svg xmlns="http://www.w3.org/2000/svg" xmlns:xlink="http://www.w3.org/1999/xlink" width="108" height="108" viewBox="0 0 108 108">
  <defs>
    <filter id="Trazado_982538" x="0" y="0" width="108" height="108" filterUnits="userSpaceOnUse">
      <feOffset dy="3" input="SourceAlpha"/>
      <feGaussianBlur stdDeviation="3" result="blur"/>
      <feFlood flood-opacity="0.161"/>
      <feComposite operator="in" in2="blur"/>
      <feComposite in="SourceGraphic"/>
    </filter>
  </defs>
  <g id="Grupo_1151559" data-name="Grupo 1151559" transform="translate(-201 -8477)">
    <g id="Grupo_1150883" data-name="Grupo 1150883" transform="translate(0 5508)">
      <g transform="matrix(1, 0, 0, 1, 201, 2969)" filter="url(#Trazado_982538)">
        <g id="Trazado_982538-2" data-name="Trazado 982538" transform="translate(9 6)" fill="#f3f3f3">
          <path d="M 45 88.5 C 39.12687683105469 88.5 33.43022537231445 87.35007476806641 28.06830024719238 85.08217620849609 C 22.88852500915527 82.89131164550781 18.23629951477051 79.75458526611328 14.2408504486084 75.75914764404297 C 10.24541282653809 71.76370239257812 7.108687400817871 67.11147308349609 4.917825222015381 61.93170166015625 C 2.649924993515015 56.56977462768555 1.5 50.87312316894531 1.5 45 C 1.5 39.12687683105469 2.649924993515015 33.43022537231445 4.917825222015381 28.06830024719238 C 7.108687400817871 22.88852500915527 10.24541282653809 18.23629951477051 14.2408504486084 14.2408504486084 C 18.23629951477051 10.24541282653809 22.88852500915527 7.108687400817871 28.06830024719238 4.917825222015381 C 33.43022537231445 2.649924993515015 39.12687683105469 1.5 45 1.5 C 50.87312316894531 1.5 56.56977462768555 2.649924993515015 61.93170166015625 4.917825222015381 C 67.11147308349609 7.108687400817871 71.76370239257812 10.24541282653809 75.75914764404297 14.2408504486084 C 79.75458526611328 18.23629951477051 82.89131164550781 22.88852500915527 85.08217620849609 28.06830024719238 C 87.35007476806641 33.43022537231445 88.5 39.12687683105469 88.5 45 C 88.5 50.87312316894531 87.35007476806641 56.56977462768555 85.08217620849609 61.93170166015625 C 82.89131164550781 67.11147308349609 79.75458526611328 71.76370239257812 75.75914764404297 75.75914764404297 C 71.76370239257812 79.75458526611328 67.11147308349609 82.89131164550781 61.93170166015625 85.08217620849609 C 56.56977462768555 87.35007476806641 50.87312316894531 88.5 45 88.5 Z" stroke="none"/>
          <path d="M 45 3 C 39.32871246337891 3 33.82865524291992 4.110054016113281 28.65262985229492 6.299339294433594 C 23.65165710449219 8.414573669433594 19.15968322753906 11.44334411621094 15.301513671875 15.301513671875 C 11.44334411621094 19.15968322753906 8.414573669433594 23.65165710449219 6.299339294433594 28.65262985229492 C 4.110054016113281 33.82865524291992 3 39.32871246337891 3 45 C 3 50.67128753662109 4.110054016113281 56.17134475708008 6.299339294433594 61.34737396240234 C 8.414573669433594 66.34834289550781 11.44334411621094 70.84031677246094 15.301513671875 74.698486328125 C 19.15968322753906 78.55665588378906 23.65165710449219 81.58542633056641 28.65262985229492 83.70066070556641 C 33.82865524291992 85.88994598388672 39.32871246337891 87 45 87 C 50.67128753662109 87 56.17134475708008 85.88994598388672 61.34737396240234 83.70066070556641 C 66.34834289550781 81.58542633056641 70.84031677246094 78.55665588378906 74.698486328125 74.698486328125 C 78.55665588378906 70.84031677246094 81.58542633056641 66.34834289550781 83.70066070556641 61.34737396240234 C 85.88994598388672 56.17134475708008 87 50.67128753662109 87 45 C 87 39.32871246337891 85.88994598388672 33.82865524291992 83.70066070556641 28.65262985229492 C 81.58542633056641 23.65165710449219 78.55665588378906 19.15968322753906 74.698486328125 15.301513671875 C 70.84031677246094 11.44334411621094 66.34834289550781 8.414573669433594 61.34737396240234 6.299339294433594 C 56.17134475708008 4.110054016113281 50.67128753662109 3 45 3 M 45 0 C 69.85281372070312 0 90 20.14718627929688 90 45 C 90 69.85281372070312 69.85281372070312 90 45 90 C 20.14718627929688 90 0 69.85281372070312 0 45 C 0 20.14718627929688 20.14718627929688 0 45 0 Z" stroke="none" fill="#fdc621"/>
        </g>
      </g>
    </g>
    <g id="Layer_x0020_1" transform="translate(223.338 8497.168)">
      <path id="Trazado_986287" data-name="Trazado 986287" d="M21.914,49.905H13.86a.742.742,0,0,1,0-1.484h8.054a.742.742,0,0,1,0,1.484ZM35.44,44.5c-2.809-.561-2.917-.216-2.917-1.916H17.6a.742.742,0,0,1,0-1.484H32.524V40.2l0-.033,0-.032,0-.016.006-.032.008-.031,0-.015.009-.03.011-.03c.008-.02.016-.039.025-.058h0q.01-.021.022-.042h0l.008-.014a.748.748,0,0,1,.492-.347l2.176-.435H30.59a.742.742,0,0,1,0-1.484h6.148l.943-1.954a28.206,28.206,0,0,1-1.929-2.979l.038-.453.034-.071.024-.041.017-.025H30.59a.742.742,0,0,1,0-1.484h6.743c1.513-1.513,1.093-1.3,3.773.491l.684.456A11.964,11.964,0,0,1,45.019,30.2l.644-3.222c.153-.763.975-.6,1.518-.6V13.808H41.095c0,1.441.229,2.174-.522,2.476-.273.11-17.861.033-19.743.033a.744.744,0,0,1-.742-.742V13.808H14V44.944H25.66a.738.738,0,0,1,.416.127l5.481,3.464a.749.749,0,0,1,0,1.254l-5.5,3.475-.078.044-.1.04-.226.034H14v2.356H45.494l-.475-2.375L43.2,52.749l-.15-.066-.2-.091h0l-.05-.023q-.52-.247-1.016-.545l-2.735,1.823a.74.74,0,0,1-.937-.093L35.95,51.586a.739.739,0,0,1-.092-.937l1.823-2.735a11.817,11.817,0,0,1-1.339-3.23l-.9-.181ZM50.184,26.978l.645,3.222q.391.1.772.221V10.4a1.016,1.016,0,0,0-1.015-1.015H41.095v2.937h6.828a.742.742,0,0,1,.742.742V26.381c.554,0,1.374-.129,1.519.6Zm2.9,4.036q.5.239.973.525l2.736-1.824a.742.742,0,0,1,.936.093L59.9,31.975a.742.742,0,0,1,.093.936l-1.824,2.735A11.821,11.821,0,0,1,59.5,38.876l3.222.645a.743.743,0,0,1,.6.728v3.065a.742.742,0,0,1-.6.728l-3.222.645a11.8,11.8,0,0,1-1.339,3.229L59.99,50.65a.741.741,0,0,1-.093.936L57.73,53.754a.743.743,0,0,1-.936.093l-2.736-1.824q-.475.286-.972.525v6.6a2.5,2.5,0,0,1-2.5,2.5H10.595a2.5,2.5,0,0,1-2.5-2.5V53.382H4.219a4.219,4.219,0,0,1,0-8.438H8.1V10.4a2.5,2.5,0,0,1,2.5-2.5h9.493c0-1.052-.27-2.509.742-2.509h4.358V3.451A3.432,3.432,0,0,1,28.615.023h3.95a3.432,3.432,0,0,1,3.429,3.428V5.4h4.358c1.012,0,.742,1.457.742,2.509h9.491a2.5,2.5,0,0,1,2.5,2.5V31.014ZM51.6,53.141l-.772.221c-.136.677-.491,2.873-.687,3.362h0l-.006.015a.75.75,0,0,1-.036.071h0l-.017.027-.018.026-.019.025-.4.267c-.637.171-33.154.066-36.391.066a.743.743,0,0,1-.742-.742v-3.1H9.579v5.761a1.016,1.016,0,0,0,1.015,1.015H50.586A1.016,1.016,0,0,0,51.6,59.143v-6ZM47,55.7h1.848A21.773,21.773,0,0,1,49.6,52.3c.37-.5,1.95-.395,4.063-1.785a.744.744,0,0,1,.82,0l2.629,1.752,1.307-1.307-1.752-2.629c-.534-.8.888-1.473,1.5-4.436a.741.741,0,0,1,.581-.578l3.1-.619V40.856l-3.1-.619c-.942-.188-.413-1.658-2.081-4.194a.744.744,0,0,1,0-.82l1.753-2.629-1.307-1.307c-3.927,2.617-2.3,2.082-5.061.888-3.1-1.34-2.241.5-3.2-4.309H47a27.272,27.272,0,0,1-.714,3.338c-.363.6-1.832.348-4.1,1.84a.742.742,0,0,1-.819,0l-2.629-1.752-1.306,1.306c.341.512,1.882,2.582,1.876,3.051,0,.3-1.015,1.8-1.324,2.891a5.268,5.268,0,0,1-.456,1.451c-.275.368-2.852.737-3.519.87V42.7l3.1.619c.61.122.677.922.791,1.416.505,2.2,1.819,2.74,1.287,3.6L37.43,50.968l1.307,1.307,2.629-1.752c.8-.534,1.473.888,4.437,1.5a.741.741,0,0,1,.578.581L47,55.7Zm.925-6.328a7.588,7.588,0,1,1,7.588-7.588A7.6,7.6,0,0,1,47.924,49.368Zm0-13.691a6.1,6.1,0,1,0,6.1,6.1,6.11,6.11,0,0,0-6.1-6.1ZM10.989,51.9H24.918V46.429H10.989ZM21.571,14.833H39.61V6.88H21.571ZM20.087,9.389H10.595A1.016,1.016,0,0,0,9.58,10.4v34.54h2.936V13.067a.742.742,0,0,1,.742-.742h6.83V9.389ZM26.671,5.4H34.51V3.451a1.946,1.946,0,0,0-1.944-1.944h-3.95a1.946,1.946,0,0,0-1.944,1.944V5.4ZM42.877,28.572H36.138a.742.742,0,0,1,0-1.484h6.739A.742.742,0,0,1,42.877,28.572Zm-9.8,0H17.6a.742.742,0,0,1,0-1.484H33.074A.742.742,0,0,1,33.074,28.572Zm-5.2,3.5H17.6a.742.742,0,0,1,0-1.484H27.873A.742.742,0,0,1,27.873,32.077Zm5.2,3.5H17.6a.742.742,0,0,1,0-1.484H33.074A.742.742,0,0,1,33.074,35.581Zm-5.2,3.5H17.6a.742.742,0,0,1,0-1.484H27.873A.742.742,0,0,1,27.873,39.085Zm20.051,6.478a3.782,3.782,0,1,1,3.782-3.782A3.787,3.787,0,0,1,47.924,45.563Zm0-6.08a2.3,2.3,0,0,0,0,4.6A2.3,2.3,0,0,0,47.924,39.483ZM4.219,46.429a2.734,2.734,0,1,0,0,5.469H6.687V46.429H4.219Zm5.286,0H8.171V51.9H9.505Zm16.9.6v4.26l3.369-2.13L26.4,47.033Zm16.475-22.3H17.6A.742.742,0,0,1,16.856,24V19.7a.742.742,0,0,1,.742-.742h25.28a.742.742,0,0,1,.742.742V24a.742.742,0,0,1-.742.742ZM18.34,23.253h23.8V20.438H18.34ZM5.7,35.092a.743.743,0,0,1-.742-.742V18.117a.742.742,0,0,1,1.484,0V34.35A.743.743,0,0,1,5.7,35.092Zm0,4.493c-1.012,0-.742-1.443-.742-2.578a.742.742,0,0,1,1.484,0C6.441,38.142,6.711,39.585,5.7,39.585Z" transform="translate(0 0)" fill="#000002" fill-rule="evenodd"/>
      <path id="Trazado_986288" data-name="Trazado 986288" d="M.581,8.161H18.621V.208H.581Z" transform="translate(20.989 6.672)" fill="#4d6699" fill-rule="evenodd"/>
      <path id="Trazado_986289" data-name="Trazado 986289" d="M10.766,3.212V.275H1.273A1.016,1.016,0,0,0,.258,1.291v34.54H3.194V3.954a.742.742,0,0,1,.742-.742h6.83Z" transform="translate(9.321 9.113)" fill="#ffbe40" fill-rule="evenodd"/>
      <path id="Trazado_986290" data-name="Trazado 986290" d="M1.108.275V3.212H7.936a.742.742,0,0,1,.742.742V17.268c.554,0,1.374-.129,1.519.6l.645,3.222q.391.1.772.221V1.291A1.016,1.016,0,0,0,10.6.275H1.108Z" transform="translate(39.987 9.113)" fill="#ffbe40" fill-rule="evenodd"/>
      <path id="Trazado_986291" data-name="Trazado 986291" d="M24.29.573H.494V3.389h23.8Z" transform="translate(17.845 19.865)" fill="#ff6673" fill-rule="evenodd"/>
      <path id="Trazado_986292" data-name="Trazado 986292" d="M3.975,5.54h25.28A.742.742,0,0,1,30,6.282v4.3a.742.742,0,0,1-.742.742H3.975a.742.742,0,0,1-.742-.742v-4.3a.742.742,0,0,1,.742-.742ZM33.559.395H27.473c0,1.441.229,2.174-.522,2.476C26.677,2.98,9.09,2.9,7.207,2.9a.744.744,0,0,1-.742-.742V.395H.377V31.531H12.038a.738.738,0,0,1,.416.127l5.481,3.464a.749.749,0,0,1,0,1.254l-5.5,3.475-.078.044-.1.04-.226.034H.377v2.356H31.872L31.4,39.949l-1.814-.613-.15-.066-.2-.091-.05-.023q-.52-.247-1.016-.545l-2.735,1.823a.74.74,0,0,1-.937-.093l-2.168-2.167a.739.739,0,0,1-.092-.937L24.059,34.5a11.817,11.817,0,0,1-1.339-3.23l-.9-.181c-2.809-.561-2.917-.216-2.917-1.916H3.975a.742.742,0,0,1,0-1.484H18.9v-.906l0-.033,0-.032,0-.016.006-.032.008-.031,0-.015.009-.03.011-.03.025-.058L19,26.467l.008-.014a.748.748,0,0,1,.492-.347l2.176-.435H16.968a.742.742,0,0,1,0-1.484h6.148l.943-1.954a28.206,28.206,0,0,1-1.929-2.979l.038-.453.034-.071.024-.041.017-.025H16.968a.742.742,0,0,1,0-1.484h6.743c1.513-1.513,1.093-1.3,3.773.491l.684.456A11.964,11.964,0,0,1,31.4,16.787l.644-3.222c.153-.763.975-.6,1.518-.6V.395ZM22.516,13.675h6.739a.742.742,0,0,1,0,1.484H22.516A.742.742,0,0,1,22.516,13.675Zm-18.541,0H19.452a.742.742,0,0,1,0,1.484H3.975a.742.742,0,0,1,0-1.484Zm0,3.5H14.251a.742.742,0,0,1,0,1.484H3.976A.742.742,0,0,1,3.976,17.179Zm0,3.5H19.452a.742.742,0,0,1,0,1.484H3.975a.742.742,0,0,1,0-1.484Zm0,3.5H14.251a.742.742,0,0,1,0,1.484H3.976A.742.742,0,0,1,3.976,24.187Z" transform="translate(13.622 13.413)" fill="#fff" fill-rule="evenodd"/>
      <path id="Trazado_986293" data-name="Trazado 986293" d="M4.081,3.42.712,1.29V5.55Z" transform="translate(25.691 45.743)" fill="#ffd98f" fill-rule="evenodd"/>
      <path id="Trazado_986294" data-name="Trazado 986294" d="M14.225,6.741V1.274H.3V6.741Zm-3-3.476a.742.742,0,0,1,0,1.484H3.167a.742.742,0,0,1,0-1.484h8.054Z" transform="translate(10.693 45.156)" fill="#7ed96c" fill-rule="evenodd"/>
      <path id="Trazado_986295" data-name="Trazado 986295" d="M1.555,6.741V1.274H.22V6.741Z" transform="translate(7.95 45.156)" fill="#aae69f" fill-rule="evenodd"/>
      <path id="Trazado_986296" data-name="Trazado 986296" d="M5.242,6.743V1.274H2.775a2.734,2.734,0,1,0,0,5.469Z" transform="translate(1.444 45.155)" fill="#7ed96c" fill-rule="evenodd"/>
      <path id="Trazado_986297" data-name="Trazado 986297" d="M.258,1.7V7.456A1.016,1.016,0,0,0,1.273,8.471H41.265A1.016,1.016,0,0,0,42.28,7.456v-6l-.772.221c-.136.677-.491,2.873-.687,3.362l-.006.015-.036.071-.017.027-.018.026-.019.025-.4.267c-.637.171-33.154.066-36.391.066a.743.743,0,0,1-.742-.742V1.7H.258Z" transform="translate(9.321 51.687)" fill="#ffbe40" fill-rule="evenodd"/>
      <path id="Trazado_986298" data-name="Trazado 986298" d="M3.5,1.086a2.3,2.3,0,0,0,0,4.6A2.3,2.3,0,0,0,3.5,1.086Z" transform="translate(44.426 38.396)" fill="#fff" fill-rule="evenodd"/>
      <path id="Trazado_986299" data-name="Trazado 986299" d="M3.448,7.087A3.782,3.782,0,1,1,7.23,10.87,3.787,3.787,0,0,1,3.448,7.087Zm9.886,0a6.1,6.1,0,1,0-6.1,6.1A6.11,6.11,0,0,0,13.333,7.087Z" transform="translate(40.694 34.694)" fill="#98c0ca" fill-rule="evenodd"/>
      <path id="Trazado_986300" data-name="Trazado 986300" d="M7.245,14.689a7.588,7.588,0,1,1,7.588,7.588A7.6,7.6,0,0,1,7.245,14.689ZM13.908.775a27.272,27.272,0,0,1-.714,3.338c-.363.6-1.832.348-4.1,1.84a.742.742,0,0,1-.819,0L5.645,4.2,4.339,5.5c.341.512,1.882,2.582,1.876,3.051,0,.3-1.015,1.8-1.324,2.891A5.268,5.268,0,0,1,4.436,12.9c-.275.368-2.852.737-3.519.87v1.847l3.1.619c.61.122.677.922.791,1.416.505,2.2,1.819,2.74,1.287,3.6L4.339,23.876l1.307,1.307L8.274,23.43c.8-.534,1.473.888,4.437,1.5a.741.741,0,0,1,.578.581l.619,3.1h1.848a21.773,21.773,0,0,1,.751-3.392c.37-.5,1.95-.395,4.063-1.785a.744.744,0,0,1,.82,0l2.629,1.752,1.307-1.307-1.752-2.629c-.534-.8.888-1.473,1.5-4.436a.741.741,0,0,1,.581-.578l3.1-.619V13.765l-3.1-.619c-.942-.188-.413-1.658-2.081-4.194a.744.744,0,0,1,0-.82L25.326,5.5,24.02,4.195c-3.927,2.617-2.3,2.082-5.061.888-3.1-1.34-2.241.5-3.2-4.309H13.908Z" transform="translate(33.091 27.092)" fill="#7ca1b1" fill-rule="evenodd"/>
    </g>
  </g>
</svg>
