<svg xmlns="http://www.w3.org/2000/svg" width="452.867" height="522.492" viewBox="0 0 452.867 522.492">
  <g id="Grupo_1151567" data-name="Grupo 1151567" transform="translate(1503 -10008.754)">
    <g id="Grupo_1151566" data-name="Grupo 1151566" transform="translate(2207.386 4451.204)">
      <path id="Trazado_985826" data-name="Trazado 985826" d="M706.623,322.456c-17.548-14.412-41-19.115-63.556-21.7-20.538-2.357-42.832-2.965-60.181,8.278-10.976,7.113-18.647,18.165-26.91,28.3a238.455,238.455,0,0,1-64.069,54.919c-20.274,11.887-42.206,20.711-62.669,32.268s-39.924,26.427-51.446,46.911c-9.592,17.053-13.055,36.888-14.274,56.415-1.189,19.058-.294,38.682,6.865,56.384C377.207,601.1,389.3,615.24,401.549,628.7a978.625,978.625,0,0,0,86.12,83.643c13.4,11.505,27.633,22.926,44.614,27.787,29.151,8.345,60.764-4.563,83.926-24.13s40.144-45.261,59.666-68.461c15.8-18.78,33.863-36.834,41.669-60.1,9.91-29.544,1.5-61.981,5.192-92.923,2.016-16.889,7.578-33.1,9.918-49.932,2.094-15.054,1.3-30.811,2.2-46.015C736.5,370.879,728.821,340.688,706.623,322.456Z" transform="translate(-4027.053 5279.378)" fill="#eaf2fb"/>
      <path id="Trazado_985827" data-name="Trazado 985827" d="M1341.123,474.6c-.752,5.664-10.08,15.04-13.324,19.9q-7.258,10.874-14.458,21.785c-9.186,13.951-18.266,27.975-27.112,42.145-18.037,28.891-35.154,58.4-50.229,88.952-3.652,7.4-19.129,29.372-1.683,24.048,10.939-3.339,22.934-20.581,30.172-28.845a323.116,323.116,0,0,0,48.059-72.843A316.306,316.306,0,0,0,1341.123,474.6Z" transform="translate(-4668.942 5149.048)" fill="#feedbb"/>
      <path id="Trazado_985828" data-name="Trazado 985828" d="M1386.377,634.937c-2.494,5.413-14.679,11.885-19.41,15.73q-10.583,8.6-21.121,17.258-20.18,16.612-40,33.65c-26.877,23.238-53.026,47.37-77.464,73.179-5.92,6.252-28.114,23.38-9.086,23.449,11.93.043,29.2-13.447,38.957-19.453a337.07,337.07,0,0,0,70.339-57.793A329.859,329.859,0,0,0,1386.377,634.937Z" transform="translate(-4658.2 5029.803)" fill="#d9f3ff"/>
      <g id="Grupo_1151076" data-name="Grupo 1151076" transform="translate(-3450.202 5751.824)">
        <path id="Trazado_985829" data-name="Trazado 985829" d="M1324.3,1085.115c50.675-42.3,57.45-108.986,57.45-108.986s-75.384,1.887-126.058,44.183-57.45,108.986-57.45,108.986S1273.633,1127.411,1324.3,1085.115Z" transform="translate(-1197.967 -975.766)" fill="#fed6c4"/>
        <g id="Grupo_1151072" data-name="Grupo 1151072" transform="translate(0 0)">
          <rect id="Rectángulo_407969" data-name="Rectángulo 407969" width="239.031" height="0.871" transform="matrix(0.768, -0.641, 0.641, 0.768, 0, 153.171)" fill="#fff"/>
        </g>
        <g id="Grupo_1151073" data-name="Grupo 1151073" transform="translate(67.055 32.747)">
          <rect id="Rectángulo_407970" data-name="Rectángulo 407970" width="65.001" height="0.871" transform="matrix(0.1, -0.995, 0.995, 0.1, 0, 64.676)" fill="#fff"/>
        </g>
        <g id="Grupo_1151074" data-name="Grupo 1151074" transform="translate(84.206 23.516)">
          <rect id="Rectángulo_407971" data-name="Rectángulo 407971" width="59.89" height="0.871" transform="matrix(0.1, -0.995, 0.995, 0.1, 0, 59.591)" fill="#fff"/>
        </g>
        <g id="Grupo_1151075" data-name="Grupo 1151075" transform="translate(107.248 62.438)">
          <rect id="Rectángulo_407972" data-name="Rectángulo 407972" width="56.202" height="0.871" transform="translate(0 1.371) rotate(-1.398)" fill="#fff"/>
        </g>
      </g>
      <g id="Grupo_1151078" data-name="Grupo 1151078" transform="translate(-3448.136 5557.549)">
        <g id="Grupo_1151077" data-name="Grupo 1151077">
          <path id="Trazado_985830" data-name="Trazado 985830" d="M1278.08,234.921a37.893,37.893,0,0,0-9.91-7.4l.17-8.12a45.531,45.531,0,0,0-8.775-2.688l-5.076,6.747a38.233,38.233,0,0,0-10.922.466L1238.4,217.5a45.194,45.194,0,0,0-8.986,3.577l.445,8.36a38.273,38.273,0,0,0-7.835,6.792l-8.212-1.626a45.166,45.166,0,0,0-4.815,8.387l5.624,6.022a38.233,38.233,0,0,0-2.011,10.745l-7.4,4.067a45.528,45.528,0,0,0,1.416,9.068l8.062.984a37.887,37.887,0,0,0,5.922,10.86l-3.044,7.847a45.523,45.523,0,0,0,6.291,5.553l6.766-4.4a37.981,37.981,0,0,0,13.07,5.039l2.68,7.872a45.757,45.757,0,0,0,7.68.076l2.36-7.742a37.841,37.841,0,0,0,14.157-5.186l7,4.239q1.479-1.087,2.892-2.308t2.695-2.535l-3.2-7.531a37.841,37.841,0,0,0,7.142-13.277l8-1.238a45.751,45.751,0,0,0,1.014-7.613l-7.412-3.769a37.975,37.975,0,0,0-3.134-13.652l5.317-6.073a45.532,45.532,0,0,0-4.6-7.015ZM1263,275.579a18.257,18.257,0,1,1,1.836-25.754A18.258,18.258,0,0,1,1263,275.579Z" transform="translate(-1205.216 -216.71)" fill="#7ac4ed"/>
        </g>
      </g>
      <g id="Grupo_1151080" data-name="Grupo 1151080" transform="translate(-3495.69 5570.735)">
        <g id="Grupo_1151079" data-name="Grupo 1151079">
          <path id="Trazado_985831" data-name="Trazado 985831" d="M1070.051,280.748a26.188,26.188,0,0,0-6.852-5.118l.118-5.614a31.471,31.471,0,0,0-6.067-1.858l-3.509,4.665a26.443,26.443,0,0,0-7.551.322l-3.57-4.44a31.235,31.235,0,0,0-6.213,2.473l.308,5.78a26.456,26.456,0,0,0-5.417,4.7l-5.678-1.124a31.214,31.214,0,0,0-3.329,5.8l3.888,4.163a26.439,26.439,0,0,0-1.39,7.429l-5.115,2.812a31.458,31.458,0,0,0,.979,6.269l5.574.68a26.207,26.207,0,0,0,4.095,7.508l-2.1,5.426a31.485,31.485,0,0,0,4.35,3.839l4.678-3.043a26.263,26.263,0,0,0,9.036,3.484l1.853,5.442a31.657,31.657,0,0,0,5.31.053l1.632-5.353a26.165,26.165,0,0,0,9.788-3.586l4.84,2.931q1.022-.752,2-1.6t1.863-1.753l-2.215-5.207a26.164,26.164,0,0,0,4.937-9.18l5.53-.856a31.585,31.585,0,0,0,.7-5.263l-5.125-2.606a26.27,26.27,0,0,0-2.167-9.439l3.676-4.2a31.5,31.5,0,0,0-3.183-4.85Zm-10.426,28.11a12.623,12.623,0,1,1,1.27-17.806A12.623,12.623,0,0,1,1059.624,308.858Z" transform="translate(-1019.674 -268.157)" fill="#fdc621"/>
        </g>
      </g>
      <g id="Grupo_1151085" data-name="Grupo 1151085" transform="translate(-3664.752 5700.975)">
        <path id="Trazado_985832" data-name="Trazado 985832" d="M446.579,954.608c-6.372-.8-12.8-4.626-14.728-10.752-1.126-3.57-.621-7.441.186-11.1.742-3.358,1.736-6.807,1.055-10.178-1.238-6.139-7.476-9.843-13.355-12s-12.391-3.794-16.47-8.545c-9.708-11.307.968-31.286-8.569-42.739-4.707-5.652-12.753-7.054-18.83-11.2-10.2-6.956-13.407-20.408-14.7-32.685a205.24,205.24,0,0,1-.886-31.464c.129-2.657.573-5.752,2.89-7.057,1.872-1.054,4.211-.47,6.236.247A61.066,61.066,0,0,1,404.086,808.8c1.389,3.021,2.73,6.392,5.635,8.008,3.4,1.89,7.581.674,11.414.019,19.59-3.347,40.323,12.353,42.414,32.117.591,5.589-.113,11.274.72,16.833s3.7,11.341,8.947,13.361c3.562,1.372,7.556.778,11.321,1.409,9.41,1.578,16.069,10.893,17.3,20.354s-1.884,18.943-5.741,27.67c-2.638,5.969-5.721,11.881-10.351,16.481C477.212,953.537,458.163,956.069,446.579,954.608Z" transform="translate(-360.04 -776.316)" fill="#fed6c4"/>
        <g id="Grupo_1151081" data-name="Grupo 1151081" transform="translate(9.334 17.429)">
          <path id="Trazado_985833" data-name="Trazado 985833" d="M519.854,985.892c-17.818-11.865-42.211-35.526-68.688-66.623C428,892.054,407.034,863.517,396.461,844.8l.84-.474c21.018,37.216,84.523,115.086,123.088,140.767Z" transform="translate(-396.461 -844.321)" fill="#fff"/>
        </g>
        <g id="Grupo_1151082" data-name="Grupo 1151082" transform="translate(75.591 58.72)">
          <rect id="Rectángulo_407973" data-name="Rectángulo 407973" width="32.964" height="0.964" transform="matrix(0.036, -0.999, 0.999, 0.036, 0, 32.944)" fill="#fff"/>
        </g>
        <g id="Grupo_1151083" data-name="Grupo 1151083" transform="translate(80.161 148.436)">
          <rect id="Rectángulo_407974" data-name="Rectángulo 407974" width="32.964" height="0.964" transform="translate(0 6.975) rotate(-12.216)" fill="#fff"/>
        </g>
        <g id="Grupo_1151084" data-name="Grupo 1151084" transform="translate(8.922 52.799)">
          <rect id="Rectángulo_407975" data-name="Rectángulo 407975" width="0.964" height="16.464" transform="matrix(0.149, -0.989, 0.989, 0.149, 0, 0.954)" fill="#fff"/>
        </g>
      </g>
      <g id="Grupo_1151090" data-name="Grupo 1151090" transform="translate(-3710.386 5785.439)">
        <path id="Trazado_985834" data-name="Trazado 985834" d="M302.723,1141.427c-52.062-41.745-119.5-35.1-119.5-35.1s16.967,74.323,69.029,116.068,119.5,35.1,119.5,35.1S354.785,1183.171,302.723,1141.427Z" transform="translate(-182.904 -1105.92)" fill="#feedbb"/>
        <g id="Grupo_1151086" data-name="Grupo 1151086" transform="translate(0 0)">
          <rect id="Rectángulo_407976" data-name="Rectángulo 407976" width="1.045" height="241.656" transform="translate(0 0.815) rotate(-51.276)" fill="#fff"/>
        </g>
        <g id="Grupo_1151087" data-name="Grupo 1151087" transform="translate(54.371 95.719)">
          <rect id="Rectángulo_407977" data-name="Rectángulo 407977" width="65.715" height="1.045" transform="translate(0 6.493) rotate(-5.67)" fill="#fff"/>
        </g>
        <g id="Grupo_1151088" data-name="Grupo 1151088" transform="translate(41.893 81.591)">
          <rect id="Rectángulo_407978" data-name="Rectángulo 407978" width="60.548" height="1.045" transform="translate(0 5.982) rotate(-5.67)" fill="#fff"/>
        </g>
        <g id="Grupo_1151089" data-name="Grupo 1151089" transform="translate(65.815 7.933)">
          <rect id="Rectángulo_407979" data-name="Rectángulo 407979" width="1.045" height="56.819" transform="matrix(0.975, -0.222, 0.222, 0.975, 0, 0.232)" fill="#fff"/>
        </g>
      </g>
      <g id="Grupo_1151108" data-name="Grupo 1151108" transform="translate(-3371.952 5814.605)">
        <g id="Grupo_1151094" data-name="Grupo 1151094" transform="translate(40.329 194.226)">
          <path id="Trazado_985835" data-name="Trazado 985835" d="M1681.48,1977.514c-.088,1.687-.169,12.442-.638,13.278s-20.684,4.586-21.016,2.567,9.133-15.874,9.133-15.874Z" transform="translate(-1659.818 -1977.484)" fill="#fdc621"/>
          <path id="Trazado_985836" data-name="Trazado 985836" d="M1686.844,1980.47l12.957,2.424c-.024,1.088-.052,2.333-.088,3.571-3.963-.147-12.956-.613-15.149-2.546C1685.514,1982.456,1686.342,1981.218,1686.844,1980.47Z" transform="translate(-1678.221 -1979.705)" fill="#204a7b"/>
          <path id="Trazado_985837" data-name="Trazado 985837" d="M1681.459,2024.225c-1.541.561-15.119,3.188-20.174,2.945a7.471,7.471,0,0,1-.9-.092c.028-.087.061-.179.1-.275,4.187.684,19.988-2.391,20.95-2.876l.05.1C1681.472,2024.094,1681.467,2024.161,1681.459,2024.225Z" transform="translate(-1660.237 -2012.024)" fill="#fff"/>
          <g id="Grupo_1151091" data-name="Grupo 1151091" transform="translate(4.838 6.189)">
            <path id="Trazado_985838" data-name="Trazado 985838" d="M1682.376,2003.26c.087,0,.173.007.259.007a.144.144,0,0,0,.145-.143.142.142,0,0,0-.143-.145,5.4,5.4,0,0,1-3.686-1.29.144.144,0,0,0-.227.178A5.459,5.459,0,0,0,1682.376,2003.26Z" transform="translate(-1678.694 -2001.633)" fill="#fff"/>
          </g>
          <g id="Grupo_1151092" data-name="Grupo 1151092" transform="translate(3.7 7.83)">
            <path id="Trazado_985839" data-name="Trazado 985839" d="M1677.936,2009.66c.087,0,.173.007.259.007a.144.144,0,0,0,.145-.143.141.141,0,0,0-.143-.145,5.406,5.406,0,0,1-3.686-1.29.144.144,0,0,0-.227.178A5.472,5.472,0,0,0,1677.936,2009.66Z" transform="translate(-1674.254 -2008.033)" fill="#fff"/>
          </g>
          <g id="Grupo_1151093" data-name="Grupo 1151093" transform="translate(2.559 9.467)">
            <path id="Trazado_985840" data-name="Trazado 985840" d="M1673.485,2016.05c.087,0,.173.007.259.007a.144.144,0,0,0,.145-.143.141.141,0,0,0-.143-.145,5.409,5.409,0,0,1-3.686-1.29.144.144,0,0,0-.227.178A5.477,5.477,0,0,0,1673.485,2016.05Z" transform="translate(-1669.803 -2014.423)" fill="#fff"/>
          </g>
        </g>
        <g id="Grupo_1151098" data-name="Grupo 1151098" transform="translate(91.086 190.65)">
          <path id="Trazado_985841" data-name="Trazado 985841" d="M1875.369,1963.53c.3,1.662,2.691,12.148,2.426,13.07s-19.079,9.211-19.866,7.322,5.246-17.547,5.246-17.547Z" transform="translate(-1857.858 -1963.53)" fill="#fdc621"/>
          <path id="Trazado_985842" data-name="Trazado 985842" d="M1873.177,1976.207l13.167-.615c.227,1.064.485,2.282.734,3.5-3.891.766-12.75,2.377-15.329,1C1872.339,1978.447,1872.859,1977.052,1873.177,1976.207Z" transform="translate(-1868.189 -1972.501)" fill="#204a7b"/>
          <path id="Trazado_985843" data-name="Trazado 985843" d="M1877.781,2009.319c-1.371.9-13.984,6.573-18.959,7.5a7.5,7.5,0,0,1-.9.118c.007-.091.018-.188.031-.29,4.232-.295,18.906-6.915,19.731-7.607l.071.085C1877.763,2009.188,1877.773,2009.255,1877.781,2009.319Z" transform="translate(-1857.904 -1997.373)" fill="#fff"/>
          <g id="Grupo_1151095" data-name="Grupo 1151095" transform="translate(2.58 9.818)">
            <path id="Trazado_985844" data-name="Trazado 985844" d="M1871.853,2002.611q.128-.024.254-.053a.144.144,0,0,0,.109-.173.143.143,0,0,0-.173-.109,5.4,5.4,0,0,1-3.883-.41.144.144,0,1,0-.18.225A5.46,5.46,0,0,0,1871.853,2002.611Z" transform="translate(-1867.925 -2001.836)" fill="#fff"/>
          </g>
          <g id="Grupo_1151096" data-name="Grupo 1151096" transform="translate(1.847 11.676)">
            <path id="Trazado_985845" data-name="Trazado 985845" d="M1868.993,2009.861q.128-.024.254-.052a.144.144,0,0,0,.109-.173.141.141,0,0,0-.173-.109,5.407,5.407,0,0,1-3.883-.41.144.144,0,0,0-.18.225A5.473,5.473,0,0,0,1868.993,2009.861Z" transform="translate(-1865.065 -2009.086)" fill="#fff"/>
          </g>
          <g id="Grupo_1151097" data-name="Grupo 1151097" transform="translate(1.114 13.531)">
            <path id="Trazado_985846" data-name="Trazado 985846" d="M1866.133,2017.1q.128-.024.254-.052a.144.144,0,0,0,.109-.172.141.141,0,0,0-.173-.109,5.408,5.408,0,0,1-3.883-.41.144.144,0,0,0-.18.225A5.46,5.46,0,0,0,1866.133,2017.1Z" transform="translate(-1862.206 -2016.326)" fill="#fff"/>
          </g>
        </g>
        <g id="Grupo_1151099" data-name="Grupo 1151099" transform="translate(42.434 111.19)">
          <path id="Trazado_985847" data-name="Trazado 985847" d="M1669.783,1741.112l21.654-.849-1.7-43.346,12.681-36.261-20.456-7.154-13.029,37.257a16.117,16.117,0,0,0-.891,5.954Z" transform="translate(-1668.03 -1653.502)" fill="#3b89e1"/>
        </g>
        <g id="Grupo_1151100" data-name="Grupo 1151100" transform="translate(65.778 107.153)">
          <path id="Trazado_985848" data-name="Trazado 985848" d="M1787.161,1730.023l20.606-6.71c-9.908-30.425-26.043-80.559-27.162-85.565a9.213,9.213,0,0,1,.178,1.872h-21.671c0,2.328,0,3.291,14.276,47.791C1780.2,1708.633,1787.095,1729.811,1787.161,1730.023Z" transform="translate(-1759.113 -1637.748)" fill="#3b89e1"/>
        </g>
        <path id="Trazado_985849" data-name="Trazado 985849" d="M1726.289,1686.139c-1.474-.843-19.523-9.821-19.523-9.821l2.634-7.535,14.113,2.538Z" transform="translate(-1654.405 -1553.676)" fill="#204a7b"/>
        <path id="Trazado_985850" data-name="Trazado 985850" d="M1787.839,1677.47s-2.723,3.654-11.51,5.7l-8.787,2.042-2.744-7.433Z" transform="translate(-1697.562 -1560.137)" fill="#204a7b"/>
        <path id="Trazado_985851" data-name="Trazado 985851" d="M1693.647,1365.9l-10.342,1.852-16.578,78.314s12.191,6.817,36.9,2.521c19.889-3.458,25.13-11.141,25.13-11.141Z" transform="translate(-1624.627 -1328.421)" fill="#82e0e0"/>
        <g id="Grupo_1151101" data-name="Grupo 1151101" transform="translate(52.362 16.975)">
          <path id="Trazado_985852" data-name="Trazado 985852" d="M1707.12,1294.544a8.284,8.284,0,1,1,14.057,5.933l2.484,5.868-12.395,11.487,2.078-9.307-.93-6.262A8.282,8.282,0,0,1,1707.12,1294.544Z" transform="translate(-1707.03 -1286.168)" fill="#fff"/>
          <path id="Trazado_985853" data-name="Trazado 985853" d="M1712.991,1308.253l-.919-6.194a8.373,8.373,0,1,1,8.95-1.829l2.485,5.87-12.654,11.726Zm7.817-8.066.044-.043a8.193,8.193,0,1,0-8.666,1.766l.049.019.939,6.33-2.019,9.04,12.136-11.246Z" transform="translate(-1706.768 -1285.902)" fill="#0e2a54"/>
        </g>
        <g id="Grupo_1151105" data-name="Grupo 1151105" transform="translate(0)">
          <circle id="Elipse_11687" data-name="Elipse 11687" cx="7.385" cy="7.385" r="7.385" transform="matrix(0.784, -0.621, 0.621, 0.784, 0, 11.91)" fill="#7ac4ed"/>
          <g id="Grupo_1151104" data-name="Grupo 1151104" transform="translate(1.626)">
            <path id="Trazado_985854" data-name="Trazado 985854" d="M1587.175,1330.417l2.452,1.151a.58.58,0,0,0,.772-.278l1.529-3.255a.58.58,0,0,0-.279-.772l-2.452-1.151a.58.58,0,0,0-.772.279l-1.528,3.255A.582.582,0,0,0,1587.175,1330.417Z" transform="translate(-1566.842 -1298.79)" fill="#ffbe33"/>
            <g id="Grupo_1151102" data-name="Grupo 1151102" transform="translate(2.086 1.193)">
              <path id="Trazado_985855" data-name="Trazado 985855" d="M1518.29,1247.072s17.97.35,23.8.94a94.541,94.541,0,0,1,10.207,2.316,5.062,5.062,0,0,0,6.445-3.425h0a5.1,5.1,0,0,0-3.594-6.359c-2.082-.552-8.925-2.057-10.022-2.588-5.294-2.56-20.641-12.067-20.641-12.067Z" transform="translate(-1517.946 -1225.487)" fill="#fff"/>
              <path id="Trazado_985856" data-name="Trazado 985856" d="M1551.212,1249.408a96.333,96.333,0,0,0-10.149-2.3c-5.75-.582-23.6-.935-23.776-.939l-.34-.006,6.383-21.838.291.18c.153.1,15.4,9.529,20.617,12.054.729.353,4.318,1.207,6.939,1.831,1.278.3,2.382.567,3.037.741a5.359,5.359,0,0,1,3.777,6.683,5.432,5.432,0,0,1-2.7,3.284,5.237,5.237,0,0,1-2.191.59A5.158,5.158,0,0,1,1551.212,1249.408Zm-33.578-3.755c2.508.052,18.15.395,23.479.934a94.106,94.106,0,0,1,10.265,2.329,4.637,4.637,0,0,0,3.671-.284,4.909,4.909,0,0,0,2.441-2.968,4.839,4.839,0,0,0-3.411-6.035c-.649-.172-1.75-.434-3.025-.737a71.017,71.017,0,0,1-7.044-1.868c-4.843-2.342-18.229-10.576-20.374-11.9Z" transform="translate(-1516.947 -1224.322)" fill="#1a3c5f"/>
            </g>
            <path id="Trazado_985857" data-name="Trazado 985857" d="M1510.093,1243.5h0a1.5,1.5,0,0,0,1.941-.721l6.246-21.366c.192-.656-.367-1.4-1.247-1.653h0a1.5,1.5,0,0,0-1.941.721l-6.246,21.366C1508.655,1242.5,1509.214,1243.241,1510.093,1243.5Z" transform="translate(-1508.808 -1219.669)" fill="#fdc621"/>
            <g id="Grupo_1151103" data-name="Grupo 1151103" transform="translate(14.426 20.174)">
              <path id="Trazado_985858" data-name="Trazado 985858" d="M1566.07,1317.068l1.135.927a2.654,2.654,0,0,0,3.734-.376l11.99-14.954-5.022-4.279-12.213,14.948A2.652,2.652,0,0,0,1566.07,1317.068Z" transform="translate(-1565.094 -1298.385)" fill="#b0cff2"/>
              <path id="Trazado_985859" data-name="Trazado 985859" d="M1604.39,1301.736l2.74-3.354,5.022,4.279-2.41,3.006a1.681,1.681,0,0,1-1.262-.3l-3.009-1.764A2.184,2.184,0,0,1,1604.39,1301.736Z" transform="translate(-1594.319 -1298.382)" fill="#1a3c5f"/>
            </g>
            <path id="Trazado_985860" data-name="Trazado 985860" d="M1608.228,1281.612l1.806.528a3,3,0,0,0,3.719-2.036l1.983-6.784a3,3,0,0,0-2.036-3.719l-1.806-.528a3,3,0,0,0-3.719,2.036l-1.983,6.784A3,3,0,0,0,1608.228,1281.612Z" transform="translate(-1581.142 -1256.32)" fill="#b0cff2"/>
          </g>
        </g>
        <path id="Trazado_985861" data-name="Trazado 985861" d="M1712.086,1467.4l-18.166,20.983,2.2-10.493Z" transform="translate(-1644.851 -1403.907)" fill="#0e2a54"/>
        <g id="Grupo_1151106" data-name="Grupo 1151106" transform="translate(17.203 24.528)">
          <path id="Trazado_985862" data-name="Trazado 985862" d="M1587.315,1330.219c-.355-6.4-11.211-15.045-12.506-14.468-1.581.7-.526,2.315-.526,2.315a2.008,2.008,0,0,0-1.933.823c-.436.628,0,1.713,0,1.713a1.623,1.623,0,0,0-1.627.783,2.27,2.27,0,0,0,.373,2.079,1.28,1.28,0,0,0-1.119.91c-.264.87,1.115,1.5,2.644,2.52s5.764,2.728,5.963,4.89,9.105-1.565,9.105-1.565" transform="translate(-1569.854 -1315.634)" fill="#fff"/>
          <path id="Trazado_985863" data-name="Trazado 985863" d="M1578.583,1332.084a.692.692,0,0,1-.353-.554c-.149-1.616-2.67-3-4.51-4.006-.568-.311-1.058-.58-1.413-.817-.29-.193-.574-.373-.843-.543-1.157-.73-2.071-1.307-1.837-2.078a1.358,1.358,0,0,1,1.05-.951,2.2,2.2,0,0,1-.3-2.051,1.662,1.662,0,0,1,1.577-.842,2.055,2.055,0,0,1,.057-1.665,2.076,2.076,0,0,1,1.842-.879,1.971,1.971,0,0,1-.215-1.392,1.444,1.444,0,0,1,.87-.9c.285-.128.9.093,1.815.654,3.732,2.279,10.538,8.869,10.818,13.891a.1.1,0,0,1,0,.025l.252-.1a.09.09,0,1,1,.07.166c-.253.106-5.4,2.244-7.885,2.244A2,2,0,0,1,1578.583,1332.084Zm8.376-2.122c-.275-4.959-7.028-11.486-10.731-13.747-1.21-.739-1.566-.68-1.648-.643a1.274,1.274,0,0,0-.77.784,1.969,1.969,0,0,0,.283,1.4.09.09,0,0,1-.092.138,1.9,1.9,0,0,0-1.842.786c-.4.58.006,1.617.01,1.628a.09.09,0,0,1-.013.089.087.087,0,0,1-.084.033,1.538,1.538,0,0,0-1.533.734c-.443.887.356,1.973.364,1.984a.091.091,0,0,1-.068.145,1.18,1.18,0,0,0-1.037.846c-.193.639.626,1.157,1.761,1.873.27.171.556.351.847.545.349.234.836.5,1.4.809,1.876,1.028,4.446,2.436,4.6,4.148a.516.516,0,0,0,.266.416c1.333.8,6.807-1.291,8.324-1.9A.1.1,0,0,1,1586.958,1329.962Z" transform="translate(-1569.589 -1315.371)" fill="#0e2a54"/>
        </g>
        <g id="Grupo_1151107" data-name="Grupo 1151107" transform="translate(22.712 35.947)">
          <path id="Trazado_985864" data-name="Trazado 985864" d="M1612.535,1403.72a7.947,7.947,0,0,0,4.767-1.588l23.068-17.3-9.533-12.715-15.013,11.255-10.161-23.452-14.582,6.318,14.163,32.69a7.943,7.943,0,0,0,7.291,4.787Z" transform="translate(-1591.081 -1359.925)" fill="#82e0e0"/>
        </g>
        <path id="Trazado_985865" data-name="Trazado 985865" d="M1727.78,1342.161c1.688.016,5.506-2.25,5.506-2.25l-4.9,6.312Z" transform="translate(-1670.033 -1309.093)" fill="#0e2a54"/>
        <path id="Trazado_985866" data-name="Trazado 985866" d="M1694.055,1270.831a21.213,21.213,0,0,1-4.867-2.58,7.15,7.15,0,0,1-2.87-4.555,4.1,4.1,0,0,1,.329-2.315c.844-1.724,3.074-2.388,4.958-2.023a13.291,13.291,0,0,1,5.06,2.647,4.271,4.271,0,0,1,2.56-4.992,5.52,5.52,0,0,1,5.694,1.3,7.9,7.9,0,0,1,2.223,5.586,3.511,3.511,0,0,1,4.118.863,7.756,7.756,0,0,1,1.76,4.109,6.184,6.184,0,0,1-.089,3.18,2.624,2.624,0,0,1-2.392,1.824,4.665,4.665,0,0,1,2.358,4.779,1.172,1.172,0,0,1-.379.773,1.339,1.339,0,0,1-.848.163,19.775,19.775,0,0,1-5.191-.622,6.657,6.657,0,0,1-4.062-3.094,2.038,2.038,0,0,0,2.562-1.8c.145-3.11-2.95-1.829-4.453-1.539C1698.166,1272.989,1696.254,1271.761,1694.055,1270.831Z" transform="translate(-1639.167 -1247.2)" fill="#163f96"/>
      </g>
      <g id="Grupo_1151136" data-name="Grupo 1151136" transform="translate(-3561.948 5602.619)">
        <g id="Grupo_1151112" data-name="Grupo 1151112">
          <g id="Grupo_1151109" data-name="Grupo 1151109" transform="translate(0.295 0.295)">
            <path id="Trazado_985867" data-name="Trazado 985867" d="M776.071,740.77H925.193A13.767,13.767,0,0,0,938.96,727V407.474a13.767,13.767,0,0,0-13.767-13.766H776.071A13.766,13.766,0,0,0,762.3,407.474V727a13.766,13.766,0,0,0,13.767,13.766Z" transform="translate(-762.304 -393.707)" fill="#fd7940"/>
          </g>
          <path id="Trazado_985868" data-name="Trazado 985868" d="M771.409,774.885H929.855a9.105,9.105,0,0,0,9.105-9.105V465.162a12.033,12.033,0,0,0-12.033-12.033H774.337A12.033,12.033,0,0,0,762.3,465.162V765.778A9.106,9.106,0,0,0,771.409,774.885Z" transform="translate(-762.009 -437.605)" fill="#caefff"/>
          <path id="Trazado_985869" data-name="Trazado 985869" d="M921.28,742.884l-133.5-345.939h-8.934a13.188,13.188,0,0,0-13.188,13.2l.227,319.933a13.568,13.568,0,0,0,13.64,13.558Z" transform="translate(-764.501 -395.82)" fill="#fff" opacity="0.7"/>
          <g id="Grupo_1151110" data-name="Grupo 1151110" transform="translate(55.245 4.301)">
            <path id="Trazado_985870" data-name="Trazado 985870" d="M1066.549,422.055h-41.433a1.569,1.569,0,0,1-1.569-1.569h0a1.569,1.569,0,0,1,1.569-1.569h41.433a1.569,1.569,0,0,1,1.569,1.569h0A1.567,1.567,0,0,1,1066.549,422.055Z" transform="translate(-1011.541 -416.461)" fill="#fff"/>
            <circle id="Elipse_11688" data-name="Elipse 11688" cx="2.925" cy="2.925" r="2.925" transform="translate(0 5.405) rotate(-67.5)" fill="#fff"/>
            <circle id="Elipse_11689" data-name="Elipse 11689" cx="2.925" cy="2.925" r="2.925" transform="translate(60.465 5.602) rotate(-67.5)" fill="#fff"/>
          </g>
          <g id="Grupo_1151111" data-name="Grupo 1151111">
            <path id="Trazado_985871" data-name="Trazado 985871" d="M1453.049,692.578h-.338V654.747h.338a2.263,2.263,0,0,1,2.263,2.263v33.3A2.262,2.262,0,0,1,1453.049,692.578Z" transform="translate(-1275.467 -587.548)" fill="#d43781"/>
            <path id="Trazado_985872" data-name="Trazado 985872" d="M1453.049,847.939h-.338V827.151h.338a2.263,2.263,0,0,1,2.263,2.263v16.263A2.262,2.262,0,0,1,1453.049,847.939Z" transform="translate(-1275.467 -715.766)" fill="#d43781"/>
            <path id="Trazado_985873" data-name="Trazado 985873" d="M924.7,740.21H774.855a13.716,13.716,0,0,1-13.7-13.7V406.258a13.717,13.717,0,0,1,13.7-13.7H924.7a13.716,13.716,0,0,1,13.7,13.7V726.51A13.717,13.717,0,0,1,924.7,740.21ZM774.855,393.146a13.127,13.127,0,0,0-13.112,13.112V726.51a13.127,13.127,0,0,0,13.112,13.112H924.7A13.127,13.127,0,0,0,937.81,726.51V406.258A13.127,13.127,0,0,0,924.7,393.146Z" transform="translate(-761.154 -392.557)" fill="#0043ab" stroke="#0043ab" stroke-miterlimit="10" stroke-width="2"/>
          </g>
        </g>
        <g id="Grupo_1151135" data-name="Grupo 1151135" transform="translate(6.787 43.299)">
          <g id="Grupo_1151113" data-name="Grupo 1151113" transform="translate(7.609 7.663)">
            <path id="Trazado_985874" data-name="Trazado 985874" d="M1063.354,598.144h-35.769a3.375,3.375,0,0,1-3.375-3.375h0a3.375,3.375,0,0,1,3.375-3.375h35.769a3.375,3.375,0,0,1,3.375,3.375h0A3.374,3.374,0,0,1,1063.354,598.144Z" transform="translate(-971.185 -591.394)" fill="#7ac4ed"/>
            <path id="Trazado_985875" data-name="Trazado 985875" d="M856.465,598.144H820.7a3.375,3.375,0,0,1-3.375-3.375h0a3.375,3.375,0,0,1,3.375-3.375h35.769a3.375,3.375,0,0,1,3.375,3.375h0A3.375,3.375,0,0,1,856.465,598.144Z" transform="translate(-817.321 -591.394)" fill="#7ac4ed"/>
            <path id="Trazado_985876" data-name="Trazado 985876" d="M1270.255,598.144h-35.769a3.375,3.375,0,0,1-3.375-3.375h0a3.375,3.375,0,0,1,3.375-3.375h35.769a3.375,3.375,0,0,1,3.375,3.375h0A3.376,3.376,0,0,1,1270.255,598.144Z" transform="translate(-1125.058 -591.394)" fill="#7ac4ed"/>
          </g>
          <g id="Grupo_1151114" data-name="Grupo 1151114" transform="translate(7.609 151.701)">
            <path id="Trazado_985877" data-name="Trazado 985877" d="M1063.354,1160.143h-35.769a3.375,3.375,0,0,1-3.375-3.375h0a3.375,3.375,0,0,1,3.375-3.375h35.769a3.375,3.375,0,0,1,3.375,3.375h0A3.375,3.375,0,0,1,1063.354,1160.143Z" transform="translate(-971.185 -1153.392)" fill="#7ac4ed"/>
            <path id="Trazado_985878" data-name="Trazado 985878" d="M856.465,1160.143H820.7a3.375,3.375,0,0,1-3.375-3.375h0a3.375,3.375,0,0,1,3.375-3.375h35.769a3.375,3.375,0,0,1,3.375,3.375h0A3.376,3.376,0,0,1,856.465,1160.143Z" transform="translate(-817.321 -1153.392)" fill="#7ac4ed"/>
            <path id="Trazado_985879" data-name="Trazado 985879" d="M1270.255,1160.143h-35.769a3.375,3.375,0,0,1-3.375-3.375h0a3.375,3.375,0,0,1,3.375-3.375h35.769a3.375,3.375,0,0,1,3.375,3.375h0A3.376,3.376,0,0,1,1270.255,1160.143Z" transform="translate(-1125.058 -1153.392)" fill="#7ac4ed"/>
          </g>
          <rect id="Rectángulo_407980" data-name="Rectángulo 407980" width="17.927" height="17.927" transform="translate(7.562 27.959)" fill="#7ac4ed"/>
          <rect id="Rectángulo_407981" data-name="Rectángulo 407981" width="17.927" height="17.927" transform="translate(28.367 27.959)" fill="#d43781"/>
          <rect id="Rectángulo_407982" data-name="Rectángulo 407982" width="17.927" height="17.927" transform="translate(16.683 40.338) rotate(-8.871)" fill="#f4c200"/>
          <path id="Trazado_986314" data-name="Trazado 986314" d="M0,0H17.927V17.927H0Z" transform="translate(60.701 48.985)" fill="#fd7940"/>
          <g id="Grupo_1151116" data-name="Grupo 1151116" transform="translate(60.701 27.959)">
            <rect id="Rectángulo_407984" data-name="Rectángulo 407984" width="17.927" height="17.927" fill="#7ac4ed"/>
            <g id="Grupo_1151115" data-name="Grupo 1151115" transform="translate(6.411 2.091)">
              <path id="Trazado_985880" data-name="Trazado 985880" d="M1051.857,688.523h-.032a.729.729,0,0,1-.7-.76c0-.009.039-.911.039-1.822,0-1.031.948-1.252,1.515-1.385.923-.216,1.8-.42,1.8-2.581a1.791,1.791,0,0,0-1.876-1.772,1.583,1.583,0,0,0-1.135.441,2.173,2.173,0,0,0-.527,1.572.729.729,0,0,1-1.458,0,3.535,3.535,0,0,1,.954-2.6,3.029,3.029,0,0,1,2.166-.868,3.254,3.254,0,0,1,3.334,3.23c0,3.317-1.9,3.762-2.922,4-.125.029-.284.066-.389.1,0,.893-.039,1.714-.04,1.75A.726.726,0,0,1,1051.857,688.523Z" transform="translate(-1049.482 -678.745)" fill="#fff"/>
            </g>
            <circle id="Elipse_11690" data-name="Elipse 11690" cx="0.918" cy="0.918" r="0.918" transform="translate(8.047 12.968)" fill="#fff"/>
          </g>
          <rect id="Rectángulo_407985" data-name="Rectángulo 407985" width="17.927" height="17.927" transform="translate(118.744 27.959)" fill="#7ac4ed"/>
          <rect id="Rectángulo_407986" data-name="Rectángulo 407986" width="17.927" height="17.927" transform="translate(143.646 27.959)" fill="#f4c200"/>
          <path id="Trazado_986312" data-name="Trazado 986312" d="M0,0H17.927V17.927H0Z" transform="translate(84.542 182.854)" fill="#fdc621"/>
          <g id="Grupo_1151117" data-name="Grupo 1151117" transform="translate(118.445 235.989)">
            <rect id="Rectángulo_407988" data-name="Rectángulo 407988" width="38.415" height="38.415" fill="#ffbe33"/>
            <path id="Trazado_985881" data-name="Trazado 985881" d="M1291.592,1524.926l3.816-5.436,3.693,5.521,6.348,1.95-4.108,5.218.108,6.643-6.231-2.3-6.284,2.156.256-6.638-3.991-5.308Z" transform="translate(-1276.119 -1509.948)" fill="#fff" stroke="#fff" stroke-miterlimit="10" stroke-width="1"/>
          </g>
          <rect id="Rectángulo_407989" data-name="Rectángulo 407989" width="17.927" height="17.927" transform="translate(61.016 209.921)" fill="#7ac4ed"/>
          <rect id="Rectángulo_407990" data-name="Rectángulo 407990" width="17.927" height="17.927" transform="matrix(0.976, 0.218, -0.218, 0.976, 125.6, 40.163)" fill="#d43781"/>
          <g id="Grupo_1151118" data-name="Grupo 1151118" transform="translate(65.004 238.439)">
            <rect id="Rectángulo_407991" data-name="Rectángulo 407991" width="39.075" height="26.083" fill="#fff" stroke="#fff" stroke-miterlimit="10" stroke-width="1"/>
            <rect id="Rectángulo_407992" data-name="Rectángulo 407992" width="3.208" height="3.208" transform="translate(3.373 3.565)" fill="#7ac4ed"/>
            <rect id="Rectángulo_407993" data-name="Rectángulo 407993" width="3.208" height="3.208" transform="translate(3.373 11.439)" fill="#7ac4ed"/>
            <rect id="Rectángulo_407994" data-name="Rectángulo 407994" width="3.208" height="3.208" transform="translate(3.373 19.312)" fill="#7ac4ed"/>
            <rect id="Rectángulo_407995" data-name="Rectángulo 407995" width="27.313" height="3.208" transform="translate(8.376 3.565)" fill="#7ac4ed"/>
            <rect id="Rectángulo_407996" data-name="Rectángulo 407996" width="27.313" height="3.208" transform="translate(8.376 11.439)" fill="#7ac4ed"/>
            <rect id="Rectángulo_407997" data-name="Rectángulo 407997" width="27.313" height="3.208" transform="translate(8.376 19.312)" fill="#7ac4ed"/>
          </g>
          <g id="Grupo_1151119" data-name="Grupo 1151119" transform="translate(119.5 77.809)">
            <rect id="Rectángulo_407998" data-name="Rectángulo 407998" width="17.927" height="17.927" fill="#f4c200"/>
            <rect id="Rectángulo_407999" data-name="Rectángulo 407999" width="17.927" height="17.927" transform="translate(24.902)" fill="#d43781"/>
          </g>
          <g id="Grupo_1151120" data-name="Grupo 1151120" transform="translate(5.513 182.854)">
            <rect id="Rectángulo_408000" data-name="Rectángulo 408000" width="17.927" height="17.927" fill="#fff" stroke="#fff" stroke-miterlimit="10" stroke-width="1"/>
            <rect id="Rectángulo_408001" data-name="Rectángulo 408001" width="17.927" height="17.927" transform="translate(24.904)" fill="#7ac4ed"/>
          </g>
          <g id="Grupo_1151122" data-name="Grupo 1151122" transform="translate(74.809 34.484)">
            <rect id="Rectángulo_408002" data-name="Rectángulo 408002" width="24.298" height="17.927" transform="matrix(0.976, 0.218, -0.218, 0.976, 3.91, 0)" fill="#f4c200"/>
            <g id="Grupo_1151121" data-name="Grupo 1151121" transform="translate(2.499 2.845)">
              <rect id="Rectángulo_408003" data-name="Rectángulo 408003" width="20.391" height="2.806" transform="matrix(0.976, 0.218, -0.218, 0.976, 2.834, 0)" fill="#fff"/>
              <rect id="Rectángulo_408004" data-name="Rectángulo 408004" width="20.391" height="2.806" transform="matrix(0.976, 0.218, -0.218, 0.976, 1.722, 4.972)" fill="#fff"/>
              <rect id="Rectángulo_408005" data-name="Rectángulo 408005" width="20.391" height="2.806" transform="matrix(0.976, 0.218, -0.218, 0.976, 0.612, 9.944)" fill="#fff"/>
            </g>
          </g>
          <g id="Grupo_1151124" data-name="Grupo 1151124" transform="translate(63.661 79.934)">
            <rect id="Rectángulo_408006" data-name="Rectángulo 408006" width="29.844" height="22.02" fill="#7ac4ed"/>
            <g id="Grupo_1151123" data-name="Grupo 1151123" transform="translate(2.468 3.029)">
              <rect id="Rectángulo_408007" data-name="Rectángulo 408007" width="25.045" height="3.447" fill="#fff"/>
              <rect id="Rectángulo_408008" data-name="Rectángulo 408008" width="25.045" height="3.447" transform="translate(0 6.258)" fill="#fff"/>
              <rect id="Rectángulo_408009" data-name="Rectángulo 408009" width="25.045" height="3.447" transform="translate(0 12.515)" fill="#fff"/>
            </g>
          </g>
          <g id="Grupo_1151125" data-name="Grupo 1151125" transform="translate(10.035 78.484)">
            <rect id="Rectángulo_408010" data-name="Rectángulo 408010" width="29.262" height="29.262" fill="#f4c200"/>
            <rect id="Rectángulo_408011" data-name="Rectángulo 408011" width="23.996" height="2.831" transform="translate(2.613 3.548)" fill="#fff"/>
            <rect id="Rectángulo_408012" data-name="Rectángulo 408012" width="23.996" height="2.831" transform="translate(2.613 13.215)" fill="#fff"/>
            <rect id="Rectángulo_408013" data-name="Rectángulo 408013" width="23.996" height="2.831" transform="translate(2.613 22.883)" fill="#fff"/>
          </g>
          <g id="Grupo_1151127" data-name="Grupo 1151127" transform="translate(28.367 27.955)">
            <path id="Trazado_986313" data-name="Trazado 986313" d="M0,0H17.927V17.927H0Z" fill="#fd7940"/>
            <g id="Grupo_1151126" data-name="Grupo 1151126" transform="translate(4.012 2.039)">
              <path id="Trazado_985882" data-name="Trazado 985882" d="M918.917,692.213a.82.82,0,0,1-.673-.352l-4.133-5.943a.82.82,0,1,1,1.346-.936l3.259,4.687,4.2-10.626a.82.82,0,1,1,1.524.6l-4.763,12.048a.819.819,0,0,1-.668.513A.78.78,0,0,1,918.917,692.213Z" transform="translate(-913.965 -678.525)" fill="#fff"/>
            </g>
          </g>
          <g id="Grupo_1151129" data-name="Grupo 1151129" transform="translate(60.701 182.933)">
            <path id="Trazado_986315" data-name="Trazado 986315" d="M0,0H17.927V17.927H0Z" fill="#fd7940"/>
            <g id="Grupo_1151128" data-name="Grupo 1151128" transform="translate(4.013 2.041)">
              <path id="Trazado_985883" data-name="Trazado 985883" d="M1045.08,1296.9a.819.819,0,0,1-.673-.352l-4.133-5.943a.82.82,0,0,1,1.346-.936l3.26,4.688,4.2-10.626a.82.82,0,1,1,1.525.6l-4.763,12.048a.819.819,0,0,1-.668.513C1045.142,1296.9,1045.111,1296.9,1045.08,1296.9Z" transform="translate(-1040.128 -1283.212)" fill="#fff"/>
            </g>
          </g>
          <g id="Grupo_1151134" data-name="Grupo 1151134">
            <g id="Grupo_1151130" data-name="Grupo 1151130" transform="translate(0 23.189)">
              <rect id="Rectángulo_408016" data-name="Rectángulo 408016" width="166.273" height="0.41" fill="#152b96"/>
            </g>
            <g id="Grupo_1151131" data-name="Grupo 1151131" transform="translate(0 169.711)">
              <rect id="Rectángulo_408017" data-name="Rectángulo 408017" width="166.273" height="0.41" fill="#152b96"/>
            </g>
            <g id="Grupo_1151132" data-name="Grupo 1151132" transform="translate(107.411)">
              <rect id="Rectángulo_408018" data-name="Rectángulo 408018" width="0.41" height="118.717" fill="#152b96"/>
              <rect id="Rectángulo_408019" data-name="Rectángulo 408019" width="0.41" height="142.141" transform="translate(0 144.399)" fill="#152b96"/>
            </g>
            <g id="Grupo_1151133" data-name="Grupo 1151133" transform="translate(55.406)">
              <rect id="Rectángulo_408020" data-name="Rectángulo 408020" width="0.41" height="118.717" fill="#152b96"/>
              <rect id="Rectángulo_408021" data-name="Rectángulo 408021" width="0.41" height="142.223" transform="translate(0 144.399)" fill="#152b96"/>
            </g>
          </g>
        </g>
      </g>
      <g id="Grupo_1151157" data-name="Grupo 1151157" transform="translate(-3650.116 5671.759)">
        <g id="Grupo_1151138" data-name="Grupo 1151138" transform="translate(0 0)">
          <g id="Grupo_1151137" data-name="Grupo 1151137" transform="translate(0)">
            <rect id="Rectángulo_408022" data-name="Rectángulo 408022" width="319.918" height="1.855" transform="translate(0 314.128) rotate(-79.077)" fill="#152b96"/>
          </g>
          <path id="Trazado_985884" data-name="Trazado 985884" d="M488.8,1713.278a.86.86,0,0,1,.245-.349l-15.284-14.557-15.284-14.557-1.279,1.343L472.783,1700l15.582,14.841A8.641,8.641,0,0,1,488.8,1713.278Z" transform="translate(-446.935 -1422.01)" fill="#152b96"/>
          <path id="Trazado_985885" data-name="Trazado 985885" d="M486.931,1536.41l-1.279,1.343,15.427,14.693,15.427,14.693a13.653,13.653,0,0,1,.411-1.552,2.153,2.153,0,0,1,.2-.431l-15.09-14.373Z" transform="translate(-468.094 -1312.383)" fill="#152b96"/>
          <path id="Trazado_985886" data-name="Trazado 985886" d="M545.175,1417.369l-14.9-14.188-14.9-14.188-1.279,1.343,15.271,14.545,15.271,14.545C544.8,1418.735,544.977,1418.051,545.175,1417.369Z" transform="translate(-489.252 -1202.749)" fill="#152b96"/>
          <path id="Trazado_985887" data-name="Trazado 985887" d="M543.832,1241.59l-1.279,1.343,15.344,14.615,15.344,14.614c.16-.686.343-1.367.543-2.044l-14.976-14.264Z" transform="translate(-510.411 -1093.125)" fill="#152b96"/>
          <path id="Trazado_985888" data-name="Trazado 985888" d="M602.393,1122.853l-15.055-14.339-15.055-14.339L571,1095.517l15.417,14.684,15.417,14.684Q602.087,1123.862,602.393,1122.853Z" transform="translate(-531.571 -983.492)" fill="#152b96"/>
          <path id="Trazado_985889" data-name="Trazado 985889" d="M600.789,946.767l-1.279,1.343L614.9,962.766l15.388,14.656c.158-.653.349-1.3.567-1.931.009-.022-.026-.085-.015-.1l-15-14.288Z" transform="translate(-552.77 -873.865)" fill="#152b96"/>
          <path id="Trazado_985890" data-name="Trazado 985890" d="M659.2,828.13a1.014,1.014,0,0,1,.061-.123l-15.039-14.324-15.039-14.324L627.9,800.7l15.359,14.629,15.359,14.629A13.63,13.63,0,0,1,659.2,828.13Z" transform="translate(-573.887 -764.237)" fill="#152b96"/>
        </g>
        <g id="Grupo_1151140" data-name="Grupo 1151140" transform="translate(54.794 36.656)">
          <g id="Grupo_1151139" data-name="Grupo 1151139">
            <path id="Trazado_985891" data-name="Trazado 985891" d="M640.5,810.154h0a2,2,0,0,0-.93-1.617,1.37,1.37,0,0,0-1.248-.241c.029-.34.189-.576-.665-1.175a1.533,1.533,0,0,0-1.1-.234c-.141-.392-.29-.986-1.457-1-2.089-.018-3.9,5.879-3.607,6.25l1.688,6.684a20.677,20.677,0,0,0,4.476-.525c1.067-.284,3.629-2.515,3.629-2.515l-.947-.9-.357-.34.794-1.805,1.352,1.288C643.242,813.393,642.4,810.323,640.5,810.154Z" transform="translate(-631.325 -805.749)" fill="#fff"/>
            <path id="Trazado_985892" data-name="Trazado 985892" d="M632.79,818.557a.141.141,0,0,1-.136-.106l-1.684-6.669c-.186-.423.453-2.459,1.126-3.829.585-1.192,1.511-2.611,2.6-2.611h.011c1.162.01,1.406.578,1.551.983a1.661,1.661,0,0,1,1.087.272c.713.5.781.779.747,1.116a1.488,1.488,0,0,1,1.164.3,2.153,2.153,0,0,1,.988,1.61,2.8,2.8,0,0,1,2.066,2.264,1.639,1.639,0,0,1-.5,1.854.142.142,0,0,1-.166-.021l-1.207-1.15-.673,1.532,1.233,1.175a.141.141,0,0,1,0,.208c-.106.092-2.6,2.256-3.686,2.544A21,21,0,0,1,632.79,818.557Zm1.909-12.934c-.521,0-1.1.437-1.667,1.264a11.549,11.549,0,0,0-1.813,4.77.086.086,0,0,1,.019.042l1.661,6.577a20.325,20.325,0,0,0,4.331-.519,15.483,15.483,0,0,0,3.456-2.384l-1.192-1.135a.141.141,0,0,1-.032-.158l.794-1.805a.141.141,0,0,1,.226-.045l1.271,1.211a1.516,1.516,0,0,0,.283-1.493,2.467,2.467,0,0,0-1.94-2.058.141.141,0,0,1-.126-.162,1.852,1.852,0,0,0-.867-1.48,1.172,1.172,0,0,0-1.037-.237.347.347,0,0,1-.165.016.14.14,0,0,1-.108-.148c0-.043.009-.085.015-.127.034-.248.061-.444-.62-.921a1.4,1.4,0,0,0-1-.21.14.14,0,0,1-.155-.091l-.021-.059c-.131-.372-.294-.835-1.3-.844Z" transform="translate(-630.936 -805.342)" fill="#152b96"/>
          </g>
          <path id="Trazado_985893" data-name="Trazado 985893" d="M660.36,823.5a.143.143,0,0,1-.037,0,.141.141,0,0,1-.1-.173,2.606,2.606,0,0,1,1.632-1.344.14.14,0,1,1,.057.275A2.343,2.343,0,0,0,660.5,823.4.14.14,0,0,1,660.36,823.5Z" transform="translate(-652.714 -817.714)" fill="#152b96"/>
          <path id="Trazado_985894" data-name="Trazado 985894" d="M652.635,816.574a.139.139,0,0,1-.137-.113,2.529,2.529,0,0,1,1.42-1.731.141.141,0,1,1,.09.266,2.446,2.446,0,0,0-1.234,1.411.141.141,0,0,1-.113.163Z" transform="translate(-646.969 -812.319)" fill="#152b96"/>
          <path id="Trazado_985895" data-name="Trazado 985895" d="M645.245,810.917a.119.119,0,0,1-.028,0,.14.14,0,0,1-.109-.166,2.193,2.193,0,0,1,1.573-1.519.141.141,0,1,1,.044.278,1.921,1.921,0,0,0-1.341,1.3A.141.141,0,0,1,645.245,810.917Z" transform="translate(-641.473 -808.232)" fill="#152b96"/>
        </g>
        <g id="Grupo_1151142" data-name="Grupo 1151142" transform="translate(25.106 188.055)">
          <path id="Trazado_985896" data-name="Trazado 985896" d="M544.928,1410.925H516.7a1.6,1.6,0,0,1-1.6-1.595v-13.264h16.591l14.264,12.045A1.6,1.6,0,0,1,544.928,1410.925Z" transform="translate(-515.102 -1396.065)" fill="#82e0e0"/>
          <g id="Grupo_1151141" data-name="Grupo 1151141" transform="translate(12.658)">
            <path id="Trazado_985897" data-name="Trazado 985897" d="M573.34,1404.359a15.516,15.516,0,0,0,4.012-.62l-8.509-7.186h-3.521l-.207.182c.048.086.114.212.2.375.733,1.4,2.679,5.124,5.275,6.639A5.451,5.451,0,0,0,573.34,1404.359Z" transform="translate(-564.955 -1396.427)" fill="#fff"/>
            <path id="Trazado_985898" data-name="Trazado 985898" d="M564.9,1396.311h3.428l8.292,7a15.032,15.032,0,0,1-3.749.555,5.329,5.329,0,0,1-2.687-.593c-2.565-1.5-4.5-5.2-5.228-6.589-.061-.118-.112-.213-.153-.29l.1-.085m-.094-.251-.32.282c.293.44,2.493,5.351,5.572,7.148a5.6,5.6,0,0,0,2.813.626,16.337,16.337,0,0,0,4.273-.689l-8.724-7.367Z" transform="translate(-564.49 -1396.06)" fill="#152b96"/>
          </g>
          <path id="Trazado_985899" data-name="Trazado 985899" d="M546.49,1446.46H515.1v.347c0,.031,0,.062,0,.093h31.416A1.581,1.581,0,0,0,546.49,1446.46Z" transform="translate(-515.103 -1433.543)" fill="#152b96"/>
        </g>
        <g id="Grupo_1151144" data-name="Grupo 1151144" transform="translate(36.728 152.924)">
          <path id="Trazado_985900" data-name="Trazado 985900" d="M590.011,1276.488l-28.115-2.559a1.6,1.6,0,0,1-1.444-1.733l1.2-13.209,16.523,1.5,13.114,13.288A1.6,1.6,0,0,1,590.011,1276.488Z" transform="translate(-560.446 -1258.987)" fill="#7ac4ed"/>
          <g id="Grupo_1151143" data-name="Grupo 1151143" transform="translate(13.789 1.177)">
            <path id="Trazado_985901" data-name="Trazado 985901" d="M623.353,1272.619a17.623,17.623,0,0,0,3.06-.3l-7.823-7.927-3.506-.319-.222.162c.04.09.094.221.165.393.6,1.462,2.2,5.346,4.652,7.09A6.328,6.328,0,0,0,623.353,1272.619Z" transform="translate(-614.704 -1263.948)" fill="#fff"/>
            <path id="Trazado_985902" data-name="Trazado 985902" d="M614.663,1263.836l3.414.311,7.623,7.725a17.19,17.19,0,0,1-2.8.255,6.212,6.212,0,0,1-3.6-.876c-2.419-1.723-4.01-5.583-4.609-7.036-.05-.123-.092-.223-.126-.3l.1-.076m-.071-.256-.344.251c.252.464,2,5.555,4.9,7.623a6.54,6.54,0,0,0,3.747.922,18.376,18.376,0,0,0,3.315-.342l-8.021-8.128-3.6-.327Z" transform="translate(-614.248 -1263.58)" fill="#152b96"/>
          </g>
          <path id="Trazado_985903" data-name="Trazado 985903" d="M591.752,1312.026l-31.258-2.845-.031.346c0,.031,0,.062,0,.093l31.286,2.847A1.587,1.587,0,0,0,591.752,1312.026Z" transform="translate(-560.456 -1296.317)" fill="#152b96"/>
        </g>
        <g id="Grupo_1151145" data-name="Grupo 1151145" transform="translate(26.511 84.347)">
          <path id="Trazado_985904" data-name="Trazado 985904" d="M556.041,1063.74l14.8-27.318a11.731,11.731,0,0,0,.329-9c-1.093-2.925-27.853-35.292-27.853-35.292-5.9-2.672-16.042,2.65-18.714,8.552s-6.949,16.213-1.047,18.886l24.178,11.973-13.111,25.532c-2.7,5.888,3.977,8.227,10.436,8.72C552.648,1066.375,554.065,1068.043,556.041,1063.74Z" transform="translate(-520.582 -991.421)" fill="#fd7940"/>
        </g>
        <g id="Grupo_1151146" data-name="Grupo 1151146" transform="translate(15.918 85.058)">
          <path id="Trazado_985905" data-name="Trazado 985905" d="M485.369,1094.27c-2.607-33.773-5.241-80.342-5.919-86.214a11.731,11.731,0,0,1,17.412-12.282A12.267,12.267,0,0,1,502.8,1005.8c.081.761.183,1.821.311,3.24.229,2.523,8.521,3.74,8.915,8.485.661,7.957-3.287,74.7-3.269,74.938.5,6.459-4.779,8.924-11.238,9.423q-.461.036-.915.035C490.539,1101.921,485.844,1100.421,485.369,1094.27Zm-.259-78.191-.015-.008Zm-.018-.01-.03-.018Zm-.032-.018a11.7,11.7,0,0,1-5.54-7.644A11.673,11.673,0,0,0,485.06,1016.051Z" transform="translate(-479.254 -994.195)" fill="#fd7940"/>
        </g>
        <g id="Grupo_1151147" data-name="Grupo 1151147" transform="translate(33.396 112.496)">
          <path id="Trazado_985906" data-name="Trazado 985906" d="M547.973,1181.522l.392-.028-.539-80.244-.376.026Z" transform="translate(-547.449 -1101.25)" fill="#dd4b98"/>
        </g>
        <path id="Trazado_985907" data-name="Trazado 985907" d="M530.835,1054.388l3.07,3.831s-.664,1.073-6.34,3.489a90.659,90.659,0,0,1-10.025,3.524l.731,9.478-2.877-1.268.11-3.462s-16.438-1.363-21.017-2.231c-7.347-1.393-10.444-3.288-10.459-3.507s0-3.739,0-3.739l45.823-9.622Z" transform="translate(-466.881 -951.295)" fill="#152b96"/>
        <path id="Trazado_985908" data-name="Trazado 985908" d="M506.684,806.332l-13.58-4.7L462.1,869.776s6.068,9.476,24.126,9.673c20.221.22,30.969-11.957,30.969-11.957Z" transform="translate(-450.577 -765.928)" fill="#82e0e0"/>
        <g id="Grupo_1151148" data-name="Grupo 1151148" transform="translate(42.527 12.376)">
          <path id="Trazado_985909" data-name="Trazado 985909" d="M596.44,727.853l.125-.007a8.38,8.38,0,0,0,2.248-16.285,8.38,8.38,0,0,0-8.574,13.935l.078.076-6.457,8.667,13.242,4.583Z" transform="translate(-583.658 -710.973)" fill="#fff"/>
          <path id="Trazado_985910" data-name="Trazado 985910" d="M596.413,710.911a8.322,8.322,0,0,1,1.775.4,8.255,8.255,0,0,1-2.215,16.043l-.249.015.015.25.643,10.658-12.9-4.466,6.29-8.443.131-.176-.157-.152a8.257,8.257,0,0,1,6.671-14.132m.028-.248a8.506,8.506,0,0,0-6.874,14.559l-6.494,8.716,13.58,4.7-.666-11.031a8.507,8.507,0,0,0,.454-16.944Z" transform="translate(-583.073 -710.609)" fill="#152b96"/>
        </g>
        <path id="Trazado_985911" data-name="Trazado 985911" d="M578.4,709.636l-5.339,3.338a1.484,1.484,0,0,1-2.023-.43c-.781-1.177-2.153-2.666-3.818-2.015-1.493.584-1.234,2.027-.571,3.308,1.594,3.081-1.4,12.308-1.4,12.308a6.547,6.547,0,0,0-3.26-2.58c-2.225-.628-3.77-.012-5.824-.618-2.254-.665-1.978-2.18-3.867-3.373a6.6,6.6,0,0,0-4.121-.782s9.942-20.809,23.666-16.846C577.023,703.442,578.4,709.636,578.4,709.636Z" transform="translate(-514.593 -691.417)" fill="#f4c200"/>
        <path id="Trazado_985912" data-name="Trazado 985912" d="M598.039,687.375s3.2-5.728,1.264-6.479-1.87,1.747-3.372,2.11-3.688-1.151-4.164,1.222,4.9,4,4.9,4Z" transform="translate(-546.989 -676.032)" fill="#f4c200"/>
        <g id="Grupo_1151149" data-name="Grupo 1151149" transform="translate(53.227 20.548)">
          <rect id="Rectángulo_408023" data-name="Rectángulo 408023" width="0.499" height="2.214" transform="translate(0 0.3) rotate(-36.993)" fill="#152b96"/>
        </g>
        <path id="Trazado_985913" data-name="Trazado 985913" d="M560.381,898.906c.994,7.777,7.365,20.085,7.365,20.085l3.964-2.584a41.708,41.708,0,0,0,10.7,13.245c3.737,2.97,6.584,2.678,6.584,2.678l-1.068-9Z" transform="translate(-523.67 -838.27)" fill="#152b96"/>
        <path id="Trazado_985914" data-name="Trazado 985914" d="M624.282,772.567c-2.022-.3-2.476-.865-2.756-1.13a32.061,32.061,0,0,1,1.871,3.616c.34.872.628,1.737.955,2.61a10.8,10.8,0,0,0,.422,1.433c.239-1.308-.268-2.716-.3-4-.012-.542-.082-1.09-.086-1.63C624.391,773.3,624.439,772.749,624.282,772.567Z" transform="translate(-569.144 -743.471)" fill="#152b96"/>
        <path id="Trazado_985915" data-name="Trazado 985915" d="M613.949,920.954a68.9,68.9,0,0,1-7.119,7.322c-2.2,1.637-5.581,4.56-5.881,4.528s-1.252-1.755-1.252-1.755l9.414-7.706Z" transform="translate(-552.91 -854.667)" fill="#152b96"/>
        <g id="Grupo_1151151" data-name="Grupo 1151151" transform="translate(31.222 24.734)">
          <g id="Grupo_1151150" data-name="Grupo 1151150" transform="translate(0 0)">
            <rect id="Rectángulo_408024" data-name="Rectángulo 408024" width="319.918" height="1.855" transform="translate(0 314.128) rotate(-79.077)" fill="#152b96"/>
          </g>
        </g>
        <g id="Grupo_1151152" data-name="Grupo 1151152" transform="translate(42.79 59.266)">
          <path id="Trazado_985916" data-name="Trazado 985916" d="M595.813,894.108l15.5,20.809,20.005-7.313,6.885-8.153.719,2.649s6.3-5.387,7.4-3.248c.427.828-.526,1.857-.526,1.857s2.635-1.55,3.429-.214c.624,1.05-1.65,2.241-1.65,2.241s1.788-1.017,2.515.372c.595,1.137-2.38,3.233-2.38,3.233s.963-.062,1.242.557c.709,1.575-1.339,3.682-11.078,8.85-16.1,8.543-26.473,15.239-32.7,11.242-6.483-4.161-20.523-24.386-20.523-24.386Z" transform="translate(-584.51 -893.968)" fill="#fff"/>
          <path id="Trazado_985917" data-name="Trazado 985917" d="M609.118,927.914a7.979,7.979,0,0,1-4.429-1.214c-2.7-1.734-6.985-6.372-12.728-13.786-4.273-5.516-7.8-10.588-7.834-10.638a.141.141,0,0,1,.03-.192l11.163-8.5a.144.144,0,0,1,.1-.027.141.141,0,0,1,.093.055l15.433,20.725,19.872-7.264,6.861-8.124a.14.14,0,0,1,.243.054l.662,2.436c.887-.738,4.9-3.969,6.706-3.613a1.016,1.016,0,0,1,.744.55,1.592,1.592,0,0,1-.189,1.525c.846-.392,2.456-.952,3.088.11a.888.888,0,0,1,.09.721,2.475,2.475,0,0,1-.882,1.115,1.881,1.881,0,0,1,.792.042,1.415,1.415,0,0,1,.869.742c.532,1.016-1.312,2.573-2.106,3.179a1.2,1.2,0,0,1,.972.618c.837,1.86-2.078,4.224-11.14,9.032-2.075,1.1-4.041,2.164-5.943,3.192C621.751,923.972,614.461,927.914,609.118,927.914Zm-24.684-25.688c1.131,1.617,14.267,20.3,20.406,24.237,5.356,3.438,13.812-1.134,26.614-8.055,1.9-1.028,3.869-2.092,5.945-3.193,9.994-5.3,11.631-7.3,11.016-8.668-.235-.522-1.1-.475-1.1-.474a.14.14,0,0,1-.09-.255c.8-.564,2.777-2.211,2.336-3.054a1.144,1.144,0,0,0-.7-.6,2.423,2.423,0,0,0-1.59.27l-.037.02a.141.141,0,0,1-.135-.247l.041-.022c.225-.124,1.417-.811,1.619-1.524a.609.609,0,0,0-.061-.5c-.714-1.2-3.212.248-3.238.263a.14.14,0,0,1-.174-.216c.009-.009.881-.967.5-1.7a.74.74,0,0,0-.549-.4c-1.865-.36-6.591,3.654-6.638,3.694a.139.139,0,0,1-.133.027.141.141,0,0,1-.094-.1l-.649-2.39-6.713,7.948a.143.143,0,0,1-.059.042l-20.005,7.313a.141.141,0,0,1-.161-.048l-15.411-20.7Z" transform="translate(-584.101 -893.56)" fill="#152b96"/>
        </g>
        <path id="Trazado_985918" data-name="Trazado 985918" d="M562.279,852.033h0c3.791-2.5,8.639-2.09,11.3.946l12.378,14.129a82.788,82.788,0,0,0-10.046,5.132,56.182,56.182,0,0,0-9.137,7.5l-8.089-16.952C556.946,859.144,558.488,854.53,562.279,852.033Z" transform="translate(-521.879 -802.197)" fill="#82e0e0"/>
        <g id="Grupo_1151153" data-name="Grupo 1151153" transform="translate(36.711 50.714)">
          <path id="Trazado_985919" data-name="Trazado 985919" d="M568.536,887.207l.1-.113a53.27,53.27,0,0,1,9.116-7.483,50.406,50.406,0,0,1,10.023-5.121l.148-.05-12.481-14.247-.157.138,12.276,14.013a51.865,51.865,0,0,0-9.922,5.091,54.089,54.089,0,0,0-9.051,7.405l-8.024-16.815-.188.09Z" transform="translate(-560.38 -860.194)" fill="#152b96"/>
        </g>
        <g id="Grupo_1151154" data-name="Grupo 1151154" transform="translate(102.094 65.867)">
          <path id="Trazado_985920" data-name="Trazado 985920" d="M815.628,920.88a.141.141,0,0,1-.08-.256l1.841-1.284a.141.141,0,1,1,.161.231l-1.841,1.284A.14.14,0,0,1,815.628,920.88Z" transform="translate(-815.488 -919.315)" fill="#152b96"/>
        </g>
        <g id="Grupo_1151155" data-name="Grupo 1151155" transform="translate(103.626 67.893)">
          <path id="Trazado_985921" data-name="Trazado 985921" d="M821.6,928.756a.141.141,0,0,1-.046-.273c.124-.051,1.329-.787,2.061-1.24a.141.141,0,1,1,.148.239c-.461.285-1.975,1.219-2.118,1.267A.13.13,0,0,1,821.6,928.756Z" transform="translate(-821.464 -927.222)" fill="#152b96"/>
        </g>
        <g id="Grupo_1151156" data-name="Grupo 1151156" transform="translate(104.275 71.498)">
          <path id="Trazado_985922" data-name="Trazado 985922" d="M824.14,942.833a.141.141,0,0,1-.088-.25l1.574-1.264a.141.141,0,0,1,.176.219l-1.574,1.264A.139.139,0,0,1,824.14,942.833Z" transform="translate(-823.999 -941.288)" fill="#152b96"/>
        </g>
      </g>
      <g id="Grupo_1151180" data-name="Grupo 1151180" transform="translate(-3485.992 5830.567)">
        <g id="Grupo_1151159" data-name="Grupo 1151159" transform="translate(42.902 0)">
          <path id="Trazado_986316" data-name="Trazado 986316" d="M0,0H47.445V35.006H0Z" transform="translate(47.445 35.006) rotate(180)" fill="#fd7940"/>
          <g id="Grupo_1151158" data-name="Grupo 1151158" transform="translate(3.706 4.815)">
            <rect id="Rectángulo_408026" data-name="Rectángulo 408026" width="39.815" height="5.48" transform="translate(39.815 5.48) rotate(180)" fill="#fff"/>
            <rect id="Rectángulo_408027" data-name="Rectángulo 408027" width="39.815" height="5.48" transform="translate(39.815 15.429) rotate(180)" fill="#fff"/>
            <rect id="Rectángulo_408028" data-name="Rectángulo 408028" width="39.815" height="5.48" transform="translate(39.815 25.377) rotate(180)" fill="#fff"/>
          </g>
        </g>
        <g id="Grupo_1151160" data-name="Grupo 1151160" transform="translate(35.304 10.781)">
          <path id="Trazado_985923" data-name="Trazado 985923" d="M1203.636,1324.67c-3.175.494-7.17,11.511-7.17,11.511l7-5.661Z" transform="translate(-1196.156 -1324.501)" fill="#fff"/>
          <path id="Trazado_985924" data-name="Trazado 985924" d="M1195.432,1335.641c.164-.453,4.06-11.1,7.282-11.6l.17-.027-.179,6.089-7.449,6.025Zm7.156-11.285c-2.65.731-5.9,8.8-6.7,10.891l6.538-5.289Z" transform="translate(-1195.257 -1324.01)" fill="#12305b"/>
        </g>
        <g id="Grupo_1151161" data-name="Grupo 1151161" transform="translate(22.21 15.213)">
          <path id="Trazado_985925" data-name="Trazado 985925" d="M1144.93,1393.775s10.8-29.695,12.05-40.162c1.129-9.432,7.91-11.264,9.366-11.239a11.978,11.978,0,0,0,2.923-.374,2.034,2.034,0,0,1-1.829,2.546,2.264,2.264,0,0,0-2.017,2.666c-.036.215,0,6.652,0,6.652-2.234.579-6.161,41.978-6.161,41.978Z" transform="translate(-1144.735 -1341.821)" fill="#fff"/>
          <path id="Trazado_985926" data-name="Trazado 985926" d="M1144.17,1393.371l.06-.165c.108-.3,10.805-29.8,12.042-40.13,1.133-9.456,7.91-11.391,9.51-11.365a11.693,11.693,0,0,0,2.882-.369l.145-.039.032.146a2.581,2.581,0,0,1-.341,1.876,2.179,2.179,0,0,1-1.611.843,2.044,2.044,0,0,0-1.888,2.373,1.206,1.206,0,0,1,0,.173c-.025.2-.012,4.073,0,6.629v.111l-.108.028c-1.568.407-4.48,25.252-6.054,41.853l-.014.149Zm20.547-46.7a1.213,1.213,0,0,0,0-.122c-.03-1.6.69-2.5,2.141-2.663a1.91,1.91,0,0,0,1.41-.724,2.231,2.231,0,0,0,.318-1.5,11.977,11.977,0,0,1-2.808.34h-.033c-1.62,0-8.089,1.932-9.188,11.113-1.192,9.959-11.128,37.622-12,40.028l14.01,2.021c.459-4.821,3.9-40.223,6.146-41.9C1164.707,1352.013,1164.682,1346.879,1164.718,1346.669Z" transform="translate(-1144.17 -1341.303)" fill="#12305b"/>
        </g>
        <g id="Grupo_1151162" data-name="Grupo 1151162" transform="translate(20.028 60.96)">
          <path id="Trazado_985927" data-name="Trazado 985927" d="M1150.669,1550.836l4.709-23.526s-2.519-3.724-6.052-5.121c-7.809-3.09-12.089-2.306-12.089-2.306l-1.584,28.829Z" transform="translate(-1135.653 -1519.794)" fill="#fd7940"/>
        </g>
        <g id="Grupo_1151179" data-name="Grupo 1151179" transform="translate(0 24.687)">
          <g id="Grupo_1151167" data-name="Grupo 1151167" transform="translate(34.372 202.043)">
            <path id="Trazado_985928" data-name="Trazado 985928" d="M1196.294,2169.511c-1.91-.954,3.9-4.139,10.179-2.437,1.058.287.794,7.217,2,7.579,2.5.753,5.28,1.667,8.227,2.743,7.218,2.636,6.131,4.359,3.683,5.645-5.364,2.819-16.932,6.854-21.984,6.218-5.976-.751-6.919-2.99-6.757-6.179s.2-12.633.2-12.633Z" transform="translate(-1191.622 -2166.583)" fill="#82e0e0"/>
            <g id="Grupo_1151166" data-name="Grupo 1151166" transform="translate(18.947 8.438)">
              <g id="Grupo_1151163" data-name="Grupo 1151163" transform="translate(4.359 1.302)">
                <path id="Trazado_985929" data-name="Trazado 985929" d="M1284.269,2207.726a.324.324,0,0,0,.313-.238,2.281,2.281,0,0,0-1.61-2.889.324.324,0,0,0-.184.621,1.649,1.649,0,0,1,1.169,2.1.325.325,0,0,0,.227.4A.277.277,0,0,0,1284.269,2207.726Z" transform="translate(-1282.555 -2204.585)" fill="#fff"/>
              </g>
              <g id="Grupo_1151164" data-name="Grupo 1151164" transform="translate(2.178 0.651)">
                <path id="Trazado_985930" data-name="Trazado 985930" d="M1275.759,2205.186a.325.325,0,0,0,.313-.238,2.282,2.282,0,0,0-1.61-2.889.324.324,0,0,0-.185.622,1.649,1.649,0,0,1,1.17,2.095.325.325,0,0,0,.226.4A.292.292,0,0,0,1275.759,2205.186Z" transform="translate(-1274.045 -2202.044)" fill="#fff"/>
              </g>
              <g id="Grupo_1151165" data-name="Grupo 1151165">
                <path id="Trazado_985931" data-name="Trazado 985931" d="M1267.26,2202.646a.325.325,0,0,0,.313-.238,2.282,2.282,0,0,0-1.61-2.89.324.324,0,0,0-.185.621,1.649,1.649,0,0,1,1.169,2.1.325.325,0,0,0,.227.4A.408.408,0,0,0,1267.26,2202.646Z" transform="translate(-1265.547 -2199.505)" fill="#fff"/>
              </g>
            </g>
            <path id="Trazado_985932" data-name="Trazado 985932" d="M1200.157,2225.284c3.7.133,17.943-3.759,21.255-7.325a3.56,3.56,0,0,1,.446.444c-3.572,3.707-17.4,7.532-21.527,7.532-.068,0-.133,0-.2,0-2.675-.089-6.15-.529-8.419-2.853a7.521,7.521,0,0,1-.083-1.1C1193.7,2224.71,1197.382,2225.192,1200.157,2225.284Z" transform="translate(-1191.631 -2204.791)" fill="#fff"/>
          </g>
          <path id="Trazado_985933" data-name="Trazado 985933" d="M1208.2,2191.42c-1.845,4.464-7.467,5.1-10.054,5.007a21.021,21.021,0,0,1-5.874-1.449l.047-3.558Z" transform="translate(-1157.732 -1983.011)" fill="#204a7b"/>
          <g id="Grupo_1151172" data-name="Grupo 1151172" transform="translate(4.224 194.742)">
            <path id="Trazado_985934" data-name="Trazado 985934" d="M1078.528,2140.2c-1.386-.551,7.562-2.422,10.663-2.052,2.235.267,2.1,8.461,2.1,8.461,2.361.51,4.953,1.135,7.691,1.879,7.415,2.016,6.478,3.825,4.148,5.313-5.106,3.262-16.291,8.263-21.378,8.058-6.018-.242-7.147-2.395-7.255-5.585s-.5-16.521-.5-16.521Z" transform="translate(-1073.992 -2138.095)" fill="#82e0e0"/>
            <g id="Grupo_1151171" data-name="Grupo 1151171" transform="translate(18.708 8.509)">
              <g id="Grupo_1151168" data-name="Grupo 1151168" transform="translate(4.454 0.93)">
                <path id="Trazado_985935" data-name="Trazado 985935" d="M1166.311,2177.937a.326.326,0,0,0,.291-.264,2.281,2.281,0,0,0-1.849-2.742.324.324,0,0,0-.131.635,1.649,1.649,0,0,1,1.343,1.989.324.324,0,0,0,.259.378A.4.4,0,0,0,1166.311,2177.937Z" transform="translate(-1164.365 -2174.923)" fill="#fff"/>
              </g>
              <g id="Grupo_1151169" data-name="Grupo 1151169" transform="translate(2.227 0.464)">
                <path id="Trazado_985936" data-name="Trazado 985936" d="M1157.621,2176.116a.324.324,0,0,0,.292-.263,2.281,2.281,0,0,0-1.849-2.742.321.321,0,0,0-.382.251.325.325,0,0,0,.251.384,1.649,1.649,0,0,1,1.343,1.989.324.324,0,0,0,.259.378A.215.215,0,0,0,1157.621,2176.116Z" transform="translate(-1155.674 -2173.104)" fill="#fff"/>
              </g>
              <g id="Grupo_1151170" data-name="Grupo 1151170">
                <path id="Trazado_985937" data-name="Trazado 985937" d="M1148.932,2174.307a.325.325,0,0,0,.292-.264,2.282,2.282,0,0,0-1.849-2.743.324.324,0,0,0-.131.635,1.648,1.648,0,0,1,1.342,1.989.324.324,0,0,0,.259.378A.267.267,0,0,0,1148.932,2174.307Z" transform="translate(-1146.986 -2171.294)" fill="#fff"/>
              </g>
            </g>
            <path id="Trazado_985938" data-name="Trazado 985938" d="M1084.9,2195.318c3.7-.18,17.561-5.264,20.558-9.1a3.522,3.522,0,0,1,.482.4c-3.245,4-16.7,8.979-20.812,9.328-.068.006-.133.01-.195.013-2.673.138-6.172-.006-8.63-2.13a7.506,7.506,0,0,1-.176-1.089C1078.421,2195.293,1082.13,2195.462,1084.9,2195.318Z" transform="translate(-1075.582 -2173.886)" fill="#fff"/>
          </g>
          <g id="Grupo_1151173" data-name="Grupo 1151173" transform="translate(29.424 129.654)">
            <path id="Trazado_985939" data-name="Trazado 985939" d="M1185.027,1965.935h0c5.815-.212,10.358-2.666,10.146-8.481l-2.435-71.805a1.566,1.566,0,0,0-1.621-1.508l-17.929.652c-.864.031-.9-.833-.864.031l1.791,73.4C1174.327,1964.033,1179.212,1966.145,1185.027,1965.935Z" transform="translate(-1172.317 -1884.14)" fill="#3b89e1"/>
          </g>
          <path id="Trazado_985940" data-name="Trazado 985940" d="M1092.26,2171.3l.533.2s-1.625,3.824-8.585,4.137-9.343-1.9-9.343-1.9l-.074-2.437h17.469Z" transform="translate(-1070.362 -1968.047)" fill="#204a7b"/>
          <g id="Grupo_1151174" data-name="Grupo 1151174" transform="translate(2.236 121.363)">
            <path id="Trazado_985941" data-name="Trazado 985941" d="M1088.075,1929.323l6.975-75.32-20.956-2.212-7.8,76.64c-.611,5.787,3.939,7.653,9.726,8.264h0C1081.8,1937.3,1087.465,1935.11,1088.075,1929.323Z" transform="translate(-1066.234 -1851.791)" fill="#3b89e1"/>
          </g>
          <path id="Trazado_985942" data-name="Trazado 985942" d="M1192.972,1907.31s-3.189,3.017-9.764,4.31a104.084,104.084,0,0,1-10.609,1.725l-.283-6.034h20.656Z" transform="translate(-1142.892 -1771.718)" fill="#152b96"/>
          <path id="Trazado_985943" data-name="Trazado 985943" d="M1112.031,1903.746c-8.945,1.629-21.8-.732-21.8-.732l.475-5.056,20.564,2.4Z" transform="translate(-1081.842 -1764.762)" fill="#204a7b"/>
          <path id="Trazado_985944" data-name="Trazado 985944" d="M1094.064,1568.769l-9.747-3.105-26.805,79.676s4.771,9.878,27.284,9.878,30.177-4.311,30.177-4.311l-18.723-77.848Z" transform="translate(-1057.511 -1517.635)" fill="#fd7940"/>
          <g id="Grupo_1151175" data-name="Grupo 1151175" transform="translate(27.875 36.137)">
            <path id="Trazado_985945" data-name="Trazado 985945" d="M1177.462,1538.876l-2.1-7.394-.059-11.782h-6.425l-2.171,9Z" transform="translate(-1166.598 -1519.588)" fill="#fff"/>
            <path id="Trazado_985946" data-name="Trazado 985946" d="M1177.059,1538.632l-10.752-10.18a.112.112,0,0,1-.032-.108l2.171-9a.112.112,0,0,1,.109-.086h6.424a.112.112,0,0,1,.112.112l.06,11.765,2.093,7.382a.112.112,0,0,1-.108.143A.114.114,0,0,1,1177.059,1538.632Zm-8.414-19.146-2.135,8.848,10.408,9.855-1.985-7a.107.107,0,0,1,0-.03l-.059-11.669Z" transform="translate(-1166.272 -1519.262)" fill="#152b96"/>
          </g>
          <g id="Grupo_1151176" data-name="Grupo 1151176" transform="translate(24.15 21.389)">
            <circle id="Elipse_11691" data-name="Elipse 11691" cx="9.101" cy="9.101" r="9.101" transform="translate(0 17.714) rotate(-76.714)" fill="#fff"/>
            <path id="Trazado_985947" data-name="Trazado 985947" d="M1158.53,1477.576a9.213,9.213,0,1,1,9.213,9.213A9.224,9.224,0,0,1,1158.53,1477.576Zm.223,0a8.989,8.989,0,1,0,8.989-8.989A9,9,0,0,0,1158.753,1477.576Z" transform="translate(-1156.789 -1466.66)" fill="#152b96"/>
          </g>
          <g id="Grupo_1151177" data-name="Grupo 1151177" transform="translate(38.345)">
            <path id="Trazado_985948" data-name="Trazado 985948" d="M1207.81,1433.744s20.868-31.973,20.49-40.239c-.145-3.166,1.378-4.437,1.378-4.437l1.431-.064s-.6-8.819.657-9.021c1.182-.19,2.119,6.081,2.119,6.081s-.158-7.14,2.069-7.241c1.143-.051,1.252,8.765,1.252,8.765s1.809-7.008,3.266-6.588c1.59.459.1,6.9.1,6.9s1.813-3.276,3.007-1.515-18.516,43.829-27.334,57.737Z" transform="translate(-1207.634 -1378.681)" fill="#fff"/>
            <path id="Trazado_985949" data-name="Trazado 985949" d="M1207.189,1433.42l-.066-.081.057-.087c.209-.319,20.839-32.028,20.467-40.154-.146-3.2,1.365-4.5,1.43-4.554l.037-.031,1.334-.059c-.116-1.779-.493-8.821.787-9.027a.529.529,0,0,1,.407.113c.715.524,1.3,2.964,1.615,4.593.092-2.144.5-5.79,2.183-5.867a.425.425,0,0,1,.3.124c.8.754,1.02,5.627,1.079,7.807.489-1.681,1.585-5.058,2.65-5.666a.673.673,0,0,1,.533-.082c1.381.4.721,4.5.362,6.3.432-.605,1.133-1.4,1.838-1.437a1.107,1.107,0,0,1,.982.582c1.313,1.937-18.611,44.139-27.332,57.894l-.107.168Zm35.028-47.818c-.795.036-1.735,1.427-2.03,1.961l-.495.893.23-.995c.406-1.756,1.2-6.39,0-6.735a.391.391,0,0,0-.311.055c-1.295.739-2.762,6.374-2.776,6.431l-.268,1.039-.013-1.073c-.026-2.146-.26-7.87-1.009-8.578-.05-.047-.079-.05-.094-.047-1.712.077-1.975,5.148-1.932,7.095l-.285.024c-.215-1.44-.952-5.308-1.763-5.9a.252.252,0,0,0-.192-.061c-.777.125-.782,5.263-.537,8.871l.01.146-1.526.068a5.522,5.522,0,0,0-1.294,4.29c.37,8.084-19.011,38.015-20.457,40.237l8.242,10.148c9.21-14.611,28.347-55.766,27.23-57.412a.857.857,0,0,0-.7-.457A.1.1,0,0,0,1242.217,1385.6Z" transform="translate(-1207.123 -1378.267)" fill="#12305b"/>
          </g>
          <g id="Grupo_1151178" data-name="Grupo 1151178" transform="translate(27.496 45.714)">
            <path id="Trazado_985950" data-name="Trazado 985950" d="M1178.6,1588.752l11.71-14.437s.956-3.042-2.687-9.157c-3.7-6.211-7.811-8.527-7.811-8.527l-13.654,23.45a7.583,7.583,0,0,0,1.885,10.557h0A7.586,7.586,0,0,0,1178.6,1588.752Z" transform="translate(-1164.791 -1556.63)" fill="#fd7940"/>
          </g>
          <path id="Trazado_985951" data-name="Trazado 985951" d="M1160.776,1473.983a12.159,12.159,0,0,1-3.036,2.462,4.115,4.115,0,0,1-3.771.127c-.419-.233-.777-.562-1.172-.834a13.181,13.181,0,0,0-1.265-.722,7.276,7.276,0,0,1-3.359-3.069,3.162,3.162,0,0,1,1.033-4.067,4.539,4.539,0,0,1,4.6-7.578,6.8,6.8,0,0,1,2.775-4.121,5.185,5.185,0,0,1,4.855-.486c1.276.572,2.319,1.739,3.711,1.882,1.656.17,3.278-1.191,4.876-.724,1.765.517,2.2,2.856,1.853,4.662-.628,3.26-3.656,8.365-7.333,8.771-1.493.165-2.813-.791-4.285-.046C1157.441,1471.663,1160.335,1472.44,1160.776,1473.983Z" transform="translate(-1124.689 -1435.556)" fill="#82e0e0"/>
        </g>
      </g>
      <g id="Grupo_1151185" data-name="Grupo 1151185" transform="translate(-3606.305 5814.488)">
        <g id="Grupo_1151181" data-name="Grupo 1151181" transform="translate(0 0.001)">
          <rect id="Rectángulo_408029" data-name="Rectángulo 408029" width="82.471" height="48.433" transform="translate(0.327 0.327)" fill="#fff"/>
          <path id="Trazado_985952" data-name="Trazado 985952" d="M670.884,1268.3H588.413a.327.327,0,0,1-.327-.327v-48.433a.328.328,0,0,1,.327-.327h82.471a.328.328,0,0,1,.327.327v48.433A.329.329,0,0,1,670.884,1268.3Zm-82.143-.656h81.816v-47.778H588.741Z" transform="translate(-588.086 -1219.215)" fill="#1c2684"/>
        </g>
        <g id="Grupo_1151182" data-name="Grupo 1151182" transform="translate(0 21.622)">
          <line id="Línea_1340" data-name="Línea 1340" x1="41.235" y2="26.811" transform="translate(0.328 0.326)" fill="#fff"/>
          <path id="Trazado_985953" data-name="Trazado 985953" d="M588.413,1331.043a.328.328,0,0,1-.179-.6l41.235-26.811a.327.327,0,0,1,.357.549l-41.235,26.81A.325.325,0,0,1,588.413,1331.043Z" transform="translate(-588.085 -1303.577)" fill="#1c2684"/>
        </g>
        <g id="Grupo_1151183" data-name="Grupo 1151183" transform="translate(41.235 21.622)">
          <line id="Línea_1341" data-name="Línea 1341" x1="41.235" y1="26.811" transform="translate(0.327 0.326)" fill="#fff"/>
          <path id="Trazado_985954" data-name="Trazado 985954" d="M790.537,1331.043a.327.327,0,0,1-.178-.053l-41.235-26.811a.327.327,0,0,1,.357-.549l41.235,26.811a.328.328,0,0,1,.1.453A.331.331,0,0,1,790.537,1331.043Z" transform="translate(-748.974 -1303.577)" fill="#1c2684"/>
        </g>
        <g id="Grupo_1151184" data-name="Grupo 1151184" transform="translate(0)">
          <path id="Trazado_985955" data-name="Trazado 985955" d="M589.363,1220.49l41.235,29.982,41.235-29.982Z" transform="translate(-589.036 -1220.163)" fill="#fff"/>
          <path id="Trazado_985956" data-name="Trazado 985956" d="M629.648,1249.85a.326.326,0,0,1-.192-.062l-41.235-29.982a.327.327,0,0,1,.192-.592h82.471a.327.327,0,0,1,.193.592l-41.235,29.982A.327.327,0,0,1,629.648,1249.85Zm-40.228-29.982,40.228,29.25,40.229-29.25Z" transform="translate(-588.086 -1219.213)" fill="#1c2684"/>
        </g>
      </g>
      <g id="Grupo_1151192" data-name="Grupo 1151192" transform="translate(-3631.325 5589.093)">
        <g id="Grupo_1151188" data-name="Grupo 1151188" transform="translate(39.711 18.053)">
          <g id="Grupo_1151186" data-name="Grupo 1151186">
            <path id="Trazado_985957" data-name="Trazado 985957" d="M700.7,410.788H649.734a3.761,3.761,0,0,0-3.761,3.761v27.66a3.762,3.762,0,0,0,3.761,3.761h33.831l10.715,15.264V445.971H700.7a3.762,3.762,0,0,0,3.761-3.761v-27.66A3.761,3.761,0,0,0,700.7,410.788Z" transform="translate(-645.828 -410.643)" fill="#fff"/>
            <path id="Trazado_985958" data-name="Trazado 985958" d="M694,461.273,683.069,445.7H649.313a3.911,3.911,0,0,1-3.907-3.907v-27.66a3.911,3.911,0,0,1,3.907-3.906h50.964a3.911,3.911,0,0,1,3.906,3.906v27.66a3.911,3.911,0,0,1-3.906,3.907H694v15.578Zm-44.691-50.761a3.621,3.621,0,0,0-3.616,3.616v27.66a3.621,3.621,0,0,0,3.616,3.616H683.22l.043.062,10.451,14.888V445.4h6.564a3.62,3.62,0,0,0,3.616-3.616v-27.66a3.621,3.621,0,0,0-3.616-3.616Z" transform="translate(-645.407 -410.222)" fill="#151f49"/>
          </g>
          <g id="Grupo_1151187" data-name="Grupo 1151187" transform="translate(11.604 13.515)">
            <circle id="Elipse_11692" data-name="Elipse 11692" cx="3.87" cy="3.87" r="3.87" fill="#193f93"/>
            <circle id="Elipse_11693" data-name="Elipse 11693" cx="3.87" cy="3.87" r="3.87" transform="translate(13.915)" fill="#193f93"/>
            <circle id="Elipse_11694" data-name="Elipse 11694" cx="3.87" cy="3.87" r="3.87" transform="translate(27.831)" fill="#193f93"/>
          </g>
        </g>
        <g id="Grupo_1151191" data-name="Grupo 1151191">
          <g id="Grupo_1151189" data-name="Grupo 1151189">
            <path id="Trazado_985959" data-name="Trazado 985959" d="M494.791,340.351h50.965a3.761,3.761,0,0,1,3.761,3.761v27.66a3.761,3.761,0,0,1-3.761,3.761H511.925L501.21,390.8V375.534h-6.418a3.762,3.762,0,0,1-3.761-3.761v-27.66A3.761,3.761,0,0,1,494.791,340.351Z" transform="translate(-490.885 -340.206)" fill="#fff"/>
            <path id="Trazado_985960" data-name="Trazado 985960" d="M500.644,375.258H494.37a3.911,3.911,0,0,1-3.906-3.906v-27.66a3.911,3.911,0,0,1,3.906-3.906h50.965a3.911,3.911,0,0,1,3.907,3.906v27.66a3.911,3.911,0,0,1-3.907,3.906H511.58l-10.936,15.578Zm-6.273-35.183a3.621,3.621,0,0,0-3.616,3.616v27.66a3.621,3.621,0,0,0,3.616,3.616h6.564v14.95l10.451-14.888.043-.062h33.906a3.621,3.621,0,0,0,3.616-3.616v-27.66a3.62,3.62,0,0,0-3.616-3.616Z" transform="translate(-490.464 -339.785)" fill="#151f49"/>
          </g>
          <g id="Grupo_1151190" data-name="Grupo 1151190" transform="translate(11.603 13.515)">
            <circle id="Elipse_11695" data-name="Elipse 11695" cx="3.87" cy="3.87" r="3.87" transform="translate(27.831)" fill="#4455ab"/>
            <circle id="Elipse_11696" data-name="Elipse 11696" cx="3.87" cy="3.87" r="3.87" transform="translate(13.916)" fill="#4455ab"/>
            <circle id="Elipse_11697" data-name="Elipse 11697" cx="3.87" cy="3.87" r="3.87" fill="#4455ab"/>
          </g>
        </g>
      </g>
      <g id="Grupo_1151194" data-name="Grupo 1151194" transform="translate(-3542.708 5871.896)">
        <path id="Trazado_985961" data-name="Trazado 985961" d="M853.144,1470.577h-10.69a2.539,2.539,0,0,1-2.424-1.783l-3.269-10.482a11.623,11.623,0,0,1,10.6-15.1q.217-.008.437-.008h0q.219,0,.436.008a11.623,11.623,0,0,1,10.6,15.1l-3.269,10.482A2.539,2.539,0,0,1,853.144,1470.577Z" transform="translate(-836.226 -1443.203)" fill="#fdc621"/>
        <g id="Grupo_1151193" data-name="Grupo 1151193" transform="translate(5.009 7.405)">
          <path id="Trazado_985962" data-name="Trazado 985962" d="M869.923,1475.071a.359.359,0,0,0-.425.272l-.005.023a2.927,2.927,0,0,1-1.805,2,1.437,1.437,0,0,1-1.516-.522,5.188,5.188,0,0,0,.448-3.461c-.181-.744-.525-1.2-.968-1.273-.255-.044-.637.02-1.008.58-.688,1.041-.218,3,.649,4.211a3.135,3.135,0,0,1-.63.643,1.818,1.818,0,0,1-1.638.39,2.174,2.174,0,0,1-.909-.57l0,0a4.094,4.094,0,0,0,.631-3.725,1.629,1.629,0,0,0-1.169-1.177,1.245,1.245,0,0,0-1.207.42,2.714,2.714,0,0,0-.127,2.694,7.284,7.284,0,0,0,.89,1.746,2.07,2.07,0,0,1-1.478.39c-1.965-.193-3.19-2.876-3.2-2.9a.359.359,0,0,0-.682.2l2.58,17.052h.725l-2.336-15.44.026.034a4.257,4.257,0,0,0,2.818,1.771,2.8,2.8,0,0,0,2.011-.554,2.881,2.881,0,0,0,1.224.757,2.5,2.5,0,0,0,2.274-.508,3.8,3.8,0,0,0,.672-.658,2.045,2.045,0,0,0,2.164.583,3.539,3.539,0,0,0,1.1-.643l-3.282,14.592a.359.359,0,0,0-.008.068h.728l3.718-16.53c0-.016.006-.026.007-.03A.359.359,0,0,0,869.923,1475.071Zm-9,.251a2.108,2.108,0,0,1,0-1.979.532.532,0,0,1,.407-.2.552.552,0,0,1,.112.012.931.931,0,0,1,.63.69,3.392,3.392,0,0,1-.417,2.945A6.754,6.754,0,0,1,860.921,1475.322Zm4.769.876c-.645-1.07-.87-2.475-.447-3.115.137-.207.245-.27.281-.27h0c.07.012.267.215.394.736A4.459,4.459,0,0,1,865.689,1476.2Z" transform="translate(-855.771 -1472.097)" fill="#fff"/>
        </g>
        <path id="Trazado_985963" data-name="Trazado 985963" d="M866.5,1554.717H854.567a1.221,1.221,0,0,1-1.22-1.22h0a1.22,1.22,0,0,1,1.22-1.22H866.5a1.22,1.22,0,0,1,1.22,1.22h0a1.221,1.221,0,0,1-1.221,1.22Z" transform="translate(-848.958 -1524.321)" fill="#5cb1f7"/>
        <path id="Trazado_985964" data-name="Trazado 985964" d="M867.671,1566.537H856.979a1.221,1.221,0,0,1-1.22-1.22h0a1.221,1.221,0,0,1,1.22-1.221h10.692a1.221,1.221,0,0,1,1.221,1.221h0a1.221,1.221,0,0,1-1.22,1.22Z" transform="translate(-850.752 -1533.111)" fill="#5cb1f7"/>
        <path id="Trazado_985965" data-name="Trazado 985965" d="M868.524,1578.277h-9.8a1.221,1.221,0,0,1-1.221-1.221h0a1.221,1.221,0,0,1,1.221-1.22h9.8a1.221,1.221,0,0,1,1.221,1.22h0a1.221,1.221,0,0,1-1.221,1.221Z" transform="translate(-852.054 -1541.843)" fill="#5cb1f7"/>
        <path id="Trazado_985966" data-name="Trazado 985966" d="M861.715,1582.86a5.35,5.35,0,0,0,10.08,0Z" transform="translate(-855.182 -1547.067)" fill="#5cb1f7"/>
      </g>
      <g id="Grupo_1151216" data-name="Grupo 1151216" transform="translate(-3438.578 5666.999)">
        <path id="Trazado_985967" data-name="Trazado 985967" d="M1242.51,735.184V646.166a2.416,2.416,0,0,1,2.416-2.416h127.066a2.416,2.416,0,0,1,2.416,2.416v89.019a2.416,2.416,0,0,1-2.416,2.416H1244.926a2.416,2.416,0,0,1-2.416-2.417Z" transform="translate(-1242.51 -643.75)" fill="#7ac4ed"/>
        <rect id="Rectángulo_408030" data-name="Rectángulo 408030" width="124.014" height="85.968" transform="translate(3.942 3.942)" fill="#fff"/>
        <g id="Grupo_1151198" data-name="Grupo 1151198" transform="translate(79.435 21.706)">
          <path id="Trazado_985968" data-name="Trazado 985968" d="M1554.394,729.418a.976.976,0,1,0-.976.976A.976.976,0,0,0,1554.394,729.418Z" transform="translate(-1552.442 -728.442)" fill="#0e2a54"/>
          <g id="Grupo_1151197" data-name="Grupo 1151197" transform="translate(0.976 0.976)">
            <g id="Grupo_1151195" data-name="Grupo 1151195">
              <path id="Trazado_985969" data-name="Trazado 985969" d="M1583.75,736.059h-23.79a.1.1,0,0,1-.07-.029l-3.613-3.612a.1.1,0,1,1,.14-.14l3.583,3.584h23.749a.1.1,0,0,1,.1.1A.1.1,0,0,1,1583.75,736.059Z" transform="translate(-1556.25 -732.25)" fill="#0e2a54"/>
            </g>
            <g id="Grupo_1151196" data-name="Grupo 1151196" transform="translate(5.944 0.418)">
              <rect id="Rectángulo_408031" data-name="Rectángulo 408031" width="12.92" height="1.905" fill="#7ac4ed"/>
              <rect id="Rectángulo_408032" data-name="Rectángulo 408032" width="4.051" height="1.905" transform="translate(13.994)" fill="#7ac4ed"/>
            </g>
          </g>
        </g>
        <g id="Grupo_1151202" data-name="Grupo 1151202" transform="translate(92.296 35.633)">
          <path id="Trazado_985970" data-name="Trazado 985970" d="M1604.575,783.754a.976.976,0,1,0-.976.976A.976.976,0,0,0,1604.575,783.754Z" transform="translate(-1602.622 -782.778)" fill="#0e2a54"/>
          <g id="Grupo_1151201" data-name="Grupo 1151201" transform="translate(0.976 0.976)">
            <g id="Grupo_1151199" data-name="Grupo 1151199">
              <path id="Trazado_985971" data-name="Trazado 985971" d="M1633.931,790.4h-23.79a.1.1,0,0,1-.07-.029l-3.612-3.613a.1.1,0,0,1,.139-.139l3.583,3.584h23.749a.1.1,0,1,1,0,.2Z" transform="translate(-1606.43 -786.586)" fill="#0e2a54"/>
            </g>
            <g id="Grupo_1151200" data-name="Grupo 1151200" transform="translate(5.943 0.418)">
              <rect id="Rectángulo_408033" data-name="Rectángulo 408033" width="12.92" height="1.905" fill="#7ac4ed"/>
              <rect id="Rectángulo_408034" data-name="Rectángulo 408034" width="4.051" height="1.905" transform="translate(13.994)" fill="#7ac4ed"/>
            </g>
          </g>
        </g>
        <g id="Grupo_1151206" data-name="Grupo 1151206" transform="translate(68.106 72.436)">
          <path id="Trazado_985972" data-name="Trazado 985972" d="M1510.194,927.352a.976.976,0,1,0-.976.976A.976.976,0,0,0,1510.194,927.352Z" transform="translate(-1508.242 -926.376)" fill="#0e2a54"/>
          <g id="Grupo_1151205" data-name="Grupo 1151205" transform="translate(0.976 0.976)">
            <g id="Grupo_1151203" data-name="Grupo 1151203">
              <path id="Trazado_985973" data-name="Trazado 985973" d="M1539.551,933.993h-23.79a.1.1,0,0,1-.07-.029l-3.612-3.612a.1.1,0,0,1,.139-.139l3.584,3.583h23.749a.1.1,0,0,1,.1.1A.1.1,0,0,1,1539.551,933.993Z" transform="translate(-1512.05 -930.183)" fill="#0e2a54"/>
            </g>
            <g id="Grupo_1151204" data-name="Grupo 1151204" transform="translate(5.943 0.418)">
              <rect id="Rectángulo_408035" data-name="Rectángulo 408035" width="12.92" height="1.905" fill="#7ac4ed"/>
              <rect id="Rectángulo_408036" data-name="Rectángulo 408036" width="4.051" height="1.905" transform="translate(13.994)" fill="#7ac4ed"/>
            </g>
          </g>
        </g>
        <g id="Grupo_1151209" data-name="Grupo 1151209" transform="translate(15.666 31.612)">
          <path id="Trazado_985974" data-name="Trazado 985974" d="M1409.465,768.067a.976.976,0,1,0-.976.976A.976.976,0,0,0,1409.465,768.067Z" transform="translate(-1380.889 -767.091)" fill="#0e2a54"/>
          <g id="Grupo_1151207" data-name="Grupo 1151207" transform="translate(0 0.976)">
            <path id="Trazado_985975" data-name="Trazado 985975" d="M1303.734,774.708h23.79a.1.1,0,0,0,.07-.029l3.612-3.612a.1.1,0,0,0-.14-.139l-3.583,3.583h-23.749a.1.1,0,0,0,0,.2Z" transform="translate(-1303.635 -770.899)" fill="#0e2a54"/>
          </g>
          <g id="Grupo_1151208" data-name="Grupo 1151208" transform="translate(3.477 1)">
            <rect id="Rectángulo_408037" data-name="Rectángulo 408037" width="12.92" height="1.905" fill="#7ac4ed"/>
            <rect id="Rectángulo_408038" data-name="Rectángulo 408038" width="4.051" height="1.905" transform="translate(13.994)" fill="#7ac4ed"/>
          </g>
        </g>
        <g id="Grupo_1151213" data-name="Grupo 1151213" transform="translate(13.766 13.178)">
          <g id="Grupo_1151210" data-name="Grupo 1151210">
            <path id="Trazado_985976" data-name="Trazado 985976" d="M1322.394,703.694h-26.173v-8.528h26.173Zm-25.976-.2H1322.2v-8.134h-25.779Z" transform="translate(-1296.221 -695.166)" fill="#0e2a54"/>
          </g>
          <g id="Grupo_1151211" data-name="Grupo 1151211" transform="translate(0.1 4.166)">
            <rect id="Rectángulo_408039" data-name="Rectángulo 408039" width="25.976" height="0.197" fill="#0e2a54"/>
          </g>
          <g id="Grupo_1151212" data-name="Grupo 1151212" transform="translate(18.279 0.099)">
            <rect id="Rectángulo_408040" data-name="Rectángulo 408040" width="0.197" height="4.166" fill="#0e2a54"/>
          </g>
        </g>
        <g id="Grupo_1151214" data-name="Grupo 1151214" transform="translate(45.494 24.099)">
          <path id="Trazado_985977" data-name="Trazado 985977" d="M1507.4,747.715a12.163,12.163,0,0,1,7.646,3.988l7.356-6.566q-.415-.464-.857-.908a21.862,21.862,0,0,0-12.986-6.3,22.409,22.409,0,0,0-2.592-.151v9.854A12.375,12.375,0,0,1,1507.4,747.715Z" transform="translate(-1483.941 -737.776)" fill="#fdc621"/>
          <path id="Trazado_985978" data-name="Trazado 985978" d="M1552.132,771.518a21.989,21.989,0,0,0-3.382-5.023l-7.356,6.566a12.228,12.228,0,0,1,1.861,2.761,12.094,12.094,0,0,1,1.153,3.914l9.787-1.157A21.83,21.83,0,0,0,1552.132,771.518Z" transform="translate(-1510.285 -759.134)" fill="#d9f3ff"/>
          <path id="Trazado_985979" data-name="Trazado 985979" d="M1463.926,813.642l-9.787,1.157a12.177,12.177,0,1,1-24.269,1.43q0-.592.056-1.171l-9.81-.948q-.1,1.05-.1,2.118a22.03,22.03,0,0,0,36.9,16.255c.24-.221.478-.446.709-.678a21.886,21.886,0,0,0,6.453-15.578A22.111,22.111,0,0,0,1463.926,813.642Z" transform="translate(-1420.016 -794.198)" fill="#7ac4ed"/>
          <path id="Trazado_985980" data-name="Trazado 985980" d="M1442.336,747.632v-9.854a22.033,22.033,0,0,0-21.93,19.912l9.81.947A12.2,12.2,0,0,1,1442.336,747.632Z" transform="translate(-1420.307 -737.778)" fill="#fd7940"/>
        </g>
        <g id="Grupo_1151215" data-name="Grupo 1151215" transform="translate(19.389 64.715)">
          <rect id="Rectángulo_408041" data-name="Rectángulo 408041" width="23.67" height="3.616" transform="translate(0.205)" fill="#7ac4ed"/>
          <rect id="Rectángulo_408042" data-name="Rectángulo 408042" width="5.085" height="3.616" transform="translate(18.584 7.061)" fill="#7ac4ed"/>
          <rect id="Rectángulo_408043" data-name="Rectángulo 408043" width="16.502" height="3.616" transform="translate(0 7.061)" fill="#7ac4ed"/>
        </g>
      </g>
      <g id="Grupo_1151220" data-name="Grupo 1151220" transform="translate(-3654.669 5904.671)">
        <circle id="Elipse_11698" data-name="Elipse 11698" cx="57.928" cy="57.928" r="57.928" transform="translate(5.334 5.049)" fill="#fff"/>
        <g id="Grupo_1151219" data-name="Grupo 1151219">
          <g id="Grupo_1151217" data-name="Grupo 1151217">
            <path id="Trazado_985981" data-name="Trazado 985981" d="M462.361,1697.036a62.794,62.794,0,1,1,24.515-4.951A62.588,62.588,0,0,1,462.361,1697.036Zm0-117.351a54.376,54.376,0,1,0,38.449,15.926A54.019,54.019,0,0,0,462.361,1579.686Z" transform="translate(-399.384 -1571.082)" fill="#2f42a2"/>
          </g>
          <g id="Grupo_1151218" data-name="Grupo 1151218" transform="translate(11.93 11.932)">
            <path id="Trazado_985982" data-name="Trazado 985982" d="M642.608,1624.962h.009a.855.855,0,0,0,.6-.246.839.839,0,0,0,.25-.6v-5.585a.918.918,0,0,0-.24-.619.836.836,0,0,0-.593-.277.861.861,0,0,0-.887.86v5.621a.839.839,0,0,0,.25.6.853.853,0,0,0,.6.246h.008Z" transform="translate(-591.561 -1617.635)" fill="#0e2a54"/>
            <path id="Trazado_985983" data-name="Trazado 985983" d="M453.259,1814.3v-.009a.853.853,0,0,0-.246-.6.837.837,0,0,0-.6-.25h-5.585a.919.919,0,0,0-.619.24.836.836,0,0,0-.277.593.86.86,0,0,0,.86.886h5.621a.838.838,0,0,0,.6-.25.852.852,0,0,0,.246-.6v0S453.259,1814.306,453.259,1814.3Z" transform="translate(-445.932 -1763.258)" fill="#0e2a54"/>
            <path id="Trazado_985984" data-name="Trazado 985984" d="M766.188,1680.423l1.976-1.976,1.976-1.975a.915.915,0,0,0,.264-.563.835.835,0,0,0-.169-.59.861.861,0,0,0-1.29-.084l-1.986,1.986-1.986,1.986a.851.851,0,0,0,0,1.2l.006.006.006.006a.848.848,0,0,0,.6.25A.839.839,0,0,0,766.188,1680.423Z" transform="translate(-683.017 -1660.285)" fill="#0e2a54"/>
            <path id="Trazado_985985" data-name="Trazado 985985" d="M508.727,1680.425l.006-.006.006-.006a.851.851,0,0,0,0-1.2l-1.986-1.986-1.986-1.986a.86.86,0,0,0-1.29.084.835.835,0,0,0-.169.59.915.915,0,0,0,.264.563l1.976,1.976,1.976,1.976a.851.851,0,0,0,1.2,0Z" transform="translate(-488.6 -1660.286)" fill="#0e2a54"/>
            <path id="Trazado_985986" data-name="Trazado 985986" d="M764.985,1936.676l-.006.006-.006.006a.851.851,0,0,0,0,1.2l1.986,1.986,1.986,1.986a.86.86,0,0,0,1.291-.084.834.834,0,0,0,.169-.59.914.914,0,0,0-.264-.563l-1.976-1.976-1.976-1.976a.851.851,0,0,0-1.2,0Z" transform="translate(-683.018 -1854.721)" fill="#0e2a54"/>
            <path id="Trazado_985987" data-name="Trazado 985987" d="M822.121,1813.45h-5.585a.839.839,0,0,0-.6.25.853.853,0,0,0-.246.6v.017a.853.853,0,0,0,.246.6.837.837,0,0,0,.6.25h5.621a.86.86,0,0,0,.86-.886.837.837,0,0,0-.276-.593A.917.917,0,0,0,822.121,1813.45Z" transform="translate(-720.923 -1763.263)" fill="#0e2a54"/>
            <path id="Trazado_985988" data-name="Trazado 985988" d="M507.524,1936.677l-1.976,1.976-1.976,1.976a.913.913,0,0,0-.264.563.835.835,0,0,0,.169.59.86.86,0,0,0,1.29.084l1.986-1.986,1.986-1.986a.851.851,0,0,0,0-1.2l-.006-.006-.006-.006a.849.849,0,0,0-.6-.25A.837.837,0,0,0,507.524,1936.677Z" transform="translate(-488.601 -1854.722)" fill="#0e2a54"/>
            <path id="Trazado_985989" data-name="Trazado 985989" d="M642.607,1987.39H642.6a.853.853,0,0,0-.6.246.838.838,0,0,0-.25.6v5.585a.919.919,0,0,0,.24.619.836.836,0,0,0,.593.277.86.86,0,0,0,.887-.86v-5.621a.838.838,0,0,0-.25-.6.853.853,0,0,0-.6-.246h-.008Z" transform="translate(-591.56 -1892.623)" fill="#0e2a54"/>
          </g>
          <circle id="Elipse_11699" data-name="Elipse 11699" cx="5.373" cy="5.373" r="5.373" transform="translate(56.527 58.952) rotate(-13.286)" fill="#0e2a54"/>
          <path id="Trazado_985990" data-name="Trazado 985990" d="M682.4,1815.168H649.32a.86.86,0,0,1-.86-.86h0a.86.86,0,0,1,.86-.86H682.4a.86.86,0,0,1,.86.86h0a.86.86,0,0,1-.86.86Z" transform="translate(-584.623 -1751.33)" fill="#0e2a54"/>
          <path id="Trazado_985991" data-name="Trazado 985991" d="M644.324,1816.8v35.9a.411.411,0,0,1-.41.41h0a.411.411,0,0,1-.41-.41v-35.9h.821Z" transform="translate(-580.936 -1753.823)" fill="#7ac4ed"/>
          <path id="Trazado_985992" data-name="Trazado 985992" d="M573.7,1746.164l9.425,9.425,6.3,6.3a1.831,1.831,0,0,1,0,2.589h0a1.831,1.831,0,0,1-2.589,0l-6.3-6.3-9.425-9.424a1.831,1.831,0,0,1,0-2.589h0a1.83,1.83,0,0,1,2.589,0Z" transform="translate(-526.699 -1700.892)" fill="#0e2a54"/>
          <circle id="Elipse_11700" data-name="Elipse 11700" cx="2.633" cy="2.633" r="2.633" transform="translate(60.344 60.343)" fill="#7ac4ed"/>
        </g>
      </g>
    </g>
  </g>
</svg>
