<svg xmlns="http://www.w3.org/2000/svg" xmlns:xlink="http://www.w3.org/1999/xlink" width="114.038" height="114.038" viewBox="0 0 114.038 114.038">
  <defs>
    <filter id="Trazado_982550" x="0" y="0" width="114.038" height="114.038" filterUnits="userSpaceOnUse">
      <feOffset dy="3" input="SourceAlpha"/>
      <feGaussianBlur stdDeviation="3" result="blur"/>
      <feFlood flood-opacity="0.161"/>
      <feComposite operator="in" in2="blur"/>
      <feComposite in="SourceGraphic"/>
    </filter>
  </defs>
  <g id="Grupo_1151067" data-name="Grupo 1151067" transform="translate(-323 -2001)">
    <g id="Grupo_1150763" data-name="Grupo 1150763" transform="translate(122 396)">
      <g transform="matrix(1, 0, 0, 1, 201, 1605)" filter="url(#Trazado_982550)">
        <g id="Trazado_982550-2" data-name="Trazado 982550" transform="translate(9 6)" fill="#f3f3f3">
          <path d="M 48.01904678344727 94.53810119628906 C 41.73835372924805 94.53810119628906 35.64632797241211 93.30835723876953 29.91219329833984 90.88301849365234 C 24.37292671203613 88.54010009765625 19.3978328704834 85.18569946289062 15.12511348724365 80.91297912597656 C 10.85240650177002 76.64027404785156 7.498006820678711 71.66517639160156 5.155086994171143 66.12590026855469 C 2.729753494262695 60.39176559448242 1.500006794929504 54.29973983764648 1.500006794929504 48.01904678344727 C 1.500006794929504 41.73835372924805 2.729753494262695 35.64632797241211 5.155086994171143 29.91219329833984 C 7.498006820678711 24.37292671203613 10.85240650177002 19.3978328704834 15.12511348724365 15.12511348724365 C 19.3978328704834 10.85240650177002 24.37292671203613 7.498006820678711 29.91219329833984 5.155086994171143 C 35.64632797241211 2.729753494262695 41.73835372924805 1.500006794929504 48.01904678344727 1.500006794929504 C 54.29973983764648 1.500006794929504 60.39176559448242 2.729753494262695 66.12590026855469 5.155086994171143 C 71.66517639160156 7.498006820678711 76.64027404785156 10.85240650177002 80.91297912597656 15.12511348724365 C 85.18569946289062 19.3978328704834 88.54010009765625 24.37292671203613 90.88301849365234 29.91219329833984 C 93.30835723876953 35.64632797241211 94.53810119628906 41.73835372924805 94.53810119628906 48.01904678344727 C 94.53810119628906 54.29973983764648 93.30835723876953 60.39176559448242 90.88301849365234 66.12590026855469 C 88.54010009765625 71.66517639160156 85.18569946289062 76.64027404785156 80.91297912597656 80.91297912597656 C 76.64027404785156 85.18569946289062 71.66517639160156 88.54010009765625 66.12590026855469 90.88301849365234 C 60.39176559448242 93.30835723876953 54.29973983764648 94.53810119628906 48.01904678344727 94.53810119628906 Z" stroke="none"/>
          <path d="M 48.01904678344727 3 C 41.94020080566406 3 36.04476928710938 4.18988037109375 30.49652099609375 6.536582946777344 C 25.13604736328125 8.803878784179688 20.32121276855469 12.05033874511719 16.18576812744141 16.18576812744141 C 12.05033874511719 20.32121276855469 8.803878784179688 25.13604736328125 6.536582946777344 30.49652099609375 C 4.18988037109375 36.04476928710938 3 41.94020080566406 3 48.01904678344727 C 3 54.09789276123047 4.18988037109375 59.99332427978516 6.536582946777344 65.54157257080078 C 8.803878784179688 70.90204620361328 12.05033874511719 75.71687316894531 16.18576812744141 79.85232543945312 C 20.32121276855469 83.98775482177734 25.13604736328125 87.23421478271484 30.49652099609375 89.50151062011719 C 36.04476928710938 91.84821319580078 41.94020080566406 93.03809356689453 48.01904678344727 93.03809356689453 C 54.09789276123047 93.03809356689453 59.99332427978516 91.84821319580078 65.54157257080078 89.50151062011719 C 70.90204620361328 87.23421478271484 75.71687316894531 83.98775482177734 79.85232543945312 79.85232543945312 C 83.98775482177734 75.71687316894531 87.23421478271484 70.90204620361328 89.50151062011719 65.54157257080078 C 91.84821319580078 59.99332427978516 93.03809356689453 54.09789276123047 93.03809356689453 48.01904678344727 C 93.03809356689453 41.94020080566406 91.84821319580078 36.04476928710938 89.50151062011719 30.49652099609375 C 87.23421478271484 25.13604736328125 83.98775482177734 20.32121276855469 79.85232543945312 16.18576812744141 C 75.71687316894531 12.05033874511719 70.90204620361328 8.803878784179688 65.54157257080078 6.536582946777344 C 59.99332427978516 4.18988037109375 54.09789276123047 3 48.01904678344727 3 M 48.01904678344727 0 C 74.53923034667969 0 96.03809356689453 21.49886322021484 96.03809356689453 48.01904678344727 C 96.03809356689453 74.53923034667969 74.53923034667969 96.03809356689453 48.01904678344727 96.03809356689453 C 21.49886322021484 96.03809356689453 0 74.53923034667969 0 48.01904678344727 C 0 21.49886322021484 21.49886322021484 0 48.01904678344727 0 Z" stroke="none" fill="#82e0e0"/>
        </g>
      </g>
    </g>
    <g id="lupa" transform="translate(348.389 2023.86)">
      <path id="Trazado_985802" data-name="Trazado 985802" d="M354.6,334.571l-3.491-3.493-7.438,8.078,3.436,3.438a31.448,31.448,0,0,0,7.493-8.023" transform="translate(-301.543 -290.057)" fill="#eaecf0"/>
      <path id="Trazado_985803" data-name="Trazado 985803" d="M386.121,366.5l-6.926-6.93A31.445,31.445,0,0,1,371.7,367.6l6.663,6.666a5.312,5.312,0,0,0,7.515,0l.241-.241A5.319,5.319,0,0,0,386.121,366.5Zm0,0" transform="translate(-326.141 -315.06)" fill="#bbb8c7"/>
      <path id="Trazado_985804" data-name="Trazado 985804" d="M17.587,18.112a25.939,25.939,0,1,0,36.624,0,26.041,26.041,0,0,0-36.624,0Zm0,0" transform="translate(-8.777 -8.776)" fill="#0082a0"/>
      <path id="Trazado_985805" data-name="Trazado 985805" d="M94.356,83.654a20.546,20.546,0,0,0-4.5-22.12,20.324,20.324,0,0,0-28.81,0,20.5,20.5,0,0,0-5.708,17.74" transform="translate(-48.331 -48.3)" fill="#eaecf0"/>
      <path id="Trazado_985806" data-name="Trazado 985806" d="M295.91,240.836v16.04a20.519,20.519,0,0,0,9.526-10.1Zm0,0" transform="translate(-259.639 -210.877)" fill="#49e298"/>
      <path id="Trazado_985807" data-name="Trazado 985807" d="M216.34,241.962v17.071q.3.01.605.01a20.213,20.213,0,0,0,9.148-2.167v-16.04Zm0,0" transform="translate(-189.823 -210.876)" fill="#f26a5b"/>
      <path id="Trazado_985808" data-name="Trazado 985808" d="M57.566,192.378a20.488,20.488,0,0,0,9.709,14.1V184.148Zm0,0" transform="translate(-50.511 -161.137)" fill="#5fccf5"/>
      <path id="Trazado_985809" data-name="Trazado 985809" d="M136.77,184.148v22.324a20.158,20.158,0,0,0,9.754,2.821V192.223Zm0,0" transform="translate(-120.006 -161.137)" fill="#ffd36c"/>
      <path id="Trazado_985810" data-name="Trazado 985810" d="M60.847,50.577,50.97,40.695A27.311,27.311,0,0,0,46.3,8.47,27.123,27.123,0,0,0,0,27.707,27.12,27.12,0,0,0,41.854,50.562l9.5,9.508a6.537,6.537,0,0,0,9.248,0l.241-.241a6.553,6.553,0,0,0,0-9.252ZM9.678,45.213a24.842,24.842,0,0,1,0-35.012,24.613,24.613,0,0,1,34.888,0,24.842,24.842,0,0,1,0,35.012,24.613,24.613,0,0,1-34.888,0ZM46.3,46.944a27.447,27.447,0,0,0,3.36-4.089l1.812,1.813A30.26,30.26,0,0,1,45.663,50.9l-1.792-1.793A27.555,27.555,0,0,0,46.3,46.944ZM59.113,58.1l-.241.241a4.086,4.086,0,0,1-5.781,0L47.4,52.648c.839-.689,1.648-1.423,2.416-2.193a32.672,32.672,0,0,0,3.412-4.027l5.879,5.882a4.1,4.1,0,0,1,0,5.786Zm0,0" transform="translate(0)"/>
      <path id="Trazado_985811" data-name="Trazado 985811" d="M86.584,75.611a1.241,1.241,0,0,0,.153-.275,21.734,21.734,0,0,0-4.767-23.441,21.549,21.549,0,0,0-30.546,0,21.82,21.82,0,0,0-6.049,18.8,1.221,1.221,0,0,0,.032.145,1.121,1.121,0,0,0,.016.137,21.714,21.714,0,0,0,10.29,14.94l0,0a21.5,21.5,0,0,0,10.341,2.991h0c.2.007.411.01.64.01a21.3,21.3,0,0,0,9.694-2.295l.006,0a21.741,21.741,0,0,0,10.1-10.7,1.24,1.24,0,0,0,.088-.305ZM53.16,53.626a19.1,19.1,0,0,1,27.074,0,19.281,19.281,0,0,1,4.534,19.981l-8.273-5.161-.007,0-.02-.012-.01-.006-.014-.008-.009,0-.023-.012-.01,0-.015-.007-.007,0-.026-.012-.008,0-.051-.022-.005,0-.054-.02h0a1.216,1.216,0,0,0-.315-.061h-.149l-.077.007-9.221,1.065L57.12,61.592h0l-.013-.011,0,0-.013-.01,0,0-.012-.009-.006,0-.011-.007-.008-.006-.01-.007-.009-.006-.008-.005-.011-.007,0,0-.014-.009,0,0-.016-.01h0a1.264,1.264,0,0,0-.177-.088h0l-.016-.006-.006,0-.013,0-.009,0-.009,0-.013,0,0,0a1.23,1.23,0,0,0-.611-.039h0l-.02,0h0l-.02,0h0l-.019,0h0l-.019.005h0l-.02.005h0a1.222,1.222,0,0,0-.244.1h0l-.017.009,0,0-.014.008-.007,0-.011.007-.008,0-.01.006-.011.007-.006,0-.013.009,0,0-.015.011h0a1.182,1.182,0,0,0-.094.073L47.584,68.35A19.353,19.353,0,0,1,53.16,53.626ZM47.969,71.239l7.144-6.056V82.554A19.467,19.467,0,0,1,53.16,80.84a19.1,19.1,0,0,1-5.192-9.6Zm9.6-6.1,7.3,6.045V86.379a19.033,19.033,0,0,1-7.3-2.229ZM67.318,71.7l7.3-.843V84.755a18.832,18.832,0,0,1-7.3,1.7ZM80.234,80.84a19.322,19.322,0,0,1-3.162,2.569V71.7l6.73,4.2A19.11,19.11,0,0,1,80.234,80.84Zm0,0" transform="translate(-39.575 -39.526)"/>
      <path id="Trazado_985812" data-name="Trazado 985812" d="M88.394,121.936a1.226,1.226,0,0,1-.793-2.161l4.812-4.079a1.226,1.226,0,0,1,1.574-.009l2.837,2.348a1.226,1.226,0,0,1-1.564,1.888l-2.045-1.694-4.029,3.415a1.22,1.22,0,0,1-.792.291Zm0,0" transform="translate(-76.484 -100.821)"/>
      <path id="Trazado_985813" data-name="Trazado 985813" d="M173.983,156.82a1.234,1.234,0,0,1-.468-.094,1.218,1.218,0,0,1-.4-.265,1.246,1.246,0,0,1-.152-.186,1.227,1.227,0,0,1-.182-.919,1.233,1.233,0,0,1,.182-.441,1.163,1.163,0,0,1,.152-.186,1.275,1.275,0,0,1,.186-.152,1.309,1.309,0,0,1,.212-.113,1.16,1.16,0,0,1,.229-.07,1.227,1.227,0,0,1,.48,0,1.16,1.16,0,0,1,.229.07,1.308,1.308,0,0,1,.212.113,1.2,1.2,0,0,1,.186.152,1.163,1.163,0,0,1,.152.186,1.232,1.232,0,0,1,.182.441,1.235,1.235,0,0,1-.182.919,1.2,1.2,0,0,1-.339.339,1.305,1.305,0,0,1-.212.113,1.234,1.234,0,0,1-.469.094Zm0,0" transform="translate(-151.583 -135.008)"/>
      <path id="Trazado_985814" data-name="Trazado 985814" d="M217.992,182.719a1.214,1.214,0,0,1-.647-.186l-5.172-3.226-8.906,1.029a1.225,1.225,0,0,1-.922-.273l-2.563-2.122a1.226,1.226,0,1,1,1.563-1.888l2.16,1.788,8.812-1.017a1.221,1.221,0,0,1,.79.178l5.535,3.453a1.226,1.226,0,0,1-.65,2.266Zm0,0" transform="translate(-174.905 -153.786)"/>
    </g>
  </g>
</svg>
