<svg xmlns="http://www.w3.org/2000/svg" xmlns:xlink="http://www.w3.org/1999/xlink" width="108" height="108" viewBox="0 0 108 108">
  <defs>
    <filter id="Trazado_982538" x="0" y="0" width="108" height="108" filterUnits="userSpaceOnUse">
      <feOffset dy="3" input="SourceAlpha"/>
      <feGaussianBlur stdDeviation="3" result="blur"/>
      <feFlood flood-opacity="0.161"/>
      <feComposite operator="in" in2="blur"/>
      <feComposite in="SourceGraphic"/>
    </filter>
  </defs>
  <g id="Grupo_1151565" data-name="Grupo 1151565" transform="translate(-201 -10290)">
    <g id="Grupo_1150893" data-name="Grupo 1150893" transform="translate(0 7321)">
      <g transform="matrix(1, 0, 0, 1, 201, 2969)" filter="url(#Trazado_982538)">
        <g id="Trazado_982538-2" data-name="Trazado 982538" transform="translate(9 6)" fill="#f3f3f3">
          <path d="M 45 88.5 C 39.12687683105469 88.5 33.43022537231445 87.35007476806641 28.06830024719238 85.08217620849609 C 22.88852500915527 82.89131164550781 18.23629951477051 79.75458526611328 14.2408504486084 75.75914764404297 C 10.24541282653809 71.76370239257812 7.108687400817871 67.11147308349609 4.917825222015381 61.93170166015625 C 2.649924993515015 56.56977462768555 1.5 50.87312316894531 1.5 45 C 1.5 39.12687683105469 2.649924993515015 33.43022537231445 4.917825222015381 28.06830024719238 C 7.108687400817871 22.88852500915527 10.24541282653809 18.23629951477051 14.2408504486084 14.2408504486084 C 18.23629951477051 10.24541282653809 22.88852500915527 7.108687400817871 28.06830024719238 4.917825222015381 C 33.43022537231445 2.649924993515015 39.12687683105469 1.5 45 1.5 C 50.87312316894531 1.5 56.56977462768555 2.649924993515015 61.93170166015625 4.917825222015381 C 67.11147308349609 7.108687400817871 71.76370239257812 10.24541282653809 75.75914764404297 14.2408504486084 C 79.75458526611328 18.23629951477051 82.89131164550781 22.88852500915527 85.08217620849609 28.06830024719238 C 87.35007476806641 33.43022537231445 88.5 39.12687683105469 88.5 45 C 88.5 50.87312316894531 87.35007476806641 56.56977462768555 85.08217620849609 61.93170166015625 C 82.89131164550781 67.11147308349609 79.75458526611328 71.76370239257812 75.75914764404297 75.75914764404297 C 71.76370239257812 79.75458526611328 67.11147308349609 82.89131164550781 61.93170166015625 85.08217620849609 C 56.56977462768555 87.35007476806641 50.87312316894531 88.5 45 88.5 Z" stroke="none"/>
          <path d="M 45 3 C 39.32871246337891 3 33.82865524291992 4.110054016113281 28.65262985229492 6.299339294433594 C 23.65165710449219 8.414573669433594 19.15968322753906 11.44334411621094 15.301513671875 15.301513671875 C 11.44334411621094 19.15968322753906 8.414573669433594 23.65165710449219 6.299339294433594 28.65262985229492 C 4.110054016113281 33.82865524291992 3 39.32871246337891 3 45 C 3 50.67128753662109 4.110054016113281 56.17134475708008 6.299339294433594 61.34737396240234 C 8.414573669433594 66.34834289550781 11.44334411621094 70.84031677246094 15.301513671875 74.698486328125 C 19.15968322753906 78.55665588378906 23.65165710449219 81.58542633056641 28.65262985229492 83.70066070556641 C 33.82865524291992 85.88994598388672 39.32871246337891 87 45 87 C 50.67128753662109 87 56.17134475708008 85.88994598388672 61.34737396240234 83.70066070556641 C 66.34834289550781 81.58542633056641 70.84031677246094 78.55665588378906 74.698486328125 74.698486328125 C 78.55665588378906 70.84031677246094 81.58542633056641 66.34834289550781 83.70066070556641 61.34737396240234 C 85.88994598388672 56.17134475708008 87 50.67128753662109 87 45 C 87 39.32871246337891 85.88994598388672 33.82865524291992 83.70066070556641 28.65262985229492 C 81.58542633056641 23.65165710449219 78.55665588378906 19.15968322753906 74.698486328125 15.301513671875 C 70.84031677246094 11.44334411621094 66.34834289550781 8.414573669433594 61.34737396240234 6.299339294433594 C 56.17134475708008 4.110054016113281 50.67128753662109 3 45 3 M 45 0 C 69.85281372070312 0 90 20.14718627929688 90 45 C 90 69.85281372070312 69.85281372070312 90 45 90 C 20.14718627929688 90 0 69.85281372070312 0 45 C 0 20.14718627929688 20.14718627929688 0 45 0 Z" stroke="none" fill="#fd7940"/>
        </g>
      </g>
    </g>
    <g id="colaborar" transform="translate(218.417 10296.691)">
      <g id="Grupo_1151564" data-name="Grupo 1151564" transform="translate(7.954 16.726)">
        <g id="Grupo_1151560" data-name="Grupo 1151560" transform="translate(7.067 10.308)">
          <path id="Trazado_986301" data-name="Trazado 986301" d="M115.389,110.188a1.978,1.978,0,1,1-1.978,1.978A1.979,1.979,0,0,1,115.389,110.188Zm-39.167,0a1.978,1.978,0,1,1-1.978,1.978A1.979,1.979,0,0,1,76.221,110.188Z" transform="translate(-74.243 -110.188)" fill="#8ac9fe" fill-rule="evenodd"/>
          <path id="Trazado_986302" data-name="Trazado 986302" d="M126.844,110.224a1.978,1.978,0,1,1,0,3.885,1.978,1.978,0,0,0,0-3.885Zm-39.168,0a1.978,1.978,0,1,1,0,3.885,1.978,1.978,0,0,0,0-3.885Z" transform="translate(-86.074 -110.188)" fill="#60b7ff" fill-rule="evenodd"/>
        </g>
        <g id="Grupo_1151561" data-name="Grupo 1151561" transform="translate(16.342 0)">
          <path id="Trazado_986303" data-name="Trazado 986303" d="M166.732,25.807A10.476,10.476,0,0,1,169.8,27.08l2-.885,2.351,2.351-.885,2a10.477,10.477,0,0,1,1.273,3.071l2.036.784v3.326l-2.036.784a10.484,10.484,0,0,1-1.273,3.069l.885,2L171.8,45.922l-2-.887a10.48,10.48,0,0,1-3.071,1.274l-.784,2.035h-3.326l-.784-2.036a10.481,10.481,0,0,1-3.069-1.273l-2,.887-2.352-2.352.887-1.994a10.51,10.51,0,0,1-1.274-3.071L152,37.721V34.4l2.035-.784a10.479,10.479,0,0,1,1.274-3.071l-.887-2,2.352-2.351,1.994.885a10.508,10.508,0,0,1,3.071-1.273l.784-2.036h3.326Z" transform="translate(-152 -23.771)" fill="#ffe177" fill-rule="evenodd"/>
          <path id="Trazado_986304" data-name="Trazado 986304" d="M204.182,26.492l.67-.3,2.351,2.351-.885,2a10.475,10.475,0,0,1,1.273,3.071l2.036.784v3.326l-2.036.784a10.482,10.482,0,0,1-1.273,3.069l.885,2-2.351,2.352-.67-.3,2.055-2.055-.887-2a10.479,10.479,0,0,0,1.273-3.069l2.036-.784V34.4l-2.036-.784a10.472,10.472,0,0,0-1.273-3.071l.887-2Zm-14.651,0,.3-.3,1.994.885c-.141.078-.28.16-.416.245Zm10.256-.685a10.476,10.476,0,0,1,3.071,1.273l-.55.245a13.7,13.7,0,0,0-3.489-1.518l-.784-2.036H199Zm-7.963,19.228-2,.887-.3-.3,1.875-.833Q191.61,44.918,191.824,45.035Zm11.034,0a10.48,10.48,0,0,1-3.071,1.274L199,48.344h-.968l.784-2.035a13.736,13.736,0,0,0,3.49-1.518Z" transform="translate(-185.054 -23.771)" fill="#ffd064" fill-rule="evenodd"/>
          <path id="Trazado_986305" data-name="Trazado 986305" d="M203.169,67.921a7.02,7.02,0,1,1-7.019,7.021A7.02,7.02,0,0,1,203.169,67.921Z" transform="translate(-190.883 -62.655)" fill="#eceff1" fill-rule="evenodd"/>
          <path id="Trazado_986306" data-name="Trazado 986306" d="M203.169,67.921c.16,0,.318.006.476.017a7.02,7.02,0,0,0,0,14.007c-.158.01-.317.016-.476.016a7.02,7.02,0,0,1,0-14.04Z" transform="translate(-190.883 -62.655)" fill="#d1d1d6" fill-rule="evenodd"/>
        </g>
        <g id="Grupo_1151562" data-name="Grupo 1151562" transform="translate(0 20.756)">
          <path id="Trazado_986307" data-name="Trazado 986307" d="M28.184,213.948H39.317a4.311,4.311,0,0,1,4.312,4.311v13.922H23.993V218.6a1.41,1.41,0,0,0-.5-1.073l-7.754-6.609a2.115,2.115,0,0,1-.743-1.61V200.4a2.63,2.63,0,0,1,2.63-2.63h0a2.63,2.63,0,0,1,2.63,2.63v6.48a2.115,2.115,0,0,0,.743,1.61l5.809,4.951A2.115,2.115,0,0,0,28.184,213.948Z" transform="translate(-15 -197.773)" fill="#ffe177" fill-rule="evenodd"/>
          <ellipse id="Elipse_11715" data-name="Elipse 11715" cx="5.074" cy="5.236" rx="5.074" ry="5.236" transform="translate(11.73 2.838)" fill="#f6dccd"/>
          <path id="Trazado_986308" data-name="Trazado 986308" d="M119,232a4.975,4.975,0,0,1-.6.036,5.239,5.239,0,0,1,0-10.472,4.95,4.95,0,0,1,.6.036,5.259,5.259,0,0,0,0,10.4Z" transform="translate(-101.604 -218.725)" fill="#f1cbbc" fill-rule="evenodd"/>
        </g>
        <g id="Grupo_1151563" data-name="Grupo 1151563" transform="translate(28.629 20.756)">
          <path id="Trazado_986309" data-name="Trazado 986309" d="M270.445,213.948H259.312A4.311,4.311,0,0,0,255,218.26v13.922h19.636V218.6a1.41,1.41,0,0,1,.5-1.073l7.754-6.609a2.115,2.115,0,0,0,.743-1.61V200.4a2.63,2.63,0,0,0-2.63-2.63h0a2.63,2.63,0,0,0-2.63,2.63v6.48a2.115,2.115,0,0,1-.743,1.61l-5.809,4.951A2.115,2.115,0,0,1,270.445,213.948Z" transform="translate(-255 -197.773)" fill="#8ac9fe" fill-rule="evenodd"/>
          <ellipse id="Elipse_11716" data-name="Elipse 11716" cx="5.074" cy="5.236" rx="5.074" ry="5.236" transform="translate(6.75 2.838)" fill="#f6dccd"/>
          <path id="Trazado_986310" data-name="Trazado 986310" d="M349.126,232a5.259,5.259,0,0,0,0-10.4,4.95,4.95,0,0,1,.6-.036,5.239,5.239,0,0,1,0,10.472A4.975,4.975,0,0,1,349.126,232Z" transform="translate(-337.898 -218.725)" fill="#f1cbbc" fill-rule="evenodd"/>
        </g>
      </g>
      <path id="Trazado_986311" data-name="Trazado 986311" d="M56.219,72.845H16.947a.954.954,0,0,1-.954-.954V58.311a.456.456,0,0,0-.16-.347L8.078,51.356A3.07,3.07,0,0,1,7,49.019V40.112a3.584,3.584,0,0,1,3.584-3.584h0a3.584,3.584,0,0,1,3.584,3.584v6.48a1.161,1.161,0,0,0,.408.883l5.809,4.951a1.161,1.161,0,0,0,.753.277H32.271a5.266,5.266,0,0,1,4.312,2.243A5.266,5.266,0,0,1,40.895,52.7H52.028a1.161,1.161,0,0,0,.753-.277l5.809-4.951A1.161,1.161,0,0,0,59,46.591v-6.48a3.584,3.584,0,0,1,3.584-3.584h0a3.584,3.584,0,0,1,3.584,3.584v8.908a3.069,3.069,0,0,1-1.078,2.336l-7.754,6.609a.456.456,0,0,0-.16.347v13.58a.954.954,0,0,1-.954.954ZM35.629,57.969a3.357,3.357,0,0,0-3.357-3.357H21.138a3.069,3.069,0,0,1-1.991-.733l-5.809-4.951a3.069,3.069,0,0,1-1.078-2.336v-6.48a1.675,1.675,0,0,0-1.675-1.675h0a1.675,1.675,0,0,0-1.675,1.675v8.908a1.161,1.161,0,0,0,.408.884l7.754,6.609a2.365,2.365,0,0,1,.831,1.8V70.937H30.369V59.5a.954.954,0,0,1,1.909,0V70.937h3.351ZM42.8,70.937H55.265V58.311a2.365,2.365,0,0,1,.831-1.8L63.85,49.9a1.161,1.161,0,0,0,.408-.884V40.112a1.675,1.675,0,0,0-1.675-1.675h0a1.675,1.675,0,0,0-1.675,1.675v6.48a3.069,3.069,0,0,1-1.078,2.336l-5.809,4.951a3.07,3.07,0,0,1-1.991.733H40.895a3.357,3.357,0,0,0-3.357,3.357V70.937h3.351V59.5a.954.954,0,1,1,1.909,0ZM19.773,29.967a2.932,2.932,0,1,1,0-1.909h3.57v-.706a.954.954,0,0,1,.612-.891l1.58-.608a11.484,11.484,0,0,1,1-2.417l-.688-1.548a.954.954,0,0,1,.2-1.063l2.35-2.35a.954.954,0,0,1,1.063-.2l1.548.688a11.407,11.407,0,0,1,2.415-1l.611-1.583a.954.954,0,0,1,.89-.611h3.324a.954.954,0,0,1,.891.612l.608,1.582a11.4,11.4,0,0,1,2.414,1l1.548-.688a.954.954,0,0,1,1.063.2l2.35,2.35a.954.954,0,0,1,.2,1.061l-.686,1.548a11.379,11.379,0,0,1,1,2.419l1.579.608a.954.954,0,0,1,.612.891v.706h3.57a2.932,2.932,0,1,1,0,1.909h-3.57v.71a.954.954,0,0,1-.612.891l-1.579.608a11.5,11.5,0,0,1-1,2.414l.686,1.55a.954.954,0,0,1-.2,1.061l-2.35,2.35a.954.954,0,0,1-1.061.2l-1.548-.686a11.373,11.373,0,0,1-2.416,1l-.608,1.579a.954.954,0,0,1-.891.612H34.923a.954.954,0,0,1-.891-.612l-.608-1.579a11.474,11.474,0,0,1-2.418-1l-1.55.686a.954.954,0,0,1-1.061-.2l-2.35-2.35a.954.954,0,0,1-.2-1.062l.688-1.547a11.479,11.479,0,0,1-1-2.415l-1.58-.608a.954.954,0,0,1-.612-.891v-.71ZM17,27.989a1.024,1.024,0,1,0,1.024,1.024A1.024,1.024,0,0,0,17,27.989Zm21.14-8.881-.548-1.427H35.577l-.551,1.428a.955.955,0,0,1-.67.585,9.5,9.5,0,0,0-2.79,1.156.954.954,0,0,1-.888.06l-1.4-.621-1.423,1.423.621,1.4a.954.954,0,0,1-.06.888,9.581,9.581,0,0,0-1.16,2.8.954.954,0,0,1-.585.668l-1.424.548v2.014l1.424.548a.954.954,0,0,1,.585.667,9.564,9.564,0,0,0,1.159,2.791.954.954,0,0,1,.06.89l-.621,1.4,1.424,1.424,1.4-.619a.954.954,0,0,1,.885.059,9.575,9.575,0,0,0,2.795,1.157.954.954,0,0,1,.671.586l.548,1.424h2.014l.548-1.424a.954.954,0,0,1,.67-.586A9.463,9.463,0,0,0,41.6,37.179a.954.954,0,0,1,.888-.061l1.4.619,1.424-1.424-.619-1.4a.955.955,0,0,1,.059-.885,9.586,9.586,0,0,0,1.157-2.792.954.954,0,0,1,.586-.67l1.424-.548V28.007l-1.424-.548a.954.954,0,0,1-.586-.671A9.483,9.483,0,0,0,44.749,24a.955.955,0,0,1-.06-.887l.619-1.4-1.424-1.424-1.4.621a.954.954,0,0,1-.888-.06,9.5,9.5,0,0,0-2.79-1.156.955.955,0,0,1-.67-.586ZM36.583,21.04a7.975,7.975,0,1,1-7.973,7.973,7.974,7.974,0,0,1,7.973-7.973Zm0,1.909a6.066,6.066,0,1,0,6.068,6.064,6.062,6.062,0,0,0-6.068-6.064ZM32.832,29.87a.954.954,0,0,1,1.35-1.35l1.153,1.153,3.688-3.346A.954.954,0,0,1,40.3,27.741L35.943,31.7a.954.954,0,0,1-1.316-.032Zm23.335-1.881a1.024,1.024,0,1,0,1.024,1.024A1.024,1.024,0,0,0,56.167,27.989ZM24.759,39.366a6.193,6.193,0,1,1-6.029,6.19A6.114,6.114,0,0,1,24.759,39.366Zm0,1.909a4.285,4.285,0,1,0,4.12,4.282A4.205,4.205,0,0,0,24.759,41.274Zm23.649-1.909a6.193,6.193,0,1,1-6.029,6.19A6.114,6.114,0,0,1,48.407,39.366Zm0,1.909a4.285,4.285,0,1,0,4.12,4.282A4.2,4.2,0,0,0,48.407,41.274Z" transform="translate(0 0)" fill-rule="evenodd"/>
    </g>
  </g>
</svg>
