<svg xmlns="http://www.w3.org/2000/svg" xmlns:xlink="http://www.w3.org/1999/xlink" width="114.038" height="114.038" viewBox="0 0 114.038 114.038">
  <defs>
    <filter id="Trazado_982550" x="0" y="0" width="114.038" height="114.038" filterUnits="userSpaceOnUse">
      <feOffset dy="3" input="SourceAlpha"/>
      <feGaussianBlur stdDeviation="3" result="blur"/>
      <feFlood flood-opacity="0.161"/>
      <feComposite operator="in" in2="blur"/>
      <feComposite in="SourceGraphic"/>
    </filter>
  </defs>
  <g id="Grupo_1151070" data-name="Grupo 1151070" transform="translate(-743 -2001.341)">
    <g id="Grupo_1150764" data-name="Grupo 1150764" transform="translate(542 396.341)">
      <g transform="matrix(1, 0, 0, 1, 201, 1605)" filter="url(#Trazado_982550)">
        <g id="Trazado_982550-2" data-name="Trazado 982550" transform="translate(9 6)" fill="#f3f3f3">
          <path d="M 48.01904678344727 94.53810119628906 C 41.73835372924805 94.53810119628906 35.64632797241211 93.30835723876953 29.91219329833984 90.88301849365234 C 24.37292671203613 88.54010009765625 19.3978328704834 85.18569946289062 15.12511348724365 80.91297912597656 C 10.85240650177002 76.64027404785156 7.498006820678711 71.66517639160156 5.155086994171143 66.12590026855469 C 2.729753494262695 60.39176559448242 1.500006794929504 54.29973983764648 1.500006794929504 48.01904678344727 C 1.500006794929504 41.73835372924805 2.729753494262695 35.64632797241211 5.155086994171143 29.91219329833984 C 7.498006820678711 24.37292671203613 10.85240650177002 19.3978328704834 15.12511348724365 15.12511348724365 C 19.3978328704834 10.85240650177002 24.37292671203613 7.498006820678711 29.91219329833984 5.155086994171143 C 35.64632797241211 2.729753494262695 41.73835372924805 1.500006794929504 48.01904678344727 1.500006794929504 C 54.29973983764648 1.500006794929504 60.39176559448242 2.729753494262695 66.12590026855469 5.155086994171143 C 71.66517639160156 7.498006820678711 76.64027404785156 10.85240650177002 80.91297912597656 15.12511348724365 C 85.18569946289062 19.3978328704834 88.54010009765625 24.37292671203613 90.88301849365234 29.91219329833984 C 93.30835723876953 35.64632797241211 94.53810119628906 41.73835372924805 94.53810119628906 48.01904678344727 C 94.53810119628906 54.29973983764648 93.30835723876953 60.39176559448242 90.88301849365234 66.12590026855469 C 88.54010009765625 71.66517639160156 85.18569946289062 76.64027404785156 80.91297912597656 80.91297912597656 C 76.64027404785156 85.18569946289062 71.66517639160156 88.54010009765625 66.12590026855469 90.88301849365234 C 60.39176559448242 93.30835723876953 54.29973983764648 94.53810119628906 48.01904678344727 94.53810119628906 Z" stroke="none"/>
          <path d="M 48.01904678344727 3 C 41.94020080566406 3 36.04476928710938 4.18988037109375 30.49652099609375 6.536582946777344 C 25.13604736328125 8.803878784179688 20.32121276855469 12.05033874511719 16.18576812744141 16.18576812744141 C 12.05033874511719 20.32121276855469 8.803878784179688 25.13604736328125 6.536582946777344 30.49652099609375 C 4.18988037109375 36.04476928710938 3 41.94020080566406 3 48.01904678344727 C 3 54.09789276123047 4.18988037109375 59.99332427978516 6.536582946777344 65.54157257080078 C 8.803878784179688 70.90204620361328 12.05033874511719 75.71687316894531 16.18576812744141 79.85232543945312 C 20.32121276855469 83.98775482177734 25.13604736328125 87.23421478271484 30.49652099609375 89.50151062011719 C 36.04476928710938 91.84821319580078 41.94020080566406 93.03809356689453 48.01904678344727 93.03809356689453 C 54.09789276123047 93.03809356689453 59.99332427978516 91.84821319580078 65.54157257080078 89.50151062011719 C 70.90204620361328 87.23421478271484 75.71687316894531 83.98775482177734 79.85232543945312 79.85232543945312 C 83.98775482177734 75.71687316894531 87.23421478271484 70.90204620361328 89.50151062011719 65.54157257080078 C 91.84821319580078 59.99332427978516 93.03809356689453 54.09789276123047 93.03809356689453 48.01904678344727 C 93.03809356689453 41.94020080566406 91.84821319580078 36.04476928710938 89.50151062011719 30.49652099609375 C 87.23421478271484 25.13604736328125 83.98775482177734 20.32121276855469 79.85232543945312 16.18576812744141 C 75.71687316894531 12.05033874511719 70.90204620361328 8.803878784179688 65.54157257080078 6.536582946777344 C 59.99332427978516 4.18988037109375 54.09789276123047 3 48.01904678344727 3 M 48.01904678344727 0 C 74.53923034667969 0 96.03809356689453 21.49886322021484 96.03809356689453 48.01904678344727 C 96.03809356689453 74.53923034667969 74.53923034667969 96.03809356689453 48.01904678344727 96.03809356689453 C 21.49886322021484 96.03809356689453 0 74.53923034667969 0 48.01904678344727 C 0 21.49886322021484 21.49886322021484 0 48.01904678344727 0 Z" stroke="none" fill="#82e0e0"/>
        </g>
      </g>
    </g>
    <g id="objetivo" transform="translate(767.65 2022.844)">
      <g id="Grupo_1151069" data-name="Grupo 1151069" transform="translate(1.025 1.193)">
        <circle id="Elipse_11682" data-name="Elipse 11682" cx="28.712" cy="28.712" r="28.712" transform="translate(0 5.222)" fill="#f07281"/>
        <path id="Trazado_985815" data-name="Trazado 985815" d="M38.873,106.926q-1.017.072-2.051.072a28.712,28.712,0,1,1,0-57.423q1.034,0,2.051.072a28.713,28.713,0,0,0,0,57.279Z" transform="translate(-8.11 -44.353)" fill="#eb5569"/>
        <circle id="Elipse_11683" data-name="Elipse 11683" cx="22.559" cy="22.559" r="22.559" transform="translate(6.153 11.374)" fill="#f5f8f9"/>
        <path id="Trazado_985816" data-name="Trazado 985816" d="M81.378,143.261q-1.013.09-2.051.092a22.559,22.559,0,1,1,0-45.118q1.038,0,2.051.092a22.561,22.561,0,0,0,0,44.935Z" transform="translate(-50.616 -86.86)" fill="#e8edf2"/>
        <circle id="Elipse_11684" data-name="Elipse 11684" cx="17.09" cy="17.09" r="17.09" transform="translate(11.621 16.843)" fill="#8ac9fe"/>
        <path id="Trazado_985817" data-name="Trazado 985817" d="M119.161,175.543a16.922,16.922,0,0,1-2.051.123,17.09,17.09,0,1,1,0-34.181,16.925,16.925,0,0,1,2.051.123,17.091,17.091,0,0,0,0,33.935Z" transform="translate(-88.399 -124.642)" fill="#60b7ff"/>
        <circle id="Elipse_11685" data-name="Elipse 11685" cx="10.938" cy="10.938" r="10.938" transform="translate(17.774 22.996)" fill="#f5f8f9"/>
        <path id="Trazado_985818" data-name="Trazado 985818" d="M161.668,211.826a10.792,10.792,0,0,1-2.051.194,10.938,10.938,0,1,1,0-21.876,10.793,10.793,0,0,1,2.051.194,10.938,10.938,0,0,0,0,21.488Z" transform="translate(-130.905 -167.148)" fill="#e8edf2"/>
        <g id="Grupo_1151068" data-name="Grupo 1151068" transform="translate(23.243 28.465)">
          <circle id="Elipse_11686" data-name="Elipse 11686" cx="5.469" cy="5.469" r="5.469" fill="#fee97d"/>
        </g>
        <path id="Trazado_985819" data-name="Trazado 985819" d="M199.452,243.937a5.469,5.469,0,1,1,0-10.139,5.469,5.469,0,0,0,0,10.139Z" transform="translate(-168.689 -204.933)" fill="#fee45a"/>
        <path id="Trazado_985820" data-name="Trazado 985820" d="M407.451,8.276l-5.925,5.606v7.2h7.429l5.515-6.016-5.7-1.231Z" transform="translate(-351.782 -8.276)" fill="#918291"/>
        <path id="Trazado_985821" data-name="Trazado 985821" d="M407.451,8.276l-5.925,5.606v7.2l7.246-7.246Z" transform="translate(-351.782 -8.276)" fill="#7a6d79"/>
      </g>
      <path id="Trazado_985822" data-name="Trazado 985822" d="M58.961,14.595l5.528-6.031A.948.948,0,0,0,63.99,7l-3.932-.849,3.58-3.58A.948.948,0,0,0,62.3,1.226L58.627,4.9l-.95-4A.948.948,0,0,0,56.1.427L50.163,6.047a.949.949,0,0,0-.3.689v6.524a29.712,29.712,0,0,0-6.8-4.7.948.948,0,0,0-.851,1.695,27.83,27.83,0,0,1,6.515,4.543l-3.03,3.03a23.524,23.524,0,0,0-32.244.284.948.948,0,0,0,1.31,1.371,21.628,21.628,0,0,1,29.592-.314L41.821,21.7a18.106,18.106,0,1,0,1.341,1.341L45.7,20.506a21.5,21.5,0,0,1,5.7,14.627A21.665,21.665,0,0,1,27.632,56.7,21.673,21.673,0,0,1,8.907,29.145c.142-.5.31-1.009.5-1.514a21.6,21.6,0,0,1,2.149-4.274.948.948,0,1,0-1.59-1.034,23.5,23.5,0,0,0-2.337,4.65c-.2.551-.387,1.106-.542,1.65A23.585,23.585,0,0,0,27.448,58.586c.747.073,1.514.111,2.282.111.679,0,1.361-.029,2.025-.087A23.55,23.55,0,0,0,47.041,19.164l3.03-3.03a27.833,27.833,0,1,1-48.174,19A27.756,27.756,0,0,1,9.213,16.324a27.875,27.875,0,0,1,29-7.706A.948.948,0,1,0,38.8,6.811,29.763,29.763,0,0,0,2.842,22.433,29.736,29.736,0,0,0,29.73,64.863,29.729,29.729,0,0,0,51.515,14.9h6.747a.948.948,0,0,0,.7-.308ZM56.212,2.935l.84,3.536L51.763,11.76V7.144Zm-10.3,32.2a16.2,16.2,0,1,1-5.436-12.089l-3.024,3.024a11.907,11.907,0,0,0-19.636,9.064,11.952,11.952,0,0,0,9.534,11.676.948.948,0,0,0,.378-1.859,10.018,10.018,0,0,1,2-19.834,9.929,9.929,0,0,1,6.377,2.3l-2.552,2.552A6.439,6.439,0,1,0,34.9,31.308l2.552-2.552a10.01,10.01,0,0,1-5.941,16.235.948.948,0,1,0,.335,1.867A11.908,11.908,0,0,0,38.795,27.41l3.025-3.025a16.119,16.119,0,0,1,4.1,10.748Zm-11.65,0a4.541,4.541,0,1,1-2.071-3.8L29.06,34.463A.948.948,0,1,0,30.4,35.8l3.133-3.133a4.507,4.507,0,0,1,.73,2.463ZM53.2,13.006l5.263-5.263,3.511.758-4.129,4.5Z" transform="translate(0 0)"/>
    </g>
  </g>
</svg>
