<svg xmlns="http://www.w3.org/2000/svg" xmlns:xlink="http://www.w3.org/1999/xlink" width="114.038" height="114.038" viewBox="0 0 114.038 114.038">
  <defs>
    <filter id="Trazado_982550" x="0" y="0" width="114.038" height="114.038" filterUnits="userSpaceOnUse">
      <feOffset dy="3" input="SourceAlpha"/>
      <feGaussianBlur stdDeviation="3" result="blur"/>
      <feFlood flood-opacity="0.161"/>
      <feComposite operator="in" in2="blur"/>
      <feComposite in="SourceGraphic"/>
    </filter>
  </defs>
  <g id="Grupo_1151071" data-name="Grupo 1151071" transform="translate(-1162.981 -2001.341)">
    <g id="Grupo_1150765" data-name="Grupo 1150765" transform="translate(961.981 396.341)">
      <g transform="matrix(1, 0, 0, 1, 201, 1605)" filter="url(#Trazado_982550)">
        <g id="Trazado_982550-2" data-name="Trazado 982550" transform="translate(9 6)" fill="#f3f3f3">
          <path d="M 48.01904678344727 94.53810119628906 C 41.73835372924805 94.53810119628906 35.64632797241211 93.30835723876953 29.91219329833984 90.88301849365234 C 24.37292671203613 88.54010009765625 19.3978328704834 85.18569946289062 15.12511348724365 80.91297912597656 C 10.85240650177002 76.64027404785156 7.498006820678711 71.66517639160156 5.155086994171143 66.12590026855469 C 2.729753494262695 60.39176559448242 1.500006794929504 54.29973983764648 1.500006794929504 48.01904678344727 C 1.500006794929504 41.73835372924805 2.729753494262695 35.64632797241211 5.155086994171143 29.91219329833984 C 7.498006820678711 24.37292671203613 10.85240650177002 19.3978328704834 15.12511348724365 15.12511348724365 C 19.3978328704834 10.85240650177002 24.37292671203613 7.498006820678711 29.91219329833984 5.155086994171143 C 35.64632797241211 2.729753494262695 41.73835372924805 1.500006794929504 48.01904678344727 1.500006794929504 C 54.29973983764648 1.500006794929504 60.39176559448242 2.729753494262695 66.12590026855469 5.155086994171143 C 71.66517639160156 7.498006820678711 76.64027404785156 10.85240650177002 80.91297912597656 15.12511348724365 C 85.18569946289062 19.3978328704834 88.54010009765625 24.37292671203613 90.88301849365234 29.91219329833984 C 93.30835723876953 35.64632797241211 94.53810119628906 41.73835372924805 94.53810119628906 48.01904678344727 C 94.53810119628906 54.29973983764648 93.30835723876953 60.39176559448242 90.88301849365234 66.12590026855469 C 88.54010009765625 71.66517639160156 85.18569946289062 76.64027404785156 80.91297912597656 80.91297912597656 C 76.64027404785156 85.18569946289062 71.66517639160156 88.54010009765625 66.12590026855469 90.88301849365234 C 60.39176559448242 93.30835723876953 54.29973983764648 94.53810119628906 48.01904678344727 94.53810119628906 Z" stroke="none"/>
          <path d="M 48.01904678344727 3 C 41.94020080566406 3 36.04476928710938 4.18988037109375 30.49652099609375 6.536582946777344 C 25.13604736328125 8.803878784179688 20.32121276855469 12.05033874511719 16.18576812744141 16.18576812744141 C 12.05033874511719 20.32121276855469 8.803878784179688 25.13604736328125 6.536582946777344 30.49652099609375 C 4.18988037109375 36.04476928710938 3 41.94020080566406 3 48.01904678344727 C 3 54.09789276123047 4.18988037109375 59.99332427978516 6.536582946777344 65.54157257080078 C 8.803878784179688 70.90204620361328 12.05033874511719 75.71687316894531 16.18576812744141 79.85232543945312 C 20.32121276855469 83.98775482177734 25.13604736328125 87.23421478271484 30.49652099609375 89.50151062011719 C 36.04476928710938 91.84821319580078 41.94020080566406 93.03809356689453 48.01904678344727 93.03809356689453 C 54.09789276123047 93.03809356689453 59.99332427978516 91.84821319580078 65.54157257080078 89.50151062011719 C 70.90204620361328 87.23421478271484 75.71687316894531 83.98775482177734 79.85232543945312 79.85232543945312 C 83.98775482177734 75.71687316894531 87.23421478271484 70.90204620361328 89.50151062011719 65.54157257080078 C 91.84821319580078 59.99332427978516 93.03809356689453 54.09789276123047 93.03809356689453 48.01904678344727 C 93.03809356689453 41.94020080566406 91.84821319580078 36.04476928710938 89.50151062011719 30.49652099609375 C 87.23421478271484 25.13604736328125 83.98775482177734 20.32121276855469 79.85232543945312 16.18576812744141 C 75.71687316894531 12.05033874511719 70.90204620361328 8.803878784179688 65.54157257080078 6.536582946777344 C 59.99332427978516 4.18988037109375 54.09789276123047 3 48.01904678344727 3 M 48.01904678344727 0 C 74.53923034667969 0 96.03809356689453 21.49886322021484 96.03809356689453 48.01904678344727 C 96.03809356689453 74.53923034667969 74.53923034667969 96.03809356689453 48.01904678344727 96.03809356689453 C 21.49886322021484 96.03809356689453 0 74.53923034667969 0 48.01904678344727 C 0 21.49886322021484 21.49886322021484 0 48.01904678344727 0 Z" stroke="none" fill="#82e0e0"/>
        </g>
      </g>
    </g>
    <g id="Filled_outline" transform="translate(1183.803 2018.729)">
      <path id="Trazado_985823" data-name="Trazado 985823" d="M31.571,68.39l-1.035-4.983a2.946,2.946,0,0,0-2.884-2.347H21.238a7.209,7.209,0,0,1-7.1-5.962l-1.491-8.49L8.6,44.727a2.433,2.433,0,0,1-1.013-3.533l5.062-7.779V29.593A25.045,25.045,0,0,1,37.691,4.548h1.716A25.479,25.479,0,0,1,61.174,43.273l-4.821,7.922A13.247,13.247,0,0,0,54.7,60.778l1.581,7.612Z" transform="translate(0.163 0.163)" fill="#ffc588"/>
      <path id="Trazado_985824" data-name="Trazado 985824" d="M48.533,20.249a1.057,1.057,0,0,0-1.041-.936h-2.5a8.042,8.042,0,0,0-.866-2.085l1.766-1.766a1.058,1.058,0,0,0,.076-1.4,12.28,12.28,0,0,0-2.323-2.323,1.058,1.058,0,0,0-1.4.076l-1.766,1.766a8.042,8.042,0,0,0-2.085-.866v-2.5a1.057,1.057,0,0,0-.936-1.041,12.886,12.886,0,0,0-3.278,0,1.057,1.057,0,0,0-.936,1.041v2.5a9.171,9.171,0,0,0-2.085.855l-1.76-1.76a1.056,1.056,0,0,0-1.4-.072,12.922,12.922,0,0,0-2.316,2.316,1.056,1.056,0,0,0,.072,1.4l1.76,1.76a8.317,8.317,0,0,0-.866,2.1h-2.5a1.057,1.057,0,0,0-1.041.936,12.877,12.877,0,0,0,0,3.277,1.057,1.057,0,0,0,1.041.936h2.5a8.7,8.7,0,0,0,.866,2.085l-1.766,1.766a1.059,1.059,0,0,0-.076,1.4A12.466,12.466,0,0,0,28,32.04a1.058,1.058,0,0,0,1.4-.073L31.167,30.2a9.247,9.247,0,0,0,2.085.855v2.5a1.057,1.057,0,0,0,.936,1.041,12.886,12.886,0,0,0,3.278,0,1.057,1.057,0,0,0,.936-1.041v-2.5a8.042,8.042,0,0,0,2.085-.866l1.766,1.766a1.059,1.059,0,0,0,1.4.076,12.46,12.46,0,0,0,2.33-2.324,1.058,1.058,0,0,0-.073-1.4l-1.763-1.764A9.247,9.247,0,0,0,45,24.462h2.5a1.057,1.057,0,0,0,1.041-.936,12.737,12.737,0,0,0,0-3.277ZM35.824,24.8a2.907,2.907,0,1,1,2.907-2.907A2.907,2.907,0,0,1,35.824,24.8Z" transform="translate(2.739 0.9)" fill="#44ccdf"/>
      <path id="Trazado_985825" data-name="Trazado 985825" d="M62.331,44.039A26.642,26.642,0,0,0,39.57,3.548H37.854A26.238,26.238,0,0,0,11.646,29.756v3.477l-4.874,7.49a3.594,3.594,0,0,0,1.5,5.22l3.5,1.628,1.386,7.892A8.358,8.358,0,0,0,21.4,62.385h6.415a1.79,1.79,0,0,1,1.745,1.42L30.6,68.788a1.163,1.163,0,0,0,1.138.927H56.445a1.162,1.162,0,0,0,1.138-1.4L56,60.7a12.049,12.049,0,0,1,1.509-8.743Zm-6.808,6.715a14.366,14.366,0,0,0-1.8,10.423l1.291,6.214H32.681l-.843-4.056a4.123,4.123,0,0,0-4.022-3.272H21.4a6.038,6.038,0,0,1-5.955-5l-1.491-8.49a1.161,1.161,0,0,0-.655-.852L9.25,43.836a1.267,1.267,0,0,1-.528-1.842l5.063-7.778a1.175,1.175,0,0,0,.188-.635V29.76A23.91,23.91,0,0,1,37.856,5.877h1.716A24.317,24.317,0,0,1,60.346,42.834ZM25.477,32.842a1.162,1.162,0,0,1-.2,1.631,6.737,6.737,0,0,1-8.057,0,1.163,1.163,0,1,1,1.428-1.835,4.537,4.537,0,0,0,5.2,0A1.164,1.164,0,0,1,25.477,32.842ZM51.112,19.05H48.588q-.133-.356-.294-.7l1.783-1.781a1.163,1.163,0,0,0,.155-1.453,13.546,13.546,0,0,0-3.988-3.99,1.163,1.163,0,0,0-1.453.155l-1.783,1.781q-.349-.162-.7-.294V10.239A1.165,1.165,0,0,0,41.381,9.1a14.007,14.007,0,0,0-5.633,0,1.164,1.164,0,0,0-.921,1.138V12.77q-.351.129-.7.286l-1.793-1.793a1.159,1.159,0,0,0-1.463-.148A14.179,14.179,0,0,0,26.9,15.086a1.165,1.165,0,0,0,.148,1.464l1.785,1.785q-.166.356-.3.715H26.014a1.162,1.162,0,0,0-1.137.921,13.847,13.847,0,0,0,0,5.634,1.162,1.162,0,0,0,1.137.922h2.533q.133.356.291.7l-1.786,1.786a1.163,1.163,0,0,0-.155,1.453,13.572,13.572,0,0,0,3.981,4,1.157,1.157,0,0,0,1.459-.15l1.793-1.792q.344.155.7.285v2.531a1.165,1.165,0,0,0,.921,1.138,13.842,13.842,0,0,0,5.633,0,1.164,1.164,0,0,0,.921-1.138V32.814c.237-.087.473-.185.7-.294L44.788,34.3a1.162,1.162,0,0,0,1.453.155,13.563,13.563,0,0,0,4-3.983,1.162,1.162,0,0,0-.15-1.459L48.295,27.22c.1-.228.2-.46.286-.694h2.531a1.162,1.162,0,0,0,1.137-.922,13.847,13.847,0,0,0,0-5.634A1.162,1.162,0,0,0,51.112,19.05ZM50.127,24.2h-2.4a1.164,1.164,0,0,0-1.122.858,7.992,7.992,0,0,1-.748,1.822,1.161,1.161,0,0,0,.194,1.388l1.691,1.691a11.21,11.21,0,0,1-2.008,2l-1.7-1.694a1.16,1.16,0,0,0-1.412-.179,6.883,6.883,0,0,1-1.783.743,1.162,1.162,0,0,0-.876,1.127v2.4a11.71,11.71,0,0,1-2.824,0v-2.4a1.164,1.164,0,0,0-.858-1.122,7.965,7.965,0,0,1-1.823-.749,1.164,1.164,0,0,0-1.388.193l-1.692,1.691a11.21,11.21,0,0,1-2-2.008L31.08,28.27a1.161,1.161,0,0,0,.185-1.4,7.54,7.54,0,0,1-.751-1.809,1.162,1.162,0,0,0-1.122-.858H27a11.8,11.8,0,0,1,0-2.826h2.4a1.163,1.163,0,0,0,1.127-.877,7.141,7.141,0,0,1,.748-1.8,1.161,1.161,0,0,0-.186-1.4L29.392,15.6a11.822,11.822,0,0,1,2-2l1.687,1.687a1.164,1.164,0,0,0,1.388.193,8.063,8.063,0,0,1,1.823-.748,1.162,1.162,0,0,0,.858-1.122v-2.4a11.71,11.71,0,0,1,2.824,0v2.4a1.164,1.164,0,0,0,.876,1.127,6.893,6.893,0,0,1,1.783.742,1.161,1.161,0,0,0,1.412-.179l1.694-1.693a11.216,11.216,0,0,1,2,2L46.041,17.3a1.163,1.163,0,0,0-.18,1.412A6.876,6.876,0,0,1,46.6,20.5a1.164,1.164,0,0,0,1.127.877h2.4a11.76,11.76,0,0,1,.085,1.413,11.559,11.559,0,0,1-.084,1.414ZM38.562,18.718a4.07,4.07,0,1,0,4.07,4.071A4.074,4.074,0,0,0,38.562,18.718Zm0,5.815a1.745,1.745,0,1,1,1.744-1.744A1.746,1.746,0,0,1,38.562,24.533Z" transform="translate(0 0)"/>
    </g>
  </g>
</svg>
