<svg xmlns="http://www.w3.org/2000/svg" xmlns:xlink="http://www.w3.org/1999/xlink" width="108" height="108" viewBox="0 0 108 108">
  <defs>
    <filter id="Trazado_982548" x="0" y="0" width="108" height="108" filterUnits="userSpaceOnUse">
      <feOffset dy="3" input="SourceAlpha"/>
      <feGaussianBlur stdDeviation="3" result="blur"/>
      <feFlood flood-opacity="0.161"/>
      <feComposite operator="in" in2="blur"/>
      <feComposite in="SourceGraphic"/>
    </filter>
  </defs>
  <g id="Grupo_1151066" data-name="Grupo 1151066" transform="translate(-192 -536)">
    <g id="Grupo_1149912" data-name="Grupo 1149912" transform="translate(-9 -4313)">
      <g transform="matrix(1, 0, 0, 1, 201, 4849)" filter="url(#Trazado_982548)">
        <g id="Trazado_982548-2" data-name="Trazado 982548" transform="translate(9 6)" fill="#eaf2fb">
          <path d="M 45 88.5 C 39.12687683105469 88.5 33.43022537231445 87.35007476806641 28.06830024719238 85.08217620849609 C 22.88852500915527 82.89131164550781 18.23629951477051 79.75458526611328 14.2408504486084 75.75914764404297 C 10.24541282653809 71.76370239257812 7.108687400817871 67.11147308349609 4.917825222015381 61.93170166015625 C 2.649924993515015 56.56977462768555 1.5 50.87312316894531 1.5 45 C 1.5 39.12687683105469 2.649924993515015 33.43022537231445 4.917825222015381 28.06830024719238 C 7.108687400817871 22.88852500915527 10.24541282653809 18.23629951477051 14.2408504486084 14.2408504486084 C 18.23629951477051 10.24541282653809 22.88852500915527 7.108687400817871 28.06830024719238 4.917825222015381 C 33.43022537231445 2.649924993515015 39.12687683105469 1.5 45 1.5 C 50.87312316894531 1.5 56.56977462768555 2.649924993515015 61.93170166015625 4.917825222015381 C 67.11147308349609 7.108687400817871 71.76370239257812 10.24541282653809 75.75914764404297 14.2408504486084 C 79.75458526611328 18.23629951477051 82.89131164550781 22.88852500915527 85.08217620849609 28.06830024719238 C 87.35007476806641 33.43022537231445 88.5 39.12687683105469 88.5 45 C 88.5 50.87312316894531 87.35007476806641 56.56977462768555 85.08217620849609 61.93170166015625 C 82.89131164550781 67.11147308349609 79.75458526611328 71.76370239257812 75.75914764404297 75.75914764404297 C 71.76370239257812 79.75458526611328 67.11147308349609 82.89131164550781 61.93170166015625 85.08217620849609 C 56.56977462768555 87.35007476806641 50.87312316894531 88.5 45 88.5 Z" stroke="none"/>
          <path d="M 45 3 C 39.32871246337891 3 33.82865524291992 4.110054016113281 28.65262985229492 6.299339294433594 C 23.65165710449219 8.414573669433594 19.15968322753906 11.44334411621094 15.301513671875 15.301513671875 C 11.44334411621094 19.15968322753906 8.414573669433594 23.65165710449219 6.299339294433594 28.65262985229492 C 4.110054016113281 33.82865524291992 3 39.32871246337891 3 45 C 3 50.67128753662109 4.110054016113281 56.17134475708008 6.299339294433594 61.34737396240234 C 8.414573669433594 66.34834289550781 11.44334411621094 70.84031677246094 15.301513671875 74.698486328125 C 19.15968322753906 78.55665588378906 23.65165710449219 81.58542633056641 28.65262985229492 83.70066070556641 C 33.82865524291992 85.88994598388672 39.32871246337891 87 45 87 C 50.67128753662109 87 56.17134475708008 85.88994598388672 61.34737396240234 83.70066070556641 C 66.34834289550781 81.58542633056641 70.84031677246094 78.55665588378906 74.698486328125 74.698486328125 C 78.55665588378906 70.84031677246094 81.58542633056641 66.34834289550781 83.70066070556641 61.34737396240234 C 85.88994598388672 56.17134475708008 87 50.67128753662109 87 45 C 87 39.32871246337891 85.88994598388672 33.82865524291992 83.70066070556641 28.65262985229492 C 81.58542633056641 23.65165710449219 78.55665588378906 19.15968322753906 74.698486328125 15.301513671875 C 70.84031677246094 11.44334411621094 66.34834289550781 8.414573669433594 61.34737396240234 6.299339294433594 C 56.17134475708008 4.110054016113281 50.67128753662109 3 45 3 M 45 0 C 69.85281372070312 0 90 20.14718627929688 90 45 C 90 69.85281372070312 69.85281372070312 90 45 90 C 20.14718627929688 90 0 69.85281372070312 0 45 C 0 20.14718627929688 20.14718627929688 0 45 0 Z" stroke="none" fill="#3b89e1"/>
        </g>
      </g>
    </g>
    <g id="agil" transform="translate(212.887 553.531)">
      <g id="Grupo_1151064" data-name="Grupo 1151064" transform="translate(1.068 1.068)">
        <g id="Grupo_1151056" data-name="Grupo 1151056" transform="translate(25.636 46.998)">
          <path id="Trazado_985786" data-name="Trazado 985786" d="M31.409,45v8.545H25.128A2.021,2.021,0,0,1,25,52.83V45Z" transform="translate(-25 -45)" fill="#b4dd7f"/>
        </g>
        <g id="Grupo_1151057" data-name="Grupo 1151057" transform="translate(32.044 46.998)">
          <path id="Trazado_985787" data-name="Trazado 985787" d="M37.409,45v7.83a2.021,2.021,0,0,1-.128.716H31V45Z" transform="translate(-31 -45)" fill="#4fc1e9"/>
        </g>
        <g id="Grupo_1151058" data-name="Grupo 1151058" transform="translate(25.764 55.544)">
          <path id="Trazado_985788" data-name="Trazado 985788" d="M31.4,53h6.281a1.921,1.921,0,0,1-.3.566L31.4,61.545l-5.982-7.979a1.921,1.921,0,0,1-.3-.566Z" transform="translate(-25.12 -53)" fill="#ccd1d9"/>
        </g>
        <g id="Grupo_1151059" data-name="Grupo 1151059" transform="translate(25.636 42.726)">
          <path id="Trazado_985789" data-name="Trazado 985789" d="M37.818,41v4.273H25V41H37.818Z" transform="translate(-25 -41)" fill="#ccd1d9"/>
        </g>
        <g id="Grupo_1151060" data-name="Grupo 1151060" transform="translate(14.954)">
          <path id="Trazado_985790" data-name="Trazado 985790" d="M48.882,20.536l-6.11-4.582,5.266-4.614-.021-.021A16.4,16.4,0,0,0,32.785,1H31.4A16.387,16.387,0,0,0,15,17.4c0,.235,0,.459.011.694a16.321,16.321,0,0,0,.694,4.059A16.529,16.529,0,0,0,17.756,26.5l5.255,7.872a3.322,3.322,0,0,1,.534,1.784v4.112a3.22,3.22,0,0,0,.94,2.264l1.2,1.2H38.5l1.2-1.2a3.22,3.22,0,0,0,.94-2.264V36.153a3.322,3.322,0,0,1,.534-1.784L46.425,26.5a16.557,16.557,0,0,0,2.457-5.96Z" transform="translate(-15 -1)" fill="#ffeaa7"/>
        </g>
        <g id="Grupo_1151061" data-name="Grupo 1151061" transform="translate(0 10.681)">
          <path id="Trazado_985791" data-name="Trazado 985791" d="M22.363,45.181l-8.545,7.477v-3.2A12.814,12.814,0,0,1,1,36.636V23.818A12.814,12.814,0,0,1,13.818,11h3.162a16.377,16.377,0,0,0-1.025,5.715c0,.235,0,.459.011.694H13.818a6.414,6.414,0,0,0-6.409,6.409V36.636a6.419,6.419,0,0,0,6.409,6.409V38.772Z" transform="translate(-1 -11)" fill="#ff826e"/>
        </g>
        <g id="Grupo_1151062" data-name="Grupo 1151062" transform="translate(21.363 6.409)">
          <path id="Trazado_985792" data-name="Trazado 985792" d="M42.363,15.545v4.273H42a2.135,2.135,0,0,0-1.517,3.642l.267.267L37.727,26.75l-.267-.267A2.135,2.135,0,0,0,33.818,28v.363H29.545V28A2.135,2.135,0,0,0,25.9,26.483l-.267.267-3.023-3.023.267-.267a2.135,2.135,0,0,0-1.517-3.642H21V15.545h.363A2.135,2.135,0,0,0,22.88,11.9l-.267-.267,3.023-3.023.267.267a2.135,2.135,0,0,0,3.642-1.517V7h4.273v.363A2.135,2.135,0,0,0,37.46,8.88l.267-.267,3.023,3.023-.267.267A2.135,2.135,0,0,0,42,15.545Zm-6.409,2.136a4.273,4.273,0,1,0-4.273,4.273A4.271,4.271,0,0,0,35.954,17.681Z" transform="translate(-21 -7)" fill="#fcd770"/>
        </g>
        <g id="Grupo_1151063" data-name="Grupo 1151063" transform="translate(41.658 7.477)">
          <path id="Trazado_985793" data-name="Trazado 985793" d="M62.431,24.022V36.84A12.814,12.814,0,0,1,49.613,49.658H40V43.249h9.613a6.414,6.414,0,0,0,6.409-6.409V24.022a6.419,6.419,0,0,0-6.409-6.409v4.273l-2.435-1.827-6.11-4.582,5.266-4.614L49.613,8v3.2A12.814,12.814,0,0,1,62.431,24.022Z" transform="translate(-40 -8)" fill="#ff826e"/>
        </g>
      </g>
      <g id="Grupo_1151065" data-name="Grupo 1151065">
        <path id="Trazado_985794" data-name="Trazado 985794" d="M31.341,12a5.341,5.341,0,1,0,5.341,5.341A5.347,5.347,0,0,0,31.341,12Zm0,8.545a3.2,3.2,0,1,1,3.2-3.2A3.208,3.208,0,0,1,31.341,20.545Z" transform="translate(1.772 0.818)"/>
        <path id="Trazado_985795" data-name="Trazado 985795" d="M42,58h2.136v2.136H42Z" transform="translate(2.862 3.953)"/>
        <path id="Trazado_985796" data-name="Trazado 985796" d="M46,58h2.136v2.136H46Z" transform="translate(3.135 3.953)"/>
        <path id="Trazado_985797" data-name="Trazado 985797" d="M50,58h2.136v2.136H50Z" transform="translate(3.407 3.953)"/>
        <path id="Trazado_985798" data-name="Trazado 985798" d="M10,58h2.136v2.136H10Z" transform="translate(0.681 3.953)"/>
        <path id="Trazado_985799" data-name="Trazado 985799" d="M14,58h2.136v2.136H14Z" transform="translate(0.954 3.953)"/>
        <path id="Trazado_985800" data-name="Trazado 985800" d="M18,58h2.136v2.136H18Z" transform="translate(1.227 3.953)"/>
        <path id="Trazado_985801" data-name="Trazado 985801" d="M53.407,10.722V6.191L49.435,9.667A17.376,17.376,0,0,0,33.8,0H32.42A17.494,17.494,0,0,0,16.326,10.681h-2.44A13.9,13.9,0,0,0,0,24.567V37.385A13.9,13.9,0,0,0,12.818,51.23v4.531l11.308-9.9L12.818,37.385v5.233a5.349,5.349,0,0,1-4.273-5.233V24.567a5.347,5.347,0,0,1,5.341-5.341h1.167a17.4,17.4,0,0,0,2.834,7.928l5.253,7.879a2.13,2.13,0,0,1,.359,1.185V40.33a4.3,4.3,0,0,0,1.252,3.021l.884.885V55.9a3.219,3.219,0,0,0,.641,1.923l6.836,9.116,6.835-9.114A3.219,3.219,0,0,0,40.59,55.9V44.236l.884-.884a4.3,4.3,0,0,0,1.252-3.021V36.219a2.128,2.128,0,0,1,.359-1.185l5.253-7.879a17.358,17.358,0,0,0,2.212-4.73l2.857,2.142V19.335a5.35,5.35,0,0,1,4.273,5.233V37.385a5.347,5.347,0,0,1-5.341,5.341H42.726v2.136h9.613a7.486,7.486,0,0,0,7.477-7.477V24.567a7.485,7.485,0,0,0-7.477-7.477H51.271v3.2l-5.782-4.337L51.271,10.9v1.918h1.068a11.764,11.764,0,0,1,11.75,11.75V37.385a11.764,11.764,0,0,1-11.75,11.75H42.726v2.136h9.613A13.9,13.9,0,0,0,66.225,37.385V24.567A13.9,13.9,0,0,0,53.407,10.722Zm-47,13.845V37.385a7.486,7.486,0,0,0,7.477,7.477h1.068v-3.2l5.782,4.337-5.782,5.059V49.135H13.886a11.764,11.764,0,0,1-11.75-11.75V24.567a11.763,11.763,0,0,1,11.75-11.75H15.6a17.352,17.352,0,0,0-.628,4.273H13.886A7.485,7.485,0,0,0,6.409,24.567ZM38.453,44.862V47H27.772V44.862ZM28.84,57.68h8.545l-1.6,2.136H30.442Zm-1.068-2.136V49.135h4.273v6.409Zm6.409,0V49.135h4.273v6.409Zm-2.136,6.409h2.136l-1.068,1.424Zm8.673-37.8L39.1,25.764a3.213,3.213,0,0,0-4.848,2.008H31.97a3.213,3.213,0,0,0-4.848-2.008l-1.615-1.615A3.213,3.213,0,0,0,23.5,19.3V17.016a3.213,3.213,0,0,0,2.008-4.848l1.615-1.615a3.215,3.215,0,0,0,4.849-2.007h2.285A3.213,3.213,0,0,0,39.1,10.553l1.615,1.615a3.213,3.213,0,0,0,2.008,4.848V19.3a3.214,3.214,0,0,0-2.009,4.847Zm2.681-9.2a1.064,1.064,0,0,1-.726-1.818l1.015-1.015L39.155,7.584,38.14,8.6a1.068,1.068,0,0,1-1.823-.755V6.409H29.908V7.843a1.068,1.068,0,0,1-1.823.755L27.07,7.584l-4.532,4.532,1.015,1.015a1.068,1.068,0,0,1-.755,1.823H21.363v6.409H22.8a1.068,1.068,0,0,1,.755,1.823L22.538,24.2l4.532,4.532,1.015-1.015a1.068,1.068,0,0,1,1.823.755v1.435h6.409V28.474a1.068,1.068,0,0,1,1.823-.755l1.015,1.015L43.687,24.2l-1.015-1.015a1.068,1.068,0,0,1,.755-1.823h1.435v-3.2L48.7,21.034a15.246,15.246,0,0,1-2.135,4.937L41.307,33.85a4.255,4.255,0,0,0-.718,2.369v4.112a2.148,2.148,0,0,1-.626,1.51l-.884.884h-.626V33.365A2.781,2.781,0,0,1,40,30.864l-.956-1.911a4.906,4.906,0,0,0-2.726,4.411v9.361H34.181V32.044H32.044V42.726H29.908V33.365a4.9,4.9,0,0,0-2.727-4.411l-.956,1.911a2.78,2.78,0,0,1,1.547,2.5v9.361h-.626l-.884-.884a2.148,2.148,0,0,1-.626-1.51V36.219a4.258,4.258,0,0,0-.718-2.37L19.665,25.97A15.331,15.331,0,0,1,32.42,2.136H33.8a15.248,15.248,0,0,1,13.954,9Z"/>
      </g>
    </g>
  </g>
</svg>
