<svg xmlns="http://www.w3.org/2000/svg" xmlns:xlink="http://www.w3.org/1999/xlink" width="108" height="108" viewBox="0 0 108 108">
  <defs>
    <filter id="Trazado_982551" x="0" y="0" width="108" height="108" filterUnits="userSpaceOnUse">
      <feOffset dy="3" input="SourceAlpha"/>
      <feGaussianBlur stdDeviation="3" result="blur"/>
      <feFlood flood-opacity="0.161"/>
      <feComposite operator="in" in2="blur"/>
      <feComposite in="SourceGraphic"/>
    </filter>
  </defs>
  <g id="Grupo_1151604" data-name="Grupo 1151604" transform="translate(-1041 -3320)">
    <g id="Grupo_1150929" data-name="Grupo 1150929" transform="translate(210 1715)">
      <g transform="matrix(1, 0, 0, 1, 831, 1605)" filter="url(#Trazado_982551)">
        <g id="Trazado_982551-2" data-name="Trazado 982551" transform="translate(9 6)" fill="#f3f3f3">
          <path d="M 45 88.5 C 39.12687683105469 88.5 33.43022537231445 87.35007476806641 28.06830024719238 85.08217620849609 C 22.88852500915527 82.89131164550781 18.23629951477051 79.75458526611328 14.2408504486084 75.75914764404297 C 10.24541282653809 71.76370239257812 7.108687400817871 67.11147308349609 4.917825222015381 61.93170166015625 C 2.649924993515015 56.56977462768555 1.5 50.87312316894531 1.5 45 C 1.5 39.12687683105469 2.649924993515015 33.43022537231445 4.917825222015381 28.06830024719238 C 7.108687400817871 22.88852500915527 10.24541282653809 18.23629951477051 14.2408504486084 14.2408504486084 C 18.23629951477051 10.24541282653809 22.88852500915527 7.108687400817871 28.06830024719238 4.917825222015381 C 33.43022537231445 2.649924993515015 39.12687683105469 1.5 45 1.5 C 50.87312316894531 1.5 56.56977462768555 2.649924993515015 61.93170166015625 4.917825222015381 C 67.11147308349609 7.108687400817871 71.76370239257812 10.24541282653809 75.75914764404297 14.2408504486084 C 79.75458526611328 18.23629951477051 82.89131164550781 22.88852500915527 85.08217620849609 28.06830024719238 C 87.35007476806641 33.43022537231445 88.5 39.12687683105469 88.5 45 C 88.5 50.87312316894531 87.35007476806641 56.56977462768555 85.08217620849609 61.93170166015625 C 82.89131164550781 67.11147308349609 79.75458526611328 71.76370239257812 75.75914764404297 75.75914764404297 C 71.76370239257812 79.75458526611328 67.11147308349609 82.89131164550781 61.93170166015625 85.08217620849609 C 56.56977462768555 87.35007476806641 50.87312316894531 88.5 45 88.5 Z" stroke="none"/>
          <path d="M 45 3 C 39.32871246337891 3 33.82865524291992 4.110054016113281 28.65262985229492 6.299339294433594 C 23.65165710449219 8.414573669433594 19.15968322753906 11.44334411621094 15.301513671875 15.301513671875 C 11.44334411621094 19.15968322753906 8.414573669433594 23.65165710449219 6.299339294433594 28.65262985229492 C 4.110054016113281 33.82865524291992 3 39.32871246337891 3 45 C 3 50.67128753662109 4.110054016113281 56.17134475708008 6.299339294433594 61.34737396240234 C 8.414573669433594 66.34834289550781 11.44334411621094 70.84031677246094 15.301513671875 74.698486328125 C 19.15968322753906 78.55665588378906 23.65165710449219 81.58542633056641 28.65262985229492 83.70066070556641 C 33.82865524291992 85.88994598388672 39.32871246337891 87 45 87 C 50.67128753662109 87 56.17134475708008 85.88994598388672 61.34737396240234 83.70066070556641 C 66.34834289550781 81.58542633056641 70.84031677246094 78.55665588378906 74.698486328125 74.698486328125 C 78.55665588378906 70.84031677246094 81.58542633056641 66.34834289550781 83.70066070556641 61.34737396240234 C 85.88994598388672 56.17134475708008 87 50.67128753662109 87 45 C 87 39.32871246337891 85.88994598388672 33.82865524291992 83.70066070556641 28.65262985229492 C 81.58542633056641 23.65165710449219 78.55665588378906 19.15968322753906 74.698486328125 15.301513671875 C 70.84031677246094 11.44334411621094 66.34834289550781 8.414573669433594 61.34737396240234 6.299339294433594 C 56.17134475708008 4.110054016113281 50.67128753662109 3 45 3 M 45 0 C 69.85281372070312 0 90 20.14718627929688 90 45 C 90 69.85281372070312 69.85281372070312 90 45 90 C 20.14718627929688 90 0 69.85281372070312 0 45 C 0 20.14718627929688 20.14718627929688 0 45 0 Z" stroke="none" fill="#fd7940"/>
        </g>
      </g>
    </g>
    <g id="variable" transform="translate(1064.382 3338)">
      <g id="Grupo_1151602" data-name="Grupo 1151602">
        <g id="Grupo_1151596" data-name="Grupo 1151596">
          <path id="Trazado_986551" data-name="Trazado 986551" d="M42.618,33h-24a2.006,2.006,0,0,0-2,2V59a2.006,2.006,0,0,0,2,2h24a2.006,2.006,0,0,0,2-2V35A2.006,2.006,0,0,0,42.618,33Z" fill="#d3a06c"/>
        </g>
        <g id="Grupo_1151597" data-name="Grupo 1151597">
          <path id="Trazado_986552" data-name="Trazado 986552" d="M28.618,39h-4V33h12v6h-8Z" fill="#b27946"/>
        </g>
        <g id="Grupo_1151598" data-name="Grupo 1151598">
          <path id="Trazado_986553" data-name="Trazado 986553" d="M59.618,53l-3.55,7.11a1.626,1.626,0,0,1-2.9,0L49.618,53h3V25h4V53Z" fill="#ffeaa7"/>
        </g>
        <g id="Grupo_1151599" data-name="Grupo 1151599">
          <path id="Trazado_986554" data-name="Trazado 986554" d="M8.068,7.89,11.618,15h-3V43h-4V15h-3l3.55-7.11a1.626,1.626,0,0,1,2.9,0Z" fill="#ffeaa7"/>
        </g>
        <g id="Grupo_1151600" data-name="Grupo 1151600">
          <path id="Trazado_986555" data-name="Trazado 986555" d="M30.618,1a14,14,0,1,1-14,14A14,14,0,0,1,30.618,1Z" fill="#ffc729"/>
        </g>
        <g id="Grupo_1151601" data-name="Grupo 1151601">
          <circle id="Elipse_11718" data-name="Elipse 11718" cx="10" cy="10" r="10" transform="translate(20.618 5)" fill="#fcd770"/>
        </g>
      </g>
      <g id="Grupo_1151603" data-name="Grupo 1151603">
        <path id="Trazado_986556" data-name="Trazado 986556" d="M29.618,12h2a1,1,0,0,1,1,1h2a3,3,0,0,0-3-3V8h-2v2a3,3,0,1,0,0,6h2a1,1,0,0,1,0,2h-2a1,1,0,0,1-1-1h-2a3,3,0,0,0,3,3v2h2V20a3,3,0,0,0,0-6h-2a1,1,0,1,1,0-2Z"/>
        <path id="Trazado_986557" data-name="Trazado 986557" d="M30.618,0a15,15,0,1,0,15,15A15.017,15.017,0,0,0,30.618,0Zm0,24a9,9,0,1,1,9-9A9.01,9.01,0,0,1,30.618,24ZM37.652,6.552a10.943,10.943,0,0,0-6.034-2.5v-2a12.926,12.926,0,0,1,7.447,3.088Zm-8.034-2.5a10.954,10.954,0,0,0-6.034,2.5L22.171,5.139a12.929,12.929,0,0,1,7.447-3.088ZM22.17,7.966A10.954,10.954,0,0,0,19.669,14h-2a12.926,12.926,0,0,1,3.088-7.447ZM19.669,16a10.954,10.954,0,0,0,2.5,6.034l-1.413,1.413A12.929,12.929,0,0,1,17.669,16Zm3.915,7.448a10.943,10.943,0,0,0,6.034,2.5v2a12.926,12.926,0,0,1-7.447-3.088Zm8.034,2.5a10.954,10.954,0,0,0,6.034-2.5l1.413,1.413a12.929,12.929,0,0,1-7.447,3.088Zm7.448-3.915A10.943,10.943,0,0,0,41.567,16h2a12.926,12.926,0,0,1-3.088,7.447ZM41.568,14a10.954,10.954,0,0,0-2.5-6.034L40.48,6.553A12.929,12.929,0,0,1,43.568,14Z"/>
        <path id="Trazado_986558" data-name="Trazado 986558" d="M57.618,52V29h-2V54H58l-2.829,5.657a.64.64,0,0,1-1.1,0L51.236,54h2.382V31h-2V52H48l4.276,8.554a2.619,2.619,0,0,0,4.684,0L61.236,52Z"/>
        <path id="Trazado_986559" data-name="Trazado 986559" d="M42.618,32h-24a3,3,0,0,0-3,3V59a3,3,0,0,0,3,3h24a3,3,0,0,0,3-3V35A3,3,0,0,0,42.618,32Zm-11,4v2h-2V36h-2v2h-2V34h10v4h-2V36Zm12,23a1,1,0,0,1-1,1h-24a1,1,0,0,1-1-1V35a1,1,0,0,1,1-1h5v6h14V34h5a1,1,0,0,1,1,1Z"/>
        <path id="Trazado_986560" data-name="Trazado 986560" d="M19.618,56h8v2h-8Z"/>
        <path id="Trazado_986561" data-name="Trazado 986561" d="M19.618,52h8v2h-8Z"/>
        <path id="Trazado_986562" data-name="Trazado 986562" d="M55.618,25h2v2h-2Z"/>
        <path id="Trazado_986563" data-name="Trazado 986563" d="M6.618,6A2.608,2.608,0,0,0,4.276,7.447L0,16H3.618V39h2V14H3.236L6.065,8.343a.641.641,0,0,1,1.106,0L10,14H7.618V37h2V16h3.618L8.96,7.446A2.608,2.608,0,0,0,6.618,6Z"/>
        <path id="Trazado_986564" data-name="Trazado 986564" d="M3.618,41h2v2h-2Z"/>
      </g>
    </g>
  </g>
</svg>
