<svg xmlns="http://www.w3.org/2000/svg" xmlns:xlink="http://www.w3.org/1999/xlink" width="729.2" height="891" viewBox="0 0 729.2 891">
  <defs>
    <filter id="Rectángulo_407809" x="249.099" y="0" width="243.066" height="96" filterUnits="userSpaceOnUse">
      <feOffset dy="3" input="SourceAlpha"/>
      <feGaussianBlur stdDeviation="3" result="blur"/>
      <feFlood flood-opacity="0.161"/>
      <feComposite operator="in" in2="blur"/>
      <feComposite in="SourceGraphic"/>
    </filter>
  </defs>
  <g id="Grupo_1151697" data-name="Grupo 1151697" transform="translate(-435 -810.5)">
    <g id="Grupo_1151694" data-name="Grupo 1151694" transform="translate(6.099 6.5)">
      <path id="Trazado_985541" data-name="Trazado 985541" d="M3261.576,768.378h63.769V1000.07h-63.769" transform="translate(-2375.033 80.622)" fill="none" stroke="#477a7a" stroke-width="1"/>
      <path id="Trazado_985542" data-name="Trazado 985542" d="M3163.533,781.536v281.573" transform="translate(-2363.033 99)" fill="none" stroke="#477a7a" stroke-width="1"/>
      <g id="Grupo_1148886" data-name="Grupo 1148886" transform="translate(200.036 -3002.923)">
        <g transform="matrix(1, 0, 0, 1, 228.87, 3806.92)" filter="url(#Rectángulo_407809)">
          <rect id="Rectángulo_407809-2" data-name="Rectángulo 407809" width="225.066" height="78" rx="10" transform="translate(258.1 6)" fill="#fd7940"/>
        </g>
        <path id="Trazado_986632" data-name="Trazado 986632" d="M1.4,0V-12.69h8.55v1.818H3.636v3.51h5.9v1.836h-5.9v3.69H9.954V0Zm10.53,0V-13.248h2.25V0ZM25.956.18a4.921,4.921,0,0,1-3.582-1.26,4.6,4.6,0,0,1-1.3-3.456,5.267,5.267,0,0,1,.558-2.484,4.1,4.1,0,0,1,1.557-1.656,4.475,4.475,0,0,1,2.331-.594,4.032,4.032,0,0,1,2.2.558,3.537,3.537,0,0,1,1.341,1.566,5.643,5.643,0,0,1,.459,2.358v.594H22.9V-5.382h5.022l-.306.252a3.031,3.031,0,0,0-.531-1.926,1.852,1.852,0,0,0-1.539-.666,2.032,2.032,0,0,0-1.719.792,3.584,3.584,0,0,0-.6,2.214v.234a3,3,0,0,0,.729,2.2,2.787,2.787,0,0,0,2.061.729,4.918,4.918,0,0,0,1.449-.207,4.086,4.086,0,0,0,1.287-.675l.666,1.512a4.744,4.744,0,0,1-1.548.81A6.223,6.223,0,0,1,25.956.18ZM31.428,0V-6.822q0-.558-.036-1.134T31.284-9.09h2.178l.18,1.8h-.216A3.219,3.219,0,0,1,34.7-8.757a3.709,3.709,0,0,1,1.962-.513,3.08,3.08,0,0,1,2.412.9,4.109,4.109,0,0,1,.81,2.808V0h-2.25V-5.454a2.356,2.356,0,0,0-.423-1.575,1.608,1.608,0,0,0-1.269-.477,2.169,2.169,0,0,0-1.656.648,2.414,2.414,0,0,0-.612,1.728V0ZM46.17.18a3.278,3.278,0,0,1-2.448-.846A3.493,3.493,0,0,1,42.894-3.2V-7.4H41.148V-9.09h1.746v-2.322l2.25-.576v2.9h2.43V-7.4h-2.43v4.05a1.892,1.892,0,0,0,.36,1.314,1.3,1.3,0,0,0,.99.378,2.735,2.735,0,0,0,.585-.054,3.354,3.354,0,0,0,.477-.144V-.072a3.17,3.17,0,0,1-.675.189A4.225,4.225,0,0,1,46.17.18Zm6.948,0A4.885,4.885,0,0,1,50.688-.4,3.992,3.992,0,0,1,49.1-2.034a5.279,5.279,0,0,1-.567-2.52A5.225,5.225,0,0,1,49.1-7.065a4.006,4.006,0,0,1,1.593-1.629,4.885,4.885,0,0,1,2.43-.576,4.937,4.937,0,0,1,2.439.576,3.99,3.99,0,0,1,1.6,1.629,5.225,5.225,0,0,1,.567,2.511,5.279,5.279,0,0,1-.567,2.52A3.976,3.976,0,0,1,55.557-.4,4.937,4.937,0,0,1,53.118.18Zm0-1.728A2.1,2.1,0,0,0,54.81-2.3a3.44,3.44,0,0,0,.63-2.259,3.4,3.4,0,0,0-.63-2.25,2.111,2.111,0,0,0-1.692-.738,2.111,2.111,0,0,0-1.692.738,3.4,3.4,0,0,0-.63,2.25,3.44,3.44,0,0,0,.63,2.259A2.1,2.1,0,0,0,53.118-1.548ZM59.652,0V-6.768q0-.576-.027-1.17t-.1-1.152H61.7l.252,2.484H61.6A3.848,3.848,0,0,1,62.2-8.1a2.644,2.644,0,0,1,1.035-.882,3.089,3.089,0,0,1,1.332-.288,4.028,4.028,0,0,1,.522.027,1.914,1.914,0,0,1,.4.1l-.018,1.98a2.51,2.51,0,0,0-.585-.18,4.219,4.219,0,0,0-.6-.036,2.462,2.462,0,0,0-1.305.324,1.993,1.993,0,0,0-.792.9,3.152,3.152,0,0,0-.261,1.314V0Zm7.092,0V-6.822q0-.558-.036-1.134T66.6-9.09h2.178l.18,1.8h-.216A3.219,3.219,0,0,1,70.02-8.757a3.709,3.709,0,0,1,1.962-.513,3.08,3.08,0,0,1,2.412.9,4.109,4.109,0,0,1,.81,2.808V0h-2.25V-5.454a2.356,2.356,0,0,0-.423-1.575,1.608,1.608,0,0,0-1.269-.477,2.169,2.169,0,0,0-1.656.648,2.414,2.414,0,0,0-.612,1.728V0ZM81.7.18A4.885,4.885,0,0,1,79.272-.4a3.992,3.992,0,0,1-1.593-1.638,5.279,5.279,0,0,1-.567-2.52,5.225,5.225,0,0,1,.567-2.511,4.006,4.006,0,0,1,1.593-1.629A4.885,4.885,0,0,1,81.7-9.27a4.937,4.937,0,0,1,2.439.576,3.99,3.99,0,0,1,1.6,1.629,5.225,5.225,0,0,1,.567,2.511,5.279,5.279,0,0,1-.567,2.52A3.976,3.976,0,0,1,84.141-.4,4.937,4.937,0,0,1,81.7.18Zm0-1.728A2.1,2.1,0,0,0,83.394-2.3a3.44,3.44,0,0,0,.63-2.259,3.4,3.4,0,0,0-.63-2.25A2.111,2.111,0,0,0,81.7-7.542,2.111,2.111,0,0,0,80.01-6.8a3.4,3.4,0,0,0-.63,2.25A3.44,3.44,0,0,0,80.01-2.3,2.1,2.1,0,0,0,81.7-1.548Z" transform="translate(554.964 3858.622)" fill="#212429" stroke="rgba(0,0,0,0)" stroke-width="1"/>
      </g>
      <path id="Trazado_985544" data-name="Trazado 985544" d="M2916.467,1201.834v155.535" transform="translate(-2375.033 99)" fill="none" stroke="#477a7a" stroke-width="1"/>
      <path id="Trazado_985545" data-name="Trazado 985545" d="M2916.467,1162.164v-61.109H3411.1v75.212" transform="translate(-2375.033 88.807)" fill="none" stroke="#477a7a" stroke-width="1"/>
      <path id="Trazado_985546" data-name="Trazado 985546" d="M2916.467,1248.365H3411.1v-47.233" transform="translate(-2375.033 99)" fill="none" stroke="#477a7a" stroke-width="1"/>
      <path id="Trazado_985547" data-name="Trazado 985547" d="M3021.918,1374.268h152.65" transform="translate(-2375.033 106.732)" fill="none" stroke="#477a7a" stroke-width="1"/>
      <g id="Rectángulo_408085" data-name="Rectángulo 408085" transform="translate(687 918.535)" fill="#fed6c4" stroke="#fd7940" stroke-width="1">
        <rect width="225.07" height="78" rx="10" stroke="none"/>
        <rect x="0.5" y="0.5" width="224.07" height="77" rx="9.5" fill="none"/>
      </g>
      <g id="Rectángulo_408086" data-name="Rectángulo 408086" transform="translate(693.358 1039)" fill="#fed6c4" stroke="#fd7940" stroke-width="1">
        <rect width="225.07" height="78" rx="10" stroke="none"/>
        <rect x="0.5" y="0.5" width="224.07" height="77" rx="9.5" fill="none"/>
      </g>
      <g id="Rectángulo_408087" data-name="Rectángulo 408087" transform="translate(687 1151.188)" fill="#fed6c4" stroke="#fd7940" stroke-width="1">
        <rect width="225.07" height="78" rx="10" stroke="none"/>
        <rect x="0.5" y="0.5" width="224.07" height="77" rx="9.5" fill="none"/>
      </g>
      <path id="Trazado_986633" data-name="Trazado 986633" d="M-57.225,0V-12.69h4.212a7.91,7.91,0,0,1,3.564.729,4.966,4.966,0,0,1,2.214,2.142,7.268,7.268,0,0,1,.756,3.465A7.281,7.281,0,0,1-47.235-2.9a5,5,0,0,1-2.214,2.16A7.828,7.828,0,0,1-53.013,0Zm1.494-1.278h2.61a5.219,5.219,0,0,0,3.852-1.269,5.193,5.193,0,0,0,1.26-3.807,5.188,5.188,0,0,0-1.26-3.816,5.243,5.243,0,0,0-3.852-1.26h-2.61ZM-43.939,0V-9.036h1.458V0Zm-.18-11.088v-1.638h1.8v1.638Zm7.9,11.25a3.867,3.867,0,0,1-2.106-.567,3.747,3.747,0,0,1-1.4-1.611,5.8,5.8,0,0,1-.5-2.5,5.844,5.844,0,0,1,.5-2.52,3.688,3.688,0,0,1,1.4-1.6A3.914,3.914,0,0,1-36.215-9.2a3.605,3.605,0,0,1,2.115.621,2.92,2.92,0,0,1,1.179,1.683h-.216l.2-2.142h1.4q-.054.522-.1,1.053t-.045,1.035V0h-1.458V-2.124h.2A2.869,2.869,0,0,1-34.127-.45,3.624,3.624,0,0,1-36.215.162Zm.288-1.188a2.551,2.551,0,0,0,2.052-.891,3.922,3.922,0,0,0,.756-2.6,3.953,3.953,0,0,0-.756-2.619,2.551,2.551,0,0,0-2.052-.891,2.557,2.557,0,0,0-2.043.891,3.92,3.92,0,0,0-.765,2.619,3.89,3.89,0,0,0,.765,2.6A2.557,2.557,0,0,0-35.927-1.026Zm11.054,5.04a7.708,7.708,0,0,1-2.16-.288,5.5,5.5,0,0,1-1.782-.882l.432-1.1a6.1,6.1,0,0,0,1.1.63,5.606,5.606,0,0,0,1.116.351,6.142,6.142,0,0,0,1.224.117,2.691,2.691,0,0,0,2.016-.7,2.745,2.745,0,0,0,.684-2V-2.5h.18A2.907,2.907,0,0,1-23.253-.819,3.616,3.616,0,0,1-25.359-.2,4.081,4.081,0,0,1-27.51-.747a3.64,3.64,0,0,1-1.4-1.566,5.437,5.437,0,0,1-.495-2.4,5.334,5.334,0,0,1,.495-2.376,3.651,3.651,0,0,1,1.4-1.557A4.081,4.081,0,0,1-25.359-9.2a3.643,3.643,0,0,1,2.115.612,2.885,2.885,0,0,1,1.179,1.692l-.18-.18.162-1.962h1.422q-.072.522-.108,1.053t-.036,1.035V-.054A4.105,4.105,0,0,1-21.84,2.988,4.132,4.132,0,0,1-24.873,4.014Zm-.216-5.4a2.6,2.6,0,0,0,2.07-.873,3.637,3.637,0,0,0,.756-2.457,3.6,3.6,0,0,0-.756-2.448,2.608,2.608,0,0,0-2.07-.864,2.642,2.642,0,0,0-2.07.864,3.545,3.545,0,0,0-.774,2.448,3.58,3.58,0,0,0,.774,2.457A2.629,2.629,0,0,0-25.089-1.386ZM-18,0V-6.948q0-.5-.045-1.035t-.1-1.053h1.4l.18,1.98h-.216A3.127,3.127,0,0,1-15.5-8.649,3.723,3.723,0,0,1-13.477-9.2a3.2,3.2,0,0,1,2.421.855,3.781,3.781,0,0,1,.819,2.691V0H-11.7V-5.562a2.787,2.787,0,0,0-.513-1.863A2.01,2.01,0,0,0-13.8-8.01a2.63,2.63,0,0,0-2,.774,2.875,2.875,0,0,0-.738,2.07V0ZM-3.738.162A4.371,4.371,0,0,1-6-.405a3.776,3.776,0,0,1-1.485-1.62A5.554,5.554,0,0,1-8-4.518a5.541,5.541,0,0,1,.522-2.5A3.787,3.787,0,0,1-6-8.631,4.371,4.371,0,0,1-3.738-9.2a4.407,4.407,0,0,1,2.277.567A3.844,3.844,0,0,1,.033-7.02a5.461,5.461,0,0,1,.531,2.5A5.475,5.475,0,0,1,.033-2.025,3.833,3.833,0,0,1-1.461-.405,4.407,4.407,0,0,1-3.738.162Zm0-1.188a2.551,2.551,0,0,0,2.052-.891,3.922,3.922,0,0,0,.756-2.6,3.92,3.92,0,0,0-.765-2.619,2.557,2.557,0,0,0-2.043-.891,2.531,2.531,0,0,0-2.034.891,3.953,3.953,0,0,0-.756,2.619,3.922,3.922,0,0,0,.756,2.6A2.531,2.531,0,0,0-3.738-1.026Zm-.5-8.892,1.854-3.636H-.822L-3.2-9.918ZM5.84.162a6.631,6.631,0,0,1-2.016-.3A4.246,4.246,0,0,1,2.276-.972L2.78-2a4.637,4.637,0,0,0,1.449.774,5.284,5.284,0,0,0,1.629.252,2.826,2.826,0,0,0,1.629-.387A1.239,1.239,0,0,0,8.036-2.43a1.07,1.07,0,0,0-.351-.837,2.581,2.581,0,0,0-1.143-.5L4.868-4.1A3.3,3.3,0,0,1,3.14-4.959,2.137,2.137,0,0,1,2.564-6.5a2.4,2.4,0,0,1,.414-1.395,2.784,2.784,0,0,1,1.206-.954A4.543,4.543,0,0,1,6.038-9.2a5.428,5.428,0,0,1,1.827.3,3.677,3.677,0,0,1,1.395.855L8.738-7.038a3.566,3.566,0,0,0-1.233-.783,4.028,4.028,0,0,0-1.431-.261,2.524,2.524,0,0,0-1.593.423A1.348,1.348,0,0,0,3.95-6.552a1.157,1.157,0,0,0,.333.855A2.113,2.113,0,0,0,5.318-5.2l1.674.342a3.841,3.841,0,0,1,1.827.837,1.988,1.988,0,0,1,.6,1.521,2.3,2.3,0,0,1-.45,1.413,2.849,2.849,0,0,1-1.251.927A5,5,0,0,1,5.84.162Zm9.038,0A2.623,2.623,0,0,1,12.844-.6a3.323,3.323,0,0,1-.7-2.313V-7.9H10.378V-9.036h1.764V-11.5l1.458-.414v2.88h2.592V-7.9H13.6v4.824a2.486,2.486,0,0,0,.369,1.539,1.335,1.335,0,0,0,1.107.459,2.7,2.7,0,0,0,.612-.063,3.093,3.093,0,0,0,.486-.153V-.072a2.791,2.791,0,0,1-.6.171A3.917,3.917,0,0,1,14.878.162ZM17.976,0V-9.036h1.458V0ZM17.8-11.088v-1.638h1.8v1.638ZM26.059.162a4.486,4.486,0,0,1-2.313-.576,3.845,3.845,0,0,1-1.512-1.638,5.575,5.575,0,0,1-.531-2.52,5.372,5.372,0,0,1,.54-2.511,3.708,3.708,0,0,1,1.521-1.575,4.685,4.685,0,0,1,2.3-.54,4.772,4.772,0,0,1,1.683.306,3.62,3.62,0,0,1,1.359.864L28.58-6.984A3.585,3.585,0,0,0,27.4-7.758a3.4,3.4,0,0,0-1.251-.252,2.744,2.744,0,0,0-2.178.882A3.792,3.792,0,0,0,23.2-4.554a3.908,3.908,0,0,0,.774,2.592,2.692,2.692,0,0,0,2.178.918,3.579,3.579,0,0,0,1.233-.234,3.41,3.41,0,0,0,1.2-.774L29.1-1.026a3.665,3.665,0,0,1-1.386.882A4.749,4.749,0,0,1,26.059.162Zm8.642,0a4.371,4.371,0,0,1-2.259-.567,3.776,3.776,0,0,1-1.485-1.62,5.554,5.554,0,0,1-.522-2.493,5.541,5.541,0,0,1,.522-2.5,3.787,3.787,0,0,1,1.485-1.611A4.371,4.371,0,0,1,34.7-9.2a4.407,4.407,0,0,1,2.277.567A3.844,3.844,0,0,1,38.472-7.02,5.461,5.461,0,0,1,39-4.518a5.475,5.475,0,0,1-.531,2.493,3.833,3.833,0,0,1-1.494,1.62A4.407,4.407,0,0,1,34.7.162Zm0-1.188a2.551,2.551,0,0,0,2.052-.891,3.922,3.922,0,0,0,.756-2.6,3.92,3.92,0,0,0-.765-2.619A2.557,2.557,0,0,0,34.7-8.028a2.531,2.531,0,0,0-2.034.891,3.953,3.953,0,0,0-.756,2.619,3.922,3.922,0,0,0,.756,2.6A2.531,2.531,0,0,0,34.7-1.026ZM45.613,4.086,45.271,2.88a7.52,7.52,0,0,0,1.413-.459,2.78,2.78,0,0,0,.945-.693,3.908,3.908,0,0,0,.648-1.08l.468-1.062L48.709.2,44.767-9.036h1.584L49.609-1.1h-.468l3.222-7.938h1.53L49.717.756A6.918,6.918,0,0,1,48.925,2.2,4.537,4.537,0,0,1,48,3.159a4.229,4.229,0,0,1-1.089.585A7.847,7.847,0,0,1,45.613,4.086ZM-63.942,27.162a3.867,3.867,0,0,1-2.106-.567,3.747,3.747,0,0,1-1.395-1.611,5.8,5.8,0,0,1-.5-2.5,5.844,5.844,0,0,1,.5-2.52,3.688,3.688,0,0,1,1.395-1.6,3.914,3.914,0,0,1,2.106-.558,3.605,3.605,0,0,1,2.115.621,2.92,2.92,0,0,1,1.179,1.683h-.216l.2-2.142h1.4q-.054.522-.1,1.053t-.045,1.035V27h-1.458V24.876h.2a2.869,2.869,0,0,1-1.188,1.674A3.624,3.624,0,0,1-63.942,27.162Zm.288-1.188a2.551,2.551,0,0,0,2.052-.891,3.922,3.922,0,0,0,.756-2.6,3.953,3.953,0,0,0-.756-2.619,2.551,2.551,0,0,0-2.052-.891,2.557,2.557,0,0,0-2.043.891,3.92,3.92,0,0,0-.765,2.619,3.89,3.89,0,0,0,.765,2.6A2.557,2.557,0,0,0-63.654,25.974ZM-56.578,27V20.052q0-.5-.045-1.035t-.1-1.053h1.4l.18,1.98h-.216a3.127,3.127,0,0,1,1.269-1.593,3.723,3.723,0,0,1,2.025-.549,3.2,3.2,0,0,1,2.421.855,3.781,3.781,0,0,1,.819,2.691V27h-1.458V21.438a2.787,2.787,0,0,0-.513-1.863,2.01,2.01,0,0,0-1.593-.585,2.63,2.63,0,0,0-2,.774,2.875,2.875,0,0,0-.738,2.07V27Zm13.988.162a3.867,3.867,0,0,1-2.106-.567,3.747,3.747,0,0,1-1.4-1.611,5.8,5.8,0,0,1-.5-2.5,5.844,5.844,0,0,1,.5-2.52,3.688,3.688,0,0,1,1.4-1.6,3.914,3.914,0,0,1,2.106-.558,3.605,3.605,0,0,1,2.115.621A2.92,2.92,0,0,1-39.3,20.106h-.216l.2-2.142h1.4q-.054.522-.1,1.053t-.045,1.035V27h-1.458V24.876h.2A2.869,2.869,0,0,1-40.5,26.55,3.624,3.624,0,0,1-42.591,27.162Zm.288-1.188a2.551,2.551,0,0,0,2.052-.891,3.922,3.922,0,0,0,.756-2.6,3.953,3.953,0,0,0-.756-2.619,2.551,2.551,0,0,0-2.052-.891,2.557,2.557,0,0,0-2.043.891,3.92,3.92,0,0,0-.765,2.619,3.89,3.89,0,0,0,.765,2.6A2.557,2.557,0,0,0-42.3,25.974Zm-.378-8.892,1.854-3.636h1.566l-2.376,3.636ZM-35.227,27V13.752h1.458V27Zm4.286,0V17.964h1.458V27Zm-.18-11.088V14.274h1.8v1.638Zm7.472,11.25a6.631,6.631,0,0,1-2.016-.3,4.246,4.246,0,0,1-1.548-.837l.5-1.026a4.637,4.637,0,0,0,1.449.774,5.284,5.284,0,0,0,1.629.252A2.826,2.826,0,0,0-22,25.641a1.239,1.239,0,0,0,.549-1.071,1.07,1.07,0,0,0-.351-.837,2.581,2.581,0,0,0-1.143-.5l-1.674-.342a3.3,3.3,0,0,1-1.728-.855,2.137,2.137,0,0,1-.576-1.539,2.4,2.4,0,0,1,.414-1.395,2.784,2.784,0,0,1,1.206-.954,4.543,4.543,0,0,1,1.854-.351,5.428,5.428,0,0,1,1.827.3,3.677,3.677,0,0,1,1.4.855l-.522,1.008a3.566,3.566,0,0,0-1.233-.783,4.028,4.028,0,0,0-1.431-.261,2.524,2.524,0,0,0-1.593.423,1.348,1.348,0,0,0-.531,1.107,1.157,1.157,0,0,0,.333.855,2.113,2.113,0,0,0,1.035.5l1.674.342a3.841,3.841,0,0,1,1.827.837,1.988,1.988,0,0,1,.6,1.521,2.3,2.3,0,0,1-.45,1.413,2.849,2.849,0,0,1-1.251.927A5,5,0,0,1-23.649,27.162ZM-17.725,27V17.964h1.458V27Zm-.18-11.088V14.274h1.8v1.638Zm7.472,11.25a6.631,6.631,0,0,1-2.016-.3A4.246,4.246,0,0,1-14,26.028l.5-1.026a4.637,4.637,0,0,0,1.449.774,5.284,5.284,0,0,0,1.629.252,2.826,2.826,0,0,0,1.629-.387,1.239,1.239,0,0,0,.549-1.071,1.07,1.07,0,0,0-.351-.837,2.581,2.581,0,0,0-1.143-.5l-1.674-.342a3.3,3.3,0,0,1-1.728-.855A2.137,2.137,0,0,1-13.71,20.5a2.4,2.4,0,0,1,.414-1.395,2.784,2.784,0,0,1,1.206-.954,4.543,4.543,0,0,1,1.854-.351,5.428,5.428,0,0,1,1.827.3,3.677,3.677,0,0,1,1.395.855l-.522,1.008a3.566,3.566,0,0,0-1.233-.783,4.028,4.028,0,0,0-1.431-.261,2.524,2.524,0,0,0-1.593.423,1.348,1.348,0,0,0-.531,1.107,1.157,1.157,0,0,0,.333.855,2.113,2.113,0,0,0,1.035.5l1.674.342a3.841,3.841,0,0,1,1.827.837,1.988,1.988,0,0,1,.6,1.521,2.3,2.3,0,0,1-.45,1.413,2.849,2.849,0,0,1-1.251.927A5,5,0,0,1-10.434,27.162Zm13.63,0a6.631,6.631,0,0,1-2.016-.3,4.246,4.246,0,0,1-1.548-.837L.136,25a4.637,4.637,0,0,0,1.449.774,5.284,5.284,0,0,0,1.629.252,2.826,2.826,0,0,0,1.629-.387,1.239,1.239,0,0,0,.549-1.071,1.07,1.07,0,0,0-.351-.837,2.581,2.581,0,0,0-1.143-.5L2.224,22.9A3.3,3.3,0,0,1,.5,22.041,2.137,2.137,0,0,1-.08,20.5a2.4,2.4,0,0,1,.414-1.395,2.784,2.784,0,0,1,1.206-.954A4.543,4.543,0,0,1,3.394,17.8a5.428,5.428,0,0,1,1.827.3,3.677,3.677,0,0,1,1.395.855l-.522,1.008a3.566,3.566,0,0,0-1.233-.783,4.028,4.028,0,0,0-1.431-.261,2.524,2.524,0,0,0-1.593.423,1.348,1.348,0,0,0-.531,1.107,1.157,1.157,0,0,0,.333.855,2.113,2.113,0,0,0,1.035.5l1.674.342a3.841,3.841,0,0,1,1.827.837,1.988,1.988,0,0,1,.6,1.521,2.3,2.3,0,0,1-.45,1.413,2.849,2.849,0,0,1-1.251.927A5,5,0,0,1,3.2,27.162Zm9.938,0a4.505,4.505,0,0,1-3.348-1.233A4.654,4.654,0,0,1,8.562,22.5a5.356,5.356,0,0,1,.54-2.475,3.992,3.992,0,0,1,1.512-1.638,4.243,4.243,0,0,1,2.232-.585,3.906,3.906,0,0,1,2.088.522,3.374,3.374,0,0,1,1.3,1.485,5.335,5.335,0,0,1,.45,2.277v.54h-7v-.918h6.048l-.306.234a3.512,3.512,0,0,0-.648-2.25,2.319,2.319,0,0,0-1.926-.81,2.546,2.546,0,0,0-2.106.945,3.963,3.963,0,0,0-.756,2.547v.162a3.569,3.569,0,0,0,.837,2.565,3.1,3.1,0,0,0,2.349.873,4.672,4.672,0,0,0,1.521-.243,4.135,4.135,0,0,0,1.359-.8l.5,1.026a4.005,4.005,0,0,1-1.5.891A5.813,5.813,0,0,1,13.134,27.162Zm9.578,0a4.486,4.486,0,0,1-2.313-.576,3.845,3.845,0,0,1-1.512-1.638,5.575,5.575,0,0,1-.531-2.52,5.372,5.372,0,0,1,.54-2.511,3.708,3.708,0,0,1,1.521-1.575,4.685,4.685,0,0,1,2.3-.54,4.772,4.772,0,0,1,1.683.306,3.621,3.621,0,0,1,1.359.864l-.522,1.044a3.585,3.585,0,0,0-1.179-.774A3.4,3.4,0,0,0,22.8,18.99a2.744,2.744,0,0,0-2.178.882,3.792,3.792,0,0,0-.774,2.574,3.908,3.908,0,0,0,.774,2.592,2.692,2.692,0,0,0,2.178.918,3.579,3.579,0,0,0,1.233-.234,3.41,3.41,0,0,0,1.2-.774l.522,1.026a3.665,3.665,0,0,1-1.386.882A4.749,4.749,0,0,1,22.712,27.162Zm8.318,0A2.623,2.623,0,0,1,29,26.4a3.323,3.323,0,0,1-.7-2.313V19.1H26.529V17.964h1.764V15.5l1.458-.414v2.88h2.592V19.1H29.751v4.824a2.486,2.486,0,0,0,.369,1.539,1.335,1.335,0,0,0,1.107.459,2.7,2.7,0,0,0,.612-.063,3.093,3.093,0,0,0,.486-.153v1.224a2.791,2.791,0,0,1-.6.171A3.917,3.917,0,0,1,31.029,27.162Zm6.716,0a4.371,4.371,0,0,1-2.259-.567A3.776,3.776,0,0,1,34,24.975a5.554,5.554,0,0,1-.522-2.493A5.541,5.541,0,0,1,34,19.98a3.787,3.787,0,0,1,1.485-1.611,4.819,4.819,0,0,1,4.536,0,3.844,3.844,0,0,1,1.494,1.611,5.461,5.461,0,0,1,.531,2.5,5.475,5.475,0,0,1-.531,2.493,3.833,3.833,0,0,1-1.494,1.62A4.407,4.407,0,0,1,37.745,27.162Zm0-1.188a2.551,2.551,0,0,0,2.052-.891,3.922,3.922,0,0,0,.756-2.6,3.92,3.92,0,0,0-.765-2.619,2.557,2.557,0,0,0-2.043-.891,2.531,2.531,0,0,0-2.034.891,3.953,3.953,0,0,0-.756,2.619,3.922,3.922,0,0,0,.756,2.6A2.531,2.531,0,0,0,37.745,25.974ZM44.281,27V20.142q0-.54-.027-1.1t-.081-1.08h1.4l.18,2.2-.252.018a3,3,0,0,1,.63-1.332,2.881,2.881,0,0,1,1.062-.783,3.225,3.225,0,0,1,1.278-.261q.27,0,.477.018a1.351,1.351,0,0,1,.387.09l-.018,1.3a2.537,2.537,0,0,0-.495-.117,4.347,4.347,0,0,0-.513-.027,2.481,2.481,0,0,0-1.377.378,2.448,2.448,0,0,0-.882.972,2.78,2.78,0,0,0-.3,1.26V27Zm6.572,0V17.964h1.458V27Zm-.18-11.088V14.274h1.8v1.638Zm7.9,11.25a3.867,3.867,0,0,1-2.106-.567,3.747,3.747,0,0,1-1.4-1.611,5.8,5.8,0,0,1-.5-2.5,5.844,5.844,0,0,1,.5-2.52,3.688,3.688,0,0,1,1.4-1.6,3.914,3.914,0,0,1,2.106-.558,3.605,3.605,0,0,1,2.115.621,2.92,2.92,0,0,1,1.179,1.683h-.216l.2-2.142h1.4q-.054.522-.1,1.053t-.045,1.035V27H61.654V24.876h.2a2.869,2.869,0,0,1-1.188,1.674A3.624,3.624,0,0,1,58.576,27.162Zm.288-1.188a2.551,2.551,0,0,0,2.052-.891,3.922,3.922,0,0,0,.756-2.6,3.953,3.953,0,0,0-.756-2.619,2.8,2.8,0,0,0-4.1,0,3.92,3.92,0,0,0-.765,2.619,3.89,3.89,0,0,0,.765,2.6A2.557,2.557,0,0,0,58.864,25.974ZM65.94,27V13.752H67.4V27Z" transform="translate(799.901 949.535)" fill="#212429" stroke="rgba(0,0,0,0)" stroke-width="1"/>
      <path id="Trazado_986634" data-name="Trazado 986634" d="M-54.416,0V-12.69H-50.2a7.91,7.91,0,0,1,3.564.729,4.966,4.966,0,0,1,2.214,2.142,7.268,7.268,0,0,1,.756,3.465A7.281,7.281,0,0,1-44.426-2.9,5,5,0,0,1-46.64-.738,7.828,7.828,0,0,1-50.2,0Zm1.494-1.278h2.61A5.219,5.219,0,0,0-46.46-2.547,5.193,5.193,0,0,0-45.2-6.354a5.188,5.188,0,0,0-1.26-3.816,5.243,5.243,0,0,0-3.852-1.26h-2.61ZM-37.116.162a4.505,4.505,0,0,1-3.348-1.233A4.654,4.654,0,0,1-41.688-4.5a5.356,5.356,0,0,1,.54-2.475,3.992,3.992,0,0,1,1.512-1.638A4.243,4.243,0,0,1-37.4-9.2a3.907,3.907,0,0,1,2.088.522,3.374,3.374,0,0,1,1.3,1.485,5.335,5.335,0,0,1,.45,2.277v.54h-7v-.918h6.048l-.306.234a3.512,3.512,0,0,0-.648-2.25,2.319,2.319,0,0,0-1.926-.81,2.546,2.546,0,0,0-2.106.945,3.963,3.963,0,0,0-.756,2.547v.162A3.569,3.569,0,0,0-39.429-1.9a3.1,3.1,0,0,0,2.349.873,4.672,4.672,0,0,0,1.521-.243,4.135,4.135,0,0,0,1.359-.8l.5,1.026a4.005,4.005,0,0,1-1.5.891A5.813,5.813,0,0,1-37.116.162Zm8.984,0A2.623,2.623,0,0,1-30.166-.6a3.323,3.323,0,0,1-.7-2.313V-7.9h-1.764V-9.036h1.764V-11.5l1.458-.414v2.88h2.592V-7.9H-29.41v4.824a2.486,2.486,0,0,0,.369,1.539,1.335,1.335,0,0,0,1.107.459,2.7,2.7,0,0,0,.612-.063,3.093,3.093,0,0,0,.486-.153V-.072a2.791,2.791,0,0,1-.6.171A3.917,3.917,0,0,1-28.132.162Zm7.022,0a4.505,4.505,0,0,1-3.348-1.233A4.654,4.654,0,0,1-25.682-4.5a5.356,5.356,0,0,1,.54-2.475A3.992,3.992,0,0,1-23.63-8.613,4.243,4.243,0,0,1-21.4-9.2a3.907,3.907,0,0,1,2.088.522,3.374,3.374,0,0,1,1.3,1.485,5.335,5.335,0,0,1,.45,2.277v.54h-7v-.918h6.048l-.306.234a3.512,3.512,0,0,0-.648-2.25,2.319,2.319,0,0,0-1.926-.81,2.546,2.546,0,0,0-2.106.945,3.963,3.963,0,0,0-.756,2.547v.162A3.569,3.569,0,0,0-23.423-1.9a3.1,3.1,0,0,0,2.349.873,4.672,4.672,0,0,0,1.521-.243,4.135,4.135,0,0,0,1.359-.8l.5,1.026a4.005,4.005,0,0,1-1.5.891A5.813,5.813,0,0,1-21.11.162Zm9.578,0a4.486,4.486,0,0,1-2.313-.576,3.845,3.845,0,0,1-1.512-1.638,5.575,5.575,0,0,1-.531-2.52,5.372,5.372,0,0,1,.54-2.511,3.708,3.708,0,0,1,1.521-1.575,4.685,4.685,0,0,1,2.295-.54,4.772,4.772,0,0,1,1.683.306,3.62,3.62,0,0,1,1.359.864l-.522,1.044a3.585,3.585,0,0,0-1.179-.774,3.4,3.4,0,0,0-1.251-.252,2.744,2.744,0,0,0-2.178.882,3.792,3.792,0,0,0-.774,2.574,3.908,3.908,0,0,0,.774,2.592,2.692,2.692,0,0,0,2.178.918,3.579,3.579,0,0,0,1.233-.234,3.41,3.41,0,0,0,1.2-.774l.522,1.026a3.665,3.665,0,0,1-1.386.882A4.749,4.749,0,0,1-11.533.162Zm8.732,0A4.486,4.486,0,0,1-5.114-.414,3.845,3.845,0,0,1-6.626-2.052a5.575,5.575,0,0,1-.531-2.52,5.372,5.372,0,0,1,.54-2.511A3.708,3.708,0,0,1-5.1-8.658,4.685,4.685,0,0,1-2.8-9.2a4.772,4.772,0,0,1,1.683.306,3.62,3.62,0,0,1,1.359.864L-.281-6.984A3.585,3.585,0,0,0-1.46-7.758,3.4,3.4,0,0,0-2.711-8.01a2.744,2.744,0,0,0-2.178.882,3.792,3.792,0,0,0-.774,2.574,3.908,3.908,0,0,0,.774,2.592,2.692,2.692,0,0,0,2.178.918,3.579,3.579,0,0,0,1.233-.234,3.41,3.41,0,0,0,1.2-.774L.241-1.026a3.665,3.665,0,0,1-1.386.882A4.749,4.749,0,0,1-2.8.162ZM2.313,0V-9.036H3.771V0Zm-.18-11.088v-1.638h1.8v1.638ZM10.307.162A4.371,4.371,0,0,1,8.048-.405a3.776,3.776,0,0,1-1.485-1.62,5.554,5.554,0,0,1-.522-2.493,5.541,5.541,0,0,1,.522-2.5A3.787,3.787,0,0,1,8.048-8.631,4.371,4.371,0,0,1,10.307-9.2a4.407,4.407,0,0,1,2.277.567A3.844,3.844,0,0,1,14.078-7.02a5.461,5.461,0,0,1,.531,2.5,5.475,5.475,0,0,1-.531,2.493,3.833,3.833,0,0,1-1.494,1.62A4.407,4.407,0,0,1,10.307.162Zm0-1.188a2.551,2.551,0,0,0,2.052-.891,3.922,3.922,0,0,0,.756-2.6,3.92,3.92,0,0,0-.765-2.619,2.557,2.557,0,0,0-2.043-.891,2.531,2.531,0,0,0-2.034.891,3.953,3.953,0,0,0-.756,2.619,3.922,3.922,0,0,0,.756,2.6A2.531,2.531,0,0,0,10.307-1.026ZM9.8-9.918l1.854-3.636h1.566L10.847-9.918ZM16.879,0V-6.948q0-.5-.045-1.035t-.1-1.053h1.4l.18,1.98H18.1a3.127,3.127,0,0,1,1.269-1.593A3.723,3.723,0,0,1,21.4-9.2a3.2,3.2,0,0,1,2.421.855,3.781,3.781,0,0,1,.819,2.691V0H23.179V-5.562a2.787,2.787,0,0,0-.513-1.863,2.01,2.01,0,0,0-1.593-.585,2.63,2.63,0,0,0-2,.774,2.875,2.875,0,0,0-.738,2.07V0Zm18.67.162A3.834,3.834,0,0,1,33.46-.405a3.747,3.747,0,0,1-1.4-1.611,5.8,5.8,0,0,1-.5-2.5,5.844,5.844,0,0,1,.5-2.52,3.688,3.688,0,0,1,1.4-1.6A3.88,3.88,0,0,1,35.548-9.2a3.643,3.643,0,0,1,2.115.612,2.962,2.962,0,0,1,1.2,1.656h-.216v-6.318H40.1V0h-1.44V-2.16h.2a2.911,2.911,0,0,1-1.188,1.7A3.647,3.647,0,0,1,35.548.162Zm.306-1.188a2.584,2.584,0,0,0,2.052-.891,3.859,3.859,0,0,0,.774-2.6,3.889,3.889,0,0,0-.774-2.619,2.584,2.584,0,0,0-2.052-.891,2.557,2.557,0,0,0-2.043.891,3.92,3.92,0,0,0-.765,2.619,3.89,3.89,0,0,0,.765,2.6A2.557,2.557,0,0,0,35.854-1.026ZM46.944.162A4.505,4.505,0,0,1,43.6-1.071,4.654,4.654,0,0,1,42.372-4.5a5.356,5.356,0,0,1,.54-2.475,3.992,3.992,0,0,1,1.512-1.638A4.243,4.243,0,0,1,46.656-9.2a3.907,3.907,0,0,1,2.088.522,3.374,3.374,0,0,1,1.3,1.485,5.335,5.335,0,0,1,.45,2.277v.54h-7v-.918h6.048l-.306.234a3.512,3.512,0,0,0-.648-2.25,2.319,2.319,0,0,0-1.926-.81,2.546,2.546,0,0,0-2.106.945,3.963,3.963,0,0,0-.756,2.547v.162A3.569,3.569,0,0,0,44.631-1.9a3.1,3.1,0,0,0,2.349.873A4.672,4.672,0,0,0,48.5-1.269a4.135,4.135,0,0,0,1.359-.8l.5,1.026a4.005,4.005,0,0,1-1.5.891A5.813,5.813,0,0,1,46.944.162ZM-50.184,27V20.052q0-.5-.045-1.035t-.1-1.053h1.4l.18,1.98h-.216a3.127,3.127,0,0,1,1.269-1.593,3.723,3.723,0,0,1,2.025-.549,3.2,3.2,0,0,1,2.421.855,3.781,3.781,0,0,1,.819,2.691V27h-1.458V21.438a2.787,2.787,0,0,0-.513-1.863,2.01,2.01,0,0,0-1.593-.585,2.63,2.63,0,0,0-2,.774,2.875,2.875,0,0,0-.738,2.07V27Zm14.564.162a4.505,4.505,0,0,1-3.348-1.233A4.654,4.654,0,0,1-40.192,22.5a5.356,5.356,0,0,1,.54-2.475,3.992,3.992,0,0,1,1.512-1.638,4.243,4.243,0,0,1,2.232-.585,3.907,3.907,0,0,1,2.088.522,3.374,3.374,0,0,1,1.3,1.485,5.335,5.335,0,0,1,.45,2.277v.54h-7v-.918h6.048l-.306.234a3.512,3.512,0,0,0-.648-2.25,2.319,2.319,0,0,0-1.926-.81,2.546,2.546,0,0,0-2.106.945,3.963,3.963,0,0,0-.756,2.547v.162a3.569,3.569,0,0,0,.837,2.565,3.1,3.1,0,0,0,2.349.873,4.672,4.672,0,0,0,1.521-.243,4.135,4.135,0,0,0,1.359-.8l.5,1.026a4.005,4.005,0,0,1-1.5.891A5.813,5.813,0,0,1-35.62,27.162Zm9.578,0a4.486,4.486,0,0,1-2.313-.576,3.845,3.845,0,0,1-1.512-1.638,5.575,5.575,0,0,1-.531-2.52,5.372,5.372,0,0,1,.54-2.511,3.708,3.708,0,0,1,1.521-1.575,4.685,4.685,0,0,1,2.3-.54,4.772,4.772,0,0,1,1.683.306A3.62,3.62,0,0,1-23,18.972l-.522,1.044a3.585,3.585,0,0,0-1.179-.774,3.4,3.4,0,0,0-1.251-.252,2.744,2.744,0,0,0-2.178.882,3.792,3.792,0,0,0-.774,2.574,3.908,3.908,0,0,0,.774,2.592,2.692,2.692,0,0,0,2.178.918,3.579,3.579,0,0,0,1.233-.234,3.41,3.41,0,0,0,1.2-.774L-23,25.974a3.665,3.665,0,0,1-1.386.882A4.749,4.749,0,0,1-26.042,27.162Zm8.948,0a4.505,4.505,0,0,1-3.348-1.233A4.654,4.654,0,0,1-21.667,22.5a5.356,5.356,0,0,1,.54-2.475,3.992,3.992,0,0,1,1.512-1.638,4.243,4.243,0,0,1,2.232-.585,3.906,3.906,0,0,1,2.088.522A3.374,3.374,0,0,1-14,19.809a5.335,5.335,0,0,1,.45,2.277v.54h-7v-.918H-14.5l-.306.234a3.512,3.512,0,0,0-.648-2.25,2.319,2.319,0,0,0-1.926-.81,2.546,2.546,0,0,0-2.106.945,3.963,3.963,0,0,0-.756,2.547v.162a3.569,3.569,0,0,0,.837,2.565,3.1,3.1,0,0,0,2.349.873,4.672,4.672,0,0,0,1.521-.243,4.135,4.135,0,0,0,1.359-.8l.5,1.026a4.005,4.005,0,0,1-1.5.891A5.813,5.813,0,0,1-17.095,27.162Zm8.786,0a6.631,6.631,0,0,1-2.016-.3,4.246,4.246,0,0,1-1.548-.837l.5-1.026a4.637,4.637,0,0,0,1.449.774,5.284,5.284,0,0,0,1.629.252,2.826,2.826,0,0,0,1.629-.387,1.239,1.239,0,0,0,.549-1.071,1.07,1.07,0,0,0-.351-.837,2.581,2.581,0,0,0-1.143-.5L-9.281,22.9a3.3,3.3,0,0,1-1.728-.855,2.137,2.137,0,0,1-.576-1.539,2.4,2.4,0,0,1,.414-1.395,2.784,2.784,0,0,1,1.206-.954A4.543,4.543,0,0,1-8.111,17.8a5.428,5.428,0,0,1,1.827.3,3.677,3.677,0,0,1,1.395.855l-.522,1.008a3.566,3.566,0,0,0-1.233-.783,4.028,4.028,0,0,0-1.431-.261,2.524,2.524,0,0,0-1.593.423,1.348,1.348,0,0,0-.531,1.107,1.157,1.157,0,0,0,.333.855,2.113,2.113,0,0,0,1.035.5l1.674.342a3.841,3.841,0,0,1,1.827.837,1.988,1.988,0,0,1,.6,1.521,2.3,2.3,0,0,1-.45,1.413,2.849,2.849,0,0,1-1.251.927A5,5,0,0,1-8.309,27.162ZM-2.385,27V17.964H-.927V27Zm-.18-11.088V14.274h1.8v1.638Zm7.886,11.25a3.834,3.834,0,0,1-2.088-.567,3.747,3.747,0,0,1-1.395-1.611,5.8,5.8,0,0,1-.495-2.5,5.844,5.844,0,0,1,.495-2.52,3.688,3.688,0,0,1,1.395-1.6A3.88,3.88,0,0,1,5.321,17.8a3.643,3.643,0,0,1,2.115.612,2.962,2.962,0,0,1,1.2,1.656H8.417V13.752H9.875V27H8.435V24.84h.2a2.911,2.911,0,0,1-1.188,1.7A3.647,3.647,0,0,1,5.321,27.162Zm.306-1.188a2.584,2.584,0,0,0,2.052-.891,3.859,3.859,0,0,0,.774-2.6,3.889,3.889,0,0,0-.774-2.619,2.584,2.584,0,0,0-2.052-.891,2.557,2.557,0,0,0-2.043.891,3.92,3.92,0,0,0-.765,2.619,3.89,3.89,0,0,0,.765,2.6A2.557,2.557,0,0,0,5.627,25.974Zm10.514,1.188a3.867,3.867,0,0,1-2.106-.567,3.747,3.747,0,0,1-1.395-1.611,5.8,5.8,0,0,1-.495-2.5,5.844,5.844,0,0,1,.495-2.52,3.688,3.688,0,0,1,1.395-1.6,3.914,3.914,0,0,1,2.106-.558,3.605,3.605,0,0,1,2.115.621,2.92,2.92,0,0,1,1.179,1.683h-.216l.2-2.142h1.4q-.054.522-.1,1.053t-.045,1.035V27H19.219V24.876h.2a2.869,2.869,0,0,1-1.188,1.674A3.624,3.624,0,0,1,16.141,27.162Zm.288-1.188a2.551,2.551,0,0,0,2.052-.891,3.922,3.922,0,0,0,.756-2.6,3.953,3.953,0,0,0-.756-2.619,2.551,2.551,0,0,0-2.052-.891,2.557,2.557,0,0,0-2.043.891,3.92,3.92,0,0,0-.765,2.619,3.89,3.89,0,0,0,.765,2.6A2.557,2.557,0,0,0,16.429,25.974Zm10.5,1.188a3.834,3.834,0,0,1-2.088-.567,3.747,3.747,0,0,1-1.4-1.611,5.8,5.8,0,0,1-.495-2.5,5.844,5.844,0,0,1,.495-2.52,3.688,3.688,0,0,1,1.4-1.6,3.88,3.88,0,0,1,2.088-.558,3.643,3.643,0,0,1,2.115.612,2.962,2.962,0,0,1,1.2,1.656H30.02V13.752h1.458V27h-1.44V24.84h.2a2.911,2.911,0,0,1-1.188,1.7A3.647,3.647,0,0,1,26.924,27.162Zm.306-1.188a2.584,2.584,0,0,0,2.052-.891,3.859,3.859,0,0,0,.774-2.6,3.889,3.889,0,0,0-.774-2.619,2.584,2.584,0,0,0-2.052-.891,2.557,2.557,0,0,0-2.043.891,3.92,3.92,0,0,0-.765,2.619,3.89,3.89,0,0,0,.765,2.6A2.557,2.557,0,0,0,27.23,25.974Zm11.09,1.188a4.505,4.505,0,0,1-3.348-1.233A4.654,4.654,0,0,1,33.748,22.5a5.356,5.356,0,0,1,.54-2.475A3.992,3.992,0,0,1,35.8,18.387a4.243,4.243,0,0,1,2.232-.585,3.907,3.907,0,0,1,2.088.522,3.374,3.374,0,0,1,1.3,1.485,5.335,5.335,0,0,1,.45,2.277v.54h-7v-.918h6.048l-.306.234a3.512,3.512,0,0,0-.648-2.25,2.319,2.319,0,0,0-1.926-.81,2.546,2.546,0,0,0-2.106.945,3.963,3.963,0,0,0-.756,2.547v.162a3.569,3.569,0,0,0,.837,2.565,3.1,3.1,0,0,0,2.349.873,4.672,4.672,0,0,0,1.521-.243,4.135,4.135,0,0,0,1.359-.8l.5,1.026a4.005,4.005,0,0,1-1.5.891A5.813,5.813,0,0,1,38.32,27.162Zm8.786,0a6.631,6.631,0,0,1-2.016-.3,4.246,4.246,0,0,1-1.548-.837l.5-1.026a4.637,4.637,0,0,0,1.449.774,5.284,5.284,0,0,0,1.629.252,2.826,2.826,0,0,0,1.629-.387A1.239,1.239,0,0,0,49.3,24.57a1.07,1.07,0,0,0-.351-.837,2.581,2.581,0,0,0-1.143-.5L46.134,22.9a3.3,3.3,0,0,1-1.728-.855A2.137,2.137,0,0,1,43.83,20.5a2.4,2.4,0,0,1,.414-1.395,2.784,2.784,0,0,1,1.206-.954A4.543,4.543,0,0,1,47.3,17.8a5.428,5.428,0,0,1,1.827.3,3.677,3.677,0,0,1,1.4.855L50,19.962a3.566,3.566,0,0,0-1.233-.783,4.028,4.028,0,0,0-1.431-.261,2.524,2.524,0,0,0-1.593.423,1.348,1.348,0,0,0-.531,1.107,1.157,1.157,0,0,0,.333.855,2.113,2.113,0,0,0,1.035.5l1.674.342a3.841,3.841,0,0,1,1.827.837,1.988,1.988,0,0,1,.6,1.521,2.3,2.3,0,0,1-.45,1.413,2.849,2.849,0,0,1-1.251.927A5,5,0,0,1,47.106,27.162Z" transform="translate(806.358 1071)" fill="#212429" stroke="rgba(0,0,0,0)" stroke-width="1"/>
      <path id="Trazado_986635" data-name="Trazado 986635" d="M-76.1,0V-12.69h5.166a4.474,4.474,0,0,1,3.078.963,3.4,3.4,0,0,1,1.08,2.673A3.409,3.409,0,0,1-67.857-6.4a4.42,4.42,0,0,1-3.078.981h-3.672V0Zm1.494-6.66h3.528a3.074,3.074,0,0,0,2.1-.63,2.234,2.234,0,0,0,.711-1.764,2.256,2.256,0,0,0-.711-1.782,3.074,3.074,0,0,0-2.1-.63h-3.528ZM-64.544,0V-13.248h1.458V0Zm7.724.162a3.867,3.867,0,0,1-2.106-.567,3.747,3.747,0,0,1-1.4-1.611,5.8,5.8,0,0,1-.5-2.5,5.844,5.844,0,0,1,.5-2.52,3.688,3.688,0,0,1,1.4-1.6A3.914,3.914,0,0,1-56.82-9.2a3.605,3.605,0,0,1,2.115.621,2.92,2.92,0,0,1,1.179,1.683h-.216l.2-2.142h1.4q-.054.522-.1,1.053t-.045,1.035V0h-1.458V-2.124h.2A2.869,2.869,0,0,1-54.732-.45,3.624,3.624,0,0,1-56.82.162Zm.288-1.188a2.551,2.551,0,0,0,2.052-.891,3.922,3.922,0,0,0,.756-2.6,3.953,3.953,0,0,0-.756-2.619,2.551,2.551,0,0,0-2.052-.891,2.557,2.557,0,0,0-2.043.891,3.92,3.92,0,0,0-.765,2.619,3.89,3.89,0,0,0,.765,2.6A2.557,2.557,0,0,0-56.532-1.026ZM-49.456,0V-6.948q0-.5-.045-1.035t-.1-1.053h1.4l.18,1.98h-.216a3.127,3.127,0,0,1,1.269-1.593A3.723,3.723,0,0,1-44.938-9.2a3.2,3.2,0,0,1,2.421.855A3.781,3.781,0,0,1-41.7-5.652V0h-1.458V-5.562a2.787,2.787,0,0,0-.513-1.863,2.01,2.01,0,0,0-1.593-.585,2.63,2.63,0,0,0-2,.774A2.875,2.875,0,0,0-48-5.166V0ZM-35.7.162A2.623,2.623,0,0,1-37.736-.6a3.323,3.323,0,0,1-.7-2.313V-7.9H-40.2V-9.036h1.764V-11.5l1.458-.414v2.88h2.592V-7.9H-36.98v4.824a2.486,2.486,0,0,0,.369,1.539A1.335,1.335,0,0,0-35.5-1.08a2.7,2.7,0,0,0,.612-.063,3.092,3.092,0,0,0,.486-.153V-.072a2.791,2.791,0,0,1-.6.171A3.917,3.917,0,0,1-35.7.162Zm7.022,0a4.505,4.505,0,0,1-3.348-1.233A4.654,4.654,0,0,1-33.252-4.5a5.356,5.356,0,0,1,.54-2.475A3.992,3.992,0,0,1-31.2-8.613,4.243,4.243,0,0,1-28.968-9.2a3.907,3.907,0,0,1,2.088.522,3.374,3.374,0,0,1,1.3,1.485,5.335,5.335,0,0,1,.45,2.277v.54h-7v-.918h6.048l-.306.234a3.512,3.512,0,0,0-.648-2.25,2.319,2.319,0,0,0-1.926-.81,2.546,2.546,0,0,0-2.106.945,3.963,3.963,0,0,0-.756,2.547v.162A3.569,3.569,0,0,0-30.993-1.9a3.1,3.1,0,0,0,2.349.873,4.672,4.672,0,0,0,1.521-.243,4.135,4.135,0,0,0,1.359-.8l.5,1.026a4.005,4.005,0,0,1-1.5.891A5.813,5.813,0,0,1-28.68.162Zm9.218,0a3.867,3.867,0,0,1-2.106-.567,3.747,3.747,0,0,1-1.4-1.611,5.8,5.8,0,0,1-.495-2.5,5.844,5.844,0,0,1,.495-2.52,3.688,3.688,0,0,1,1.4-1.6A3.914,3.914,0,0,1-19.463-9.2a3.605,3.605,0,0,1,2.115.621,2.92,2.92,0,0,1,1.179,1.683h-.216l.2-2.142h1.4q-.054.522-.1,1.053t-.045,1.035V0h-1.458V-2.124h.2A2.869,2.869,0,0,1-17.375-.45,3.624,3.624,0,0,1-19.463.162Zm.288-1.188a2.551,2.551,0,0,0,2.052-.891,3.922,3.922,0,0,0,.756-2.6,3.953,3.953,0,0,0-.756-2.619,2.551,2.551,0,0,0-2.052-.891,2.557,2.557,0,0,0-2.043.891,3.92,3.92,0,0,0-.765,2.619,3.89,3.89,0,0,0,.765,2.6A2.557,2.557,0,0,0-19.175-1.026ZM-12.1,0V-6.948q0-.5-.045-1.035t-.1-1.053h1.4l.18,1.98h-.216A3.166,3.166,0,0,1-9.732-8.64a3.187,3.187,0,0,1,1.9-.558,2.968,2.968,0,0,1,1.845.54,2.76,2.76,0,0,1,.963,1.674h-.27A3.1,3.1,0,0,1-4.089-8.6,3.471,3.471,0,0,1-2.073-9.2a2.846,2.846,0,0,1,2.25.855A3.993,3.993,0,0,1,.933-5.652V0H-.525V-5.562a3.071,3.071,0,0,0-.45-1.863,1.7,1.7,0,0,0-1.44-.585,2.214,2.214,0,0,0-1.791.783,3.157,3.157,0,0,0-.657,2.1V0H-6.321V-5.562a3.071,3.071,0,0,0-.45-1.863,1.7,1.7,0,0,0-1.44-.585,2.188,2.188,0,0,0-1.782.783,3.186,3.186,0,0,0-.648,2.1V0ZM3.707,0V-9.036H5.165V0Zm-.18-11.088v-1.638h1.8v1.638ZM12.007.162A4.505,4.505,0,0,1,8.659-1.071,4.654,4.654,0,0,1,7.435-4.5a5.356,5.356,0,0,1,.54-2.475A3.992,3.992,0,0,1,9.487-8.613,4.243,4.243,0,0,1,11.719-9.2a3.907,3.907,0,0,1,2.088.522,3.374,3.374,0,0,1,1.3,1.485,5.335,5.335,0,0,1,.45,2.277v.54h-7v-.918H14.6l-.306.234a3.512,3.512,0,0,0-.648-2.25,2.319,2.319,0,0,0-1.926-.81,2.546,2.546,0,0,0-2.106.945,3.963,3.963,0,0,0-.756,2.547v.162A3.569,3.569,0,0,0,9.694-1.9a3.1,3.1,0,0,0,2.349.873,4.672,4.672,0,0,0,1.521-.243,4.135,4.135,0,0,0,1.359-.8l.5,1.026a4.005,4.005,0,0,1-1.5.891A5.813,5.813,0,0,1,12.007.162ZM17.787,0V-6.948q0-.5-.045-1.035t-.1-1.053h1.4l.18,1.98h-.216A3.127,3.127,0,0,1,20.28-8.649,3.723,3.723,0,0,1,22.3-9.2a3.2,3.2,0,0,1,2.421.855,3.781,3.781,0,0,1,.819,2.691V0H24.087V-5.562a2.787,2.787,0,0,0-.513-1.863,2.01,2.01,0,0,0-1.593-.585,2.63,2.63,0,0,0-2,.774,2.875,2.875,0,0,0-.738,2.07V0ZM31.54.162A2.623,2.623,0,0,1,29.506-.6a3.323,3.323,0,0,1-.7-2.313V-7.9H27.04V-9.036H28.8V-11.5l1.458-.414v2.88h2.592V-7.9H30.262v4.824a2.486,2.486,0,0,0,.369,1.539,1.335,1.335,0,0,0,1.107.459,2.7,2.7,0,0,0,.612-.063,3.092,3.092,0,0,0,.486-.153V-.072a2.791,2.791,0,0,1-.6.171A3.917,3.917,0,0,1,31.54.162Zm6.716,0A4.371,4.371,0,0,1,36-.405a3.776,3.776,0,0,1-1.485-1.62,5.554,5.554,0,0,1-.522-2.493,5.541,5.541,0,0,1,.522-2.5A3.787,3.787,0,0,1,36-8.631,4.371,4.371,0,0,1,38.256-9.2a4.407,4.407,0,0,1,2.277.567A3.844,3.844,0,0,1,42.027-7.02a5.461,5.461,0,0,1,.531,2.5,5.475,5.475,0,0,1-.531,2.493,3.833,3.833,0,0,1-1.494,1.62A4.407,4.407,0,0,1,38.256.162Zm0-1.188a2.551,2.551,0,0,0,2.052-.891,3.922,3.922,0,0,0,.756-2.6A3.92,3.92,0,0,0,40.3-7.137a2.557,2.557,0,0,0-2.043-.891,2.531,2.531,0,0,0-2.034.891,3.953,3.953,0,0,0-.756,2.619,3.922,3.922,0,0,0,.756,2.6A2.531,2.531,0,0,0,38.256-1.026ZM52.948.162A3.834,3.834,0,0,1,50.86-.405a3.747,3.747,0,0,1-1.4-1.611,5.8,5.8,0,0,1-.5-2.5,5.844,5.844,0,0,1,.5-2.52,3.688,3.688,0,0,1,1.4-1.6A3.88,3.88,0,0,1,52.948-9.2a3.643,3.643,0,0,1,2.115.612,2.962,2.962,0,0,1,1.2,1.656h-.216v-6.318H57.5V0h-1.44V-2.16h.2a2.911,2.911,0,0,1-1.188,1.7A3.647,3.647,0,0,1,52.948.162Zm.306-1.188a2.584,2.584,0,0,0,2.052-.891,3.859,3.859,0,0,0,.774-2.6,3.889,3.889,0,0,0-.774-2.619,2.584,2.584,0,0,0-2.052-.891,2.557,2.557,0,0,0-2.043.891,3.92,3.92,0,0,0-.765,2.619,3.89,3.89,0,0,0,.765,2.6A2.557,2.557,0,0,0,53.254-1.026ZM64.344.162A4.505,4.505,0,0,1,61-1.071,4.654,4.654,0,0,1,59.772-4.5a5.356,5.356,0,0,1,.54-2.475,3.992,3.992,0,0,1,1.512-1.638A4.243,4.243,0,0,1,64.056-9.2a3.907,3.907,0,0,1,2.088.522,3.374,3.374,0,0,1,1.3,1.485,5.334,5.334,0,0,1,.45,2.277v.54h-7v-.918h6.048l-.306.234a3.512,3.512,0,0,0-.648-2.25,2.319,2.319,0,0,0-1.926-.81,2.546,2.546,0,0,0-2.106.945,3.963,3.963,0,0,0-.756,2.547v.162A3.569,3.569,0,0,0,62.031-1.9a3.1,3.1,0,0,0,2.349.873A4.672,4.672,0,0,0,65.9-1.269a4.135,4.135,0,0,0,1.359-.8l.5,1.026a4.005,4.005,0,0,1-1.5.891A5.813,5.813,0,0,1,64.344.162ZM70.123,0V-13.248h1.458V0Zm-108.2,30.888V20.052q0-.5-.045-1.035t-.1-1.053h1.4l.2,2.142h-.216a2.933,2.933,0,0,1,1.17-1.683,3.564,3.564,0,0,1,2.106-.621,3.9,3.9,0,0,1,2.115.558,3.766,3.766,0,0,1,1.4,1.6,5.754,5.754,0,0,1,.5,2.52,5.8,5.8,0,0,1-.495,2.5,3.747,3.747,0,0,1-1.4,1.611,3.9,3.9,0,0,1-2.124.567,3.571,3.571,0,0,1-2.088-.612,2.894,2.894,0,0,1-1.17-1.674h.2v6.012Zm4.23-4.914a2.577,2.577,0,0,0,2.061-.891,3.89,3.89,0,0,0,.765-2.6,3.92,3.92,0,0,0-.765-2.619,2.577,2.577,0,0,0-2.061-.891,2.557,2.557,0,0,0-2.043.891,3.92,3.92,0,0,0-.765,2.619,3.89,3.89,0,0,0,.765,2.6A2.557,2.557,0,0,0-33.846,25.974ZM-27.311,27V20.142q0-.54-.027-1.1t-.081-1.08h1.4l.18,2.2-.252.018a3,3,0,0,1,.63-1.332,2.881,2.881,0,0,1,1.062-.783,3.225,3.225,0,0,1,1.278-.261q.27,0,.477.018a1.351,1.351,0,0,1,.387.09l-.018,1.3a2.536,2.536,0,0,0-.495-.117,4.347,4.347,0,0,0-.513-.027,2.481,2.481,0,0,0-1.377.378,2.448,2.448,0,0,0-.882.972,2.78,2.78,0,0,0-.3,1.26V27Zm10.172.162a4.371,4.371,0,0,1-2.259-.567,3.776,3.776,0,0,1-1.485-1.62,5.554,5.554,0,0,1-.522-2.493,5.541,5.541,0,0,1,.522-2.5A3.787,3.787,0,0,1-19.4,18.369a4.371,4.371,0,0,1,2.259-.567,4.407,4.407,0,0,1,2.277.567,3.844,3.844,0,0,1,1.494,1.611,5.461,5.461,0,0,1,.531,2.5,5.475,5.475,0,0,1-.531,2.493,3.833,3.833,0,0,1-1.494,1.62A4.407,4.407,0,0,1-17.139,27.162Zm0-1.188a2.551,2.551,0,0,0,2.052-.891,3.922,3.922,0,0,0,.756-2.6,3.92,3.92,0,0,0-.765-2.619,2.557,2.557,0,0,0-2.043-.891,2.531,2.531,0,0,0-2.034.891,3.953,3.953,0,0,0-.756,2.619,3.922,3.922,0,0,0,.756,2.6A2.531,2.531,0,0,0-17.139,25.974Zm11.108,1.188a3.564,3.564,0,0,1-2.106-.621,3.02,3.02,0,0,1-1.188-1.7h.2V27h-1.44V13.752h1.458V20.07h-.216a2.975,2.975,0,0,1,1.188-1.656A3.6,3.6,0,0,1-6.031,17.8a3.855,3.855,0,0,1,2.115.567A3.768,3.768,0,0,1-2.53,19.98a5.8,5.8,0,0,1,.495,2.5,5.708,5.708,0,0,1-.5,2.5,3.828,3.828,0,0,1-1.395,1.611A3.822,3.822,0,0,1-6.031,27.162Zm-.306-1.188a2.6,2.6,0,0,0,2.052-.882,3.852,3.852,0,0,0,.774-2.61,3.889,3.889,0,0,0-.774-2.619,2.584,2.584,0,0,0-2.052-.891,2.557,2.557,0,0,0-2.043.891,3.92,3.92,0,0,0-.765,2.619,3.89,3.89,0,0,0,.765,2.6A2.557,2.557,0,0,0-6.337,25.974ZM.235,27V13.752H1.693V27Zm8.3.162a4.505,4.505,0,0,1-3.348-1.233A4.654,4.654,0,0,1,3.963,22.5a5.356,5.356,0,0,1,.54-2.475,3.992,3.992,0,0,1,1.512-1.638A4.243,4.243,0,0,1,8.247,17.8a3.906,3.906,0,0,1,2.088.522,3.374,3.374,0,0,1,1.3,1.485,5.335,5.335,0,0,1,.45,2.277v.54h-7v-.918h6.048l-.306.234a3.512,3.512,0,0,0-.648-2.25,2.319,2.319,0,0,0-1.926-.81,2.546,2.546,0,0,0-2.106.945,3.963,3.963,0,0,0-.756,2.547v.162A3.569,3.569,0,0,0,6.222,25.1a3.1,3.1,0,0,0,2.349.873,4.672,4.672,0,0,0,1.521-.243,4.135,4.135,0,0,0,1.359-.8l.5,1.026a4.005,4.005,0,0,1-1.5.891A5.813,5.813,0,0,1,8.535,27.162ZM14.314,27V20.052q0-.5-.045-1.035t-.1-1.053h1.4l.18,1.98h-.216A3.034,3.034,0,0,1,18.58,17.8a2.968,2.968,0,0,1,1.845.54,2.76,2.76,0,0,1,.963,1.674h-.27a3.1,3.1,0,0,1,1.206-1.62A3.471,3.471,0,0,1,24.34,17.8a2.846,2.846,0,0,1,2.25.855,3.993,3.993,0,0,1,.756,2.691V27H25.888V21.438a3.071,3.071,0,0,0-.45-1.863A1.7,1.7,0,0,0,24,18.99a2.214,2.214,0,0,0-1.791.783,3.157,3.157,0,0,0-.657,2.1V27H20.092V21.438a3.071,3.071,0,0,0-.45-1.863,1.7,1.7,0,0,0-1.44-.585,2.188,2.188,0,0,0-1.782.783,3.186,3.186,0,0,0-.648,2.1V27Zm19.244.162a3.867,3.867,0,0,1-2.106-.567,3.747,3.747,0,0,1-1.4-1.611,5.8,5.8,0,0,1-.495-2.5,5.844,5.844,0,0,1,.495-2.52,3.688,3.688,0,0,1,1.4-1.6,3.914,3.914,0,0,1,2.106-.558,3.605,3.605,0,0,1,2.115.621,2.92,2.92,0,0,1,1.179,1.683h-.216l.2-2.142h1.4q-.054.522-.1,1.053t-.045,1.035V27H36.636V24.876h.2a2.869,2.869,0,0,1-1.188,1.674A3.624,3.624,0,0,1,33.558,27.162Zm.288-1.188a2.551,2.551,0,0,0,2.052-.891,3.922,3.922,0,0,0,.756-2.6,3.953,3.953,0,0,0-.756-2.619,2.8,2.8,0,0,0-4.1,0,3.92,3.92,0,0,0-.765,2.619,3.89,3.89,0,0,0,.765,2.6A2.557,2.557,0,0,0,33.846,25.974Z" transform="translate(800 1183.188)" fill="#212429" stroke="rgba(0,0,0,0)" stroke-width="1"/>
      <g id="Rectángulo_408088" data-name="Rectángulo 408088" transform="translate(428.901 1242.594)" fill="#fed6c4" stroke="#fd7940" stroke-width="1">
        <rect width="225.07" height="78" rx="10" stroke="none"/>
        <rect x="0.5" y="0.5" width="224.07" height="77" rx="9.5" fill="none"/>
      </g>
      <g id="Rectángulo_408089" data-name="Rectángulo 408089" transform="translate(933.031 1241.768)" fill="#fed6c4" stroke="#fd7940" stroke-width="1">
        <rect width="225.07" height="78" rx="10" stroke="none"/>
        <rect x="0.5" y="0.5" width="224.07" height="77" rx="9.5" fill="none"/>
      </g>
      <path id="Trazado_986636" data-name="Trazado 986636" d="M-53.165,0V-12.69h5.184a4.6,4.6,0,0,1,3.1.945,3.293,3.293,0,0,1,1.1,2.637,3.482,3.482,0,0,1-.5,1.9,3.183,3.183,0,0,1-1.386,1.2,4.888,4.888,0,0,1-2.079.414l.324-.234h.36a2.473,2.473,0,0,1,1.323.36,2.414,2.414,0,0,1,.927,1.206L-43.013,0h-1.638l-1.728-4.194A1.683,1.683,0,0,0-47.3-5.247a4.173,4.173,0,0,0-1.53-.243h-2.844V0Zm1.494-6.66H-48.2a3.346,3.346,0,0,0,2.187-.621,2.2,2.2,0,0,0,.747-1.791,2.17,2.17,0,0,0-.747-1.782,3.381,3.381,0,0,0-2.187-.612h-3.474ZM-37.053.162A4.505,4.505,0,0,1-40.4-1.071,4.654,4.654,0,0,1-41.625-4.5a5.356,5.356,0,0,1,.54-2.475,3.992,3.992,0,0,1,1.512-1.638A4.243,4.243,0,0,1-37.341-9.2a3.907,3.907,0,0,1,2.088.522,3.374,3.374,0,0,1,1.3,1.485,5.335,5.335,0,0,1,.45,2.277v.54h-7v-.918h6.048l-.306.234a3.512,3.512,0,0,0-.648-2.25,2.319,2.319,0,0,0-1.926-.81,2.546,2.546,0,0,0-2.106.945A3.963,3.963,0,0,0-40.2-4.626v.162A3.569,3.569,0,0,0-39.366-1.9a3.1,3.1,0,0,0,2.349.873A4.672,4.672,0,0,0-35.5-1.269a4.135,4.135,0,0,0,1.359-.8l.5,1.026a4.005,4.005,0,0,1-1.5.891A5.813,5.813,0,0,1-37.053.162Zm8.786,0a6.631,6.631,0,0,1-2.016-.3,4.246,4.246,0,0,1-1.548-.837l.5-1.026a4.637,4.637,0,0,0,1.449.774,5.284,5.284,0,0,0,1.629.252,2.826,2.826,0,0,0,1.629-.387,1.239,1.239,0,0,0,.549-1.071,1.07,1.07,0,0,0-.351-.837,2.581,2.581,0,0,0-1.143-.5L-29.239-4.1a3.3,3.3,0,0,1-1.728-.855A2.137,2.137,0,0,1-31.543-6.5a2.4,2.4,0,0,1,.414-1.395,2.784,2.784,0,0,1,1.206-.954A4.543,4.543,0,0,1-28.069-9.2a5.428,5.428,0,0,1,1.827.3,3.677,3.677,0,0,1,1.4.855l-.522,1.008A3.566,3.566,0,0,0-26.6-7.821a4.028,4.028,0,0,0-1.431-.261,2.524,2.524,0,0,0-1.593.423,1.348,1.348,0,0,0-.531,1.107,1.157,1.157,0,0,0,.333.855,2.113,2.113,0,0,0,1.035.495l1.674.342a3.841,3.841,0,0,1,1.827.837,1.988,1.988,0,0,1,.6,1.521,2.3,2.3,0,0,1-.45,1.413,2.849,2.849,0,0,1-1.251.927A5,5,0,0,1-28.267.162Zm9.038,0A2.623,2.623,0,0,1-21.263-.6a3.323,3.323,0,0,1-.7-2.313V-7.9h-1.764V-9.036h1.764V-11.5l1.458-.414v2.88h2.592V-7.9h-2.592v4.824a2.486,2.486,0,0,0,.369,1.539,1.335,1.335,0,0,0,1.107.459,2.7,2.7,0,0,0,.612-.063,3.092,3.092,0,0,0,.486-.153V-.072a2.791,2.791,0,0,1-.6.171A3.917,3.917,0,0,1-19.229.162ZM-16.168,0V-6.858q0-.54-.027-1.1t-.081-1.08h1.4l.18,2.2-.252.018a3,3,0,0,1,.63-1.332,2.881,2.881,0,0,1,1.062-.783A3.225,3.225,0,0,1-11.974-9.2q.27,0,.477.018a1.351,1.351,0,0,1,.387.09l-.018,1.3a2.536,2.536,0,0,0-.495-.117,4.347,4.347,0,0,0-.513-.027,2.481,2.481,0,0,0-1.377.378,2.448,2.448,0,0,0-.882.972,2.78,2.78,0,0,0-.3,1.26V0ZM-9.6,0V-9.036h1.458V0Zm-.18-11.088v-1.638h1.8v1.638ZM-1.512.162A4.486,4.486,0,0,1-3.825-.414,3.845,3.845,0,0,1-5.337-2.052a5.575,5.575,0,0,1-.531-2.52,5.372,5.372,0,0,1,.54-2.511A3.708,3.708,0,0,1-3.807-8.658,4.685,4.685,0,0,1-1.512-9.2a4.772,4.772,0,0,1,1.683.306,3.62,3.62,0,0,1,1.359.864L1.008-6.984A3.585,3.585,0,0,0-.171-7.758,3.4,3.4,0,0,0-1.422-8.01,2.744,2.744,0,0,0-3.6-7.128a3.792,3.792,0,0,0-.774,2.574A3.908,3.908,0,0,0-3.6-1.962a2.692,2.692,0,0,0,2.178.918A3.579,3.579,0,0,0-.189-1.278a3.41,3.41,0,0,0,1.2-.774L1.53-1.026A3.665,3.665,0,0,1,.144-.144,4.749,4.749,0,0,1-1.512.162Zm8.732,0A4.486,4.486,0,0,1,4.907-.414,3.845,3.845,0,0,1,3.395-2.052a5.575,5.575,0,0,1-.531-2.52A5.372,5.372,0,0,1,3.4-7.083,3.708,3.708,0,0,1,4.925-8.658,4.685,4.685,0,0,1,7.22-9.2,4.772,4.772,0,0,1,8.9-8.892a3.62,3.62,0,0,1,1.359.864L9.74-6.984a3.585,3.585,0,0,0-1.179-.774A3.4,3.4,0,0,0,7.31-8.01a2.744,2.744,0,0,0-2.178.882,3.792,3.792,0,0,0-.774,2.574,3.908,3.908,0,0,0,.774,2.592,2.692,2.692,0,0,0,2.178.918,3.579,3.579,0,0,0,1.233-.234,3.41,3.41,0,0,0,1.2-.774l.522,1.026a3.665,3.665,0,0,1-1.386.882A4.749,4.749,0,0,1,7.22.162ZM12.334,0V-9.036h1.458V0Zm-.18-11.088v-1.638h1.8v1.638ZM20.327.162a4.371,4.371,0,0,1-2.259-.567,3.776,3.776,0,0,1-1.485-1.62,5.554,5.554,0,0,1-.522-2.493,5.541,5.541,0,0,1,.522-2.5,3.787,3.787,0,0,1,1.485-1.611A4.371,4.371,0,0,1,20.327-9.2a4.407,4.407,0,0,1,2.277.567A3.844,3.844,0,0,1,24.1-7.02a5.461,5.461,0,0,1,.531,2.5A5.475,5.475,0,0,1,24.1-2.025,3.833,3.833,0,0,1,22.6-.405,4.407,4.407,0,0,1,20.327.162Zm0-1.188a2.551,2.551,0,0,0,2.052-.891,3.922,3.922,0,0,0,.756-2.6,3.92,3.92,0,0,0-.765-2.619,2.557,2.557,0,0,0-2.043-.891,2.531,2.531,0,0,0-2.034.891,3.953,3.953,0,0,0-.756,2.619,3.922,3.922,0,0,0,.756,2.6A2.531,2.531,0,0,0,20.327-1.026ZM26.9,0V-6.948q0-.5-.045-1.035t-.1-1.053h1.4l.18,1.98h-.216a3.127,3.127,0,0,1,1.269-1.593A3.723,3.723,0,0,1,31.417-9.2a3.2,3.2,0,0,1,2.421.855,3.781,3.781,0,0,1,.819,2.691V0H33.2V-5.562a2.787,2.787,0,0,0-.513-1.863,2.01,2.01,0,0,0-1.593-.585,2.63,2.63,0,0,0-2,.774,2.875,2.875,0,0,0-.738,2.07V0ZM41.463.162a4.505,4.505,0,0,1-3.348-1.233A4.654,4.654,0,0,1,36.891-4.5a5.356,5.356,0,0,1,.54-2.475,3.992,3.992,0,0,1,1.512-1.638A4.243,4.243,0,0,1,41.175-9.2a3.907,3.907,0,0,1,2.088.522,3.374,3.374,0,0,1,1.3,1.485,5.335,5.335,0,0,1,.45,2.277v.54h-7v-.918h6.048l-.306.234a3.512,3.512,0,0,0-.648-2.25,2.319,2.319,0,0,0-1.926-.81,2.546,2.546,0,0,0-2.106.945,3.963,3.963,0,0,0-.756,2.547v.162A3.569,3.569,0,0,0,39.15-1.9a3.1,3.1,0,0,0,2.349.873,4.672,4.672,0,0,0,1.521-.243,4.135,4.135,0,0,0,1.359-.8l.5,1.026a4.005,4.005,0,0,1-1.5.891A5.813,5.813,0,0,1,41.463.162Zm8.786,0a6.631,6.631,0,0,1-2.016-.3,4.246,4.246,0,0,1-1.548-.837L47.189-2a4.637,4.637,0,0,0,1.449.774,5.284,5.284,0,0,0,1.629.252A2.826,2.826,0,0,0,51.9-1.359a1.239,1.239,0,0,0,.549-1.071,1.07,1.07,0,0,0-.351-.837,2.581,2.581,0,0,0-1.143-.5L49.277-4.1a3.3,3.3,0,0,1-1.728-.855A2.137,2.137,0,0,1,46.973-6.5a2.4,2.4,0,0,1,.414-1.395,2.784,2.784,0,0,1,1.206-.954A4.543,4.543,0,0,1,50.447-9.2a5.428,5.428,0,0,1,1.827.3,3.677,3.677,0,0,1,1.4.855l-.522,1.008a3.566,3.566,0,0,0-1.233-.783,4.028,4.028,0,0,0-1.431-.261,2.524,2.524,0,0,0-1.593.423,1.348,1.348,0,0,0-.531,1.107,1.157,1.157,0,0,0,.333.855,2.113,2.113,0,0,0,1.035.495L51.4-4.86a3.841,3.841,0,0,1,1.827.837,1.988,1.988,0,0,1,.6,1.521,2.3,2.3,0,0,1-.45,1.413,2.849,2.849,0,0,1-1.251.927A5,5,0,0,1,50.249.162Z" transform="translate(541.901 1287.268)" fill="#212429" stroke="rgba(0,0,0,0)" stroke-width="1"/>
      <path id="Trazado_986637" data-name="Trazado 986637" d="M-61.392,0V-12.69h4.212a7.91,7.91,0,0,1,3.564.729A4.966,4.966,0,0,1-51.4-9.819a7.268,7.268,0,0,1,.756,3.465A7.281,7.281,0,0,1-51.4-2.9a5,5,0,0,1-2.214,2.16A7.828,7.828,0,0,1-57.18,0ZM-59.9-1.278h2.61a5.219,5.219,0,0,0,3.852-1.269,5.193,5.193,0,0,0,1.26-3.807,5.188,5.188,0,0,0-1.26-3.816,5.243,5.243,0,0,0-3.852-1.26H-59.9ZM-44.092.162A4.505,4.505,0,0,1-47.44-1.071,4.654,4.654,0,0,1-48.664-4.5a5.356,5.356,0,0,1,.54-2.475,3.992,3.992,0,0,1,1.512-1.638A4.243,4.243,0,0,1-44.38-9.2a3.907,3.907,0,0,1,2.088.522A3.374,3.374,0,0,1-41-7.191a5.335,5.335,0,0,1,.45,2.277v.54h-7v-.918H-41.5l-.306.234a3.512,3.512,0,0,0-.648-2.25,2.319,2.319,0,0,0-1.926-.81,2.546,2.546,0,0,0-2.106.945,3.963,3.963,0,0,0-.756,2.547v.162A3.569,3.569,0,0,0-46.4-1.9a3.1,3.1,0,0,0,2.349.873,4.672,4.672,0,0,0,1.521-.243,4.135,4.135,0,0,0,1.359-.8l.5,1.026a4.005,4.005,0,0,1-1.5.891A5.813,5.813,0,0,1-44.092.162Zm8.984,0A2.623,2.623,0,0,1-37.142-.6a3.323,3.323,0,0,1-.7-2.313V-7.9h-1.764V-9.036h1.764V-11.5l1.458-.414v2.88h2.592V-7.9h-2.592v4.824a2.486,2.486,0,0,0,.369,1.539,1.335,1.335,0,0,0,1.107.459,2.7,2.7,0,0,0,.612-.063,3.092,3.092,0,0,0,.486-.153V-.072a2.791,2.791,0,0,1-.6.171A3.917,3.917,0,0,1-35.108.162Zm7.022,0a4.505,4.505,0,0,1-3.348-1.233A4.654,4.654,0,0,1-32.658-4.5a5.356,5.356,0,0,1,.54-2.475,3.992,3.992,0,0,1,1.512-1.638A4.243,4.243,0,0,1-28.374-9.2a3.907,3.907,0,0,1,2.088.522,3.374,3.374,0,0,1,1.3,1.485,5.335,5.335,0,0,1,.45,2.277v.54h-7v-.918h6.048l-.306.234a3.512,3.512,0,0,0-.648-2.25,2.319,2.319,0,0,0-1.926-.81,2.546,2.546,0,0,0-2.106.945,3.963,3.963,0,0,0-.756,2.547v.162A3.569,3.569,0,0,0-30.4-1.9a3.1,3.1,0,0,0,2.349.873,4.672,4.672,0,0,0,1.521-.243,4.135,4.135,0,0,0,1.359-.8l.5,1.026a4.005,4.005,0,0,1-1.5.891A5.813,5.813,0,0,1-28.086.162ZM-22.343,0V-6.858q0-.54-.027-1.1t-.081-1.08h1.4l.18,2.2-.252.018a3,3,0,0,1,.63-1.332,2.881,2.881,0,0,1,1.062-.783A3.225,3.225,0,0,1-18.149-9.2q.27,0,.477.018a1.351,1.351,0,0,1,.387.09l-.018,1.3a2.536,2.536,0,0,0-.495-.117,4.347,4.347,0,0,0-.513-.027,2.481,2.481,0,0,0-1.377.378,2.448,2.448,0,0,0-.882.972,2.78,2.78,0,0,0-.3,1.26V0Zm6.572,0V-6.948q0-.5-.045-1.035t-.1-1.053h1.4l.18,1.98h-.216A3.166,3.166,0,0,1-13.4-8.64,3.187,3.187,0,0,1-11.5-9.2a2.968,2.968,0,0,1,1.845.54A2.76,2.76,0,0,1-8.7-6.984h-.27A3.1,3.1,0,0,1-7.761-8.6,3.471,3.471,0,0,1-5.745-9.2a2.846,2.846,0,0,1,2.25.855,3.993,3.993,0,0,1,.756,2.691V0H-4.2V-5.562a3.071,3.071,0,0,0-.45-1.863,1.7,1.7,0,0,0-1.44-.585,2.214,2.214,0,0,0-1.791.783,3.157,3.157,0,0,0-.657,2.1V0H-9.993V-5.562a3.071,3.071,0,0,0-.45-1.863,1.7,1.7,0,0,0-1.44-.585,2.188,2.188,0,0,0-1.782.783,3.186,3.186,0,0,0-.648,2.1V0ZM.035,0V-9.036H1.493V0Zm-.18-11.088v-1.638h1.8v1.638ZM4.321,0V-6.948q0-.5-.045-1.035t-.1-1.053h1.4l.18,1.98H5.545A3.127,3.127,0,0,1,6.814-8.649,3.723,3.723,0,0,1,8.839-9.2a3.2,3.2,0,0,1,2.421.855,3.781,3.781,0,0,1,.819,2.691V0H10.621V-5.562a2.787,2.787,0,0,0-.513-1.863A2.01,2.01,0,0,0,8.515-8.01a2.63,2.63,0,0,0-2,.774,2.875,2.875,0,0,0-.738,2.07V0ZM18.309.162A3.867,3.867,0,0,1,16.2-.405a3.747,3.747,0,0,1-1.395-1.611,5.8,5.8,0,0,1-.495-2.5,5.844,5.844,0,0,1,.495-2.52A3.688,3.688,0,0,1,16.2-8.64,3.914,3.914,0,0,1,18.309-9.2a3.605,3.605,0,0,1,2.115.621A2.92,2.92,0,0,1,21.6-6.894h-.216l.2-2.142h1.4q-.054.522-.1,1.053t-.045,1.035V0H21.387V-2.124h.2A2.869,2.869,0,0,1,20.4-.45,3.624,3.624,0,0,1,18.309.162ZM18.6-1.026a2.551,2.551,0,0,0,2.052-.891,3.922,3.922,0,0,0,.756-2.6,3.953,3.953,0,0,0-.756-2.619A2.551,2.551,0,0,0,18.6-8.028a2.557,2.557,0,0,0-2.043.891,3.92,3.92,0,0,0-.765,2.619,3.89,3.89,0,0,0,.765,2.6A2.557,2.557,0,0,0,18.6-1.026ZM29.47.162a4.486,4.486,0,0,1-2.313-.576,3.845,3.845,0,0,1-1.512-1.638,5.575,5.575,0,0,1-.531-2.52,5.372,5.372,0,0,1,.54-2.511,3.708,3.708,0,0,1,1.521-1.575,4.685,4.685,0,0,1,2.3-.54,4.772,4.772,0,0,1,1.683.306,3.62,3.62,0,0,1,1.359.864L31.99-6.984a3.585,3.585,0,0,0-1.179-.774A3.4,3.4,0,0,0,29.56-8.01a2.744,2.744,0,0,0-2.178.882,3.792,3.792,0,0,0-.774,2.574,3.908,3.908,0,0,0,.774,2.592,2.692,2.692,0,0,0,2.178.918,3.579,3.579,0,0,0,1.233-.234,3.41,3.41,0,0,0,1.2-.774l.522,1.026a3.665,3.665,0,0,1-1.386.882A4.749,4.749,0,0,1,29.47.162ZM34.584,0V-9.036h1.458V0ZM34.4-11.088v-1.638h1.8v1.638ZM42.578.162a4.371,4.371,0,0,1-2.259-.567,3.776,3.776,0,0,1-1.485-1.62,5.554,5.554,0,0,1-.522-2.493,5.541,5.541,0,0,1,.522-2.5,3.787,3.787,0,0,1,1.485-1.611A4.371,4.371,0,0,1,42.578-9.2a4.407,4.407,0,0,1,2.277.567A3.844,3.844,0,0,1,46.349-7.02a5.461,5.461,0,0,1,.531,2.5,5.475,5.475,0,0,1-.531,2.493,3.833,3.833,0,0,1-1.494,1.62A4.407,4.407,0,0,1,42.578.162Zm0-1.188a2.551,2.551,0,0,0,2.052-.891,3.922,3.922,0,0,0,.756-2.6,3.92,3.92,0,0,0-.765-2.619,2.557,2.557,0,0,0-2.043-.891,2.531,2.531,0,0,0-2.034.891,3.953,3.953,0,0,0-.756,2.619,3.922,3.922,0,0,0,.756,2.6A2.531,2.531,0,0,0,42.578-1.026Zm-.5-8.892,1.854-3.636h1.566L43.118-9.918ZM49.15,0V-6.948q0-.5-.045-1.035t-.1-1.053h1.4l.18,1.98h-.216a3.127,3.127,0,0,1,1.269-1.593A3.723,3.723,0,0,1,53.668-9.2a3.2,3.2,0,0,1,2.421.855,3.781,3.781,0,0,1,.819,2.691V0H55.45V-5.562a2.787,2.787,0,0,0-.513-1.863,2.01,2.01,0,0,0-1.593-.585,2.63,2.63,0,0,0-2,.774,2.875,2.875,0,0,0-.738,2.07V0ZM-45,27.162a3.834,3.834,0,0,1-2.088-.567,3.747,3.747,0,0,1-1.4-1.611,5.8,5.8,0,0,1-.5-2.5,5.844,5.844,0,0,1,.5-2.52,3.688,3.688,0,0,1,1.4-1.6A3.88,3.88,0,0,1-45,17.8a3.643,3.643,0,0,1,2.115.612,2.962,2.962,0,0,1,1.2,1.656H-41.9V13.752h1.458V27h-1.44V24.84h.2a2.911,2.911,0,0,1-1.188,1.7A3.647,3.647,0,0,1-45,27.162Zm.306-1.188a2.584,2.584,0,0,0,2.052-.891,3.859,3.859,0,0,0,.774-2.6,3.889,3.889,0,0,0-.774-2.619,2.584,2.584,0,0,0-2.052-.891,2.557,2.557,0,0,0-2.043.891,3.92,3.92,0,0,0-.765,2.619,3.89,3.89,0,0,0,.765,2.6A2.557,2.557,0,0,0-44.695,25.974Zm11.09,1.188a4.505,4.505,0,0,1-3.348-1.233A4.654,4.654,0,0,1-38.177,22.5a5.356,5.356,0,0,1,.54-2.475,3.992,3.992,0,0,1,1.512-1.638,4.243,4.243,0,0,1,2.232-.585,3.907,3.907,0,0,1,2.088.522,3.374,3.374,0,0,1,1.3,1.485,5.335,5.335,0,0,1,.45,2.277v.54h-7v-.918h6.048l-.306.234a3.512,3.512,0,0,0-.648-2.25,2.319,2.319,0,0,0-1.926-.81A2.546,2.546,0,0,0-36,19.827a3.963,3.963,0,0,0-.756,2.547v.162a3.569,3.569,0,0,0,.837,2.565,3.1,3.1,0,0,0,2.349.873,4.672,4.672,0,0,0,1.521-.243,4.135,4.135,0,0,0,1.359-.8l.5,1.026a4.005,4.005,0,0,1-1.5.891A5.813,5.813,0,0,1-33.605,27.162Zm14.188,0a4.371,4.371,0,0,1-2.259-.567,3.776,3.776,0,0,1-1.485-1.62,5.554,5.554,0,0,1-.522-2.493,5.541,5.541,0,0,1,.522-2.5,3.787,3.787,0,0,1,1.485-1.611,4.371,4.371,0,0,1,2.259-.567,4.407,4.407,0,0,1,2.277.567,3.844,3.844,0,0,1,1.494,1.611,5.461,5.461,0,0,1,.531,2.5,5.475,5.475,0,0,1-.531,2.493,3.833,3.833,0,0,1-1.494,1.62A4.407,4.407,0,0,1-19.417,27.162Zm0-1.188a2.551,2.551,0,0,0,2.052-.891,3.922,3.922,0,0,0,.756-2.6,3.92,3.92,0,0,0-.765-2.619,2.557,2.557,0,0,0-2.043-.891,2.531,2.531,0,0,0-2.034.891,3.953,3.953,0,0,0-.756,2.619,3.922,3.922,0,0,0,.756,2.6A2.531,2.531,0,0,0-19.417,25.974ZM-8.31,27.162a3.564,3.564,0,0,1-2.106-.621,3.02,3.02,0,0,1-1.188-1.7h.2V27h-1.44V13.752h1.458V20.07H-11.6a2.975,2.975,0,0,1,1.188-1.656A3.6,3.6,0,0,1-8.31,17.8a3.855,3.855,0,0,1,2.115.567A3.768,3.768,0,0,1-4.809,19.98a5.8,5.8,0,0,1,.495,2.5,5.708,5.708,0,0,1-.5,2.5,3.828,3.828,0,0,1-1.395,1.611A3.822,3.822,0,0,1-8.31,27.162Zm-.306-1.188a2.6,2.6,0,0,0,2.052-.882,3.852,3.852,0,0,0,.774-2.61,3.889,3.889,0,0,0-.774-2.619,2.584,2.584,0,0,0-2.052-.891,2.557,2.557,0,0,0-2.043.891,3.92,3.92,0,0,0-.765,2.619,3.89,3.89,0,0,0,.765,2.6A2.557,2.557,0,0,0-8.616,25.974Zm5.384,4.986a3.96,3.96,0,0,1-.63-.063,3.732,3.732,0,0,1-.63-.153V29.52a4.966,4.966,0,0,0,.5.135,2.534,2.534,0,0,0,.54.063,1.333,1.333,0,0,0,1.125-.477,2.572,2.572,0,0,0,.369-1.557v-9.72H-.5v9.864a3.524,3.524,0,0,1-.675,2.34A2.559,2.559,0,0,1-3.232,30.96Zm1.116-15.048V14.274H-.334v1.638Zm8.372,11.25a4.505,4.505,0,0,1-3.348-1.233A4.654,4.654,0,0,1,1.684,22.5a5.356,5.356,0,0,1,.54-2.475,3.992,3.992,0,0,1,1.512-1.638A4.243,4.243,0,0,1,5.968,17.8a3.906,3.906,0,0,1,2.088.522,3.374,3.374,0,0,1,1.3,1.485,5.335,5.335,0,0,1,.45,2.277v.54h-7v-.918H8.848l-.306.234a3.512,3.512,0,0,0-.648-2.25,2.319,2.319,0,0,0-1.926-.81,2.546,2.546,0,0,0-2.106.945,3.963,3.963,0,0,0-.756,2.547v.162A3.569,3.569,0,0,0,3.943,25.1a3.1,3.1,0,0,0,2.349.873,4.672,4.672,0,0,0,1.521-.243,4.135,4.135,0,0,0,1.359-.8l.5,1.026a4.005,4.005,0,0,1-1.5.891A5.813,5.813,0,0,1,6.256,27.162Zm8.984,0a2.623,2.623,0,0,1-2.034-.765,3.323,3.323,0,0,1-.7-2.313V19.1H10.74V17.964H12.5V15.5l1.458-.414v2.88h2.592V19.1H13.962v4.824a2.486,2.486,0,0,0,.369,1.539,1.335,1.335,0,0,0,1.107.459,2.7,2.7,0,0,0,.612-.063,3.093,3.093,0,0,0,.486-.153v1.224a2.791,2.791,0,0,1-.6.171A3.917,3.917,0,0,1,15.24,27.162Zm3.1-.162V17.964H19.8V27Zm-.18-11.088V14.274h1.8v1.638ZM25.287,27l-3.87-9.036H23l3.24,7.956h-.486l3.276-7.956h1.512L26.673,27Zm10.478.162a4.371,4.371,0,0,1-2.259-.567,3.776,3.776,0,0,1-1.485-1.62,5.554,5.554,0,0,1-.522-2.493,5.541,5.541,0,0,1,.522-2.5,3.787,3.787,0,0,1,1.485-1.611,4.819,4.819,0,0,1,4.536,0,3.844,3.844,0,0,1,1.494,1.611,5.461,5.461,0,0,1,.531,2.5,5.475,5.475,0,0,1-.531,2.493,3.833,3.833,0,0,1-1.494,1.62A4.407,4.407,0,0,1,35.765,27.162Zm0-1.188a2.551,2.551,0,0,0,2.052-.891,3.922,3.922,0,0,0,.756-2.6,3.92,3.92,0,0,0-.765-2.619,2.557,2.557,0,0,0-2.043-.891,2.531,2.531,0,0,0-2.034.891,3.953,3.953,0,0,0-.756,2.619,3.922,3.922,0,0,0,.756,2.6A2.531,2.531,0,0,0,35.765,25.974Zm9.578,1.188a6.631,6.631,0,0,1-2.016-.3,4.246,4.246,0,0,1-1.548-.837l.5-1.026a4.637,4.637,0,0,0,1.449.774,5.284,5.284,0,0,0,1.629.252,2.826,2.826,0,0,0,1.629-.387,1.239,1.239,0,0,0,.549-1.071,1.07,1.07,0,0,0-.351-.837,2.581,2.581,0,0,0-1.143-.5L44.371,22.9a3.3,3.3,0,0,1-1.728-.855,2.137,2.137,0,0,1-.576-1.539,2.4,2.4,0,0,1,.414-1.395,2.784,2.784,0,0,1,1.206-.954,4.543,4.543,0,0,1,1.854-.351,5.428,5.428,0,0,1,1.827.3,3.677,3.677,0,0,1,1.4.855l-.522,1.008a3.566,3.566,0,0,0-1.233-.783,4.028,4.028,0,0,0-1.431-.261,2.524,2.524,0,0,0-1.593.423,1.348,1.348,0,0,0-.531,1.107,1.157,1.157,0,0,0,.333.855,2.113,2.113,0,0,0,1.035.5l1.674.342a3.841,3.841,0,0,1,1.827.837,1.988,1.988,0,0,1,.6,1.521,2.3,2.3,0,0,1-.45,1.413,2.849,2.849,0,0,1-1.251.927A5,5,0,0,1,45.343,27.162Z" transform="translate(1046.033 1273.594)" fill="#212429" stroke="rgba(0,0,0,0)" stroke-width="1"/>
      <path id="Trazado_985543" data-name="Trazado 985543" d="M3163.533,781.536v273.249" transform="translate(-2363.033 565.829)" fill="none" stroke="#477a7a" stroke-width="1"/>
      <rect id="Rectángulo_408090" data-name="Rectángulo 408090" width="225.07" height="78" rx="10" transform="translate(687 1374.942)" fill="#82e0e0"/>
      <rect id="Rectángulo_408091" data-name="Rectángulo 408091" width="225.07" height="78" rx="10" transform="translate(687 1517)" fill="#82e0e0"/>
      <rect id="Rectángulo_408092" data-name="Rectángulo 408092" width="225.07" height="78" rx="10" transform="translate(687 1617)" fill="#82e0e0"/>
      <path id="Trazado_986638" data-name="Trazado 986638" d="M-86.561-6.354a7.967,7.967,0,0,1,.693-3.465,5.152,5.152,0,0,1,2-2.241,5.942,5.942,0,0,1,3.141-.792,5.882,5.882,0,0,1,3.1.792,5.247,5.247,0,0,1,2.025,2.241A7.75,7.75,0,0,1-74.9-6.372a7.77,7.77,0,0,1-.72,3.474A5.372,5.372,0,0,1-77.642-.639a5.784,5.784,0,0,1-3.087.8,5.843,5.843,0,0,1-3.132-.8,5.275,5.275,0,0,1-2-2.259A7.894,7.894,0,0,1-86.561-6.354Zm1.566,0a6.055,6.055,0,0,0,1.08,3.825,3.8,3.8,0,0,0,3.186,1.377,3.83,3.83,0,0,0,3.141-1.377,5.883,5.883,0,0,0,1.125-3.825,5.871,5.871,0,0,0-1.116-3.825,3.847,3.847,0,0,0-3.15-1.359,3.825,3.825,0,0,0-3.186,1.359A6.009,6.009,0,0,0-85-6.354ZM-72.357,3.888V-6.948q0-.5-.045-1.035t-.1-1.053h1.4l.2,2.142h-.216a2.933,2.933,0,0,1,1.17-1.683A3.564,3.564,0,0,1-67.839-9.2a3.9,3.9,0,0,1,2.115.558,3.766,3.766,0,0,1,1.395,1.6,5.754,5.754,0,0,1,.5,2.52,5.8,5.8,0,0,1-.495,2.5A3.747,3.747,0,0,1-65.715-.405a3.9,3.9,0,0,1-2.124.567A3.571,3.571,0,0,1-69.927-.45,2.894,2.894,0,0,1-71.1-2.124h.2V3.888Zm4.23-4.914a2.577,2.577,0,0,0,2.061-.891,3.89,3.89,0,0,0,.765-2.6,3.92,3.92,0,0,0-.765-2.619,2.577,2.577,0,0,0-2.061-.891,2.557,2.557,0,0,0-2.043.891,3.92,3.92,0,0,0-.765,2.619,3.89,3.89,0,0,0,.765,2.6A2.557,2.557,0,0,0-68.127-1.026ZM-57.757.162A4.486,4.486,0,0,1-60.07-.414a3.845,3.845,0,0,1-1.512-1.638,5.575,5.575,0,0,1-.531-2.52,5.372,5.372,0,0,1,.54-2.511,3.708,3.708,0,0,1,1.521-1.575,4.685,4.685,0,0,1,2.3-.54,4.772,4.772,0,0,1,1.683.306,3.62,3.62,0,0,1,1.359.864l-.522,1.044a3.585,3.585,0,0,0-1.179-.774,3.4,3.4,0,0,0-1.251-.252,2.744,2.744,0,0,0-2.178.882,3.792,3.792,0,0,0-.774,2.574,3.908,3.908,0,0,0,.774,2.592,2.692,2.692,0,0,0,2.178.918,3.579,3.579,0,0,0,1.233-.234,3.41,3.41,0,0,0,1.2-.774l.522,1.026A3.665,3.665,0,0,1-56.1-.144,4.749,4.749,0,0,1-57.757.162ZM-52.644,0V-9.036h1.458V0Zm-.18-11.088v-1.638h1.8v1.638ZM-44.65.162a4.371,4.371,0,0,1-2.259-.567,3.776,3.776,0,0,1-1.485-1.62,5.554,5.554,0,0,1-.522-2.493,5.541,5.541,0,0,1,.522-2.5,3.787,3.787,0,0,1,1.485-1.611A4.371,4.371,0,0,1-44.65-9.2a4.407,4.407,0,0,1,2.277.567A3.844,3.844,0,0,1-40.879-7.02a5.461,5.461,0,0,1,.531,2.5,5.475,5.475,0,0,1-.531,2.493,3.833,3.833,0,0,1-1.494,1.62A4.407,4.407,0,0,1-44.65.162Zm0-1.188A2.551,2.551,0,0,0-42.6-1.917a3.922,3.922,0,0,0,.756-2.6,3.92,3.92,0,0,0-.765-2.619,2.557,2.557,0,0,0-2.043-.891,2.531,2.531,0,0,0-2.034.891,3.953,3.953,0,0,0-.756,2.619,3.922,3.922,0,0,0,.756,2.6A2.531,2.531,0,0,0-44.65-1.026ZM-38.078,0V-6.948q0-.5-.045-1.035t-.1-1.053h1.4l.18,1.98h-.216a3.127,3.127,0,0,1,1.269-1.593A3.723,3.723,0,0,1-33.56-9.2a3.2,3.2,0,0,1,2.421.855,3.781,3.781,0,0,1,.819,2.691V0h-1.458V-5.562a2.787,2.787,0,0,0-.513-1.863,2.01,2.01,0,0,0-1.593-.585,2.63,2.63,0,0,0-2,.774,2.875,2.875,0,0,0-.738,2.07V0Zm14.564.162a4.505,4.505,0,0,1-3.348-1.233A4.654,4.654,0,0,1-28.086-4.5a5.356,5.356,0,0,1,.54-2.475,3.992,3.992,0,0,1,1.512-1.638A4.243,4.243,0,0,1-23.8-9.2a3.907,3.907,0,0,1,2.088.522,3.374,3.374,0,0,1,1.3,1.485,5.335,5.335,0,0,1,.45,2.277v.54h-7v-.918h6.048l-.306.234a3.512,3.512,0,0,0-.648-2.25,2.319,2.319,0,0,0-1.926-.81,2.546,2.546,0,0,0-2.106.945,3.963,3.963,0,0,0-.756,2.547v.162A3.569,3.569,0,0,0-25.827-1.9a3.1,3.1,0,0,0,2.349.873,4.672,4.672,0,0,0,1.521-.243,4.135,4.135,0,0,0,1.359-.8l.5,1.026a4.005,4.005,0,0,1-1.5.891A5.813,5.813,0,0,1-23.514.162Zm8.786,0a6.631,6.631,0,0,1-2.016-.3,4.246,4.246,0,0,1-1.548-.837l.5-1.026a4.637,4.637,0,0,0,1.449.774,5.284,5.284,0,0,0,1.629.252,2.826,2.826,0,0,0,1.629-.387,1.239,1.239,0,0,0,.549-1.071,1.07,1.07,0,0,0-.351-.837,2.581,2.581,0,0,0-1.143-.5L-15.7-4.1a3.3,3.3,0,0,1-1.728-.855A2.137,2.137,0,0,1-18-6.5a2.4,2.4,0,0,1,.414-1.395,2.784,2.784,0,0,1,1.206-.954A4.543,4.543,0,0,1-14.531-9.2a5.428,5.428,0,0,1,1.827.3,3.677,3.677,0,0,1,1.395.855l-.522,1.008a3.566,3.566,0,0,0-1.233-.783,4.028,4.028,0,0,0-1.431-.261,2.524,2.524,0,0,0-1.593.423,1.348,1.348,0,0,0-.531,1.107,1.157,1.157,0,0,0,.333.855,2.113,2.113,0,0,0,1.035.495l1.674.342a3.841,3.841,0,0,1,1.827.837,1.988,1.988,0,0,1,.6,1.521,2.3,2.3,0,0,1-.45,1.413,2.849,2.849,0,0,1-1.251.927A5,5,0,0,1-14.729.162Zm14.044,0A3.834,3.834,0,0,1-2.773-.405,3.747,3.747,0,0,1-4.168-2.016a5.8,5.8,0,0,1-.5-2.5,5.844,5.844,0,0,1,.5-2.52,3.688,3.688,0,0,1,1.395-1.6A3.88,3.88,0,0,1-.685-9.2a3.643,3.643,0,0,1,2.115.612,2.962,2.962,0,0,1,1.2,1.656H2.411v-6.318H3.869V0H2.429V-2.16h.2a2.911,2.911,0,0,1-1.188,1.7A3.647,3.647,0,0,1-.685.162Zm.306-1.188a2.584,2.584,0,0,0,2.052-.891,3.859,3.859,0,0,0,.774-2.6,3.889,3.889,0,0,0-.774-2.619A2.584,2.584,0,0,0-.379-8.028a2.557,2.557,0,0,0-2.043.891,3.92,3.92,0,0,0-.765,2.619,3.89,3.89,0,0,0,.765,2.6A2.557,2.557,0,0,0-.379-1.026ZM10.711.162A4.505,4.505,0,0,1,7.363-1.071,4.654,4.654,0,0,1,6.139-4.5a5.356,5.356,0,0,1,.54-2.475A3.992,3.992,0,0,1,8.191-8.613,4.243,4.243,0,0,1,10.423-9.2a3.907,3.907,0,0,1,2.088.522,3.374,3.374,0,0,1,1.3,1.485,5.335,5.335,0,0,1,.45,2.277v.54h-7v-.918H13.3L13-5.058a3.512,3.512,0,0,0-.648-2.25,2.319,2.319,0,0,0-1.926-.81,2.546,2.546,0,0,0-2.106.945,3.963,3.963,0,0,0-.756,2.547v.162A3.569,3.569,0,0,0,8.4-1.9a3.1,3.1,0,0,0,2.349.873,4.672,4.672,0,0,0,1.521-.243,4.135,4.135,0,0,0,1.359-.8l.5,1.026a4.005,4.005,0,0,1-1.5.891A5.813,5.813,0,0,1,10.711.162ZM24.2.162a6.631,6.631,0,0,1-2.016-.3,4.246,4.246,0,0,1-1.548-.837L21.137-2a4.637,4.637,0,0,0,1.449.774,5.284,5.284,0,0,0,1.629.252,2.826,2.826,0,0,0,1.629-.387,1.239,1.239,0,0,0,.549-1.071,1.07,1.07,0,0,0-.351-.837,2.581,2.581,0,0,0-1.143-.5L23.225-4.1A3.3,3.3,0,0,1,21.5-4.959,2.137,2.137,0,0,1,20.921-6.5a2.4,2.4,0,0,1,.414-1.395,2.784,2.784,0,0,1,1.206-.954A4.543,4.543,0,0,1,24.395-9.2a5.428,5.428,0,0,1,1.827.3,3.677,3.677,0,0,1,1.4.855l-.522,1.008a3.566,3.566,0,0,0-1.233-.783,4.028,4.028,0,0,0-1.431-.261,2.524,2.524,0,0,0-1.593.423,1.348,1.348,0,0,0-.531,1.107,1.157,1.157,0,0,0,.333.855,2.113,2.113,0,0,0,1.035.495l1.674.342a3.841,3.841,0,0,1,1.827.837,1.988,1.988,0,0,1,.6,1.521,2.3,2.3,0,0,1-.45,1.413,2.849,2.849,0,0,1-1.251.927A5,5,0,0,1,24.2.162Zm9.632,0a4.371,4.371,0,0,1-2.259-.567,3.776,3.776,0,0,1-1.485-1.62,5.554,5.554,0,0,1-.522-2.493,5.541,5.541,0,0,1,.522-2.5,3.787,3.787,0,0,1,1.485-1.611A4.371,4.371,0,0,1,33.828-9.2a4.407,4.407,0,0,1,2.277.567A3.844,3.844,0,0,1,37.6-7.02a5.461,5.461,0,0,1,.531,2.5A5.475,5.475,0,0,1,37.6-2.025a3.833,3.833,0,0,1-1.494,1.62A4.407,4.407,0,0,1,33.828.162Zm0-1.188a2.551,2.551,0,0,0,2.052-.891,3.922,3.922,0,0,0,.756-2.6,3.92,3.92,0,0,0-.765-2.619,2.557,2.557,0,0,0-2.043-.891,2.531,2.531,0,0,0-2.034.891,3.953,3.953,0,0,0-.756,2.619,3.922,3.922,0,0,0,.756,2.6A2.531,2.531,0,0,0,33.828-1.026ZM40.4,0V-13.248h1.458V0Zm7.472.162A3.144,3.144,0,0,1,45.451-.72a3.855,3.855,0,0,1-.819-2.7V-9.036H46.09v5.58a2.757,2.757,0,0,0,.5,1.827,1.957,1.957,0,0,0,1.566.585,2.482,2.482,0,0,0,1.908-.774,2.918,2.918,0,0,0,.72-2.07V-9.036h1.458V0H50.824V-2.034h.234a3.243,3.243,0,0,1-1.215,1.62A3.391,3.391,0,0,1,47.872.162Zm11,0a4.486,4.486,0,0,1-2.313-.576,3.845,3.845,0,0,1-1.512-1.638,5.575,5.575,0,0,1-.531-2.52,5.372,5.372,0,0,1,.54-2.511,3.708,3.708,0,0,1,1.521-1.575,4.685,4.685,0,0,1,2.3-.54,4.772,4.772,0,0,1,1.683.306,3.62,3.62,0,0,1,1.359.864l-.522,1.044a3.585,3.585,0,0,0-1.179-.774,3.4,3.4,0,0,0-1.251-.252,2.744,2.744,0,0,0-2.178.882,3.792,3.792,0,0,0-.774,2.574,3.908,3.908,0,0,0,.774,2.592,2.692,2.692,0,0,0,2.178.918,3.579,3.579,0,0,0,1.233-.234,3.41,3.41,0,0,0,1.2-.774l.522,1.026a3.665,3.665,0,0,1-1.386.882A4.749,4.749,0,0,1,58.872.162ZM63.986,0V-9.036h1.458V0Zm-.18-11.088v-1.638h1.8v1.638ZM71.979.162A4.371,4.371,0,0,1,69.72-.405a3.776,3.776,0,0,1-1.485-1.62,5.554,5.554,0,0,1-.522-2.493,5.541,5.541,0,0,1,.522-2.5A3.787,3.787,0,0,1,69.72-8.631,4.371,4.371,0,0,1,71.979-9.2a4.407,4.407,0,0,1,2.277.567A3.844,3.844,0,0,1,75.75-7.02a5.461,5.461,0,0,1,.531,2.5,5.475,5.475,0,0,1-.531,2.493,3.833,3.833,0,0,1-1.494,1.62A4.407,4.407,0,0,1,71.979.162Zm0-1.188a2.551,2.551,0,0,0,2.052-.891,3.922,3.922,0,0,0,.756-2.6,3.92,3.92,0,0,0-.765-2.619,2.557,2.557,0,0,0-2.043-.891,2.531,2.531,0,0,0-2.034.891,3.953,3.953,0,0,0-.756,2.619,3.922,3.922,0,0,0,.756,2.6A2.531,2.531,0,0,0,71.979-1.026Zm-.5-8.892,1.854-3.636H74.9L72.519-9.918ZM78.551,0V-6.948q0-.5-.045-1.035t-.1-1.053h1.4l.18,1.98h-.216a3.127,3.127,0,0,1,1.269-1.593A3.723,3.723,0,0,1,83.069-9.2a3.2,3.2,0,0,1,2.421.855,3.781,3.781,0,0,1,.819,2.691V0H84.851V-5.562a2.787,2.787,0,0,0-.513-1.863,2.01,2.01,0,0,0-1.593-.585,2.63,2.63,0,0,0-2,.774,2.875,2.875,0,0,0-.738,2.07V0Z" transform="translate(799.535 1420.442)" fill="#212429" stroke="rgba(0,0,0,0)" stroke-width="1"/>
      <path id="Trazado_986640" data-name="Trazado 986640" d="M-58.09.162a8.753,8.753,0,0,1-2.736-.4,6.464,6.464,0,0,1-2.106-1.134l.54-1.188a8.251,8.251,0,0,0,1.269.783,5.731,5.731,0,0,0,1.377.468,8.188,8.188,0,0,0,1.656.153,3.89,3.89,0,0,0,2.376-.594A1.9,1.9,0,0,0-54.94-3.33a1.592,1.592,0,0,0-.54-1.3,4.409,4.409,0,0,0-1.89-.72l-1.89-.378a5.277,5.277,0,0,1-2.6-1.17,2.881,2.881,0,0,1-.855-2.2,3.4,3.4,0,0,1,.585-1.98,3.814,3.814,0,0,1,1.647-1.314,6.068,6.068,0,0,1,2.466-.468,7.183,7.183,0,0,1,2.466.4,5.253,5.253,0,0,1,1.908,1.179l-.522,1.152A5.417,5.417,0,0,0-55.939-11.2a6.176,6.176,0,0,0-2.1-.333,3.812,3.812,0,0,0-2.331.639,2.054,2.054,0,0,0-.855,1.737,1.774,1.774,0,0,0,.54,1.377,3.755,3.755,0,0,0,1.782.747l1.908.378a5.912,5.912,0,0,1,2.7,1.134A2.673,2.673,0,0,1-53.428-3.4,3.153,3.153,0,0,1-54-1.548a3.689,3.689,0,0,1-1.611,1.26A6.248,6.248,0,0,1-58.09.162Zm10.928,0a4.505,4.505,0,0,1-3.348-1.233A4.654,4.654,0,0,1-51.735-4.5a5.356,5.356,0,0,1,.54-2.475,3.992,3.992,0,0,1,1.512-1.638A4.243,4.243,0,0,1-47.451-9.2a3.907,3.907,0,0,1,2.088.522,3.374,3.374,0,0,1,1.3,1.485,5.335,5.335,0,0,1,.45,2.277v.54h-7v-.918h6.048l-.306.234a3.512,3.512,0,0,0-.648-2.25,2.319,2.319,0,0,0-1.926-.81,2.546,2.546,0,0,0-2.106.945,3.963,3.963,0,0,0-.756,2.547v.162A3.569,3.569,0,0,0-49.476-1.9a3.1,3.1,0,0,0,2.349.873,4.672,4.672,0,0,0,1.521-.243,4.135,4.135,0,0,0,1.359-.8l.5,1.026a4.005,4.005,0,0,1-1.5.891A5.813,5.813,0,0,1-47.163.162ZM-41.383,0V-13.248h1.458V0Zm8.3.162a4.505,4.505,0,0,1-3.348-1.233A4.654,4.654,0,0,1-37.655-4.5a5.356,5.356,0,0,1,.54-2.475A3.992,3.992,0,0,1-35.6-8.613,4.243,4.243,0,0,1-33.371-9.2a3.907,3.907,0,0,1,2.088.522,3.374,3.374,0,0,1,1.3,1.485,5.335,5.335,0,0,1,.45,2.277v.54h-7v-.918h6.048l-.306.234a3.512,3.512,0,0,0-.648-2.25,2.319,2.319,0,0,0-1.926-.81,2.546,2.546,0,0,0-2.106.945,3.963,3.963,0,0,0-.756,2.547v.162A3.569,3.569,0,0,0-35.4-1.9a3.1,3.1,0,0,0,2.349.873,4.672,4.672,0,0,0,1.521-.243,4.135,4.135,0,0,0,1.359-.8l.5,1.026a4.005,4.005,0,0,1-1.5.891A5.813,5.813,0,0,1-33.083.162Zm9.578,0a4.486,4.486,0,0,1-2.313-.576A3.845,3.845,0,0,1-27.33-2.052a5.575,5.575,0,0,1-.531-2.52,5.372,5.372,0,0,1,.54-2.511A3.708,3.708,0,0,1-25.8-8.658a4.685,4.685,0,0,1,2.3-.54,4.772,4.772,0,0,1,1.683.306,3.62,3.62,0,0,1,1.359.864l-.522,1.044a3.585,3.585,0,0,0-1.179-.774,3.4,3.4,0,0,0-1.251-.252,2.744,2.744,0,0,0-2.178.882,3.792,3.792,0,0,0-.774,2.574,3.908,3.908,0,0,0,.774,2.592,2.692,2.692,0,0,0,2.178.918,3.579,3.579,0,0,0,1.233-.234,3.41,3.41,0,0,0,1.2-.774l.522,1.026a3.665,3.665,0,0,1-1.386.882A4.749,4.749,0,0,1-23.505.162Zm8.732,0a4.486,4.486,0,0,1-2.313-.576A3.845,3.845,0,0,1-18.6-2.052a5.575,5.575,0,0,1-.531-2.52,5.372,5.372,0,0,1,.54-2.511,3.708,3.708,0,0,1,1.521-1.575,4.685,4.685,0,0,1,2.3-.54,4.772,4.772,0,0,1,1.683.306,3.62,3.62,0,0,1,1.359.864l-.522,1.044a3.585,3.585,0,0,0-1.179-.774,3.4,3.4,0,0,0-1.251-.252,2.744,2.744,0,0,0-2.178.882,3.792,3.792,0,0,0-.774,2.574,3.908,3.908,0,0,0,.774,2.592,2.692,2.692,0,0,0,2.178.918,3.579,3.579,0,0,0,1.233-.234,3.41,3.41,0,0,0,1.2-.774l.522,1.026a3.665,3.665,0,0,1-1.386.882A4.749,4.749,0,0,1-14.774.162ZM-9.66,0V-9.036H-8.2V0Zm-.18-11.088v-1.638h1.8v1.638ZM-1.666.162A4.371,4.371,0,0,1-3.925-.405,3.776,3.776,0,0,1-5.41-2.025a5.554,5.554,0,0,1-.522-2.493,5.541,5.541,0,0,1,.522-2.5A3.787,3.787,0,0,1-3.925-8.631,4.371,4.371,0,0,1-1.666-9.2a4.407,4.407,0,0,1,2.277.567A3.844,3.844,0,0,1,2.105-7.02a5.461,5.461,0,0,1,.531,2.5,5.475,5.475,0,0,1-.531,2.493A3.833,3.833,0,0,1,.611-.405,4.407,4.407,0,0,1-1.666.162Zm0-1.188A2.551,2.551,0,0,0,.386-1.917a3.922,3.922,0,0,0,.756-2.6A3.92,3.92,0,0,0,.377-7.137a2.557,2.557,0,0,0-2.043-.891A2.531,2.531,0,0,0-3.7-7.137a3.953,3.953,0,0,0-.756,2.619,3.922,3.922,0,0,0,.756,2.6A2.531,2.531,0,0,0-1.666-1.026Zm-.5-8.892,1.854-3.636H1.25L-1.126-9.918ZM4.906,0V-6.948q0-.5-.045-1.035t-.1-1.053h1.4l.18,1.98H6.13A3.127,3.127,0,0,1,7.4-8.649,3.723,3.723,0,0,1,9.424-9.2a3.2,3.2,0,0,1,2.421.855,3.781,3.781,0,0,1,.819,2.691V0H11.206V-5.562a2.787,2.787,0,0,0-.513-1.863A2.01,2.01,0,0,0,9.1-8.01a2.63,2.63,0,0,0-2,.774,2.875,2.875,0,0,0-.738,2.07V0Zm18.67.162a3.834,3.834,0,0,1-2.088-.567,3.747,3.747,0,0,1-1.4-1.611,5.8,5.8,0,0,1-.495-2.5,5.844,5.844,0,0,1,.495-2.52,3.688,3.688,0,0,1,1.4-1.6A3.88,3.88,0,0,1,23.575-9.2a3.643,3.643,0,0,1,2.115.612,2.962,2.962,0,0,1,1.2,1.656h-.216v-6.318h1.458V0h-1.44V-2.16h.2A2.911,2.911,0,0,1,25.7-.459,3.647,3.647,0,0,1,23.575.162Zm.306-1.188a2.584,2.584,0,0,0,2.052-.891,3.859,3.859,0,0,0,.774-2.6,3.889,3.889,0,0,0-.774-2.619,2.584,2.584,0,0,0-2.052-.891,2.557,2.557,0,0,0-2.043.891,3.92,3.92,0,0,0-.765,2.619,3.89,3.89,0,0,0,.765,2.6A2.557,2.557,0,0,0,23.881-1.026ZM34.971.162a4.505,4.505,0,0,1-3.348-1.233A4.654,4.654,0,0,1,30.4-4.5a5.356,5.356,0,0,1,.54-2.475,3.992,3.992,0,0,1,1.512-1.638A4.243,4.243,0,0,1,34.683-9.2a3.907,3.907,0,0,1,2.088.522,3.374,3.374,0,0,1,1.3,1.485,5.335,5.335,0,0,1,.45,2.277v.54h-7v-.918h6.048l-.306.234a3.512,3.512,0,0,0-.648-2.25,2.319,2.319,0,0,0-1.926-.81,2.546,2.546,0,0,0-2.106.945,3.963,3.963,0,0,0-.756,2.547v.162A3.569,3.569,0,0,0,32.658-1.9a3.1,3.1,0,0,0,2.349.873,4.672,4.672,0,0,0,1.521-.243,4.135,4.135,0,0,0,1.359-.8l.5,1.026a4.005,4.005,0,0,1-1.5.891A5.813,5.813,0,0,1,34.971.162ZM45.451,0V-13.248h1.458V0Zm7.724.162a3.867,3.867,0,0,1-2.106-.567,3.747,3.747,0,0,1-1.4-1.611,5.8,5.8,0,0,1-.5-2.5,5.844,5.844,0,0,1,.5-2.52,3.688,3.688,0,0,1,1.4-1.6A3.914,3.914,0,0,1,53.175-9.2a3.605,3.605,0,0,1,2.115.621,2.92,2.92,0,0,1,1.179,1.683h-.216l.2-2.142h1.4q-.054.522-.1,1.053t-.045,1.035V0H56.253V-2.124h.2A2.869,2.869,0,0,1,55.263-.45,3.624,3.624,0,0,1,53.175.162Zm.288-1.188a2.551,2.551,0,0,0,2.052-.891,3.922,3.922,0,0,0,.756-2.6,3.953,3.953,0,0,0-.756-2.619,2.551,2.551,0,0,0-2.052-.891,2.557,2.557,0,0,0-2.043.891,3.92,3.92,0,0,0-.765,2.619,3.89,3.89,0,0,0,.765,2.6A2.557,2.557,0,0,0,53.463-1.026ZM-71.376,27.162a4.371,4.371,0,0,1-2.259-.567,3.776,3.776,0,0,1-1.485-1.62,5.554,5.554,0,0,1-.522-2.493,5.541,5.541,0,0,1,.522-2.5,3.787,3.787,0,0,1,1.485-1.611,4.371,4.371,0,0,1,2.259-.567,4.407,4.407,0,0,1,2.277.567,3.844,3.844,0,0,1,1.494,1.611,5.461,5.461,0,0,1,.531,2.5,5.475,5.475,0,0,1-.531,2.493,3.833,3.833,0,0,1-1.494,1.62A4.407,4.407,0,0,1-71.376,27.162Zm0-1.188a2.551,2.551,0,0,0,2.052-.891,3.922,3.922,0,0,0,.756-2.6,3.92,3.92,0,0,0-.765-2.619,2.557,2.557,0,0,0-2.043-.891,2.531,2.531,0,0,0-2.034.891,3.953,3.953,0,0,0-.756,2.619,3.922,3.922,0,0,0,.756,2.6A2.531,2.531,0,0,0-71.376,25.974Zm6.572,4.914V20.052q0-.5-.045-1.035t-.1-1.053h1.4l.2,2.142h-.216a2.933,2.933,0,0,1,1.17-1.683,3.564,3.564,0,0,1,2.106-.621,3.9,3.9,0,0,1,2.115.558,3.766,3.766,0,0,1,1.4,1.6,5.754,5.754,0,0,1,.5,2.52,5.8,5.8,0,0,1-.495,2.5,3.747,3.747,0,0,1-1.4,1.611,3.9,3.9,0,0,1-2.124.567,3.571,3.571,0,0,1-2.088-.612,2.894,2.894,0,0,1-1.17-1.674h.2v6.012Zm4.23-4.914a2.577,2.577,0,0,0,2.061-.891,3.89,3.89,0,0,0,.765-2.6,3.92,3.92,0,0,0-.765-2.619,2.577,2.577,0,0,0-2.061-.891,2.557,2.557,0,0,0-2.043.891,3.92,3.92,0,0,0-.765,2.619,3.89,3.89,0,0,0,.765,2.6A2.557,2.557,0,0,0-60.575,25.974Zm10.37,1.188a4.486,4.486,0,0,1-2.313-.576,3.845,3.845,0,0,1-1.512-1.638,5.575,5.575,0,0,1-.531-2.52,5.372,5.372,0,0,1,.54-2.511A3.708,3.708,0,0,1-52.5,18.342a4.685,4.685,0,0,1,2.3-.54,4.772,4.772,0,0,1,1.683.306,3.62,3.62,0,0,1,1.359.864l-.522,1.044a3.585,3.585,0,0,0-1.179-.774,3.4,3.4,0,0,0-1.251-.252,2.744,2.744,0,0,0-2.178.882,3.792,3.792,0,0,0-.774,2.574,3.908,3.908,0,0,0,.774,2.592,2.692,2.692,0,0,0,2.178.918,3.579,3.579,0,0,0,1.233-.234,3.41,3.41,0,0,0,1.2-.774l.522,1.026a3.665,3.665,0,0,1-1.386.882A4.749,4.749,0,0,1-50.2,27.162ZM-45.091,27V17.964h1.458V27Zm-.18-11.088V14.274h1.8v1.638Zm8.174,11.25a4.371,4.371,0,0,1-2.259-.567,3.776,3.776,0,0,1-1.485-1.62,5.554,5.554,0,0,1-.522-2.493,5.541,5.541,0,0,1,.522-2.5,3.787,3.787,0,0,1,1.485-1.611A4.371,4.371,0,0,1-37.1,17.8a4.407,4.407,0,0,1,2.277.567,3.844,3.844,0,0,1,1.494,1.611,5.461,5.461,0,0,1,.531,2.5,5.475,5.475,0,0,1-.531,2.493,3.833,3.833,0,0,1-1.494,1.62A4.407,4.407,0,0,1-37.1,27.162Zm0-1.188a2.551,2.551,0,0,0,2.052-.891,3.922,3.922,0,0,0,.756-2.6,3.92,3.92,0,0,0-.765-2.619,2.557,2.557,0,0,0-2.043-.891,2.531,2.531,0,0,0-2.034.891,3.953,3.953,0,0,0-.756,2.619,3.922,3.922,0,0,0,.756,2.6A2.531,2.531,0,0,0-37.1,25.974Zm-.5-8.892,1.854-3.636h1.566l-2.376,3.636ZM-30.525,27V20.052q0-.5-.045-1.035t-.1-1.053h1.4l.18,1.98H-29.3a3.127,3.127,0,0,1,1.269-1.593,3.723,3.723,0,0,1,2.025-.549,3.2,3.2,0,0,1,2.421.855,3.781,3.781,0,0,1,.819,2.691V27h-1.458V21.438a2.787,2.787,0,0,0-.513-1.863,2.01,2.01,0,0,0-1.593-.585,2.63,2.63,0,0,0-2,.774,2.875,2.875,0,0,0-.738,2.07V27Zm18.67.162a3.834,3.834,0,0,1-2.088-.567,3.747,3.747,0,0,1-1.395-1.611,5.8,5.8,0,0,1-.495-2.5,5.844,5.844,0,0,1,.495-2.52,3.688,3.688,0,0,1,1.395-1.6,3.88,3.88,0,0,1,2.088-.558,3.643,3.643,0,0,1,2.115.612,2.962,2.962,0,0,1,1.2,1.656H-8.76V13.752H-7.3V27h-1.44V24.84h.2a2.911,2.911,0,0,1-1.188,1.7A3.647,3.647,0,0,1-11.856,27.162Zm.306-1.188A2.584,2.584,0,0,0-9.5,25.083a3.859,3.859,0,0,0,.774-2.6A3.889,3.889,0,0,0-9.5,19.863a2.584,2.584,0,0,0-2.052-.891,2.557,2.557,0,0,0-2.043.891,3.92,3.92,0,0,0-.765,2.619,3.89,3.89,0,0,0,.765,2.6A2.557,2.557,0,0,0-11.55,25.974ZM-.46,27.162a4.505,4.505,0,0,1-3.348-1.233A4.654,4.654,0,0,1-5.032,22.5a5.356,5.356,0,0,1,.54-2.475A3.992,3.992,0,0,1-2.98,18.387,4.243,4.243,0,0,1-.748,17.8a3.906,3.906,0,0,1,2.088.522,3.374,3.374,0,0,1,1.3,1.485,5.335,5.335,0,0,1,.45,2.277v.54h-7v-.918H2.132l-.306.234a3.512,3.512,0,0,0-.648-2.25,2.319,2.319,0,0,0-1.926-.81,2.546,2.546,0,0,0-2.106.945,3.963,3.963,0,0,0-.756,2.547v.162A3.569,3.569,0,0,0-2.773,25.1a3.1,3.1,0,0,0,2.349.873A4.672,4.672,0,0,0,1.1,25.731a4.135,4.135,0,0,0,1.359-.8l.5,1.026a4.005,4.005,0,0,1-1.5.891A5.813,5.813,0,0,1-.46,27.162Zm13.486,0a6.631,6.631,0,0,1-2.016-.3,4.246,4.246,0,0,1-1.548-.837L9.966,25a4.637,4.637,0,0,0,1.449.774,5.284,5.284,0,0,0,1.629.252,2.826,2.826,0,0,0,1.629-.387,1.239,1.239,0,0,0,.549-1.071,1.07,1.07,0,0,0-.351-.837,2.581,2.581,0,0,0-1.143-.5L12.054,22.9a3.3,3.3,0,0,1-1.728-.855A2.137,2.137,0,0,1,9.75,20.5a2.4,2.4,0,0,1,.414-1.395,2.784,2.784,0,0,1,1.206-.954,4.543,4.543,0,0,1,1.854-.351,5.428,5.428,0,0,1,1.827.3,3.677,3.677,0,0,1,1.395.855l-.522,1.008a3.566,3.566,0,0,0-1.233-.783,4.028,4.028,0,0,0-1.431-.261,2.524,2.524,0,0,0-1.593.423,1.348,1.348,0,0,0-.531,1.107,1.157,1.157,0,0,0,.333.855,2.113,2.113,0,0,0,1.035.5l1.674.342A3.841,3.841,0,0,1,16,22.977a1.988,1.988,0,0,1,.6,1.521,2.3,2.3,0,0,1-.45,1.413,2.849,2.849,0,0,1-1.251.927A5,5,0,0,1,13.026,27.162Zm9.632,0a4.371,4.371,0,0,1-2.259-.567,3.776,3.776,0,0,1-1.485-1.62,5.554,5.554,0,0,1-.522-2.493,5.541,5.541,0,0,1,.522-2.5A3.787,3.787,0,0,1,20.4,18.369a4.819,4.819,0,0,1,4.536,0,3.844,3.844,0,0,1,1.494,1.611,5.461,5.461,0,0,1,.531,2.5,5.475,5.475,0,0,1-.531,2.493,3.833,3.833,0,0,1-1.494,1.62A4.407,4.407,0,0,1,22.657,27.162Zm0-1.188a2.551,2.551,0,0,0,2.052-.891,3.922,3.922,0,0,0,.756-2.6,3.92,3.92,0,0,0-.765-2.619,2.557,2.557,0,0,0-2.043-.891,2.531,2.531,0,0,0-2.034.891,3.953,3.953,0,0,0-.756,2.619,3.922,3.922,0,0,0,.756,2.6A2.531,2.531,0,0,0,22.657,25.974ZM29.229,27V13.752h1.458V27Zm7.472.162a3.144,3.144,0,0,1-2.421-.882,3.855,3.855,0,0,1-.819-2.7V17.964h1.458v5.58a2.757,2.757,0,0,0,.5,1.827,1.957,1.957,0,0,0,1.566.585,2.482,2.482,0,0,0,1.908-.774,2.918,2.918,0,0,0,.72-2.07V17.964h1.458V27H39.653V24.966h.234a3.243,3.243,0,0,1-1.215,1.62A3.391,3.391,0,0,1,36.7,27.162Zm11,0a4.486,4.486,0,0,1-2.313-.576,3.845,3.845,0,0,1-1.512-1.638,5.575,5.575,0,0,1-.531-2.52,5.372,5.372,0,0,1,.54-2.511,3.708,3.708,0,0,1,1.521-1.575,4.685,4.685,0,0,1,2.3-.54,4.772,4.772,0,0,1,1.683.306,3.62,3.62,0,0,1,1.359.864l-.522,1.044a3.585,3.585,0,0,0-1.179-.774,3.4,3.4,0,0,0-1.251-.252,2.744,2.744,0,0,0-2.178.882,3.792,3.792,0,0,0-.774,2.574,3.908,3.908,0,0,0,.774,2.592,2.692,2.692,0,0,0,2.178.918,3.579,3.579,0,0,0,1.233-.234,3.41,3.41,0,0,0,1.2-.774l.522,1.026a3.665,3.665,0,0,1-1.386.882A4.749,4.749,0,0,1,47.7,27.162ZM52.815,27V17.964h1.458V27Zm-.18-11.088V14.274h1.8v1.638Zm8.174,11.25a4.371,4.371,0,0,1-2.259-.567,3.776,3.776,0,0,1-1.485-1.62,5.554,5.554,0,0,1-.522-2.493,5.541,5.541,0,0,1,.522-2.5,3.787,3.787,0,0,1,1.485-1.611,4.819,4.819,0,0,1,4.536,0,3.844,3.844,0,0,1,1.494,1.611,5.461,5.461,0,0,1,.531,2.5,5.475,5.475,0,0,1-.531,2.493,3.833,3.833,0,0,1-1.494,1.62A4.407,4.407,0,0,1,60.808,27.162Zm0-1.188a2.551,2.551,0,0,0,2.052-.891,3.922,3.922,0,0,0,.756-2.6,3.92,3.92,0,0,0-.765-2.619,2.557,2.557,0,0,0-2.043-.891,2.531,2.531,0,0,0-2.034.891,3.953,3.953,0,0,0-.756,2.619,3.922,3.922,0,0,0,.756,2.6A2.531,2.531,0,0,0,60.808,25.974Zm-.5-8.892,1.854-3.636h1.566l-2.376,3.636ZM67.38,27V20.052q0-.5-.045-1.035t-.1-1.053h1.4l.18,1.98H68.6a3.127,3.127,0,0,1,1.269-1.593A3.723,3.723,0,0,1,71.9,17.8a3.2,3.2,0,0,1,2.421.855,3.781,3.781,0,0,1,.819,2.691V27H73.68V21.438a2.787,2.787,0,0,0-.513-1.863,2.01,2.01,0,0,0-1.593-.585,2.63,2.63,0,0,0-2,.774,2.875,2.875,0,0,0-.738,2.07V27Z" transform="translate(799.535 1549)" fill="#212429" stroke="rgba(0,0,0,0)" stroke-width="1"/>
      <path id="Trazado_986641" data-name="Trazado 986641" d="M-94.1,0V-12.69h4.212a7.91,7.91,0,0,1,3.564.729,4.966,4.966,0,0,1,2.214,2.142,7.268,7.268,0,0,1,.756,3.465A7.28,7.28,0,0,1-84.107-2.9a5,5,0,0,1-2.214,2.16A7.828,7.828,0,0,1-89.885,0ZM-92.6-1.278h2.61a5.219,5.219,0,0,0,3.852-1.269,5.193,5.193,0,0,0,1.26-3.807,5.188,5.188,0,0,0-1.26-3.816,5.243,5.243,0,0,0-3.852-1.26H-92.6ZM-76.8.162a4.505,4.505,0,0,1-3.348-1.233A4.654,4.654,0,0,1-81.369-4.5a5.356,5.356,0,0,1,.54-2.475,3.992,3.992,0,0,1,1.512-1.638A4.243,4.243,0,0,1-77.085-9.2,3.907,3.907,0,0,1-75-8.676a3.374,3.374,0,0,1,1.3,1.485,5.334,5.334,0,0,1,.45,2.277v.54h-7v-.918h6.048l-.306.234a3.512,3.512,0,0,0-.648-2.25,2.319,2.319,0,0,0-1.926-.81,2.546,2.546,0,0,0-2.106.945,3.963,3.963,0,0,0-.756,2.547v.162A3.569,3.569,0,0,0-79.11-1.9a3.1,3.1,0,0,0,2.349.873,4.672,4.672,0,0,0,1.521-.243,4.135,4.135,0,0,0,1.359-.8l.5,1.026a4.005,4.005,0,0,1-1.5.891A5.813,5.813,0,0,1-76.8.162Zm8.786,0a6.631,6.631,0,0,1-2.016-.3,4.246,4.246,0,0,1-1.548-.837l.5-1.026a4.637,4.637,0,0,0,1.449.774,5.284,5.284,0,0,0,1.629.252,2.826,2.826,0,0,0,1.629-.387,1.239,1.239,0,0,0,.549-1.071,1.07,1.07,0,0,0-.351-.837,2.581,2.581,0,0,0-1.143-.5L-68.983-4.1a3.3,3.3,0,0,1-1.728-.855A2.138,2.138,0,0,1-71.287-6.5a2.4,2.4,0,0,1,.414-1.395,2.784,2.784,0,0,1,1.206-.954A4.543,4.543,0,0,1-67.813-9.2a5.428,5.428,0,0,1,1.827.3,3.677,3.677,0,0,1,1.395.855l-.522,1.008a3.566,3.566,0,0,0-1.233-.783,4.028,4.028,0,0,0-1.431-.261,2.524,2.524,0,0,0-1.593.423A1.348,1.348,0,0,0-69.9-6.552a1.157,1.157,0,0,0,.333.855,2.113,2.113,0,0,0,1.035.495l1.674.342a3.841,3.841,0,0,1,1.827.837,1.988,1.988,0,0,1,.6,1.521,2.3,2.3,0,0,1-.45,1.413,2.849,2.849,0,0,1-1.251.927A5,5,0,0,1-68.011.162Zm9.362,0a3.867,3.867,0,0,1-2.106-.567,3.747,3.747,0,0,1-1.4-1.611,5.8,5.8,0,0,1-.5-2.5,5.844,5.844,0,0,1,.5-2.52,3.688,3.688,0,0,1,1.4-1.6A3.914,3.914,0,0,1-58.649-9.2a3.605,3.605,0,0,1,2.115.621,2.92,2.92,0,0,1,1.179,1.683h-.216l.2-2.142h1.4q-.054.522-.1,1.053t-.045,1.035V0h-1.458V-2.124h.2A2.869,2.869,0,0,1-56.561-.45,3.624,3.624,0,0,1-58.649.162Zm.288-1.188a2.551,2.551,0,0,0,2.052-.891,3.922,3.922,0,0,0,.756-2.6,3.953,3.953,0,0,0-.756-2.619,2.551,2.551,0,0,0-2.052-.891,2.557,2.557,0,0,0-2.043.891,3.92,3.92,0,0,0-.765,2.619,3.89,3.89,0,0,0,.765,2.6A2.557,2.557,0,0,0-58.361-1.026ZM-51.322,0V-6.858q0-.54-.027-1.1t-.081-1.08h1.4l.18,2.2-.252.018a3,3,0,0,1,.63-1.332,2.881,2.881,0,0,1,1.062-.783A3.225,3.225,0,0,1-47.128-9.2q.27,0,.477.018a1.351,1.351,0,0,1,.387.09l-.018,1.3a2.536,2.536,0,0,0-.495-.117,4.347,4.347,0,0,0-.513-.027,2.481,2.481,0,0,0-1.377.378,2.448,2.448,0,0,0-.882.972,2.78,2.78,0,0,0-.3,1.26V0Zm6.536,0V-6.858q0-.54-.027-1.1t-.081-1.08h1.4l.18,2.2-.252.018a3,3,0,0,1,.63-1.332,2.881,2.881,0,0,1,1.062-.783A3.225,3.225,0,0,1-40.592-9.2q.27,0,.477.018a1.351,1.351,0,0,1,.387.09l-.018,1.3a2.536,2.536,0,0,0-.495-.117,4.347,4.347,0,0,0-.513-.027,2.481,2.481,0,0,0-1.377.378,2.448,2.448,0,0,0-.882.972,2.78,2.78,0,0,0-.3,1.26V0Zm10.172.162a4.371,4.371,0,0,1-2.259-.567,3.776,3.776,0,0,1-1.485-1.62,5.554,5.554,0,0,1-.522-2.493,5.541,5.541,0,0,1,.522-2.5,3.787,3.787,0,0,1,1.485-1.611A4.371,4.371,0,0,1-34.614-9.2a4.407,4.407,0,0,1,2.277.567A3.844,3.844,0,0,1-30.843-7.02a5.461,5.461,0,0,1,.531,2.5,5.475,5.475,0,0,1-.531,2.493,3.833,3.833,0,0,1-1.494,1.62A4.407,4.407,0,0,1-34.614.162Zm0-1.188a2.551,2.551,0,0,0,2.052-.891,3.922,3.922,0,0,0,.756-2.6,3.92,3.92,0,0,0-.765-2.619,2.557,2.557,0,0,0-2.043-.891,2.531,2.531,0,0,0-2.034.891A3.953,3.953,0,0,0-37.4-4.518a3.922,3.922,0,0,0,.756,2.6A2.531,2.531,0,0,0-34.614-1.026ZM-28.042,0V-13.248h1.458V0Zm4.286,0V-13.248H-22.3V0Zm7.994.162a4.371,4.371,0,0,1-2.259-.567,3.776,3.776,0,0,1-1.485-1.62,5.554,5.554,0,0,1-.522-2.493,5.541,5.541,0,0,1,.522-2.5,3.787,3.787,0,0,1,1.485-1.611A4.371,4.371,0,0,1-15.763-9.2a4.407,4.407,0,0,1,2.277.567A3.844,3.844,0,0,1-11.992-7.02a5.461,5.461,0,0,1,.531,2.5,5.475,5.475,0,0,1-.531,2.493,3.833,3.833,0,0,1-1.494,1.62A4.407,4.407,0,0,1-15.763.162Zm0-1.188a2.551,2.551,0,0,0,2.052-.891,3.922,3.922,0,0,0,.756-2.6,3.92,3.92,0,0,0-.765-2.619,2.557,2.557,0,0,0-2.043-.891,2.531,2.531,0,0,0-2.034.891,3.953,3.953,0,0,0-.756,2.619,3.922,3.922,0,0,0,.756,2.6A2.531,2.531,0,0,0-15.763-1.026ZM-1.071.162A3.834,3.834,0,0,1-3.159-.405,3.747,3.747,0,0,1-4.554-2.016a5.8,5.8,0,0,1-.5-2.5,5.844,5.844,0,0,1,.5-2.52,3.688,3.688,0,0,1,1.395-1.6A3.88,3.88,0,0,1-1.071-9.2a3.643,3.643,0,0,1,2.115.612,2.962,2.962,0,0,1,1.2,1.656H2.025v-6.318H3.483V0H2.043V-2.16h.2a2.911,2.911,0,0,1-1.188,1.7A3.647,3.647,0,0,1-1.071.162Zm.306-1.188a2.584,2.584,0,0,0,2.052-.891,3.859,3.859,0,0,0,.774-2.6,3.889,3.889,0,0,0-.774-2.619A2.584,2.584,0,0,0-.765-8.028a2.557,2.557,0,0,0-2.043.891,3.92,3.92,0,0,0-.765,2.619,3.89,3.89,0,0,0,.765,2.6A2.557,2.557,0,0,0-.765-1.026ZM10.325.162A4.505,4.505,0,0,1,6.977-1.071,4.654,4.654,0,0,1,5.753-4.5a5.356,5.356,0,0,1,.54-2.475A3.992,3.992,0,0,1,7.8-8.613,4.243,4.243,0,0,1,10.037-9.2a3.907,3.907,0,0,1,2.088.522,3.374,3.374,0,0,1,1.3,1.485,5.335,5.335,0,0,1,.45,2.277v.54h-7v-.918h6.048l-.306.234a3.512,3.512,0,0,0-.648-2.25,2.319,2.319,0,0,0-1.926-.81,2.546,2.546,0,0,0-2.106.945,3.963,3.963,0,0,0-.756,2.547v.162A3.569,3.569,0,0,0,8.012-1.9a3.1,3.1,0,0,0,2.349.873,4.672,4.672,0,0,0,1.521-.243,4.135,4.135,0,0,0,1.359-.8l.5,1.026a4.005,4.005,0,0,1-1.5.891A5.813,5.813,0,0,1,10.325.162ZM16.1,0V-13.248h1.458V0ZM25.09,3.888V-6.948q0-.5-.045-1.035t-.1-1.053h1.4l.2,2.142h-.216A2.933,2.933,0,0,1,27.5-8.577,3.564,3.564,0,0,1,29.608-9.2a3.9,3.9,0,0,1,2.115.558,3.767,3.767,0,0,1,1.4,1.6,5.754,5.754,0,0,1,.5,2.52,5.8,5.8,0,0,1-.495,2.5,3.747,3.747,0,0,1-1.4,1.611,3.9,3.9,0,0,1-2.124.567A3.571,3.571,0,0,1,27.52-.45a2.894,2.894,0,0,1-1.17-1.674h.2V3.888Zm4.23-4.914a2.577,2.577,0,0,0,2.061-.891,3.89,3.89,0,0,0,.765-2.6,3.92,3.92,0,0,0-.765-2.619,2.577,2.577,0,0,0-2.061-.891,2.557,2.557,0,0,0-2.043.891,3.92,3.92,0,0,0-.765,2.619,3.89,3.89,0,0,0,.765,2.6A2.557,2.557,0,0,0,29.32-1.026ZM35.856,0V-6.858q0-.54-.027-1.1t-.081-1.08h1.4l.18,2.2-.252.018a3,3,0,0,1,.63-1.332,2.881,2.881,0,0,1,1.062-.783A3.225,3.225,0,0,1,40.05-9.2q.27,0,.477.018a1.351,1.351,0,0,1,.387.09l-.018,1.3a2.537,2.537,0,0,0-.495-.117,4.347,4.347,0,0,0-.513-.027,2.481,2.481,0,0,0-1.377.378,2.448,2.448,0,0,0-.882.972,2.78,2.78,0,0,0-.3,1.26V0ZM46.028.162a4.371,4.371,0,0,1-2.259-.567,3.776,3.776,0,0,1-1.485-1.62,5.554,5.554,0,0,1-.522-2.493,5.541,5.541,0,0,1,.522-2.5,3.787,3.787,0,0,1,1.485-1.611A4.371,4.371,0,0,1,46.028-9.2a4.407,4.407,0,0,1,2.277.567A3.844,3.844,0,0,1,49.8-7.02a5.461,5.461,0,0,1,.531,2.5A5.475,5.475,0,0,1,49.8-2.025,3.833,3.833,0,0,1,48.3-.405,4.407,4.407,0,0,1,46.028.162Zm0-1.188a2.551,2.551,0,0,0,2.052-.891,3.922,3.922,0,0,0,.756-2.6,3.92,3.92,0,0,0-.765-2.619,2.557,2.557,0,0,0-2.043-.891,2.531,2.531,0,0,0-2.034.891,3.953,3.953,0,0,0-.756,2.619,3.922,3.922,0,0,0,.756,2.6A2.531,2.531,0,0,0,46.028-1.026Zm6.086,5.112L51.772,2.88a7.52,7.52,0,0,0,1.413-.459,2.78,2.78,0,0,0,.945-.693,3.908,3.908,0,0,0,.648-1.08l.468-1.062L55.21.2,51.268-9.036h1.584L56.11-1.1h-.468l3.222-7.938h1.53L56.218.756A6.918,6.918,0,0,1,55.426,2.2a4.537,4.537,0,0,1-.927.954,4.229,4.229,0,0,1-1.089.585A7.847,7.847,0,0,1,52.114,4.086ZM65.921.162a4.505,4.505,0,0,1-3.348-1.233A4.654,4.654,0,0,1,61.349-4.5a5.356,5.356,0,0,1,.54-2.475A3.992,3.992,0,0,1,63.4-8.613,4.243,4.243,0,0,1,65.633-9.2a3.907,3.907,0,0,1,2.088.522,3.374,3.374,0,0,1,1.3,1.485,5.334,5.334,0,0,1,.45,2.277v.54h-7v-.918h6.048l-.306.234a3.512,3.512,0,0,0-.648-2.25,2.319,2.319,0,0,0-1.926-.81,2.546,2.546,0,0,0-2.106.945,3.963,3.963,0,0,0-.756,2.547v.162A3.569,3.569,0,0,0,63.608-1.9a3.1,3.1,0,0,0,2.349.873,4.672,4.672,0,0,0,1.521-.243,4.135,4.135,0,0,0,1.359-.8l.5,1.026a4.005,4.005,0,0,1-1.5.891A5.813,5.813,0,0,1,65.921.162Zm9.578,0a4.486,4.486,0,0,1-2.313-.576,3.845,3.845,0,0,1-1.512-1.638,5.575,5.575,0,0,1-.531-2.52,5.372,5.372,0,0,1,.54-2.511A3.708,3.708,0,0,1,73.2-8.658,4.685,4.685,0,0,1,75.5-9.2a4.772,4.772,0,0,1,1.683.306,3.621,3.621,0,0,1,1.359.864l-.522,1.044a3.585,3.585,0,0,0-1.179-.774,3.4,3.4,0,0,0-1.251-.252,2.744,2.744,0,0,0-2.178.882,3.792,3.792,0,0,0-.774,2.574,3.908,3.908,0,0,0,.774,2.592,2.692,2.692,0,0,0,2.178.918,3.579,3.579,0,0,0,1.233-.234,3.41,3.41,0,0,0,1.2-.774l.522,1.026a3.665,3.665,0,0,1-1.386.882A4.749,4.749,0,0,1,75.5.162Zm8.318,0A2.623,2.623,0,0,1,81.783-.6a3.323,3.323,0,0,1-.7-2.313V-7.9H79.317V-9.036h1.764V-11.5l1.458-.414v2.88h2.592V-7.9H82.539v4.824a2.486,2.486,0,0,0,.369,1.539,1.335,1.335,0,0,0,1.107.459,2.7,2.7,0,0,0,.612-.063,3.092,3.092,0,0,0,.486-.153V-.072a2.791,2.791,0,0,1-.6.171A3.917,3.917,0,0,1,83.817.162Zm6.716,0a4.371,4.371,0,0,1-2.259-.567,3.776,3.776,0,0,1-1.485-1.62,5.554,5.554,0,0,1-.522-2.493,5.541,5.541,0,0,1,.522-2.5,3.787,3.787,0,0,1,1.485-1.611A4.371,4.371,0,0,1,90.533-9.2a4.407,4.407,0,0,1,2.277.567A3.844,3.844,0,0,1,94.3-7.02a5.461,5.461,0,0,1,.531,2.5A5.475,5.475,0,0,1,94.3-2.025,3.833,3.833,0,0,1,92.81-.405,4.407,4.407,0,0,1,90.533.162Zm0-1.188a2.551,2.551,0,0,0,2.052-.891,3.922,3.922,0,0,0,.756-2.6,3.92,3.92,0,0,0-.765-2.619,2.557,2.557,0,0,0-2.043-.891,2.531,2.531,0,0,0-2.034.891,3.953,3.953,0,0,0-.756,2.619,3.922,3.922,0,0,0,.756,2.6A2.531,2.531,0,0,0,90.533-1.026Z" transform="translate(799.535 1662.5)" fill="#212429" stroke="rgba(0,0,0,0)" stroke-width="1"/>
      <g id="Rectángulo_408093" data-name="Rectángulo 408093" transform="translate(429.366 1439)" fill="#d8f5f5" stroke="#477a7a" stroke-width="1">
        <rect width="225.07" height="78" rx="10" stroke="none"/>
        <rect x="0.5" y="0.5" width="224.07" height="77" rx="9.5" fill="none"/>
      </g>
      <path id="Trazado_986639" data-name="Trazado 986639" d="M-80.254.162a6.234,6.234,0,0,1-3.24-.792,5.2,5.2,0,0,1-2.043-2.25,7.853,7.853,0,0,1-.711-3.474,7.8,7.8,0,0,1,.711-3.465,5.212,5.212,0,0,1,2.043-2.241,6.234,6.234,0,0,1,3.24-.792,6.6,6.6,0,0,1,2.412.414,5.328,5.328,0,0,1,1.854,1.206l-.558,1.188a6.3,6.3,0,0,0-1.71-1.107,5.141,5.141,0,0,0-1.98-.351,4.081,4.081,0,0,0-3.312,1.35,5.739,5.739,0,0,0-1.134,3.8,5.776,5.776,0,0,0,1.134,3.807,4.068,4.068,0,0,0,3.312,1.359,5.141,5.141,0,0,0,1.98-.351,6.12,6.12,0,0,0,1.71-1.125l.558,1.206a5.572,5.572,0,0,1-1.854,1.2A6.475,6.475,0,0,1-80.254.162ZM-73.664,0V-6.858q0-.54-.027-1.1t-.081-1.08h1.4l.18,2.2-.252.018a3,3,0,0,1,.63-1.332,2.881,2.881,0,0,1,1.062-.783A3.225,3.225,0,0,1-69.47-9.2q.27,0,.477.018a1.351,1.351,0,0,1,.387.09l-.018,1.3a2.537,2.537,0,0,0-.5-.117,4.347,4.347,0,0,0-.513-.027,2.481,2.481,0,0,0-1.377.378,2.448,2.448,0,0,0-.882.972,2.78,2.78,0,0,0-.3,1.26V0Zm6.572,0V-9.036h1.458V0Zm-.18-11.088v-1.638h1.8v1.638ZM-59.6.162A2.623,2.623,0,0,1-61.637-.6a3.323,3.323,0,0,1-.7-2.313V-7.9H-64.1V-9.036h1.764V-11.5l1.458-.414v2.88h2.592V-7.9h-2.592v4.824a2.486,2.486,0,0,0,.369,1.539A1.335,1.335,0,0,0-59.4-1.08a2.7,2.7,0,0,0,.612-.063,3.092,3.092,0,0,0,.486-.153V-.072a2.791,2.791,0,0,1-.6.171A3.917,3.917,0,0,1-59.6.162Zm7.022,0a4.505,4.505,0,0,1-3.348-1.233A4.654,4.654,0,0,1-57.153-4.5a5.356,5.356,0,0,1,.54-2.475A3.992,3.992,0,0,1-55.1-8.613,4.243,4.243,0,0,1-52.869-9.2a3.907,3.907,0,0,1,2.088.522,3.374,3.374,0,0,1,1.3,1.485,5.335,5.335,0,0,1,.45,2.277v.54h-7v-.918h6.048l-.306.234a3.512,3.512,0,0,0-.648-2.25,2.319,2.319,0,0,0-1.926-.81,2.546,2.546,0,0,0-2.106.945,3.963,3.963,0,0,0-.756,2.547v.162A3.569,3.569,0,0,0-54.894-1.9a3.1,3.1,0,0,0,2.349.873,4.672,4.672,0,0,0,1.521-.243,4.135,4.135,0,0,0,1.359-.8l.5,1.026a4.005,4.005,0,0,1-1.5.891A5.813,5.813,0,0,1-52.581.162ZM-46.837,0V-6.858q0-.54-.027-1.1t-.081-1.08h1.4l.18,2.2-.252.018a3,3,0,0,1,.63-1.332,2.881,2.881,0,0,1,1.062-.783A3.225,3.225,0,0,1-42.643-9.2q.27,0,.477.018a1.351,1.351,0,0,1,.387.09l-.018,1.3a2.537,2.537,0,0,0-.495-.117,4.347,4.347,0,0,0-.513-.027,2.481,2.481,0,0,0-1.377.378,2.448,2.448,0,0,0-.882.972,2.78,2.78,0,0,0-.3,1.26V0Zm6.572,0V-9.036h1.458V0Zm-.18-11.088v-1.638h1.8v1.638ZM-32.271.162A4.371,4.371,0,0,1-34.53-.405a3.776,3.776,0,0,1-1.485-1.62,5.554,5.554,0,0,1-.522-2.493,5.541,5.541,0,0,1,.522-2.5A3.787,3.787,0,0,1-34.53-8.631,4.371,4.371,0,0,1-32.271-9.2a4.407,4.407,0,0,1,2.277.567A3.844,3.844,0,0,1-28.5-7.02a5.461,5.461,0,0,1,.531,2.5A5.475,5.475,0,0,1-28.5-2.025a3.833,3.833,0,0,1-1.494,1.62A4.407,4.407,0,0,1-32.271.162Zm0-1.188a2.551,2.551,0,0,0,2.052-.891,3.922,3.922,0,0,0,.756-2.6,3.92,3.92,0,0,0-.765-2.619,2.557,2.557,0,0,0-2.043-.891,2.531,2.531,0,0,0-2.034.891,3.953,3.953,0,0,0-.756,2.619,3.922,3.922,0,0,0,.756,2.6A2.531,2.531,0,0,0-32.271-1.026ZM-22.693.162a6.631,6.631,0,0,1-2.016-.3,4.246,4.246,0,0,1-1.548-.837l.5-1.026a4.637,4.637,0,0,0,1.449.774,5.284,5.284,0,0,0,1.629.252,2.826,2.826,0,0,0,1.629-.387A1.239,1.239,0,0,0-20.5-2.43a1.07,1.07,0,0,0-.351-.837,2.581,2.581,0,0,0-1.143-.5L-23.665-4.1a3.3,3.3,0,0,1-1.728-.855A2.137,2.137,0,0,1-25.969-6.5a2.4,2.4,0,0,1,.414-1.395,2.784,2.784,0,0,1,1.206-.954A4.543,4.543,0,0,1-22.5-9.2a5.428,5.428,0,0,1,1.827.3,3.677,3.677,0,0,1,1.4.855L-19.8-7.038a3.566,3.566,0,0,0-1.233-.783,4.028,4.028,0,0,0-1.431-.261,2.524,2.524,0,0,0-1.593.423,1.348,1.348,0,0,0-.531,1.107,1.157,1.157,0,0,0,.333.855,2.113,2.113,0,0,0,1.035.495l1.674.342a3.841,3.841,0,0,1,1.827.837,1.988,1.988,0,0,1,.6,1.521,2.3,2.3,0,0,1-.45,1.413,2.849,2.849,0,0,1-1.251.927A5,5,0,0,1-22.693.162Zm14.044,0a3.834,3.834,0,0,1-2.088-.567,3.747,3.747,0,0,1-1.395-1.611,5.8,5.8,0,0,1-.495-2.5,5.844,5.844,0,0,1,.495-2.52,3.688,3.688,0,0,1,1.395-1.6A3.88,3.88,0,0,1-8.65-9.2a3.643,3.643,0,0,1,2.115.612,2.962,2.962,0,0,1,1.2,1.656h-.216v-6.318H-4.1V0h-1.44V-2.16h.2a2.911,2.911,0,0,1-1.188,1.7A3.647,3.647,0,0,1-8.65.162Zm.306-1.188a2.584,2.584,0,0,0,2.052-.891,3.859,3.859,0,0,0,.774-2.6,3.889,3.889,0,0,0-.774-2.619,2.584,2.584,0,0,0-2.052-.891,2.557,2.557,0,0,0-2.043.891,3.92,3.92,0,0,0-.765,2.619,3.89,3.89,0,0,0,.765,2.6A2.557,2.557,0,0,0-8.344-1.026ZM2.746.162A4.505,4.505,0,0,1-.6-1.071,4.654,4.654,0,0,1-1.826-4.5a5.356,5.356,0,0,1,.54-2.475A3.992,3.992,0,0,1,.226-8.613,4.243,4.243,0,0,1,2.458-9.2a3.907,3.907,0,0,1,2.088.522,3.374,3.374,0,0,1,1.3,1.485,5.335,5.335,0,0,1,.45,2.277v.54h-7v-.918H5.338l-.306.234a3.512,3.512,0,0,0-.648-2.25,2.319,2.319,0,0,0-1.926-.81,2.546,2.546,0,0,0-2.106.945A3.963,3.963,0,0,0-.4-4.626v.162A3.569,3.569,0,0,0,.433-1.9a3.1,3.1,0,0,0,2.349.873A4.672,4.672,0,0,0,4.3-1.269a4.135,4.135,0,0,0,1.359-.8l.5,1.026a4.005,4.005,0,0,1-1.5.891A5.813,5.813,0,0,1,2.746.162Zm13.486,0a6.631,6.631,0,0,1-2.016-.3,4.246,4.246,0,0,1-1.548-.837L13.171-2a4.637,4.637,0,0,0,1.449.774,5.284,5.284,0,0,0,1.629.252,2.826,2.826,0,0,0,1.629-.387,1.239,1.239,0,0,0,.549-1.071,1.07,1.07,0,0,0-.351-.837,2.581,2.581,0,0,0-1.143-.5L15.259-4.1a3.3,3.3,0,0,1-1.728-.855A2.137,2.137,0,0,1,12.955-6.5a2.4,2.4,0,0,1,.414-1.395,2.784,2.784,0,0,1,1.206-.954A4.543,4.543,0,0,1,16.429-9.2a5.428,5.428,0,0,1,1.827.3,3.677,3.677,0,0,1,1.4.855l-.522,1.008A3.566,3.566,0,0,0,17.9-7.821a4.028,4.028,0,0,0-1.431-.261,2.524,2.524,0,0,0-1.593.423,1.348,1.348,0,0,0-.531,1.107,1.157,1.157,0,0,0,.333.855,2.113,2.113,0,0,0,1.035.495l1.674.342a3.841,3.841,0,0,1,1.827.837,1.988,1.988,0,0,1,.6,1.521,2.3,2.3,0,0,1-.45,1.413,2.849,2.849,0,0,1-1.251.927A5,5,0,0,1,16.231.162Zm9.938,0a4.505,4.505,0,0,1-3.348-1.233A4.654,4.654,0,0,1,21.6-4.5a5.356,5.356,0,0,1,.54-2.475,3.992,3.992,0,0,1,1.512-1.638A4.243,4.243,0,0,1,25.881-9.2a3.907,3.907,0,0,1,2.088.522,3.374,3.374,0,0,1,1.3,1.485,5.335,5.335,0,0,1,.45,2.277v.54h-7v-.918h6.048l-.306.234a3.512,3.512,0,0,0-.648-2.25,2.319,2.319,0,0,0-1.926-.81,2.546,2.546,0,0,0-2.106.945,3.963,3.963,0,0,0-.756,2.547v.162A3.569,3.569,0,0,0,23.856-1.9a3.1,3.1,0,0,0,2.349.873,4.672,4.672,0,0,0,1.521-.243,4.135,4.135,0,0,0,1.359-.8l.5,1.026a4.005,4.005,0,0,1-1.5.891A5.813,5.813,0,0,1,26.169.162ZM31.949,0V-13.248h1.458V0Zm8.3.162A4.505,4.505,0,0,1,36.9-1.071,4.654,4.654,0,0,1,35.677-4.5a5.356,5.356,0,0,1,.54-2.475,3.992,3.992,0,0,1,1.512-1.638A4.243,4.243,0,0,1,39.961-9.2a3.907,3.907,0,0,1,2.088.522,3.374,3.374,0,0,1,1.3,1.485,5.335,5.335,0,0,1,.45,2.277v.54h-7v-.918h6.048l-.306.234a3.512,3.512,0,0,0-.648-2.25,2.319,2.319,0,0,0-1.926-.81,2.546,2.546,0,0,0-2.106.945A3.963,3.963,0,0,0,37.1-4.626v.162A3.569,3.569,0,0,0,37.936-1.9a3.1,3.1,0,0,0,2.349.873,4.672,4.672,0,0,0,1.521-.243,4.135,4.135,0,0,0,1.359-.8l.5,1.026a4.005,4.005,0,0,1-1.5.891A5.813,5.813,0,0,1,40.249.162Zm9.578,0a4.486,4.486,0,0,1-2.313-.576A3.845,3.845,0,0,1,46-2.052a5.575,5.575,0,0,1-.531-2.52,5.372,5.372,0,0,1,.54-2.511,3.708,3.708,0,0,1,1.521-1.575,4.685,4.685,0,0,1,2.3-.54,4.772,4.772,0,0,1,1.683.306,3.62,3.62,0,0,1,1.359.864l-.522,1.044a3.585,3.585,0,0,0-1.179-.774,3.4,3.4,0,0,0-1.251-.252,2.744,2.744,0,0,0-2.178.882,3.792,3.792,0,0,0-.774,2.574,3.908,3.908,0,0,0,.774,2.592,2.692,2.692,0,0,0,2.178.918,3.579,3.579,0,0,0,1.233-.234,3.41,3.41,0,0,0,1.2-.774l.522,1.026a3.665,3.665,0,0,1-1.386.882A4.749,4.749,0,0,1,49.827.162Zm8.732,0a4.486,4.486,0,0,1-2.313-.576,3.845,3.845,0,0,1-1.512-1.638,5.575,5.575,0,0,1-.531-2.52,5.372,5.372,0,0,1,.54-2.511,3.708,3.708,0,0,1,1.521-1.575,4.685,4.685,0,0,1,2.3-.54,4.772,4.772,0,0,1,1.683.306,3.62,3.62,0,0,1,1.359.864l-.522,1.044A3.585,3.585,0,0,0,59.9-7.758a3.4,3.4,0,0,0-1.251-.252,2.744,2.744,0,0,0-2.178.882A3.792,3.792,0,0,0,55.7-4.554a3.908,3.908,0,0,0,.774,2.592,2.692,2.692,0,0,0,2.178.918,3.579,3.579,0,0,0,1.233-.234,3.41,3.41,0,0,0,1.2-.774L61.6-1.026a3.665,3.665,0,0,1-1.386.882A4.749,4.749,0,0,1,58.558.162ZM63.672,0V-9.036H65.13V0Zm-.18-11.088v-1.638h1.8v1.638ZM71.666.162a4.371,4.371,0,0,1-2.259-.567,3.776,3.776,0,0,1-1.485-1.62A5.554,5.554,0,0,1,67.4-4.518a5.541,5.541,0,0,1,.522-2.5,3.787,3.787,0,0,1,1.485-1.611A4.371,4.371,0,0,1,71.666-9.2a4.407,4.407,0,0,1,2.277.567A3.844,3.844,0,0,1,75.437-7.02a5.461,5.461,0,0,1,.531,2.5,5.475,5.475,0,0,1-.531,2.493,3.833,3.833,0,0,1-1.494,1.62A4.407,4.407,0,0,1,71.666.162Zm0-1.188a2.551,2.551,0,0,0,2.052-.891,3.922,3.922,0,0,0,.756-2.6,3.92,3.92,0,0,0-.765-2.619,2.557,2.557,0,0,0-2.043-.891,2.531,2.531,0,0,0-2.034.891,3.953,3.953,0,0,0-.756,2.619,3.922,3.922,0,0,0,.756,2.6A2.531,2.531,0,0,0,71.666-1.026Zm-.5-8.892,1.854-3.636h1.566L72.206-9.918ZM78.238,0V-6.948q0-.5-.045-1.035t-.1-1.053h1.4l.18,1.98h-.216a3.127,3.127,0,0,1,1.269-1.593A3.723,3.723,0,0,1,82.756-9.2a3.2,3.2,0,0,1,2.421.855A3.781,3.781,0,0,1,86-5.652V0H84.538V-5.562a2.787,2.787,0,0,0-.513-1.863,2.01,2.01,0,0,0-1.593-.585,2.63,2.63,0,0,0-2,.774,2.875,2.875,0,0,0-.738,2.07V0Z" transform="translate(541.901 1484.5)" fill="#212429" stroke="rgba(0,0,0,0)" stroke-width="1"/>
    </g>
  </g>
</svg>
