<svg xmlns="http://www.w3.org/2000/svg" xmlns:xlink="http://www.w3.org/1999/xlink" width="108" height="108" viewBox="0 0 108 108">
  <defs>
    <filter id="Trazado_982551" x="0" y="0" width="108" height="108" filterUnits="userSpaceOnUse">
      <feOffset dy="3" input="SourceAlpha"/>
      <feGaussianBlur stdDeviation="3" result="blur"/>
      <feFlood flood-opacity="0.161"/>
      <feComposite operator="in" in2="blur"/>
      <feComposite in="SourceGraphic"/>
    </filter>
  </defs>
  <g id="Grupo_1151526" data-name="Grupo 1151526" transform="translate(-831 -4785)">
    <g id="Grupo_1150790" data-name="Grupo 1150790" transform="translate(0 3180)">
      <g transform="matrix(1, 0, 0, 1, 831, 1605)" filter="url(#Trazado_982551)">
        <g id="Trazado_982551-2" data-name="Trazado 982551" transform="translate(9 6)" fill="#f3f3f3">
          <path d="M 45 88.5 C 39.12687683105469 88.5 33.43022537231445 87.35007476806641 28.06830024719238 85.08217620849609 C 22.88852500915527 82.89131164550781 18.23629951477051 79.75458526611328 14.2408504486084 75.75914764404297 C 10.24541282653809 71.76370239257812 7.108687400817871 67.11147308349609 4.917825222015381 61.93170166015625 C 2.649924993515015 56.56977462768555 1.5 50.87312316894531 1.5 45 C 1.5 39.12687683105469 2.649924993515015 33.43022537231445 4.917825222015381 28.06830024719238 C 7.108687400817871 22.88852500915527 10.24541282653809 18.23629951477051 14.2408504486084 14.2408504486084 C 18.23629951477051 10.24541282653809 22.88852500915527 7.108687400817871 28.06830024719238 4.917825222015381 C 33.43022537231445 2.649924993515015 39.12687683105469 1.5 45 1.5 C 50.87312316894531 1.5 56.56977462768555 2.649924993515015 61.93170166015625 4.917825222015381 C 67.11147308349609 7.108687400817871 71.76370239257812 10.24541282653809 75.75914764404297 14.2408504486084 C 79.75458526611328 18.23629951477051 82.89131164550781 22.88852500915527 85.08217620849609 28.06830024719238 C 87.35007476806641 33.43022537231445 88.5 39.12687683105469 88.5 45 C 88.5 50.87312316894531 87.35007476806641 56.56977462768555 85.08217620849609 61.93170166015625 C 82.89131164550781 67.11147308349609 79.75458526611328 71.76370239257812 75.75914764404297 75.75914764404297 C 71.76370239257812 79.75458526611328 67.11147308349609 82.89131164550781 61.93170166015625 85.08217620849609 C 56.56977462768555 87.35007476806641 50.87312316894531 88.5 45 88.5 Z" stroke="none"/>
          <path d="M 45 3 C 39.32871246337891 3 33.82865524291992 4.110054016113281 28.65262985229492 6.299339294433594 C 23.65165710449219 8.414573669433594 19.15968322753906 11.44334411621094 15.301513671875 15.301513671875 C 11.44334411621094 19.15968322753906 8.414573669433594 23.65165710449219 6.299339294433594 28.65262985229492 C 4.110054016113281 33.82865524291992 3 39.32871246337891 3 45 C 3 50.67128753662109 4.110054016113281 56.17134475708008 6.299339294433594 61.34737396240234 C 8.414573669433594 66.34834289550781 11.44334411621094 70.84031677246094 15.301513671875 74.698486328125 C 19.15968322753906 78.55665588378906 23.65165710449219 81.58542633056641 28.65262985229492 83.70066070556641 C 33.82865524291992 85.88994598388672 39.32871246337891 87 45 87 C 50.67128753662109 87 56.17134475708008 85.88994598388672 61.34737396240234 83.70066070556641 C 66.34834289550781 81.58542633056641 70.84031677246094 78.55665588378906 74.698486328125 74.698486328125 C 78.55665588378906 70.84031677246094 81.58542633056641 66.34834289550781 83.70066070556641 61.34737396240234 C 85.88994598388672 56.17134475708008 87 50.67128753662109 87 45 C 87 39.32871246337891 85.88994598388672 33.82865524291992 83.70066070556641 28.65262985229492 C 81.58542633056641 23.65165710449219 78.55665588378906 19.15968322753906 74.698486328125 15.301513671875 C 70.84031677246094 11.44334411621094 66.34834289550781 8.414573669433594 61.34737396240234 6.299339294433594 C 56.17134475708008 4.110054016113281 50.67128753662109 3 45 3 M 45 0 C 69.85281372070312 0 90 20.14718627929688 90 45 C 90 69.85281372070312 69.85281372070312 90 45 90 C 20.14718627929688 90 0 69.85281372070312 0 45 C 0 20.14718627929688 20.14718627929688 0 45 0 Z" stroke="none" fill="#fd7940"/>
        </g>
      </g>
    </g>
    <g id="lista-de-quehaceres" transform="translate(856.738 4806.775)">
      <g id="Grupo_1151524" data-name="Grupo 1151524" transform="translate(0.828 4.053)">
        <path id="Trazado_986236" data-name="Trazado 986236" d="M271.149,23.888V14.366a3.639,3.639,0,0,1,3.639-3.639h18.476a3.639,3.639,0,0,1,3.639,3.639V32.211a3.639,3.639,0,0,1-3.639,3.639H283.111a4.549,4.549,0,0,1-3.217-1.332L272.481,27.1A4.548,4.548,0,0,1,271.149,23.888Z" transform="translate(-242.036 -10.727)" fill="#ffe07d"/>
        <path id="Trazado_986237" data-name="Trazado 986237" d="M271.148,123.656v-.777a2.662,2.662,0,0,0,2.661,2.661h3.777a3.639,3.639,0,0,1,3.639,3.639v3.777a2.662,2.662,0,0,0,2.661,2.661h-.777a4.552,4.552,0,0,1-3.217-1.332l-7.413-7.413A4.552,4.552,0,0,1,271.148,123.656Z" transform="translate(-242.035 -110.495)" fill="#f1cb86"/>
        <path id="Trazado_986238" data-name="Trazado 986238" d="M271.149,286.806v-9.522a3.639,3.639,0,0,1,3.639-3.639h18.476a3.639,3.639,0,0,1,3.639,3.639v17.845a3.639,3.639,0,0,1-3.639,3.639H283.111a4.549,4.549,0,0,1-3.217-1.332l-7.413-7.413A4.548,4.548,0,0,1,271.149,286.806Z" transform="translate(-242.036 -244.613)" fill="#e28086"/>
        <path id="Trazado_986239" data-name="Trazado 986239" d="M271.148,386.574V385.8a2.662,2.662,0,0,0,2.661,2.661h3.777a3.639,3.639,0,0,1,3.639,3.639v3.777a2.662,2.662,0,0,0,2.661,2.661h-.777a4.552,4.552,0,0,1-3.217-1.332l-7.413-7.413A4.552,4.552,0,0,1,271.148,386.574Z" transform="translate(-242.035 -344.381)" fill="#dd636e"/>
        <path id="Trazado_986240" data-name="Trazado 986240" d="M7.5,23.888V14.366a3.639,3.639,0,0,1,3.639-3.639H29.617a3.639,3.639,0,0,1,3.639,3.639V32.211a3.639,3.639,0,0,1-3.639,3.639H19.463a4.549,4.549,0,0,1-3.217-1.332L8.833,27.1A4.549,4.549,0,0,1,7.5,23.888Z" transform="translate(-7.501 -10.727)" fill="#f9f6f9"/>
        <path id="Trazado_986241" data-name="Trazado 986241" d="M7.5,123.656v-.777a2.662,2.662,0,0,0,2.661,2.661h3.777a3.639,3.639,0,0,1,3.639,3.639v3.777a2.662,2.662,0,0,0,2.661,2.661h-.777a4.552,4.552,0,0,1-3.217-1.332l-7.413-7.413A4.552,4.552,0,0,1,7.5,123.656Z" transform="translate(-7.5 -110.495)" fill="#dddaec"/>
        <g id="Grupo_1151522" data-name="Grupo 1151522" transform="translate(10.376 4.193)">
          <path id="Trazado_986242" data-name="Trazado 986242" d="M106.507,59.828a1.885,1.885,0,0,1-1.49-.73l-3.152-4.066a1.885,1.885,0,0,1,2.98-2.31l1.415,1.825,2.761-4.889a1.885,1.885,0,0,1,3.283,1.854l-4.156,7.358a1.885,1.885,0,0,1-1.5.953C106.6,59.826,106.552,59.828,106.507,59.828Z" transform="translate(-101.469 -48.699)" fill="#a2e19f"/>
        </g>
        <g id="Grupo_1151523" data-name="Grupo 1151523" transform="translate(41.305 5.308)">
          <path id="Trazado_986243" data-name="Trazado 986243" d="M389.337,63.8l1.649-1.649a1.963,1.963,0,0,0-2.776-2.776l-1.649,1.649-1.649-1.649a1.963,1.963,0,0,0-2.776,2.776l1.649,1.649-1.649,1.649a1.963,1.963,0,0,0,2.776,2.776l1.649-1.649,1.649,1.649a1.963,1.963,0,0,0,2.776-2.776Z" transform="translate(-381.56 -58.799)" fill="#e28086"/>
        </g>
      </g>
      <g id="Grupo_1151525" data-name="Grupo 1151525" transform="translate(0 3.225)">
        <path id="Trazado_986244" data-name="Trazado 986244" d="M272.632,28.43a5.491,5.491,0,0,0,.519.455A5.335,5.335,0,0,0,276.434,30h10.155a4.472,4.472,0,0,0,4.467-4.468V7.693a4.472,4.472,0,0,0-4.467-4.468h-2.3a.828.828,0,0,0,0,1.656h2.3a2.814,2.814,0,0,1,2.81,2.811V25.537a2.814,2.814,0,0,1-2.81,2.811h-9.377a1.835,1.835,0,0,1-1.833-1.833V22.738a4.472,4.472,0,0,0-4.467-4.467h-3.777a1.835,1.835,0,0,1-1.833-1.833s0,0,0-.006V7.693a2.815,2.815,0,0,1,2.811-2.811H281a.828.828,0,1,0,0-1.656h-12.89a4.473,4.473,0,0,0-4.468,4.468v9.522a5.335,5.335,0,0,0,1.475,3.7c.033.035,7.513,7.518,7.513,7.518Zm-1.721-8.5a2.814,2.814,0,0,1,2.811,2.811v3.777a3.493,3.493,0,0,0,.079.741l-7.408-7.408a3.494,3.494,0,0,0,.741.079h3.777Z" transform="translate(-234.532 -3.225)"/>
        <path id="Trazado_986245" data-name="Trazado 986245" d="M286.591,266.145H268.115a4.473,4.473,0,0,0-4.467,4.467v9.521a5.416,5.416,0,0,0,.133,1.191,5.33,5.33,0,0,0,1.276,2.437c.054.059.109.117.166.174l7.413,7.413c.042.042.085.082.129.122a5.339,5.339,0,0,0,3.674,1.452h10.154a4.473,4.473,0,0,0,4.468-4.467V270.612A4.472,4.472,0,0,0,286.591,266.145ZM273.8,290.176l-7.408-7.408a3.488,3.488,0,0,0,.741.079h3.777a2.814,2.814,0,0,1,2.811,2.811v3.777A3.478,3.478,0,0,0,273.8,290.176Zm15.6-1.719a2.814,2.814,0,0,1-2.811,2.811h-9.377a1.835,1.835,0,0,1-1.833-1.833v-3.777a4.472,4.472,0,0,0-4.467-4.467h-3.777a1.835,1.835,0,0,1-1.833-1.829v-8.749a2.814,2.814,0,0,1,2.811-2.811h18.476a2.814,2.814,0,0,1,2.811,2.811v17.845Z" transform="translate(-234.534 -237.113)"/>
        <path id="Trazado_986246" data-name="Trazado 986246" d="M22.944,3.225H4.468A4.473,4.473,0,0,0,0,7.693v9.521a5.337,5.337,0,0,0,1.522,3.748l.052.055L8.988,28.43a5.342,5.342,0,0,0,3.6,1.57c.068,0,1.6.005,1.6.005a.828.828,0,1,0,0-1.656h-.616a1.835,1.835,0,0,1-1.833-1.833V22.738a4.472,4.472,0,0,0-4.467-4.467H3.49a1.835,1.835,0,0,1-1.833-1.825V7.693A2.815,2.815,0,0,1,4.468,4.881H22.944a2.815,2.815,0,0,1,2.811,2.811V25.537a2.815,2.815,0,0,1-2.811,2.811h-5.45a.828.828,0,0,0,0,1.656h5.45a4.473,4.473,0,0,0,4.468-4.468V7.693a4.473,4.473,0,0,0-4.468-4.468ZM7.267,19.927a2.814,2.814,0,0,1,2.811,2.811v3.777a3.491,3.491,0,0,0,.079.74L2.748,19.848a3.489,3.489,0,0,0,.741.079Z" transform="translate(0 -3.225)"/>
        <path id="Trazado_986247" data-name="Trazado 986247" d="M102.2,52.613l4.156-7.358a2.713,2.713,0,0,0-4.725-2.669l-2.149,3.8-.652-.841a2.713,2.713,0,0,0-4.289,3.325L97.7,52.941a2.732,2.732,0,0,0,2.144,1.051c.065,0,.131,0,.2-.007A2.707,2.707,0,0,0,102.2,52.613Zm-2.285-.28a1.065,1.065,0,0,1-.913-.407L95.855,47.86a1.057,1.057,0,0,1,1.671-1.3l1.415,1.825a.828.828,0,0,0,1.376-.1l2.761-4.889a1.057,1.057,0,1,1,1.841,1.04L100.763,51.8A1.054,1.054,0,0,1,99.92,52.333Z" transform="translate(-83.601 -37.014)"/>
        <path id="Trazado_986248" data-name="Trazado 986248" d="M384.911,52.127a2.794,2.794,0,0,0-3.947,0L379.9,53.191l-1.064-1.064a2.791,2.791,0,1,0-3.947,3.947l1.064,1.064L374.889,58.2a2.791,2.791,0,0,0,3.947,3.947l1.064-1.064,1.064,1.064a2.791,2.791,0,0,0,3.947-3.947l-1.064-1.064,1.064-1.064A2.794,2.794,0,0,0,384.911,52.127ZM383.739,54.9l-1.649,1.649a.828.828,0,0,0,0,1.171l1.649,1.649a1.135,1.135,0,0,1-1.6,1.6l-1.649-1.649a.828.828,0,0,0-1.171,0l-1.649,1.649a1.135,1.135,0,0,1-1.6-1.6l1.649-1.649a.828.828,0,0,0,0-1.171L376.06,54.9a1.135,1.135,0,0,1,1.6-1.6l1.649,1.649a.828.828,0,0,0,1.171,0l1.649-1.649a1.135,1.135,0,1,1,1.6,1.6Z" transform="translate(-332.767 -46.001)"/>
        <path id="Trazado_986249" data-name="Trazado 986249" d="M357.2,312.608H344.454a.828.828,0,0,0,0,1.656H357.2a.828.828,0,0,0,0-1.656Z" transform="translate(-305.682 -278.445)"/>
        <path id="Trazado_986250" data-name="Trazado 986250" d="M352.961,350.155h-8.506a.828.828,0,0,0,0,1.656h8.506a.828.828,0,1,0,0-1.656Z" transform="translate(-305.682 -311.846)"/>
      </g>
    </g>
  </g>
</svg>
