<svg xmlns="http://www.w3.org/2000/svg" xmlns:xlink="http://www.w3.org/1999/xlink" width="108" height="108" viewBox="0 0 108 108">
  <defs>
    <filter id="Trazado_982552" x="0" y="0" width="108" height="108" filterUnits="userSpaceOnUse">
      <feOffset dy="3" input="SourceAlpha"/>
      <feGaussianBlur stdDeviation="3" result="blur"/>
      <feFlood flood-opacity="0.161"/>
      <feComposite operator="in" in2="blur"/>
      <feComposite in="SourceGraphic"/>
    </filter>
  </defs>
  <g id="Grupo_1151558" data-name="Grupo 1151558" transform="translate(-831 -4970)">
    <g id="Grupo_1150792" data-name="Grupo 1150792" transform="translate(0 3180)">
      <g transform="matrix(1, 0, 0, 1, 831, 1790)" filter="url(#Trazado_982552)">
        <g id="Trazado_982552-2" data-name="Trazado 982552" transform="translate(9 6)" fill="#f3f3f3">
          <path d="M 45 88.5 C 39.12687683105469 88.5 33.43022537231445 87.35007476806641 28.06830024719238 85.08217620849609 C 22.88852500915527 82.89131164550781 18.23629951477051 79.75458526611328 14.2408504486084 75.75914764404297 C 10.24541282653809 71.76370239257812 7.108687400817871 67.11147308349609 4.917825222015381 61.93170166015625 C 2.649924993515015 56.56977462768555 1.5 50.87312316894531 1.5 45 C 1.5 39.12687683105469 2.649924993515015 33.43022537231445 4.917825222015381 28.06830024719238 C 7.108687400817871 22.88852500915527 10.24541282653809 18.23629951477051 14.2408504486084 14.2408504486084 C 18.23629951477051 10.24541282653809 22.88852500915527 7.108687400817871 28.06830024719238 4.917825222015381 C 33.43022537231445 2.649924993515015 39.12687683105469 1.5 45 1.5 C 50.87312316894531 1.5 56.56977462768555 2.649924993515015 61.93170166015625 4.917825222015381 C 67.11147308349609 7.108687400817871 71.76370239257812 10.24541282653809 75.75914764404297 14.2408504486084 C 79.75458526611328 18.23629951477051 82.89131164550781 22.88852500915527 85.08217620849609 28.06830024719238 C 87.35007476806641 33.43022537231445 88.5 39.12687683105469 88.5 45 C 88.5 50.87312316894531 87.35007476806641 56.56977462768555 85.08217620849609 61.93170166015625 C 82.89131164550781 67.11147308349609 79.75458526611328 71.76370239257812 75.75914764404297 75.75914764404297 C 71.76370239257812 79.75458526611328 67.11147308349609 82.89131164550781 61.93170166015625 85.08217620849609 C 56.56977462768555 87.35007476806641 50.87312316894531 88.5 45 88.5 Z" stroke="none"/>
          <path d="M 45 3 C 39.32871246337891 3 33.82865524291992 4.110054016113281 28.65262985229492 6.299339294433594 C 23.65165710449219 8.414573669433594 19.15968322753906 11.44334411621094 15.301513671875 15.301513671875 C 11.44334411621094 19.15968322753906 8.414573669433594 23.65165710449219 6.299339294433594 28.65262985229492 C 4.110054016113281 33.82865524291992 3 39.32871246337891 3 45 C 3 50.67128753662109 4.110054016113281 56.17134475708008 6.299339294433594 61.34737396240234 C 8.414573669433594 66.34834289550781 11.44334411621094 70.84031677246094 15.301513671875 74.698486328125 C 19.15968322753906 78.55665588378906 23.65165710449219 81.58542633056641 28.65262985229492 83.70066070556641 C 33.82865524291992 85.88994598388672 39.32871246337891 87 45 87 C 50.67128753662109 87 56.17134475708008 85.88994598388672 61.34737396240234 83.70066070556641 C 66.34834289550781 81.58542633056641 70.84031677246094 78.55665588378906 74.698486328125 74.698486328125 C 78.55665588378906 70.84031677246094 81.58542633056641 66.34834289550781 83.70066070556641 61.34737396240234 C 85.88994598388672 56.17134475708008 87 50.67128753662109 87 45 C 87 39.32871246337891 85.88994598388672 33.82865524291992 83.70066070556641 28.65262985229492 C 81.58542633056641 23.65165710449219 78.55665588378906 19.15968322753906 74.698486328125 15.301513671875 C 70.84031677246094 11.44334411621094 66.34834289550781 8.414573669433594 61.34737396240234 6.299339294433594 C 56.17134475708008 4.110054016113281 50.67128753662109 3 45 3 M 45 0 C 69.85281372070312 0 90 20.14718627929688 90 45 C 90 69.85281372070312 69.85281372070312 90 45 90 C 20.14718627929688 90 0 69.85281372070312 0 45 C 0 20.14718627929688 20.14718627929688 0 45 0 Z" stroke="none" fill="#fd7940"/>
        </g>
      </g>
    </g>
    <g id="procedimiento" transform="translate(837.829 4959.368)">
      <path id="Trazado_986278" data-name="Trazado 986278" d="M336.054,422.358h18.914V427.9H336.054Z" transform="translate(-281.383 -341.312)" fill="#fe646f"/>
      <path id="Trazado_986279" data-name="Trazado 986279" d="M336.054,240.884h18.914v5.541H336.054Z" transform="translate(-281.383 -183.197)" fill="#8ac9fe"/>
      <path id="Trazado_986280" data-name="Trazado 986280" d="M336.054,331.621h18.914v5.541H336.054Z" transform="translate(-281.383 -262.255)" fill="#ffe177"/>
      <path id="Trazado_986281" data-name="Trazado 986281" d="M202.407,315.775a5.055,5.055,0,1,0,5.056,5.056A5.055,5.055,0,0,0,202.407,315.775Z" transform="translate(-160.536 -248.448)" fill="#6cf5c2"/>
      <path id="Trazado_986282" data-name="Trazado 986282" d="M61.925,132.989l-4.462-7.729a1.026,1.026,0,0,1-.454-.5l-.832-1.962-1.505-.623-1.974.8a1.03,1.03,0,0,1-1.114-.227l-2.105-2.105a1.03,1.03,0,0,1-.227-1.114l.8-1.974-.623-1.505-1.961-.832a1.03,1.03,0,0,1-.628-.949V111.3a1.028,1.028,0,0,1,.273-.7,5.456,5.456,0,0,0-1.243-.145,5.159,5.159,0,0,0-4.574,2.637l-11.487,19.9a5.281,5.281,0,0,0,4.57,7.92h14.4a7.111,7.111,0,0,1,13.14-2.624l.01-.016a5.162,5.162,0,0,0,0-5.28Z" transform="translate(-13.941 -69.556)" fill="#ffe177"/>
      <path id="Trazado_986283" data-name="Trazado 986283" d="M31.928,60.876a2.878,2.878,0,0,0,2.832-2.791l.328-7.459a3,3,0,0,0-.849-2.219,3.2,3.2,0,0,0-4.626,0,3,3,0,0,0-.848,2.219l.328,7.458a2.871,2.871,0,0,0,2.834,2.791ZM31.1,49.832a1.137,1.137,0,0,1,1.651,0,.967.967,0,0,1,.279.7L32.7,57.991a.777.777,0,1,1-1.551,0l-.328-7.458a.965.965,0,0,1,.278-.7Zm.827,12.111a2.838,2.838,0,1,0,2.837,2.836A2.838,2.838,0,0,0,31.928,61.943Zm0,3.616a.778.778,0,1,1,.776-.78A.778.778,0,0,1,31.928,65.559ZM45.5,50a6.775,6.775,0,1,0-6.773-6.777A6.775,6.775,0,0,0,45.5,50Zm0-11.49a4.715,4.715,0,1,1-4.713,4.714A4.715,4.715,0,0,1,45.5,38.512Zm29.11,17.115H65.464v-12.4a1.03,1.03,0,0,0-1.03-1.03H58.108v-.456a1.03,1.03,0,0,0-.628-.948l-1.961-.831-.623-1.5.8-1.974a1.03,1.03,0,0,0-.226-1.113l-2.1-2.105a1.03,1.03,0,0,0-1.114-.227l-1.978.8-1.5-.623-.828-1.96a1.03,1.03,0,0,0-.949-.629H44.016a1.03,1.03,0,0,0-.948.628l-.832,1.962-1.505.623-1.974-.8a1.03,1.03,0,0,0-1.114.227l-2.105,2.105a1.03,1.03,0,0,0-.227,1.114l.8,1.974-.55,1.328a7.357,7.357,0,0,0-3.632-.945,7.264,7.264,0,0,0-6.358,3.667L14.084,62.4a7.34,7.34,0,0,0,6.354,11.009H31.11v10.4a1.03,1.03,0,0,0,1.03,1.03H52.612v2.768a1.03,1.03,0,0,0,1.03,1.03H74.615a1.03,1.03,0,0,0,1.03-1.03v-7.6a1.03,1.03,0,0,0-1.03-1.03H65.464v-2.02h9.151a1.03,1.03,0,0,0,1.03-1.03v-7.6a1.03,1.03,0,0,0-1.03-1.03H65.464v-2.02h9.151a1.03,1.03,0,0,0,1.03-1.03v-7.6a1.03,1.03,0,0,0-1.03-1.03ZM36.679,41.693a1.03,1.03,0,0,0,.55-.554l.945-2.284a1.03,1.03,0,0,0,0-.78l-.7-1.732L38.618,35.2l1.732.7a1.03,1.03,0,0,0,.78,0l2.285-.945a1.03,1.03,0,0,0,.553-.55l.73-1.722H46.31l.727,1.721a1.03,1.03,0,0,0,.555.551l2.284.945a1.03,1.03,0,0,0,.779,0l1.736-.7,1.139,1.141-.7,1.733a1.03,1.03,0,0,0,0,.78l.945,2.284a1.03,1.03,0,0,0,.55.554l1.722.73v1.61l-1.722.73a1.03,1.03,0,0,0-.55.554L52.832,47.6a1.03,1.03,0,0,0,0,.78l.7,1.733-1.139,1.141-1.736-.7a1.03,1.03,0,0,0-.779,0l-2.284.945a1.03,1.03,0,0,0-.555.551l-.727,1.72H44.7l-.73-1.722a1.03,1.03,0,0,0-.554-.55l-2.284-.945a1.03,1.03,0,0,0-.78,0l-1.732.7-1.141-1.141.7-1.732a1.03,1.03,0,0,0,0-.78l-.945-2.284a1.03,1.03,0,0,0-.55-.554l-1.721-.73v-1.61ZM15.868,68.712a5.16,5.16,0,0,1,0-5.279l11.486-19.9A5.159,5.159,0,0,1,31.928,40.9a5.456,5.456,0,0,1,1.243.145,1.028,1.028,0,0,0-.273.7v2.973a1.03,1.03,0,0,0,.628.948l1.961.832L36.11,48l-.8,1.974a1.03,1.03,0,0,0,.227,1.114l2.105,2.105a1.03,1.03,0,0,0,1.114.227l1.974-.8,1.505.623.832,1.962a1.026,1.026,0,0,0,.454.5l4.462,7.729a5.162,5.162,0,0,1,0,5.28l-.01.016a7.111,7.111,0,0,0-13.14,2.625h-14.4a5.158,5.158,0,0,1-4.57-2.641Zm31.06,3.671a5.055,5.055,0,1,1-5.056-5.056,5.055,5.055,0,0,1,5.056,5.056Zm26.658,14.2H54.671V81.046H73.585Zm0-11.676H54.671V69.366H73.585ZM63.4,67.307H53.642a1.03,1.03,0,0,0-1.03,1.03v7.6a1.03,1.03,0,0,0,1.03,1.03H63.4v2.02H53.642a1.03,1.03,0,0,0-1.03,1.03v2.769H33.169V73.413h1.665a7.114,7.114,0,1,0,14.018-2.406,7.518,7.518,0,0,0,.916-1.265,7.265,7.265,0,0,0,0-7.338l-3.793-6.57h1.019a1.03,1.03,0,0,0,.949-.629l.828-1.961,1.5-.622,1.978.8a1.03,1.03,0,0,0,1.114-.227l2.1-2.105a1.03,1.03,0,0,0,.226-1.113L54.9,48l.623-1.505,1.961-.832a1.03,1.03,0,0,0,.628-.948v-.459h5.3V55.627H53.642a1.03,1.03,0,0,0-1.03,1.03v7.6a1.03,1.03,0,0,0,1.03,1.03H63.4Zm10.18-4.079H54.671V57.687H73.585ZM56.822,60.459a1.03,1.03,0,0,1,1.03-1.03H70.4a1.03,1.03,0,1,1,0,2.06H57.852A1.03,1.03,0,0,1,56.822,60.459Zm0,11.676a1.03,1.03,0,0,1,1.03-1.03H70.4a1.03,1.03,0,1,1,0,2.06H57.852A1.03,1.03,0,0,1,56.822,72.135Zm0,11.68a1.03,1.03,0,0,1,1.03-1.03H70.4a1.03,1.03,0,1,1,0,2.06H57.852A1.03,1.03,0,0,1,56.822,83.815ZM45.237,69.8a1.03,1.03,0,0,1,0,1.456l-3.7,3.7a1.029,1.029,0,0,1-1.457,0l-1.576-1.58a1.03,1.03,0,1,1,1.458-1.455l.848.85L43.781,69.8a1.03,1.03,0,0,1,1.456,0Z" transform="translate(0 0)"/>
      <path id="Trazado_986284" data-name="Trazado 986284" d="M185.171,59.26l.945,2.284a1.03,1.03,0,0,1,0,.78l-.7,1.732L186.56,65.2l1.732-.7a1.03,1.03,0,0,1,.78,0l2.284.945a1.03,1.03,0,0,1,.554.55l.73,1.722h1.612L194.98,66a1.03,1.03,0,0,1,.555-.551l2.284-.945a1.03,1.03,0,0,1,.779,0l1.736.7,1.139-1.141-.7-1.733a1.03,1.03,0,0,1,0-.78l.945-2.284a1.03,1.03,0,0,1,.55-.554l1.722-.73v-1.61l-1.722-.73a1.03,1.03,0,0,1-.55-.554l-.945-2.284a1.03,1.03,0,0,1,0-.78l.7-1.733-1.139-1.14-1.736.7a1.03,1.03,0,0,1-.779,0l-2.284-.945a1.03,1.03,0,0,1-.555-.551l-.727-1.721h-1.612l-.73,1.722a1.03,1.03,0,0,1-.554.55l-2.284.945a1.03,1.03,0,0,1-.78,0l-1.732-.7-1.141,1.141.7,1.732a1.03,1.03,0,0,1,0,.78l-.945,2.284a1.03,1.03,0,0,1-.55.554l-1.722.73v1.61l1.722.73a1.03,1.03,0,0,1,.549.555Zm8.277-8.864a6.775,6.775,0,1,1-6.773,6.774,6.775,6.775,0,0,1,6.773-6.774Z" transform="translate(-147.943 -13.943)" fill="#837683"/>
      <g id="Grupo_1151557" data-name="Grupo 1151557" transform="translate(30.822 49.477)">
        <path id="Trazado_986285" data-name="Trazado 986285" d="M154.083,289.951a.778.778,0,1,0,.776.776A.778.778,0,0,0,154.083,289.951Z" transform="translate(-152.977 -275.425)" fill="#fe646f"/>
        <path id="Trazado_986286" data-name="Trazado 986286" d="M151.876,186.443a.812.812,0,0,0,.774-.825l.328-7.454a.967.967,0,0,0-.279-.705,1.137,1.137,0,0,0-1.651,0,.965.965,0,0,0-.278.7l.328,7.458A.809.809,0,0,0,151.876,186.443Z" transform="translate(-150.77 -177.104)" fill="#fe646f"/>
      </g>
    </g>
  </g>
</svg>
